<?xml version="1.0" encoding="UTF-8" standalone="no"?>
<!-- Created with Inkscape (http://www.inkscape.org/) -->

<svg
   width="341.60831mm"
   height="86.013062mm"
   viewBox="0 0 341.60831 86.013062"
   version="1.1"
   id="svg5"
   xml:space="preserve"
   inkscape:version="1.2.2 (b0a8486, 2022-12-01)"
   sodipodi:docname="LogoSkipper.svg"
   inkscape:export-filename="../Development/Personal/skipper/src/images/skipper_logo.svg"
   inkscape:export-xdpi="213.99507"
   inkscape:export-ydpi="213.99507"
   xmlns:inkscape="http://www.inkscape.org/namespaces/inkscape"
   xmlns:sodipodi="http://sodipodi.sourceforge.net/DTD/sodipodi-0.dtd"
   xmlns="http://www.w3.org/2000/svg"
   xmlns:svg="http://www.w3.org/2000/svg"><sodipodi:namedview
     id="namedview7"
     pagecolor="#ffffff"
     bordercolor="#666666"
     borderopacity="1.0"
     inkscape:showpageshadow="2"
     inkscape:pageopacity="0.0"
     inkscape:pagecheckerboard="0"
     inkscape:deskcolor="#d1d1d1"
     inkscape:document-units="mm"
     showgrid="false"
     inkscape:zoom="0.31010743"
     inkscape:cx="536.9107"
     inkscape:cy="1147.9893"
     inkscape:window-width="1440"
     inkscape:window-height="900"
     inkscape:window-x="0"
     inkscape:window-y="0"
     inkscape:window-maximized="0"
     inkscape:current-layer="g2372" /><defs
     id="defs2" /><g
     inkscape:label="Livello 1"
     inkscape:groupmode="layer"
     id="layer1"
     transform="translate(704.62499,-92.613188)"><path
       fill="none"
       stroke="#02063b"
       paint-order="fill stroke markers"
       d="m -702.62809,109.94275 0.26417,-0.21618 0.26417,-0.21582 0.26418,-0.21543 0.26417,-0.21499 0.26417,-0.21452 0.26418,-0.21404 0.26418,-0.21351 0.26417,-0.21294 0.26418,-0.21234 0.26417,-0.21172 0.26417,-0.21105 0.26418,-0.21035 0.26417,-0.20963 0.26417,-0.20885 0.26418,-0.20807 0.26417,-0.20725 0.26417,-0.20638 0.26418,-0.20549 0.26417,-0.20457 0.26418,-0.20361 0.26418,-0.20262 0.26417,-0.2016 0.26417,-0.20056 0.26418,-0.19947 0.26417,-0.19836 0.26417,-0.19721 0.26418,-0.19605 0.26417,-0.19483 0.26417,-0.1936 0.26418,-0.19233 0.26417,-0.19104 0.26418,-0.18971 0.26418,-0.18836 0.26417,-0.18697 0.26417,-0.18555 0.26418,-0.18412 0.26417,-0.18263 0.26417,-0.18114 0.26418,-0.17961 0.26417,-0.17805 0.26417,-0.17646 0.26418,-0.17486 0.26417,-0.17321 0.26417,-0.17156 0.26419,-0.16986 0.26417,-0.16813 0.26417,-0.16639 0.26418,-0.16461 0.26417,-0.16282 0.26417,-0.16099 0.26418,-0.15914 0.26417,-0.157279 0.26417,-0.155375 0.26418,-0.153447 0.26417,-0.151507 0.26417,-0.149532 0.26418,-0.147542 0.26418,-0.145524 0.26417,-0.143482 0.26418,-0.141423 0.26417,-0.139342 0.26417,-0.137233 0.26418,-0.135106 0.26417,-0.132957 0.26417,-0.13079 0.26418,-0.1286 0.26417,-0.126391 0.26417,-0.124162 0.26418,-0.121911 0.26417,-0.119647 0.26418,-0.117357 0.26418,-0.115055 0.26417,-0.112732 0.26417,-0.11039 0.26418,-0.108034 0.26417,-0.105659 0.26417,-0.103269 0.26418,-0.100862 0.26417,-0.09844 0.26417,-0.096 0.26418,-0.09354 0.26417,-0.09108 0.26417,-0.08859 0.26419,-0.08611 0.26417,-0.08359 0.26417,-0.08107 0.26418,-0.07854 0.26417,-0.07598 0.26417,-0.07343 0.26418,-0.07086 0.26417,-0.06827 0.26417,-0.06568 0.26418,-0.06308 0.26417,-0.06047 0.26417,-0.05785 0.26419,-0.05521 0.26417,-0.05258 0.26417,-0.04993 0.26418,-0.04727 0.26417,-0.04461 0.26417,-0.04194 0.26418,-0.03926 0.26417,-0.03658 0.26417,-0.0339 0.26418,-0.03119 0.26417,-0.0285 0.26417,-0.02581 0.26418,-0.02309 0.26418,-0.02037 0.26417,-0.01767 0.26418,-0.01495 0.26417,-0.01223 0.26417,-0.0095 0.26418,-0.0068 0.26417,-0.0041 0.26417,-0.0013 0.26418,0.0013 0.26417,0.0041 0.26418,0.0069 0.26417,0.0096 0.26417,0.01228 0.26419,0.01501 0.26417,0.0177 0.26417,0.02042 0.26418,0.02314 0.26417,0.02584 0.26417,0.02855 0.26418,0.03124 0.26417,0.03394 0.26417,0.03662 0.26418,0.03931 0.26417,0.04198 0.26417,0.04465 0.26418,0.04732 0.26418,0.04997 0.26417,0.05262 0.26418,0.05526 0.26417,0.05789 0.26417,0.06052 0.26418,0.06312 0.26417,0.06573 0.26417,0.06832 0.26418,0.0709 0.26417,0.07348 0.26417,0.07603 0.26418,0.07858 0.26418,0.08111 0.26417,0.08364 0.26418,0.08615 0.26417,0.08864 0.26417,0.09112 0.26418,0.0936 0.26417,0.09604 0.26417,0.09848 0.26418,0.100903 0.26417,0.103311 0.26417,0.105705 0.26418,0.108073 0.26417,0.110433 0.26418,0.112774 0.26418,0.115094 0.26417,0.117399 0.26417,0.119687 0.26418,0.121953 0.26417,0.124202 0.26417,0.126429 0.26418,0.128639 0.26417,0.130827 0.26417,0.132999 0.26418,0.135143 0.26417,0.13727 0.26417,0.139378 0.26419,0.141461 0.26417,0.14352 0.26417,0.14556 0.26418,0.147575 0.26417,0.149571 0.26417,0.151538 0.26418,0.153485 0.26417,0.155406 0.26417,0.157303 0.26418,0.15917 0.26417,0.16103 0.26417,0.16285 0.26418,0.16465 0.26418,0.16642 0.26417,0.16817 0.26418,0.16989 0.26417,0.17157 0.26417,0.17324 0.26418,0.17489 0.26417,0.1765 0.26417,0.17807 0.26418,0.17964 0.26417,0.18116 0.26417,0.18267 0.26418,0.18414 0.26417,0.18559 0.26418,0.18699 0.26418,0.18838 0.26417,0.18973 0.26417,0.19106 0.26418,0.19236 0.26417,0.19362 0.26417,0.19485 0.26418,0.19606 0.26417,0.19724 0.26417,0.19838 0.26418,0.19949 0.26417,0.20058 0.26418,0.20162 0.26418,0.20263 0.26417,0.20364 0.26417,0.20458 0.26418,0.2055 0.26417,0.2064 0.26417,0.20726 0.26418,0.20809 0.26417,0.20888 0.26417,0.20963 0.26418,0.21037 0.26417,0.21106 0.26417,0.21172 0.26419,0.21236 0.26417,0.21295 0.26417,0.21351 0.26418,0.21405 0.26417,0.21454 0.26417,0.215 0.26418,0.21543 0.26417,0.21583 0.26417,0.21618 0.26418,0.21653 0.26417,0.2168 0.26417,0.21707 0.26418,0.2173 0.26418,0.21749 0.26417,0.21765 0.26418,0.21778 0.26417,0.21786 0.26417,0.21792 0.26418,0.21793 0.26417,0.21794 0.26417,0.21788 0.26418,0.21781 0.26417,0.21768 0.26417,0.21755 0.26418,0.21736 0.26417,0.21714 0.26418,0.2169 0.26418,0.21661 0.26417,0.2163 0.26417,0.21594 0.26418,0.21556 0.26417,0.21514 0.26417,0.21468 0.26418,0.2142 0.26417,0.21368 0.26417,0.21313 0.26418,0.21254 0.26417,0.21192 0.26418,0.21128 0.26418,0.21058 0.26417,0.20987 0.26417,0.20912 0.26418,0.20833 0.26417,0.20752 0.26417,0.20667 0.26418,0.20578 0.26417,0.20487 0.26417,0.20393 0.26418,0.20295 0.26417,0.20195 0.26417,0.2009 0.26419,0.19983 0.26417,0.19873 0.26417,0.19759 0.26418,0.19643 0.26417,0.19522 0.26417,0.19401 0.26418,0.19276 0.26417,0.19146 0.26417,0.19014 0.26418,0.18881 0.26417,0.18742 0.26417,0.18602 0.26418,0.1846 0.26418,0.18312 0.26417,0.18163 0.26418,0.18011 0.26417,0.17857 0.26417,0.17699 0.26418,0.17538 0.26417,0.17376 0.26417,0.1721 0.26418,0.17041 0.26417,0.1687 0.26417,0.16696 0.26418,0.16521 0.26417,0.1634 0.26418,0.1616 0.26418,0.15974 0.26417,0.1579 0.26417,0.156 0.26418,0.15408 0.26417,0.15214 0.26417,0.15018 0.26418,0.1482 0.26417,0.14619 0.26417,0.14415 0.26418,0.1421 0.26417,0.14003 0.26417,0.13792 0.26419,0.1358 0.26417,0.13366 0.26417,0.13151 0.26418,0.12932 0.26417,0.12711 0.26417,0.1249 0.26418,0.12265 0.26417,0.12039 0.26417,0.11811 0.26418,0.11581 0.26417,0.1135 0.26417,0.11115 0.26419,0.10881 0.26417,0.10644 0.26417,0.10405 0.26418,0.10165 0.26417,0.0992 0.26417,0.0968 0.26418,0.0943 0.26417,0.0919 0.26417,0.0895 0.26418,0.0869 0.26417,0.0845 0.26417,0.0819 0.26418,0.0794 0.26418,0.0768 0.26417,0.0743 0.26418,0.0717 0.26417,0.0691 0.26417,0.0665 0.26418,0.0639 0.26417,0.0613 0.26417,0.0587 0.26418,0.0561 0.26417,0.0534 0.26417,0.0508 0.26418,0.0481 0.26417,0.0455 0.26418,0.0428 0.26418,0.0401 0.26417,0.0375 0.26417,0.0347 0.26418,0.032 0.26417,0.0294 0.26417,0.0266 0.26418,0.024 0.26417,0.0213 0.26417,0.0186 0.26418,0.0159 0.26417,0.0132 0.26417,0.0104 0.26419,0.008 0.26417,0.005 0.26417,0.002 0.26418,-5.3e-4 0.26417,-0.003 0.26417,-0.006 0.26418,-0.009 0.26417,-0.0114 0.26417,-0.0141 0.26418,-0.0169 0.26417,-0.0196 0.26417,-0.0223 0.26419,-0.025 0.26417,-0.0277 0.26417,-0.0303 0.26418,-0.033 0.26417,-0.0357 0.26417,-0.0384 0.26418,-0.0411 0.26417,-0.0438 0.26417,-0.0464 0.26418,-0.0491 0.26417,-0.0517 0.26417,-0.0544 0.26418,-0.057 0.26418,-0.0597 0.26417,-0.0623 0.26418,-0.0649 0.26417,-0.0675 0.26417,-0.0701 0.26418,-0.0726 0.26417,-0.0752 0.26417,-0.0778 0.26418,-0.0803 0.26417,-0.0828 0.26417,-0.0854 0.26418,-0.0879 0.26417,-0.0904 0.26418,-0.0928 0.26418,-0.0952 0.26417,-0.0977 0.26417,-0.10011 0.26418,-0.10253 0.26417,-0.10492 0.26417,-0.1073 0.26418,-0.10966 0.26417,-0.11201 0.26417,-0.11433 0.26418,-0.11665 0.26417,-0.11895 0.26417,-0.12121 0.26419,-0.12346 0.26417,-0.12571 0.26417,-0.12792 0.26418,-0.13011 0.26417,-0.13229 0.26417,-0.13444 0.26418,-0.13658 0.26417,-0.13869 0.26417,-0.14078 0.26418,-0.14285 0.26417,-0.14489 0.26417,-0.14691 0.26418,-0.14893 0.26418,-0.1509 0.26417,-0.15284 0.26418,-0.15478 0.26417,-0.15669 0.26417,-0.15858 0.26418,-0.16042 0.26417,-0.16225 0.26417,-0.16406 0.26418,-0.16584 0.26417,-0.1676 0.26417,-0.16932 0.26418,-0.17103 0.26418,-0.1727 0.26417,-0.17436 0.26418,-0.17597 0.26417,-0.17756 0.26417,-0.17913 0.26418,-0.18066 0.26417,-0.18218 0.26417,-0.18367 0.26418,-0.18511 0.26417,-0.18653 0.26417,-0.18793 0.26418,-0.18929 0.26417,-0.19063 0.26418,-0.19194 0.26418,-0.19321 0.26417,-0.19445 0.26417,-0.19567 0.26418,-0.19686 0.26417,-0.19801 0.26417,-0.19913 0.26418,-0.20022 0.26417,-0.20128 0.26417,-0.20232 0.26418,-0.2033 0.26417,-0.20427 0.26417,-0.20522 0.26419,-0.20611 0.26417,-0.20698 0.26417,-0.20782 0.26418,-0.20861 0.26417,-0.2094 0.26417,-0.21013 0.26418,-0.21084 0.26417,-0.21151 0.26417,-0.21215 0.26418,-0.21276 0.26417,-0.21333 0.26417,-0.21388 0.26418,-0.21438 0.26418,-0.21485 0.26417,-0.21529 0.26418,-0.21571 0.26417,-0.21607 0.26417,-0.21642 0.26418,-0.21671 0.26417,-0.21699 0.26417,-0.21723 0.26418,-0.21743 0.26417,-0.2176 0.26417,-0.21774 0.26418,-0.21783 0.26417,-0.2179 0.26418,-0.21794 0.26418,-0.21795 0.26417,-0.2179 0.26417,-0.21783 0.26418,-0.21773 0.26417,-0.2176 0.26417,-0.21742 0.26418,-0.21722 0.26417,-0.21698 0.26417,-0.21671 0.26418,-0.2164 0.26417,-0.21606 0.26418,-0.21569 0.26418,-0.21527 0.26417,-0.21485 0.26417,-0.21436 0.26418,-0.21386 0.26417,-0.21331 0.26417,-0.21274 0.26418,-0.21213 0.26417,-0.21148 0.26417,-0.21082 0.26418,-0.2101 0.26417,-0.20937 0.26417,-0.20859 0.26419,-0.20779 0.26417,-0.20695 0.26417,-0.20608 0.26418,-0.20517 0.26417,-0.20425 0.26417,-0.20326 0.26418,-0.20228 0.26417,-0.20125 0.26417,-0.20018 0.26418,-0.1991 0.26417,-0.19796 0.26417,-0.19682 0.26418,-0.19562 0.26418,-0.19441 0.26417,-0.19317 0.26418,-0.19189 0.26417,-0.19058 0.26417,-0.18925 0.26418,-0.18788 0.26417,-0.18648 0.26417,-0.18506 0.26418,-0.18361 0.26417,-0.18212 0.26417,-0.18061 0.26418,-0.17909 0.26417,-0.1775 0.26418,-0.17592 0.26418,-0.17429 0.26417,-0.17264 0.26417,-0.17097 0.26418,-0.16926 0.26417,-0.16754 0.26417,-0.16577 0.26418,-0.164 0.26417,-0.16219 0.26417,-0.16037 0.26418,-0.158492 0.26417,-0.156618 0.26418,-0.15471 0.26418,-0.152783 0.26417,-0.150827 0.26417,-0.14885 0.26418,-0.146846 0.26417,-0.144823 0.26417,-0.142776 0.26418,-0.140704 0.26417,-0.138615 0.26417,-0.136501 0.26418,-0.134369 0.26417,-0.132211 0.26417,-0.130035 0.26419,-0.127842 0.26417,-0.125622 0.26417,-0.123388 0.26418,-0.121133 0.26417,-0.118857 0.26417,-0.116566 0.26418,-0.114253 0.26417,-0.111926 0.26417,-0.109579 0.26418,-0.107218 0.26417,-0.104834 0.26417,-0.102439 0.26418,-0.100027 0.26418,-0.0976 0.26417,-0.09515 0.26418,-0.0927 0.26417,-0.09022 0.26417,-0.08773 0.26418,-0.08524 0.26417,-0.08272 0.26417,-0.0802 0.26418,-0.07766 0.26417,-0.0751 0.26417,-0.07255 0.26418,-0.06996 0.26417,-0.06739 0.26418,-0.06479 0.26418,-0.06218 0.26417,-0.05957 0.26417,-0.05693 0.26418,-0.0543 0.26417,-0.05166 0.26417,-0.04901 0.26418,-0.04636 0.26417,-0.04368 0.26417,-0.04102 0.26418,-0.03834 0.26417,-0.03566 0.26417,-0.03296 0.26419,-0.03026 0.26417,-0.02757 0.26417,-0.02486 0.26418,-0.02217 0.26417,-0.01944 0.26417,-0.01672 0.26418,-0.014 0.26417,-0.01128 0.26417,-0.0086 0.26418,-0.0058 0.26417,-0.0031 0.26417,-2.65e-4 0.26419,0.0024 0.26417,0.0051 0.26417,0.0078 0.26418,0.01048 0.26417,0.01321 0.26417,0.01592 0.26418,0.01865 0.26417,0.02137 0.26417,0.02406 0.26418,0.02678 0.26417,0.02948 0.26417,0.03218 0.26418,0.03487 0.26418,0.03755 0.26417,0.04024 0.26418,0.04291 0.26417,0.04558 0.26417,0.04824 0.26418,0.05089 0.26417,0.05354 0.26417,0.05617 0.26418,0.0588 0.26417,0.06141 0.26417,0.06402 0.26418,0.06663 0.26417,0.06921 0.26418,0.07179 0.26418,0.07435 0.26417,0.07691 0.26417,0.07946 0.26418,0.08198 0.26417,0.08451 0.26417,0.087 0.26418,0.0895 0.26417,0.09198 0.26417,0.09443 0.26418,0.09689 0.26417,0.09932 0.26417,0.101736 0.26419,0.104141 0.26417,0.106523 0.26417,0.108889 0.26418,0.111244 0.26417,0.113577 0.26417,0.115892 0.26418,0.118189 0.26417,0.120471 0.26417,0.12273 0.26418,0.124974 0.26417,0.127194 0.26417,0.129398 0.26419,0.131579 0.26417,0.133739 0.26417,0.135883 0.26418,0.137999 0.26417,0.140097 0.26417,0.142176 0.26418,0.144226 0.26417,0.14626 0.26417,0.148265 0.26418,0.150251 0.26417,0.152216 0.26417,0.15415 0.26418,0.156064 0.26418,0.157956 0.26417,0.15982 0.26418,0.16166 0.26417,0.16347 0.26417,0.16526 0.26418,0.16703 0.26417,0.16876 0.26417,0.17046 0.26418,0.17217 0.26417,0.17381 0.26417,0.17545 0.26418,0.17704 0.26417,0.17863 0.26418,0.18016 0.26418,0.18169 0.26417,0.18317 0.26417,0.18465 0.26418,0.18606 0.26417,0.18748 0.26417,0.18884 0.26418,0.1902 0.26417,0.19151 0.26417,0.19279 0.26418,0.19406 0.26417,0.19527 0.26417,0.19648 0.26419,0.19763 0.26417,0.19876 0.26417,0.19987 0.26418,0.20094 0.26417,0.20199 0.26417,0.20298 0.26418,0.20396 0.26417,0.2049 0.26417,0.20582 0.26418,0.2067 0.26417,0.20754 0.26417,0.20837 0.26418,0.20914 0.26418,0.20989 0.26417,0.21061 0.26418,0.2113 0.26417,0.21195 0.26417,0.21256 0.26418,0.21315 0.26417,0.2137 0.26417,0.21422 0.26418,0.21469 0.26417,0.21516 0.26417,0.21558 0.26418,0.21595 0.26418,0.21631 0.26417,0.21662 0.26418,0.2169 0.26417,0.21716 0.26417,0.21736 0.26418,0.21755 0.26417,0.2177 0.26417,0.2178 0.26418,0.21789 0.26417,0.21793 0.26417,0.21795 0.26418,0.21791 0.26417,0.21786 0.26418,0.21777 0.26418,0.21765 0.26417,0.21748 0.26417,0.21729 0.26418,0.21706 0.26417,0.2168 0.26417,0.21651 0.26418,0.21617 0.26417,0.21582 0.26417,0.21541 0.26418,0.21499 0.26417,0.21453 0.26417,0.21402 0.26419,0.2135 0.26417,0.21293 0.26417,0.21233 0.26418,0.2117 0.26417,0.21103 0.26417,0.21035 0.26418,0.20961 0.26417,0.20885 0.26417,0.20806 0.26418,0.20723 0.26417,0.20636 0.26417,0.20547 0.26418,0.20455 0.26418,0.20359 0.26417,0.20261 0.26418,0.20159 0.26417,0.20054 0.26417,0.19945 0.26418,0.19833 0.26417,0.19721 0.26417,0.19601 0.26418,0.19481 0.26417,0.19358 0.26417,0.19231 0.26418,0.19102 0.26418,0.18968 0.26417,0.18833 0.26418,0.18694 0.26417,0.18553 0.26417,0.18409 0.26418,0.18262 0.26417,0.18111 0.26417,0.17958 0.26418,0.17802 0.26417,0.17644 0.26417,0.17483 0.26418,0.17318 0.26417,0.17152 0.26418,0.16983 0.26418,0.1681 0.26417,0.16636 0.26417,0.16458 0.26418,0.16279 0.26417,0.16096 0.26417,0.15911 0.26418,0.15724 0.26417,0.15534 0.26417,0.15342 0.26418,0.15146 0.26417,0.1495 0.26417,0.1475 0.26419,0.1455 0.26417,0.14345 0.26417,0.14138 0.26418,0.1393 0.26417,0.1372 0.26417,0.13507 0.26418,0.13291 0.26417,0.13075 0.26417,0.12856 0.26418,0.12636 0.26417,0.12412 0.26417,0.12188 0.26418,0.1196 0.26418,0.11732 0.26417,0.11501 0.26418,0.11269 0.26417,0.11034 0.26417,0.108 0.26418,0.10561 0.26417,0.10323 0.26417,0.10082 0.26418,0.0984 0.26417,0.0959 0.26417,0.0935 0.26418,0.0911 0.26417,0.0886 0.26418,0.0861 0.26418,0.0836 0.26417,0.0811 0.26417,0.0785 0.26418,0.076 0.26417,0.0734 0.26417,0.0708 0.26418,0.0682 0.26417,0.0656 0.26417,0.063 0.26418,0.0604 0.26417,0.0578 0.26418,0.0552 0.26418,0.0525 0.26417,0.0499 0.26417,0.0472 0.26418,0.0445 0.26417,0.0418 0.26417,0.0392 0.26418,0.0365 0.26417,0.0338 0.26417,0.0312 0.26418,0.0285 0.26417,0.0258 0.26417,0.0231 0.26419,0.0204 0.26417,0.0176 0.26417,0.0149 0.26418,0.0122 0.26417,0.009 0.26417,0.007 0.26418,0.004 0.26417,0.001 0.26417,-0.001 0.26418,-0.004 0.26417,-0.007 0.26417,-0.01 0.26418,-0.0123 0.26418,-0.015 0.26417,-0.0178 0.26418,-0.0205 0.26417,-0.0232 0.26417,-0.0259 0.26418,-0.0285 0.26417,-0.0312 0.26417,-0.034 0.26418,-0.0366 0.26417,-0.0393 0.26417,-0.042 0.26418,-0.0447 0.26417,-0.0473 0.26418,-0.05 0.26418,-0.0527 0.26417,-0.0553 0.26417,-0.0579 0.26418,-0.0606 0.26417,-0.0632 0.26417,-0.0658 0.26418,-0.0684 0.26417,-0.071 0.26417,-0.0735 0.26418,-0.0761 0.26417,-0.0786 0.26417,-0.0812 0.26419,-0.0837 0.26417,-0.0862 0.26417,-0.0887 0.26418,-0.0912 0.26417,-0.0937 0.26417,-0.0961 0.26418,-0.0985 0.26417,-0.10095 0.26417,-0.10335 0.26418,-0.10574 0.26417,-0.10813 0.26417,-0.11047 0.26419,-0.11281 0.26417,-0.11514 0.26417,-0.11744 0.26418,-0.11972 0.26417,-0.122 0.26417,-0.12424 0.26418,-0.12647 0.26417,-0.12868 0.26417,-0.13087 0.26418,-0.13303 0.26417,-0.13518 0.26417,-0.13731 0.26418,-0.13941 0.26418,-0.1415 0.26417,-0.14356 0.26418,-0.14559 0.26417,-0.14762 0.26417,-0.1496 0.26418,-0.15158 0.26417,-0.15351 0.26417,-0.15544 0.26418,-0.15734 0.26417,-0.15921 0.26417,-0.16106 0.26418,-0.16289 0.26417,-0.16467 0.26418,-0.16646 0.26418,-0.16819 0.26417,-0.16991 0.26417,-0.17162 0.26418,-0.17327 0.26417,-0.17492 0.26417,-0.17651 0.26418,-0.17812 0.26417,-0.17966 0.26417,-0.18119 0.26418,-0.18269 0.26417,-0.18417 0.26417,-0.1856 0.26419,-0.18702 0.26417,-0.1884 0.26417,-0.18977 0.26418,-0.19107 0.26417,-0.19238 0.26417,-0.19364 0.26418,-0.19488 0.26417,-0.19609 0.26417,-0.19725 0.26418,-0.1984 0.26417,-0.19952 0.26417,-0.20058 0.26419,-0.20165 0.26417,-0.20266 0.26417,-0.20364 0.26418,-0.20461 0.26417,-0.20552 0.26417,-0.20642 0.26418,-0.20727 0.26417,-0.20809 0.26417,-0.20889 0.26418,-0.20966 0.26417,-0.21037 0.26417,-0.21107 0.26418,-0.21174 0.26418,-0.21237 0.26417,-0.21296 0.26418,-0.21353 0.26417,-0.21404 0.26417,-0.21455 0.26418,-0.21502 0.26417,-0.21543 0.26417,-0.21584 0.26418,-0.2162 0.26417,-0.21651 0.26417,-0.21682 0.26418,-0.21708 0.26417,-0.21729 0.26418,-0.2175 0.26418,-0.21765 0.26417,-0.21778 0.26417,-0.21786 0.26418,-0.21791 0.26417,-0.21795 0.26417,-0.21793 0.26418,-0.21788 0.26417,-0.2178 0.26417,-0.2177 0.26418,-0.21753 0.26417,-0.21736 0.26417,-0.21714 0.26419,-0.21689 0.26417,-0.21661 0.26417,-0.21628 0.26418,-0.21595 0.26417,-0.21554 0.26417,-0.21514 0.26418,-0.21468 0.26417,-0.21418 0.26417,-0.21367 0.26418,-0.21312 0.26417,-0.21253 0.26417,-0.21192 0.26418,-0.21126 0.26418,-0.21057 0.26417,-0.20986 0.26418,-0.20909 0.26417,-0.20832 0.26417,-0.20751 0.26418,-0.20665 0.26417,-0.20577 0.26417,-0.20485 0.26418,-0.20392 0.26417,-0.20292 0.26417,-0.20193 0.26418,-0.20088 0.26418,-0.19981 0.26417,-0.19871 0.26418,-0.19758 0.26417,-0.1964 0.26417,-0.19521 0.26418,-0.19399 0.26417,-0.19272 0.26417,-0.19144 0.26418,-0.19013 0.26417,-0.18878 0.26417,-0.1874 0.26418,-0.186 0.26417,-0.18455 0.26418,-0.18311 0.26418,-0.1816 0.26417,-0.18009 0.26417,-0.17853 0.26418,-0.17697 0.26417,-0.17536 0.26417,-0.17372 0.26418,-0.17207 0.26417,-0.17038 0.26417,-0.16867 0.26418,-0.16693 0.26417,-0.16517 0.26417,-0.16338 0.26419,-0.16156 0.26417,-0.15972 0.26417,-0.15785 0.26418,-0.155963 0.26417,-0.154048 0.26417,-0.152109 0.26418,-0.150148 0.26417,-0.14816 0.26417,-0.146151 0.26418,-0.144118 0.26417,-0.142065 0.26417,-0.139986 0.26418,-0.137888 0.26418,-0.135767 0.26417,-0.133624 0.26418,-0.131465 0.26417,-0.12928 0.26417,-0.127077 0.26418,-0.124853 0.26417,-0.122611 0.26417,-0.120351 0.26418,-0.118067 0.26417,-0.115772 0.26417,-0.113452 0.26418,-0.111117 0.26418,-0.108765 0.26417,-0.106396 0.26418,-0.104011 0.26417,-0.101607 0.26417,-0.0992 0.26418,-0.09676 0.26417,-0.0943 0.26417,-0.09185 0.26418,-0.08937 0.26417,-0.08688 0.26417,-0.08437 0.26418,-0.08185 0.26417,-0.07932 0.26418,-0.07678 0.26418,-0.07421 0.26417,-0.07166 0.26417,-0.06908 0.26418,-0.06649 0.26417,-0.06389 0.26417,-0.06128 0.26418,-0.05866 0.26417,-0.05603 0.26417,-0.0534 0.26418,-0.05075 0.26417,-0.0481 0.26417,-0.04544 0.26419,-0.04276 0.26417,-0.04009 0.26417,-0.03741 0.26418,-0.03473 0.26417,-0.03203 0.26417,-0.02934 0.26418,-0.02663 0.26417,-0.02393 0.26417,-0.02122 0.26418,-0.01849 0.26417,-0.0158 0.26417,-0.01308 0.26418,-0.01035 0.26418,-0.0076 0.26417,-0.0049 0.26418,-0.0021 0.26417,5.28e-4 0.26417,0.0033 0.26418,0.006 0.26417,0.0087 0.26417,0.01144 0.26418,0.01416 0.26417,0.01688 0.26417,0.01958 0.26418,0.02229 0.26417,0.02502 0.26418,0.02771 0.26418,0.03041 0.26417,0.03311 0.26417,0.03579 0.26418,0.03848 0.26417,0.04116 0.26417,0.04383 0.26418,0.0465 0.26417,0.04915 0.26417,0.0518 0.26418,0.05445 0.26417,0.05708 0.26418,0.05971 0.26418,0.06232 0.26417,0.06492 0.26417,0.06753 0.26418,0.0701 0.26417,0.07268 0.26417,0.07524 0.26418,0.07779 0.26417,0.08034 0.26417,0.08286 0.26418,0.08537 0.26417,0.08787 0.26417,0.09036 0.26419,0.09283 0.26417,0.09528 0.26417,0.09773 0.26418,0.100156 0.26417,0.102568 0.26417,0.104961 0.26418,0.107345 0.26417,0.109704 0.26417,0.112049 0.26418,0.114379 0.26417,0.116688 0.26417,0.11898 0.26418,0.121253 0.26418,0.123507 0.26417,0.125741 0.26418,0.127958 0.26417,0.13015 0.26417,0.132328 0.26418,0.134483 0.26417,0.136615 0.26417,0.138726 0.26418,0.140818 0.26417,0.142884 0.26417,0.144932 0.26418,0.146954 0.26417,0.148954 0.26418,0.150931 0.26418,0.152886 0.26417,0.154814 0.26417,0.156719 0.26418,0.1586 0.26417,0.16046 0.26417,0.16229 0.26418,0.1641 0.26417,0.16586 0.26417,0.16763 0.26418,0.16936 0.26417,0.17105 0.26418,0.17274 0.26418,0.17438 0.26417,0.17599 0.26417,0.1776 0.26418,0.17916 0.26417,0.18069 0.26417,0.18221 0.26418,0.18368 0.26417,0.18514 0.26417,0.18656 0.26418,0.18795 0.26417,0.18932 0.26417,0.19065 0.26419,0.19196 0.26417,0.19323 0.26417,0.19448 0.26418,0.19569 0.26417,0.19687 0.26417,0.19804 0.26418,0.19915 0.26417,0.20024 0.26417,0.20129 0.26418,0.20234 0.26417,0.20332 0.26417,0.20429 0.26418,0.20522 0.26418,0.20613 0.26417,0.20699 0.26418,0.20783 0.26417,0.20864 0.26417,0.2094 0.26418,0.21015 0.26417,0.21085 0.26417,0.21152 0.26418,0.21216 0.26417,0.21277 0.26417,0.21334 0.26418,0.21389 0.26417,0.21439 0.26418,0.21487 0.26418,0.21529 0.26417,0.21571 0.26417,0.21609 0.26418,0.21641 0.26417,0.21672 0.26417,0.217 0.26418,0.21723 0.26417,0.21744 0.26417,0.2176 0.26418,0.21774 0.26417,0.21783 0.26417,0.21792 0.26419,0.21793 0.26417,0.21794 0.26417,0.2179 0.26418,0.21784 0.26417,0.21772 0.26417,0.21759 0.26418,0.21742 0.26417,0.21722 0.26417,0.21697 0.26418,0.21671 0.26417,0.21639 0.26417,0.21606 0.26419,0.21568 0.26417,0.21527 0.26417,0.21484 0.26418,0.21434 0.26417,0.21385 0.26417,0.2133 0.26418,0.21273 0.26417,0.21212 0.26417,0.21148 0.26418,0.2108 0.26417,0.21009 0.26417,0.20935 0.26418,0.20859 0.26418,0.20777 0.26417,0.20692 0.26418,0.20608 0.26417,0.20516 0.26417,0.20421 0.26418,0.20327 0.26417,0.20225"
       stroke-linecap="round"
       stroke-linejoin="round"
       stroke-miterlimit="10"
       stroke-width="4.23333"
       id="path2360"
       style="stroke:#ffffff;stroke-width:3.99381;stroke-dasharray:none;stroke-opacity:1" /><path
       fill="none"
       stroke="#02063b"
       paint-order="fill stroke markers"
       d="m -702.62809,133.51804 0.26417,-0.21618 0.26417,-0.21582 0.26418,-0.21543 0.26417,-0.21499 0.26417,-0.21452 0.26418,-0.21404 0.26418,-0.21351 0.26417,-0.21294 0.26418,-0.21234 0.26417,-0.21172 0.26417,-0.21105 0.26418,-0.21035 0.26417,-0.20963 0.26417,-0.20885 0.26418,-0.20807 0.26417,-0.20725 0.26417,-0.20638 0.26418,-0.20549 0.26417,-0.20457 0.26418,-0.20361 0.26418,-0.20262 0.26417,-0.2016 0.26417,-0.20056 0.26418,-0.19947 0.26417,-0.19836 0.26417,-0.19721 0.26418,-0.19605 0.26417,-0.19483 0.26417,-0.1936 0.26418,-0.19233 0.26417,-0.19104 0.26418,-0.18971 0.26418,-0.18836 0.26417,-0.18697 0.26417,-0.18555 0.26418,-0.18412 0.26417,-0.18263 0.26417,-0.18114 0.26418,-0.17961 0.26417,-0.17805 0.26417,-0.17646 0.26418,-0.17486 0.26417,-0.17321 0.26417,-0.17156 0.26419,-0.16986 0.26417,-0.16813 0.26417,-0.16639 0.26418,-0.16461 0.26417,-0.16282 0.26417,-0.16099 0.26418,-0.15914 0.26417,-0.15728 0.26417,-0.15538 0.26418,-0.15344 0.26417,-0.15151 0.26417,-0.14953 0.26418,-0.14754 0.26418,-0.14553 0.26417,-0.14348 0.26418,-0.14142 0.26417,-0.13935 0.26417,-0.13723 0.26418,-0.1351 0.26417,-0.13296 0.26417,-0.13079 0.26418,-0.1286 0.26417,-0.12639 0.26417,-0.12416 0.26418,-0.12192 0.26417,-0.11964 0.26418,-0.11736 0.26418,-0.11505 0.26417,-0.11274 0.26417,-0.11039 0.26418,-0.10803 0.26417,-0.10566 0.26417,-0.10327 0.26418,-0.10086 0.26417,-0.0984 0.26417,-0.096 0.26418,-0.0935 0.26417,-0.0911 0.26417,-0.0886 0.26419,-0.0861 0.26417,-0.0836 0.26417,-0.0811 0.26418,-0.0785 0.26417,-0.076 0.26417,-0.0734 0.26418,-0.0709 0.26417,-0.0683 0.26417,-0.0657 0.26418,-0.0631 0.26417,-0.0605 0.26417,-0.0579 0.26419,-0.0552 0.26417,-0.0526 0.26417,-0.0499 0.26418,-0.0473 0.26417,-0.0446 0.26417,-0.0419 0.26418,-0.0393 0.26417,-0.0366 0.26417,-0.0339 0.26418,-0.0312 0.26417,-0.0285 0.26417,-0.0258 0.26418,-0.0231 0.26418,-0.0204 0.26417,-0.0177 0.26418,-0.0149 0.26417,-0.0122 0.26417,-0.01 0.26418,-0.007 0.26417,-0.004 0.26417,-10e-4 0.26418,10e-4 0.26417,0.004 0.26418,0.007 0.26417,0.01 0.26417,0.0123 0.26419,0.015 0.26417,0.0177 0.26417,0.0204 0.26418,0.0231 0.26417,0.0258 0.26417,0.0285 0.26418,0.0312 0.26417,0.0339 0.26417,0.0366 0.26418,0.0393 0.26417,0.042 0.26417,0.0447 0.26418,0.0473 0.26418,0.05 0.26417,0.0526 0.26418,0.0553 0.26417,0.0579 0.26417,0.0605 0.26418,0.0631 0.26417,0.0657 0.26417,0.0683 0.26418,0.0709 0.26417,0.0735 0.26417,0.076 0.26418,0.0786 0.26418,0.0811 0.26417,0.0836 0.26418,0.0861 0.26417,0.0886 0.26417,0.0911 0.26418,0.0936 0.26417,0.096 0.26417,0.0985 0.26418,0.1009 0.26417,0.10331 0.26417,0.10571 0.26418,0.10807 0.26417,0.11043 0.26418,0.11278 0.26418,0.11509 0.26417,0.1174 0.26417,0.11969 0.26418,0.12195 0.26417,0.1242 0.26417,0.12643 0.26418,0.12864 0.26417,0.13083 0.26417,0.133 0.26418,0.13514 0.26417,0.13727 0.26417,0.13938 0.26419,0.14146 0.26417,0.14352 0.26417,0.14556 0.26418,0.14757 0.26417,0.14958 0.26417,0.15153 0.26418,0.15349 0.26417,0.1554 0.26417,0.15731 0.26418,0.15917 0.26417,0.16103 0.26417,0.16285 0.26418,0.16465 0.26418,0.16642 0.26417,0.16817 0.26418,0.16989 0.26417,0.17157 0.26417,0.17324 0.26418,0.17489 0.26417,0.1765 0.26417,0.17807 0.26418,0.17964 0.26417,0.18116 0.26417,0.18267 0.26418,0.18414 0.26417,0.18559 0.26418,0.18699 0.26418,0.18838 0.26417,0.18973 0.26417,0.19106 0.26418,0.19236 0.26417,0.19362 0.26417,0.19485 0.26418,0.19606 0.26417,0.19724 0.26417,0.19838 0.26418,0.19949 0.26417,0.20058 0.26418,0.20162 0.26418,0.20263 0.26417,0.20364 0.26417,0.20458 0.26418,0.2055 0.26417,0.2064 0.26417,0.20726 0.26418,0.20809 0.26417,0.20888 0.26417,0.20963 0.26418,0.21037 0.26417,0.21106 0.26417,0.21172 0.26419,0.21236 0.26417,0.21295 0.26417,0.21351 0.26418,0.21405 0.26417,0.21454 0.26417,0.215 0.26418,0.21543 0.26417,0.21583 0.26417,0.21618 0.26418,0.21653 0.26417,0.2168 0.26417,0.21707 0.26418,0.2173 0.26418,0.21749 0.26417,0.21765 0.26418,0.21778 0.26417,0.21786 0.26417,0.21792 0.26418,0.21793 0.26417,0.21794 0.26417,0.21788 0.26418,0.21781 0.26417,0.21768 0.26417,0.21755 0.26418,0.21736 0.26417,0.21714 0.26418,0.2169 0.26418,0.21661 0.26417,0.2163 0.26417,0.21594 0.26418,0.21556 0.26417,0.21514 0.26417,0.21468 0.26418,0.2142 0.26417,0.21368 0.26417,0.21313 0.26418,0.21254 0.26417,0.21192 0.26418,0.21128 0.26418,0.21058 0.26417,0.20987 0.26417,0.20912 0.26418,0.20833 0.26417,0.20752 0.26417,0.20667 0.26418,0.20578 0.26417,0.20487 0.26417,0.20393 0.26418,0.20295 0.26417,0.20195 0.26417,0.2009 0.26419,0.19983 0.26417,0.19873 0.26417,0.19759 0.26418,0.19643 0.26417,0.19522 0.26417,0.19401 0.26418,0.19276 0.26417,0.19146 0.26417,0.19014 0.26418,0.18881 0.26417,0.18742 0.26417,0.18602 0.26418,0.1846 0.26418,0.18312 0.26417,0.18163 0.26418,0.18011 0.26417,0.17857 0.26417,0.17699 0.26418,0.17538 0.26417,0.17376 0.26417,0.1721 0.26418,0.17041 0.26417,0.1687 0.26417,0.16696 0.26418,0.16521 0.26417,0.1634 0.26418,0.1616 0.26418,0.15974 0.26417,0.1579 0.26417,0.156 0.26418,0.15408 0.26417,0.15214 0.26417,0.15018 0.26418,0.1482 0.26417,0.14619 0.26417,0.14415 0.26418,0.1421 0.26417,0.14003 0.26417,0.13792 0.26419,0.1358 0.26417,0.13366 0.26417,0.13151 0.26418,0.12932 0.26417,0.12711 0.26417,0.1249 0.26418,0.12265 0.26417,0.12039 0.26417,0.11811 0.26418,0.11581 0.26417,0.1135 0.26417,0.11115 0.26419,0.10881 0.26417,0.10644 0.26417,0.10405 0.26418,0.10165 0.26417,0.0992 0.26417,0.0968 0.26418,0.0943 0.26417,0.0919 0.26417,0.0895 0.26418,0.0869 0.26417,0.0845 0.26417,0.0819 0.26418,0.0794 0.26418,0.0768 0.26417,0.0743 0.26418,0.0717 0.26417,0.0691 0.26417,0.0665 0.26418,0.0639 0.26417,0.0613 0.26417,0.0587 0.26418,0.0561 0.26417,0.0534 0.26417,0.0508 0.26418,0.0481 0.26417,0.0455 0.26418,0.0428 0.26418,0.0401 0.26417,0.0375 0.26417,0.0347 0.26418,0.032 0.26417,0.0294 0.26417,0.0266 0.26418,0.024 0.26417,0.0213 0.26417,0.0186 0.26418,0.0159 0.26417,0.0132 0.26417,0.0104 0.26419,0.008 0.26417,0.005 0.26417,0.002 0.26418,-5.3e-4 0.26417,-0.003 0.26417,-0.006 0.26418,-0.009 0.26417,-0.0114 0.26417,-0.0141 0.26418,-0.0169 0.26417,-0.0196 0.26417,-0.0223 0.26419,-0.025 0.26417,-0.0277 0.26417,-0.0303 0.26418,-0.033 0.26417,-0.0357 0.26417,-0.0384 0.26418,-0.0411 0.26417,-0.0438 0.26417,-0.0464 0.26418,-0.0491 0.26417,-0.0517 0.26417,-0.0544 0.26418,-0.057 0.26418,-0.0597 0.26417,-0.0623 0.26418,-0.0649 0.26417,-0.0675 0.26417,-0.0701 0.26418,-0.0726 0.26417,-0.0752 0.26417,-0.0778 0.26418,-0.0803 0.26417,-0.0828 0.26417,-0.0854 0.26418,-0.0879 0.26417,-0.0904 0.26418,-0.0928 0.26418,-0.0952 0.26417,-0.0977 0.26417,-0.10011 0.26418,-0.10253 0.26417,-0.10492 0.26417,-0.1073 0.26418,-0.10966 0.26417,-0.11201 0.26417,-0.11433 0.26418,-0.11665 0.26417,-0.11895 0.26417,-0.12121 0.26419,-0.12346 0.26417,-0.12571 0.26417,-0.12792 0.26418,-0.13011 0.26417,-0.13229 0.26417,-0.13444 0.26418,-0.13658 0.26417,-0.13869 0.26417,-0.14078 0.26418,-0.14285 0.26417,-0.14489 0.26417,-0.14691 0.26418,-0.14893 0.26418,-0.1509 0.26417,-0.15284 0.26418,-0.15478 0.26417,-0.15669 0.26417,-0.15858 0.26418,-0.16042 0.26417,-0.16225 0.26417,-0.16406 0.26418,-0.16584 0.26417,-0.1676 0.26417,-0.16932 0.26418,-0.17103 0.26418,-0.1727 0.26417,-0.17436 0.26418,-0.17597 0.26417,-0.17756 0.26417,-0.17913 0.26418,-0.18066 0.26417,-0.18218 0.26417,-0.18367 0.26418,-0.18511 0.26417,-0.18653 0.26417,-0.18793 0.26418,-0.18929 0.26417,-0.19063 0.26418,-0.19194 0.26418,-0.19321 0.26417,-0.19445 0.26417,-0.19567 0.26418,-0.19686 0.26417,-0.19801 0.26417,-0.19913 0.26418,-0.20022 0.26417,-0.20128 0.26417,-0.20232 0.26418,-0.2033 0.26417,-0.20427 0.26417,-0.20522 0.26419,-0.20611 0.26417,-0.20698 0.26417,-0.20782 0.26418,-0.20861 0.26417,-0.2094 0.26417,-0.21013 0.26418,-0.21084 0.26417,-0.21151 0.26417,-0.21215 0.26418,-0.21276 0.26417,-0.21333 0.26417,-0.21388 0.26418,-0.21438 0.26418,-0.21485 0.26417,-0.21529 0.26418,-0.21571 0.26417,-0.21607 0.26417,-0.21642 0.26418,-0.21671 0.26417,-0.21699 0.26417,-0.21723 0.26418,-0.21743 0.26417,-0.2176 0.26417,-0.21774 0.26418,-0.21783 0.26417,-0.2179 0.26418,-0.21794 0.26418,-0.21795 0.26417,-0.2179 0.26417,-0.21783 0.26418,-0.21773 0.26417,-0.2176 0.26417,-0.21742 0.26418,-0.21722 0.26417,-0.21698 0.26417,-0.21671 0.26418,-0.2164 0.26417,-0.21606 0.26418,-0.21569 0.26418,-0.21527 0.26417,-0.21485 0.26417,-0.21436 0.26418,-0.21386 0.26417,-0.21331 0.26417,-0.21274 0.26418,-0.21213 0.26417,-0.21148 0.26417,-0.21082 0.26418,-0.2101 0.26417,-0.20937 0.26417,-0.20859 0.26419,-0.20779 0.26417,-0.20695 0.26417,-0.20608 0.26418,-0.20517 0.26417,-0.20425 0.26417,-0.20326 0.26418,-0.20228 0.26417,-0.20125 0.26417,-0.20018 0.26418,-0.1991 0.26417,-0.19796 0.26417,-0.19682 0.26418,-0.19562 0.26418,-0.19441 0.26417,-0.19317 0.26418,-0.19189 0.26417,-0.19058 0.26417,-0.18925 0.26418,-0.18788 0.26417,-0.18648 0.26417,-0.18506 0.26418,-0.18361 0.26417,-0.18212 0.26417,-0.18061 0.26418,-0.17909 0.26417,-0.1775 0.26418,-0.17592 0.26418,-0.17429 0.26417,-0.17264 0.26417,-0.17097 0.26418,-0.16926 0.26417,-0.16754 0.26417,-0.16577 0.26418,-0.164 0.26417,-0.16219 0.26417,-0.16037 0.26418,-0.15849 0.26417,-0.15662 0.26418,-0.15471 0.26418,-0.15279 0.26417,-0.15082 0.26417,-0.14885 0.26418,-0.14685 0.26417,-0.14482 0.26417,-0.14278 0.26418,-0.1407 0.26417,-0.13862 0.26417,-0.1365 0.26418,-0.13437 0.26417,-0.13221 0.26417,-0.13003 0.26419,-0.12784 0.26417,-0.12563 0.26417,-0.12338 0.26418,-0.12114 0.26417,-0.11885 0.26417,-0.11657 0.26418,-0.11425 0.26417,-0.11193 0.26417,-0.10958 0.26418,-0.10722 0.26417,-0.10483 0.26417,-0.10244 0.26418,-0.10003 0.26418,-0.0976 0.26417,-0.0952 0.26418,-0.0927 0.26417,-0.0902 0.26417,-0.0877 0.26418,-0.0852 0.26417,-0.0827 0.26417,-0.0802 0.26418,-0.0777 0.26417,-0.0751 0.26417,-0.0726 0.26418,-0.07 0.26417,-0.0674 0.26418,-0.0648 0.26418,-0.0622 0.26417,-0.0596 0.26417,-0.0569 0.26418,-0.0543 0.26417,-0.0517 0.26417,-0.049 0.26418,-0.0464 0.26417,-0.0437 0.26417,-0.041 0.26418,-0.0383 0.26417,-0.0357 0.26417,-0.033 0.26419,-0.0303 0.26417,-0.0276 0.26417,-0.0249 0.26418,-0.0222 0.26417,-0.0194 0.26417,-0.0167 0.26418,-0.014 0.26417,-0.0113 0.26417,-0.009 0.26418,-0.006 0.26417,-0.003 0.26417,-2.7e-4 0.26419,0.002 0.26417,0.005 0.26417,0.008 0.26418,0.0105 0.26417,0.0132 0.26417,0.0159 0.26418,0.0187 0.26417,0.0214 0.26417,0.0241 0.26418,0.0268 0.26417,0.0295 0.26417,0.0322 0.26418,0.0349 0.26418,0.0375 0.26417,0.0402 0.26418,0.0429 0.26417,0.0456 0.26417,0.0482 0.26418,0.0509 0.26417,0.0535 0.26417,0.0562 0.26418,0.0588 0.26417,0.0614 0.26417,0.064 0.26418,0.0666 0.26417,0.0692 0.26418,0.0718 0.26418,0.0743 0.26417,0.0769 0.26417,0.0795 0.26418,0.082 0.26417,0.0845 0.26417,0.087 0.26418,0.0895 0.26417,0.092 0.26417,0.0944 0.26418,0.0969 0.26417,0.0993 0.26417,0.10173 0.26419,0.10415 0.26417,0.10652 0.26417,0.10889 0.26418,0.11124 0.26417,0.11358 0.26417,0.11589 0.26418,0.11819 0.26417,0.12047 0.26417,0.12273 0.26418,0.12497 0.26417,0.1272 0.26417,0.1294 0.26419,0.13158 0.26417,0.13373 0.26417,0.13589 0.26418,0.138 0.26417,0.14009 0.26417,0.14218 0.26418,0.14423 0.26417,0.14626 0.26417,0.14826 0.26418,0.15025 0.26417,0.15222 0.26417,0.15415 0.26418,0.15606 0.26418,0.15796 0.26417,0.15982 0.26418,0.16166 0.26417,0.16347 0.26417,0.16526 0.26418,0.16703 0.26417,0.16876 0.26417,0.17046 0.26418,0.17217 0.26417,0.17381 0.26417,0.17545 0.26418,0.17704 0.26417,0.17863 0.26418,0.18016 0.26418,0.18169 0.26417,0.18317 0.26417,0.18465 0.26418,0.18606 0.26417,0.18748 0.26417,0.18884 0.26418,0.1902 0.26417,0.19151 0.26417,0.19279 0.26418,0.19406 0.26417,0.19527 0.26417,0.19648 0.26419,0.19763 0.26417,0.19876 0.26417,0.19987 0.26418,0.20094 0.26417,0.20199 0.26417,0.20298 0.26418,0.20396 0.26417,0.2049 0.26417,0.20582 0.26418,0.2067 0.26417,0.20754 0.26417,0.20837 0.26418,0.20914 0.26418,0.20989 0.26417,0.21061 0.26418,0.2113 0.26417,0.21195 0.26417,0.21256 0.26418,0.21315 0.26417,0.2137 0.26417,0.21422 0.26418,0.21469 0.26417,0.21516 0.26417,0.21558 0.26418,0.21595 0.26418,0.21631 0.26417,0.21662 0.26418,0.2169 0.26417,0.21716 0.26417,0.21736 0.26418,0.21755 0.26417,0.2177 0.26417,0.2178 0.26418,0.21789 0.26417,0.21793 0.26417,0.21795 0.26418,0.21791 0.26417,0.21786 0.26418,0.21777 0.26418,0.21765 0.26417,0.21748 0.26417,0.21729 0.26418,0.21706 0.26417,0.2168 0.26417,0.21651 0.26418,0.21617 0.26417,0.21582 0.26417,0.21541 0.26418,0.21499 0.26417,0.21453 0.26417,0.21402 0.26419,0.2135 0.26417,0.21293 0.26417,0.21233 0.26418,0.2117 0.26417,0.21103 0.26417,0.21035 0.26418,0.20961 0.26417,0.20885 0.26417,0.20806 0.26418,0.20723 0.26417,0.20636 0.26417,0.20547 0.26418,0.20455 0.26418,0.20359 0.26417,0.20261 0.26418,0.20159 0.26417,0.20054 0.26417,0.19945 0.26418,0.19833 0.26417,0.19721 0.26417,0.19601 0.26418,0.19481 0.26417,0.19358 0.26417,0.19231 0.26418,0.19102 0.26418,0.18968 0.26417,0.18833 0.26418,0.18694 0.26417,0.18553 0.26417,0.18409 0.26418,0.18262 0.26417,0.18111 0.26417,0.17958 0.26418,0.17802 0.26417,0.17644 0.26417,0.17483 0.26418,0.17318 0.26417,0.17152 0.26418,0.16983 0.26418,0.1681 0.26417,0.16636 0.26417,0.16458 0.26418,0.16279 0.26417,0.16096 0.26417,0.15911 0.26418,0.15724 0.26417,0.15534 0.26417,0.15342 0.26418,0.15146 0.26417,0.1495 0.26417,0.1475 0.26419,0.1455 0.26417,0.14345 0.26417,0.14138 0.26418,0.1393 0.26417,0.1372 0.26417,0.13507 0.26418,0.13291 0.26417,0.13075 0.26417,0.12856 0.26418,0.12636 0.26417,0.12412 0.26417,0.12188 0.26418,0.1196 0.26418,0.11732 0.26417,0.11501 0.26418,0.11269 0.26417,0.11034 0.26417,0.108 0.26418,0.10561 0.26417,0.10323 0.26417,0.10082 0.26418,0.0984 0.26417,0.0959 0.26417,0.0935 0.26418,0.0911 0.26417,0.0886 0.26418,0.0861 0.26418,0.0836 0.26417,0.0811 0.26417,0.0785 0.26418,0.076 0.26417,0.0734 0.26417,0.0708 0.26418,0.0682 0.26417,0.0656 0.26417,0.063 0.26418,0.0604 0.26417,0.0578 0.26418,0.0552 0.26418,0.0525 0.26417,0.0499 0.26417,0.0472 0.26418,0.0445 0.26417,0.0418 0.26417,0.0392 0.26418,0.0365 0.26417,0.0338 0.26417,0.0312 0.26418,0.0285 0.26417,0.0258 0.26417,0.0231 0.26419,0.0204 0.26417,0.0176 0.26417,0.0149 0.26418,0.0122 0.26417,0.009 0.26417,0.007 0.26418,0.004 0.26417,10e-4 0.26417,-10e-4 0.26418,-0.004 0.26417,-0.007 0.26417,-0.01 0.26418,-0.0123 0.26418,-0.015 0.26417,-0.0178 0.26418,-0.0205 0.26417,-0.0232 0.26417,-0.0259 0.26418,-0.0285 0.26417,-0.0312 0.26417,-0.034 0.26418,-0.0366 0.26417,-0.0393 0.26417,-0.042 0.26418,-0.0447 0.26417,-0.0473 0.26418,-0.05 0.26418,-0.0527 0.26417,-0.0553 0.26417,-0.0579 0.26418,-0.0606 0.26417,-0.0632 0.26417,-0.0658 0.26418,-0.0684 0.26417,-0.071 0.26417,-0.0735 0.26418,-0.0761 0.26417,-0.0786 0.26417,-0.0812 0.26419,-0.0837 0.26417,-0.0862 0.26417,-0.0887 0.26418,-0.0912 0.26417,-0.0937 0.26417,-0.0961 0.26418,-0.0985 0.26417,-0.10095 0.26417,-0.10335 0.26418,-0.10574 0.26417,-0.10813 0.26417,-0.11047 0.26419,-0.11281 0.26417,-0.11514 0.26417,-0.11744 0.26418,-0.11972 0.26417,-0.122 0.26417,-0.12424 0.26418,-0.12647 0.26417,-0.12868 0.26417,-0.13087 0.26418,-0.13303 0.26417,-0.13518 0.26417,-0.13731 0.26418,-0.13941 0.26418,-0.1415 0.26417,-0.14356 0.26418,-0.14559 0.26417,-0.14762 0.26417,-0.1496 0.26418,-0.15158 0.26417,-0.15351 0.26417,-0.15544 0.26418,-0.15734 0.26417,-0.15921 0.26417,-0.16106 0.26418,-0.16289 0.26417,-0.16467 0.26418,-0.16646 0.26418,-0.16819 0.26417,-0.16991 0.26417,-0.17162 0.26418,-0.17327 0.26417,-0.17492 0.26417,-0.17651 0.26418,-0.17812 0.26417,-0.17966 0.26417,-0.18119 0.26418,-0.18269 0.26417,-0.18417 0.26417,-0.1856 0.26419,-0.18702 0.26417,-0.1884 0.26417,-0.18977 0.26418,-0.19107 0.26417,-0.19238 0.26417,-0.19364 0.26418,-0.19488 0.26417,-0.19609 0.26417,-0.19725 0.26418,-0.1984 0.26417,-0.19952 0.26417,-0.20058 0.26419,-0.20165 0.26417,-0.20266 0.26417,-0.20364 0.26418,-0.20461 0.26417,-0.20552 0.26417,-0.20642 0.26418,-0.20727 0.26417,-0.20809 0.26417,-0.20889 0.26418,-0.20966 0.26417,-0.21037 0.26417,-0.21107 0.26418,-0.21174 0.26418,-0.21237 0.26417,-0.21296 0.26418,-0.21353 0.26417,-0.21404 0.26417,-0.21455 0.26418,-0.21502 0.26417,-0.21543 0.26417,-0.21584 0.26418,-0.2162 0.26417,-0.21651 0.26417,-0.21682 0.26418,-0.21708 0.26417,-0.21729 0.26418,-0.2175 0.26418,-0.21765 0.26417,-0.21778 0.26417,-0.21786 0.26418,-0.21791 0.26417,-0.21795 0.26417,-0.21793 0.26418,-0.21788 0.26417,-0.2178 0.26417,-0.2177 0.26418,-0.21753 0.26417,-0.21736 0.26417,-0.21714 0.26419,-0.21689 0.26417,-0.21661 0.26417,-0.21628 0.26418,-0.21595 0.26417,-0.21554 0.26417,-0.21514 0.26418,-0.21468 0.26417,-0.21418 0.26417,-0.21367 0.26418,-0.21312 0.26417,-0.21253 0.26417,-0.21192 0.26418,-0.21126 0.26418,-0.21057 0.26417,-0.20986 0.26418,-0.20909 0.26417,-0.20832 0.26417,-0.20751 0.26418,-0.20665 0.26417,-0.20577 0.26417,-0.20485 0.26418,-0.20392 0.26417,-0.20292 0.26417,-0.20193 0.26418,-0.20088 0.26418,-0.19981 0.26417,-0.19871 0.26418,-0.19758 0.26417,-0.1964 0.26417,-0.19521 0.26418,-0.19399 0.26417,-0.19272 0.26417,-0.19144 0.26418,-0.19013 0.26417,-0.18878 0.26417,-0.1874 0.26418,-0.186 0.26417,-0.18455 0.26418,-0.18311 0.26418,-0.1816 0.26417,-0.18009 0.26417,-0.17853 0.26418,-0.17697 0.26417,-0.17536 0.26417,-0.17372 0.26418,-0.17207 0.26417,-0.17038 0.26417,-0.16867 0.26418,-0.16693 0.26417,-0.16517 0.26417,-0.16338 0.26419,-0.16156 0.26417,-0.15972 0.26417,-0.15785 0.26418,-0.15597 0.26417,-0.15404 0.26417,-0.15211 0.26418,-0.15015 0.26417,-0.14816 0.26417,-0.14615 0.26418,-0.14412 0.26417,-0.14206 0.26417,-0.13999 0.26418,-0.13789 0.26418,-0.13577 0.26417,-0.13362 0.26418,-0.13146 0.26417,-0.12928 0.26417,-0.12708 0.26418,-0.12485 0.26417,-0.12262 0.26417,-0.12035 0.26418,-0.11806 0.26417,-0.11578 0.26417,-0.11345 0.26418,-0.11111 0.26418,-0.10877 0.26417,-0.1064 0.26418,-0.10401 0.26417,-0.10161 0.26417,-0.0992 0.26418,-0.0968 0.26417,-0.0943 0.26417,-0.0919 0.26418,-0.0894 0.26417,-0.0869 0.26417,-0.0844 0.26418,-0.0819 0.26417,-0.0793 0.26418,-0.0768 0.26418,-0.0742 0.26417,-0.0717 0.26417,-0.0691 0.26418,-0.0665 0.26417,-0.0639 0.26417,-0.0613 0.26418,-0.0587 0.26417,-0.056 0.26417,-0.0534 0.26418,-0.0508 0.26417,-0.0481 0.26417,-0.0454 0.26419,-0.0428 0.26417,-0.0401 0.26417,-0.0374 0.26418,-0.0347 0.26417,-0.032 0.26417,-0.0293 0.26418,-0.0266 0.26417,-0.0239 0.26417,-0.0212 0.26418,-0.0185 0.26417,-0.0158 0.26417,-0.0131 0.26418,-0.0104 0.26418,-0.008 0.26417,-0.005 0.26418,-0.002 0.26417,5.3e-4 0.26417,0.003 0.26418,0.006 0.26417,0.009 0.26417,0.0114 0.26418,0.0142 0.26417,0.0169 0.26417,0.0196 0.26418,0.0223 0.26417,0.025 0.26418,0.0277 0.26418,0.0304 0.26417,0.0331 0.26417,0.0358 0.26418,0.0385 0.26417,0.0412 0.26417,0.0438 0.26418,0.0465 0.26417,0.0491 0.26417,0.0518 0.26418,0.0545 0.26417,0.0571 0.26418,0.0597 0.26418,0.0623 0.26417,0.0649 0.26417,0.0675 0.26418,0.0701 0.26417,0.0727 0.26417,0.0752 0.26418,0.0778 0.26417,0.0803 0.26417,0.0829 0.26418,0.0854 0.26417,0.0879 0.26417,0.0904 0.26419,0.0928 0.26417,0.0953 0.26417,0.0977 0.26418,0.10016 0.26417,0.10257 0.26417,0.10496 0.26418,0.10734 0.26417,0.10971 0.26417,0.11205 0.26418,0.11438 0.26417,0.11668 0.26417,0.11898 0.26418,0.12126 0.26418,0.1235 0.26417,0.12575 0.26418,0.12795 0.26417,0.13015 0.26417,0.13233 0.26418,0.13448 0.26417,0.13662 0.26417,0.13873 0.26418,0.14081 0.26417,0.14289 0.26417,0.14493 0.26418,0.14695 0.26417,0.14896 0.26418,0.15093 0.26418,0.15288 0.26417,0.15482 0.26417,0.15672 0.26418,0.1586 0.26417,0.16046 0.26417,0.16229 0.26418,0.1641 0.26417,0.16586 0.26417,0.16763 0.26418,0.16936 0.26417,0.17105 0.26418,0.17274 0.26418,0.17438 0.26417,0.17599 0.26417,0.1776 0.26418,0.17916 0.26417,0.18069 0.26417,0.18221 0.26418,0.18368 0.26417,0.18514 0.26417,0.18656 0.26418,0.18795 0.26417,0.18932 0.26417,0.19065 0.26419,0.19196 0.26417,0.19323 0.26417,0.19448 0.26418,0.19569 0.26417,0.19687 0.26417,0.19804 0.26418,0.19915 0.26417,0.20024 0.26417,0.20129 0.26418,0.20234 0.26417,0.20332 0.26417,0.20429 0.26418,0.20522 0.26418,0.20613 0.26417,0.20699 0.26418,0.20783 0.26417,0.20864 0.26417,0.2094 0.26418,0.21015 0.26417,0.21085 0.26417,0.21152 0.26418,0.21216 0.26417,0.21277 0.26417,0.21334 0.26418,0.21389 0.26417,0.21439 0.26418,0.21487 0.26418,0.21529 0.26417,0.21571 0.26417,0.21609 0.26418,0.21641 0.26417,0.21672 0.26417,0.217 0.26418,0.21723 0.26417,0.21744 0.26417,0.2176 0.26418,0.21774 0.26417,0.21783 0.26417,0.21792 0.26419,0.21793 0.26417,0.21794 0.26417,0.2179 0.26418,0.21784 0.26417,0.21772 0.26417,0.21759 0.26418,0.21742 0.26417,0.21722 0.26417,0.21697 0.26418,0.21671 0.26417,0.21639 0.26417,0.21606 0.26419,0.21568 0.26417,0.21527 0.26417,0.21484 0.26418,0.21434 0.26417,0.21385 0.26417,0.2133 0.26418,0.21273 0.26417,0.21212 0.26417,0.21148 0.26418,0.2108 0.26417,0.21009 0.26417,0.20935 0.26418,0.20859 0.26418,0.20777 0.26417,0.20692 0.26418,0.20608 0.26417,0.20516 0.26417,0.20421 0.26418,0.20327 0.26417,0.20225"
       stroke-linecap="round"
       stroke-linejoin="round"
       stroke-miterlimit="10"
       stroke-width="4.23333"
       id="path7346"
       style="stroke:#ffffff;stroke-width:3.99381;stroke-dasharray:none;stroke-opacity:1" /><path
       fill="none"
       stroke="#02063b"
       paint-order="fill stroke markers"
       d="m -702.62809,157.0917 0.26417,-0.21618 0.26417,-0.21582 0.26418,-0.21543 0.26417,-0.21499 0.26417,-0.21452 0.26418,-0.21404 0.26418,-0.21351 0.26417,-0.21294 0.26418,-0.21234 0.26417,-0.21172 0.26417,-0.21105 0.26418,-0.21035 0.26417,-0.20963 0.26417,-0.20885 0.26418,-0.20807 0.26417,-0.20725 0.26417,-0.20638 0.26418,-0.20549 0.26417,-0.20457 0.26418,-0.20361 0.26418,-0.20262 0.26417,-0.2016 0.26417,-0.20056 0.26418,-0.19947 0.26417,-0.19836 0.26417,-0.19721 0.26418,-0.19605 0.26417,-0.19483 0.26417,-0.1936 0.26418,-0.19233 0.26417,-0.19104 0.26418,-0.18971 0.26418,-0.18836 0.26417,-0.18697 0.26417,-0.18555 0.26418,-0.18412 0.26417,-0.18263 0.26417,-0.18114 0.26418,-0.17961 0.26417,-0.17805 0.26417,-0.17646 0.26418,-0.17486 0.26417,-0.17321 0.26417,-0.17156 0.26419,-0.16986 0.26417,-0.16813 0.26417,-0.16639 0.26418,-0.16461 0.26417,-0.16282 0.26417,-0.16099 0.26418,-0.15914 0.26417,-0.15728 0.26417,-0.15538 0.26418,-0.15344 0.26417,-0.15151 0.26417,-0.14953 0.26418,-0.14754 0.26418,-0.14553 0.26417,-0.14348 0.26418,-0.14142 0.26417,-0.13935 0.26417,-0.13723 0.26418,-0.1351 0.26417,-0.13296 0.26417,-0.13079 0.26418,-0.1286 0.26417,-0.12639 0.26417,-0.12416 0.26418,-0.12192 0.26417,-0.11964 0.26418,-0.11736 0.26418,-0.11505 0.26417,-0.11274 0.26417,-0.11039 0.26418,-0.10803 0.26417,-0.10566 0.26417,-0.10327 0.26418,-0.10086 0.26417,-0.0984 0.26417,-0.096 0.26418,-0.0935 0.26417,-0.0911 0.26417,-0.0886 0.26419,-0.0861 0.26417,-0.0836 0.26417,-0.0811 0.26418,-0.0785 0.26417,-0.076 0.26417,-0.0734 0.26418,-0.0709 0.26417,-0.0683 0.26417,-0.0657 0.26418,-0.0631 0.26417,-0.0605 0.26417,-0.0579 0.26419,-0.0552 0.26417,-0.0526 0.26417,-0.0499 0.26418,-0.0473 0.26417,-0.0446 0.26417,-0.0419 0.26418,-0.0393 0.26417,-0.0366 0.26417,-0.0339 0.26418,-0.0312 0.26417,-0.0285 0.26417,-0.0258 0.26418,-0.0231 0.26418,-0.0204 0.26417,-0.0177 0.26418,-0.0149 0.26417,-0.0122 0.26417,-0.01 0.26418,-0.007 0.26417,-0.004 0.26417,-0.001 0.26418,0.001 0.26417,0.004 0.26418,0.007 0.26417,0.01 0.26417,0.0123 0.26419,0.015 0.26417,0.0177 0.26417,0.0204 0.26418,0.0231 0.26417,0.0258 0.26417,0.0285 0.26418,0.0312 0.26417,0.0339 0.26417,0.0366 0.26418,0.0393 0.26417,0.042 0.26417,0.0447 0.26418,0.0473 0.26418,0.05 0.26417,0.0526 0.26418,0.0553 0.26417,0.0579 0.26417,0.0605 0.26418,0.0631 0.26417,0.0657 0.26417,0.0683 0.26418,0.0709 0.26417,0.0735 0.26417,0.076 0.26418,0.0786 0.26418,0.0811 0.26417,0.0836 0.26418,0.0861 0.26417,0.0886 0.26417,0.0911 0.26418,0.0936 0.26417,0.096 0.26417,0.0985 0.26418,0.1009 0.26417,0.10331 0.26417,0.10571 0.26418,0.10807 0.26417,0.11043 0.26418,0.11278 0.26418,0.11509 0.26417,0.1174 0.26417,0.11969 0.26418,0.12195 0.26417,0.1242 0.26417,0.12643 0.26418,0.12864 0.26417,0.13083 0.26417,0.133 0.26418,0.13514 0.26417,0.13727 0.26417,0.13938 0.26419,0.14146 0.26417,0.14352 0.26417,0.14556 0.26418,0.14757 0.26417,0.14958 0.26417,0.15153 0.26418,0.15349 0.26417,0.1554 0.26417,0.15731 0.26418,0.15917 0.26417,0.16103 0.26417,0.16285 0.26418,0.16465 0.26418,0.16642 0.26417,0.16817 0.26418,0.16989 0.26417,0.17157 0.26417,0.17324 0.26418,0.17489 0.26417,0.1765 0.26417,0.17807 0.26418,0.17964 0.26417,0.18116 0.26417,0.18267 0.26418,0.18414 0.26417,0.18559 0.26418,0.18699 0.26418,0.18838 0.26417,0.18973 0.26417,0.19106 0.26418,0.19236 0.26417,0.19362 0.26417,0.19485 0.26418,0.19606 0.26417,0.19724 0.26417,0.19838 0.26418,0.19949 0.26417,0.20058 0.26418,0.20162 0.26418,0.20263 0.26417,0.20364 0.26417,0.20458 0.26418,0.2055 0.26417,0.2064 0.26417,0.20726 0.26418,0.20809 0.26417,0.20888 0.26417,0.20963 0.26418,0.21037 0.26417,0.21106 0.26417,0.21172 0.26419,0.21236 0.26417,0.21295 0.26417,0.21351 0.26418,0.21405 0.26417,0.21454 0.26417,0.215 0.26418,0.21543 0.26417,0.21583 0.26417,0.21618 0.26418,0.21653 0.26417,0.2168 0.26417,0.21707 0.26418,0.2173 0.26418,0.21749 0.26417,0.21765 0.26418,0.21778 0.26417,0.21786 0.26417,0.21792 0.26418,0.21793 0.26417,0.21794 0.26417,0.21788 0.26418,0.21781 0.26417,0.21768 0.26417,0.21755 0.26418,0.21736 0.26417,0.21714 0.26418,0.2169 0.26418,0.21661 0.26417,0.2163 0.26417,0.21594 0.26418,0.21556 0.26417,0.21514 0.26417,0.21468 0.26418,0.2142 0.26417,0.21368 0.26417,0.21313 0.26418,0.21254 0.26417,0.21192 0.26418,0.21128 0.26418,0.21058 0.26417,0.20987 0.26417,0.20912 0.26418,0.20833 0.26417,0.20752 0.26417,0.20667 0.26418,0.20578 0.26417,0.20487 0.26417,0.20393 0.26418,0.20295 0.26417,0.20195 0.26417,0.2009 0.26419,0.19983 0.26417,0.19873 0.26417,0.19759 0.26418,0.19643 0.26417,0.19522 0.26417,0.19401 0.26418,0.19276 0.26417,0.19146 0.26417,0.19014 0.26418,0.18881 0.26417,0.18742 0.26417,0.18602 0.26418,0.1846 0.26418,0.18312 0.26417,0.18163 0.26418,0.18011 0.26417,0.17857 0.26417,0.17699 0.26418,0.17538 0.26417,0.17376 0.26417,0.1721 0.26418,0.17041 0.26417,0.1687 0.26417,0.16696 0.26418,0.16521 0.26417,0.1634 0.26418,0.1616 0.26418,0.15974 0.26417,0.1579 0.26417,0.156 0.26418,0.15408 0.26417,0.15214 0.26417,0.15018 0.26418,0.1482 0.26417,0.14619 0.26417,0.14415 0.26418,0.1421 0.26417,0.14003 0.26417,0.13792 0.26419,0.1358 0.26417,0.13366 0.26417,0.13151 0.26418,0.12932 0.26417,0.12711 0.26417,0.1249 0.26418,0.12265 0.26417,0.12039 0.26417,0.11811 0.26418,0.11581 0.26417,0.1135 0.26417,0.11115 0.26419,0.10881 0.26417,0.10644 0.26417,0.10405 0.26418,0.10165 0.26417,0.0992 0.26417,0.0968 0.26418,0.0943 0.26417,0.0919 0.26417,0.0895 0.26418,0.0869 0.26417,0.0845 0.26417,0.0819 0.26418,0.0794 0.26418,0.0768 0.26417,0.0743 0.26418,0.0717 0.26417,0.0691 0.26417,0.0665 0.26418,0.0639 0.26417,0.0613 0.26417,0.0587 0.26418,0.0561 0.26417,0.0534 0.26417,0.0508 0.26418,0.0481 0.26417,0.0455 0.26418,0.0428 0.26418,0.0401 0.26417,0.0375 0.26417,0.0347 0.26418,0.032 0.26417,0.0294 0.26417,0.0266 0.26418,0.024 0.26417,0.0213 0.26417,0.0186 0.26418,0.0159 0.26417,0.0132 0.26417,0.0104 0.26419,0.008 0.26417,0.005 0.26417,0.002 0.26418,-5.3e-4 0.26417,-0.003 0.26417,-0.006 0.26418,-0.009 0.26417,-0.0114 0.26417,-0.0141 0.26418,-0.0169 0.26417,-0.0196 0.26417,-0.0223 0.26419,-0.025 0.26417,-0.0277 0.26417,-0.0303 0.26418,-0.033 0.26417,-0.0357 0.26417,-0.0384 0.26418,-0.0411 0.26417,-0.0438 0.26417,-0.0464 0.26418,-0.0491 0.26417,-0.0517 0.26417,-0.0544 0.26418,-0.057 0.26418,-0.0597 0.26417,-0.0623 0.26418,-0.0649 0.26417,-0.0675 0.26417,-0.0701 0.26418,-0.0726 0.26417,-0.0752 0.26417,-0.0778 0.26418,-0.0803 0.26417,-0.0828 0.26417,-0.0854 0.26418,-0.0879 0.26417,-0.0904 0.26418,-0.0928 0.26418,-0.0952 0.26417,-0.0977 0.26417,-0.10011 0.26418,-0.10253 0.26417,-0.10492 0.26417,-0.1073 0.26418,-0.10966 0.26417,-0.11201 0.26417,-0.11433 0.26418,-0.11665 0.26417,-0.11895 0.26417,-0.12121 0.26419,-0.12346 0.26417,-0.12571 0.26417,-0.12792 0.26418,-0.13011 0.26417,-0.13229 0.26417,-0.13444 0.26418,-0.13658 0.26417,-0.13869 0.26417,-0.14078 0.26418,-0.14285 0.26417,-0.14489 0.26417,-0.14691 0.26418,-0.14893 0.26418,-0.1509 0.26417,-0.15284 0.26418,-0.15478 0.26417,-0.15669 0.26417,-0.15858 0.26418,-0.16042 0.26417,-0.16225 0.26417,-0.16406 0.26418,-0.16584 0.26417,-0.1676 0.26417,-0.16932 0.26418,-0.17103 0.26418,-0.1727 0.26417,-0.17436 0.26418,-0.17597 0.26417,-0.17756 0.26417,-0.17913 0.26418,-0.18066 0.26417,-0.18218 0.26417,-0.18367 0.26418,-0.18511 0.26417,-0.18653 0.26417,-0.18793 0.26418,-0.18929 0.26417,-0.19063 0.26418,-0.19194 0.26418,-0.19321 0.26417,-0.19445 0.26417,-0.19567 0.26418,-0.19686 0.26417,-0.19801 0.26417,-0.19913 0.26418,-0.20022 0.26417,-0.20128 0.26417,-0.20232 0.26418,-0.2033 0.26417,-0.20427 0.26417,-0.20522 0.26419,-0.20611 0.26417,-0.20698 0.26417,-0.20782 0.26418,-0.20861 0.26417,-0.2094 0.26417,-0.21013 0.26418,-0.21084 0.26417,-0.21151 0.26417,-0.21215 0.26418,-0.21276 0.26417,-0.21333 0.26417,-0.21388 0.26418,-0.21438 0.26418,-0.21485 0.26417,-0.21529 0.26418,-0.21571 0.26417,-0.21607 0.26417,-0.21642 0.26418,-0.21671 0.26417,-0.21699 0.26417,-0.21723 0.26418,-0.21743 0.26417,-0.2176 0.26417,-0.21774 0.26418,-0.21783 0.26417,-0.2179 0.26418,-0.21794 0.26418,-0.21795 0.26417,-0.2179 0.26417,-0.21783 0.26418,-0.21773 0.26417,-0.2176 0.26417,-0.21742 0.26418,-0.21722 0.26417,-0.21698 0.26417,-0.21671 0.26418,-0.2164 0.26417,-0.21606 0.26418,-0.21569 0.26418,-0.21527 0.26417,-0.21485 0.26417,-0.21436 0.26418,-0.21386 0.26417,-0.21331 0.26417,-0.21274 0.26418,-0.21213 0.26417,-0.21148 0.26417,-0.21082 0.26418,-0.2101 0.26417,-0.20937 0.26417,-0.20859 0.26419,-0.20779 0.26417,-0.20695 0.26417,-0.20608 0.26418,-0.20517 0.26417,-0.20425 0.26417,-0.20326 0.26418,-0.20228 0.26417,-0.20125 0.26417,-0.20018 0.26418,-0.1991 0.26417,-0.19796 0.26417,-0.19682 0.26418,-0.19562 0.26418,-0.19441 0.26417,-0.19317 0.26418,-0.19189 0.26417,-0.19058 0.26417,-0.18925 0.26418,-0.18788 0.26417,-0.18648 0.26417,-0.18506 0.26418,-0.18361 0.26417,-0.18212 0.26417,-0.18061 0.26418,-0.17909 0.26417,-0.1775 0.26418,-0.17592 0.26418,-0.17429 0.26417,-0.17264 0.26417,-0.17097 0.26418,-0.16926 0.26417,-0.16754 0.26417,-0.16577 0.26418,-0.164 0.26417,-0.16219 0.26417,-0.16037 0.26418,-0.15849 0.26417,-0.15662 0.26418,-0.15471 0.26418,-0.15279 0.26417,-0.15082 0.26417,-0.14885 0.26418,-0.14685 0.26417,-0.14482 0.26417,-0.14278 0.26418,-0.1407 0.26417,-0.13862 0.26417,-0.1365 0.26418,-0.13437 0.26417,-0.13221 0.26417,-0.13003 0.26419,-0.12784 0.26417,-0.12563 0.26417,-0.12338 0.26418,-0.12114 0.26417,-0.11885 0.26417,-0.11657 0.26418,-0.11425 0.26417,-0.11193 0.26417,-0.10958 0.26418,-0.10722 0.26417,-0.10483 0.26417,-0.10244 0.26418,-0.10003 0.26418,-0.0976 0.26417,-0.0952 0.26418,-0.0927 0.26417,-0.0902 0.26417,-0.0877 0.26418,-0.0852 0.26417,-0.0827 0.26417,-0.0802 0.26418,-0.0777 0.26417,-0.0751 0.26417,-0.0726 0.26418,-0.07 0.26417,-0.0674 0.26418,-0.0648 0.26418,-0.0622 0.26417,-0.0596 0.26417,-0.0569 0.26418,-0.0543 0.26417,-0.0517 0.26417,-0.049 0.26418,-0.0464 0.26417,-0.0437 0.26417,-0.041 0.26418,-0.0383 0.26417,-0.0357 0.26417,-0.033 0.26419,-0.0303 0.26417,-0.0276 0.26417,-0.0249 0.26418,-0.0222 0.26417,-0.0194 0.26417,-0.0167 0.26418,-0.014 0.26417,-0.0113 0.26417,-0.009 0.26418,-0.006 0.26417,-0.003 0.26417,-2.7e-4 0.26419,0.002 0.26417,0.005 0.26417,0.008 0.26418,0.0105 0.26417,0.0132 0.26417,0.0159 0.26418,0.0187 0.26417,0.0214 0.26417,0.0241 0.26418,0.0268 0.26417,0.0295 0.26417,0.0322 0.26418,0.0349 0.26418,0.0375 0.26417,0.0402 0.26418,0.0429 0.26417,0.0456 0.26417,0.0482 0.26418,0.0509 0.26417,0.0535 0.26417,0.0562 0.26418,0.0588 0.26417,0.0614 0.26417,0.064 0.26418,0.0666 0.26417,0.0692 0.26418,0.0718 0.26418,0.0743 0.26417,0.0769 0.26417,0.0795 0.26418,0.082 0.26417,0.0845 0.26417,0.087 0.26418,0.0895 0.26417,0.092 0.26417,0.0944 0.26418,0.0969 0.26417,0.0993 0.26417,0.10173 0.26419,0.10415 0.26417,0.10652 0.26417,0.10889 0.26418,0.11124 0.26417,0.11358 0.26417,0.11589 0.26418,0.11819 0.26417,0.12047 0.26417,0.12273 0.26418,0.12497 0.26417,0.1272 0.26417,0.1294 0.26419,0.13158 0.26417,0.13373 0.26417,0.13589 0.26418,0.138 0.26417,0.14009 0.26417,0.14218 0.26418,0.14423 0.26417,0.14626 0.26417,0.14826 0.26418,0.15025 0.26417,0.15222 0.26417,0.15415 0.26418,0.15606 0.26418,0.15796 0.26417,0.15982 0.26418,0.16166 0.26417,0.16347 0.26417,0.16526 0.26418,0.16703 0.26417,0.16876 0.26417,0.17046 0.26418,0.17217 0.26417,0.17381 0.26417,0.17545 0.26418,0.17704 0.26417,0.17863 0.26418,0.18016 0.26418,0.18169 0.26417,0.18317 0.26417,0.18465 0.26418,0.18606 0.26417,0.18748 0.26417,0.18884 0.26418,0.1902 0.26417,0.19151 0.26417,0.19279 0.26418,0.19406 0.26417,0.19527 0.26417,0.19648 0.26419,0.19763 0.26417,0.19876 0.26417,0.19987 0.26418,0.20094 0.26417,0.20199 0.26417,0.20298 0.26418,0.20396 0.26417,0.2049 0.26417,0.20582 0.26418,0.2067 0.26417,0.20754 0.26417,0.20837 0.26418,0.20914 0.26418,0.20989 0.26417,0.21061 0.26418,0.2113 0.26417,0.21195 0.26417,0.21256 0.26418,0.21315 0.26417,0.2137 0.26417,0.21422 0.26418,0.21469 0.26417,0.21516 0.26417,0.21558 0.26418,0.21595 0.26418,0.21631 0.26417,0.21662 0.26418,0.2169 0.26417,0.21716 0.26417,0.21736 0.26418,0.21755 0.26417,0.2177 0.26417,0.2178 0.26418,0.21789 0.26417,0.21793 0.26417,0.21795 0.26418,0.21791 0.26417,0.21786 0.26418,0.21777 0.26418,0.21765 0.26417,0.21748 0.26417,0.21729 0.26418,0.21706 0.26417,0.2168 0.26417,0.21651 0.26418,0.21617 0.26417,0.21582 0.26417,0.21541 0.26418,0.21499 0.26417,0.21453 0.26417,0.21402 0.26419,0.2135 0.26417,0.21293 0.26417,0.21233 0.26418,0.2117 0.26417,0.21103 0.26417,0.21035 0.26418,0.20961 0.26417,0.20885 0.26417,0.20806 0.26418,0.20723 0.26417,0.20636 0.26417,0.20547 0.26418,0.20455 0.26418,0.20359 0.26417,0.20261 0.26418,0.20159 0.26417,0.20054 0.26417,0.19945 0.26418,0.19833 0.26417,0.19721 0.26417,0.19601 0.26418,0.19481 0.26417,0.19358 0.26417,0.19231 0.26418,0.19102 0.26418,0.18968 0.26417,0.18833 0.26418,0.18694 0.26417,0.18553 0.26417,0.18409 0.26418,0.18262 0.26417,0.18111 0.26417,0.17958 0.26418,0.17802 0.26417,0.17644 0.26417,0.17483 0.26418,0.17318 0.26417,0.17152 0.26418,0.16983 0.26418,0.1681 0.26417,0.16636 0.26417,0.16458 0.26418,0.16279 0.26417,0.16096 0.26417,0.15911 0.26418,0.15724 0.26417,0.15534 0.26417,0.15342 0.26418,0.15146 0.26417,0.1495 0.26417,0.1475 0.26419,0.1455 0.26417,0.14345 0.26417,0.14138 0.26418,0.1393 0.26417,0.1372 0.26417,0.13507 0.26418,0.13291 0.26417,0.13075 0.26417,0.12856 0.26418,0.12636 0.26417,0.12412 0.26417,0.12188 0.26418,0.1196 0.26418,0.11732 0.26417,0.11501 0.26418,0.11269 0.26417,0.11034 0.26417,0.108 0.26418,0.10561 0.26417,0.10323 0.26417,0.10082 0.26418,0.0984 0.26417,0.0959 0.26417,0.0935 0.26418,0.0911 0.26417,0.0886 0.26418,0.0861 0.26418,0.0836 0.26417,0.0811 0.26417,0.0785 0.26418,0.076 0.26417,0.0734 0.26417,0.0708 0.26418,0.0682 0.26417,0.0656 0.26417,0.063 0.26418,0.0604 0.26417,0.0578 0.26418,0.0552 0.26418,0.0525 0.26417,0.0499 0.26417,0.0472 0.26418,0.0445 0.26417,0.0418 0.26417,0.0392 0.26418,0.0365 0.26417,0.0338 0.26417,0.0312 0.26418,0.0285 0.26417,0.0258 0.26417,0.0231 0.26419,0.0204 0.26417,0.0176 0.26417,0.0149 0.26418,0.0122 0.26417,0.009 0.26417,0.007 0.26418,0.004 0.26417,0.001 0.26417,-0.001 0.26418,-0.004 0.26417,-0.007 0.26417,-0.01 0.26418,-0.0123 0.26418,-0.015 0.26417,-0.0178 0.26418,-0.0205 0.26417,-0.0232 0.26417,-0.0259 0.26418,-0.0285 0.26417,-0.0312 0.26417,-0.034 0.26418,-0.0366 0.26417,-0.0393 0.26417,-0.042 0.26418,-0.0447 0.26417,-0.0473 0.26418,-0.05 0.26418,-0.0527 0.26417,-0.0553 0.26417,-0.0579 0.26418,-0.0606 0.26417,-0.0632 0.26417,-0.0658 0.26418,-0.0684 0.26417,-0.071 0.26417,-0.0735 0.26418,-0.0761 0.26417,-0.0786 0.26417,-0.0812 0.26419,-0.0837 0.26417,-0.0862 0.26417,-0.0887 0.26418,-0.0912 0.26417,-0.0937 0.26417,-0.0961 0.26418,-0.0985 0.26417,-0.10095 0.26417,-0.10335 0.26418,-0.10574 0.26417,-0.10813 0.26417,-0.11047 0.26419,-0.11281 0.26417,-0.11514 0.26417,-0.11744 0.26418,-0.11972 0.26417,-0.122 0.26417,-0.12424 0.26418,-0.12647 0.26417,-0.12868 0.26417,-0.13087 0.26418,-0.13303 0.26417,-0.13518 0.26417,-0.13731 0.26418,-0.13941 0.26418,-0.1415 0.26417,-0.14356 0.26418,-0.14559 0.26417,-0.14762 0.26417,-0.1496 0.26418,-0.15158 0.26417,-0.15351 0.26417,-0.15544 0.26418,-0.15734 0.26417,-0.15921 0.26417,-0.16106 0.26418,-0.16289 0.26417,-0.16467 0.26418,-0.16646 0.26418,-0.16819 0.26417,-0.16991 0.26417,-0.17162 0.26418,-0.17327 0.26417,-0.17492 0.26417,-0.17651 0.26418,-0.17812 0.26417,-0.17966 0.26417,-0.18119 0.26418,-0.18269 0.26417,-0.18417 0.26417,-0.1856 0.26419,-0.18702 0.26417,-0.1884 0.26417,-0.18977 0.26418,-0.19107 0.26417,-0.19238 0.26417,-0.19364 0.26418,-0.19488 0.26417,-0.19609 0.26417,-0.19725 0.26418,-0.1984 0.26417,-0.19952 0.26417,-0.20058 0.26419,-0.20165 0.26417,-0.20266 0.26417,-0.20364 0.26418,-0.20461 0.26417,-0.20552 0.26417,-0.20642 0.26418,-0.20727 0.26417,-0.20809 0.26417,-0.20889 0.26418,-0.20966 0.26417,-0.21037 0.26417,-0.21107 0.26418,-0.21174 0.26418,-0.21237 0.26417,-0.21296 0.26418,-0.21353 0.26417,-0.21404 0.26417,-0.21455 0.26418,-0.21502 0.26417,-0.21543 0.26417,-0.21584 0.26418,-0.2162 0.26417,-0.21651 0.26417,-0.21682 0.26418,-0.21708 0.26417,-0.21729 0.26418,-0.2175 0.26418,-0.21765 0.26417,-0.21778 0.26417,-0.21786 0.26418,-0.21791 0.26417,-0.21795 0.26417,-0.21793 0.26418,-0.21788 0.26417,-0.2178 0.26417,-0.2177 0.26418,-0.21753 0.26417,-0.21736 0.26417,-0.21714 0.26419,-0.21689 0.26417,-0.21661 0.26417,-0.21628 0.26418,-0.21595 0.26417,-0.21554 0.26417,-0.21514 0.26418,-0.21468 0.26417,-0.21418 0.26417,-0.21367 0.26418,-0.21312 0.26417,-0.21253 0.26417,-0.21192 0.26418,-0.21126 0.26418,-0.21057 0.26417,-0.20986 0.26418,-0.20909 0.26417,-0.20832 0.26417,-0.20751 0.26418,-0.20665 0.26417,-0.20577 0.26417,-0.20485 0.26418,-0.20392 0.26417,-0.20292 0.26417,-0.20193 0.26418,-0.20088 0.26418,-0.19981 0.26417,-0.19871 0.26418,-0.19758 0.26417,-0.1964 0.26417,-0.19521 0.26418,-0.19399 0.26417,-0.19272 0.26417,-0.19144 0.26418,-0.19013 0.26417,-0.18878 0.26417,-0.1874 0.26418,-0.186 0.26417,-0.18455 0.26418,-0.18311 0.26418,-0.1816 0.26417,-0.18009 0.26417,-0.17853 0.26418,-0.17697 0.26417,-0.17536 0.26417,-0.17372 0.26418,-0.17207 0.26417,-0.17038 0.26417,-0.16867 0.26418,-0.16693 0.26417,-0.16517 0.26417,-0.16338 0.26419,-0.16156 0.26417,-0.15972 0.26417,-0.15785 0.26418,-0.15597 0.26417,-0.15404 0.26417,-0.15211 0.26418,-0.15015 0.26417,-0.14816 0.26417,-0.14615 0.26418,-0.14412 0.26417,-0.14206 0.26417,-0.13999 0.26418,-0.13789 0.26418,-0.13577 0.26417,-0.13362 0.26418,-0.13146 0.26417,-0.12928 0.26417,-0.12708 0.26418,-0.12485 0.26417,-0.12262 0.26417,-0.12035 0.26418,-0.11806 0.26417,-0.11578 0.26417,-0.11345 0.26418,-0.11111 0.26418,-0.10877 0.26417,-0.1064 0.26418,-0.10401 0.26417,-0.10161 0.26417,-0.0992 0.26418,-0.0968 0.26417,-0.0943 0.26417,-0.0919 0.26418,-0.0894 0.26417,-0.0869 0.26417,-0.0844 0.26418,-0.0819 0.26417,-0.0793 0.26418,-0.0768 0.26418,-0.0742 0.26417,-0.0717 0.26417,-0.0691 0.26418,-0.0665 0.26417,-0.0639 0.26417,-0.0613 0.26418,-0.0587 0.26417,-0.056 0.26417,-0.0534 0.26418,-0.0508 0.26417,-0.0481 0.26417,-0.0454 0.26419,-0.0428 0.26417,-0.0401 0.26417,-0.0374 0.26418,-0.0347 0.26417,-0.032 0.26417,-0.0293 0.26418,-0.0266 0.26417,-0.0239 0.26417,-0.0212 0.26418,-0.0185 0.26417,-0.0158 0.26417,-0.0131 0.26418,-0.0104 0.26418,-0.008 0.26417,-0.005 0.26418,-0.002 0.26417,5.3e-4 0.26417,0.003 0.26418,0.006 0.26417,0.009 0.26417,0.0114 0.26418,0.0142 0.26417,0.0169 0.26417,0.0196 0.26418,0.0223 0.26417,0.025 0.26418,0.0277 0.26418,0.0304 0.26417,0.0331 0.26417,0.0358 0.26418,0.0385 0.26417,0.0412 0.26417,0.0438 0.26418,0.0465 0.26417,0.0491 0.26417,0.0518 0.26418,0.0545 0.26417,0.0571 0.26418,0.0597 0.26418,0.0623 0.26417,0.0649 0.26417,0.0675 0.26418,0.0701 0.26417,0.0727 0.26417,0.0752 0.26418,0.0778 0.26417,0.0803 0.26417,0.0829 0.26418,0.0854 0.26417,0.0879 0.26417,0.0904 0.26419,0.0928 0.26417,0.0953 0.26417,0.0977 0.26418,0.10016 0.26417,0.10257 0.26417,0.10496 0.26418,0.10734 0.26417,0.10971 0.26417,0.11205 0.26418,0.11438 0.26417,0.11668 0.26417,0.11898 0.26418,0.12126 0.26418,0.1235 0.26417,0.12575 0.26418,0.12795 0.26417,0.13015 0.26417,0.13233 0.26418,0.13448 0.26417,0.13662 0.26417,0.13873 0.26418,0.14081 0.26417,0.14289 0.26417,0.14493 0.26418,0.14695 0.26417,0.14896 0.26418,0.15093 0.26418,0.15288 0.26417,0.15482 0.26417,0.15672 0.26418,0.1586 0.26417,0.16046 0.26417,0.16229 0.26418,0.1641 0.26417,0.16586 0.26417,0.16763 0.26418,0.16936 0.26417,0.17105 0.26418,0.17274 0.26418,0.17438 0.26417,0.17599 0.26417,0.1776 0.26418,0.17916 0.26417,0.18069 0.26417,0.18221 0.26418,0.18368 0.26417,0.18514 0.26417,0.18656 0.26418,0.18795 0.26417,0.18932 0.26417,0.19065 0.26419,0.19196 0.26417,0.19323 0.26417,0.19448 0.26418,0.19569 0.26417,0.19687 0.26417,0.19804 0.26418,0.19915 0.26417,0.20024 0.26417,0.20129 0.26418,0.20234 0.26417,0.20332 0.26417,0.20429 0.26418,0.20522 0.26418,0.20613 0.26417,0.20699 0.26418,0.20783 0.26417,0.20864 0.26417,0.2094 0.26418,0.21015 0.26417,0.21085 0.26417,0.21152 0.26418,0.21216 0.26417,0.21277 0.26417,0.21334 0.26418,0.21389 0.26417,0.21439 0.26418,0.21487 0.26418,0.21529 0.26417,0.21571 0.26417,0.21609 0.26418,0.21641 0.26417,0.21672 0.26417,0.217 0.26418,0.21723 0.26417,0.21744 0.26417,0.2176 0.26418,0.21774 0.26417,0.21783 0.26417,0.21792 0.26419,0.21793 0.26417,0.21794 0.26417,0.2179 0.26418,0.21784 0.26417,0.21772 0.26417,0.21759 0.26418,0.21742 0.26417,0.21722 0.26417,0.21697 0.26418,0.21671 0.26417,0.21639 0.26417,0.21606 0.26419,0.21568 0.26417,0.21527 0.26417,0.21484 0.26418,0.21434 0.26417,0.21385 0.26417,0.2133 0.26418,0.21273 0.26417,0.21212 0.26417,0.21148 0.26418,0.2108 0.26417,0.21009 0.26417,0.20935 0.26418,0.20859 0.26418,0.20777 0.26417,0.20692 0.26418,0.20608 0.26417,0.20516 0.26417,0.20421 0.26418,0.20327 0.26417,0.20225"
       stroke-linecap="round"
       stroke-linejoin="round"
       stroke-miterlimit="10"
       stroke-width="4.23333"
       id="path7348"
       style="stroke:#ffffff;stroke-width:3.99381;stroke-dasharray:none;stroke-opacity:1" /></g></svg>
