<?xml version="1.0" encoding="UTF-8" standalone="no"?>
<!-- Created with Inkscape (http://www.inkscape.org/) -->

<svg
   width="53.791168mm"
   height="40.844177mm"
   viewBox="0 0 53.791168 40.844177"
   version="1.1"
   id="svg5"
   xml:space="preserve"
   xmlns:inkscape="http://www.inkscape.org/namespaces/inkscape"
   xmlns:sodipodi="http://sodipodi.sourceforge.net/DTD/sodipodi-0.dtd"
   xmlns="http://www.w3.org/2000/svg"
   xmlns:svg="http://www.w3.org/2000/svg"><sodipodi:namedview
     id="namedview7"
     pagecolor="#ffffff"
     bordercolor="#666666"
     borderopacity="1.0"
     inkscape:showpageshadow="2"
     inkscape:pageopacity="0.0"
     inkscape:pagecheckerboard="0"
     inkscape:deskcolor="#d1d1d1"
     inkscape:document-units="mm"
     showgrid="false"
     inkscape:zoom="0.6480467"
     inkscape:cx="2735.914"
     inkscape:cy="195.97353"
     inkscape:window-width="1440"
     inkscape:window-height="900"
     inkscape:window-x="0"
     inkscape:window-y="0"
     inkscape:window-maximized="0"
     inkscape:current-layer="layer1" /><defs
     id="defs2" /><g
     inkscape:label="Livello 1"
     inkscape:groupmode="layer"
     id="layer1"
     transform="translate(-247.43802,427.86708)"><path
       id="path8906"
       style="fill:#D2D9DE;stroke-width:0.352778"
       d="m 289.08314,-427.86705 c -2.211,-0.003 -3.96875,0.13945 -3.96875,0.32195 0,0.18017 -0.24907,0.57721 -0.55397,0.88211 -0.3049,0.3049 -0.3905,0.55397 -0.19017,0.55397 0.20032,0 0.68119,-0.34011 1.06867,-0.75602 0.64341,-0.69062 0.96223,-0.73983 3.67626,-0.57051 1.63446,0.10197 3.18863,0.0477 3.45405,-0.12041 0.28905,-0.18311 -1.10916,-0.30809 -3.48609,-0.31109 z m -5.8198,0.0439 c -1.47405,-0.0437 -1.93882,0.14482 -3.88038,1.57561 -2.90146,2.13817 -5.25952,3.29607 -9.96683,4.89324 -2.13431,0.72416 -4.11903,1.45387 -4.41007,1.62161 -0.9132,0.52631 -0.23106,0.36002 2.99878,-0.73174 3.40005,-1.14929 3.85888,-1.24085 3.52795,-0.70538 -0.11992,0.19402 -0.033,0.35243 0.19327,0.35243 0.23427,0 0.31667,-0.24591 0.19172,-0.57154 -0.16876,-0.43979 -0.0549,-0.52866 0.49248,-0.38551 0.3914,0.10235 0.83007,0.002 0.97513,-0.2222 0.40974,-0.63409 2.90931,-1.68277 3.37499,-1.41594 0.22924,0.1313 0.30254,0.11232 0.16278,-0.0424 -0.13975,-0.15469 0.65383,-0.91509 1.76372,-1.68982 1.10989,-0.77474 2.12792,-1.58123 2.26239,-1.79214 0.13447,-0.21092 1.08697,-0.48515 2.11667,-0.60978 l 1.87224,-0.22686 z m 12.03958,0.3483 c -0.19182,-0.002 -0.39682,0.0183 -0.56844,0.063 -0.34324,0.0894 -0.14801,0.1687 0.43408,0.1757 0.58207,0.007 0.86309,-0.0657 0.62425,-0.16226 -0.11942,-0.0483 -0.29807,-0.0741 -0.48989,-0.0765 z m 3.84576,0.36277 -1.86345,0.0558 1.5875,0.20877 c 1.36858,0.18032 1.5999,0.33108 1.6769,1.0914 0.0499,0.49264 -0.0278,0.70268 -0.17622,0.47594 -0.17745,-0.27113 -0.71704,0.0508 -1.62471,0.96997 -0.74736,0.75682 -1.21575,1.37614 -1.04076,1.37614 0.17499,0 0.50873,-0.1904 0.74156,-0.42323 0.32924,-0.32926 0.42323,-0.29298 0.42323,0.16382 0,0.32302 -0.31733,0.75763 -0.70539,0.96531 -0.38806,0.20768 -0.70538,0.53981 -0.70538,0.73846 0,0.19866 0.1584,0.26306 0.35243,0.14314 0.19403,-0.11991 0.35295,-0.0591 0.35295,0.13488 0,0.19403 -0.15892,0.4511 -0.35295,0.57102 -0.19403,0.11991 -0.35243,0.64077 -0.35243,1.15756 v 0.93947 l 0.53692,-0.76687 c 1.13157,-1.61555 3.41473,-6.80888 3.21841,-7.32049 -0.15232,-0.39697 -0.68984,-0.5221 -2.06861,-0.4811 z m -2.15698,0.063 c -0.0981,-0.0981 -1.26255,0.5738 -2.58795,1.49345 -1.3254,0.91965 -2.11914,1.56817 -1.76372,1.44125 0.35542,-0.12691 0.79181,-0.23047 0.96997,-0.23047 0.17816,0 0.60448,-0.27799 0.94723,-0.61754 0.34275,-0.33954 1.07078,-0.90792 1.61799,-1.26297 0.54721,-0.35506 0.91458,-0.72562 0.81648,-0.82372 z m -6.38824,0.23461 c -0.30249,0 -0.54983,0.15892 -0.54983,0.35295 0,0.19403 0.14918,0.35243 0.33176,0.35243 0.18257,0 0.42993,-0.1584 0.54984,-0.35243 0.11992,-0.19403 -0.0293,-0.35295 -0.33177,-0.35295 z m -1.17977,0.98185 c -0.34844,-0.0378 -0.84107,0.10513 -1.46399,0.42633 -0.6917,0.35666 -1.86599,0.93998 -2.60966,1.29605 -0.74366,0.35608 -1.43833,0.7835 -1.54358,0.94981 -0.10525,0.16635 0.18561,0.18479 0.64647,0.0413 0.46086,-0.14345 0.8908,-0.39851 0.9555,-0.56689 0.0647,-0.16838 0.33771,-0.30644 0.60668,-0.30644 0.26897,0 1.05422,-0.31733 1.74512,-0.70538 0.69091,-0.38806 1.52928,-0.70807 1.86293,-0.71107 0.50033,-0.004 0.51779,-0.0614 0.10025,-0.32556 -0.0836,-0.0529 -0.18357,-0.0856 -0.29972,-0.0982 z m -5.33404,0.0858 c -0.50122,-0.009 -5.22658,3.07347 -5.57485,3.63698 -0.23526,0.38067 0.47637,-0.0216 3.60133,-2.03605 1.35818,-0.87553 2.24626,-1.59593 1.97352,-1.60093 z m 15.73547,1.20147 c 0.12113,0.0365 0.13403,0.22252 -0.0558,0.52969 -0.1279,0.20693 -0.40138,0.3762 -0.60771,0.3762 -0.23392,0 -0.20694,-0.20267 0.0713,-0.53795 0.24195,-0.2915 0.47109,-0.40438 0.59221,-0.36794 z m -2.83135,1.63608 c -0.14962,0.002 -0.59549,0.16561 -1.34359,0.49041 -0.66577,0.28904 -0.91572,0.52117 -0.56947,0.52917 0.33955,0.008 0.61702,0.25207 0.61702,0.54311 0,0.29105 -0.11907,0.51193 -0.26459,0.49093 -0.5329,-0.0768 -1.85208,0.4823 -1.85208,0.78497 0,0.17137 -0.11905,0.28606 -0.26458,0.25476 -0.14552,-0.0313 -0.72258,0.13164 -1.28261,0.36225 -0.56003,0.23062 -1.35361,0.48287 -1.76372,0.56017 -0.41011,0.0773 -0.74569,0.16449 -0.74569,0.19379 0,0.0293 -0.23813,0.10895 -0.52917,0.17725 -0.29104,0.0683 -1.42819,0.44949 -2.52646,0.84698 -1.09828,0.3975 -2.48716,0.75993 -3.08663,0.80563 -0.59947,0.0457 -1.08986,0.21769 -1.08986,0.38189 0,0.1642 -0.15961,0.19984 -0.35501,0.0791 -0.1954,-0.12076 -0.44693,0.0185 -0.55863,0.30954 -0.1117,0.29109 -0.42832,0.44297 -0.70331,0.33745 -0.27498,-0.10552 -0.49971,-0.007 -0.49971,0.2191 0,0.22621 -0.15892,0.3137 -0.35295,0.19379 -0.19402,-0.11992 -0.36504,0.0691 -0.38034,0.42013 -0.0153,0.351 -0.10281,0.45495 -0.19431,0.23151 -0.13746,-0.33565 -3.30574,2.4582 -3.30574,2.91507 v 5.2e-4 c 0,0.28042 0.24722,0.10711 1.54668,-1.08314 0.73249,-0.67093 1.65357,-1.32211 2.0469,-1.44694 0.39332,-0.12484 1.00901,-0.47822 1.36788,-0.78548 0.35887,-0.30728 0.85748,-0.60129 1.10846,-0.65319 2.14817,-0.44383 8.47109,-2.42025 9.53585,-2.9807 0.83446,-0.43922 1.24731,-0.4046 1.4273,0.11885 0.0834,0.24253 0.11228,0.17216 0.0641,-0.15657 -0.059,-0.40234 0.23818,-0.66927 0.90847,-0.81649 0.54768,-0.12029 1.18474,-0.44697 1.41594,-0.72554 0.23119,-0.27857 0.71833,-0.50643 1.08262,-0.50643 0.45331,0 0.66132,-0.25052 0.65732,-0.79375 -0.004,-0.627 -0.0746,-0.68485 -0.33383,-0.27492 -0.18051,0.28544 -0.45557,0.39193 -0.61133,0.23616 -0.15577,-0.15577 0.0247,-0.50876 0.40101,-0.78393 0.43715,-0.31967 0.5837,-0.47789 0.43408,-0.47542 z m -7.29309,0.016 c -0.29104,0.0164 -0.92622,0.15677 -1.41129,0.31212 l -0.8816,0.28267 0.8816,0.0295 c 0.48507,0.0164 1.12025,-0.12405 1.41129,-0.31213 0.47037,-0.30422 0.47037,-0.33862 0,-0.31212 z m -6.73189,0.003 c -0.12256,-0.005 -0.26231,0.0173 -0.38964,0.0682 -0.28142,0.11261 -0.19807,0.19601 0.2129,0.21291 0.37192,0.0153 0.58024,-0.0678 0.46302,-0.185 -0.0586,-0.0586 -0.16373,-0.0911 -0.28628,-0.0961 z m -2.36575,1.04076 c -0.1371,-0.004 -0.34194,0.10186 -0.52141,0.28267 -0.34582,0.34841 -0.30538,0.38936 0.1974,0.19792 0.34789,-0.13248 0.54373,-0.33011 0.43511,-0.43873 -0.0272,-0.0271 -0.0654,-0.0405 -0.1111,-0.0419 z m 13.32684,0.0372 c -0.27028,0 -0.80405,0.0962 -1.40715,0.28939 -0.70898,0.22702 -0.74342,0.285 -0.17622,0.293 0.38805,0.006 1.02322,-0.12624 1.41128,-0.293 0.44948,-0.19315 0.44236,-0.28939 0.17209,-0.28939 z m -16.05174,0.10387 c -0.0592,-0.0247 -0.17324,-0.009 -0.33021,0.0512 -0.30112,0.11555 -0.54725,0.27252 -0.54725,0.34882 0,0.28572 0.67236,0.12488 0.87953,-0.21033 0.0618,-0.1 0.0571,-0.16492 -0.002,-0.18965 z m 12.88087,0.58394 c -0.15985,0 -0.31953,0.0244 -0.4408,0.0734 -0.24253,0.0978 -0.0443,0.17829 0.4408,0.17829 0.48507,0 0.68333,-0.0804 0.4408,-0.17829 -0.12127,-0.0489 -0.28095,-0.0734 -0.4408,-0.0734 z m -8.73125,0.16847 c -0.0921,-0.0245 -0.24612,-0.0141 -0.44028,0.0367 -0.38832,0.10155 -0.70642,0.24548 -0.70642,0.31988 0,0.27836 1.02451,0.12223 1.2144,-0.18501 0.0544,-0.088 0.0244,-0.14705 -0.0677,-0.17156 z m -11.17968,0.13074 c -0.31073,-0.0311 -1.19417,0.17696 -2.00918,0.54777 l -1.18701,0.54002 1.23507,-0.22789 c 0.6791,-0.12528 1.47268,-0.36331 1.76372,-0.52917 0.36416,-0.20753 0.38384,-0.31209 0.1974,-0.33073 z m 4.91805,0.0326 c -0.19403,0 -0.75,0.22707 -1.23507,0.50436 -0.48507,0.27729 -0.7232,0.50436 -0.52917,0.50436 0.19403,0 0.75,-0.22707 1.23507,-0.50436 0.48507,-0.27729 0.7232,-0.50436 0.52917,-0.50436 z m 13.22916,0.0212 c -0.15985,0 -0.32004,0.0244 -0.44131,0.0734 -0.24253,0.0978 -0.0438,0.17777 0.44131,0.17777 0.48507,0 0.68333,-0.0799 0.4408,-0.17777 -0.12127,-0.049 -0.28094,-0.0734 -0.4408,-0.0734 z m -10.37714,0.0429 c -0.11389,-0.11388 -4.76354,2.23771 -5.11597,2.58744 -0.0808,0.0803 -0.0203,0.14573 0.13436,0.14573 0.41621,0 5.12906,-2.58572 4.98161,-2.73317 z m 8.61291,0.30955 c -0.15985,0 -0.31954,0.0244 -0.4408,0.0734 -0.24254,0.0978 -0.0443,0.17828 0.4408,0.17828 0.48507,0 0.68386,-0.0804 0.44132,-0.17828 -0.12127,-0.0489 -0.28147,-0.0734 -0.44132,-0.0734 z m -7.00422,0.0553 c -0.38543,-0.0388 -0.78846,0.26745 -0.57465,0.6134 0.10639,0.17217 0.43697,0.21973 0.73484,0.10542 0.35372,-0.13573 0.42168,-0.32765 0.19586,-0.55346 -0.101,-0.10099 -0.22758,-0.15242 -0.35605,-0.16536 z m 16.88217,0.48162 -0.81649,0.76688 c -0.44907,0.42187 -1.06727,0.76688 -1.37356,0.76688 -0.30628,0 -0.65694,0.261 -0.77928,0.57981 -0.12234,0.31879 -0.3187,0.48331 -0.43666,0.36535 -0.11796,-0.11796 -0.51131,-0.056 -0.87385,0.13798 -0.4718,0.25249 -0.65888,0.23387 -0.65888,-0.0661 0,-0.23054 -0.31784,-0.0531 -0.7059,0.39429 -0.45762,0.52764 -0.70655,0.63987 -0.71055,0.31885 -0.004,-0.40188 -0.0701,-0.39553 -0.34778,0.0341 -0.18809,0.29104 -0.34643,0.37025 -0.35243,0.17622 -0.006,-0.19402 -0.13429,-0.15806 -0.28526,0.0796 -0.15097,0.23763 -0.60933,0.48279 -1.01854,0.54519 -0.40922,0.0625 -0.98372,0.31261 -1.27641,0.55552 -0.36383,0.30199 -0.60536,0.32319 -0.76326,0.0677 -0.1551,-0.25094 -0.47302,-0.20402 -0.9679,0.14262 -0.52774,0.36964 -0.92182,0.41745 -1.38803,0.16795 -0.47556,-0.25452 -0.65229,-0.22629 -0.65629,0.10491 -0.004,0.31875 -0.10683,0.29607 -0.34726,-0.076 -0.29467,-0.45596 -0.34227,-0.44625 -0.34727,0.0682 -0.004,0.40613 -0.23122,0.55336 -0.71107,0.46096 -0.38806,-0.0747 -0.70538,-0.0202 -0.70538,0.12144 0,0.1416 -0.34313,0.28362 -0.76223,0.31522 -0.41911,0.0316 -0.89264,0.26347 -1.05265,0.51573 -0.16001,0.25225 -0.29847,0.29997 -0.30747,0.10594 -0.009,-0.19403 -0.17843,-0.0732 -0.37724,0.2682 -0.44789,0.76916 -2.62658,1.71326 -3.33003,1.44332 -0.69435,-0.26645 -0.66754,-0.39354 0.3669,-1.74976 1.17355,-1.53861 4.4219,-4.01016 7.05022,-5.36401 1.16417,-0.59966 1.99246,-1.09791 1.84071,-1.10691 -0.61768,-0.038 -2.92682,1.12162 -4.5377,2.27893 -0.94298,0.67747 -1.86121,1.23145 -2.04071,1.23145 -0.17949,0 -0.649,0.41023 -1.04334,0.91157 -0.39435,0.50133 -0.87407,0.81476 -1.06609,0.69608 -0.19202,-0.11867 -0.70213,0.26125 -1.13326,0.84439 -0.77877,1.05334 -0.78696,1.05527 -1.29915,0.32402 -0.38175,-0.54502 -0.40917,-0.80176 -0.10438,-0.99012 0.22634,-0.13992 0.30985,-0.51984 0.18551,-0.84388 -0.14255,-0.37147 -0.0491,-0.59021 0.2527,-0.59221 0.2633,-0.002 0.85417,-0.47803 1.31258,-1.05834 0.4584,-0.58033 1.01385,-1.05898 1.23455,-1.06298 0.22069,-0.004 0.79806,-0.33503 1.28313,-0.73484 0.70295,-0.57941 0.52379,-0.54017 -0.88212,0.19275 -0.97014,0.50576 -2.35789,1.47989 -3.08405,2.16525 -0.72617,0.68535 -1.63963,1.30766 -2.02985,1.38286 -0.39022,0.0751 -0.87833,0.24092 -1.08469,0.36845 -0.20636,0.12754 -0.46236,-0.10143 -0.56895,-0.50901 -0.10658,-0.40758 -0.45306,-0.73887 -0.76998,-0.73587 -0.50096,0.005 -0.50704,0.0505 -0.047,0.34778 0.4302,0.27797 0.38446,0.34326 -0.24391,0.34726 -0.42511,0.003 -0.86666,0.15706 -0.98134,0.34262 -0.21545,0.3486 -0.84535,0.22716 -2.21071,-0.42685 -0.62728,-0.30047 -0.93079,-0.25138 -1.47123,0.23771 -0.65068,0.58886 -0.69854,0.58336 -1.07435,-0.11885 -0.2163,-0.40415 -0.66567,-0.72364 -0.99839,-0.71004 -0.50309,0.0206 -0.48598,0.076 0.10077,0.32815 l 0.70538,0.30282 -0.70538,0.0522 c -2.5011,0.18415 -2.90642,0.14655 -2.84583,-0.26561 0.0757,-0.51528 0.83575,-1.23859 3.02204,-2.87528 2.00077,-1.49781 0.82397,-1.11891 -1.80867,0.58239 -1.09177,0.70553 -2.43708,1.94577 -2.98948,2.75591 -0.55241,0.81014 -1.6914,1.83708 -2.53112,2.28255 -3.52244,1.86865 -7.61351,8.30054 -8.07237,12.69069 -0.24172,2.31269 0.44264,7.215 1.07539,7.70186 0.21529,0.16564 2.29671,0.64693 4.62504,1.0697 3.82382,0.69433 5.58357,1.24253 11.28871,3.5171 2.22,0.88509 2.6056,0.90003 3.75585,0.14159 1.80268,-1.18863 5.93416,-4.6974 6.2699,-5.32474 0.18663,-0.3487 0.9439,-1.27132 1.6831,-2.05052 3.87733,-4.08716 4.40321,-4.74473 4.20543,-5.26014 -0.11855,-0.3089 -0.0576,-0.44797 0.14211,-0.32453 0.19217,0.11877 0.49641,-0.17069 0.67592,-0.64285 0.17952,-0.47217 1.07293,-1.47026 1.98541,-2.21796 0.91247,-0.74769 2.36631,-2.22742 3.23081,-3.28868 0.86449,-1.06125 2.10868,-2.33487 2.76521,-2.83032 0.65653,-0.49545 1.69013,-1.65495 2.2965,-2.57659 0.60637,-0.92163 1.21982,-1.67587 1.36322,-1.67587 0.14341,0 0.67422,-0.43638 1.17978,-0.96996 2.14158,-2.26027 3.07888,-3.58194 3.07888,-4.34134 z m -29.45712,0.0501 -1.05833,0.53847 c -0.58209,0.29637 -1.37567,0.79724 -1.76372,1.11311 -0.68971,0.56143 -0.68592,0.56936 0.17622,0.34365 0.48507,-0.12699 1.27916,-0.62786 1.76423,-1.11311 z m 2.45825,1.2206 c -0.83916,0.0855 -2.64741,1.01566 -2.44378,1.34514 0.2137,0.34579 1.2206,0.0359 1.2206,-0.37569 0,-0.15223 0.4364,-0.39288 0.96997,-0.53485 0.53357,-0.14197 0.77897,-0.32866 0.54518,-0.41496 -0.0716,-0.0265 -0.17209,-0.0319 -0.29197,-0.0196 z m 2.63188,0.7183 c -0.42248,0.0256 -1.03301,0.34787 -1.03301,0.64131 0,0.40204 0.38836,0.39288 1.048,-0.0243 0.28538,-0.18051 0.42735,-0.41962 0.31522,-0.53175 -0.0695,-0.0695 -0.18938,-0.0938 -0.33021,-0.0853 z m -9.0289,0.87023 c -0.0789,-0.0481 -0.19579,0.004 -0.36794,0.14728 -0.53717,0.44578 -0.61112,0.78181 -0.10284,0.46767 0.19403,-0.11991 0.35295,-0.0494 0.35295,0.15606 0,0.20548 0.0695,0.37311 0.15452,0.37311 0.085,0 0.13081,-0.30914 0.10231,-0.6873 -0.0196,-0.25989 -0.0601,-0.40868 -0.139,-0.45682 z m 3.38894,0.0863 c -0.18257,0 -0.33177,0.15841 -0.33177,0.35243 0,0.19402 0.24735,0.35295 0.54984,0.35295 0.30246,0 0.45168,-0.15893 0.33176,-0.35295 -0.11992,-0.19402 -0.36725,-0.35243 -0.54983,-0.35243 z m 3.90157,0 c -0.19403,0 -0.35295,0.15841 -0.35295,0.35243 0,0.19402 0.15892,0.35295 0.35295,0.35295 0.19403,0 0.35243,-0.15893 0.35243,-0.35295 0,-0.19402 -0.1584,-0.35243 -0.35243,-0.35243 z m 22.59707,0.36329 c 0.18499,0.003 0.33383,0.1248 0.33383,0.36276 0,0.20547 -0.15892,0.27546 -0.35295,0.15555 -0.19403,-0.11992 -0.35244,-0.0436 -0.35244,0.17002 0,0.21359 -0.31785,0.72913 -0.7059,1.14566 -0.38806,0.41652 -0.70538,0.62865 -0.70538,0.47129 0,-0.15736 -0.23112,-0.0939 -0.51366,0.14056 -0.28254,0.23446 -0.67959,0.32361 -0.88212,0.19844 -0.20252,-0.12517 -0.38054,0.0598 -0.39584,0.41083 -0.0154,0.35203 -0.10637,0.44524 -0.20257,0.20774 -0.12272,-0.30284 -0.39568,-0.2242 -0.92088,0.2651 -0.56675,0.528 -0.81456,0.58882 -1.02733,0.25373 -0.22051,-0.34721 -0.28177,-0.34258 -0.28577,0.0217 -0.003,0.25473 -0.28315,0.43499 -0.6227,0.40049 -0.33955,-0.0346 -0.73608,-0.0244 -0.8816,0.0222 -0.14552,0.0466 -0.4235,0.12409 -0.61753,0.17259 -0.19403,0.0485 -0.43217,0.12772 -0.52917,0.17622 -0.097,0.0485 -0.49405,0.12823 -0.88211,0.17673 -0.38806,0.0485 -0.8397,0.108 -1.00408,0.1323 -0.16438,0.0243 -0.47159,0.40111 -0.68213,0.83767 -0.21055,0.43658 -0.39359,0.59548 -0.40669,0.35295 -0.0131,-0.24254 -0.20182,-0.44132 -0.41961,-0.44132 -0.29137,0 -0.29045,0.12741 0.003,0.48111 0.49206,0.5929 1.22778,0.5283 2.98845,-0.26303 0.74858,-0.33644 1.43465,-0.53835 1.52445,-0.44855 0.0897,0.0898 0.5886,-0.0581 1.10846,-0.32815 0.51986,-0.27001 0.99463,-0.34371 1.05523,-0.16433 0.0606,0.17937 0.41072,0.0682 0.77825,-0.2465 0.88023,-0.75367 1.76818,-0.87971 1.51309,-0.21497 -0.10755,0.28022 -0.28085,0.42454 -0.38499,0.32039 -0.10415,-0.10415 -0.41305,0.12981 -0.68627,0.51987 -0.27321,0.39007 -0.62816,0.62775 -0.78858,0.52865 -0.16042,-0.0991 -0.38632,0.0673 -0.50229,0.36949 -0.11597,0.30225 -0.35707,0.45881 -0.53589,0.34829 -0.17883,-0.11052 -0.3869,-0.0154 -0.4625,0.21136 -0.17563,0.52689 -1.33429,0.71131 -1.33429,0.21239 0,-0.20654 -0.30419,-0.0245 -0.67592,0.40411 -0.62175,0.71689 -0.68886,0.7282 -0.84078,0.14211 -0.14576,-0.56233 -0.17046,-0.55449 -0.21136,0.0682 -0.0386,0.5882 -0.1035,0.61738 -0.3886,0.17622 -0.28368,-0.43892 -0.34344,-0.40851 -0.35244,0.17673 -0.009,0.58524 -0.0693,0.61515 -0.35295,0.17622 -0.29727,-0.45996 -0.34226,-0.45388 -0.34726,0.047 -0.006,0.64897 -1.41314,1.18088 -1.42214,0.53743 l 5.2e-4,-5.2e-4 c -0.003,-0.22814 -0.15654,-0.17448 -0.34778,0.12144 -0.27858,0.43112 -0.34327,0.38754 -0.34727,-0.23564 -0.008,-1.12532 0.36874,-1.90987 0.79168,-1.64848 0.22345,0.1381 0.2645,0.0584 0.10387,-0.20154 -0.14643,-0.23696 -0.35478,-0.34233 -0.46302,-0.23409 -0.10823,0.10824 -0.40934,0.0203 -0.66972,-0.19585 -0.33522,-0.27786 -0.47388,-0.2809 -0.47388,-0.009 0,0.7374 -1.20322,1.08008 -1.92908,0.54932 -0.59724,-0.43672 -0.61927,-0.56384 -0.17156,-0.99528 0.74522,-0.71814 3.09452,-1.96784 3.69899,-1.96784 0.28514,0 0.51832,-0.18499 0.51832,-0.41135 0,-0.22638 0.0969,-0.31509 0.21497,-0.19688 0.11818,0.11817 0.99148,-0.091 1.94045,-0.46509 0.94898,-0.3741 1.72548,-0.5712 1.72548,-0.43822 0,0.133 0.17764,0.0637 0.39532,-0.15399 0.21767,-0.21769 0.59177,-0.32073 0.83096,-0.22893 0.23918,0.0918 1.25164,-0.14363 2.24999,-0.52297 0.99836,-0.37934 1.8154,-0.53495 1.8154,-0.34571 0,0.18925 0.25091,0.0933 0.55758,-0.21342 0.30669,-0.30672 0.69234,-0.47405 0.85732,-0.37208 0.16498,0.10196 0.39954,0.0241 0.52141,-0.17311 0.14554,-0.23548 0.36692,-0.35093 0.55191,-0.34778 z m -27.20144,0.51986 c -0.16646,-0.009 -0.20098,0.11374 -0.10284,0.36949 0.2274,0.5926 0.35697,0.63282 0.62735,0.19533 0.10735,-0.17369 -0.0342,-0.40412 -0.31419,-0.51159 -0.0849,-0.0326 -0.15484,-0.0501 -0.21032,-0.0532 z m 8.16797,0.6041 c -3.9e-4,0.0127 0.0162,0.0402 0.0527,0.0832 0.14595,0.17189 0.0137,0.59114 -0.29455,0.93172 h -5.2e-4 c -0.51196,0.56589 -0.51162,0.61191 0.003,0.53641 1.02646,-0.15065 1.34265,-0.77203 0.65939,-1.29605 -0.26082,-0.20005 -0.41895,-0.29347 -0.42013,-0.25528 z m -13.50873,1.34565 c 0.52188,0.01 0.51066,0.0761 -0.0884,0.52917 -0.8702,0.65815 -0.42523,0.67708 0.60875,0.0258 0.42974,-0.27061 1.06118,-0.38687 1.40301,-0.25838 0.51087,0.19201 0.24416,0.56613 -1.49913,2.10064 -1.16645,1.02675 -2.1208,2.02882 -2.1208,2.22726 0,0.19844 -0.57497,1.06251 -1.27744,1.91978 -0.70247,0.85727 -1.14673,1.55856 -0.98754,1.55856 0.15919,0 0.099,0.1904 -0.13384,0.42323 -0.58259,0.58259 -0.53191,1.00732 0.092,0.76791 0.28366,-0.10885 0.62073,-0.54048 0.7488,-0.95912 0.12806,-0.41863 0.80612,-1.46807 1.50688,-2.33215 0.70081,-0.86409 1.03873,-1.45237 0.75086,-1.3069 -0.28786,0.14547 -0.14624,-0.0136 0.31471,-0.35347 0.46095,-0.33988 1.33886,-1.10114 1.9513,-1.69188 1.7071,-1.64661 3.61104,-2.55716 4.36356,-2.08721 0.34017,0.21262 1.126,0.31175 1.74666,0.22065 0.73226,-0.10747 1.32005,0.0256 1.6738,0.37931 0.4917,0.4917 0.46899,0.59838 -0.23048,1.08831 -0.42653,0.29874 -0.65751,0.66127 -0.51314,0.80563 0.14436,0.14435 0.37301,0.10831 0.50798,-0.0801 0.35188,-0.4912 1.73767,-1.22421 2.31407,-1.22421 0.26991,0 0.68863,0.23811 0.93017,0.52916 0.33199,0.40001 0.33647,0.52917 0.0181,0.52917 -0.23164,0 -0.62861,0.20745 -0.88212,0.46095 -0.37938,0.3794 -0.3758,0.57742 0.0212,1.12035 0.41151,0.56282 0.4035,0.74123 -0.0543,1.21491 -0.29506,0.30532 -0.92791,1.03126 -1.40663,1.61334 -0.68327,0.83082 -0.87093,0.92134 -0.87127,0.42168 -2.3e-4,-0.35007 0.47509,-1.14366 1.05627,-1.76372 0.58119,-0.62007 1.05733,-1.24664 1.05833,-1.39216 0.003,-0.53367 -0.68947,-0.24404 -1.05626,0.44132 -0.20768,0.38805 -0.6103,0.70538 -0.89452,0.70538 -0.28421,0 -0.51677,0.16814 -0.51677,0.37362 0,0.20553 0.19826,0.27323 0.4408,0.15038 0.24253,-0.12286 0.16025,0.006 -0.18293,0.28732 -0.78293,0.64099 -3.32865,4.54745 -4.18424,6.4208 -0.35447,0.77611 -0.62953,1.96673 -0.61133,2.64583 0.0345,1.28396 0.1037,1.11202 0.48524,-1.21026 0.13655,-0.8311 0.33374,-1.2149 0.49247,-0.95808 0.14566,0.23564 0.50828,0.33477 0.80564,0.22066 0.39155,-0.15025 0.51297,-0.61587 0.43977,-1.68776 -0.0556,-0.81409 -0.0228,-1.12054 0.0734,-0.68109 0.0962,0.43944 0.29369,0.72574 0.43873,0.63614 0.1451,-0.0897 0.19489,0.30687 0.11059,0.88108 -0.0843,0.57421 -0.28792,1.12684 -0.45217,1.22835 -0.16424,0.10151 -0.15181,0.57046 0.0274,1.04179 0.21961,0.57764 0.19723,0.93614 -0.0682,1.1002 -0.25576,0.15807 -0.29336,0.0813 -0.108,-0.2186 0.17427,-0.28199 0.14625,-0.37578 -0.0713,-0.24132 -0.21177,0.13088 -0.3403,1.95432 -0.3173,4.49533 0.0213,2.35134 -0.0537,4.42454 -0.1664,4.60695 -0.25016,0.40476 -1.03249,-1.22752 -1.03249,-2.15387 0,-0.83795 -0.64439,-1.26506 -1.14825,-0.7612 -0.27286,0.27285 -0.21457,0.4451 0.20515,0.60617 0.32237,0.1237 0.50261,0.36033 0.4005,0.52555 -0.10212,0.16518 -0.40009,0.2178 -0.66198,0.1173 -0.32252,-0.12366 -0.4268,-0.60299 -0.32349,-1.48363 0.11393,-0.97123 0.0603,-1.16703 -0.21239,-0.77204 -0.20094,0.29104 -0.38625,0.37023 -0.41135,0.17621 -0.0251,-0.19403 -0.0988,-0.80772 -0.16381,-1.36374 -0.065,-0.55601 -0.20431,-1.09676 -0.30954,-1.20199 -0.10523,-0.10523 -0.0146,-0.40469 0.20153,-0.66508 0.2208,-0.26601 0.24442,-0.47335 0.0538,-0.47335 -0.18664,0 -0.52923,-0.41736 -0.76171,-0.92759 -0.35587,-0.78106 -0.32322,-1.04501 0.20774,-1.66967 0.54508,-0.64131 0.54921,-0.67863 0.0289,-0.27647 -0.33105,0.25586 -0.72809,0.38759 -0.88212,0.29249 -0.15402,-0.0951 -0.3039,0.22067 -0.3328,0.70228 -0.0289,0.48161 -0.39787,1.24348 -0.8201,1.69292 -0.50608,0.5387 -0.63563,0.8992 -0.37982,1.0573 0.21341,0.13188 0.34475,0.10878 0.29145,-0.0512 -0.15885,-0.47655 0.20645,-0.58651 1.05472,-0.31729 0.49836,0.15818 0.69922,0.40996 0.53433,0.66921 -0.14536,0.22857 -0.26675,0.55931 -0.26975,0.73484 -0.003,0.17553 -0.28107,0.35926 -0.61805,0.40876 -0.49787,0.0731 -0.54582,-0.0347 -0.25631,-0.57568 0.27547,-0.51481 0.24722,-0.62376 -0.12454,-0.4811 -0.74679,0.28657 -1.48589,-0.78551 -0.96997,-1.40715 0.34418,-0.41472 0.27579,-0.46738 -0.39739,-0.30283 -0.77267,0.18888 -0.76027,0.13897 0.24443,-0.98443 0.58208,-0.65089 0.78035,-0.9715 0.4408,-0.71262 -0.47014,0.35842 -0.61754,0.36696 -0.61754,0.0357 0,-0.23928 -0.30259,-0.0613 -0.67231,0.39532 -0.45458,0.56142 -0.57384,1.01299 -0.36897,1.39578 0.18904,0.35323 0.14345,0.72681 -0.12144,0.99374 -0.3315,0.33405 -0.29933,0.38023 0.14728,0.21032 0.73751,-0.2806 1.13441,0.70542 0.64906,1.61231 -0.38409,0.71766 -1.04438,0.92447 -1.04438,0.32711 0,-0.19403 0.14145,-0.35244 0.31471,-0.35244 0.17327,0 0.41521,-0.26082 0.53743,-0.57929 0.1858,-0.48418 0.13398,-0.50613 -0.31523,-0.13332 -0.39676,0.32931 -0.53691,0.33726 -0.53691,0.0295 0,-0.22926 -0.15047,-0.32397 -0.33435,-0.21032 -0.18386,0.11365 -0.2741,-0.10578 -0.2005,-0.48783 0.10112,-0.52518 -0.011,-0.64311 -0.45941,-0.48265 -0.32621,0.11677 -0.47976,0.0868 -0.34106,-0.0667 0.13869,-0.15344 0.0831,-0.59486 -0.12351,-0.98082 -0.23444,-0.43809 -0.24231,-0.61913 -0.0207,-0.48214 0.21347,0.13192 0.28017,-0.0676 0.16691,-0.50074 -0.21655,-0.8281 -1.03047,-0.72475 -0.88315,0.11214 0.0537,0.30479 -0.0654,0.65464 -0.26458,0.77773 -0.19917,0.12309 -0.36659,0.57172 -0.37259,0.99684 -0.01,0.70052 -0.045,0.71456 -0.37465,0.14831 -0.20005,-0.34365 -0.51294,-0.53268 -0.69505,-0.42013 -0.1821,0.11254 -0.33073,0.0268 -0.33073,-0.19017 0,-0.21692 -0.15049,-0.30122 -0.33434,-0.18759 -0.19989,0.12354 -0.26381,-0.37725 -0.15917,-1.2454 0.1159,-0.96155 0.0496,-1.37458 -0.19533,-1.22318 -0.20343,0.12572 -0.36949,0.0603 -0.36949,-0.14521 0,-0.20548 0.13233,-0.37363 0.29404,-0.37362 0.16169,0 0.29352,-0.23116 0.29352,-0.51367 0,-0.28246 -0.13183,-0.43166 -0.29352,-0.33176 -0.40375,0.24953 -0.37357,0.0638 0.22117,-1.35961 0.28331,-0.67815 0.44087,-1.30683 0.35037,-1.39733 -0.0905,-0.0905 0.14319,-0.44351 0.51935,-0.78393 0.37616,-0.34042 0.60185,-0.8334 0.50126,-1.09554 -0.1006,-0.26214 0.30662,-1.18855 0.90537,-2.05879 0.59875,-0.87025 1.0885,-1.71213 1.08779,-1.8712 -6.2e-4,-0.15907 -0.6363,0.66311 -1.41232,1.82728 -0.77602,1.16416 -1.33975,2.30474 -1.25315,2.53473 0.0866,0.23 -0.001,0.47128 -0.19482,0.53588 -0.19369,0.0646 -0.41054,0.43195 -0.48214,0.81649 -0.0716,0.38453 -0.16244,0.73853 -0.20154,0.78703 -0.0391,0.0485 -0.0965,0.20743 -0.12764,0.35295 -0.0311,0.14552 -0.25161,0.61517 -0.48989,1.04386 -0.23828,0.42871 -0.41214,0.90496 -0.38654,1.05834 0.11324,0.67859 -0.0629,1.18661 -0.34985,1.00924 -0.17205,-0.10633 -0.50769,0.0414 -0.74569,0.32814 -0.49862,0.60081 -1.19333,0.33199 -0.92811,-0.35915 0.23127,-0.6027 -0.6351,-0.93534 -1.13482,-0.43563 -0.54149,0.54149 -1.14076,-1.10756 -0.70486,-1.93942 0.1779,-0.33955 0.21349,-0.61701 0.0796,-0.61701 -0.13391,0 5.2e-4,-0.27799 0.29869,-0.61754 0.29816,-0.33954 0.66025,-1.01406 0.8046,-1.49913 0.14436,-0.48507 0.71872,-1.56499 1.27641,-2.39934 0.5577,-0.83433 1.01441,-1.63406 1.01441,-1.77715 0,-0.59699 3.45912,-3.59622 4.7625,-4.12946 l 1.41076,-0.57723 -1.49913,1.54409 c -2.17936,2.2451 -1.83641,2.28839 0.52917,0.0667 1.11566,-1.04782 2.22192,-1.8315 2.45824,-1.7415 0.23632,0.09 0.52354,0.0114 0.63821,-0.17415 0.11468,-0.18555 0.47703,-0.33208 0.80512,-0.32608 z m 4.65346,2.51613 c 0,-0.18825 -1.50847,1.13909 -3.35173,2.94969 -2.511,2.4665 -3.35122,3.51955 -3.35122,4.19923 0,0.49894 -0.14876,0.90692 -0.33073,0.90692 -0.18197,0 -0.33183,0.27798 -0.33383,0.61753 -0.002,0.33955 -0.11255,1.09378 -0.2465,1.67587 -0.13394,0.58208 -0.18248,0.97911 -0.10748,0.88211 0.075,-0.097 0.53347,-0.648 1.01854,-1.22421 0.48506,-0.57617 0.60413,-0.83455 0.26458,-0.57413 -0.93057,0.71371 -0.74079,-0.0792 0.23926,-0.99993 0.47105,-0.44253 0.76903,-1.03187 0.6625,-1.30949 -0.10653,-0.2776 0.0643,-0.78984 0.3793,-1.13791 0.31537,-0.34807 0.4529,-0.76432 0.30696,-0.92501 -0.14595,-0.1607 0.0106,-0.1933 0.34778,-0.0724 0.33723,0.12093 0.58387,0.10702 0.54777,-0.0315 -0.15349,-0.5888 0.50794,-1.83105 0.85938,-1.61385 0.22757,0.14063 0.28021,0.0716 0.13023,-0.17105 -0.13848,-0.22401 -0.10599,-0.40773 0.0723,-0.40773 0.4442,0 2.89285,-2.33964 2.89285,-2.76417 z m 8.59327,0.41599 c 0.0583,-0.0133 0.10157,-0.0106 0.12506,0.0129 0.0648,0.0648 0.024,0.36332 -0.091,0.66301 h -5.2e-4 c -0.22437,0.5847 -1.57096,1.09983 -1.57096,0.601 0,-0.28948 1.12919,-1.1837 1.53737,-1.27693 z m -16.15353,0.23151 c -0.097,0 -0.34629,0.31784 -0.55397,0.7059 -0.20721,0.38805 -0.29803,0.70539 -0.20103,0.70539 0.097,0 0.3463,-0.31734 0.55398,-0.70539 0.20722,-0.38806 0.29802,-0.7059 0.20102,-0.7059 z m 10.56318,0.16744 c -0.0592,0.0247 -0.0639,0.0897 -0.002,0.18965 0.11854,0.1918 0.3652,0.34881 0.54777,0.34881 0.50745,0 0.39515,-0.25278 -0.21601,-0.4873 -0.15698,-0.0602 -0.2705,-0.0759 -0.32969,-0.0512 z m -0.67386,0.70176 c -0.18871,0.0255 -0.43757,0.2041 -0.62942,0.47026 -0.2558,0.35489 -0.98639,1.0265 -1.62368,1.49241 -0.6373,0.46592 -1.24713,1.19823 -1.35495,1.62781 -0.10782,0.42959 -0.43774,0.87413 -0.73329,0.98754 -0.32317,0.12401 -0.46683,0.47525 -0.3607,0.88108 0.12355,0.47244 0.0293,0.61821 -0.31316,0.48679 -0.6091,-0.23372 -0.6363,0.29384 -0.0481,0.92759 0.29739,0.32039 0.30522,0.39854 0.0243,0.24082 -0.39535,-0.22197 -0.87982,0.24273 -1.05524,1.01234 -0.0442,0.19403 -0.18584,0.71014 -0.31522,1.1467 -0.16846,0.56841 -0.0892,0.79375 0.28008,0.79375 0.28361,0 0.81791,-0.35719 1.18753,-0.79375 0.67136,-0.79295 0.67161,-0.79296 -0.061,-0.17622 -1.10024,0.92625 -1.44768,0.74284 -0.50126,-0.26458 0.4557,-0.48507 0.71176,-0.88212 0.56947,-0.88212 -0.14228,0 -0.13229,-0.19826 0.0217,-0.4408 0.154,-0.24253 0.30198,-0.56038 0.32918,-0.7059 0.0272,-0.14553 0.0895,-0.3438 0.13797,-0.4408 0.0997,-0.19945 0.24281,-0.74113 0.30851,-1.16789 0.0242,-0.15744 0.36765,-0.63369 0.76326,-1.05833 0.39559,-0.42464 0.60969,-0.77256 0.47543,-0.77256 -0.34636,0 1.26719,-1.36424 2.42155,-2.04742 1.01698,-0.60188 1.19001,-0.94969 0.64131,-1.28881 -0.0452,-0.0279 -0.10143,-0.0364 -0.16433,-0.0279 z m 6.58926,0.67593 c 0.0371,-0.0371 0.0858,0.0122 0.14211,0.15296 0.10195,0.25466 0.0893,0.55871 -0.0279,0.67593 -0.11719,0.11722 -0.2003,-0.0911 -0.185,-0.46302 0.008,-0.20549 0.0337,-0.32878 0.0708,-0.36587 z m 12.57908,0.58498 c 0.0312,0.0438 -0.0689,0.18371 -0.28216,0.44596 -0.26452,0.32523 -0.59379,0.52209 -0.73122,0.43719 -0.29445,-0.18199 -1.43402,1.07131 -1.43402,1.57716 0,0.19185 -0.19826,0.30895 -0.4408,0.26045 -0.24253,-0.0485 -0.42118,0.17701 -0.39688,0.50075 0.0312,0.41501 -0.17184,0.5466 -0.68884,0.447 -0.40333,-0.0777 -1.12272,0.11365 -1.59835,0.42529 -0.73938,0.48452 -0.83537,0.48991 -0.66146,0.0367 0.11187,-0.29154 0.019,-0.71476 -0.20671,-0.94051 -0.31209,-0.31209 -0.28657,-0.48677 0.10646,-0.72967 0.33408,-0.20648 0.61195,-0.17014 0.78548,0.10284 0.17627,0.27726 0.27889,0.17999 0.29869,-0.28319 l 0.03,-0.7059 0.30334,0.7059 c 0.30018,0.69865 0.30303,0.69821 0.32763,-0.0176 0.022,-0.64262 1.36246,-1.43204 3.02359,-1.78077 0.19403,-0.0407 0.67028,-0.19828 1.05833,-0.35037 0.31291,-0.12263 0.4757,-0.17505 0.50695,-0.13125 z m -13.28291,0.0574 c 0.11986,0.0422 0.11137,0.23814 -0.0847,0.60461 -0.20165,0.37677 -0.26503,0.94926 -0.14108,1.27228 0.189,0.4925 0.40204,0.39708 1.32137,-0.5917 0.18643,-0.20052 0.31361,-0.30334 0.46973,-0.45475 l 0.19017,0.77463 c 0.107,0.43656 0.069,0.79375 -0.0842,0.79375 -0.15324,0 -0.35385,0.39206 -0.44545,0.87126 -0.0916,0.4792 -0.07,0.81221 0.0475,0.74001 0.11749,-0.0722 0.25438,0.42622 0.30438,1.10742 0.05,0.6812 0.17832,1.37986 0.28525,1.55288 0.33243,0.53788 0.38897,0.35338 0.22789,-0.74414 -0.0912,-0.62164 0.0797,-1.41802 0.41393,-1.92805 0.73571,-1.12284 0.72,-1.32266 -0.18707,-2.33887 l -0.74569,-0.83561 c 1.08379,-1.049 1.50224,-0.98302 1.50224,0.31988 0,0.66764 0.1584,1.31151 0.35243,1.43143 0.19403,0.11992 0.35295,-0.0425 0.35295,-0.36121 0,-0.31866 0.19826,-0.5142 0.4408,-0.4346 0.57219,0.18788 0.78507,2.00443 0.29249,2.497 -0.20919,0.2092 -0.39145,0.86446 -0.40515,1.45624 -0.0212,0.92045 -0.0688,0.97409 -0.32814,0.37052 -0.26419,-0.61481 -0.312,-0.56924 -0.37,0.35295 -0.0364,0.58209 -0.037,1.27279 -10e-4,1.53479 0.036,0.26197 -0.0791,0.38669 -0.2558,0.27751 -0.38332,-0.23692 -0.35136,1.17451 0.0408,1.8035 0.15825,0.25378 0.10763,0.4408 -0.11937,0.4408 -0.21707,0 -0.31701,0.12569 -0.22221,0.27906 0.19606,0.31722 -0.77941,2.50026 -1.40819,3.15123 -0.64171,0.66437 -0.8427,-2.68404 -0.22014,-3.66748 0.6364,-1.0053 0.45064,-3.46697 -0.26148,-3.46697 -0.73462,0 -0.90196,1.27631 -0.21756,1.65933 0.31098,0.17403 0.56318,0.5066 0.56018,0.73949 -0.003,0.2591 -0.1344,0.21966 -0.33797,-0.10232 -0.25147,-0.39776 -0.43215,-0.42723 -0.74001,-0.11937 -0.45372,0.45374 -0.11135,1.30052 0.39843,0.98547 0.17835,-0.11025 0.22984,0.0452 0.11472,0.34519 -0.11512,0.29998 -0.33516,0.46737 -0.48937,0.37207 -0.15421,-0.0953 -0.3373,0.54025 -0.4067,1.41232 -0.0694,0.87208 0.0335,1.65268 0.22893,1.73478 0.19539,0.0821 0.0584,0.16195 -0.30489,0.17725 -0.57533,0.0243 -0.59843,0.1048 -0.17674,0.62322 0.42307,0.5201 0.40763,0.56631 -0.12195,0.36793 -0.33334,-0.12487 -0.69974,-0.075 -0.81442,0.11059 -0.11468,0.18555 -0.0401,0.33745 0.16536,0.33745 0.20548,0 0.3736,0.2647 0.37362,0.58808 0,0.32342 -0.10324,0.4843 -0.22944,0.35811 -0.25844,-0.25844 -1.88722,1.37616 -1.88722,1.89394 0,0.18403 -0.19092,0.33487 -0.42375,0.33487 -0.32926,0 -0.32926,-0.094 0,-0.42323 0.23283,-0.23283 0.42375,-1.01364 0.42375,-1.73478 0,-0.72113 0.16852,-1.36739 0.37465,-1.43609 0.26228,-0.0873 0.2647,-0.4147 0.009,-1.08779 -0.23212,-0.61053 -0.23988,-0.96273 -0.0217,-0.96273 0.18923,0 0.34417,-0.24735 0.34417,-0.54984 0,-0.34606 -0.16382,-0.45197 -0.44132,-0.28525 -0.33631,0.20207 -0.34756,0.14461 -0.0475,-0.2434 0.21633,-0.27978 0.49738,-1.22338 0.62477,-2.09651 0.12738,-0.87312 0.32601,-2.06375 0.44131,-2.64583 0.11533,-0.58208 0.20819,-1.41553 0.20619,-1.85209 -0.002,-0.43657 0.13863,-0.79375 0.31213,-0.79375 0.1735,0 0.31522,-0.22484 0.31522,-0.49971 0,-0.27487 0.16763,-0.55553 0.37207,-0.62373 0.25339,-0.0845 0.26033,-0.40259 0.0222,-0.99942 -0.19214,-0.48164 -0.35925,-0.66792 -0.37155,-0.41393 -0.0123,0.25396 -0.18114,0.36383 -0.37517,0.24391 -0.19964,-0.12339 -0.35295,0.16872 -0.35295,0.67334 0,0.64763 -0.14482,0.83634 -0.52917,0.68885 -0.42042,-0.16133 -0.54376,0.14921 -0.59996,1.5105 -0.0393,0.9424 -0.0348,2.32062 0.009,3.06287 0.0471,0.79335 -0.0598,1.26283 -0.25941,1.13946 -0.43438,-0.26845 -0.87015,3.52649 -1.08108,9.417 -0.005,0.14549 -0.13387,0.22523 -0.28577,0.17673 -0.1519,-0.0485 -0.78172,0.42775 -1.39939,1.05833 -1.20205,1.2272 -2.02807,1.60961 -0.98341,0.45527 0.43431,-0.47995 0.55456,-0.9748 0.39326,-1.61747 -0.15107,-0.60195 -0.1037,-0.84611 0.13488,-0.69866 0.55216,0.34126 0.4414,-0.25721 -0.22325,-1.20613 -0.32458,-0.46341 -0.41207,-0.73248 -0.1943,-0.5979 0.48705,0.30102 0.69693,-0.9267 0.92088,-5.38313 0.0916,-1.82341 0.31763,-3.41108 0.50177,-3.52795 0.18415,-0.11687 0.44974,-1.05614 0.59015,-2.08721 0.27895,-2.04837 0.47229,-2.12343 0.89348,-0.34779 0.26942,1.13571 0.27553,1.12732 0.25374,-0.33848 -0.0142,-0.95935 0.19362,-1.72484 0.57464,-2.11666 0.32828,-0.33759 0.95831,-1.01097 1.39991,-1.49604 0.63921,-0.70213 1.19549,-1.05789 1.39527,-0.98753 z m 5.72058,0.047 c 0.31525,0 0.52916,0.32454 0.52916,0.80254 0,0.44128 -0.157,0.89896 -0.34881,1.01751 -0.19994,0.12359 -0.25897,-0.0178 -0.1385,-0.33177 0.11555,-0.30112 0.0339,-0.54725 -0.18086,-0.54725 -0.21479,0 -0.39016,-0.21207 -0.39016,-0.47077 0,-0.25871 0.23812,-0.47026 0.52917,-0.47026 z m -26.22373,1.11725 -0.74517,0.8816 c -0.40976,0.48507 -0.92488,1.19945 -1.14515,1.5875 -0.3367,0.59312 -0.32106,0.63987 0.0982,0.29197 0.27429,-0.22762 0.78993,-0.94199 1.14566,-1.5875 z m 7.34943,1.23455 c 0.0182,0.0182 -0.0881,0.16104 -0.30748,0.4408 -0.2663,0.33955 -0.54423,0.61753 -0.61753,0.61753 -0.29035,0 -0.10343,-0.28948 0.48421,-0.75034 0.27976,-0.21941 0.42259,-0.3262 0.4408,-0.30799 z m 8.60567,0.12144 c 0.18621,-0.0871 0.16884,0.12812 0.0103,0.78703 -0.3201,1.33063 -0.37471,1.37923 -0.59687,0.52968 -0.10268,-0.39265 0.0441,-0.89629 0.33022,-1.13378 0.10961,-0.091 0.19424,-0.1539 0.25631,-0.18293 z m 9.85935,1.19631 c 0.0321,-0.0546 0.0748,0.0881 0.13642,0.41496 0.12758,0.67691 0.23167,0.74923 0.50953,0.35295 0.23619,-0.33689 0.26859,0.18708 0.0997,1.6185 -0.13732,1.16416 -0.2636,2.39465 -0.2806,2.7342 -0.0413,0.82656 -0.19503,0.77731 -0.55397,-0.17673 -0.26248,-0.69765 -0.33829,-0.60156 -0.62891,0.79375 l -0.33073,1.5875 -0.18448,-1.1746 c -0.20806,-1.3259 0.4697,-4.81888 0.85938,-4.42919 0.1395,0.13949 0.27539,-0.28896 0.30179,-0.95188 0.0184,-0.46293 0.0397,-0.71489 0.0718,-0.76946 z m -4.99039,0.15348 c -0.0662,0.0113 -0.0687,0.20055 -0.0687,0.57825 0,0.42514 0.17536,0.77257 0.39015,0.77257 0.21476,0 0.29928,0.23812 0.18759,0.52916 -0.11168,0.29104 -0.0494,0.52917 0.13849,0.52917 0.50975,0 0.39213,-1.13846 -0.19844,-1.91926 -0.25307,-0.33461 -0.38285,-0.50117 -0.44906,-0.48989 z m -5.80688,0.12144 c 0.0697,0.0277 0.0904,0.16508 0.0884,0.42219 -0.003,0.3472 -0.13972,0.8428 -0.30386,1.10174 -0.23151,0.36522 -0.33684,0.32359 -0.47025,-0.18655 -0.0946,-0.36168 0.0422,-0.85781 0.30386,-1.10226 0.1938,-0.18103 0.31224,-0.2628 0.38189,-0.23512 z m -16.99793,0.52399 c -0.20319,0 -1.25316,1.95563 -1.25316,2.33423 0,0.36834 0.19162,0.10008 0.84646,-1.18753 0.3207,-0.63059 0.5037,-1.1467 0.4067,-1.1467 z m 8.55761,0 c 0.097,0 -0.11079,0.31734 -0.46198,0.70539 -0.35118,0.38806 -0.71794,0.7059 -0.81494,0.7059 -0.097,0 0.11081,-0.31784 0.46199,-0.7059 0.35119,-0.38805 0.71793,-0.70539 0.81493,-0.70539 z m -3.28403,0.17622 c -0.0151,-0.008 -0.0956,0.0495 -0.24185,0.17105 -0.2298,0.191 -0.4405,0.65971 -0.4687,1.0418 -0.0282,0.38209 0.0909,0.60683 0.2651,0.49919 0.1742,-0.10764 0.23927,-0.39817 0.14417,-0.64595 -0.0951,-0.24777 -0.0264,-0.62879 0.15245,-0.84646 0.11388,-0.13858 0.16387,-0.21175 0.14883,-0.21963 z m 9.88208,1.87689 c 0.0201,0.0208 0.0417,0.0728 0.0641,0.15865 0.0894,0.34324 0.0832,0.81949 -0.0134,1.05833 -0.0966,0.23884 -0.16926,-0.0422 -0.16226,-0.62425 0.005,-0.43656 0.0513,-0.65529 0.11162,-0.59273 z m -10.22263,0.55655 c -0.10751,0.0256 -0.24326,0.20105 -0.34262,0.46199 -0.19144,0.50278 -0.151,0.54323 0.19741,0.19741 0.24109,-0.2393 0.34943,-0.52391 0.24081,-0.63252 -0.0272,-0.0272 -0.0598,-0.0354 -0.0956,-0.0269 z m 2.55178,1.27073 c -0.1226,0 -0.58513,0.51611 -1.02733,1.1467 -0.44219,0.63062 -0.55711,0.94933 -0.2558,0.70848 0.30131,-0.24089 0.67755,-0.32005 0.83613,-0.17622 0.1586,0.14383 0.19597,0.003 0.0832,-0.31264 -0.11276,-0.31591 -0.027,-0.75281 0.19068,-0.97048 0.21764,-0.21767 0.29573,-0.39584 0.17312,-0.39584 z m -2.71973,0.35295 c -0.20547,0 -0.37362,0.15892 -0.37362,0.35295 0,0.19403 0.07,0.35243 0.15555,0.35243 0.0856,0 0.25371,-0.1584 0.37362,-0.35243 0.11992,-0.19403 0.0499,-0.35295 -0.15555,-0.35295 z m -6.40994,0.0532 c 0.04,0.0536 -0.009,0.2476 -0.12403,0.61134 -0.20683,0.65166 -0.15963,0.77167 0.21394,0.54673 0.40064,-0.24114 0.40022,-0.19113 -0.002,0.30489 -0.26452,0.32614 -0.61083,0.51297 -0.76947,0.41497 -0.15863,-0.098 -0.39089,-0.0134 -0.51573,0.18861 -0.12487,0.202 -0.0959,0.34458 0.0641,0.31678 0.15994,-0.028 0.5212,-0.0318 0.80254,-0.009 0.39787,0.0325 0.41711,0.13583 0.0879,0.46508 -0.23283,0.23284 -0.42107,0.59002 -0.41807,0.79375 0.003,0.20373 0.1597,0.13241 0.34779,-0.15864 0.29768,-0.4606 0.34226,-0.45507 0.34726,0.0439 v 5.2e-4 c 0.004,0.37517 -0.2944,0.57309 -0.86196,0.57309 -1.17282,0 -1.24954,-0.12679 -1.24954,-2.06654 0,-1.64584 0.42481,-2.46544 0.88884,-1.71462 0.15888,0.25705 0.40538,0.23201 0.78083,-0.0796 0.23895,-0.19831 0.36771,-0.28511 0.40773,-0.23151 z m 26.24335,0.0806 c -0.0371,0.0371 -0.0623,0.16038 -0.0708,0.36587 -0.0153,0.37192 0.0678,0.58024 0.185,0.46302 0.1172,-0.11722 0.1298,-0.42127 0.0279,-0.67593 -0.0563,-0.14071 -0.10501,-0.19005 -0.14211,-0.15296 z m -24.21712,0.75086 c 0.0776,0.0102 0.15211,0.0544 0.22789,0.13022 0.30311,0.30311 0.12131,0.66191 -0.72915,1.43867 -1.31317,1.19939 -1.42217,1.0239 -0.40256,-0.64853 0.40976,-0.67213 0.67103,-0.95087 0.90382,-0.92036 z m 11.50937,1.01544 c -0.0931,0.0175 -0.17643,0.0695 -0.22737,0.15193 -0.10189,0.16485 0.0456,0.29972 0.32814,0.29972 0.59484,0 0.64709,-0.1111 0.18552,-0.39636 -0.0903,-0.0558 -0.19319,-0.0728 -0.28629,-0.0553 z m -11.22102,0.35243 c 0.10457,0.0483 0.12755,0.30495 0.0538,0.7121 -0.0902,0.49746 -0.0262,0.9895 0.14211,1.09348 0.16825,0.104 0.28254,0.4969 0.25424,0.87281 -0.0283,0.37591 -0.12229,0.61204 -0.20929,0.52504 -0.087,-0.087 -0.37162,0.0185 -0.632,0.23461 -0.32332,0.26827 -0.47335,0.27428 -0.47335,0.0181 0,-0.20633 0.13044,-0.45588 0.2899,-0.55448 0.15945,-0.0986 0.24604,-0.73768 0.19224,-1.42059 -0.0538,-0.68292 0.0592,-1.33915 0.25114,-1.45779 0.0524,-0.0324 0.0964,-0.0393 0.13126,-0.0233 z m 20.04787,0.35037 c -0.0371,0.0371 -0.0623,0.16091 -0.0708,0.36639 h 5.1e-4 c -0.0153,0.37192 0.0678,0.58025 0.18501,0.46302 0.1172,-0.11722 0.12981,-0.42179 0.0279,-0.67645 -0.0563,-0.14071 -0.10553,-0.19005 -0.14263,-0.15296 z m -7.36905,0.36432 c -0.095,-0.009 -0.1215,0.27582 -0.12713,0.93121 -0.006,0.6888 -0.19753,1.43879 -0.42581,1.66708 -0.31825,0.3183 -0.23578,0.38055 0.35295,0.26717 0.82944,-0.15973 1.10554,0.67498 0.32711,0.98908 -0.34536,0.13938 -0.34321,0.18439 0.0109,0.20619 0.63807,0.0393 0.93893,-0.94699 0.46354,-1.5198 -0.21904,-0.26398 -0.30315,-0.72865 -0.18655,-1.0325 0.1166,-0.30385 0.0447,-0.83981 -0.15968,-1.19114 -0.11667,-0.20057 -0.19831,-0.31179 -0.25528,-0.31729 z m -1.54771,0.91312 c -0.0245,0.0113 0.067,0.13745 0.26045,0.38551 0.24089,0.30889 0.33334,0.66608 0.20567,0.79375 -0.12761,0.12767 -0.13547,0.23202 -0.0176,0.23202 0.54698,0 0.53948,-0.67372 -0.0124,-1.10639 -0.27097,-0.21241 -0.41165,-0.31615 -0.43615,-0.30489 z m -9.05475,0.46871 c 0.30017,-0.0469 0.57946,0.41128 0.41083,0.94257 -0.1128,0.3554 -0.0132,0.76486 0.22169,0.91003 0.28468,0.17595 0.35903,0.0872 0.22324,-0.26665 -0.11203,-0.29196 -0.0529,-0.7544 0.13126,-1.02785 0.25984,-0.38577 0.31183,-0.3408 0.23203,0.20051 -0.0609,0.41261 0.10129,0.70038 0.39687,0.70538 0.27487,0.004 0.55445,0.1715 0.62115,0.37155 0.17812,0.53439 -1.37482,0.55641 -2.07894,0.0295 -0.46058,-0.34468 -0.50667,-0.55114 -0.19378,-0.86403 0.31288,-0.31286 0.30501,-0.41083 -0.0331,-0.41083 -0.24427,0 -0.34459,-0.16144 -0.22272,-0.35863 0.089,-0.14393 0.1914,-0.21587 0.29145,-0.23151 z m -5.27306,0.007 c 0.1265,-0.0181 0.21549,0.0673 0.21549,0.22996 0,0.21689 0.15892,0.29613 0.35295,0.17622 0.19402,-0.11992 0.35295,-0.0596 0.35295,0.13384 0,0.19342 -0.31785,0.32747 -0.7059,0.29817 -0.75765,-0.0571 -0.92531,-0.4309 -0.35243,-0.78496 0.0485,-0.03 0.0948,-0.0472 0.13694,-0.0532 z m 10.79986,1.83865 c 0.43877,0.0128 0.52436,0.7122 0.0145,1.02733 -0.18552,0.11468 -0.24841,0.44079 -0.13953,0.7245 0.10887,0.28368 0.35806,0.41687 0.55345,0.29611 0.42323,-0.26157 0.96817,0.50442 0.97617,1.37045 h 5.2e-4 c 0.003,0.35686 -0.25551,0.61485 -0.61237,0.61185 -0.49415,-0.004 -0.51916,-0.0677 -0.12505,-0.31729 0.28077,-0.17777 0.39563,-0.56388 0.26716,-0.89865 -0.12391,-0.32291 -0.38745,-0.48704 -0.58601,-0.36432 -0.19853,0.12272 -0.25375,0.41062 -0.12247,0.63975 0.13124,0.22911 0.10252,0.29324 -0.0636,0.14211 -0.16607,-0.15114 -0.34696,-0.46898 -0.40256,-0.7059 -0.0556,-0.23692 -0.19788,-0.84467 -0.31575,-1.35082 -0.15288,-0.65649 -0.0533,-0.98183 0.34675,-1.13533 0.0764,-0.0293 0.14609,-0.0416 0.20878,-0.0398 z m -8.66046,0.29765 c 0.25142,0.018 0.56238,0.1097 0.71159,0.2589 0.10263,0.10261 -0.058,0.18656 -0.3576,0.18656 -0.29957,0 -0.61805,-0.11838 -0.70745,-0.26304 -0.0896,-0.14493 0.10204,-0.20045 0.35346,-0.18242 z m 4.97179,0.52245 c 0.20308,0.0516 0.36677,0.26154 0.42272,0.56948 0.0823,0.45339 0.0233,0.5551 -0.16485,0.2837 -0.19284,-0.2781 -0.47057,-0.31052 -0.81287,-0.094 -0.35144,0.22224 -0.37664,0.33035 -0.0785,0.33435 0.24254,0.003 0.4408,0.13751 0.4408,0.2992 0,0.16169 -0.23813,0.29404 -0.52917,0.29404 -0.29104,0 -0.53185,-0.2514 -0.53485,-0.55862 -0.004,-0.4408 -0.0678,-0.45884 -0.30334,-0.0873 -0.23103,0.36448 -0.33773,0.32038 -0.47232,-0.19431 -0.12872,-0.49222 0.0189,-0.66979 0.56844,-0.68419 0.40824,-0.0107 0.97053,-0.0821 1.25005,-0.15865 0.0739,-0.0203 0.14625,-0.0208 0.21394,-0.004 z m -3.58169,0.0403 c 0.0763,0 0.22989,0.23813 0.34158,0.52917 0.11168,0.29104 0.0494,0.52916 -0.13849,0.52916 -0.18794,0 -0.3421,-0.23812 -0.3421,-0.52916 0,-0.29104 0.0628,-0.52917 0.13901,-0.52917 z m 9.8578,0.13488 c 0.0953,0.002 0.10585,0.14075 0.0155,0.3762 -0.23452,0.61116 -0.48731,0.72294 -0.48731,0.21549 0,-0.18257 0.15701,-0.42871 0.34882,-0.54725 0.05,-0.0309 0.0912,-0.0452 0.12299,-0.0444 z m 0.44131,1.01699 c 0.19127,-0.0313 0.41414,0.0343 0.55966,0.17983 0.23513,0.23519 0.20675,0.44327 -0.0853,0.62374 -0.3008,0.18591 -0.34843,0.12592 -0.15244,-0.19121 0.18909,-0.30598 0.14748,-0.37696 -0.12299,-0.2098 -0.30047,0.18571 -0.30614,0.44317 -0.0217,0.97462 0.28853,0.53913 0.27531,0.82399 -0.0512,1.12499 -0.33143,0.30554 -0.37682,0.29655 -0.1881,-0.0377 0.13694,-0.24254 0.0809,-0.44132 -0.12454,-0.44132 -0.49188,0 -0.48368,-1.65405 0.01,-1.95905 0.0527,-0.0326 0.11297,-0.0537 0.17673,-0.0641 z m -5.39347,0.0579 c 0.0836,0.007 0.22866,0.13253 0.47491,0.37878 0.46883,0.46884 0.63725,0.49093 0.87643,0.11369 0.22501,-0.35493 0.29728,-0.31931 0.30128,0.14986 v 5.2e-4 c 0.003,0.33955 -0.11338,0.59869 -0.2589,0.57619 -1.0364,-0.1603 -1.49914,-0.43557 -1.49914,-0.89193 0,-0.22424 0.0219,-0.33458 0.10542,-0.32711 z m 11.282,0.33538 c -0.0371,0.0371 -0.0623,0.16038 -0.0708,0.36587 -0.0153,0.37192 0.0678,0.58024 0.18501,0.46302 0.1172,-0.11723 0.12981,-0.42127 0.0279,-0.67593 -0.0563,-0.14071 -0.10501,-0.19005 -0.14211,-0.15296 z m -3.6375,0.92449 c 0.18794,0 0.25018,0.23811 0.13849,0.52916 -0.11168,0.29104 -0.26528,0.52917 -0.34158,0.52917 -0.0763,0 -0.13849,-0.23813 -0.13849,-0.52917 0,-0.29105 0.15364,-0.52916 0.34158,-0.52916 z m 0.73742,1.41128 c 0.20547,0 0.27547,0.1584 0.15555,0.35243 -0.11991,0.19403 -0.0499,0.35295 0.15554,0.35295 0.20548,0 0.37362,0.15893 0.37362,0.35295 0,0.40142 -0.47196,0.46856 -0.8232,0.11731 -0.36967,-0.36966 -0.27469,-1.17564 0.13849,-1.17564 z" /></g></svg>
