<?xml version="1.0" encoding="UTF-8" standalone="no"?>
<svg version="1.1"
     width="256.29736"
     height="191.29893"
     viewBox="0 0 256.29737 191.29894"
     xmlns="http://www.w3.org/2000/svg">
    <g
            transform="translate(-143.54002,-159.65893)">
        <path
                style="fill:#FFFFFF"
                d="m 319.71821,348.03016 c -7.41564,-3.69537 -14.42554,-9.82948 -20.38989,-17.84244 l -3.47357,-4.66666 -5.65782,3.17734 c -11.36674,6.38339 -20.34599,6.04723 -28.29978,-1.05948 l -4.16065,-3.71755 -4.16362,5.45888 c -8.4889,11.12968 -18.21258,13.74345 -31.37293,8.43318 -8.71489,-3.51651 -13.3194,-10.72587 -13.35375,-20.90823 -0.0332,-9.82992 -0.9811,-9.97911 -12.00443,-1.88941 -17.73489,13.01511 -39.94125,23.73917 -42.94237,20.73805 -2.41642,-2.41642 12.34287,-28.52007 20.86335,-36.89945 18.36028,-18.05624 39.11412,-30.58381 50.77053,-30.64645 6.27606,-0.0337 17.35088,-5.44212 36.66667,-17.90617 1.41441,-0.91269 -0.3873,-1.31352 -6.15353,-1.36897 -6.25859,-0.0602 -8.95373,0.55104 -11.59668,2.62999 -22.16582,17.43563 -63.4456,14.06834 -94.03276,-7.67048 -9.5622,-6.79602 -9.45353,-7.29651 2.22399,-10.24207 18.12445,-4.57175 67.73186,0.95913 84.55981,9.42782 7.62965,3.83963 16.86499,4.5926 29.60375,2.41362 6.63414,-1.13478 15.66208,-2.68117 20.06208,-3.43643 11.96603,-2.05396 22.3331,-5.49908 20.34528,-6.76104 -2.90225,-1.84247 -9.41413,-1.20566 -16.94653,1.65722 -15.10568,5.74131 -46.36127,2.72302 -64.67804,-6.24583 -9.16158,-4.48599 -22.5423,-15.11447 -23.17691,-18.40972 -1.1767,-6.11012 5.7173,-6.13296 37.32523,-0.12368 22.66068,4.30824 25.5456,5.19322 39.13097,12.00388 9.15473,4.58947 16.42046,7.37309 19.33333,7.40692 2.56667,0.0298 7.36667,0.60941 10.66667,1.288 5.45511,1.12176 7.48798,0.67299 22.38473,-4.94156 l 16.38473,-6.17537 -4.16834,-4.30064 c -2.65479,-2.73904 -7.34141,-5.34228 -12.90699,-7.16933 -19.09388,-6.26808 -29.34281,-18.8365 -34.18076,-41.91638 -2.09976,-10.01708 -2.19769,-9.92824 7.67088,-6.95824 15.74048,4.73719 35.37511,28.46335 35.45313,42.84098 0.0243,4.46967 0.89734,6.24371 5.0855,10.33334 2.78092,2.71549 5.79182,4.93726 6.69089,4.93726 2.25681,0 26.30186,-12.16791 37.07378,-18.76106 9.10748,-5.57439 10.62338,-5.5763 11.39717,-0.0144 0.34711,2.49504 -0.30553,3.43178 -2.88472,4.14042 -8.40814,2.31014 -30.64066,14.78286 -33.74768,18.93286 -7.84447,10.47773 -8.73442,15.60144 -2.72378,15.68172 2.74325,0.0366 9.65419,9.18571 11.33277,15.00291 4.62274,16.02037 1.22831,31.98345 -8.97221,42.1939 -6.95875,6.96551 -7.34723,7.15635 -13.22033,6.49436 -13.58874,-1.53164 -20.75862,-10.2635 -21.71915,-26.45072 -1.14183,-19.24259 6.55596,-34.15994 19.40026,-37.59527 5.36839,-1.43582 6.30054,-2.32261 9.86618,-9.38611 4.5016,-8.91761 4.11256,-9.05474 -8.21606,-2.89601 -7.0085,3.50107 -32.51573,11.60152 -49.87548,15.83918 -11.11497,2.71325 -12.1583,3.24515 -12.53024,6.38798 -0.43122,3.64376 0.75775,5.12772 8.35681,10.4302 11.70611,8.16829 24.17042,32.71211 30.59638,60.24817 7.62366,32.66833 7.21523,34.6948 -5.69587,28.26093 z m -0.0542,-8.24331 c -0.80522,-0.26841 -1.46404,-1.07517 -1.46404,-1.79281 0,-0.71763 -1.43541,-4.41763 -3.18981,-8.22222 -1.7544,-3.80459 -4.44799,-10.3728 -5.98575,-14.59604 l -2.79594,-7.67861 4.81525,2.01195 c 6.00524,2.50914 7.24627,2.49945 3.90141,-0.0305 -2.52934,-1.91309 -2.52176,-1.95759 0.33334,-1.95759 1.708,0 2.9215,0.83073 2.9215,2 0,1.1 0.64768,2 1.43928,2 3.74959,0 -5.31014,-23.3767 -12.93429,-33.37414 -2.77912,-3.64423 -5.84849,-6.62586 -6.82081,-6.62586 -0.97233,0 -2.11323,-0.9 -2.53534,-2 -1.50214,-3.91452 -4.47005,-2.27275 -3.6155,2 1.37736,6.88681 -0.52448,4.37495 -3.53334,-4.66667 -3.29528,-9.90232 -4,-10.59318 -4,-3.92131 0,2.82405 0.53985,4.41172 1.33334,3.92131 0.7705,-0.47619 1.33333,0.7901 1.33333,2.99981 0,2.10311 0.88092,4.98852 1.9576,6.41202 1.07667,1.42349 1.97667,3.93817 2,5.58817 0.0233,1.65 0.6424,3 1.37573,3 0.73334,0 1.33334,0.86459 1.33334,1.92131 0,1.05672 0.70196,2.35515 1.55992,2.88539 1.06541,0.65847 1.27495,0.22148 0.66098,-1.37851 -2.05746,-5.36164 -2.45797,-8.76152 -1.03211,-8.76152 0.81283,0 1.47787,1.53541 1.47787,3.41202 0,1.87661 0.51982,3.09076 1.15514,2.69811 0.63533,-0.39265 2.22832,0.47194 3.53998,1.92131 2.15417,2.38032 2.1714,2.63522 0.1782,2.63522 -3.09708,0 -2.74459,2.13867 0.75669,4.59106 1.73845,1.21766 2.20417,2.07561 1.12669,2.07561 -2.77467,0 2.3891,5.32062 7.2433,7.46331 l 4,1.76564 -3.50403,0.0522 c -2.13635,0.0318 -4.36259,-1.11876 -5.70365,-2.94781 l -2.19962,-3 0.83528,3.13163 c 0.81598,3.05928 0.77593,3.07468 -1.73363,0.66667 -1.4129,-1.35573 -2.32698,-3.16535 -2.03128,-4.02138 0.29569,-0.85604 -0.42964,-3.25604 -1.61186,-5.33334 l -2.14949,-3.77691 0.60505,4.66667 c 0.33278,2.56666 1.37802,7.21354 2.32275,10.32639 1.3401,4.41559 1.36445,6.01297 0.11075,7.26667 -1.25369,1.25369 -1.64992,0.30265 -1.80247,-4.3264 -0.14258,-4.32647 -0.45746,-3.22513 -1.16272,4.06667 -0.82609,8.54114 -0.6035,10.58354 1.52577,14 3.36593,5.40073 8.75372,11.33333 10.29255,11.33333 0.69005,0 1.6,0.9 2.02211,2 0.4221,1.1 1.61283,2 2.64605,2 1.03323,0 2.70206,0.99901 3.70852,2.22002 1.66725,2.02268 1.87117,1.93765 2.29396,-0.95643 0.25522,-1.74705 -0.19478,-3.39606 -1,-3.66446 z m -12.1307,-5.59913 c -1.7092,-1.10457 -1.66073,-1.29547 0.33333,-1.31291 1.28333,-0.0112 2.33333,0.57958 2.33333,1.31291 0,1.62615 -0.15038,1.62615 -2.66666,0 z m 2.66666,-5.33333 c 0,-0.97778 0.4,-1.37778 0.88889,-0.88889 0.48889,0.48889 0.48889,1.28889 0,1.77778 -0.48889,0.48889 -0.88889,0.0889 -0.88889,-0.88889 z m -6.66666,-1.33333 c 0,-0.73334 0.6,-1.33334 1.33333,-1.33334 0.73333,0 1.33333,0.6 1.33333,1.33334 0,0.73333 -0.6,1.33333 -1.33333,1.33333 -0.73333,0 -1.33333,-0.6 -1.33333,-1.33333 z m -2.45614,-5.33334 c 0,-1.83333 0.30263,-2.58333 0.67251,-1.66666 0.36988,0.91666 0.36988,2.41666 0,3.33333 -0.36988,0.91667 -0.67251,0.16667 -0.67251,-1.66667 z m 9.97397,-30 c -0.42211,-1.1 -0.1863,-2 0.52401,-2 0.71032,0 1.29149,0.9 1.29149,2 0,1.1 -0.23581,2 -0.52401,2 -0.28821,0 -0.86938,-0.9 -1.29149,-2 z m -4.85117,0 c 0,-0.36666 0.3,-0.66666 0.66667,-0.66666 0.36667,0 0.66667,0.3 0.66667,0.66666 0,0.36667 -0.3,0.66667 -0.66667,0.66667 -0.36667,0 -0.66667,-0.3 -0.66667,-0.66667 z m -2.66666,-12 c 0,-0.36666 0.3,-0.66666 0.66666,-0.66666 0.36667,0 0.66667,0.3 0.66667,0.66666 0,0.36667 -0.3,0.66667 -0.66667,0.66667 -0.36666,0 -0.66666,-0.3 -0.66666,-0.66667 z m -2.22223,-2.88888 c 0.48889,-0.48889 1.28889,-0.48889 1.77778,0 0.48889,0.48888 0.0889,0.88888 -0.88889,0.88888 -0.97777,0 -1.37777,-0.4 -0.88889,-0.88888 z m 25.53921,59.22222 c -0.51967,-4.58334 -1.77858,-10.35661 -2.79759,-12.8295 -1.019,-2.47289 -1.85273,-5.62289 -1.85273,-7 0,-1.37711 -0.6,-2.50384 -1.33333,-2.50384 -0.73333,0 -1.33333,0.54383 -1.33333,1.20851 0,2.06851 -5.34637,-0.0748 -6.7558,-2.70839 -0.73592,-1.37506 -1.89809,-2.50012 -2.5826,-2.50012 -1.51866,0 -0.24721,3.89657 2.21064,6.77487 0.99013,1.15951 1.41306,2.49539 0.93983,2.96862 -0.47323,0.47322 0.12546,1.23873 1.33042,1.70111 1.20496,0.46239 2.19084,2.16183 2.19084,3.77655 0,1.61471 0.88092,4.10052 1.9576,5.52401 1.07667,1.4235 1.97667,3.39328 2,4.37729 0.0377,1.58958 5.32298,9.28235 6.50665,9.47045 0.25534,0.0406 0.0391,-3.67623 -0.4806,-8.25956 z m -7.48706,-11.2183 c -1.65931,-2.01147 -1.55022,-2.06925 1.17008,-0.61975 3.10261,1.65321 3.86657,2.83805 1.82992,2.83805 -0.64354,0 -1.99354,-0.99824 -3,-2.2183 z m -86.94106,11.99607 c -0.48889,-0.48889 -1.28889,-0.48889 -1.77778,0 -0.48889,0.48889 -0.0889,0.88889 0.88889,0.88889 0.97778,0 1.37778,-0.4 0.88889,-0.88889 z m 2,-3.03959 c 0.24444,-0.694 3.33245,-1.40808 6.86225,-1.58685 7.6436,-0.38713 13.46282,-5.8215 15.12295,-14.12283 1.25313,-6.26618 1.15191,-5.89732 2.392,-8.71675 1.26665,-2.87982 -0.30833,-16.64113 -2.02607,-17.70276 -0.68201,-0.4215 -1.24002,-1.87763 -1.24002,-3.23582 0,-6.50054 -15.1375,-13.41138 -23.40192,-10.68387 -5.10167,1.6837 -17.00715,14.32151 -15.98961,16.97316 0.35264,0.91898 0.13279,1.67087 -0.48856,1.67087 -1.11004,0 -3.06112,4.23492 -4.84535,10.51709 -0.8129,2.86215 -0.55662,3.11731 2.53692,2.52595 1.89263,-0.3618 3.15557,-0.19574 2.80653,0.36902 -0.34904,0.56477 0.11911,1.33072 1.04035,1.70213 0.92123,0.37141 -0.33922,0.72265 -2.80101,0.78055 -3.73223,0.0878 -4.31193,0.49298 -3.48865,2.43859 0.54304,1.28334 0.93379,3.52577 0.86834,4.98319 -0.0742,1.65248 0.25022,2.05246 0.86194,1.06267 0.53951,-0.87295 3.66295,-1.93469 6.94098,-2.35941 l 5.96004,-0.77222 -6,2.54917 c -4.06374,1.72653 -6,3.35392 -6,5.04289 0,2.57664 2.05668,2.91625 6.55206,1.08191 1.70692,-0.69651 2.2561,-0.5625 1.65836,0.40467 -0.49154,0.79532 -0.43996,1.69895 0.11461,2.00806 0.55456,0.30911 0.29816,0.39448 -0.56979,0.18972 -0.86794,-0.20477 -1.49026,0.79357 -1.38292,2.21852 0.20469,2.71742 4.17685,3.60499 5.62768,1.2575 0.45322,-0.73333 1.83863,-1.32415 3.07869,-1.31292 1.82117,0.0165 1.89701,0.24688 0.39445,1.1983 -1.49464,0.94641 -1.36364,1.30503 0.66666,1.82491 4.0471,1.03631 4.2818,1.02122 4.74909,-0.30544 z m -0.47222,-3.649 c 0.9625,-0.38516 2.1125,-0.3378 2.55555,0.10526 0.44306,0.44306 -0.34444,0.75819 -1.75,0.70029 -1.55326,-0.064 -1.8692,-0.37992 -0.80555,-0.80555 z m -7.75,-1.75585 c 0,-0.73333 1.65,-1.32415 3.66666,-1.31292 2.85725,0.0159 3.22517,0.30574 1.66667,1.31292 -2.60871,1.68588 -5.33333,1.68588 -5.33333,0 z m 19.11111,0.44444 c 0.48889,-0.48889 1.28889,-0.48889 1.77777,0 0.48889,0.48889 0.0889,0.88889 -0.88888,0.88889 -0.97778,0 -1.37778,-0.4 -0.88889,-0.88889 z m -11.11111,-1.77777 c 0,-0.73334 0.56459,-1.33334 1.25464,-1.33334 0.69005,0 1.62546,0.6 2.07869,1.33334 0.45322,0.73333 -0.11137,1.33333 -1.25464,1.33333 -1.14328,0 -2.07869,-0.6 -2.07869,-1.33333 z m -18.66667,-1.42375 c 0,-1.255 6.39306,-3.29431 7.34454,-2.34283 0.30453,0.30453 -1.22342,1.22447 -3.39543,2.04431 -2.17201,0.81985 -3.94911,0.95418 -3.94911,0.29852 z m 34.66667,-0.57625 c 0,-0.36667 0.3,-0.66667 0.66666,-0.66667 0.36667,0 0.66667,0.3 0.66667,0.66667 0,0.36666 -0.3,0.66666 -0.66667,0.66666 -0.36666,0 -0.66666,-0.3 -0.66666,-0.66666 z m -12.66667,-2 c 0.45322,-0.73334 1.38863,-1.33334 2.07869,-1.33334 0.69005,0 1.25464,0.6 1.25464,1.33334 0,0.73333 -0.93541,1.33333 -2.07869,1.33333 -1.14328,0 -1.70787,-0.6 -1.25464,-1.33333 z m 15.33333,-4.66667 c 0,-0.36667 0.3,-0.66667 0.66667,-0.66667 0.36667,0 0.66667,0.3 0.66667,0.66667 0,0.36667 -0.3,0.66667 -0.66667,0.66667 -0.36667,0 -0.66667,-0.3 -0.66667,-0.66667 z m -32.88889,-4.22222 c 0.48889,-0.48889 1.28889,-0.48889 1.77778,0 0.48889,0.48889 0.0889,0.88889 -0.88889,0.88889 -0.97777,0 -1.37777,-0.4 -0.88889,-0.88889 z m 0.88889,-6.44445 c 0,-0.36666 0.3,-0.66666 0.66667,-0.66666 0.36667,0 0.66667,0.3 0.66667,0.66666 0,0.36667 -0.3,0.66667 -0.66667,0.66667 -0.36667,0 -0.66667,-0.3 -0.66667,-0.66667 z m 33.33334,-1.33333 c 0,-0.36667 0.3,-0.66667 0.66666,-0.66667 0.36667,0 0.66667,0.3 0.66667,0.66667 0,0.36667 -0.3,0.66667 -0.66667,0.66667 -0.36666,0 -0.66666,-0.3 -0.66666,-0.66667 z m -10.66667,-1.33333 c 0,-0.36667 0.3,-0.66667 0.66667,-0.66667 0.36666,0 0.66666,0.3 0.66666,0.66667 0,0.36666 -0.3,0.66666 -0.66666,0.66666 -0.36667,0 -0.66667,-0.3 -0.66667,-0.66666 z m -25.33333,-5.33334 c 0,-0.36666 0.3,-0.66666 0.66666,-0.66666 0.36667,0 0.66667,0.3 0.66667,0.66666 0,0.36667 -0.3,0.66667 -0.66667,0.66667 -0.36666,0 -0.66666,-0.3 -0.66666,-0.66667 z m 25.33333,-2.66666 c 0,-0.36667 0.3,-0.66667 0.66667,-0.66667 0.36666,0 0.66666,0.3 0.66666,0.66667 0,0.36666 -0.3,0.66666 -0.66666,0.66666 -0.36667,0 -0.66667,-0.3 -0.66667,-0.66666 z m 9.33333,-0.66667 c 0,-0.97778 0.4,-1.37778 0.88889,-0.88889 0.48889,0.48889 0.48889,1.28889 0,1.77778 -0.48889,0.48889 -0.88889,0.0889 -0.88889,-0.88889 z m -31.55555,-2.22222 c 0.48889,-0.48889 1.28889,-0.48889 1.77778,0 0.48888,0.48889 0.0889,0.88889 -0.88889,0.88889 -0.97778,0 -1.37778,-0.4 -0.88889,-0.88889 z m 20.88889,-3.77778 c 0,-0.36667 0.3,-0.66667 0.66666,-0.66667 0.36667,0 0.66667,0.3 0.66667,0.66667 0,0.36667 -0.3,0.66667 -0.66667,0.66667 -0.36666,0 -0.66666,-0.3 -0.66666,-0.66667 z m -83.33333,40.66667 c 0.45322,-0.73334 0.52404,-1.33334 0.15737,-1.33334 -0.36666,0 -1.03748,0.6 -1.49071,1.33334 -0.45322,0.73333 -0.52404,1.33333 -0.15738,1.33333 0.36667,0 1.03749,-0.6 1.49072,-1.33333 z m 57.99999,-0.66667 c 0,-0.36667 -0.3,-0.66667 -0.66666,-0.66667 -0.36667,0 -0.66667,0.3 -0.66667,0.66667 0,0.36667 0.3,0.66667 0.66667,0.66667 0.36666,0 0.66666,-0.3 0.66666,-0.66667 z m 57.18173,-2.484 c 1.22041,-1.47049 0.87283,-1.69586 -1.8212,-1.18087 -1.8312,0.35006 -3.00103,1.16786 -2.59963,1.81733 1.04657,1.6934 2.68271,1.45785 4.42083,-0.63646 z m 13.18484,-0.85493 c 6.85668,-4.18052 9.92076,-14.0731 8.10485,-26.16706 -1.14271,-7.61044 -1.87484,-9.85541 -6.11675,-18.75616 -2.63246,-5.52365 -8.4986,-11.02613 -9.31535,-8.73785 -0.32718,0.91667 -1.78773,1.66667 -3.24567,1.66667 -2.91404,0 -6.81948,-3.19639 -5.50793,-4.50794 0.45396,-0.45397 -0.32461,-0.82315 -1.73016,-0.82041 -3.51781,0.007 -10.73608,4.59528 -12.54433,7.97403 -1.57833,2.94914 -0.68552,8.02098 1.41196,8.02098 0.68391,0 1.09348,0.72198 0.91015,1.6044 -0.18334,0.88241 0.56666,1.69102 1.66666,1.79691 5.50616,0.53003 5.92601,0.79751 3.06189,1.95068 -2.68963,1.08291 -2.87441,1.83695 -2.18481,8.91549 0.41432,4.25289 1.43647,8.17334 2.27145,8.71211 1.07281,0.69223 1.00616,0.98557 -0.22722,1 -0.95994,0.0112 -1.37453,0.62041 -0.92131,1.35375 0.45323,0.73333 0.18864,1.33333 -0.58798,1.33333 -0.77661,0 -1.41202,0.97347 -1.41202,2.16326 0,1.68649 0.4049,1.82723 1.83715,0.63857 1.44858,-1.20222 1.99576,-0.91812 2.58712,1.34324 0.50227,1.92066 1.43686,2.60437 2.82952,2.06995 2.44593,-0.93859 2.48022,-0.77582 0.77921,3.69818 -1.45107,3.81661 -0.62107,4.33452 2.52868,1.57784 3.54094,-3.09904 8.10499,-3.98927 8.10499,-1.58089 0,1.14942 -0.54383,2.08985 -1.20851,2.08985 -0.66468,0 -0.8947,1.2 -0.51116,2.66667 0.8838,3.37963 3.87018,3.37786 9.41957,-0.006 z m -7.45252,-0.96092 c 0.59891,-3.10993 6.64681,-6.15605 7.97041,-4.01443 1.10539,1.78857 -1.30437,5.29083 -2.9434,4.27785 -0.59957,-0.37056 -1.467,-0.064 -1.92762,0.68135 -1.36819,2.21377 -3.57795,1.54019 -3.09939,-0.94477 z m 9.5304,-6.58904 c 0.48888,-0.48889 1.28888,-0.48889 1.77777,0 0.48889,0.48889 0.0889,0.88889 -0.88889,0.88889 -0.97777,0 -1.37777,-0.4 -0.88888,-0.88889 z m -20.44445,-3.77778 c 0,-0.36666 0.3,-0.66666 0.66667,-0.66666 0.36666,0 0.66666,0.3 0.66666,0.66666 0,0.36667 -0.3,0.66667 -0.66666,0.66667 -0.36667,0 -0.66667,-0.3 -0.66667,-0.66667 z m 20,-6.66666 c 0,-0.36667 0.3,-0.66667 0.66667,-0.66667 0.36666,0 0.66666,0.3 0.66666,0.66667 0,0.36666 -0.3,0.66666 -0.66666,0.66666 -0.36667,0 -0.66667,-0.3 -0.66667,-0.66666 z m -5.33333,-2.66667 c 0,-0.36667 0.3,-0.66667 0.66666,-0.66667 0.36667,0 0.66667,0.3 0.66667,0.66667 0,0.36667 -0.3,0.66667 -0.66667,0.66667 -0.36666,0 -0.66666,-0.3 -0.66666,-0.66667 z m -0.88889,-4.22222 c 0.48889,-0.48889 1.28889,-0.48889 1.77778,0 0.48889,0.48889 0.0889,0.88889 -0.88889,0.88889 -0.97778,0 -1.37778,-0.4 -0.88889,-0.88889 z m -7.54754,-14.09238 c -1.38167,-1.45076 -3.33926,-2.2118 -4.52192,-1.75797 -1.73332,0.66514 -1.80092,0.45738 -0.40032,-1.23024 1.9517,-2.35165 1.4185,-2.4942 -3.01897,-0.80708 -4.12701,1.56909 -9.15656,-2.93415 -5.18727,-4.64445 3.68765,-1.58896 12.77355,-1.78905 14.5433,-0.32028 0.90987,0.75512 2.49404,1.05072 3.52038,0.65688 1.31917,-0.50622 1.66782,0.042 1.18962,1.87065 -0.51426,1.96654 -0.1584,2.38793 1.48425,1.75759 1.18838,-0.45603 2.16069,-0.43373 2.16069,0.0495 0,0.48327 -1.85782,1.52632 -4.1285,2.31788 -2.66432,0.92879 -3.55957,1.79082 -2.52431,2.43064 0.8823,0.54529 1.09012,1.27126 0.46183,1.61327 -0.62829,0.34201 -2.23874,-0.52939 -3.57878,-1.93643 z m 0.43643,-5.6854 c 0,-0.36667 -0.3,-0.66667 -0.66667,-0.66667 -0.36667,0 -0.66667,0.3 -0.66667,0.66667 0,0.36667 0.3,0.66667 0.66667,0.66667 0.36667,0 0.66667,-0.3 0.66667,-0.66667 z m 5.33333,-6 c 0,-0.97778 0.4,-1.37778 0.88889,-0.88889 0.48889,0.48889 0.48889,1.28889 0,1.77778 -0.48889,0.48889 -0.88889,0.0889 -0.88889,-0.88889 z m -15.31989,-2.68841 c 0.46062,-0.7453 1.39603,-1.00989 2.07869,-0.58798 1.84939,1.14298 1.50455,1.94306 -0.83749,1.94306 -1.14328,0 -1.70182,-0.60979 -1.2412,-1.35508 z m -94.45788,53.79952 c -0.48889,-0.48889 -1.28889,-0.48889 -1.77778,0 -0.48889,0.48889 -0.0889,0.88889 0.88889,0.88889 0.97778,0 1.37778,-0.4 0.88889,-0.88889 z m 94.74999,-2.58333 c -0.44305,-0.44306 -1.59305,-0.49043 -2.55555,-0.10527 -1.06364,0.42564 -0.7477,0.74158 0.80555,0.80556 1.40556,0.0579 2.19306,-0.25724 1.75,-0.70029 z m -84.97222,-4.52778 c 0,-0.73333 -0.26459,-1.33333 -0.58797,-1.33333 -0.32339,0 -0.9588,0.6 -1.41203,1.33333 -0.45322,0.73333 -0.18863,1.33333 0.58798,1.33333 0.77661,0 1.41202,-0.6 1.41202,-1.33333 z m 3.33334,0 c 0.45322,-0.73333 0.52404,-1.33333 0.15738,-1.33333 -0.36667,0 -1.03749,0.6 -1.49072,1.33333 -0.45322,0.73333 -0.52404,1.33333 -0.15737,1.33333 0.36666,0 1.03748,-0.6 1.49071,-1.33333 z m 78,-1.41202 c 0,-0.69006 -0.6,-1.25465 -1.33334,-1.25465 -0.73333,0 -1.33333,0.93541 -1.33333,2.07869 0,1.14328 0.6,1.70787 1.33333,1.25465 0.73334,-0.45323 1.33334,-1.38864 1.33334,-2.07869 z m -94.70528,0.13077 c 1.07876,-0.68223 1.55464,-1.64717 1.0575,-2.1443 -1.22012,-1.22013 -5.01889,0.33179 -5.01889,2.05037 0,1.69347 1.38039,1.7262 3.96139,0.0939 z m 10.70528,-5.5428 c 0,-0.73333 -0.6,-0.96251 -1.33334,-0.50928 -0.73333,0.45322 -1.33333,1.42404 -1.33333,2.15737 0,0.73334 0.6,0.96252 1.33333,0.50929 0.73334,-0.45322 1.33334,-1.42404 1.33334,-2.15738 z m 5.88741,-1.50928 c 1.04228,-2.38334 1.944,-3.58334 2.00382,-2.66667 0.18188,2.78706 2.43691,1.86137 3.24805,-1.33333 0.8791,-3.46243 6.20797,-7.50029 6.17363,-4.67797 -0.0283,2.32506 -2.03443,5.27097 -3.46198,5.08373 -0.65135,-0.0854 -1.37412,1.36332 -1.60616,3.21945 -0.31943,2.55512 0.16633,3.34922 2,3.26952 1.39999,-0.0608 1.71865,-0.38902 0.75523,-0.77777 -0.91667,-0.36989 -1.66667,-1.16325 -1.66667,-1.76304 0,-1.45279 9.46828,-7.06359 11.98413,-7.10167 3.6715,-0.0556 6.52005,-4.68052 7.50871,-12.19126 0.28517,-2.16645 1.08238,-4.50288 1.77156,-5.19206 0.78187,-0.78187 0.97782,-0.0527 0.5211,1.939 -0.69348,3.02421 -0.54838,2.98172 2.75923,-0.80793 4.85185,-5.55896 6.57078,-8.66667 4.79367,-8.66667 -0.78215,0 -1.78676,0.95031 -2.23246,2.11179 -0.51008,1.32924 -1.13569,1.58543 -1.68825,0.69136 -0.52583,-0.8508 -6.4668,2.90095 -14.81445,9.3554 -17.26324,13.34804 -19.54632,15.57684 -20.66605,20.17478 -1.21995,5.00945 0.30443,4.62111 2.61689,-0.66666 z m 19.44592,-8.39955 c 0,-1.81841 4.19724,-8.60045 5.32261,-8.60045 0.68977,0 0.0151,2.1 -1.49928,4.66666 -2.57874,4.37064 -3.82333,5.65119 -3.82333,3.93379 z m -6.66667,-1.93379 c 0,-0.97777 0.4,-1.37777 0.88889,-0.88889 0.48889,0.48889 0.48889,1.28889 0,1.77778 -0.48889,0.48889 -0.88889,0.0889 -0.88889,-0.88889 z m 4,-4.66666 c 0,-0.36667 0.3,-0.66667 0.66667,-0.66667 0.36667,0 0.66667,0.3 0.66667,0.66667 0,0.36666 -0.3,0.66666 -0.66667,0.66666 -0.36667,0 -0.66667,-0.3 -0.66667,-0.66666 z m -26.48438,14.28298 c -0.96192,-0.32064 -2.38288,0.051 -3.15768,0.82575 -0.98943,0.98942 -0.46885,1.16295 1.74894,0.58298 1.80294,-0.47148 2.40733,-1.07587 1.40874,-1.40873 z m 142.03994,1.49479 c -0.48889,-0.48889 -1.28889,-0.48889 -1.77778,0 -0.48889,0.48889 -0.0889,0.88889 0.88889,0.88889 0.97777,0 1.37777,-0.4 0.88889,-0.88889 z m -118.22222,-2.44444 c 0,-0.36667 -0.3,-0.66667 -0.66667,-0.66667 -0.36667,0 -0.66667,0.3 -0.66667,0.66667 0,0.36667 0.3,0.66667 0.66667,0.66667 0.36667,0 0.66667,-0.3 0.66667,-0.66667 z m -28,-2.66667 c 0,-0.36666 -0.3,-0.66666 -0.66667,-0.66666 -0.36667,0 -0.66667,0.3 -0.66667,0.66666 0,0.36667 0.3,0.66667 0.66667,0.66667 0.36667,0 0.66667,-0.3 0.66667,-0.66667 z m 5.0239,-4.66666 c 0.91595,-1.46667 1.45327,-2.66667 1.19405,-2.66667 -0.25923,0 -1.5573,1.2 -2.88462,2.66667 -1.32731,1.46666 -1.86463,2.66666 -1.19404,2.66666 0.67059,0 1.96866,-1.2 2.88461,-2.66666 z m 5.28165,1.86111 c -0.44305,-0.44306 -1.59305,-0.49043 -2.55555,-0.10527 -1.06365,0.42564 -0.7477,0.74158 0.80555,0.80556 1.40556,0.0579 2.19306,-0.25724 1.75,-0.70029 z m 5.33334,-2.66667 c -0.44306,-0.44305 -1.59306,-0.49042 -2.55556,-0.10526 -1.06364,0.42563 -0.7477,0.74157 0.80556,0.80555 1.40555,0.0579 2.19305,-0.25723 1.75,-0.70029 z m -2.30556,-5.86111 c 1.83333,-1.43405 2.91157,-2.62071 2.39607,-2.63702 -1.89374,-0.0599 -7.7294,3.09928 -7.7294,4.18437 0,1.77143 1.73348,1.2685 5.33333,-1.54735 z m 7.63889,1.86111 c -0.44306,-0.44305 -1.59306,-0.49042 -2.55556,-0.10526 -1.06364,0.42563 -0.7477,0.74157 0.80556,0.80555 1.40556,0.0579 2.19306,-0.25723 1.75,-0.70029 z m 155.02777,0.28154 c 0,-0.28821 -0.9,-0.86938 -2,-1.29149 -1.1,-0.4221 -2,-0.1863 -2,0.52402 0,0.71032 0.9,1.29149 2,1.29149 1.1,0 2,-0.23581 2,-0.52402 z m 3.55556,-0.36487 c -0.48889,-0.48889 -1.28889,-0.48889 -1.77778,0 -0.48889,0.48889 -0.0889,0.88889 0.88889,0.88889 0.97778,0 1.37778,-0.4 0.88889,-0.88889 z m -154.22222,-2.44445 c 0,-0.36666 -0.3,-0.66666 -0.66667,-0.66666 -0.36666,0 -0.66666,0.3 -0.66666,0.66666 0,0.36667 0.3,0.66667 0.66666,0.66667 0.36667,0 0.66667,-0.3 0.66667,-0.66667 z m 165.33333,-1.33333 c 0.92591,-1.11565 1.07029,-2 0.32652,-2 -0.73334,0 -2.08027,0.9 -2.99319,2 -0.92591,1.11565 -1.07029,2 -0.32652,2 0.73334,0 2.08027,-0.9 2.99319,-2 z m -172,-1.33333 c 0,-0.36667 -0.3,-0.66667 -0.66666,-0.66667 -0.36667,0 -0.66667,0.3 -0.66667,0.66667 0,0.36666 0.3,0.66666 0.66667,0.66666 0.36666,0 0.66666,-0.3 0.66666,-0.66666 z m 8.88889,-0.22223 c -0.48889,-0.48888 -1.28889,-0.48888 -1.77777,0 -0.48889,0.48889 -0.0889,0.88889 0.88888,0.88889 0.97778,0 1.37778,-0.4 0.88889,-0.88889 z m 145.77778,0.22223 c 0,-0.36667 -0.3,-0.66667 -0.66667,-0.66667 -0.36667,0 -0.66667,0.3 -0.66667,0.66667 0,0.36666 0.3,0.66666 0.66667,0.66666 0.36667,0 0.66667,-0.3 0.66667,-0.66666 z m 12.38633,-2 c -0.38354,-1.46667 -0.14205,-2.66667 0.53665,-2.66667 0.6787,0 2.39868,-0.94088 3.82218,-2.09084 2.47151,-1.9966 2.41804,-2.05433 -1.18637,-1.28086 -3.13333,0.67239 -3.69537,0.40469 -3.3085,-1.57582 0.26032,-1.33264 1.63223,-2.38581 3.10787,-2.38581 1.45301,0 3.39183,-0.48541 4.3085,-1.07869 2.32034,-1.50176 2.08873,-4.92131 -0.33333,-4.92131 -2.76989,0 -2.51715,-2.33599 0.33333,-3.0809 1.28333,-0.33537 0.38333,-0.67937 -2,-0.76443 -2.38333,-0.0851 -4.33333,-0.57184 -4.33333,-1.08171 0,-2.10577 7.11287,-8.15138 8.81975,-7.49639 1.21353,0.46568 1.84691,-0.2547 1.84691,-2.10059 0,-1.54512 -0.45,-2.80013 -1,-2.7889 -1.77068,0.0361 -4.5677,2.24216 -4.34721,3.42866 0.11764,0.63301 -0.3503,1.33899 -1.03986,1.56884 -0.68956,0.22985 -1.17329,-0.95515 -1.07496,-2.63333 0.11816,-2.01656 0.96154,-2.98845 2.48708,-2.86607 1.59633,0.12807 2.30829,-0.79723 2.30829,-3 0,-3.266 -0.93138,-3.76738 -4.47343,-2.40817 -1.11367,0.42736 -1.69855,1.62736 -1.29973,2.66667 0.39882,1.03931 0.0255,1.88965 -0.82955,1.88965 -0.85507,0 -1.18385,-0.6 -0.73063,-1.33333 0.45323,-0.73334 0.24481,-1.33334 -0.46315,-1.33334 -0.70795,0 -0.97339,-1.19999 -0.58984,-2.66666 0.47038,-1.79875 1.84012,-2.68047 4.2085,-2.70907 3.03246,-0.0366 3.22253,-0.26385 1.39413,-1.66667 -1.16436,-0.89334 -1.889,-2.30034 -1.61031,-3.12665 0.27869,-0.82632 -0.41865,-1.85749 -1.54964,-2.29149 -1.4105,-0.54126 -2.05635,0.0106 -2.05635,1.75704 0,3.51092 -2.0433,4.44873 -5.28371,2.42507 -3.42228,-2.13726 -7.08099,-0.15375 -7.38737,4.00494 -0.11755,1.59568 -1.36465,4.21174 -2.77133,5.81346 -2.52751,2.87796 -2.52623,2.90167 0.10908,2.01618 2.39397,-0.8044 2.4405,-0.71932 0.455,0.83194 -1.21641,0.95038 -2.41641,2.90185 -2.66667,4.3366 -0.25025,1.43476 -1.355,3.33957 -2.455,4.23291 -1.77778,1.44379 -1.77778,1.63124 0,1.68708 1.31946,0.0414 1.49404,0.39615 0.51304,1.04241 -2.59201,1.70757 -3.70647,7.09803 -1.27455,6.16481 1.14374,-0.43889 1.74756,-1.33512 1.34183,-1.99161 -0.40574,-0.65649 0.69771,-1.19362 2.4521,-1.19362 1.94649,0 3.1898,0.77956 3.1898,2 0,1.1 -0.62,2 -1.37778,2 -0.82469,0 -0.73548,0.64229 0.22223,1.6 2.50204,2.50205 1.95015,3.41097 -3.07895,5.07072 -2.88032,0.95059 -4.32411,2.11832 -3.75589,3.03773 0.67215,1.08756 1.0643,1.06983 1.44266,-0.0652 0.28577,-0.85733 2.57067,-1.94357 5.07755,-2.41386 2.50688,-0.4703 4.2278,-1.38929 3.82427,-2.04222 -0.40353,-0.65292 -0.0983,-1.18713 0.67833,-1.18713 0.77662,0 1.41203,1.24043 1.41203,2.75652 0,2.10939 0.59969,2.56618 2.55445,1.94576 3.15826,-1.00239 5.1227,1.66032 2.08493,2.82602 -1.75555,0.67367 -1.8394,1.06905 -0.41785,1.97017 1.43973,0.91264 1.44603,1.13125 0.0331,1.14778 -0.95995,0.0112 -1.37454,0.62042 -0.92131,1.35375 1.62236,2.62504 5.79987,1.52273 5.053,-1.33333 z m 0.947,-15.33334 c 0,-0.36666 0.3,-0.66666 0.66666,-0.66666 0.36667,0 0.66667,0.3 0.66667,0.66666 0,0.36667 -0.3,0.66667 -0.66667,0.66667 -0.36666,0 -0.66666,-0.3 -0.66666,-0.66667 z m -6.66667,-22.66666 c 0,-0.36667 0.3,-0.66667 0.66667,-0.66667 0.36667,0 0.66667,0.3 0.66667,0.66667 0,0.36666 -0.3,0.66666 -0.66667,0.66666 -0.36667,0 -0.66667,-0.3 -0.66667,-0.66666 z m -2.91666,-4.24415 c 0.9625,-0.38516 2.1125,-0.3378 2.55555,0.10526 0.44306,0.44306 -0.34444,0.75819 -1.75,0.70029 -1.55326,-0.064 -1.8692,-0.37992 -0.80555,-0.80555 z m -11.75,42.9895 c 0,-0.32338 -0.69271,-1.01609 -1.53935,-1.53934 -0.95373,-0.58944 -1.17742,-0.36576 -0.58798,0.58798 0.94992,1.537 2.12733,2.06355 2.12733,0.95136 z M 190.9019,289.11189 c -0.41052,-0.41051 -1.4864,-8.4e-4 -2.39084,0.91038 -1.30702,1.31682 -1.15387,1.46998 0.74639,0.7464 1.31496,-0.50071 2.05496,-1.24626 1.64445,-1.65678 z m 10.29805,1.52613 c -0.91667,-0.36989 -2.41667,-0.36989 -3.33334,0 -0.91666,0.36988 -0.16666,0.67251 1.66667,0.67251 1.83333,0 2.58333,-0.30263 1.66667,-0.67251 z m 144.36931,-1.7254 c -0.43343,-0.7013 -1.66884,-0.93711 -2.74535,-0.52401 -2.75615,1.05763 -2.43137,1.79911 0.78805,1.79911 1.50995,0 2.39074,-0.57379 1.9573,-1.2751 z m 22.59644,-2.65868 c 2.54476,-4.92103 2.54188,-5.51066 -0.0221,-4.52676 -1.13099,0.434 -1.81207,1.46517 -1.5135,2.29149 0.29856,0.82631 0.003,2.55239 -0.65723,3.83572 -0.66004,1.28333 -0.89437,2.33333 -0.52074,2.33333 0.37364,0 1.59475,-1.7702 2.71358,-3.93378 z m -172.63242,-0.0662 c 0,-0.73333 -0.6,-1.33333 -1.33333,-1.33333 -0.73334,0 -1.33334,0.6 -1.33334,1.33333 0,0.73334 0.6,1.33334 1.33334,1.33334 0.73333,0 1.33333,-0.6 1.33333,-1.33334 z m 12,0.66667 c 0,-0.36667 -0.3,-0.66667 -0.66667,-0.66667 -0.36666,0 -0.66666,0.3 -0.66666,0.66667 0,0.36667 0.3,0.66667 0.66666,0.66667 0.36667,0 0.66667,-0.3 0.66667,-0.66667 z m 124.16545,-2.35558 c -1.31682,-1.30702 -1.46998,-1.15387 -0.7464,0.7464 0.50071,1.31496 1.24626,2.05496 1.65678,1.64444 0.41051,-0.41051 8.4e-4,-1.48639 -0.91038,-2.39084 z m -128.64164,-4.31111 c 2.55588,-2.55587 0.61748,-2.52629 -2.77865,0.0424 -1.45264,1.09872 -1.84959,1.95759 -0.90476,1.95759 0.92588,0 2.58341,-0.9 3.68341,-2 z m 56.06292,-7.06844 c 6.80704,-6.39078 6.81678,-6.41195 5.67408,-12.33333 -0.62957,-3.26236 -1.17081,-6.3687 -1.20274,-6.90297 -0.0757,-1.26714 -6.69092,1.56726 -9.87053,4.22923 -1.36352,1.14153 -4.17614,5.43436 -6.25027,9.53962 l -3.77115,7.4641 4.25027,2.11729 c 2.33765,1.16451 4.27307,2.15566 4.30094,2.20256 0.0279,0.0469 3.11909,-2.79552 6.8694,-6.3165 z m 79.96882,5.51289 c -0.48889,-0.48889 -1.28889,-0.48889 -1.77778,0 -0.48889,0.48889 -0.0889,0.88889 0.88889,0.88889 0.97778,0 1.37778,-0.4 0.88889,-0.88889 z m -9.3114,-3.36111 c -0.42564,-1.06365 -0.74158,-0.7477 -0.80556,0.80555 -0.0579,1.40556 0.25724,2.19306 0.70029,1.75 0.44306,-0.44305 0.49043,-1.59305 0.10527,-2.55555 z m -113.84885,-0.31804 c 1.31742,-0.99911 3.71742,-1.56772 5.33333,-1.26356 2.77255,0.52185 2.78783,0.48163 0.27137,-0.71399 -1.63774,-0.77812 -1.93784,-1.30314 -0.77778,-1.3607 1.03889,-0.0515 1.5462,-0.43641 1.12735,-0.85525 -0.41885,-0.41885 -3.96885,0.74545 -7.88889,2.58732 -5.52216,2.59465 -6.37663,3.35718 -3.79401,3.3858 1.83333,0.0203 4.41122,-0.78051 5.72863,-1.77962 z m 13.6047,-0.7653 c 0.45322,-0.73333 0.18863,-1.33333 -0.58798,-1.33333 -0.77661,0 -1.41202,0.6 -1.41202,1.33333 0,0.73334 0.26459,1.33334 0.58798,1.33334 0.32338,0 0.95879,-0.6 1.41202,-1.33334 z m 10.73705,0.31292 c 2.13143,-1.48742 7.66502,-11.02196 6.86257,-11.82441 -1.72902,-1.72901 -15.59962,7.97414 -15.59962,10.91268 0,2.04988 6.18174,2.69495 8.73705,0.91173 z m 46.8185,-3.86847 c -0.48889,-0.48889 -0.88889,-0.0889 -0.88889,0.88889 0,0.97778 0.4,1.37778 0.88889,0.88889 0.48889,-0.48889 0.48889,-1.28889 0,-1.77778 z m 45.11111,0.88889 c -0.45322,-0.73334 -0.15322,-1.33334 0.66667,-1.33334 0.81989,0 1.11989,-0.6 0.66667,-1.33333 -1.3935,-2.25472 -3.33334,-1.47878 -3.33334,1.33333 0,1.46667 0.63541,2.66667 1.41203,2.66667 0.77661,0 1.0412,-0.6 0.58797,-1.33333 z m 38,0 c 0,-0.73334 -0.6,-1.33334 -1.33333,-1.33334 -0.73334,0 -1.33334,0.6 -1.33334,1.33334 0,0.73333 0.6,1.33333 1.33334,1.33333 0.73333,0 1.33333,-0.6 1.33333,-1.33333 z m -68,-2 c 0,-0.36667 -0.3,-0.66667 -0.66666,-0.66667 -0.36667,0 -0.66667,0.3 -0.66667,0.66667 0,0.36666 0.3,0.66666 0.66667,0.66666 0.36666,0 0.66666,-0.3 0.66666,-0.66666 z m -20.67002,-4.65138 c 0.48135,-2.19159 1.42903,-4.327 2.10594,-4.74535 1.5578,-0.96278 1.57055,-8.66889 0.0184,-11.11983 -1.49618,-2.36257 -14.17083,-1.35854 -16.79485,1.3304 -3.03509,3.11017 0.55317,16.17133 4.76602,17.34823 6.9567,1.94341 8.98634,1.36687 9.90449,-2.81345 z m 85.25819,1.94231 c 1.4235,-1.07668 1.92257,-1.9576 1.10905,-1.9576 -2.52931,0 -5.69722,1.56211 -5.69722,2.80932 0,1.70246 1.60521,1.40448 4.58817,-0.85172 z m -70.58373,-3.28376 c -0.45079,-0.72939 -2.1362,-1.96327 -3.74536,-2.74195 -2.77187,-1.34133 -2.76019,-1.27158 0.22197,1.32616 3.39707,2.95916 4.83413,3.53661 3.52339,1.41579 z m 39.3289,-0.67384 c 0,-0.36667 -0.3,-0.66667 -0.66667,-0.66667 -0.36667,0 -0.66667,0.3 -0.66667,0.66667 0,0.36667 0.3,0.66667 0.66667,0.66667 0.36667,0 0.66667,-0.3 0.66667,-0.66667 z m -130.95262,-3.52453 c 0.54781,1.64343 8.57757,2.1218 10.09779,0.60158 0.50762,-0.50762 3.57545,-0.9728 6.81739,-1.03374 4.15041,-0.078 6.82864,-0.98843 9.05187,-3.07705 1.73659,-1.63144 4.13336,-2.96626 5.32615,-2.96626 1.19279,0 2.48898,-0.51822 2.88043,-1.15159 0.77534,-1.25453 -9.66332,-2.80625 -19.22101,-2.85724 -6.35285,-0.0339 -10.64359,-1.69067 -8.23448,-3.17958 0.76095,-0.4703 1.76633,-0.23574 2.23417,0.52124 0.46783,0.75697 3.65929,1.27777 7.09213,1.15733 3.43283,-0.12045 7.55643,0.19929 9.16355,0.71053 2.39757,0.76269 2.88466,0.43331 2.71379,-1.83507 -0.12791,-1.69799 -0.88891,-2.5034 -1.97251,-2.08759 -0.97034,0.37236 -2.10574,-0.21287 -2.52311,-1.30051 -0.50374,-1.31273 -2.63826,-1.97752 -6.34953,-1.97752 -3.07487,0 -6.16068,-0.53417 -6.85734,-1.18704 -1.53478,-1.43829 -24.99682,-5.47962 -31.81207,-5.47962 -4.46859,0 -4.76097,0.22569 -3.4546,2.66666 0.78494,1.46667 2.19137,2.66667 3.12541,2.66667 0.93403,0 2.80555,0.80968 4.15892,1.79928 2.20795,1.6145 1.99448,1.73551 -2.0785,1.17825 -3.23118,-0.44209 -4.14724,-0.20365 -3.17907,0.82747 0.74806,0.79669 5.14336,1.71179 9.76735,2.03355 8.70372,0.60566 11.34564,1.55195 7.95999,2.85115 -1.0785,0.41386 -3.62582,0.11947 -5.66072,-0.6542 -6.04138,-2.29693 -34.52284,-3.32389 -33.82138,-1.2195 0.31683,0.95048 2.56624,2.24386 4.9987,2.87418 2.43245,0.63031 5.27843,2.00181 6.3244,3.04777 2.50716,2.50717 15.92866,6.36427 19.18369,5.51306 1.40702,-0.36794 2.24722,-0.16578 1.86711,0.44926 -1.01015,1.63446 6.24378,2.27924 9.29037,0.82579 1.76327,-0.84121 2.76686,-0.75 3.11111,0.28274 z m 6.28595,-2.47547 c 7.04745,-3.26239 8.4503,-3.26239 4.30284,0 -1.86456,1.46667 -4.79548,2.62217 -6.51314,2.56778 -2.55389,-0.0809 -2.15109,-0.54881 2.2103,-2.56778 z m -16.66666,0.66667 c 0,-0.36667 0.3,-0.66667 0.66666,-0.66667 0.36667,0 0.66667,0.3 0.66667,0.66667 0,0.36666 -0.3,0.66666 -0.66667,0.66666 -0.36666,0 -0.66666,-0.3 -0.66666,-0.66666 z m 24.44444,-0.22222 c 0.48889,-0.48889 1.28889,-0.48889 1.77778,0 0.48889,0.48888 0.0889,0.88888 -0.88889,0.88888 -0.97778,0 -1.37778,-0.4 -0.88889,-0.88888 z m -11.27345,-3.88508 c 8.0075,-3.60236 8.16234,-3.64381 8.16234,-2.18502 0,1.29696 -7.53265,4.43061 -12,4.9921 -1.90375,0.23928 -0.25787,-0.96461 3.83766,-2.80708 z m 18.82901,2.77396 c 0,-0.36666 0.3,-0.66666 0.66666,-0.66666 0.36667,0 0.66667,0.3 0.66667,0.66666 0,0.36667 -0.3,0.66667 -0.66667,0.66667 -0.36666,0 -0.66666,-0.3 -0.66666,-0.66667 z m -43.55556,-1.55555 c 0.48889,-0.48889 1.28889,-0.48889 1.77778,0 0.48889,0.48889 0.0889,0.88889 -0.88889,0.88889 -0.97778,0 -1.37778,-0.4 -0.88889,-0.88889 z m -4.44444,-1.11111 c 0,-0.36667 0.3,-0.66667 0.66666,-0.66667 0.36667,0 0.66667,0.3 0.66667,0.66667 0,0.36666 -0.3,0.66666 -0.66667,0.66666 -0.36666,0 -0.66666,-0.3 -0.66666,-0.66666 z m -2.66667,-2.66667 c 0,-0.36666 0.3,-0.66666 0.66667,-0.66666 0.36666,0 0.66666,0.3 0.66666,0.66666 0,0.36667 -0.3,0.66667 -0.66666,0.66667 -0.36667,0 -0.66667,-0.3 -0.66667,-0.66667 z m 9.33333,-1.33333 c 0,-0.36667 0.3,-0.66667 0.66667,-0.66667 0.36667,0 0.66667,0.3 0.66667,0.66667 0,0.36667 -0.3,0.66667 -0.66667,0.66667 -0.36667,0 -0.66667,-0.3 -0.66667,-0.66667 z m 17.80772,-4.00094 c -0.10576,-1.83282 0.37965,-3.33239 1.07869,-3.33239 0.69903,0 0.92552,0.55894 0.50331,1.2421 -0.42221,0.68316 0.57588,2.18316 2.21799,3.33333 l 2.98564,2.09123 -3.29667,-9.4e-4 c -2.57575,-7.4e-4 -3.33873,-0.72968 -3.48896,-3.33333 z m 14.19228,9.4e-4 c 0,-0.36667 0.3,-0.66667 0.66667,-0.66667 0.36667,0 0.66667,0.3 0.66667,0.66667 0,0.36667 -0.3,0.66667 -0.66667,0.66667 -0.36667,0 -0.66667,-0.3 -0.66667,-0.66667 z m -9.33333,-1.33333 c 0,-0.36667 0.3,-0.66667 0.66667,-0.66667 0.36666,0 0.66666,0.3 0.66666,0.66667 0,0.36666 -0.3,0.66666 -0.66666,0.66666 -0.36667,0 -0.66667,-0.3 -0.66667,-0.66666 z m -16,-1.33334 c 0,-0.36666 0.3,-0.66666 0.66667,-0.66666 0.36666,0 0.66666,0.3 0.66666,0.66666 0,0.36667 -0.3,0.66667 -0.66666,0.66667 -0.36667,0 -0.66667,-0.3 -0.66667,-0.66667 z m 6.66667,-2.66666 c 0,-0.36667 0.3,-0.66667 0.66666,-0.66667 0.36667,0 0.66667,0.3 0.66667,0.66667 0,0.36666 -0.3,0.66666 -0.66667,0.66666 -0.36666,0 -0.66666,-0.3 -0.66666,-0.66666 z m -4.66667,-2 c -2.17388,-0.93415 -2.25002,-1.16323 -0.41202,-1.23962 1.24005,-0.0515 2.62546,0.50628 3.07869,1.23962 0.94755,1.53317 0.90121,1.53317 -2.66667,0 z m 143.3751,16.23614 c -2.68831,-0.8961 1.39254,-5.57323 8.33834,-9.55671 7.00707,-4.01863 5.50302,-5.74455 -1.74142,-1.9983 -4.35692,2.25305 -10.63869,10.68606 -10.63869,14.28199 0,2.22532 0.13671,2.22705 2.69778,0.0342 1.48378,-1.27046 2.08857,-2.51298 1.34399,-2.76118 z m 31.51378,0.2083 c -0.48889,-0.48889 -0.88889,-0.0889 -0.88889,0.88889 0,0.97778 0.4,1.37778 0.88889,0.88889 0.48889,-0.48889 0.48889,-1.28889 0,-1.77778 z m -0.40672,-3.77778 c -0.42211,-1.1 -1.00328,-2 -1.29148,-2 -0.28821,0 -0.52402,0.9 -0.52402,2 0,1.1 0.58117,2 1.29149,2 0.71032,0 0.94612,-0.9 0.52401,-2 z m -129.19017,-3.26643 c 0.43048,-0.69654 -0.43411,-1.91765 -1.92131,-2.71358 -1.82086,-0.9745 -2.70401,-0.99635 -2.70401,-0.0669 0,0.75914 0.93541,1.38025 2.07869,1.38025 1.14327,0 1.70786,0.6 1.25464,1.33333 -0.45323,0.73333 -0.52405,1.33333 -0.15738,1.33333 0.36667,0 1.01888,-0.56989 1.44937,-1.26643 z m -81.62532,-4.94994 c -0.91667,-0.36989 -2.41667,-0.36989 -3.33333,0 -0.91667,0.36988 -0.16667,0.67251 1.66666,0.67251 1.83334,0 2.58334,-0.30263 1.66667,-0.67251 z m 12.19329,-2.01021 c -0.61281,-0.99156 -0.27714,-1.30113 0.92132,-0.84964 5.25993,1.98157 8.56804,2.5469 6.19068,1.05794 -1.29876,-0.81342 -2.01335,-2.04207 -1.58798,-2.73033 0.42932,-0.69466 -1.45115,-1.25139 -4.2268,-1.25139 -4.76135,0 -4.87657,-0.10073 -2.41202,-2.10884 2.36837,-1.92976 2.38075,-2.04299 0.14579,-1.33334 -1.34331,0.42653 -3.89331,0.77552 -5.66666,0.77552 -4.69999,0 -3.94769,2.22106 1.77571,5.24255 5.98128,3.15762 6.08756,3.18381 4.85996,1.19753 z m -19.19329,-1.77342 c 0,-0.36666 -0.3,-0.66666 -0.66667,-0.66666 -0.36666,0 -0.66666,0.3 -0.66666,0.66666 0,0.36667 0.3,0.66667 0.66666,0.66667 0.36667,0 0.66667,-0.3 0.66667,-0.66667 z m 110,-2 c -0.49041,-0.79349 1.09726,-1.33333 3.92131,-1.33333 3.23,0 4.74535,-0.60998 4.74535,-1.91015 0,-1.05058 1.27928,-2.31618 2.84284,-2.81243 1.95837,-0.62157 2.33842,-1.21403 1.22154,-1.9043 -3.35686,-2.07465 2.78018,-2.68294 6.68675,-0.66278 2.15354,1.11364 3.91554,1.71804 3.91554,1.34309 0,-2.79472 -20.61348,-10.58808 -35.33333,-13.35851 -5.86667,-1.10417 -14.69254,-2.83462 -19.61305,-3.84545 -5.84762,-1.20129 -9.10248,-1.36956 -9.39706,-0.48581 -0.29448,0.88342 -1.43806,0.82365 -3.2993,-0.17246 -1.56674,-0.83849 -3.93806,-1.48225 -5.2696,-1.43058 -1.33155,0.0517 -0.0734,0.95406 2.79593,2.0053 2.8693,1.05124 5.49073,1.63754 5.82539,1.30288 0.33467,-0.33467 1.47991,0.26295 2.54499,1.32803 1.06508,1.06508 3.35824,1.9365 5.09591,1.9365 1.73767,0 3.53023,0.6 3.98345,1.33334 0.45323,0.73333 2.25323,1.33333 4,1.33333 1.74678,0 3.54678,0.6 4,1.33333 1.13682,1.83941 -0.70336,1.67253 -7.32714,-0.66448 -4.94387,-1.7443 -5.45573,-1.74877 -4.03366,-0.0353 2.20538,2.65731 10.25718,4.05559 12.52338,2.17481 1.34463,-1.11594 3.01671,-0.98551 6.60923,0.51554 6.44498,2.69288 11.56153,2.6248 11.56153,-0.15385 0,-1.57942 0.4498,-1.78995 1.66666,-0.78004 0.91667,0.76076 2.10303,1.44786 2.63637,1.52689 0.53333,0.079 2.38927,1.56326 4.1243,3.29829 l 3.15461,3.15461 -5.45764,1.62911 c -6.7115,2.0034 -10.47429,6.66774 -5.37895,6.66774 1.14328,0 1.70787,-0.6 1.25465,-1.33334 z m -4.66667,-14 c 0,-0.36666 0.3,-0.66666 0.66667,-0.66666 0.36666,0 0.66666,0.3 0.66666,0.66666 0,0.36667 -0.3,0.66667 -0.66666,0.66667 -0.36667,0 -0.66667,-0.3 -0.66667,-0.66667 z m -5.33333,-1.33333 c 0,-0.36667 0.3,-0.66667 0.66666,-0.66667 0.36667,0 0.66667,0.3 0.66667,0.66667 0,0.36667 -0.3,0.66667 -0.66667,0.66667 -0.36666,0 -0.66666,-0.3 -0.66666,-0.66667 z m 16.88888,15.77778 c -0.48888,-0.48889 -1.28888,-0.48889 -1.77777,0 -0.48889,0.48889 -0.0889,0.88889 0.88889,0.88889 0.97777,0 1.37777,-0.4 0.88888,-0.88889 z m -15.22222,-1.32749 c -0.91666,-0.36988 -2.41666,-0.36988 -3.33333,0 -0.91667,0.36988 -0.16667,0.67252 1.66667,0.67252 1.83333,0 2.58333,-0.30264 1.66666,-0.67252 z m 30.33333,-1.87697 c 2.88558,-1.00494 2.67427,-1.11407 -1.57313,-0.81242 -2.69856,0.19165 -4.61315,-0.12615 -4.25465,-0.70622 0.35851,-0.58007 0.0806,-1.05468 -0.61754,-1.05468 -0.69815,0 -1.61473,0.9 -2.03684,2 -0.86961,2.26614 2.89142,2.52036 8.48216,0.57332 z m -38.33333,-0.7897 c -0.91666,-0.36988 -2.41666,-0.36988 -3.33333,0 -0.91667,0.36989 -0.16667,0.67252 1.66667,0.67252 1.83333,0 2.58333,-0.30263 1.66666,-0.67252 z m 7.66667,-1.78362 c 1.72358,-1.11387 1.68839,-1.29532 -0.25464,-1.31292 -1.24006,-0.0112 -2.62547,0.57959 -3.07869,1.31292 -1.04291,1.68746 0.72217,1.68746 3.33333,0 z m 8.57816,-4.13629 c -1.41799,-0.55529 -4.07816,-1.01792 -5.91149,-1.02807 -2.83603,-0.0157 -2.63711,0.2325 1.33333,1.66366 4.83955,1.74445 9.13354,1.14831 4.57816,-0.63559 z m -11.24483,-1.70827 c 0,-0.28118 -1.5,-0.79798 -3.33333,-1.14844 -1.83333,-0.35047 -3.33333,-0.12041 -3.33333,0.51123 0,0.63164 1.5,1.14844 3.33333,1.14844 1.83333,0 3.33333,-0.23006 3.33333,-0.51123 z m 12.88889,-0.37766 c -0.48889,-0.48889 -1.28889,-0.48889 -1.77778,0 -0.48889,0.48889 -0.0889,0.88889 0.88889,0.88889 0.97778,0 1.37778,-0.4 0.88889,-0.88889 z m -35.91666,-1.25 c -0.44306,-0.44306 -1.59306,-0.49043 -2.55556,-0.10527 -1.06364,0.42564 -0.7477,0.74158 0.80556,0.80556 1.40555,0.0579 2.19305,-0.25724 1.75,-0.70029 z m -7.63889,-7.86111 c -6.16927,-2.37577 -8.15598,-2.37577 -4,0 1.83333,1.04803 4.53333,1.88112 6,1.85131 1.74611,-0.0355 1.05569,-0.67457 -2,-1.85131 z m 118.30555,-8.13889 c -0.44306,-0.44306 -1.59306,-0.49042 -2.55556,-0.10526 -1.06364,0.42563 -0.7477,0.74157 0.80556,0.80555 1.40555,0.0579 2.19305,-0.25724 1.75,-0.70029 z m -2.75,-2.75 c -0.48889,-0.48889 -1.28889,-0.48889 -1.77778,0 -0.48889,0.48889 -0.0889,0.88889 0.88889,0.88889 0.97778,0 1.37778,-0.4 0.88889,-0.88889 z m -7.55556,-1.11111 c 0,-0.36667 -0.3,-0.66667 -0.66666,-0.66667 -0.36667,0 -0.66667,0.3 -0.66667,0.66667 0,0.36667 0.3,0.66667 0.66667,0.66667 0.36666,0 0.66666,-0.3 0.66666,-0.66667 z m 4.58566,-2.13107 c -2.0765,-3.35986 -14.41718,-15.86893 -15.65529,-15.86893 -0.73902,0 -0.35887,1.08819 0.84478,2.4182 1.68813,1.86537 1.82682,2.77983 0.60665,4 -1.22017,1.22017 -0.94851,1.5818 1.18828,1.5818 3.96425,0 6.90032,3.75145 4.34419,5.55061 -1.44683,1.01837 -1.13911,1.17569 1.26018,0.64426 1.8409,-0.40775 3.98134,0.10378 5.09524,1.21767 2.27131,2.27132 3.59941,2.53303 2.31597,0.45639 z m 5.65849,-1.45226 c -0.42563,-1.06365 -0.74157,-0.74771 -0.80555,0.80555 -0.0579,1.40556 0.25724,2.19306 0.70029,1.75 0.44306,-0.44305 0.49043,-1.59305 0.10526,-2.55555 z m -17.48535,-1.23241 c 1.0887,-1.76155 -1.73368,-3.80185 -5.29878,-3.83051 -2.45556,-0.0197 -2.45977,0.0682 -0.12668,2.64625 2.73656,3.02386 4.10404,3.32236 5.42546,1.18426 z m -2.98102,-0.73982 c 0.48889,-0.48889 1.28889,-0.48889 1.77778,0 0.48889,0.48889 0.0889,0.88889 -0.88889,0.88889 -0.97778,0 -1.37778,-0.4 -0.88889,-0.88889 z m 19.11111,-4 c -0.48889,-0.48889 -0.88889,-0.0889 -0.88889,0.88889 0,0.97778 0.4,1.37778 0.88889,0.88889 0.48889,-0.48889 0.48889,-1.28889 0,-1.77778 z m -20.88889,-2.44444 c 0,-0.36667 -0.3,-0.66667 -0.66666,-0.66667 -0.36667,0 -0.66667,0.3 -0.66667,0.66667 0,0.36667 0.3,0.66667 0.66667,0.66667 0.36666,0 0.66666,-0.3 0.66666,-0.66667 z m 14.81667,-6.38333 c -1.08889,-1.08889 -1.48333,-0.93968 -1.48333,0.56111 0,2.65047 1.79293,4.44341 2.45555,2.45555 0.28111,-0.84333 -0.15639,-2.20083 -0.97222,-3.01666 z m -17.11247,-6.44581 c -0.8227,-0.82269 -1.1861,-2.47269 -0.80756,-3.66667 0.50992,-1.60838 0.3679,-1.72563 -0.54815,-0.45252 -0.91999,1.2786 -2.14644,1.37235 -4.79244,0.36634 -5.21663,-1.98336 -4.33337,-0.49928 1.44395,2.42618 6.09892,3.08831 6.60996,3.23243 4.7042,1.32667 z m 10.2958,-1.83753 c 0,-0.36666 -0.3,-0.66666 -0.66666,-0.66666 -0.36667,0 -0.66667,0.3 -0.66667,0.66666 0,0.36667 0.3,0.66667 0.66667,0.66667 0.36666,0 0.66666,-0.3 0.66666,-0.66667 z m -2.66666,-1.33333 c 0,-0.36667 -0.3,-0.66667 -0.66667,-0.66667 -0.36667,0 -0.66667,0.3 -0.66667,0.66667 0,0.36667 0.3,0.66667 0.66667,0.66667 0.36667,0 0.66667,-0.3 0.66667,-0.66667 z m -10.66667,-5.77778 c 0,-0.61111 -0.9,-1.11111 -2,-1.11111 -1.1,0 -2,0.5 -2,1.11111 0,0.61111 0.9,1.11111 2,1.11111 1.1,0 2,-0.5 2,-1.11111 z"
                id="path1"/>
    </g>
</svg>
