<?xml version="1.0" encoding="UTF-8" standalone="no"?>
<!-- Created with Inkscape (http://www.inkscape.org/) -->

<svg
   width="133.3503mm"
   height="72.496765mm"
   viewBox="0 0 133.3503 72.496765"
   version="1.1"
   id="svg5"
   xml:space="preserve"
   xmlns:inkscape="http://www.inkscape.org/namespaces/inkscape"
   xmlns:sodipodi="http://sodipodi.sourceforge.net/DTD/sodipodi-0.dtd"
   xmlns="http://www.w3.org/2000/svg"
   xmlns:svg="http://www.w3.org/2000/svg"><sodipodi:namedview
     id="namedview7"
     pagecolor="#ffffff"
     bordercolor="#666666"
     borderopacity="1.0"
     inkscape:showpageshadow="2"
     inkscape:pageopacity="0.0"
     inkscape:pagecheckerboard="0"
     inkscape:deskcolor="#d1d1d1"
     inkscape:document-units="mm"
     showgrid="false"
     inkscape:zoom="0.6480467"
     inkscape:cx="2735.914"
     inkscape:cy="195.97353"
     inkscape:window-width="1440"
     inkscape:window-height="900"
     inkscape:window-x="0"
     inkscape:window-y="0"
     inkscape:window-maximized="0"
     inkscape:current-layer="layer1" /><defs
     id="defs2" /><g
     inkscape:label="Livello 1"
     inkscape:groupmode="layer"
     id="layer1"
     transform="translate(-110.54985,482.36272)"><path
       id="path8890"
       style="fill:#D2D9DE;stroke-width:0.352778"
       d="m 111.34413,-482.35945 c -0.52758,-0.0326 -0.79427,0.17932 -0.79427,0.63665 0,0.65371 5.15711,6.49401 9.26404,10.49135 1.89379,1.84327 4.7513,5.08449 6.35,7.20266 3.34277,4.42895 4.79655,5.47726 6.68383,4.81935 0.62229,-0.21693 1.47788,-0.71959 1.90117,-1.11725 l 0.76946,-0.72295 2.31149,1.52394 c 1.27132,0.83812 4.50366,2.92594 7.18303,4.64003 2.67936,1.71408 6.14188,3.99227 7.6941,5.06222 1.55222,1.06995 4.58476,2.8057 6.73912,3.85713 3.40648,1.66253 4.27034,1.93644 6.62802,2.10375 1.49107,0.10581 3.5705,0.0139 4.62091,-0.20413 2.3064,-0.47881 2.69206,-0.31473 5.6317,2.39366 2.53407,2.33473 3.75074,2.88199 7.01766,3.15588 2.47117,0.20717 2.52187,0.23191 4.80384,2.36678 3.07387,2.87573 4.36033,3.8205 6.95823,5.10925 2.29402,1.13799 5.87971,2.12885 7.73389,2.13785 1.46155,0.007 4.85173,2.2639 5.66271,3.7698 0.3479,0.64599 0.76052,1.1746 0.91725,1.1746 0.15677,0 0.1132,-0.32106 -0.0966,-0.71313 -0.20987,-0.39206 -0.28268,-0.87229 -0.16227,-1.06712 0.12039,-0.19486 0.0881,-0.31292 -0.0718,-0.26252 -0.43324,0.13642 -2.23654,-1.54443 -2.02468,-1.88722 0.10047,-0.1625 -0.0622,-0.20123 -0.36173,-0.0863 -0.32033,0.12292 -0.63342,-0.0234 -0.76068,-0.35502 -0.11898,-0.31009 -0.37615,-0.46492 -0.57154,-0.34416 -0.19538,0.12076 -0.45702,0.0664 -0.58085,-0.12093 -0.12382,-0.18732 -1.25701,-0.82593 -2.51819,-1.41903 -5.66555,-2.66435 -7.03623,-3.26957 -7.40368,-3.26957 -0.61702,0 -4.79065,-4.37503 -5.32474,-5.58157 -0.29345,-0.66301 -0.57691,-0.93009 -0.7276,-0.68626 -0.13577,0.21968 -0.93372,0.40993 -1.77354,0.42323 -0.83981,0.0133 -1.7501,0.16776 -2.02261,0.34313 -0.36103,0.23233 -0.41884,0.19451 -0.21239,-0.13953 0.21246,-0.34377 0.0579,-0.41561 -0.61857,-0.28629 -0.66122,0.12639 -0.85297,0.0443 -0.71779,-0.30799 0.14755,-0.38452 -0.006,-0.40835 -0.76739,-0.11885 -1.04491,0.39727 -1.7372,0.16922 -1.48467,-0.48886 0.0909,-0.23682 -0.16665,-0.44579 -0.58807,-0.47749 -0.41237,-0.0311 -0.80544,-0.22351 -0.87334,-0.42737 -0.0679,-0.20388 -0.26067,-0.28555 -0.42839,-0.1819 -0.39591,0.24469 -1.0995,-1.06269 -0.76895,-1.42885 0.13869,-0.15361 0.0583,-0.16822 -0.1788,-0.032 -0.49113,0.28215 -2.29756,-0.77302 -2.03915,-1.19114 0.0932,-0.15082 -0.0671,-0.47078 -0.35605,-0.71055 -0.95711,-0.79434 -0.55779,-3.26873 0.47439,-2.93988 0.43783,0.1395 0.4704,0.10305 0.12764,-0.14314 -0.36584,-0.26277 -0.26984,-0.68659 0.46767,-2.06189 0.51054,-0.95206 1.07082,-1.69269 1.24489,-1.64589 0.17406,0.0468 0.2215,-0.38962 0.10542,-0.96997 -0.14298,-0.71493 -0.0707,-1.05523 0.22375,-1.05523 0.25801,0 0.34431,0.2355 0.21239,0.57929 -0.17974,0.46839 -0.12648,0.49917 0.28009,0.16175 0.27645,-0.22943 0.59273,-0.77585 0.7028,-1.2144 0.12323,-0.491 0.67889,-0.98528 1.44591,-1.28623 0.68508,-0.26881 1.2454,-0.61785 1.2454,-0.77566 0,-0.15781 0.19826,-0.28143 0.4408,-0.27543 0.25765,0.007 0.14765,0.2689 -0.26458,0.62993 -0.75044,0.65723 -0.90783,1.03023 -1.14309,2.70991 -0.20589,1.46997 1.12056,2.67013 3.21118,2.90577 1.36086,0.15339 1.7099,0.0512 2.49132,-0.73019 0.62667,-0.62667 0.90899,-1.28801 0.90899,-2.13062 0,-1.76393 0.30018,-2.41463 0.86919,-1.88309 0.24925,0.23287 0.36872,0.66241 0.2651,0.95447 -0.10361,0.2921 -0.0568,0.41154 0.10387,0.26561 0.35215,-0.31983 2.01807,2.49444 1.7415,2.94194 -0.10671,0.17272 0.048,0.22061 0.34416,0.10697 0.80074,-0.30727 1.68769,0.69159 1.15135,1.29656 -0.34714,0.39158 -0.31608,0.39463 0.18346,0.0176 0.68071,-0.5138 1.47483,-0.21062 1.11104,0.42427 -0.13132,0.22911 -0.11397,0.30471 0.0382,0.16743 0.15221,-0.13726 0.57461,0.10086 0.93896,0.52917 0.44807,0.52736 0.59677,0.58826 0.45837,0.18862 -0.21205,-0.61228 0.33956,-0.69382 1.17306,-0.17312 0.2486,0.15532 0.4408,0.11242 0.4408,-0.0982 0,-0.20548 0.23812,-0.37362 0.52916,-0.37362 0.29104,0 0.53185,0.19879 0.53485,0.44132 0.004,0.29563 0.11479,0.26813 0.33693,-0.0832 0.38654,-0.61134 -0.45062,-1.25628 -1.10536,-0.85163 -0.23212,0.14343 -0.30862,0.0952 -0.17983,-0.11317 0.30495,-0.4934 1.99018,-0.4636 1.89808,0.0336 -0.0466,0.25154 0.61379,0.40411 1.8035,0.41651 1.14168,0.0119 1.98856,0.19933 2.16111,0.47853 0.19949,0.32279 0.35535,0.34327 0.52503,0.0687 0.13272,-0.21474 0.70785,-0.39068 1.27848,-0.39068 0.57063,0 1.03766,-0.17806 1.03766,-0.39584 0,-0.27357 0.16356,-0.26001 0.52917,0.0434 0.40247,0.334 0.64709,0.34144 1.02113,0.031 0.38157,-0.31667 0.63387,-0.26727 1.12654,0.22117 0.58015,0.57518 0.61528,0.57748 0.40566,0.0238 -0.12618,-0.33334 -0.0533,-0.71531 0.16227,-0.84852 0.25525,-0.15775 0.29144,-0.079 0.10335,0.2253 -0.21421,0.3466 -0.12418,0.40404 0.3483,0.22273 0.56325,-0.21614 0.5798,-0.17478 0.14573,0.36019 -0.26998,0.33269 -0.32308,0.50527 -0.11834,0.38292 0.20474,-0.1224 0.95948,-0.0901 1.67741,0.0718 0.7462,0.16825 1.38902,0.15896 1.50069,-0.0217 0.10743,-0.17383 0.35425,-0.31626 0.54828,-0.31626 0.19405,0 0.25428,0.15893 0.13436,0.35295 -0.11991,0.19403 0.10899,0.35295 0.5085,0.35295 0.39951,0 0.72657,0.15841 0.72657,0.35244 0,0.19403 0.16815,0.35295 0.37362,0.35295 0.20551,0 0.29162,-0.13237 0.19172,-0.29404 -0.0999,-0.1617 0.0564,-0.29404 0.34726,-0.29404 0.32119,0 0.45041,0.20447 0.32918,0.52038 -0.15873,0.41363 -0.0971,0.4352 0.30024,0.10542 0.38748,-0.32158 0.8252,-0.28449 1.94821,0.16485 0.79669,0.31878 1.44849,0.72104 1.44849,0.894 0,0.17296 0.31732,0.31471 0.70538,0.31471 0.38805,0 0.7059,0.15841 0.7059,0.35243 0,0.19403 0.31732,0.35295 0.70538,0.35295 0.49491,0 0.70707,0.23699 0.71107,0.79375 0.004,0.58915 0.0846,0.66833 0.31316,0.30748 0.16937,-0.2674 0.487,-0.37558 0.7059,-0.2403 0.21902,0.13528 0.30764,0.39211 0.1974,0.57051 -0.11028,0.17836 0.0301,0.23618 0.31161,0.12816 0.28148,-0.10802 0.61656,-0.0269 0.74466,0.18035 0.12809,0.20726 0.61115,0.37672 1.07332,0.37672 0.46218,0 0.92174,0.13236 1.02164,0.29404 0.0999,0.16171 0.70498,0.2449 1.34411,0.185 1.0504,-0.0985 1.07728,-0.0793 0.28008,0.19999 -0.58477,0.20487 -0.67805,0.32086 -0.27698,0.34416 0.33274,0.0193 0.7641,0.33222 0.95859,0.69557 0.25075,0.46856 0.65449,0.62562 1.38958,0.54002 0.69042,-0.0804 1.10617,0.0606 1.24489,0.42219 0.14238,0.37098 0.44595,0.46742 0.95963,0.30438 0.55704,-0.17681 0.67925,-0.12211 0.47284,0.21187 -0.20317,0.32871 -0.10364,0.38321 0.36845,0.20206 0.35588,-0.13653 0.74342,-0.0925 0.86093,0.0977 0.27396,0.44326 2.09005,0.78386 4.8209,0.90434 1.18586,0.0523 2.4562,0.28075 2.82256,0.50746 0.6985,0.43226 0.86142,0.4378 -4.80229,-0.16071 -3.78561,-0.40004 -8.96109,-1.99249 -13.40538,-4.12481 -7.44573,-3.57238 -9.98983,-4.20365 -16.75712,-4.15685 -5.66259,0.0391 -9.24794,0.25499 -9.78855,0.58911 -0.2361,0.14589 -0.2688,0.0606 -0.0889,-0.23048 0.18902,-0.30578 0.14769,-0.37677 -0.12247,-0.20981 -0.48525,0.29991 -5.29317,-0.96569 -6.87814,-1.81074 -0.61251,-0.32657 -1.23269,-0.56131 -1.37821,-0.52141 -0.14551,0.0399 -0.24572,-0.0467 -0.22272,-0.19224 0.10424,-0.66015 -0.073,-1.14618 -0.41807,-1.14618 -0.22463,0 -0.27975,0.30547 -0.13642,0.75706 0.19908,0.62727 0.12251,0.72654 -0.44649,0.57774 -0.39706,-0.10384 -0.68678,-0.002 -0.68678,0.24081 0,0.24169 0.3264,0.35819 0.7674,0.27389 0.42211,-0.0807 1.01787,0.10371 1.32395,0.40979 0.416,0.416 0.60106,0.44615 0.73329,0.11886 0.10112,-0.25027 0.18874,-0.16482 0.20464,0.19998 0.0153,0.35101 0.19407,0.53546 0.39739,0.4098 0.20332,-0.1257 0.60698,-0.13717 0.8971,-0.0258 0.41226,0.1582 0.44459,0.35759 0.14728,0.91312 -0.39213,0.7327 0.10169,1.04561 0.53743,0.34055 0.14021,-0.22686 0.48989,-0.0694 0.90279,0.40669 0.37066,0.42738 0.67386,0.59373 0.67386,0.37001 0,-0.22371 0.35718,-0.40401 0.79375,-0.40101 0.64993,0.004 0.69788,0.0701 0.26459,0.36328 -0.38762,0.26231 -0.25568,0.29413 0.49351,0.11938 0.66934,-0.15612 0.94474,-0.11217 0.79685,0.12712 -0.21886,0.35414 1.34661,1.63395 2.06085,1.68465 0.19403,0.0138 0.74355,-0.22061 1.22112,-0.52038 0.47756,-0.29977 0.75607,-0.3629 0.61908,-0.14056 -0.13699,0.22235 -0.0315,0.82281 0.23409,1.3348 0.45141,0.8701 0.49532,0.88433 0.67076,0.21343 0.13124,-0.50187 0.0169,-0.71779 -0.3793,-0.71779 -0.45132,0 -0.47752,-0.0894 -0.12867,-0.43822 0.34884,-0.34884 0.50625,-0.33071 0.77256,0.0884 0.18387,0.28942 0.25913,0.73083 0.16743,0.98082 -0.19303,0.52597 1.1696,1.13141 1.91099,0.84904 0.35378,-0.13474 0.43596,-0.0181 0.27751,0.39481 -0.12377,0.3224 -0.11167,0.56941 0.0269,0.54881 0.90437,-0.1348 2.21273,0.11413 2.60811,0.49661 0.27547,0.26649 1.21303,0.42714 2.29185,0.39274 1.20741,-0.0385 1.79422,0.0779 1.73322,0.34313 -0.0507,0.22049 -0.0256,0.28194 0.0558,0.13642 0.0814,-0.14552 0.38236,-0.26458 0.66869,-0.26458 0.2863,0 0.4389,0.13183 0.339,0.29352 -0.0999,0.16169 0.0493,0.29404 0.33176,0.29404 0.2825,0 0.51366,-0.15655 0.51366,-0.3483 0,-0.19177 0.2817,-0.0939 0.62529,0.21756 0.41007,0.3711 0.79901,0.45859 1.12964,0.25425 0.27734,-0.17139 0.61982,-0.24036 0.7612,-0.15296 0.14137,0.0874 0.35665,-0.002 0.47852,-0.19947 0.36462,-0.58997 0.8813,-0.40507 0.63821,0.2284 -0.16802,0.43785 -0.10067,0.51008 0.26561,0.28371 0.2701,-0.16698 1.13051,-0.25159 1.91203,-0.18759 0.78152,0.064 2.05628,0.14871 2.83239,0.18811 1.09586,0.0556 1.50849,0.26181 1.84691,0.92294 0.23968,0.46824 0.4368,0.65335 0.4408,0.41082 0.003,-0.24254 0.1641,-0.44131 0.35812,-0.44131 0.19403,0 0.35243,0.24114 0.35243,0.53588 0,0.40351 0.23111,0.4779 0.93483,0.30128 0.73917,-0.18552 0.87493,-0.13161 0.64905,0.25786 -0.15618,0.2708 -0.15516,0.37483 0.004,0.23099 0.34936,-0.31651 1.29981,0.40212 1.05524,0.79789 -0.0951,0.154 0.14448,0.19662 0.53278,0.0951 0.49121,-0.12845 0.7059,-0.0107 0.7059,0.38603 0,0.40094 0.32087,0.56999 1.07952,0.56999 0.6296,0 0.98814,0.14714 0.86093,0.35295 -0.12453,0.20148 0.20712,0.36355 0.77308,0.37775 0.83662,0.0209 0.88301,0.0669 0.29817,0.29559 -0.54963,0.21489 -0.38566,0.3199 0.79375,0.5085 0.81756,0.13073 1.48622,0.38032 1.48622,0.555 0,0.46553 2.68291,0.87577 5.11545,0.78187 1.54139,-0.0595 1.97284,0.0168 1.5875,0.28163 -0.89298,0.61378 -4.67772,0.42654 -6.91224,-0.34209 -1.14607,-0.39421 -3.86522,-1.57311 -6.04253,-2.62 -4.4077,-2.11929 -7.32909,-2.76144 -12.01064,-2.63963 -1.50031,0.0389 -2.80721,0.0385 -2.90421,-0.001 -0.097,-0.0395 -0.9698,-0.12065 -1.93993,-0.18035 -2.65767,-0.16351 -4.05806,-0.46442 -4.9842,-1.07125 -0.4603,-0.3016 -0.83664,-0.46383 -0.83664,-0.36018 0,0.10365 -1.26967,-0.44938 -2.82101,-1.22939 -1.55136,-0.78 -2.86102,-1.40246 -2.91042,-1.38286 -0.0494,0.0196 -0.72457,-0.21107 -1.50068,-0.51263 -1.40006,-0.54398 -5.24351,-1.48873 -7.55251,-1.85621 -1.098,-0.17475 -1.15355,-0.14277 -0.64234,0.36845 0.30789,0.30789 0.73003,0.56017 0.93792,0.56017 0.20789,0 0.37776,0.23812 0.37776,0.52917 0,0.59348 0.0648,0.61745 0.85111,0.31574 0.30581,-0.11735 0.46805,-0.35547 0.3607,-0.52917 -0.49792,-0.80565 0.38773,-0.17302 1.64486,1.17513 0.76479,0.82016 1.31333,1.69346 1.21853,1.94045 -0.098,0.25529 0.0889,0.45175 0.43357,0.45475 0.5204,0.005 0.53173,0.0537 0.0775,0.34726 -0.41983,0.27128 -0.34728,0.34344 0.35244,0.35244 0.48507,0.006 0.72318,0.12772 0.52916,0.27026 -0.5315,0.39049 -0.58904,1.14109 -0.0879,1.14309 0.24253,10e-4 0.8937,0.23879 1.44746,0.52761 0.55377,0.28878 1.14909,0.43714 1.32292,0.3297 0.17384,-0.10743 0.31626,-0.0405 0.31626,0.14883 0,0.18931 -0.19827,0.4304 -0.4408,0.53588 -0.24254,0.10533 -0.004,0.10157 0.52916,-0.009 0.81901,-0.16938 0.96997,-0.0829 0.96997,0.55552 0,0.63742 0.10687,0.69898 0.68006,0.39222 0.7054,-0.37752 1.90817,-0.13817 1.62316,0.32298 -0.0893,0.14445 0.23462,0.47515 0.71985,0.73484 0.48524,0.25969 0.80915,0.66237 0.71985,0.89504 -0.10547,0.27482 0.0861,0.35817 0.54674,0.23771 0.54249,-0.14187 0.59846,-0.25534 0.23823,-0.48369 -0.54467,-0.34526 -0.24443,-0.4035 0.5364,-0.10387 0.29467,0.11307 0.45658,0.41128 0.36018,0.66249 -0.11498,0.29965 0.26002,0.53823 1.09038,0.69401 0.69612,0.13059 1.17271,0.38835 1.05885,0.57258 -0.11385,0.18422 0.1597,0.34597 0.60771,0.35967 0.76954,0.0234 0.77559,0.0412 0.10904,0.32762 -0.608,0.26128 -0.55956,0.30783 0.35243,0.33383 0.81745,0.0233 0.9379,0.10793 0.52917,0.37207 -0.40961,0.26471 -0.29004,0.35101 0.52917,0.38241 1.03971,0.0399 1.04316,0.0455 0.17673,0.32298 -0.81966,0.26248 -0.79508,0.28755 0.35243,0.35295 1.14752,0.0654 1.17261,0.0899 0.35295,0.35243 -0.60779,0.19465 -0.68681,0.29361 -0.25373,0.31781 0.34564,0.0193 0.71422,0.25775 0.81856,0.52968 0.10435,0.27192 0.53597,0.58926 0.95911,0.70539 0.64448,0.17687 0.68306,0.26762 0.23978,0.55862 -0.447,0.29349 -0.4273,0.34795 0.12609,0.35295 0.43634,0.004 0.58743,0.18186 0.45217,0.53433 -0.13162,0.34302 0.0101,0.53085 0.40307,0.53485 0.52039,0.005 0.53122,0.0537 0.077,0.34727 -0.35278,0.22798 -0.38183,0.34327 -0.0879,0.34727 0.24254,0.003 0.4408,0.24329 0.4408,0.53433 0,0.29105 -0.19826,0.53509 -0.4408,0.54209 -0.24253,0.007 -0.0443,0.23895 0.4408,0.51624 0.56041,0.32035 0.6892,0.51907 0.35295,0.54467 -0.39013,0.0298 -0.40865,0.089 -0.0698,0.2248 0.34453,0.13804 0.30051,0.30796 -0.17622,0.67851 -0.58984,0.45848 -0.59118,0.4783 -0.015,0.2775 0.4919,-0.17142 0.57104,-0.0795 0.37878,0.44028 -0.13357,0.36115 -0.41348,0.77316 -0.62166,0.91571 -0.24943,0.17078 -0.2194,0.26058 0.0879,0.26458 0.34873,0.004 0.32562,0.14619 -0.0915,0.56328 -0.30672,0.30669 -0.46475,0.7075 -0.3514,0.8909 0.11335,0.18341 -0.2821,0.50368 -0.8785,0.71158 -0.59641,0.20791 -0.99551,0.52148 -0.88728,0.6966 0.10824,0.17513 -0.046,0.31833 -0.34262,0.31833 -0.29659,0 -1.06005,0.28564 -1.69654,0.6351 -0.63649,0.34947 -1.82851,0.83107 -2.64893,1.07022 -1.03374,0.30134 -1.8916,0.91333 -2.79466,1.99368 -1.33567,1.59788 -1.96711,1.79744 -1.63194,0.51573 0.23335,-0.89232 3.54626,-3.63117 5.73091,-4.73822 0.89111,-0.45155 1.81067,-1.19309 2.04381,-1.64796 0.63915,-1.247 1.06233,-3.57777 0.79013,-4.35374 -0.16871,-0.48097 -0.31753,-0.11685 -0.49351,1.20975 -0.37406,2.81985 -0.93194,3.59924 -3.63854,5.08289 -3.7392,2.04969 -5.66688,4.22551 -4.8767,5.50406 h -0.001 c 0.44109,0.71369 1.17014,0.36305 2.42208,-1.16479 1.3134,-1.60282 1.91702,-1.93137 5.23999,-2.85202 2.23897,-0.62032 3.90797,-1.84581 4.76767,-3.50159 0.8066,-1.55353 0.71376,-4.603 -0.20309,-6.69004 -0.41195,-0.93771 -0.74879,-1.76999 -0.74879,-1.84949 0,-0.0794 1.05344,0.41406 2.34094,1.09709 1.28751,0.68303 3.53783,2.35968 5.00073,3.72587 2.90237,2.7105 4.77566,3.84679 6.3438,3.84679 1.54766,0 1.58528,-0.35484 0.14934,-1.41283 -0.72108,-0.53128 -1.77726,-1.46257 -2.34714,-2.06964 l -1.03612,-1.10381 h 1.13792 c 0.84582,0 1.51128,0.35882 2.59209,1.39733 1.49232,1.43397 3.87418,2.48305 5.63686,2.48305 1.72745,0 1.1212,-0.93195 -1.53582,-2.3611 -1.39224,-0.74884 -2.59179,-1.54365 -2.66599,-1.7663 -0.17219,-0.51653 2.45428,-2.04608 4.38888,-2.55591 1.38923,-0.36612 2.14717,-0.91519 1.77612,-1.28623 -0.24794,-0.24795 -6.74093,1.38438 -7.14116,1.79524 -0.19403,0.1992 -0.33873,0.31968 -0.32143,0.26768 0.0174,-0.052 -0.5874,-0.7455 -1.34411,-1.54099 -0.75673,-0.79549 -1.29856,-1.524 -1.20406,-1.6185 0.0945,-0.0945 1.61518,0.0329 3.37964,0.28267 2.89496,0.40974 3.26544,0.39688 3.79305,-0.13074 0.54446,-0.54439 0.53903,-0.60228 -0.0744,-0.83768 -0.39705,-0.15236 -0.71377,-0.0876 -0.79737,0.1633 -0.19932,0.59796 -0.78548,0.51395 -0.78548,-0.11266 0,-0.37141 -0.37468,-0.52916 -1.25729,-0.52916 -1.31061,0 -4.54689,-1.18514 -5.42189,-1.98541 -0.5896,-0.53923 -1.78697,-3.54068 -1.78697,-4.48086 -4.2e-4,-0.92436 1.26693,-0.57559 6.43992,1.77301 5.30641,2.40918 8.7678,3.20795 10.93163,2.52181 0.84899,-0.2692 1.54299,-0.72615 1.60559,-1.05626 0.0943,-0.49743 -0.34122,-0.59932 -3.01016,-0.70539 -3.55761,-0.14139 -4.56255,-0.56025 -11.09338,-4.62659 -2.07277,-1.29058 -4.53323,-2.5972 -5.46788,-2.90318 -0.93465,-0.30598 -1.8589,-0.66996 -2.05414,-0.80874 -0.55993,-0.39802 -4.14781,-4.66173 -3.92276,-4.66173 0.44998,0 5.7709,2.22806 7.60574,3.18482 4.97156,2.5924 9.93953,4.00839 16.07447,4.58215 1.74625,0.16331 3.69111,0.40767 4.3217,0.5426 0.91913,0.19668 1.1467,0.13291 1.1467,-0.32091 0,-0.79832 -2.52474,-1.99161 -4.21369,-1.99161 -1.4316,0 -7.71086,-1.97774 -9.24543,-2.91196 -8.11812,-4.94208 -10.23717,-5.89969 -15.37064,-6.94583 -1.93804,-0.39495 -4.22138,-1.10283 -5.07411,-1.57303 -0.88158,-0.48611 -2.69169,-1.01927 -4.19613,-1.2361 -3.1406,-0.45264 -11.99879,-0.6768 -11.76414,-0.29766 0.0901,0.14552 0.033,0.26458 -0.12712,0.26458 -0.16008,0 -0.81526,-0.80036 -1.45573,-1.7787 -1.31492,-2.00855 -3.43321,-3.69656 -5.10614,-4.069 -0.61935,-0.13788 -2.79159,-0.34697 -4.8271,-0.46457 l -3.70107,-0.21394 -1.27072,-2.56419 c -0.6989,-1.41024 -1.65009,-2.9679 -2.11408,-3.4618 -1.7436,-1.85597 -9.59791,-4.93363 -17.79685,-6.97322 -1.9355,-0.48148 -5.50338,-1.42358 -7.92871,-2.09341 -2.42535,-0.66984 -5.44284,-1.48402 -6.70554,-1.80971 -1.85628,-0.47881 -2.40949,-0.79051 -2.88974,-1.62729 -1.34258,-2.33931 -3.8164,-2.92528 -8.34471,-1.97662 -1.53438,0.32143 -2.75793,0.37199 -3.88039,0.15968 -0.9017,-0.17057 -2.72854,-0.37654 -4.0597,-0.45734 -1.33116,-0.0808 -2.50851,-0.23525 -2.61638,-0.34313 -0.35593,-0.35593 -2.24519,-0.20941 -2.01899,0.15658 0.11991,0.19402 0.0499,0.35295 -0.15555,0.35295 -0.20548,0 -0.37362,0.23812 -0.37362,0.52916 0,0.29104 0.18901,0.52917 0.42013,0.52917 0.23111,0 0.11204,0.23021 -0.26458,0.5116 -0.65115,0.48649 -0.64122,0.50066 0.1974,0.29145 0.82098,-0.20481 0.84501,-0.17486 0.35243,0.43202 -0.51305,0.63209 -0.49926,0.63278 0.44132,0.0207 0.53358,-0.34727 0.96997,-0.52456 0.96997,-0.39378 0,0.13082 0.19827,0.11102 0.4408,-0.0439 0.60408,-0.38596 4.85086,-0.47094 4.85086,-0.0971 0,0.16542 0.47943,0.13353 1.06557,-0.0708 0.81478,-0.28403 1.20448,-0.25905 1.6552,0.10645 0.34228,0.27758 0.48525,0.30381 0.34054,0.0625 -0.24844,-0.41427 0.61327,-0.86159 2.05414,-1.0666 1.86892,-0.26589 4.345,-0.28637 4.18941,-0.0346 -0.0959,0.15522 -0.0326,0.28215 0.14056,0.28215 0.17314,0 0.31471,0.23813 0.31471,0.52917 0,0.29104 -0.15892,0.52916 -0.35295,0.52916 -0.19398,0 -0.26953,0.0829 -0.16795,0.18449 0.10158,0.10157 0.45919,0.0795 0.79427,-0.0491 0.48288,-0.1853 0.51144,-0.29533 0.13849,-0.53175 -0.38117,-0.24148 -0.38314,-0.29986 -0.009,-0.30386 0.25383,-0.003 0.37053,-0.15321 0.2589,-0.33383 -0.11164,-0.18062 -0.0417,-0.42797 0.15554,-0.54984 0.32558,-0.20122 0.51471,0.26805 0.39533,0.98134 -0.0257,0.15383 0.27321,0.1089 0.66404,-0.10026 0.43118,-0.23078 0.71055,-0.24644 0.71055,-0.0393 0,0.18778 -0.27799,0.43447 -0.61753,0.54777 -0.33955,0.11329 -1.00451,0.50473 -1.47795,0.86971 l -0.86093,0.66353 1.03715,-0.16795 c 0.57389,-0.0929 0.87991,-0.0377 0.68471,0.12403 -0.19402,0.16071 -0.40424,0.5306 -0.46664,0.82165 -0.0909,0.42434 -0.0243,0.44199 0.33538,0.0884 0.2467,-0.24253 0.85347,-0.41966 1.34824,-0.39326 0.85782,0.0458 0.86156,0.0553 0.0853,0.2036 -0.94916,0.18136 -0.85063,0.94362 0.13797,1.06816 0.63382,0.0798 0.63173,0.0648 -0.0294,-0.23978 -0.47529,-0.21892 -0.53269,-0.33107 -0.17622,-0.34417 0.29104,-0.0107 0.74649,0.1184 1.01234,0.28681 0.39086,0.2476 0.3573,0.38449 -0.17621,0.71675 -0.60151,0.37461 -0.58991,0.39165 0.13384,0.19379 1.08665,-0.29709 0.99765,0.0505 -0.17622,0.68729 -0.53657,0.29109 -0.73348,0.53491 -0.4408,0.54571 0.43936,0.0162 0.44615,0.0723 0.0413,0.32866 -0.38302,0.24258 -0.32627,0.35971 0.26459,0.54725 0.86228,0.27367 0.93485,0.56062 0.31109,1.22732 -0.36313,0.38813 -0.28495,0.42612 0.44132,0.21755 0.48507,-0.13929 1.16224,-0.28998 1.50481,-0.33538 0.34258,-0.0454 0.81096,-0.27041 1.04077,-0.50022 0.2298,-0.2298 0.58433,-0.41538 0.78806,-0.41238 0.24274,0.004 0.24879,0.0947 0.0176,0.26458 -0.19403,0.14255 -0.67028,0.65309 -1.05833,1.13482 -0.65387,0.81173 -0.65634,0.83773 -0.031,0.35295 0.51348,-0.39804 0.70995,-0.41871 0.82218,-0.0853 0.10318,0.30654 0.33699,0.33692 0.77824,0.10077 0.34689,-0.1857 0.71546,-0.25296 0.81856,-0.14986 0.10309,0.1031 0.30678,-0.006 0.4532,-0.2434 0.18134,-0.2934 0.1192,-0.33961 -0.19534,-0.14521 -0.30787,0.19027 -0.37688,0.14771 -0.2067,-0.12764 0.14039,-0.22714 0.39898,-0.32476 0.57412,-0.21652 0.17514,0.10824 0.75313,-0.0875 1.28468,-0.43512 0.53155,-0.34761 0.844,-0.43373 0.69453,-0.1912 -0.16368,0.2656 -0.088,0.44572 0.19017,0.45372 0.25399,0.007 -0.008,0.39625 -0.58136,0.86506 -0.90997,0.74369 -0.96381,0.8827 -0.4253,1.08934 0.58111,0.22302 0.58216,0.27536 0.0181,0.89865 -0.32949,0.36408 -0.52488,0.66198 -0.43408,0.66198 0.0908,0 0.63108,-0.50059 1.20096,-1.1126 0.79792,-0.85677 0.87847,-1.05604 0.35036,-0.86661 -0.66878,0.2399 -0.6697,0.22798 -0.0336,-0.47491 0.35874,-0.3964 0.81837,-0.72088 1.02113,-0.72088 0.24026,0 0.23105,0.13792 -0.0269,0.39584 -0.2182,0.21767 -0.3119,0.61473 -0.20929,0.88212 0.10261,0.2674 0.0372,0.48627 -0.14521,0.48627 -0.18245,0 -0.33177,0.23813 -0.33177,0.52917 0,0.77542 0.33476,0.65529 1.46606,-0.52555 1.34474,-1.4036 1.65298,-1.01543 0.33073,0.41651 l -1.03249,1.11828 1.01182,-0.76481 c 0.55638,-0.4204 1.19104,-0.64996 1.41077,-0.51005 0.21973,0.13991 0.47919,0.265 0.57619,0.2775 0.097,0.0125 0.54954,0.14964 1.00563,0.30489 0.53179,0.18103 0.97454,0.12892 1.23455,-0.14521 0.31443,-0.3315 0.20747,-0.37053 -0.47646,-0.17363 -0.83216,0.23957 -0.84864,0.21927 -0.28991,-0.36329 0.52762,-0.55008 0.65023,-0.55951 1.12397,-0.0858 0.41022,0.41022 0.4359,0.62767 0.11317,0.95292 -0.3235,0.32601 -0.27727,0.36839 0.20309,0.18551 0.47066,-0.17918 0.59623,-0.0773 0.51883,0.42013 -0.0562,0.3611 -0.24221,0.89442 -0.41341,1.18546 -0.17119,0.29104 0.0849,0.16923 0.56895,-0.27078 0.99233,-0.90209 1.19597,-1.89686 0.32143,-1.56993 -0.48449,0.18109 -0.49404,0.12945 -0.0713,-0.39016 0.4539,-0.55799 0.51705,-0.55902 0.91674,-0.0124 0.2736,0.3742 0.60824,0.48278 0.92346,0.29972 0.27197,-0.15795 0.098,0.157 -0.38706,0.6997 -0.93188,1.04257 -0.59637,0.94311 1.41077,-0.41858 l 0.88211,-0.59841 -0.85524,0.95394 c -0.47037,0.52472 -0.68831,0.95395 -0.48421,0.95395 0.20409,0 0.56875,-0.23813 0.81029,-0.52917 0.24155,-0.29104 0.68539,-0.52916 0.9865,-0.52916 0.41843,0 0.34618,0.22354 -0.30748,0.94826 l -0.85524,0.94826 1.01131,-0.76688 c 0.55638,-0.42185 1.15869,-0.67642 1.33842,-0.56534 0.17972,0.11107 0.58382,-0.01 0.89813,-0.26923 0.50946,-0.4202 0.5284,-0.39073 0.17519,0.27233 -0.21792,0.40909 -0.81314,1.01732 -1.32292,1.35134 -0.50979,0.33402 -0.8405,0.69379 -0.73484,0.79944 0.10565,0.10566 0.68727,-0.2246 1.29243,-0.73381 0.60517,-0.50922 1.28647,-0.92229 1.51412,-0.91829 0.22765,0.004 0.0174,0.33167 -0.46767,0.72709 l -0.88212,0.71882 1.23455,-0.56793 1.23507,-0.56792 -0.79375,0.69143 c -0.43656,0.38025 -0.79375,0.75793 -0.79375,0.83923 0,0.0814 0.35719,0.13529 0.79375,0.11989 0.54246,-0.0191 0.79433,0.17608 0.79633,0.61598 0.005,1.15353 1.04135,1.36835 1.94768,0.40359 0.44999,-0.47898 1.05669,-0.87126 1.34773,-0.87126 0.38648,0 0.299,0.24478 -0.32402,0.90795 -0.7915,0.84253 -0.80814,0.93349 -0.23047,1.25677 0.34243,0.19162 0.5306,0.49744 0.41806,0.67955 -0.11255,0.1821 -0.0273,0.33073 0.18965,0.33073 0.2169,0 0.28107,0.1832 0.14263,0.40721 -0.15721,0.25437 -0.0967,0.31187 0.16123,0.15244 0.22671,-0.1404 0.32837,-0.39256 0.22479,-0.56017 -0.20365,-0.3295 1.98631,-2.54054 2.25258,-2.27428 0.0886,0.0886 -0.16265,0.51763 -0.55862,0.95343 -0.73811,0.81237 -0.95521,2.02727 -0.36226,2.02727 0.18248,0 0.24629,-0.22329 0.1416,-0.4961 -0.28149,-0.73357 0.92396,-1.7286 1.45314,-1.19941 0.3138,0.3138 0.20346,0.6846 -0.46354,1.55908 -1.2562,1.64697 -1.07776,1.75073 0.37621,0.21911 l 1.25057,-1.31775 -0.72037,1.23507 c -1.08123,1.85306 -0.86941,2.07142 0.36121,0.37258 0.59638,-0.82326 1.17753,-1.40371 1.2914,-1.28984 0.11387,0.11387 -0.0324,0.48608 -0.32505,0.82682 -0.29268,0.34074 -0.64882,0.85773 -0.79168,1.14877 -0.14287,0.29104 0.22536,-0.0268 0.81855,-0.7059 0.5932,-0.6791 1.08279,-1.04551 1.08779,-0.81442 0.005,0.23108 -0.14911,0.51828 -0.34313,0.6382 -0.65171,0.40278 -0.36019,0.81767 0.44132,0.62839 0.78654,-0.18575 0.787,-0.18211 0.0879,0.41186 -0.38805,0.3297 -0.52347,0.50922 -0.30127,0.39894 0.2222,-0.11029 0.49898,0.0466 0.61494,0.34882 0.11598,0.30219 0.37169,0.45027 0.56845,0.32866 0.19677,-0.1216 0.45246,0.0259 0.56844,0.32815 0.11597,0.30223 0.31354,0.48657 0.43873,0.40927 0.12519,-0.0774 0.24645,0.75704 0.26975,1.85415 0.0237,1.11312 -0.0657,1.69398 -0.20257,1.31465 -0.21558,-0.59747 -0.27248,-0.60924 -0.46819,-0.0992 -0.12247,0.31915 -0.0632,0.67842 0.13178,0.79892 0.45846,0.28336 -0.28519,1.21491 -0.96997,1.21491 -0.37101,0 -0.41163,0.16242 -0.15813,0.63614 0.19627,0.36672 0.21187,0.84537 0.0362,1.12965 -0.16774,0.27132 -0.23806,0.60212 -0.15606,0.73484 0.082,0.13273 -0.16039,0.32216 -0.53899,0.42116 -0.47824,0.12508 -0.64418,0.4096 -0.54363,0.93173 0.08,0.4155 -0.005,0.65892 -0.18965,0.54466 -0.18389,-0.11364 -0.33435,-0.0216 -0.33435,0.20464 0,0.22628 -0.23813,0.31995 -0.52917,0.20826 -0.29591,-0.11355 -0.52916,-0.009 -0.52916,0.23668 0,0.79984 -1.06181,1.98443 -1.59526,1.77973 -0.28463,-0.10922 -0.41935,-0.35801 -0.2992,-0.55242 0.13882,-0.22458 0.31307,-0.20018 0.478,0.0667 0.14278,0.23097 0.24216,-0.0693 0.22066,-0.66715 -0.0376,-1.04602 -0.73496,-1.37194 -0.75396,-0.35243 -0.0152,0.81556 -0.56415,1.47759 -0.92552,1.11621 -0.19931,-0.19957 -0.19614,-0.66766 0.009,-1.20664 0.25191,-0.66257 0.22027,-0.88057 -0.12919,-0.88057 -0.25542,0 -0.38523,0.20723 -0.28783,0.46095 0.0974,0.25372 -0.0762,0.71487 -0.38603,1.02475 -0.51609,0.51606 -0.56619,0.47962 -0.59169,-0.43202 -0.0153,-0.54737 -0.10778,-0.7965 -0.20568,-0.55397 -0.36472,0.90383 -0.79568,0.40907 -0.46095,-0.52917 0.32389,-0.90788 0.31213,-0.92661 -0.185,-0.28577 -0.29502,0.3803 -0.53123,0.48884 -0.53123,0.24392 0,-0.2426 -0.15893,-0.34264 -0.35295,-0.22273 -0.19403,0.11992 -0.35512,0.56553 -0.35812,0.99064 -0.004,0.62838 -0.0693,0.67412 -0.34727,0.24391 -0.27237,-0.42146 -0.34848,-0.34949 -0.37258,0.35295 -0.0275,0.80234 -0.0557,0.81809 -0.31575,0.17622 -0.19114,-0.47181 -0.10644,-0.91009 0.2558,-1.32292 0.47983,-0.54666 0.48063,-0.61753 0.009,-0.61753 -0.29304,0 -0.69793,0.51611 -0.90021,1.1467 -0.35721,1.11363 -0.36911,1.11948 -0.40411,0.1974 -0.0198,-0.52213 -0.18611,-1.04235 -0.37,-1.156 -0.18384,-0.11365 -0.27259,0.11474 -0.19689,0.50798 0.15766,0.81868 -0.69505,1.00118 -0.99735,0.21342 -0.11174,-0.29118 -0.47568,-0.42793 -0.86713,-0.32556 -0.371,0.097 -0.92346,-0.0723 -1.22784,-0.37672 -0.41753,-0.41753 -0.60262,-0.44609 -0.75395,-0.11576 -0.1103,0.2408 -0.14739,-0.0385 -0.0827,-0.62063 0.0647,-0.58205 0.0506,-0.85779 -0.031,-0.61288 -0.0816,0.24488 -0.31985,0.33969 -0.52917,0.21032 -0.24232,-0.14975 -0.27679,-0.0677 -0.0951,0.22634 0.20792,0.33642 0.15064,0.37684 -0.21033,0.14832 -0.27251,-0.17253 -0.57479,-0.33015 -0.67179,-0.34985 -0.83605,-0.17002 -1.41801,-0.70494 -1.45211,-1.33532 -0.0375,-0.69361 -0.055,-0.69954 -0.21549,-0.0682 -0.15601,0.61358 -0.28766,0.55624 -1.21491,-0.52916 -0.96232,-1.12647 -1.02546,-1.1515 -0.84595,-0.33538 0.17099,0.77735 0.13743,0.76028 -0.2837,-0.14366 -0.3425,-0.73516 -0.54286,-0.88501 -0.70642,-0.52917 -0.1255,0.27303 -0.15934,0.13036 -0.0754,-0.31729 0.13314,-0.71036 0.0802,-0.75542 -0.41652,-0.35295 -0.33868,0.27446 -0.46997,0.2957 -0.32401,0.0522 0.13486,-0.22502 0.13778,-0.68963 0.006,-1.0325 -0.22276,-0.58047 -0.25741,-0.57667 -0.50539,0.0563 -0.24349,0.62166 -0.26876,0.62495 -0.29146,0.0413 -0.0136,-0.351 -0.17737,-0.54342 -0.36432,-0.42788 -0.18694,0.11554 -0.63342,-0.0836 -0.99218,-0.44235 -0.35875,-0.35875 -0.84478,-0.61454 -1.08004,-0.56844 -0.23522,0.0461 -0.26503,0.003 -0.0661,-0.0956 0.64914,-0.32193 0.37968,-0.76476 -0.34933,-0.57413 -0.48655,0.12724 -0.67174,0.0333 -0.58704,-0.29765 0.0681,-0.2659 0.0571,-0.36411 -0.0243,-0.21859 -0.27303,0.4882 -1.14722,0.27035 -1.14722,-0.28577 0,-0.32587 0.16587,-0.44733 0.40721,-0.29818 0.25437,0.15721 0.31136,0.0967 0.15193,-0.16123 -0.33103,-0.53562 -0.90429,-0.176 -0.93999,0.58963 -0.0173,0.37082 -0.0956,0.42845 -0.20671,0.15296 -0.0983,-0.24374 -0.36314,-0.33518 -0.58911,-0.2036 -0.22596,0.13157 -0.0935,-0.1328 0.29456,-0.58756 0.38805,-0.45476 0.50712,-0.71078 0.26458,-0.56896 -0.28281,0.16537 -0.45091,0.029 -0.46871,-0.38034 -0.0162,-0.37024 -0.10244,-0.45323 -0.20567,-0.1974 -0.26368,0.65347 -0.82444,0.5346 -0.83044,-0.17622 -0.005,-0.52845 -0.055,-0.54132 -0.35192,-0.0884 -0.24915,0.38009 -0.28818,0.22069 -0.13745,-0.56637 0.28777,-1.50274 -0.63064,-1.848 -1.60869,-0.60461 -0.66914,0.85063 -0.71882,0.86279 -0.71882,0.18086 0,-0.40277 -0.14395,-0.82092 -0.31988,-0.92966 -0.1759,-0.10873 -0.23348,0.15952 -0.12816,0.59635 0.13112,0.54387 0.0758,0.6829 -0.17518,0.44132 -0.20159,-0.19402 -0.42156,-0.65691 -0.48886,-1.02888 -0.16102,-0.88946 -1.00086,-1.15641 -1.01596,-0.32298 -0.0103,0.56655 -0.0981,0.543 -0.7059,-0.18655 -0.43297,-0.51973 -0.704,-0.65201 -0.7214,-0.35243 -0.0207,0.35712 -0.0733,0.36678 -0.20567,0.0388 -0.0979,-0.24253 -0.40313,-0.4408 -0.678,-0.4408 -0.32357,0 -0.50841,-0.40439 -0.52451,-1.1467 -0.0208,-0.9608 -0.0741,-1.03206 -0.32815,-0.4408 -0.28638,0.66655 -0.30423,0.66051 -0.32763,-0.10903 -0.0136,-0.44801 -0.17715,-0.72016 -0.36328,-0.60513 -0.31016,0.19169 -1.7128,-0.40623 -2.13114,-0.90848 -0.097,-0.11647 -0.5334,-0.40003 -0.96996,-0.62993 -0.43657,-0.2299 -0.79375,-0.6414 -0.79375,-0.91416 0,-0.27277 -0.1832,-0.6088 -0.40721,-0.74724 -0.25237,-0.15596 -0.31202,-0.0968 -0.15607,0.15555 0.40435,0.65426 -0.10666,0.47008 -0.95084,-0.34262 -0.53717,-0.51715 -0.64205,-0.80028 -0.33797,-0.91157 0.24254,-0.0888 0.43863,-0.42593 0.43563,-0.74931 -0.005,-0.50854 -0.052,-0.51659 -0.34778,-0.0589 -0.18809,0.29104 -0.35547,0.37025 -0.37207,0.17622 -0.0166,-0.19402 -0.16655,-0.0351 -0.33331,0.35295 -0.24538,0.57104 -0.30805,0.59254 -0.32815,0.11214 -0.0136,-0.32647 -0.34213,-0.69437 -0.73018,-0.81753 -0.38806,-0.12317 -0.70539,-0.34724 -0.70539,-0.49764 0,-0.1504 -0.55596,-0.57272 -1.23506,-0.93844 -0.6791,-0.36571 -1.23455,-0.89328 -1.23455,-1.17254 0,-0.27921 -0.0976,-0.40989 -0.21705,-0.29042 -0.30655,0.30656 -3.65744,-1.49859 -3.69124,-1.98851 -0.0181,-0.26245 -0.0906,-0.24918 -0.20671,0.0387 -0.22129,0.54889 -0.83179,0.22515 -0.68988,-0.36586 0.0567,-0.23637 0.0345,-0.304 -0.0496,-0.15038 -0.0841,0.15362 -0.37585,0.0941 -0.64802,-0.13178 -0.39816,-0.33047 -0.49454,-0.264 -0.49454,0.33848 0,0.41182 0.17387,0.70893 0.38654,0.66043 0.21267,-0.0485 0.52796,0.27707 0.70073,0.72347 0.20211,0.52224 0.19033,0.73473 -0.0336,0.59634 -0.19141,-0.1183 -0.3483,-0.47046 -0.3483,-0.78238 0,-0.31192 -0.10436,-0.46253 -0.23203,-0.33486 -0.37422,0.37422 -1.15544,-0.4715 -0.94413,-1.02216 0.10627,-0.27686 0.0802,-0.78131 -0.0584,-1.12086 -0.23133,-0.56673 -0.27627,-0.55933 -0.5426,0.0884 l -0.28991,0.70539 -0.03,-0.70539 c -0.0166,-0.38806 -0.19943,-0.94402 -0.40618,-1.23506 -0.29059,-0.40907 -0.32889,-0.31302 -0.16898,0.42219 0.18306,0.84165 0.009,0.74003 -1.51257,-0.88211 -4.14378,-4.41827 -4.26237,-4.58409 -3.57652,-5.00797 0.19403,-0.11992 0.35295,-0.0547 0.35295,0.1447 0,0.19936 0.26417,0.26083 0.58704,0.13694 0.36574,-0.14031 0.50001,-0.0843 0.35657,0.14779 -0.12666,0.20494 0.12527,0.47005 0.55965,0.58912 0.51322,0.14068 0.64707,0.30865 0.38241,0.48059 -0.22401,0.14552 0.28423,0.26458 1.12913,0.26458 0.84489,0 1.74248,0.20986 1.99471,0.46612 0.37872,0.38478 0.2999,0.427 -0.45269,0.24133 -0.6848,-0.16895 -0.91157,-0.0891 -0.91157,0.32194 0,0.37911 0.12762,0.44157 0.41496,0.20309 0.22805,-0.18927 0.49495,-0.26366 0.59325,-0.16536 0.0983,0.0983 0.70669,-0.0434 1.35185,-0.31471 l 1.17306,-0.49299 -1.48105,-0.25012 c -0.81457,-0.13762 -2.43502,-0.72693 -3.60081,-1.30948 -1.0445,-0.52194 -1.833,-0.79935 -2.36058,-0.83199 z m 6.43785,3.48506 c -0.29104,0 -0.52917,0.14157 -0.52917,0.31471 0,0.17312 -0.13235,0.23322 -0.29404,0.13332 -0.16169,-0.0999 -0.29404,0.0355 -0.29404,0.30128 0,0.39312 0.15357,0.38295 0.82321,-0.0558 0.96857,-0.63459 0.99353,-0.6935 0.29404,-0.6935 z m 16.0662,0.41806 c -0.5182,-0.0145 -0.96644,0.0576 -0.85989,0.22996 0.31253,0.50568 -0.82252,0.72176 -1.60146,0.30489 -0.50695,-0.27132 -0.92984,-0.28299 -1.35082,-0.0377 -0.4859,0.2831 -0.50287,0.3603 -0.0832,0.3731 0.47037,0.0143 0.47037,0.0575 0,0.39016 -0.47037,0.33265 -0.47037,0.35644 0,0.21497 0.29104,-0.0875 0.4893,-0.33775 0.4408,-0.55603 -0.10759,-0.48416 0.26295,-0.50084 0.96997,-0.0439 0.35278,0.22798 0.38235,0.34327 0.0884,0.34727 -0.24254,0.003 -0.4408,0.16967 -0.4408,0.37052 0,0.24636 0.23173,0.24133 0.71261,-0.016 0.39206,-0.20979 0.86832,-0.28538 1.05834,-0.16795 0.57554,0.3557 1.20269,-0.21796 0.64802,-0.59273 -0.39023,-0.26388 -0.38126,-0.31275 0.0501,-0.26665 1.01291,0.10817 1.87993,-0.0285 1.64847,-0.25993 -0.17428,-0.17428 -0.76234,-0.27545 -1.28054,-0.28991 z m -11.17709,1.00046 c -0.2233,7e-5 -0.65119,0.0943 -1.09968,0.25063 -1.09028,0.38007 -1.6717,1.17272 -1.30069,1.77302 0.26881,0.43494 1.12067,0.40593 1.40094,-0.0476 0.12516,-0.20252 0.0511,-0.58109 -0.16484,-0.84129 -0.30749,-0.3705 -0.1902,-0.52404 0.54053,-0.70745 0.51318,-0.1288 0.86045,-0.30641 0.77205,-0.39481 -0.0221,-0.0221 -0.0739,-0.0326 -0.14831,-0.0326 z m 15.43368,0.27543 c 0.13786,0.0506 0.18822,0.26132 0.21807,0.65733 0.0292,0.38805 -0.10527,0.7059 -0.29869,0.7059 -0.19345,0 -0.25375,-0.15892 -0.13384,-0.35295 0.11992,-0.19402 -0.0691,-0.35512 -0.42013,-0.35812 -0.54109,-0.005 -0.5577,-0.0573 -0.10903,-0.34727 0.38003,-0.2456 0.60576,-0.35548 0.74362,-0.30489 z m -14.54588,0.13074 c -0.18151,0.003 -0.37099,0.0494 -0.5395,0.15452 -0.58794,0.36663 -0.57436,0.38501 0.14211,0.18913 0.51158,-0.13986 0.79375,-0.062 0.79375,0.21859 0,0.23948 0.10874,0.3269 0.24132,0.19431 0.37963,-0.37964 -0.0932,-0.76504 -0.63768,-0.75655 z m 15.63574,0.2403 c 0.0307,-0.0221 0.10856,0.002 0.22892,0.0765 0.224,0.13844 0.40721,0.40086 0.40721,0.58343 0,0.18258 -0.27798,0.31967 -0.61753,0.30437 -0.37244,-0.0168 -0.44151,-0.0989 -0.17415,-0.2067 0.24367,-0.0983 0.33853,-0.3481 0.21032,-0.55553 -0.0689,-0.11147 -0.0855,-0.17996 -0.0548,-0.20205 z m -7.28897,0.42736 c -0.10751,0.0256 -0.24325,0.20053 -0.34261,0.46147 -0.19144,0.50278 -0.15101,0.54323 0.1974,0.19741 0.24109,-0.2393 0.34943,-0.52391 0.24082,-0.63252 -0.0272,-0.0272 -0.0598,-0.0349 -0.0956,-0.0264 z m 1.94821,0.21239 c -0.20548,0 -0.37362,0.15841 -0.37362,0.35244 0,0.19403 0.0699,0.35295 0.15554,0.35295 0.0856,0 0.2537,-0.15892 0.37362,-0.35295 0.11991,-0.19403 0.0499,-0.35244 -0.15554,-0.35244 z m -3.37654,0.87282 c -0.0592,-0.0247 -0.17324,-0.01 -0.33021,0.0506 -0.30112,0.11555 -0.54726,0.27252 -0.54726,0.34882 0,0.28572 0.67237,0.1254 0.87954,-0.20981 0.0618,-0.1 0.0571,-0.16492 -0.002,-0.18965 z m -1.70791,0.57981 c -0.12373,-0.008 -0.27662,9.5e-4 -0.46509,0.0233 -0.51862,0.0614 -1.01507,0.34975 -1.10277,0.64079 -0.12871,0.42706 -0.0692,0.44373 0.30799,0.0879 0.6387,-0.60255 1.38493,-0.55486 1.38493,0.0884 0,0.29104 0.0792,0.52916 0.17622,0.52916 0.097,0 0.17621,-0.32821 0.17621,-0.72915 0,-0.43715 -0.10628,-0.61579 -0.47749,-0.64027 z m 14.20689,0.002 c 0.12255,0.005 0.22819,0.0375 0.2868,0.0961 0.11722,0.11719 -0.0911,0.2003 -0.46302,0.185 -0.41097,-0.0169 -0.49484,-0.10029 -0.21342,-0.21291 0.12733,-0.0509 0.26708,-0.0733 0.38964,-0.0682 z m 1.06712,0.30902 c 0.20548,0 0.37362,0.15892 0.37362,0.35295 0,0.19403 -0.0699,0.35295 -0.15555,0.35295 -0.0856,0 -0.25371,-0.15892 -0.37362,-0.35295 -0.11992,-0.19403 -0.0499,-0.35295 0.15555,-0.35295 z m 1.14618,0.35864 c 0.3281,-0.003 0.69503,0.15323 0.81494,0.34726 0.27593,0.44647 -0.19125,0.44647 -0.88212,0 -0.456,-0.29468 -0.44691,-0.34226 0.0672,-0.34726 z m 2.12183,0.71417 c 0.35304,-0.009 0.63302,0.0722 0.63252,0.25011 v 5.2e-4 c -4.4e-4,0.14552 -0.48992,0.28184 -1.08779,0.30334 -0.71729,0.0258 -0.92696,-0.0621 -0.6165,-0.2589 0.29277,-0.18561 0.71874,-0.28586 1.07177,-0.29507 z m 2.20194,0.57102 c 0.0832,1.2e-4 0.17807,0.0137 0.2837,0.0413 0.52209,0.13653 0.56897,0.24514 0.20567,0.47543 -0.66617,0.42228 -0.88212,0.38022 -0.88212,-0.17157 0,-0.22487 0.14304,-0.34556 0.39275,-0.3452 z m -28.56777,0.63614 c 0.0213,0.008 0.0443,0.0407 0.0687,0.10128 0.0979,0.24254 0.0979,0.63958 0,0.88212 -0.0978,0.24253 -0.17777,0.0443 -0.17777,-0.4408 0,-0.3638 0.0452,-0.56637 0.10904,-0.5426 z m 32.69154,0.26458 c 0.26422,0.0881 0.10444,0.24784 -0.37258,0.37259 -0.5868,0.15344 -0.72429,0.10778 -0.46251,-0.154 0.205,-0.20498 0.5806,-0.30339 0.83509,-0.21859 z m -32.07969,0.27802 c 0.0485,0 0.13883,0.14682 0.31006,0.4408 0.19777,0.33954 0.51989,0.61753 0.71572,0.61753 0.1958,0 0.23666,-0.19877 0.0909,-0.44131 -0.1574,-0.262 0.0124,-0.22605 0.41858,0.0884 1.15807,0.89633 1.56838,1.34605 1.56838,1.71876 0,0.19688 0.35321,0.60487 0.78444,0.90692 0.43121,0.30204 0.63736,0.54932 0.45837,0.54932 -0.17898,0 -0.13464,0.1904 0.0982,0.42323 0.23284,0.23284 0.42323,0.70909 0.42323,1.05834 0,0.34925 0.17537,0.6351 0.39016,0.6351 0.21483,0 0.29641,-0.24665 0.18086,-0.54777 -0.12786,-0.3332 -0.0646,-0.45699 0.16227,-0.31678 0.20503,0.12672 0.29745,0.42715 0.20515,0.66766 -0.0923,0.2405 -0.009,0.66087 0.18552,0.93431 0.27985,0.3937 0.31229,0.36898 0.15503,-0.11989 -0.10923,-0.33955 -0.0448,-0.61753 0.14314,-0.61753 0.18794,0 0.34159,0.12476 0.34159,0.2775 0,0.15274 0.34312,0.30378 0.76222,0.33538 0.89086,0.0671 1.34227,0.65793 1.34927,1.76837 0.008,1.12461 -0.26721,0.98367 -0.68884,-0.35295 l -0.36174,-1.14618 0.17725,1.20096 c 0.19906,1.34865 0.79291,2.24501 1.28571,1.94045 0.1799,-0.11121 0.23444,-0.54611 0.12144,-0.96635 -0.1859,-0.69134 -0.15795,-0.68333 0.29146,0.0832 0.36545,0.62332 0.54844,0.71618 0.69246,0.35243 0.11819,-0.29848 0.20696,-0.32759 0.22376,-0.0739 0.0153,0.23108 -0.13101,0.51829 -0.32504,0.63821 -0.55588,0.34355 -0.41138,0.88228 0.17621,0.6568 0.35413,-0.13589 0.528,0.0133 0.524,0.45166 -0.005,0.55207 -0.0596,0.57202 -0.34778,0.12609 -0.29228,-0.45222 -0.34227,-0.43924 -0.34727,0.0884 -0.003,0.33954 -0.1733,0.61702 -0.37878,0.61702 -0.20549,0 -0.27607,-0.15736 -0.1571,-0.34985 0.11896,-0.19249 0.0534,-0.62888 -0.14521,-0.96997 -0.33328,-0.57236 -0.36307,-0.56591 -0.38447,0.0853 -0.0209,0.63397 -0.077,0.61624 -0.55449,-0.17622 l -0.53124,-0.88211 0.20568,0.88211 0.20567,0.8816 -0.51522,-0.8816 c -0.28341,-0.48507 -0.64698,-0.84225 -0.80822,-0.79375 -0.16124,0.0485 -0.31314,-0.0705 -0.33744,-0.26458 -0.0243,-0.19402 -0.0636,-0.52109 -0.0879,-0.72657 -0.0242,-0.20547 -0.20683,-0.27327 -0.40566,-0.15038 -0.19883,0.12286 -0.33889,0.0928 -0.31109,-0.0672 0.11877,-0.6837 -0.056,-1.20016 -0.34572,-1.02112 -0.36216,0.22383 -1.29734,-0.77644 -1.00201,-1.07177 0.10852,-0.10852 -0.19123,-0.97123 -0.66662,-1.91772 -0.84511,-1.68257 -1.54668,-2.49461 -1.54668,-1.79007 0,0.19402 0.14899,0.44475 0.33073,0.55707 0.31338,0.19368 1.43351,2.21791 1.43351,2.59054 0,0.0963 -0.45351,-0.44425 -1.00718,-1.20096 -0.55368,-0.75672 -1.34725,-1.6783 -1.76371,-2.04793 -0.41646,-0.36962 -0.75706,-0.88522 -0.75706,-1.14619 0,-0.26097 -0.15892,-0.47439 -0.35295,-0.47439 -0.19403,0 -0.3481,-0.27799 -0.3421,-0.61753 0.005,-0.29398 0.012,-0.4408 0.0605,-0.4408 z m 33.44292,0.0455 c 0.15985,0 0.31953,0.0244 0.4408,0.0734 0.24253,0.0978 0.0443,0.17828 -0.4408,0.17828 -0.48508,0 -0.68385,-0.0804 -0.44132,-0.17828 0.12127,-0.0489 0.28147,-0.0734 0.44132,-0.0734 z m 1.62006,0.47387 c 0.17463,-0.001 0.48941,0.11581 1.04954,0.34985 0.69228,0.28925 1.3668,0.49687 1.49914,0.46147 0.13234,-0.0354 0.79626,0.11281 1.47536,0.32918 0.6791,0.21638 1.67146,0.49009 2.20503,0.60823 0.53358,0.11813 0.96997,0.35215 0.96997,0.51986 0,0.16771 -0.43336,0.38757 -0.96325,0.48886 -0.91883,0.17565 -0.93107,0.16019 -0.26458,-0.33486 0.66624,-0.49487 0.65564,-0.50853 -0.23255,-0.29094 -0.54055,0.13242 -1.03217,0.066 -1.17098,-0.15865 -0.13159,-0.21294 -0.3873,-0.29612 -0.56793,-0.18448 -0.18062,0.11163 -0.32814,0.0162 -0.32814,-0.21187 0,-0.24103 -0.29562,-0.33712 -0.70539,-0.22996 -0.38787,0.10143 -0.79412,0.0404 -0.90278,-0.1354 -0.10865,-0.17581 -0.66444,-0.31987 -1.23507,-0.31987 -0.69114,0 -1.03766,-0.17816 -1.03766,-0.53382 0,-0.23761 0.0346,-0.35649 0.20929,-0.3576 z m -13.26173,0.53898 c 0.19403,0 0.35244,0.15842 0.35244,0.35244 0,0.19403 -0.15841,0.35295 -0.35244,0.35295 -0.19403,0 -0.35295,-0.15892 -0.35295,-0.35295 0,-0.19402 0.15892,-0.35244 0.35295,-0.35244 z m 3.21634,0 c -0.19403,0 -0.4511,0.15893 -0.57102,0.35295 -0.11991,0.19403 -0.0591,0.35295 0.13487,0.35295 0.19403,0 0.45059,-0.15892 0.57051,-0.35295 0.11991,-0.19402 0.0597,-0.35295 -0.13436,-0.35295 z m -23.42131,0.15038 c -0.11616,-0.0442 -0.11353,0.14334 0.002,0.58343 0.12475,0.47703 0.28501,0.6368 0.37311,0.37259 0.0848,-0.25451 -0.0136,-0.63061 -0.21859,-0.83561 -0.0654,-0.0654 -0.11735,-0.10568 -0.15607,-0.12041 z m 7.68842,0.99167 c -0.032,0.0122 -0.0673,0.0427 -0.1049,0.093 -0.14481,0.19403 -0.40679,0.47201 -0.58239,0.61753 -0.17561,0.14552 -0.0546,0.26459 0.26871,0.26459 0.32684,0 0.5854,-0.27436 0.5824,-0.61754 -0.002,-0.26421 -0.0678,-0.39406 -0.16382,-0.3576 z m 33.80259,0.45476 c 0.18184,-0.0292 0.42955,0.0767 0.86403,0.29869 0.52614,0.26881 1.47264,0.60007 2.10323,0.73587 1.23804,0.26661 1.48046,0.69284 0.5886,1.03508 -0.80165,0.30764 -0.93063,0.26944 -0.76481,-0.22686 0.20246,-0.60598 -1.83328,-1.25989 -2.83187,-0.90951 -0.72175,0.25323 -0.76565,0.21048 -0.42788,-0.42064 0.17078,-0.31911 0.28686,-0.48346 0.4687,-0.51263 z m 4.89479,1.93063 c 0.15245,0 0.27751,0.13236 0.27751,0.29404 0,0.1617 0.50725,0.29403 1.12706,0.29403 0.61981,0 1.1885,0.18551 1.264,0.41187 0.0755,0.22637 0.37153,0.41134 0.65785,0.41134 0.28636,0 0.42222,0.15893 0.3023,0.35295 -0.11992,0.19403 0.0736,0.35243 0.42995,0.35243 0.75367,0 2.06909,1.38381 1.92856,2.02882 -0.0528,0.24254 0.12331,0.4408 0.39171,0.4408 0.26841,0 0.66633,0.39106 0.88419,0.8692 0.24837,0.54516 0.2692,0.94795 0.0563,1.07952 -0.18671,0.11539 -0.33951,0.0678 -0.33951,-0.10542 0,-0.66682 -2.78523,-3.31975 -3.24063,-3.08663 -0.25478,0.13042 -0.15494,-0.0124 0.22169,-0.31781 0.55317,-0.4486 0.57829,-0.55553 0.13126,-0.55553 -0.30437,0 -0.75116,-0.23812 -0.9927,-0.52916 -0.53239,-0.64149 -1.5465,-0.71441 -1.22939,-0.0884 0.12286,0.24253 -0.0192,0.14281 -0.31574,-0.22169 -0.3089,-0.37966 -0.81532,-0.59031 -1.18546,-0.49351 -0.45436,0.11882 -0.64595,-0.0251 -0.64595,-0.48421 0,-0.35902 0.12453,-0.65267 0.27698,-0.65267 z m -21.56561,5.1e-4 c -0.73282,0 -0.95253,0.37039 -0.49247,0.83044 0.32684,0.32684 0.91595,0.10419 1.08779,-0.41134 0.078,-0.23401 -0.18478,-0.4191 -0.59532,-0.4191 z m 17.90692,0.11266 c 0.0358,0.002 0.0553,0.0145 0.0553,0.0388 0,0.097 -0.31733,0.34629 -0.70539,0.55397 -0.38805,0.20721 -0.70538,0.29802 -0.70538,0.20102 0,-0.097 0.31733,-0.34629 0.70538,-0.55397 0.29105,-0.15541 0.5426,-0.2454 0.65009,-0.23978 z m -16.46514,0.0341 c -0.12366,0.0319 -0.27409,0.21681 -0.524,0.57361 -0.31047,0.44332 -0.48278,0.93882 -0.38241,1.10123 0.47899,0.77502 1.72015,-0.52522 1.26969,-1.33015 -0.14295,-0.25545 -0.23962,-0.37659 -0.36328,-0.34469 z m -7.25434,0.20619 c -0.47625,0 -0.91932,0.72051 -0.91932,1.49449 0,0.20823 0.31732,0.0913 0.70538,-0.25994 0.82383,-0.74556 0.90848,-1.23455 0.21394,-1.23455 z m 26.41648,0.16692 c 0.0592,0.0247 0.0639,0.0897 0.002,0.18965 -0.11854,0.1918 -0.36519,0.3483 -0.54777,0.3483 -0.50744,0 -0.39567,-0.25278 0.21549,-0.48731 0.15698,-0.0602 0.27102,-0.0754 0.33022,-0.0506 z m -8.00003,0.18603 c -0.097,0 -0.46376,0.31733 -0.81494,0.70539 -0.35119,0.38805 -0.5595,0.70538 -0.4625,0.70538 0.097,0 0.46375,-0.31733 0.81493,-0.70538 0.35119,-0.38806 0.55951,-0.70539 0.46251,-0.70539 z m 4.14445,0.70487 c 0.0856,0 0.15554,0.15893 0.15554,0.35295 0,0.19403 -0.16815,0.35243 -0.37362,0.35243 -0.20547,0 -0.27546,-0.1584 -0.15554,-0.35243 0.11991,-0.19402 0.28802,-0.35295 0.37362,-0.35295 z m -38.1832,0.42478 c -0.0727,-0.009 -0.11369,0.0409 -0.11369,0.15141 0,0.2005 0.10578,0.47062 0.23513,0.59997 0.12935,0.1293 0.3173,0.15296 0.41754,0.0527 0.10025,-0.10025 -0.006,-0.37036 -0.23513,-0.59997 -0.12657,-0.12656 -0.23113,-0.1949 -0.30385,-0.20412 z m 39.53298,0.12041 c 0.089,0.0266 0.10617,0.13952 0.076,0.3452 -0.12984,0.88468 -0.79374,1.35092 -1.03353,0.72605 -0.12693,-0.33079 0.051,-0.68714 0.4501,-0.90072 0.25726,-0.13769 0.41848,-0.19718 0.50746,-0.17053 z m -35.47225,0.16019 c 0.16169,0 0.29404,0.23813 0.29404,0.52917 0,0.59949 -0.026,0.62103 -0.35295,0.29404 -0.32883,-0.32884 -0.29341,-0.82321 0.0589,-0.82321 z m -2.25257,1.05834 c -0.097,0 0.07,0.47624 0.37103,1.05833 0.30101,0.58208 0.62699,1.05833 0.72399,1.05833 0.097,0 -0.07,-0.47625 -0.37104,-1.05833 -0.30101,-0.58209 -0.62698,-1.05833 -0.72398,-1.05833 z m 39.92056,0.36225 c 0.0926,0.0353 0.0646,0.18328 -0.16847,0.46405 -0.21606,0.26039 -0.31086,0.55524 -0.21084,0.65526 0.10002,0.10002 -0.0461,0.37093 -0.32453,0.60203 -0.79178,0.65712 -1.10875,-0.23403 -0.37258,-1.04748 0.43279,-0.47823 0.92205,-0.73273 1.07642,-0.67386 z m -31.86628,0.47749 c -0.0371,0.0371 -0.0623,0.1609 -0.0708,0.36639 -0.0153,0.37191 0.0683,0.58025 0.18552,0.46302 0.1172,-0.11723 0.12981,-0.42179 0.0279,-0.67645 -0.0563,-0.14071 -0.10553,-0.19005 -0.14263,-0.15296 z m 35.70429,0.38602 c 0.0592,0.0247 0.0633,0.0897 0.002,0.18965 -0.11854,0.19181 -0.36468,0.34882 -0.54726,0.34882 -0.50745,0 -0.39567,-0.25279 0.21549,-0.48731 0.15698,-0.0602 0.27102,-0.0759 0.33022,-0.0512 z m -19.47634,0.67231 c -0.0371,0.0371 -0.0623,0.16091 -0.0708,0.36639 -0.0153,0.37193 0.0683,0.58024 0.18552,0.46302 0.1172,-0.11723 0.12928,-0.42179 0.0274,-0.67645 -0.0563,-0.14071 -0.10501,-0.19005 -0.14211,-0.15296 z m 17.39688,0.39068 c -0.12287,0.0141 -0.26738,0.0829 -0.41342,0.20412 -0.27166,0.22544 -0.40205,0.55853 -0.2899,0.74 0.12059,0.19517 0.40556,0.16231 0.69763,-0.0801 0.27166,-0.22543 0.40206,-0.55803 0.28991,-0.73949 -0.0603,-0.0976 -0.16136,-0.13861 -0.28422,-0.12454 z m -12.07834,0.62528 c -0.0458,0.0194 -0.0123,0.146 0.0806,0.38809 0.12221,0.31848 0.36365,0.57929 0.53692,0.57929 0.45366,0 0.38994,-0.20456 -0.22221,-0.71261 -0.22461,-0.18641 -0.3495,-0.27415 -0.39533,-0.25477 z m -18.72444,0.39481 c 0.0371,-0.0371 0.0863,0.0122 0.14263,0.15296 0.10196,0.25466 0.0893,0.55871 -0.0279,0.67593 -0.11718,0.11723 -0.20031,-0.0911 -0.18501,-0.46302 0.008,-0.20549 0.0332,-0.32878 0.0703,-0.36587 z m 20.29282,0.39842 c -0.19971,0.022 -0.28267,0.24588 -0.28267,0.71417 0,1.04407 0.20355,1.10343 0.68678,0.20051 0.27157,-0.50744 0.23137,-0.71891 -0.16433,-0.87075 -0.0937,-0.036 -0.17321,-0.0512 -0.23978,-0.0439 z m 16.90646,0.67645 c 0.0387,0.0147 0.0906,0.0555 0.15607,0.12092 0.20497,0.205 0.30339,0.5811 0.21859,0.83561 -0.0881,0.26421 -0.24785,0.10393 -0.37259,-0.3731 -0.11509,-0.4401 -0.11823,-0.62763 -0.002,-0.58343 z m -34.43562,0.40876 c 0.0632,0.003 0.13276,0.0174 0.20722,0.046 0.37832,0.14517 0.44254,0.28257 0.17415,0.37207 -0.23393,0.078 -0.33602,0.2866 -0.22634,0.46406 0.23162,0.37482 0.0314,0.43133 -0.31213,0.0879 -0.43041,-0.43041 -0.28513,-0.98998 0.1571,-0.96997 z m 40.91326,0.87591 c 0.212,-0.0231 0.32195,0.10558 0.32195,0.38758 0,0.2264 -0.10021,0.31166 -0.22273,0.18913 -0.12253,-0.12252 -0.55891,-0.061 -0.96996,0.13695 -0.72647,0.34975 -0.72815,0.34465 -0.0625,-0.18862 0.40751,-0.32649 0.72128,-0.50189 0.93327,-0.52504 z m -4.64622,0.0196 c 0.12255,0.005 0.22819,0.0375 0.2868,0.0961 0.11723,0.11719 -0.0911,0.20082 -0.46302,0.18552 -0.41097,-0.0169 -0.49485,-0.10081 -0.21342,-0.21343 0.12732,-0.051 0.26708,-0.0732 0.38964,-0.0682 z m -3.78065,0.66714 c -0.044,0.0203 -0.0703,0.11769 -0.0703,0.30903 0,0.23778 -0.18372,0.31932 -0.40773,0.18087 -0.25437,-0.15721 -0.31136,-0.0967 -0.15193,0.16123 0.1404,0.22717 0.40333,0.32195 0.58395,0.21032 0.45037,-0.27834 0.41353,0.01 -0.18294,1.43712 -0.57,1.36419 -0.62913,1.39229 -1.71669,0.81287 -0.69656,-0.37112 -0.72447,-0.35383 -0.2868,0.17674 0.62492,0.75759 1.52241,0.74609 2.3952,-0.0305 0.54616,-0.48593 0.6413,-0.86528 0.44752,-1.78181 -0.19033,-0.90015 -0.47831,-1.5367 -0.6103,-1.47588 z m -26.43043,0.4806 c -0.0371,0.0371 -0.0624,0.1609 -0.0708,0.36638 -0.0153,0.37192 0.0683,0.58025 0.18552,0.46302 0.1172,-0.11723 0.12982,-0.42178 0.0279,-0.67644 -0.0563,-0.14071 -0.10554,-0.19006 -0.14263,-0.15296 z m 25.38915,0.70745 c -0.15551,0.017 -0.30778,0.3268 -0.55139,1.0113 -0.12084,0.33955 -0.066,0.61702 0.12196,0.61702 0.18794,0 0.3421,-0.16814 0.3421,-0.37362 0,-0.20547 0.1584,-0.27547 0.35243,-0.15555 0.43044,0.26602 0.45127,-0.17992 0.0388,-0.83095 -0.11592,-0.18294 -0.21055,-0.27838 -0.30386,-0.2682 z m 6.5102,0.67696 c 0.063,0.0122 0.10123,0.059 0.0997,0.13746 -0.003,0.15698 -0.15969,0.52388 -0.34778,0.81493 -0.29468,0.45601 -0.34227,0.4464 -0.34727,-0.0677 -0.003,-0.3281 0.15324,-0.6945 0.34727,-0.81442 0.097,-0.0599 0.18508,-0.0825 0.24805,-0.0703 z m -22.38468,0.25114 c -0.5276,0.005 -0.54007,0.0555 -0.0879,0.34779 0.66575,0.43025 0.70538,0.43025 0.70538,0 0,-0.19403 -0.27798,-0.35079 -0.61753,-0.34779 z m 27.34096,0.0284 c 0.5343,0.0302 1.07383,0.2629 1.62781,0.69866 0.74371,0.58503 0.88341,0.91996 0.69867,1.67535 -0.12702,0.51939 -0.37894,1.04143 -0.55966,1.16014 -0.18073,0.11871 -0.31779,0.35683 -0.30489,0.52916 0.0129,0.17234 -0.34657,0.41233 -0.79892,0.53331 -2.31584,0.61934 -4.17646,-2.73862 -2.26084,-4.08038 0.53438,-0.37429 1.06353,-0.54642 1.59783,-0.51624 z m -15.61972,0.10593 c -0.0349,0.0468 -0.0122,0.2016 0.0594,0.47543 0.23266,0.88971 -0.43553,1.35518 -1.12448,0.78341 -0.31702,-0.26314 -0.51366,-0.28616 -0.51366,-0.0599 0,0.20161 0.19827,0.44612 0.4408,0.54312 1.02415,0.40966 2.15516,-0.83795 1.42317,-1.56993 -0.15796,-0.15795 -0.25036,-0.21893 -0.28526,-0.17209 z m 15.90859,0.67231 c -1.15505,0.0328 -2.16211,1.34363 -1.37717,2.12856 0.33294,0.33299 1.96649,0.28249 2.53628,-0.0786 0.64133,-0.40636 0.20916,-1.70509 -0.6594,-1.98076 -0.16623,-0.0528 -0.3347,-0.0739 -0.49971,-0.0692 z m -0.15916,0.4253 c 0.19415,-0.003 0.31058,0.12556 0.31058,0.36225 0,0.28495 -0.23813,0.5178 -0.52917,0.5178 -0.29104,0 -0.52917,-0.14144 -0.52917,-0.31471 0,-0.17327 0.23813,-0.40663 0.52917,-0.51831 0.0806,-0.0309 0.15387,-0.0461 0.21859,-0.047 z m -7.691,0.73949 c 0.11352,-0.0828 0.14744,0.11328 0.11834,0.61547 -0.0298,0.51467 -0.17333,0.93623 -0.31885,0.93637 -0.35837,3.4e-4 -0.32467,-0.76966 0.0599,-1.37717 0.0561,-0.0886 0.10271,-0.14707 0.14056,-0.17467 z m 20.66023,1.19889 c 0.19402,0 0.45926,0.17251 0.58963,0.38344 0.13036,0.21129 0.53688,0.30509 0.90331,0.20929 0.36642,-0.0958 0.60166,-0.0695 0.52296,0.0579 -0.0788,0.12743 0.19899,0.2452 0.61702,0.262 0.41804,0.0168 1.07748,0.15726 1.46554,0.31213 l 0.70539,0.28163 -0.70539,-0.56534 c -0.38805,-0.31098 -0.5789,-0.57071 -0.42374,-0.57671 0.39837,-0.0158 2.36368,1.02608 2.36368,1.25316 0,0.10349 -0.14754,0.0966 -0.32815,-0.015 -0.18063,-0.1116 -0.40843,-0.0727 -0.50643,0.0858 v -5.1e-4 c -0.23099,0.37375 -2.35998,0.41295 -4.80952,0.0884 -2.57482,-0.34118 -3.42096,-0.63607 -3.66748,-1.27847 -0.11267,-0.29373 -0.0844,-0.45956 0.063,-0.36846 0.64031,0.39572 3.31279,0.60856 3.08871,0.24598 -0.12746,-0.20624 -0.0726,-0.37517 0.12143,-0.37517 z m -22.63996,0.12609 c 0.0639,0.0244 0.10336,0.088 0.10336,0.18501 0,0.19403 -0.15841,0.45111 -0.35244,0.57102 -0.19403,0.11992 -0.35295,0.0591 -0.35295,-0.13487 0,-0.19402 0.15892,-0.4506 0.35295,-0.57051 0.097,-0.06 0.18514,-0.0751 0.24908,-0.0507 z m 16.86512,0.0414 c 0.0592,-0.0247 0.17272,-0.009 0.3297,0.0512 0.30112,0.11554 0.54777,0.27199 0.54777,0.34829 0,0.28572 -0.67236,0.12541 -0.87953,-0.2098 -0.0618,-0.1 -0.0571,-0.16493 0.002,-0.18965 z m -2.10064,0.185 c -0.0856,0 -0.2537,0.1584 -0.37362,0.35243 -0.11992,0.19402 -0.0499,0.35295 0.15554,0.35295 0.20548,0 0.37362,-0.15893 0.37362,-0.35295 0,-0.19403 -0.0699,-0.35243 -0.15554,-0.35243 z m 15.13086,0.12867 c 0.19042,0.0274 0.40158,0.26636 0.48472,0.69505 0.0627,0.32347 -0.10166,0.58808 -0.36535,0.58808 -0.26369,0 -0.47956,-0.31967 -0.47956,-0.71004 0,-0.41672 0.16977,-0.6005 0.36019,-0.57309 z m 1.9792,0.2403 c 0.30246,-0.009 0.85791,0.21742 1.23455,0.50229 v -5.2e-4 c 0.83623,0.63301 0.65724,0.63261 -0.72657,-10e-4 -0.58209,-0.26653 -0.81045,-0.49174 -0.50798,-0.50074 z m -30.42811,0.18965 c 0.0429,0.002 0.0925,0.0305 0.14882,0.0868 0.22513,0.22514 0.22513,0.55992 0,0.96221 -0.29154,0.52095 -0.34519,0.46729 -0.34519,-0.3452 0,-0.47055 0.0676,-0.70903 0.19637,-0.70383 z m 12.44575,1.29656 c -0.0142,0.0213 0.14922,0.15465 0.47801,0.41806 0.71975,0.57665 0.90278,0.65494 0.90278,0.38499 0,-0.0902 -0.35718,-0.33725 -0.79375,-0.5488 -0.38111,-0.18469 -0.57288,-0.27556 -0.58704,-0.25425 z m 13.61881,0.26768 c 0.23107,-0.003 0.51828,0.15324 0.6382,0.34727 0.27069,0.43799 0.14856,0.43799 -0.52917,0 -0.31795,-0.20548 -0.36148,-0.34427 -0.10903,-0.34727 z m -3.79202,1.40457 c -0.18258,0 -0.33228,0.15892 -0.33228,0.35295 0,0.19403 0.24786,0.35295 0.55035,0.35295 0.30246,0 0.45168,-0.15892 0.33177,-0.35295 -0.11992,-0.19403 -0.36726,-0.35295 -0.54984,-0.35295 z m -8.05429,1.4304 c -0.15328,0.0363 -0.41285,0.21989 -0.66404,0.48215 -0.58183,0.60745 -0.5746,0.61521 0.16846,0.16898 0.42774,-0.25688 0.70207,-0.54334 0.60927,-0.63614 -0.0232,-0.0232 -0.0626,-0.0271 -0.11369,-0.015 z m 2.05931,0.51212 c 0.0555,0.003 0.12593,0.0212 0.21084,0.0537 0.2801,0.10747 0.42154,0.33739 0.31419,0.51108 -0.27038,0.43749 -0.39995,0.39726 -0.62735,-0.19534 -0.0981,-0.25576 -0.0641,-0.37891 0.10232,-0.36948 z m 12.42559,0.25425 c 0.23524,0.009 0.54893,0.0327 0.95188,0.0672 1.30095,0.11126 2.18489,0.41502 2.82257,0.96997 2.13969,1.86205 3.92689,3.63505 3.92689,3.89589 0,0.42246 -2.39368,0.3351 -2.66082,-0.0971 -0.12809,-0.20723 -0.46315,-0.28889 -0.74465,-0.18087 -0.30523,0.11713 -0.41826,0.0453 -0.28009,-0.17829 0.3876,-0.62715 -1.28174,-2.12121 -2.11202,-1.89032 -0.51315,0.14271 -0.58963,0.10603 -0.25838,-0.12402 0.47178,-0.32764 0.1391,-0.6909 -1.93166,-2.1084 -0.41845,-0.28642 -0.41942,-0.38221 0.28628,-0.35398 z m 4.62401,0.0801 c 0.56829,-0.0409 1.00663,0.52545 0.70435,1.05834 -0.11533,0.2033 -0.0797,0.25235 0.0791,0.10852 0.15877,-0.14384 0.50081,-0.0855 0.76016,0.12971 0.25936,0.21526 0.80435,0.30434 1.21129,0.19792 0.68637,-0.17949 0.69949,-0.14861 0.17777,0.42788 -0.67053,0.74092 -0.41276,1.09347 0.79995,1.09347 0.86093,0 0.86768,0.0173 0.20567,0.52968 -0.6743,0.52194 -0.67411,0.52653 0.0207,0.29663 0.39626,-0.13107 0.58213,-0.098 0.42375,0.0754 -0.1551,0.16985 0.32115,0.49624 1.05833,0.72502 0.73717,0.22878 1.10236,0.41617 0.81132,0.41652 -1.52557,0.003 -2.86306,-0.71917 -4.88652,-2.63809 -1.86222,-1.76601 -2.13463,-2.16547 -1.61541,-2.36471 0.0847,-0.0325 0.16842,-0.0505 0.2496,-0.0563 z m -14.38517,0.20413 c 0.19403,0 0.59056,0.154 0.8816,0.34209 0.29105,0.18808 0.37077,0.3421 0.17674,0.3421 -0.19403,0 -0.59108,-0.15402 -0.88212,-0.3421 -0.29104,-0.18809 -0.37025,-0.34209 -0.17622,-0.34209 z m 17.28164,0.50953 c 0.0592,0.0247 0.0639,0.0897 0.002,0.18965 -0.11854,0.19181 -0.36519,0.3483 -0.54777,0.3483 -0.50744,0 -0.39567,-0.25279 0.21549,-0.48731 0.15698,-0.0602 0.27102,-0.0754 0.33022,-0.0506 z m -14.28285,0.53846 c 0.0167,0.0184 -0.0737,0.14351 -0.262,0.38499 -0.24089,0.30889 -0.33335,0.66608 -0.20568,0.79375 0.12771,0.12767 0.13599,0.23203 0.0181,0.23203 -0.1179,0 -0.31428,-0.16144 -0.43615,-0.35863 -0.12187,-0.19691 -0.34316,-0.28332 -0.49144,-0.19172 -0.14828,0.0916 -0.26924,-0.0697 -0.26924,-0.35864 0,-0.35358 0.11639,-0.40917 0.35606,-0.1695 0.23967,0.23971 0.53742,0.21463 0.91105,-0.0765 0.23872,-0.18599 0.36259,-0.27419 0.37931,-0.2558 z m 15.52205,0.73536 c 0.34892,0.0128 0.28849,0.12254 -0.17674,0.32246 -0.96984,0.41674 -1.52647,0.41674 -0.8816,0 0.29104,-0.18809 0.7673,-0.33316 1.05834,-0.32246 z m -34.7276,1.38028 c -0.0856,0 -0.25371,0.15892 -0.37362,0.35295 -0.11992,0.19402 -0.0499,0.35243 0.15555,0.35243 0.20548,0 0.37362,-0.15841 0.37362,-0.35243 0,-0.19403 -0.07,-0.35295 -0.15555,-0.35295 z m 12.25403,1.54306 c -0.0639,0.0282 -0.10387,0.0972 -0.10387,0.19998 0,0.20548 0.15892,0.37362 0.35295,0.37362 0.19402,0 0.35244,-0.0699 0.35244,-0.15554 0,-0.0856 -0.15842,-0.25371 -0.35244,-0.37362 -0.097,-0.06 -0.18514,-0.0726 -0.24908,-0.0444 z m 26.59786,1.30483 c 0.42511,-0.0136 0.87072,0.13359 0.99064,0.32762 0.25788,0.41726 -0.0873,0.41726 -1.05833,0 -0.68021,-0.29228 -0.6775,-0.30372 0.0677,-0.32762 z m -18.95181,0.51469 c 0.19442,0.0449 0.36328,0.17711 0.36328,0.36329 0,0.0856 -0.24735,0.15554 -0.54983,0.15554 -0.3025,0 -0.45003,-0.16144 -0.32815,-0.35863 0.10068,-0.16291 0.32027,-0.20512 0.5147,-0.1602 z m -4.04627,0.47698 0.96997,0.59066 c 0.53358,0.32487 0.97048,0.65187 0.97048,0.72657 0,0.27546 -0.29471,0.11828 -1.10742,-0.59066 z m -8.31732,0.61598 c 0.59171,0.071 1.80268,0.57018 2.02262,0.92604 0.14426,0.23343 0.0454,0.27178 -0.2651,0.10284 -0.27251,-0.14828 -0.0197,0.12964 0.56224,0.61753 0.58199,0.4879 1.20209,0.7984 1.37769,0.68988 0.1756,-0.10853 0.21291,-0.0247 0.0827,0.18604 -0.13024,0.21073 0.0823,0.60631 0.47232,0.87953 0.39007,0.27321 0.60406,0.60156 0.47594,0.72967 -0.12812,0.12812 0.007,0.23306 0.30076,0.23306 0.29331,0 0.81722,0.31364 1.16427,0.69712 0.34704,0.38348 0.7574,0.61908 0.91209,0.52348 0.15469,-0.0956 0.38776,-0.002 0.5178,0.20877 0.13005,0.21038 0.46678,0.29457 0.74827,0.18655 0.28577,-0.10967 0.41647,-0.0428 0.29611,0.15193 -0.19112,0.30961 0.0541,0.41284 0.75654,0.31884 0.12382,-0.0166 0.32261,0.11011 0.44132,0.28164 0.23041,0.33297 3.21188,1.33117 3.65507,1.2237 0.14552,-0.0353 0.26459,0.0847 0.26459,0.26665 0,0.18201 -0.31733,0.30722 -0.70539,0.27802 -0.38806,-0.0292 -0.70538,-0.17323 -0.70538,-0.31988 0,-0.1467 -0.23279,-0.17738 -0.51728,-0.0682 -0.79181,0.30385 -5.42152,-1.97047 -7.59695,-3.73207 -2.65933,-2.15345 -4.58577,-3.9551 -4.58577,-4.28811 0,-0.0926 0.12833,-0.11669 0.32556,-0.093 z m 34.46611,0.2682 c -0.12856,0.004 -0.2191,0.14416 -0.2191,0.37104 0,0.61966 0.21178,0.71101 0.51418,0.22169 0.11162,-0.18062 0.0417,-0.42797 -0.15555,-0.54984 -0.0493,-0.0305 -0.0967,-0.0443 -0.13953,-0.0429 z m -18.0144,0.32194 c 0.0289,-0.006 0.0808,0.002 0.15606,0.0274 0.29104,0.0976 1.40195,0.44215 2.4691,0.76585 1.91674,0.58142 3.62148,1.86974 4.99401,3.77496 0.48799,0.67739 0.55825,0.96556 0.23358,0.95446 -0.81909,-0.0281 -3.31295,-1.52687 -5.09013,-3.05872 -0.94869,-0.81773 -2.04229,-1.74039 -2.43034,-2.05052 -0.30106,-0.24057 -0.41909,-0.39413 -0.33228,-0.41342 z m -2.7373,0.44442 c 0.0993,0.0248 0.09,0.19137 -0.0909,0.48421 -0.12789,0.20694 -0.38803,0.3762 -0.57826,0.3762 -0.19022,0 -0.14115,-0.22203 0.10904,-0.49351 0.25324,-0.27478 0.46089,-0.39172 0.56017,-0.3669 z m 13.80122,0.83974 c 0.58807,-0.10274 1.7847,0.19826 1.94976,0.62839 0.14711,0.38334 0.32353,0.46832 0.47852,0.22996 0.28817,-0.44317 1.53742,-0.50959 1.264,-0.0672 -0.10187,0.16483 -0.32216,0.21497 -0.48937,0.11162 -0.16721,-0.10334 -0.40511,-0.0235 -0.52917,0.17725 -0.20131,0.32574 0.23305,1.20636 1.87121,3.7915 0.59812,0.94386 0.0776,1.04619 -0.89607,0.17622 -0.91587,-0.81831 -3.9734,-4.512 -3.9734,-4.80023 0,-0.13416 0.1285,-0.21328 0.32452,-0.24753 z m 13.7573,1.12293 c 0.12256,0.005 0.22768,0.0375 0.28629,0.0961 0.11723,0.11718 -0.0912,0.2003 -0.46302,0.185 -0.41099,-0.0169 -0.49432,-0.1003 -0.21291,-0.21291 0.12734,-0.051 0.26709,-0.0732 0.38964,-0.0682 z m -10.00507,0.11369 c 0.28317,-0.0104 0.69786,0.0629 1.24644,0.19224 l 1.20302,0.2837 -1.05833,0.047 c -0.89899,0.0398 -0.96501,0.10095 -0.43822,0.40772 0.34108,0.19858 0.76112,0.27435 0.93328,0.16795 0.17216,-0.1064 0.40924,0.0565 0.52658,0.36225 0.29481,0.76827 0.29009,0.77926 -0.40411,0.96067 -0.43303,0.11316 -0.36287,0.17387 0.23513,0.20257 0.46889,0.0225 0.74903,0.14394 0.6227,0.27027 -0.12633,0.12634 0.0459,0.44421 0.38241,0.70641 0.56872,0.44308 0.56406,0.45991 -0.0667,0.23823 -0.54409,-0.19121 -0.63133,-0.11564 -0.4408,0.38086 0.13071,0.3406 0.2372,0.68578 0.2372,0.76688 0,0.0811 0.23813,0.14727 0.52917,0.14727 0.29104,0 0.52916,0.23813 0.52916,0.52917 0,0.29105 -0.18902,0.52917 -0.42013,0.52917 -0.23114,0 -0.11207,0.23344 0.26459,0.51831 0.37701,0.28487 0.54649,0.52317 0.37723,0.52917 -0.1693,0.006 -0.11029,0.24898 0.13126,0.54002 0.24152,0.29104 0.32628,0.52916 0.1881,0.52916 -0.13815,0 -0.51499,-0.31637 -0.83715,-0.70331 -0.42778,-0.51382 -0.7282,-0.61034 -1.11466,-0.35812 -0.46775,0.30515 -0.46646,0.34588 0.0119,0.35088 0.29771,0.003 0.82248,0.48141 1.16634,1.0635 0.52077,0.88157 0.5388,1.05834 0.10749,1.05834 -0.28476,0 -0.90951,-0.46575 -1.38855,-1.03508 -0.67993,-0.80805 -1.34603,-1.12127 -3.03651,-1.42782 -2.36977,-0.42972 -2.92589,-0.2986 -2.63756,0.62218 0.15401,0.49182 0.0832,0.47468 -0.37724,-0.0915 -0.52445,-0.64488 -0.51993,-0.71671 0.0594,-0.94568 0.34468,-0.13623 0.46791,-0.26091 0.27388,-0.27751 -0.19403,-0.0166 -0.119,-0.17833 0.16692,-0.35915 0.32486,-0.20538 0.59889,-0.20086 0.7307,0.0124 0.11601,0.18771 1.36701,0.41572 2.77968,0.50642 2.99444,0.19227 2.96743,0.42277 0.42116,-3.64008 -1.423,-2.27057 -1.75332,-3.05345 -0.90382,-3.08457 z m -13.93403,0.90072 c 0.20546,0 0.27546,0.15892 0.15554,0.35295 -0.11991,0.19403 -0.28802,0.35295 -0.37362,0.35295 -0.0856,0 -0.15554,-0.15892 -0.15554,-0.35295 0,-0.19403 0.16814,-0.35295 0.37362,-0.35295 z m -3.64423,0.10697 c -0.0591,-0.007 -0.17701,0.0198 -0.33951,0.0822 -0.44498,0.17076 -0.49264,0.33211 -0.19224,0.6537 0.2194,0.23487 0.72814,0.44936 1.13068,0.47646 0.69302,0.0467 0.68919,0.0263 -0.0729,-0.38861 -0.44262,-0.241 -0.68571,-0.55762 -0.54002,-0.70331 0.0729,-0.0729 0.073,-0.11349 0.0139,-0.12041 z m 18.94872,0.47801 c -0.23356,0.003 -0.39068,0.11295 -0.39068,0.29714 0,0.24563 0.27913,0.35965 0.64648,0.26355 0.35572,-0.093 0.64699,-0.21175 0.64699,-0.26355 0,-0.0518 -0.29127,-0.17004 -0.64699,-0.26304 -0.0918,-0.024 -0.17795,-0.0351 -0.2558,-0.0341 z m -4.77129,0.51728 c 0.12256,0.005 0.2282,0.0375 0.28681,0.0961 0.11723,0.11719 -0.0911,0.2003 -0.46302,0.185 -0.41097,-0.0169 -0.49485,-0.10029 -0.21343,-0.21291 0.12733,-0.051 0.26709,-0.0732 0.38964,-0.0682 z m -6.12314,1.36736 c 0.0856,0 0.15555,0.15892 0.15555,0.35295 0,0.19402 -0.16814,0.35243 -0.37362,0.35243 -0.20547,0 -0.27547,-0.15841 -0.15555,-0.35243 0.11992,-0.19403 0.28802,-0.35295 0.37362,-0.35295 z m 2.4505,0.47852 c 0.48364,0.0279 0.87939,0.16971 0.87953,0.31523 3.5e-4,0.37349 -1.3282,0.33044 -1.56373,-0.0507 -0.10718,-0.17338 0.20055,-0.29248 0.6842,-0.26458 z m 1.91254,0.0253 c 0.37381,0 0.58699,0.14979 0.47388,0.3328 -0.11719,0.18961 0.1212,0.24715 0.55449,0.13384 0.41819,-0.10936 0.84942,-0.0549 0.95808,0.12092 0.20133,0.32577 -0.93309,0.3681 -2.04897,0.0765 -0.82849,-0.21651 -0.78628,-0.66404 0.0625,-0.66404 z m 3.36311,0.70487 c 0.14116,0.009 0.3518,0.14872 0.53588,0.37052 0.50892,0.61321 0.41144,0.67074 -0.33538,0.19844 -0.28545,-0.18051 -0.42696,-0.42002 -0.31471,-0.53227 0.0281,-0.0281 0.0671,-0.0396 0.11421,-0.0367 z m 2.77347,0.2744 c 0.0727,0.009 0.17729,0.0781 0.30386,0.20464 0.22919,0.2296 0.33538,0.49921 0.23513,0.59945 -0.23544,0.23544 -0.65268,-0.18179 -0.65268,-0.65268 0,-0.11053 0.041,-0.16063 0.11369,-0.15141 z m -17.39997,0.67955 c 0.15985,0 0.32005,0.0244 0.44132,0.0734 0.24254,0.0978 0.0437,0.17776 -0.44132,0.17776 -0.48507,0 -0.68334,-0.0799 -0.4408,-0.17776 0.12126,-0.0489 0.28095,-0.0734 0.4408,-0.0734 z m 23.27248,0.49351 c 0.19442,0.0449 0.3638,0.17711 0.3638,0.36328 0,0.0856 -0.24737,0.15555 -0.54983,0.15555 -0.3027,0 -0.45055,-0.16145 -0.32867,-0.35864 0.10069,-0.16291 0.32028,-0.20512 0.5147,-0.16019 z m -10.95437,0.2098 c 0.12255,0.005 0.22819,0.0375 0.2868,0.0961 0.11722,0.11718 -0.0911,0.2003 -0.46302,0.185 -0.41097,-0.0169 -0.49484,-0.1003 -0.21342,-0.21291 0.12733,-0.051 0.26709,-0.0733 0.38964,-0.0682 z m 13.51494,0.68316 c 0.17909,0 0.27285,0.11025 0.27285,0.33125 0,0.19403 -0.35719,0.35078 -0.79375,0.34778 -0.64185,-0.004 -0.6925,-0.0712 -0.26458,-0.34778 0.34198,-0.221 0.60639,-0.33125 0.78548,-0.33125 z m -5.15938,1.65158 1.12603,0.5824 c 0.61938,0.32028 1.08735,0.76459 1.04025,0.98702 -0.0471,0.22242 0.27046,0.59031 0.7059,0.81752 0.43539,0.22721 0.69054,0.51405 0.56689,0.63768 -0.12361,0.12363 0.0353,0.32457 0.35295,0.44649 0.31774,0.12191 0.48975,0.36374 0.3824,0.53743 -0.10735,0.1737 0.0618,0.31575 0.37569,0.31575 0.31398,0 0.47286,0.15892 0.35295,0.35295 -0.11991,0.19402 -0.0614,0.35243 0.13023,0.35243 0.19159,0 0.55802,0.20487 0.81442,0.45475 0.2564,0.24989 1.26021,0.74662 2.23035,1.10433 0.97014,0.35771 1.91477,0.78854 2.0991,0.95705 0.51054,0.46675 -1.20606,0.34237 -2.71715,-0.19689 -2.29926,-0.82052 -4.73897,-3.0887 -6.81147,-6.33295 z m -3.06389,0.13436 c 0.12255,0.005 0.22819,0.0375 0.2868,0.0961 0.11723,0.11719 -0.0911,0.20082 -0.46302,0.18552 -0.41096,-0.0169 -0.49485,-0.1003 -0.21342,-0.21291 0.12733,-0.051 0.26708,-0.0738 0.38964,-0.0687 z m -2.68924,1.14722 c 0.0639,-0.0282 0.15206,-0.016 0.24908,0.0439 0.19402,0.11991 0.35295,0.28802 0.35295,0.37362 0,0.0856 -0.15893,0.15555 -0.35295,0.15555 -0.19403,0 -0.35295,-0.16763 -0.35295,-0.3731 0,-0.10274 0.0399,-0.17179 0.10387,-0.19999 z m 2.36574,0.92604 c 0.19403,0 0.35295,0.15892 0.35295,0.35295 0,0.19403 -0.15892,0.35243 -0.35295,0.35243 -0.19403,0 -0.35295,-0.1584 -0.35295,-0.35243 0,-0.19403 0.15892,-0.35295 0.35295,-0.35295 z m 0.8444,1.41128 c 0.0763,0 0.22989,0.23813 0.34158,0.52917 0.11168,0.29104 0.0494,0.52917 -0.1385,0.52917 -0.18793,0 -0.34209,-0.23813 -0.34209,-0.52917 0,-0.29104 0.0627,-0.52917 0.13901,-0.52917 z m 1.45314,0.51987 c 0.0592,-0.0247 0.17322,-0.009 0.33021,0.0512 0.30109,0.11555 0.54725,0.272 0.54725,0.3483 0,0.28572 -0.67238,0.1254 -0.87953,-0.20981 -0.0618,-0.1 -0.0571,-0.16492 0.002,-0.18965 z m 2.30942,2.65513 c 0.20547,0 0.27545,0.15841 0.15554,0.35244 -0.11991,0.19403 -0.28812,0.35295 -0.37362,0.35295 -0.0856,0 -0.15554,-0.15892 -0.15554,-0.35295 0,-0.19403 0.16816,-0.35244 0.37362,-0.35244 z m 2.27686,1.22577 c 0.0592,-0.0247 0.17271,-0.01 0.3297,0.0506 0.30109,0.11555 0.54777,0.27252 0.54777,0.34882 0,0.28571 -0.67239,0.12489 -0.87954,-0.21033 -0.0618,-0.1 -0.0571,-0.1644 0.002,-0.18913 z" /></g></svg>
