<?xml version="1.0" encoding="UTF-8" standalone="no"?>
<!-- Created with Inkscape (http://www.inkscape.org/) -->

<svg
   width="36.527679mm"
   height="30.141602mm"
   viewBox="0 0 36.527679 30.141602"
   version="1.1"
   id="svg5"
   xml:space="preserve"
   xmlns:inkscape="http://www.inkscape.org/namespaces/inkscape"
   xmlns:sodipodi="http://sodipodi.sourceforge.net/DTD/sodipodi-0.dtd"
   xmlns="http://www.w3.org/2000/svg"
   xmlns:svg="http://www.w3.org/2000/svg"><sodipodi:namedview
     id="namedview7"
     pagecolor="#ffffff"
     bordercolor="#666666"
     borderopacity="1.0"
     inkscape:showpageshadow="2"
     inkscape:pageopacity="0.0"
     inkscape:pagecheckerboard="0"
     inkscape:deskcolor="#d1d1d1"
     inkscape:document-units="mm"
     showgrid="false"
     inkscape:zoom="0.6480467"
     inkscape:cx="2735.914"
     inkscape:cy="195.97353"
     inkscape:window-width="1440"
     inkscape:window-height="900"
     inkscape:window-x="0"
     inkscape:window-y="0"
     inkscape:window-maximized="0"
     inkscape:current-layer="layer1" /><defs
     id="defs2" /><g
     inkscape:label="Livello 1"
     inkscape:groupmode="layer"
     id="layer1"
     transform="translate(-373.23759,445.99498)"><path
       id="path8980"
       style="fill:#D2D9DE;stroke-width:0.352778"
       d="m 409.44938,-445.9839 c -0.3541,-0.21886 -7.8924,2.84493 -12.9284,5.25446 -1.9403,0.92832 -5.6312,2.69115 -8.2021,3.91759 -2.5709,1.22644 -4.6742,2.31089 -4.6742,2.41019 0,0.0993 1.5325,-0.53058 3.4055,-1.39991 1.873,-0.86934 3.4701,-1.51656 3.5481,-1.43816 0.0784,0.0784 -0.7795,0.94039 -1.9063,1.91565 -1.1268,0.97527 -3.6197,3.13592 -5.5397,4.80126 -1.9199,1.66532 -3.6202,3.02772 -3.7786,3.02772 -0.4462,0 -1.7581,-1.49472 -2.1157,-2.41071 -0.3242,-0.83042 -0.165,-1.46967 0.3659,-1.46967 0.529,0 5.7636,-2.49177 5.593,-2.66237 -0.0925,-0.0925 -2.3756,0.83339 -5.0736,2.05723 l -4.9057,2.22519 0.0982,2.27635 c 0.188,4.36884 0.7559,6.60055 1.9327,7.59075 1.5806,1.32998 4.267,2.59741 6.9484,3.27835 l 0.003,5.2e-4 c 1.3057,0.33156 3.6062,0.64877 5.1129,0.70487 2.3886,0.089 2.6785,0.036 2.2613,-0.41342 -0.3031,-0.32645 -0.5617,-0.38371 -0.7048,-0.15554 -0.5817,0.92746 -7.4452,-1.48933 -7.1221,-2.50786 0.1546,-0.48751 0.1266,-0.49662 -0.1839,-0.0574 -0.3087,0.43658 -0.5363,0.3526 -1.4346,-0.52917 -0.5872,-0.57646 -1.0674,-1.27284 -1.0774,-1.54771 -0.005,-0.27539 -0.1083,-0.40123 -0.2284,-0.28112 -0.2437,0.24366 -1.1927,-0.59157 -1.1927,-1.04954 0,-0.16122 -0.3173,-0.49094 -0.7054,-0.73329 -0.388,-0.24234 -0.7059,-0.6255 -0.7059,-0.85111 0,-0.22561 -0.2113,-0.66055 -0.4698,-0.96687 -0.6272,-0.74328 -2.0959,-4.28244 -1.8706,-4.50773 0.0979,-0.0979 0.5699,-0.20168 1.049,-0.23048 0.479,-0.0288 0.8077,-0.1549 0.7307,-0.28009 -0.0773,-0.12518 0.0832,-0.31349 0.3571,-0.41858 0.275,-0.10552 0.5987,0.0755 0.7229,0.40411 0.3955,1.04628 1.761,2.88361 2.1451,2.88561 0.2042,0.001 0.6567,0.79617 1.0056,1.76631 0.3488,0.97012 0.7881,1.76423 0.9757,1.76423 0.1878,0 0.2406,0.35719 0.1178,0.79375 -0.1325,0.46985 -0.1026,0.62116 0.0729,0.37155 0.3712,-0.52771 2.887,-0.0273 3.3233,0.66094 0.2232,0.35238 0.3013,0.35846 0.3013,0.0253 0.003,-0.24253 0.1641,-0.4408 0.3581,-0.4408 0.194,0 0.3529,0.16426 0.3529,0.36483 0,0.79164 1.9943,2.28836 3.1874,2.3921 0.6722,0.0584 1.6591,0.15433 2.1927,0.21343 0.5336,0.0591 0.9699,-0.0388 0.9699,-0.21756 0,-0.17878 0.1346,-0.24179 0.2992,-0.14004 0.1647,0.10175 0.6016,-0.096 0.9705,-0.43977 0.8983,-0.83681 1.2402,-0.912 1.5958,-0.35088 0.2451,0.38672 0.3044,0.38776 0.3044,0.005 0.003,-0.25639 -0.233,-0.70476 -0.524,-0.9958 -0.3774,-0.37736 -0.5344,-1.3058 -0.5344,-3.23753 -0.003,-1.69963 -0.1212,-2.52635 -0.3162,-2.21847 -0.6576,1.03838 -0.883,-6.78988 -0.3163,-10.98589 0.1012,-0.74946 0.0676,-0.74777 1.3937,-0.062 0.5905,0.30539 1.1499,0.47859 1.2439,0.38499 0.0936,-0.0936 -0.1596,-0.27476 -0.5623,-0.40256 -1.5002,-0.47616 -0.6348,-0.80038 2.7074,-1.01441 8.7199,-0.55842 8.1168,-0.58973 8.5085,0.43615 0.7321,1.91778 0.811,2.51025 0.3349,2.51096 -0.27,4e-4 -0.4977,0.46927 -0.5437,1.11931 -0.1181,1.6783 -0.5641,1.91698 -2.2024,1.17822 -0.7826,-0.35288 -1.4227,-0.77647 -1.4227,-0.94103 0,-0.16456 -0.242,-0.2992 -0.5379,-0.2992 -0.2959,0 -1.6617,-0.56574 -3.035,-1.25729 -3.7735,-1.90034 -3.2167,-1.28025 0.8098,0.90175 2.3578,1.27771 3.6498,2.19753 3.8587,2.74712 0.1728,0.45442 0.4442,0.74571 0.603,0.64751 0.3373,-0.20957 0.3293,2.10425 -0.0103,2.44377 -0.127,0.12689 -0.1539,0.43242 -0.0589,0.67903 0.1878,0.48932 -2.0094,3.01067 -2.6236,3.01067 -0.2087,0 -0.6557,-0.46768 -0.9933,-1.03921 -0.3376,-0.57153 -0.7676,-0.94378 -0.956,-0.82734 -0.1912,0.11807 -0.2299,0.0287 -0.0873,-0.20206 0.2958,-0.47859 -1.0752,-2.87062 -1.6454,-2.87062 -0.2108,0 -0.2852,-0.0977 -0.1659,-0.21704 0.1194,-0.11935 -0.7403,-1.64041 -1.9104,-3.38067 -1.1702,-1.74026 -2.2063,-3.08557 -2.3033,-2.98897 -0.2054,0.20532 1.4631,3.30443 2.264,4.20543 0.2997,0.33955 0.4367,0.61753 0.2997,0.61753 -0.1369,0 0.175,0.55545 0.693,1.23455 0.518,0.67909 0.8188,1.23507 0.6687,1.23507 -0.1501,0 -0.0259,0.27747 0.2759,0.61702 0.6852,0.77093 1.7026,3.15125 1.8475,4.3217 0.138,1.11552 -0.1601,1.63188 -0.5819,1.00769 -0.2604,-0.39037 -0.3133,-0.38091 -0.2703,0.0506 0.0843,0.84173 -0.4219,2.11299 -0.8588,2.15749 -0.9491,0.0966 -1.1461,0.165 -1.8991,0.66249 -0.4365,0.28846 -0.7938,0.75517 -0.7938,1.03663 0,0.36854 0.1453,0.32006 0.5183,-0.17312 0.3961,-0.52365 0.5214,-0.5602 0.5344,-0.15554 0.0148,0.47037 0.055,0.47037 0.3638,0 0.3088,-0.47037 0.3863,-0.47037 0.695,0 0.2948,0.44962 0.343,0.43321 0.353,-0.10904 0.003,-0.35099 0.1472,-0.55073 0.3209,-0.44338 0.1737,0.10735 0.4204,-0.0773 0.5482,-0.41031 0.1799,-0.46893 0.2963,-0.50166 0.5163,-0.14573 0.1921,0.31079 0.3608,0.0795 0.5209,-0.7152 0.1912,-0.94918 0.3077,-1.07344 0.6072,-0.64596 0.2846,0.4063 0.3235,0.30983 0.1659,-0.41548 -0.2282,-1.04997 0.3647,-1.85821 1.6495,-2.24844 1.1957,-0.36314 3.0846,-1.88816 3.0846,-2.49029 0,-0.31345 0.1678,-0.42793 0.4087,-0.27905 0.3013,0.1862 0.3509,-0.30045 0.1891,-1.84898 -0.1934,-1.84973 -0.1261,-2.2047 0.5613,-2.96571 1.6462,-1.82241 1.8735,-2.67863 1.2076,-4.55373 -0.6972,-1.96308 -0.7346,-2.25487 -0.2501,-1.95543 0.1941,0.11987 0.353,0.0883 0.353,-0.0703 0,-0.31464 -2.9316,-0.28231 -5.9976,0.0661 -1.0672,0.12128 -3.1306,0.29621 -4.5858,0.38861 l -2.6458,0.16795 2.4691,-1.3007 c 1.3582,-0.71524 4.1352,-2.00032 6.1707,-2.85564 l 3.7005,-1.55494 0.645,0.79581 0.6444,0.79634 -0.214,-0.86248 c -0.1583,-0.63818 -0.0249,-0.97932 0.5132,-1.31155 0.6157,-0.38011 0.7615,-0.35941 0.9508,0.13384 0.3932,1.02472 -0.3897,11.88937 -0.8682,12.04888 -0.2365,0.0788 -0.4299,0.55296 -0.4299,1.05368 0,1.06814 -1.0567,3.61684 -1.4996,3.61684 -0.168,0 -0.2069,0.16025 -0.0858,0.35605 0.121,0.19581 -0.2668,1.07695 -0.8615,1.95802 -0.5946,0.88108 -1.0919,1.7924 -1.1059,2.0252 -0.0137,0.23281 -0.1758,0.10589 -0.3601,-0.28216 -0.3122,-0.65711 -0.3245,-0.6511 -0.184,0.0889 0.0829,0.43701 -0.0418,0.91326 -0.277,1.05833 -0.2352,0.14506 -0.8874,0.87599 -1.449,1.62419 -0.8938,1.19084 -1.0531,1.27859 -1.2785,0.70538 -0.2254,-0.57393 -0.2601,-0.55463 -0.2821,0.154 -0.0136,0.44468 -0.3427,1.14926 -0.7307,1.56579 -0.6758,0.72491 -0.7066,0.72803 -0.7406,0.0734 -0.0269,-0.52463 -0.0924,-0.47866 -0.2806,0.19793 -0.1548,0.55631 -0.4998,0.88211 -0.9348,0.88211 -0.3793,0 -0.8645,0.22282 -1.078,0.49558 -0.2266,0.28961 -0.7041,0.41339 -1.1467,0.29766 -0.4171,-0.1091 -0.758,-0.077 -0.758,0.0713 0,0.14829 -0.6746,0.44402 -1.4992,0.65732 l -1.4996,0.38809 1.4113,-0.18138 c 4.0356,-0.51789 5.541,-1.22319 8.1514,-3.82044 3.8653,-3.84566 6.4846,-8.57121 7.6786,-13.8529 0.6146,-2.71892 0.8179,-11.55633 0.2734,-11.89282 z m -0.923,8.19434 c -0.0597,-0.0626 -0.1046,0.15668 -0.1121,0.59324 h 5e-4 c -0.007,0.58208 0.0653,0.86309 0.1623,0.62425 0.097,-0.23884 0.1019,-0.71508 0.0129,-1.05833 -0.0224,-0.0858 -0.0437,-0.13831 -0.0636,-0.15916 z m -16.7741,0.37052 -0.6145,1.16943 c -0.3378,0.64333 -0.733,1.22256 -0.8785,1.28726 -0.1455,0.0647 -0.2646,0.39072 -0.2646,0.72451 0,0.59008 -0.5279,1.80075 -3.0174,6.91896 -0.6607,1.35818 -1.3596,2.906 -1.5528,3.43958 -0.326,0.89997 -0.7148,1.0933 -1.6035,0.79685 -0.194,-0.0647 -0.8079,-0.21867 -1.3643,-0.3421 -0.5565,-0.12343 -0.931,-0.30564 -0.831,-0.40514 0.0995,-0.0995 -0.1993,-0.59154 -0.664,-1.09296 -0.8504,-0.91757 -1.1155,-2.06017 -0.5287,-2.27841 0.1739,-0.0647 2.3707,-2.05899 4.8819,-4.43177 2.5112,-2.37279 4.9869,-4.64551 5.5015,-5.05034 z m 0.694,0.22272 -0.0589,2.99827 c -0.059,2.98859 0.3163,7.64513 0.6614,8.20363 0.1,0.1617 -0.0302,0.55562 -0.2894,0.8754 -0.2596,0.3198 -0.2988,0.47817 -0.0878,0.35192 0.248,-0.14836 0.4037,0.27586 0.4397,1.19889 0.0307,0.78547 0.1602,1.59687 0.2879,1.80351 0.1415,0.22889 0.0636,0.27185 -0.199,0.10955 -0.2743,-0.16953 -0.5014,0.003 -0.6247,0.47439 -0.1066,0.40758 -0.2159,0.74104 -0.2429,0.74104 -0.0272,0 -0.5246,0.13453 -1.1054,0.29869 -1.2231,0.3457 -2.0458,0.1615 -1.7094,-0.38292 0.153,-0.24759 0.0632,-0.27148 -0.262,-0.0687 -0.9408,0.58646 -1.6492,0.48547 -2.5684,-0.36639 -0.7776,-0.72069 -0.8689,-0.99534 -0.5813,-1.75183 0.1877,-0.49353 0.2392,-1.16321 0.1147,-1.48776 -0.1353,-0.35251 -0.0839,-0.50179 0.1276,-0.37104 0.1959,0.12104 0.7097,-0.68111 1.1493,-1.7942 1.6575,-4.19738 3.0482,-7.36516 3.9817,-9.0687 z m 0.9296,1.94045 c -0.051,-0.0618 -0.0868,0.46488 -0.0868,1.41077 0,1.26118 0.0641,1.77677 0.1421,1.14618 0.078,-0.63059 0.078,-1.66229 0,-2.29288 -0.0196,-0.15765 -0.0383,-0.24347 -0.0553,-0.26407 z m -19.422,8.292 c 0.0413,0.0135 0.0902,0.0667 0.1477,0.15762 0.1781,0.28178 0.2464,0.63896 0.1504,0.79375 -0.0956,0.15478 0.003,0.28112 0.2202,0.28112 0.217,0 0.305,0.14552 0.1953,0.32297 -0.1097,0.17746 -0.0606,0.3757 0.109,0.4408 0.1695,0.0651 0.4132,0.45664 0.5416,0.87023 0.1605,0.5166 0.0588,0.81925 -0.3245,0.96635 -0.3071,0.11777 -0.4686,0.0697 -0.3597,-0.10645 0.1089,-0.17616 -0.042,-0.55984 -0.3348,-0.85266 -0.2929,-0.29283 -0.5266,-1.13905 -0.5266,-1.88051 0.003,-0.7179 0.0572,-1.03365 0.1814,-0.99322 z m 29.8803,1.25832 c -0.1371,-0.004 -0.3419,0.10237 -0.5214,0.28319 -0.3458,0.34841 -0.3054,0.38885 0.1974,0.1974 0.3481,-0.13248 0.5437,-0.32959 0.4351,-0.43821 -0.0271,-0.0272 -0.0654,-0.041 -0.1111,-0.0424 z m -24.6047,0.13695 c -0.0638,-0.0238 -0.109,0.1788 -0.109,0.5426 0,0.48508 0.0802,0.68385 0.1782,0.44132 0.098,-0.24254 0.098,-0.63958 0,-0.88212 -0.0245,-0.0606 -0.0479,-0.0939 -0.0692,-0.1018 z m -0.7054,0.7059 c -0.0638,-0.0238 -0.109,0.1788 -0.109,0.5426 0,0.48507 0.0797,0.68334 0.1777,0.4408 0.098,-0.24253 0.098,-0.63959 0,-0.88212 -0.0244,-0.0606 -0.0474,-0.0934 -0.0687,-0.10128 z m 23.9887,0 c -0.0638,-0.0238 -0.1085,0.1788 -0.1085,0.5426 0,0.48507 0.0798,0.68334 0.1778,0.4408 0.098,-0.24253 0.098,-0.63959 0,-0.88212 -0.0245,-0.0606 -0.048,-0.0934 -0.0693,-0.10128 z m 3.1022,0.60771 c -0.1009,0.0454 -0.1718,0.30471 -0.3013,0.81752 -3e-4,0.001 -2e-4,0.003 -5e-4,0.005 0.0524,-0.0386 0.1035,-0.0782 0.1318,-0.13436 0.043,-0.0857 -0.068,-0.21959 0,-0.28732 0.0677,-0.0677 0.2193,0.0677 0.2873,0 0.0677,0.0677 0.1918,0 0.2878,0 0.009,0 0.0197,0.003 0.0295,0.004 -0.2131,-0.28866 -0.3418,-0.44592 -0.4346,-0.40411 z m 0.1173,0.11317 c 0.0579,0 0.0233,0.0794 0,0.15762 -0.0233,-0.0782 -0.0579,-0.15762 0,-0.15762 z m -4.6307,0.33745 c -0.0639,-0.0238 -0.1086,0.1788 -0.1086,0.5426 0,0.48508 0.0798,0.68333 0.1778,0.4408 0.098,-0.24254 0.098,-0.63957 0,-0.88211 -0.0245,-0.0606 -0.048,-0.0934 -0.0692,-0.10129 z m -18.0573,2.79259 c -0.0371,0.0371 -0.0623,0.16091 -0.0708,0.36639 -0.0153,0.37192 0.0677,0.58024 0.185,0.46302 0.117,-0.11722 0.1298,-0.42178 0.0279,-0.67644 -0.0564,-0.14071 -0.1051,-0.19006 -0.1421,-0.15297 z m -0.646,0.0295 c -0.0638,-0.0238 -0.109,0.1788 -0.109,0.5426 0,0.48507 0.0797,0.68333 0.1777,0.4408 0.098,-0.24254 0.098,-0.63906 0,-0.8816 -0.0245,-0.0606 -0.0474,-0.0939 -0.0687,-0.1018 z m 15.8089,0.67593 c -0.0371,0.0371 -0.0623,0.1609 -0.0708,0.36638 -0.0153,0.37193 0.0678,0.58024 0.185,0.46302 0.117,-0.11723 0.1298,-0.42126 0.0279,-0.67592 -0.0563,-0.14071 -0.1051,-0.19057 -0.1421,-0.15348 z m -9.525,1.41128 c -0.0371,0.0371 -0.0623,0.1609 -0.0708,0.36639 -0.0153,0.37192 0.0678,0.58024 0.185,0.46302 0.117,-0.11723 0.1298,-0.42179 0.0279,-0.67645 -0.0563,-0.14071 -0.1051,-0.19005 -0.1421,-0.15296 z m 2.3915,2.33629 c -0.1826,0 -0.4299,0.15841 -0.5498,0.35244 -0.1199,0.19402 0.0293,0.35295 0.3318,0.35295 0.3024,0 0.5498,-0.15893 0.5498,-0.35295 0,-0.19403 -0.1492,-0.35244 -0.3318,-0.35244 z" /></g></svg>
