<?xml version="1.0" encoding="UTF-8" standalone="no"?>
<!-- Created with Inkscape (http://www.inkscape.org/) -->

<svg
   version="1.1"
   id="svg132"
   width="437.69565"
   height="253.05338"
   viewBox="0 0 437.69563 253.05339"
   sodipodi:docname="wfoinvwrvw (1).png"
   xml:space="preserve"
   xmlns:inkscape="http://www.inkscape.org/namespaces/inkscape"
   xmlns:sodipodi="http://sodipodi.sourceforge.net/DTD/sodipodi-0.dtd"
   xmlns="http://www.w3.org/2000/svg"
   xmlns:svg="http://www.w3.org/2000/svg"><defs
     id="defs136" /><sodipodi:namedview
     id="namedview134"
     pagecolor="#ffffff"
     bordercolor="#666666"
     borderopacity="1.0"
     inkscape:showpageshadow="2"
     inkscape:pageopacity="0.0"
     inkscape:pagecheckerboard="0"
     inkscape:deskcolor="#d1d1d1"
     showgrid="false" /><g
     inkscape:groupmode="layer"
     inkscape:label="Image"
     id="g138"
     transform="translate(252.31602,-214.55769)"><path
       id="path8860-8"
       style="fill:#D2D9DE;fill-opacity:1;stroke-width:1.33333"
       d="m -181.85957,304.22773 c -0.68785,0.39309 0.21262,0.32968 2.43337,-0.0371 2.98156,-0.49245 6.39316,-1.20595 7.58201,-1.58709 1.6122,-0.51683 2.00119,-0.14822 1.53115,1.44829 -0.6731,2.28577 -13.56386,8.14942 -18.51292,8.42127 -2.27612,0.12505 -2.10405,-0.32815 1.02268,-2.68326 l 3.76089,-2.83244 -4.17599,1.23559 c -10.24513,3.029 -33.98871,27.15606 -37.20247,37.8029 -1.13394,3.75654 -0.95288,6.18572 0.69231,9.33201 1.2235,2.33932 2.48255,6.91857 2.79879,10.17549 1.16336,11.98357 13.74594,21.25587 42.60633,31.40183 68.43061,24.05695 89.010643,28.88993 110.086432,25.84919 8.374281,-1.20821 37.247998,-13.07837 42.738592,-17.57007 8.947039,-7.31922 8.367396,-20.1266 -1.391249,-30.72135 -6.412298,-6.96166 -23.323305,-18.49884 -31.452945,-21.45762 -11.141569,-4.0549 -29.413868,-7.77697 -42.97966,-8.7537 -12.97532,-0.93429 -20.54221,-2.2574 -15.09719,-2.64017 9.50477,-0.66824 66.642272,-14.59788 75.624247,-18.43822 5.795508,-2.47742 6.335721,-3.56194 3.323681,-6.67998 -4.113373,-4.25815 -17.903201,-8.21159 -35.764766,-10.25508 -11.142928,-1.27488 -23.751986,-3.94561 -32.778932,-6.94293 -13.03353,-4.32785 -16.39731,-4.80918 -30.15991,-4.31067 -17.95261,0.65031 -23.76795,1.66359 -37.59171,6.54402 -4.12936,1.45802 -6.405,2.30599 -7.09274,2.69905 z m -21.77857,16.02676 c 1.39631,-0.60084 2.41798,-0.3816 2.28859,0.49086 -0.12849,0.86665 -0.82364,1.48817 -1.54462,1.38123 -0.72107,-0.10691 -1.29193,0.61852 -1.26921,1.61142 0.0251,1.08927 -0.36129,0.97138 -0.9761,-0.2963 -0.65569,-1.35172 -0.12075,-2.48898 1.50126,-3.18693 z m 16.2236,-6.06262 c 3.77812,-1.62358 14.96195,-4.72886 24.66864,-6.65176 1.83915,-0.36436 5.07206,-1.95914 7.18419,-3.54432 3.56907,-2.67888 3.31218,-2.67905 -3.63456,-0.0116 -4.11086,1.57843 -6.23343,2.03681 -4.71817,1.01817 1.51535,-1.01868 6.54417,-2.99378 11.17565,-4.38799 6.79397,-2.04519 7.91078,-2.09256 5.77877,-0.24342 -2.33969,2.0291 -2.15858,2.06671 1.58482,0.31311 4.34377,-2.03497 15.45118,-3.85177 18.19,-2.97515 0.846,0.2709 -0.72185,1.18103 -3.48347,2.02416 -4.99244,1.52435 -4.41368,1.51659 5.78804,-0.0731 7.55761,-1.17754 4.84363,2.25614 -4.15631,5.25858 -7.37814,2.46136 -6.03605,2.44389 5.51858,-0.0719 4.98005,-1.08432 7.08865,-0.97808 7.14214,0.36059 0.0762,1.90756 4.03104,2.64044 6.0928,1.12895 0.72599,-0.53211 0.86856,-0.19396 0.41218,0.98571 -0.38112,0.98687 -5.8448,4.22842 -12.14118,7.20403 l -11.44858,5.40907 13.47903,-5.49813 c 14.99355,-6.11694 16.93873,-5.29933 3.99225,1.67774 l -8.4467,4.55324 9.30818,-4.19673 c 5.12012,-2.30862 9.23564,-3.71785 9.14629,-3.12984 -0.0895,0.58826 1.07347,1.24941 2.58236,1.47006 2.75898,0.40354 -21.01441,10.19838 -46.51953,19.16512 -5.89415,2.07233 -10.2413,3.96511 -9.66123,4.20632 0.97727,0.40626 28.65818,-9.07909 50.47896,-17.29677 5.15265,-1.94033 13.631044,-5.00669 18.840697,-6.81456 7.229279,-2.50876 8.199893,-3.04694 4.103063,-2.26952 -2.95236,0.5603 -7.171623,1.75854 -9.377579,2.66168 -3.164305,1.29577 -4.234146,1.12494 -5.065751,-0.80761 -0.57971,-1.3472 -0.50209,-2.6863 0.17158,-2.97619 0.673589,-0.28985 1.608654,0.36849 2.079688,1.46313 0.655431,1.52316 1.587426,1.48672 3.968695,-0.15557 1.735775,-1.1971 6.507678,-2.41272 10.792087,-2.74942 4.224228,-0.3321 6.893237,-0.15459 5.931967,0.39443 -0.961122,0.54936 -0.179649,0.8457 1.736437,0.66039 3.037447,-0.29399 2.864679,-0.0473 -1.353861,1.91361 -8.165587,3.79558 -7.633265,5.75696 0.640138,2.3569 4.244812,-1.74428 10.287008,-3.27652 13.425521,-3.40421 5.673841,-0.23073 5.638745,-0.20579 -6.116839,4.33954 -8.602544,3.3261 -10.687206,4.45191 -7.656132,4.13224 2.29105,-0.24166 6.25354,-1.27917 8.806729,-2.30334 2.551348,-1.02341 4.796502,-1.49013 4.993217,-1.04083 0.193998,0.45085 -0.59351,1.27894 -1.749448,1.83931 -2.185391,1.05972 -38.366949,10.21288 -57.924959,14.65361 -6.98247,1.58537 -18.1101,5.50634 -29.37797,10.35378 -13.39795,5.76417 -18.06775,7.33494 -17.87172,6.01271 0.16476,-1.11078 -0.12941,-1.22645 -0.77522,-0.30425 -1.61854,2.31153 -13.28889,5.05626 -11.8671,2.79098 0.75992,-1.21097 -0.14765,-0.9523 -2.61833,0.74404 -2.70864,1.85956 -3.7073,2.09026 -3.51845,0.8166 0.18184,-1.22618 -0.5318,-1.17009 -2.29624,0.17797 -3.71195,2.83512 -22.61365,0.82874 -24.06987,-2.55539 -0.34364,-0.79857 6.07143,-1.46734 13.8933,-1.44733 7.11971,0.018 18.69718,-2.38094 14.65905,-3.0377 -1.28764,-0.20942 -3.30781,0.026 -4.49108,0.52281 -1.18326,0.49687 -2.38195,0.36943 -2.66272,-0.28304 -0.28075,-0.65249 -1.20045,-0.51282 -2.04402,0.30973 -0.84359,0.82252 -1.77812,0.92766 -2.07646,0.23437 -0.29838,-0.69342 -2.89364,-1.03223 -5.76706,-0.75246 -7.19848,0.70083 -9.25112,-0.27517 -4.92614,-2.34117 2.51718,-1.20248 2.76385,-1.56002 0.84834,-1.23042 -6.59779,1.13466 -5.34093,-0.92672 2.18538,-3.58335 l 8.10553,-2.86067 -6.78321,1.10094 -6.78322,1.10092 5.2186,-3.30878 c 2.87063,-1.81964 6.09203,-3.44117 7.15873,-3.60351 1.06669,-0.16234 1.42159,-0.34755 0.78994,-0.41232 -0.63181,-0.0647 -1.0543,-0.74746 -0.94021,-1.51759 0.11432,-0.77008 -0.45961,-0.75059 -1.2755,0.0449 -0.81591,0.79551 -2.10036,1.01448 -2.85474,0.48635 -0.84217,-0.58968 -0.0578,-1.56473 2.03211,-2.52657 2.84882,-1.31145 2.94973,-1.55155 0.61813,-1.4737 -2.60854,0.087 -2.62411,-0.0337 -0.23687,-1.89464 1.40197,-1.09292 4.36032,-2.48476 6.57459,-3.09285 3.44952,-0.94742 3.53001,-1.05383 0.5652,-0.74714 -5.62891,0.5823 -2.09698,-2.22687 4.31035,-3.42824 3.24118,-0.60759 7.20696,-1.9309 8.81531,-2.94064 2.28398,-1.43426 1.96799,-1.47613 -1.44824,-0.1933 -2.4054,0.90339 -5.38919,1.48116 -6.63017,1.28383 -0.71555,-0.11383 -0.27875,-0.49094 0.98046,-1.03217 z m -20.23839,13.59711 c 0.71335,-0.30696 1.19295,0.13842 1.06653,0.99118 -0.12643,0.85275 -0.47264,1.65565 -0.76982,1.78351 -0.29716,0.12785 -0.77746,-0.31938 -1.06732,-0.99298 -0.28985,-0.67363 0.0572,-1.47474 0.77061,-1.78171 z m 43.15775,-16.97648 c -1.76022,0.74514 -4.21456,2.20773 -7.3003,4.36612 -4.26389,2.98211 -4.11912,2.98007 3.2521,-0.0322 4.41521,-1.80443 7.49054,-3.67683 7.18894,-4.37774 -0.31139,-0.72363 -1.37988,-0.69982 -3.14074,0.0438 z m 15.97718,-5.35059 c -9.15428,4.10457 -10.65208,5.03447 -6.20684,3.84883 5.44134,-1.45137 17.22212,-7.0928 17.95255,-8.59696 0.1759,-0.36376 -5.1092,1.77262 -11.7457,4.74816 z m -45.41483,20.9564 c -0.43306,0.16573 -0.8849,0.45198 -1.25089,0.81888 -0.80874,0.8114 -0.39485,0.97639 1.05724,0.4211 1.31407,-0.50253 1.91313,-1.10221 1.33112,-1.334 -0.29102,-0.11584 -0.7046,-0.0716 -1.13746,0.094 z m 4.8978,-2.10757 c -0.43296,0.1657 -0.88308,0.45119 -1.24905,0.8181 -0.80885,0.81143 -0.39485,0.97639 1.05723,0.4211 1.31398,-0.5025 1.91313,-1.10222 1.33112,-1.33399 -0.29102,-0.11585 -0.70634,-0.0709 -1.13929,0.0948 z m -24.38909,10.50356 c 0.555,-0.23884 1.1457,-0.39265 1.63997,-0.40373 0.98806,-0.0228 0.41933,0.55097 -1.26476,1.27565 -1.68411,0.72469 -2.49176,0.74344 -1.79599,0.0414 0.34802,-0.35095 0.86576,-0.67457 1.42076,-0.91339 z m 65.86054,-25.44439 c -0.43296,0.1657 -0.88307,0.45119 -1.24904,0.81809 -0.80874,0.8114 -0.39404,0.97817 1.05798,0.4229 1.31408,-0.50252 1.91248,-1.10397 1.33035,-1.33575 -0.29102,-0.11586 -0.70634,-0.0709 -1.13928,0.0948 z m 15.87918,-6.82861 c -0.66911,0.27925 -1.3502,0.65666 -1.87928,1.06831 -1.05794,0.8235 -0.25994,0.80601 1.77132,-0.0393 2.03134,-0.84525 2.89647,-1.51669 1.92311,-1.4952 -0.48695,0.0104 -1.14555,0.18805 -1.8151,0.46634 z m -59.44294,27.02686 c -0.43296,0.1657 -0.88306,0.4512 -1.24914,0.81814 -0.80875,0.81136 -0.39473,0.97635 1.05725,0.4211 1.31408,-0.50254 1.91322,-1.10225 1.33111,-1.334 -0.29092,-0.11592 -0.70625,-0.0709 -1.1392,0.0948 z m 67.36204,-28.98651 c -0.43296,0.1657 -0.88482,0.45194 -1.2508,0.81885 -0.80884,0.81139 -0.39305,0.97565 1.05898,0.42038 1.31408,-0.50254 1.91321,-1.10225 1.33112,-1.33401 -0.29102,-0.11585 -0.70634,-0.0709 -1.1393,0.0948 z m -59.38861,26.99497 c -0.99895,0.42986 -1.9665,0.93264 -2.66159,1.40452 -1.39,0.94417 -0.0472,0.64967 2.98421,-0.65476 3.03136,-1.30442 4.1684,-2.0772 2.52718,-1.71684 -0.82055,0.18028 -1.85086,0.53724 -2.8498,0.96708 z m 64.22353,-26.16038 c 1.65421,-0.79412 4.06525,-1.26444 5.35666,-1.04624 2.66407,0.45014 1.58586,0.91411 -4.28786,1.84511 -3.76075,0.59606 -3.84344,0.53294 -1.0688,-0.79887 z m -75.51377,33.93379 c -0.43296,0.1657 -0.88482,0.45193 -1.2508,0.81884 -0.80883,0.81143 -0.39484,0.97639 1.05725,0.4211 1.31407,-0.50254 1.91312,-1.10221 1.33111,-1.334 -0.29102,-0.11584 -0.70459,-0.0716 -1.13754,0.0941 z m -57.00225,25.79586 c -0.0737,-0.029 -0.43859,0.62751 -0.86963,1.40334 0.16668,0.12822 0.33356,0.25599 0.50399,0.38062 0.27236,-1.04381 0.44666,-1.75174 0.36572,-1.784 z m 63.75807,-27.24231 c -0.555,0.23884 -1.07291,0.56205 -1.42077,0.91337 -0.69585,0.70185 0.11183,0.68334 1.79599,-0.0414 1.684,-0.72464 2.25292,-1.29821 1.26476,-1.27569 -0.49413,0.0114 -1.08498,0.16488 -1.63997,0.40373 z m -17.28941,8.73469 5.62917,-0.41296 c 6.7736,-0.49741 9.94852,-1.44516 7.65424,-2.28373 -0.89999,-0.32895 -4.25738,0.14399 -7.46013,1.04988 z m 26.2844,-11.16394 c -0.43306,0.16573 -0.88491,0.45198 -1.25088,0.81888 -0.80876,0.81136 -0.39484,0.97636 1.05721,0.42109 1.31408,-0.50252 1.91313,-1.10222 1.33111,-1.334 -0.29101,-0.11585 -0.70458,-0.0716 -1.13746,0.0941 z m 52.06141,-20.97151 c -1.66489,0.71643 -3.30099,1.49981 -4.50707,2.17563 -2.41237,1.35118 -0.25238,0.67843 4.79973,-1.49554 5.0521,-2.17398 7.02566,-3.27996 4.38594,-2.45715 -1.3198,0.41158 -3.01369,1.06064 -4.6786,1.77706 z m -14.79182,6.38564 c -0.43296,0.1657 -0.88482,0.45194 -1.25089,0.81888 -0.80873,0.8114 -0.39472,0.97633 1.05722,0.42109 1.31409,-0.50254 1.91322,-1.10226 1.33112,-1.33399 -0.29092,-0.11593 -0.7045,-0.0717 -1.13746,0.094 z m -45.34246,19.66229 c -1.32487,0.79065 -2.88841,2.90307 -2.48216,3.84718 0.26924,0.62571 1.3731,0.0265 2.45507,-1.33088 1.08141,-1.35644 1.61639,-2.60443 1.1898,-2.77431 -0.30638,-0.12205 -0.72108,-0.006 -1.16272,0.25797 z m 3.97816,1.51162 c -0.7263,0.26654 -1.2514,0.62035 -1.4001,0.99582 -0.29722,0.75101 1.26388,0.70473 3.46797,-0.10383 3.76189,-1.37972 3.79392,-1.46343 0.53933,-1.36539 -0.95335,0.0288 -1.88084,0.20701 -2.6072,0.4734 z m 12.79278,-3.08092 c -0.88956,0.37843 -1.79114,0.85011 -2.48984,1.32447 -1.39751,0.94821 -0.33154,0.78535 2.36891,-0.36026 2.70022,-1.14548 3.84178,-1.92142 2.53891,-1.72402 -0.65128,0.0989 -1.52813,0.38232 -2.41797,0.75983 z m -75.96486,35.89482 c 0.26722,0.82598 0.50927,1.66556 0.86637,2.43813 0.12362,-0.41857 0.39954,-0.84952 0.87793,-1.22617 1.63284,-1.28525 1.45733,-1.46089 -1.20997,-1.20585 -0.19373,0.0183 -0.35366,-0.006 -0.53429,-0.006 z m 64.77039,-25.44307 c -0.63391,0.27277 -1.25593,1.19223 -1.38237,2.04495 -0.12652,0.8528 0.62897,1.18161 1.67907,0.72973 1.0502,-0.4519 1.67145,-1.37314 1.38159,-2.04676 -0.28984,-0.67358 -1.04448,-1.00066 -1.67829,-0.72792 z m -32.75043,14.22244 c 0.1582,-0.031 0.31655,-0.0198 0.46836,0.0408 0.44094,0.17561 0.26169,1.37799 -0.39823,2.67186 -0.74831,1.46693 -1.4124,1.86156 -1.76186,1.04944 -0.55731,-1.29512 0.58398,-3.54436 1.6917,-3.76214 z m -6.67179,4.7399 c 0.0735,-0.18426 0.31794,-0.0865 0.72373,0.318 0.73446,0.73177 1.14544,1.80806 0.91373,2.39009 -0.2317,0.58204 -0.83329,-0.0163 -1.33582,-1.33034 -0.27942,-0.72522 -0.37494,-1.19355 -0.3015,-1.37779 z m 45.37073,-18.43055 c -0.55499,0.23885 -1.0729,0.56207 -1.42068,0.91335 -0.69594,0.70188 0.11174,0.68338 1.79591,-0.0413 1.68411,-0.72469 2.25476,-1.299 1.2666,-1.27648 -0.49412,0.0114 -1.08692,0.1657 -1.64183,0.40446 z m -33.2348,16.12564 c 0.44656,-0.30081 0.90844,-0.17165 1.15152,0.39319 0.32403,0.75303 1.05591,0.70213 1.62683,-0.11317 0.64314,-0.91846 0.93682,-0.80142 0.77241,0.30767 -0.31351,2.11407 -0.18852,2.04275 -2.86441,1.61523 -1.47425,-0.23551 -1.81227,-0.76909 -1.11884,-1.75964 0.13676,-0.19546 0.28343,-0.34292 0.43232,-0.4432 z m -5.36993,3.93093 c 0.0431,-0.0213 0.15443,0.0486 0.33728,0.22065 0.73175,0.68801 1.69979,0.72271 2.15139,0.0779 0.45138,-0.6448 1.16258,-0.13861 1.58115,1.12481 0.41858,1.26337 1.37789,3.3387 2.13114,4.61127 1.19313,2.01453 1.32724,1.86372 1.03385,-1.16994 -0.32314,-3.34235 -0.28513,-3.37418 0.96947,-0.78091 1.42528,2.94586 2.84232,2.93004 4.0271,-0.0446 0.42626,-1.07029 1.26504,-1.5503 1.91421,-1.09567 0.63522,0.44477 0.81597,2.73119 0.40237,5.08087 l -0.75157,4.27188 -5.11033,-3.29314 c -2.80976,-1.81079 -6.13675,-4.80893 -7.39397,-6.66296 -0.9428,-1.3905 -1.42075,-2.27507 -1.29177,-2.34012 z m -3.67546,3.75252 c 0.69224,-0.29788 2.35894,0.99157 3.70368,2.86506 2.63347,3.66898 2.8189,6.30041 0.21975,3.12462 -0.86461,-1.05674 -2.38505,-2.71367 -3.37758,-3.68367 -1.02989,-1.00645 -1.2638,-1.99708 -0.54583,-2.30602 z m 110.37665,-47.3089 c -0.66911,0.27926 -1.34845,0.65592 -1.87759,1.06717 -1.05809,0.82316 -0.26186,0.80678 1.76949,-0.0385 2.03122,-0.84519 2.89664,-1.51677 1.92309,-1.49519 -0.48694,0.0104 -1.14555,0.18805 -1.81508,0.46633 z m 20.166478,-7.23194 c -0.432958,0.1657 -0.884818,0.45194 -1.250891,0.81887 -0.808751,0.81137 -0.392971,0.97561 1.059082,0.42031 1.313706,-0.50237 1.913125,-1.1022 1.331114,-1.33399 -0.291018,-0.11585 -0.706344,-0.0709 -1.13929,0.0948 z m -12.291402,5.29346 c -0.669117,0.27926 -1.350196,0.65666 -1.879426,1.06794 -1.05792,0.82308 -0.25995,0.80602 1.771319,-0.0393 2.031316,-0.84524 2.895814,-1.51847 1.922343,-1.49697 -0.486952,0.0104 -1.144811,0.18979 -1.814367,0.468 z m 6.321631,-2.5096 c -1.405832,0.48361 -2.014205,1.25844 -1.350806,1.72311 l 3.07e-4,0.002 c 1.45944,1.02182 4.903493,-0.28593 4.320687,-1.64031 -0.228188,-0.53029 -1.564676,-0.5679 -2.970674,-0.0847 z m -112.253457,48.45679 c 0.0733,-0.18423 0.31789,-0.0865 0.72373,0.3179 v 0 c 0.73446,0.73176 1.1472,1.80734 0.91549,2.38936 -0.2317,0.58203 -0.83329,-0.0163 -1.33582,-1.33033 -0.27943,-0.72526 -0.37495,-1.19359 -0.3015,-1.37779 z m 105.909964,-43.03318 c -0.554995,0.23884 -1.074654,0.56281 -1.422424,0.91411 -0.69595,0.70187 0.11421,0.68439 1.798407,-0.0403 1.684107,-0.72468 2.252276,-1.29999 1.263995,-1.27746 -0.494025,0.0114 -1.084979,0.16487 -1.639968,0.40373 z m -93.325124,40.52652 c 0.27188,-0.009 0.51929,0.16405 0.67269,0.52067 0.30697,0.71338 1.5247,0.89012 2.70797,0.3933 1.18335,-0.4969 5.84633,-1.28988 10.36089,-1.76016 5.83416,-0.60778 9.33876,-1.67541 12.1184,-3.69435 2.15109,-1.56217 4.58141,-2.74264 5.39965,-2.62143 0.8186,0.1213 0.86172,-0.21697 0.0975,-0.75212 -2.06277,-1.44431 2.57073,-4.86785 5.44328,-4.02203 1.35906,0.40017 4.08448,-0.0231 6.0575,-0.93961 1.97291,-0.91645 3.83593,-1.09152 4.13783,-0.38993 0.30667,0.71266 1.63639,0.44442 3.01474,-0.60837 1.35693,-1.03642 3.53213,-1.67379 4.83378,-1.4166 1.82182,0.36016 1.65668,0.562 -0.72144,0.87816 -1.73244,0.23032 -2.85623,0.95216 -2.55884,1.64328 0.29162,0.67772 3.18111,0.53319 6.42176,-0.32026 3.7817,-0.99596 7.07249,-0.90841 9.19003,0.24274 1.81445,0.9864 3.83263,1.3179 4.48446,0.73665 0.65182,-0.58128 3.38477,-0.28809 6.07285,0.65274 2.68827,0.94077 4.09454,1.66167 3.12602,1.60186 -0.96853,-0.0598 -1.88162,0.70841 -2.02969,1.70692 -0.15852,1.06938 0.1186,1.26103 0.67494,0.46648 1.32428,-1.89129 8.51147,0.37756 9.73371,3.07273 1.38781,3.06069 6.580903,6.36856 8.620489,5.49092 1.00941,-0.43437 1.709667,0.15747 1.763047,1.4931 0.05214,1.29583 0.464762,1.67758 0.995384,0.91971 0.499161,-0.71291 2.642708,0.38151 4.763377,2.43246 4.666059,4.51235 19.269043,13.21254 19.8267,11.81258 0.219399,-0.55067 -1.001043,-1.64172 -2.712259,-2.42415 -2.011337,-0.91974 -2.740024,-1.85442 -2.060203,-2.6431 0.613974,-0.71022 0.471972,-0.82035 -0.338431,-0.26254 -1.502405,1.0341 -10.110639,-3.90415 -11.193523,-6.42067 -0.363951,-0.84579 -1.67483,-1.99117 -2.911736,-2.54669 -1.237012,-0.55552 0.15957,-0.72539 3.103096,-0.37848 2.943542,0.34694 5.482801,1.2956 5.642851,2.10928 0.169509,0.86246 0.994981,0.79302 1.9799,-0.16731 1.113278,-1.08554 1.600861,-1.04436 1.427815,0.12129 -0.160973,1.08669 1.081198,1.54972 3.222393,1.20318 2.662585,-0.43094 3.333997,-0.0547 2.849289,1.59123 -0.442078,1.49601 -0.138188,2.22803 0.989556,2.39578 0.894116,0.13258 1.385816,-0.31734 1.092297,-0.99946 -0.293481,-0.68201 1.524781,-1.01245 4.040487,-0.73506 2.515627,0.27746 4.608677,1.27173 4.652837,2.20999 0.04376,0.93835 0.648615,1.15363 1.342708,0.47685 1.796054,-1.75123 8.728552,1.03563 8.828881,3.54928 0.04621,1.15554 -1.238641,3.98925 -2.854599,6.29741 -2.280941,3.25705 -4.967429,5.05224 -12.007641,8.01833 -9.272377,3.9065 -26.00993,6.62327 -26.975825,4.37862 -0.27927,-0.64901 -0.877067,-0.89976 -1.328503,-0.55738 -1.813743,1.37643 -11.990257,0.40465 -26.548707,-2.53486 -17.12454,-3.45768 -23.80954,-6.22674 -22.0631,-9.13862 0.7452,-1.24241 0.45345,-1.25001 -0.93731,-0.024 -1.41365,1.24616 -3.73031,1.12853 -7.73258,-0.39359 -3.14328,-1.19542 -5.62795,-2.76003 -5.52154,-3.47765 0.10642,-0.71762 -0.4439,-1.03159 -1.21357,-0.7004 -2.36613,1.01816 -8.39296,-2.74343 -7.20077,-4.4944 0.66892,-0.98248 0.2749,-1.19478 -1.12157,-0.61028 -1.18335,0.4969 -3.72821,0.27521 -5.6551,-0.4923 -3.43253,-1.3672 -3.45542,-1.41758 -1.1262,-2.41986 1.30749,-0.56263 2.4679,-1.62896 2.57776,-2.37016 0.10994,-0.74132 -1.41813,-0.20784 -3.39611,1.18487 -2.53028,1.78175 -4.93518,2.3516 -8.11123,1.92326 -2.48267,-0.33473 -4.8053,-0.19074 -5.16179,0.31816 -0.35657,0.50893 -1.24385,-0.77584 -1.97278,-2.8551 -0.77834,-2.2199 -1.92465,-3.52426 -2.7769,-3.15752 -2.22898,0.95916 -5.99885,-1.32101 -4.8637,-2.94214 0.25923,-0.37036 0.55595,-0.56223 0.82799,-0.57107 z m -43.01333,20.46948 c -0.0547,0.0323 -0.0807,0.0842 -0.13454,0.11763 0.23576,0.0652 0.46275,0.14455 0.64514,0.29862 0.37921,0.31984 0.20918,1.04723 0.58828,1.36711 0.44176,0.37261 1.07565,0.41285 1.61688,0.62465 0.20646,-0.24478 0.40865,-0.46304 0.58106,-0.53723 0.82856,-0.35653 0.8822,-1.28607 0.1203,-2.0675 -0.73439,-0.75333 -2.21776,-0.49117 -3.41728,0.19687 z m 57.67674,-24.25323 c 0.43296,-0.1657 0.84817,-0.21071 1.13918,-0.0948 l 3.1e-4,0.002 c 0.58206,0.23171 -0.017,0.83149 -1.3311,1.33399 -1.45198,0.55523 -1.86601,0.39026 -1.05726,-0.4211 0.36592,-0.36731 0.8153,-0.65449 1.24841,-0.81986 z m 12.24816,-5.2705 c 0.43285,-0.16567 0.84818,-0.21071 1.13919,-0.0948 l 3.1e-4,0.002 c 0.58205,0.2317 -0.017,0.83148 -1.33112,1.33398 -1.45198,0.55523 -1.86774,0.391 -1.05898,-0.42038 0.36583,-0.36725 0.81694,-0.65519 1.25014,-0.82061 z m 39.19144,-16.86445 c 0.43295,-0.1657 0.84827,-0.21074 1.13928,-0.0948 l 3.2e-4,0.002 c 0.58199,0.23169 -0.017,0.83149 -1.33112,1.334 -1.45207,0.55528 -1.866,0.39025 -1.05724,-0.4211 0.36592,-0.3673 0.81521,-0.65445 1.2483,-0.81983 z m 40.5237,-17.42543 c -0.554991,0.23884 -1.073,0.56209 -1.420773,0.91337 -0.695849,0.70185 0.111791,0.68331 1.795983,-0.0414 1.68401,-0.72465 2.254764,-1.299 1.266518,-1.2764 -0.494033,0.0114 -1.086821,0.16566 -1.641734,0.40442 z m -110.61451,48.26827 c 0.15291,-0.0864 0.31459,-0.0502 0.47463,0.12948 0.64105,0.71889 0.90015,2.21583 0.57658,3.32616 -0.40618,1.39351 0.69164,3.04005 3.54354,5.31964 2.27235,1.81624 3.79936,2.4671 3.3958,1.44325 -0.40356,-1.02386 1.1923,-0.49662 3.54852,1.17557 2.3558,1.67092 4.1633,3.22077 4.01612,3.44292 -0.51211,0.77312 -11.75301,-4.36064 -12.29236,-5.61405 -0.29878,-0.69435 -1.01034,-0.59622 -1.58119,0.21904 -0.64313,0.91846 -0.9369,0.80145 -0.77239,-0.30767 0.14605,-0.98452 -0.27508,-1.55712 -0.93682,-1.27237 -0.66173,0.28478 -1.08262,-1.63247 -0.93409,-4.26097 0.11126,-1.97133 0.50253,-3.34178 0.96152,-3.60105 z m -4.2249,2.93002 c -0.25827,0.0108 -0.54282,0.19247 -0.78988,0.54605 -0.49454,0.70618 -0.66222,1.83608 -0.37232,2.50971 0.28988,0.67372 0.93157,0.6454 1.4261,-0.0608 0.49444,-0.70615 0.66294,-1.83434 0.37306,-2.50795 -0.14491,-0.33676 -0.37841,-0.4979 -0.637,-0.48709 z m 83.94477,-35.01017 c 0.43297,-0.1657 0.84829,-0.21074 1.1393,-0.0948 0.58209,0.23171 -0.017,0.83148 -1.33112,1.33398 -1.45198,0.55523 -1.86784,0.39105 -1.05908,-0.42031 0.36592,-0.36729 0.81794,-0.65314 1.25088,-0.81887 z m -66.6528,29.95287 c -0.67359,0.28985 -1.32875,1.22565 -1.45517,2.07842 -0.12643,0.85276 0.32095,1.31199 0.99478,1.02204 0.67359,-0.28985 1.32943,-1.22381 1.45594,-2.07662 0.12644,-0.85276 -0.32213,-1.31362 -0.99555,-1.02384 z m 76.07665,-32.33904 c 1.59884,-0.74928 2.19076,-0.60839 2.04506,0.37449 -0.19649,1.3252 0.87159,1.09321 3.92104,-0.84948 2.304405,-1.46824 4.098813,-2.06536 3.989567,-1.32751 -0.109363,0.73734 0.856068,1.11535 2.143503,0.84034 v 0 c 1.286518,-0.27462 1.930366,0.0624 1.428534,0.75038 -0.502083,0.68841 -2.478577,1.41134 -4.390497,1.6066 -1.911967,0.19488 -6.298047,1.14182 -9.748977,2.10494 -7.11483,1.98568 -7.55043,1.18839 -1.33529,-2.45112 0.76654,-0.44877 1.41252,-0.79792 1.94546,-1.04781 z m -100.29069,44.21278 c 1.23888,-0.28334 3.70958,0.34052 6.41944,1.82404 1.90109,1.04075 2.2174,1.70294 1.38352,2.89387 -0.62781,0.89664 -0.98459,0.89303 -0.85069,-0.0104 0.1269,-0.85596 -1.44036,-1.70103 -3.48395,-1.87525 -2.04357,-0.17421 -3.91367,-0.77385 -4.15454,-1.33368 -0.35809,-0.83218 -0.0573,-1.32873 0.68618,-1.49874 z m 149.407023,-62.9219 5.216136,-1.37283 c 2.86853,-0.7551 6.360296,-0.93342 7.760393,-0.39661 3.306407,1.26788 1.58845,1.73425 -6.451503,1.7534 z m -114.371883,49.60659 c -2.36206,1.00412 -5.48272,2.85976 -6.93463,4.12374 l -3e-4,-0.002 c -2.13502,1.85886 -2.16792,2.10826 -0.16894,1.29744 1.35912,-0.55196 4.48012,-2.40702 6.93473,-4.12378 l 4.46345,-3.12201 z m 84.746015,-36.21189 c 0.315898,-0.15239 0.61772,-0.24106 0.88422,-0.25262 1.067849,-0.0428 2.813291,-0.45362 3.880944,-0.91304 1.067187,-0.45923 1.742356,-0.33226 1.497383,0.28272 -0.244881,0.61493 -2.734589,2.2954 -5.530988,3.73448 -4.69735,2.41754 -4.958844,2.4021 -3.437036,-0.20504 0.679406,-1.16408 1.75843,-2.18855 2.705557,-2.64621 z m 7.421485,0.78255 c 0.554992,-0.23884 1.145793,-0.39267 1.640067,-0.40376 0.988058,-0.0228 0.419323,0.55096 -1.264865,1.27569 -1.684009,0.72464 -2.491753,0.74343 -1.795889,0.0414 0.347925,-0.35091 0.865679,-0.67453 1.420676,-0.91335 z m -73.06401,32.88175 c -0.43305,0.16573 -0.8849,0.45199 -1.25088,0.8189 -0.80874,0.8114 -0.39222,0.9774 1.05976,0.42218 1.31406,-0.50253 1.91247,-1.10398 1.33032,-1.33579 -0.2909,-0.11592 -0.70633,-0.0709 -1.13919,0.0948 z M -69.146491,326.437 c 0.669112,-0.27926 1.328298,-0.45557 1.81509,-0.46633 0.973503,-0.0214 0.108775,0.65177 -1.922339,1.49697 -2.031321,0.84525 -2.829322,0.86242 -1.771319,0.0393 0.529095,-0.41158 1.209129,-0.79145 1.878527,-1.07002 z m -126.690929,56.55541 c 0.44598,-0.11804 0.96748,-0.14599 1.54065,-0.0612 v 0 c 1.53776,0.22852 1.95738,1.01143 1.69797,3.16466 -0.32592,2.70506 -0.39829,2.74308 -1.33468,0.66361 -0.54558,-1.20966 -1.39517,-1.62383 -1.88962,-0.91768 -0.49452,0.70622 -1.13618,0.73455 -1.42611,0.0608 -0.59701,-1.38742 0.0704,-2.55562 1.41011,-2.90952 z m 40.93257,-16.75681 c -0.77701,0.33436 -1.52126,0.74638 -2.04428,1.15412 -1.04638,0.81522 0.0269,0.6518 2.38479,-0.36281 2.3575,-1.01445 3.21259,-1.68071 1.90124,-1.48151 -0.65579,0.0995 -1.46483,0.35586 -2.24175,0.69017 z m 100.327133,-43.16953 c 0.432956,-0.1657 0.848281,-0.21074 1.139292,-0.0948 0.582094,0.23172 -0.0174,0.83164 -1.33111,1.334 -1.452068,0.55528 -1.866003,0.39026 -1.057244,-0.4211 0.365911,-0.3673 0.815952,-0.65271 1.249049,-0.81809 z m -54.002883,24.0991 c 0.27304,-0.26891 2.18971,-0.22697 5.04957,0.15751 3.813157,0.51266 7.033609,1.5646 7.15482,2.33683 0.145887,0.92902 0.867908,0.58956 2.137224,-1.00239 2.238791,-2.8083 1.479371,-2.86642 20.475329,1.59951 16.010957,3.76409 27.560315,9.73106 39.923123,20.63014 6.849097,6.03805 12.609425,15.81585 11.893881,20.18889 -0.161613,0.98755 -1.899995,-1.85765 -3.862278,-6.3222 -3.093735,-7.04028 -4.792997,-9.13123 -12.812454,-15.75156 -5.085622,-4.19836 -12.211865,-9.07412 -15.835447,-10.83393 -9.643294,-4.68317 -37.429971,-11.34473 -38.291982,-9.1804 -0.466357,1.17065 -0.17669,1.5301 0.87252,1.07894 2.451801,-1.05438 26.576962,5.24149 36.075412,9.41551 10.28091,4.51769 24.072207,16.48886 28.845188,25.03774 3.165615,5.6699 3.26253,6.52938 1.288854,11.48437 -2.055019,5.16089 -2.50812,5.5095 -12.395592,9.59712 -5.643731,2.3335 -12.502491,4.34272 -15.244006,4.46526 -2.741532,0.12251 -6.134106,0.58877 -7.538878,1.03485 -1.404787,0.44605 -0.520357,-0.53325 1.966382,-2.1751 l 4.522119,-2.98566 -6.569384,2.62072 c -6.013288,2.39913 -17.944758,2.71273 -18.930821,0.49786 -0.182003,-0.42296 3.47772,-1.53764 8.145076,-2.48213 10.42389,-2.11014 18.551894,-6.33056 26.059668,-13.52926 5.398733,-5.17651 5.632178,-5.74718 4.147096,-10.17694 -1.682401,-5.01861 -5.356587,-8.36061 -13.23369,-12.03646 -2.65626,-1.23953 -4.528144,-2.38268 -4.159612,-2.54125 0.368539,-0.15855 -0.372689,-0.75225 -1.645295,-1.31838 -1.272926,-0.56586 -2.619422,-0.60039 -2.993021,-0.0771 -0.373594,0.52327 -0.914098,0.40566 -1.2019,-0.26318 -0.287427,-0.66796 -1.814022,-1.0871 -3.392046,-0.93028 -1.577839,0.15672 -4.031728,-0.76913 -5.453251,-2.05905 -1.421407,-1.2899 -2.992346,-1.76353 -3.490898,-1.05152 -0.498666,0.71203 -0.793802,0.5362 -0.656581,-0.38939 0.137315,-0.92563 -0.470456,-1.78853 -1.350991,-1.91914 -0.880709,-0.13052 -1.513026,-0.8382 -1.404137,-1.5731 0.1089,-0.73486 -0.528119,-1.44488 -1.416133,-1.57642 -0.887857,-0.13171 -1.339881,0.18198 -1.004039,0.69579 1.994547,3.05521 -1.912679,3.18285 -4.29418,0.14044 -1.767474,-2.25833 -4.904428,-3.07068 -6.363142,-1.64841 -1.195398,1.16566 -1.370974,0.98659 -0.831573,-0.84565 0.543945,-1.84723 -0.189613,-2.44461 -3.594257,-2.92704 l -4.277534,-0.60669 3.769853,1.22069 c 3.142126,1.01657 3.506821,1.47481 2.196504,2.7524 -0.868858,0.84727 -1.472695,0.87114 -1.351175,0.052 0.120858,-0.81511 -1.190191,-1.69954 -2.913702,-1.96329 -3.11118,-0.47623 -3.11856,-0.49766 -1.06644,-3.18975 1.891314,-2.48111 1.867905,-2.59825 -0.2615,-1.37376 -1.28003,0.73596 -2.7488,0.86687 -3.26431,0.29047 -0.51557,-0.5765 -1.92042,-1.56433 -3.12175,-2.19478 -0.30033,-0.15754 -0.39166,-0.28276 -0.3006,-0.37248 z m -54.43574,23.83443 c -1.26771,0.54551 -2.40879,1.69043 -2.53522,2.54318 -0.13452,0.90706 1.35496,0.86705 3.589,-0.0943 2.23405,-0.96134 3.28706,-2.01539 2.536,-2.54137 -0.70625,-0.49445 -2.32206,-0.45304 -3.58978,0.0925 z m 115.090065,-49.34576 c 0.432962,-0.1657 0.846456,-0.20991 1.137456,-0.094 0.582086,0.23171 -0.01662,0.83345 -1.330338,1.33581 -1.452064,0.55526 -1.865983,0.39028 -1.057243,-0.4211 0.365914,-0.36731 0.817042,-0.65525 1.250142,-0.82062 z M -191.5347,384.68526 c 0.54931,-0.55689 2.3461,-0.23338 3.47798,0.92738 0.89956,0.92469 1.54648,1.88566 1.43637,2.13753 -0.25844,0.59108 -4.60156,-1.33996 -4.97719,-2.21285 -0.1646,-0.38245 -0.12021,-0.66648 0.0628,-0.85206 z m 40.13251,-17.05461 c -0.77693,0.33431 -1.52117,0.74635 -2.04429,1.15411 -1.04628,0.81519 0.027,0.65178 2.38479,-0.3628 2.35751,-1.01446 3.21442,-1.6815 1.90298,-1.48226 -0.65568,0.0994 -1.46655,0.35665 -2.24348,0.69096 z m 30.12933,-12.62466 c -3.89342,1.41533 -3.68814,2.20888 0.54486,2.10659 1.77779,-0.043 3.38421,-0.1014 3.57095,-0.13117 0.18684,-0.0297 0.0417,-0.74442 -0.32123,-1.58618 -0.36278,-0.84181 -2.06946,-1.01637 -3.79483,-0.38913 z m -63.19991,31.62241 c 0.12198,-0.10188 0.28557,-0.14341 0.48945,-0.11261 0.81551,0.12093 1.52124,1.16087 1.56729,2.31301 0.11795,2.94975 -0.6909,2.94526 -1.96344,-0.012 -0.44763,-1.04023 -0.45967,-1.88285 -0.0932,-2.18821 z m 37.48379,-15.08135 c -0.66911,0.27926 -1.34848,0.65559 -1.87749,1.06712 -1.05796,0.82349 -0.26186,0.80677 1.76948,-0.0385 2.03122,-0.84522 2.89572,-1.51846 1.92225,-1.49694 -0.48679,0.0107 -1.14482,0.18978 -1.81437,0.46799 z m -30.96194,17.79052 c 0.21667,-0.0233 0.59081,0.12715 1.0693,0.45416 0.95733,0.65418 2.19049,0.88803 2.74179,0.52121 0.55105,-0.36715 1.98703,0.10377 3.19035,1.04469 2.76065,2.15888 5.03544,2.67559 5.959,1.35662 0.39439,-0.56347 0.93981,-0.50401 1.21299,0.13083 0.27312,0.63482 1.80294,0.95684 3.39908,0.71466 2.05675,-0.31204 2.93114,0.26526 2.99988,1.9857 0.0815,2.03831 0.2897,2.05155 1.29655,0.0778 0.82038,-1.60834 1.3844,-1.91675 1.7892,-0.97606 0.32534,0.75609 0.96735,1.10957 1.42655,0.78525 2.37752,-1.67932 6.04703,-0.3681 6.50023,2.32296 0.26725,1.58674 0.50497,2.06067 0.52903,1.05236 0.0669,-2.76237 2.61782,-3.32502 7.76843,-1.71198 3.47156,1.08701 4.71055,2.19936 4.93231,4.43078 0.16278,1.6387 -0.29168,2.89291 -1.01021,2.78637 -0.71852,-0.10655 -1.29451,0.6216 -1.2791,1.61776 0.0154,0.99633 -0.49668,-0.24947 -1.13771,-2.76787 -1.05871,-4.15742 -1.23704,-4.30225 -1.9404,-1.57408 -0.70334,2.72837 -1.00109,2.89052 -3.22998,1.75362 -1.35005,-0.6887 -3.27222,-0.90104 -4.27226,-0.47071 -1.13985,0.49048 -1.85104,-0.0428 -1.90652,-1.43136 -0.0539,-1.34694 -0.45982,-1.68368 -1.03737,-0.85914 -0.52209,0.74565 -1.74636,0.3336 -2.72006,-0.9154 -0.9737,-1.24906 -2.0727,-1.83904 -2.44194,-1.31147 -0.36915,0.52751 -3.54015,-0.18511 -7.04667,-1.58179 -3.50659,-1.39663 -6.17514,-2.07145 -5.92969,-1.50107 0.24542,0.57042 -2.0042,-0.10367 -4.99903,-1.49759 -2.99486,-1.39391 -5.69018,-3.12927 -5.98983,-3.85448 -0.15501,-0.36031 -0.0906,-0.55823 0.12621,-0.58162 z m 86.201165,-32.49405 c 0.179706,-0.19335 0.504827,-0.28103 0.931078,-0.21792 0.852812,0.12641 1.65565,0.47264 1.783528,0.76982 0.127884,0.29718 -0.319314,0.77743 -0.992987,1.06732 -0.673589,0.28984 -1.476568,-0.0565 -1.783526,-0.76983 -0.153486,-0.35668 -0.118128,-0.65602 0.06186,-0.84949 z m 16.247144,-1.72878 c -0.03621,0.0904 0.548982,0.42853 1.7286,1.07203 2.47794,1.35161 3.761407,1.56629 3.32765,0.55827 -0.109509,-0.25448 -1.487268,-0.80314 -3.063974,-1.22034 -1.299061,-0.34372 -1.9562,-0.5004 -1.992276,-0.40996 z m -3.84598,2.86697 5.032994,1.57647 c 5.161101,1.61622 5.816243,1.71149 5.421742,0.79472 -0.125196,-0.29092 -2.52773,-0.94387 -5.340364,-1.4506 z m -11.894633,6.04752 c 0.168657,-0.17425 0.584697,-0.29275 1.220374,-0.3165 1.218042,-0.0487 2.308817,0.12777 2.422806,0.39267 0.426836,0.99194 -2.147675,1.43807 -3.367703,0.58376 -0.363971,-0.25484 -0.443846,-0.48549 -0.273374,-0.66059 z m 21.346297,-7.6971 4.418328,2.08978 c 4.129694,1.95387 5.456648,2.30931 5.043329,1.34879 -0.09442,-0.21942 -2.261344,-1.08254 -4.816528,-1.91844 z m -71.421943,33.23401 c 0.1918,-0.48166 1.5886,0.40346 3.10499,1.96816 1.51723,1.56444 2.60135,3.24008 2.4095,3.72175 -0.19191,0.4817 -1.58943,-0.40507 -3.10575,-1.9699 -1.51722,-1.56444 -2.60057,-3.23834 -2.40874,-3.72001 z m -0.70857,9.44154 c -0.12782,0.0387 -0.24881,0.12767 -0.35173,0.27478 -0.4121,0.58838 -0.52613,1.58877 -0.25343,2.2226 0.27276,0.63388 0.95588,0.95589 1.51721,0.71433 0.56134,-0.24155 0.67556,-1.24183 0.25351,-2.22263 -0.31658,-0.7357 -0.77991,-1.10104 -1.16552,-0.98897 z m 14.84641,-4.45999 c 0.69959,-0.14138 2.00757,-0.0192 4.13357,0.32626 2.96796,0.48238 5.71636,1.55604 6.10642,2.3861 0.86937,1.84577 0.0968,2.29906 -1.73306,1.01773 -0.74967,-0.52501 -2.9033,-0.88748 -4.78667,-0.80647 -1.88341,0.0811 -3.77605,-0.6668 -4.20469,-1.66291 -0.30702,-0.71348 -0.21508,-1.11945 0.48432,-1.2609 z m 52.49137,-22.36412 c -1.090061,0.46906 -1.402405,1.25736 -0.696246,1.75186 0.706159,0.49447 1.492834,0.80772 1.750032,0.69704 0.257291,-0.11073 0.572435,-0.89807 0.698865,-1.75083 0.126428,-0.85276 -0.662678,-1.1671 -1.752651,-0.69807 z m -57.53795,25.63302 4.35316,2.1263 c 2.39464,1.16891 4.08976,1.50943 3.76664,0.75849 -0.32311,-0.75086 0.15025,-1.25455 1.05296,-1.12072 0.92833,0.13771 2.05373,2.05403 2.59022,4.41368 l 0.86245,3.78787 c -0.6356,-0.25793 -1.32878,-0.7364 -2.09034,-1.52231 -1.45324,-1.49973 -3.04836,-2.14872 -3.54377,-1.44126 -0.50111,0.71572 -1.44951,0.037 -2.13698,-1.53203 -0.96972,-2.21557 -1.31274,-2.32866 -1.5988,-0.52828 -0.51526,3.24414 -2.56535,2.00713 -2.9411,-1.77498 z m 81.000598,-29.31638 c -0.374746,0.0662 -0.724215,0.27468 -0.958935,0.60809 -0.468447,0.66891 -0.303734,1.60068 0.365174,2.06907 0.668969,0.46852 1.598116,0.30277 2.066552,-0.36618 0.468541,-0.66895 0.304592,-1.59895 -0.36441,-2.06729 -0.334417,-0.23423 -0.733759,-0.3099 -1.108446,-0.24382 z m -67.274578,31.88313 c 0.1977,-0.0435 0.42699,0.0261 0.68706,0.20837 0.85693,0.59995 1.4403,1.95867 1.29851,3.01759 -0.20221,1.49356 -0.001,1.43494 0.89252,-0.25804 0.89642,-1.69855 1.91736,-1.96974 4.59039,-1.21622 2.98453,0.84134 3.48186,1.5504 3.76217,5.36802 0.34273,4.66701 -0.9481,4.78665 -6.22835,0.57723 -1.51892,-1.21091 -3.1462,-1.43626 -4.04485,-0.56005 -0.52774,0.51469 -1.19767,0.59267 -1.96353,0.30908 l 0.0647,-3.99546 c 0.0358,-2.17022 0.3498,-3.31976 0.94325,-3.45073 z m 6.71523,-1.6989 c 0.0178,-0.0953 0.8189,-0.066 2.41785,0.006 1.83169,0.0823 3.44006,0.40457 3.57479,0.71768 0.40329,0.9372 -0.34827,0.94061 -3.70861,0.0139 -1.53502,-0.42337 -2.30143,-0.64214 -2.28402,-0.73734 z m -0.0969,4.11349 c -0.18645,0.0391 -0.31612,0.55439 -0.48705,1.56613 -0.21823,1.29141 -0.21404,2.79935 0.01,3.34885 0.22441,0.54941 0.81338,0.41979 1.30786,-0.28627 0.49443,-0.70618 0.48945,-2.21168 -0.0111,-3.34625 -0.39322,-0.8885 -0.63356,-1.32305 -0.81965,-1.28244 z m 6.78535,1.53263 c 0.46651,-0.0971 1.20445,0.2319 2.44743,0.93918 1.59397,0.90689 3.33155,2.60619 3.859641,3.77601 1.288332,2.84976 -0.08713,3.27087 -2.128441,0.65217 -0.97278,-1.24791 -2.218,-1.53182 -3.07009,-0.701 -1.64919,1.60808 -2.46231,0.32211 -1.92764,-3.04671 0.1586,-0.9991 0.35247,-1.52257 0.81907,-1.61971 z m 59.591182,-20.93081 c 0.07335,-0.18421 0.317879,-0.0865 0.723688,0.31799 0.734004,0.73198 1.14545,1.80807 0.913646,2.39013 -0.231791,0.5821 -0.832923,-0.0164 -1.335816,-1.33033 -0.279414,-0.72523 -0.374912,-1.19356 -0.301529,-1.37775 z m -51.947687,23.25722 c 1.916498,-0.82468 9.199297,3.07705 10.412452,5.57882 0.986929,2.03523 1.372067,2.27348 1.133084,0.70105 -0.478651,-3.15121 0.725075,-3.51879 4.027618,-1.2292 1.490326,1.03313 2.894445,1.41459 3.120335,0.84736 0.545976,-1.37068 4.718733,-0.0904 5.448307,1.67199 0.316736,0.7639 -0.31389,0.79255 -1.401694,0.0631 -1.318557,-0.88416 -1.762861,-0.81463 -1.337682,0.21189 0.352217,0.84635 0.206581,1.67293 -0.321489,1.83722 -2.421856,0.75334 -4.610662,0.24489 -5.239906,-1.21741 -0.378442,-0.87946 -1.580009,-1.12541 -2.669474,-0.54592 -1.089474,0.57947 -4.067571,-0.26799 -6.617356,-1.88347 -3.867857,-2.45071 -4.453345,-2.51222 -3.534836,-0.37767 0.605482,1.40709 0.790843,3.00126 0.410939,3.54412 -0.380847,0.54283 -1.414427,-1.25978 -2.297803,-4.00588 -0.883384,-2.74608 -1.39359,-5.08386 -1.132524,-5.1962 z m 48.8007,-20.45081 c 0.07335,-0.18421 0.317879,-0.0865 0.723624,0.31798 0.734092,0.73193 1.145542,1.80804 0.913733,2.39008 -0.231791,0.58211 -0.83292,-0.0164 -1.335813,-1.33032 -0.279414,-0.72522 -0.374915,-1.19357 -0.301532,-1.37775 z m -2.049821,2.51502 c 0.667943,-0.29612 1.265809,-0.0232 1.618419,0.79624 0.852405,1.9809 -0.868855,3.25476 -2.681641,1.98533 -0.632231,-0.44261 -0.463089,-1.47565 0.37746,-2.2951 0.232189,-0.22623 0.463154,-0.38775 0.685776,-0.48642 z m -19.483866,9.10493 c 0.673683,-0.28987 1.462006,0.0226 1.751873,0.69626 0.289856,0.67359 -0.02441,1.46275 -0.698086,1.75264 -0.673585,0.28985 -1.46096,-0.0253 -1.750811,-0.69885 -0.289867,-0.67363 0.02344,-1.46019 0.697024,-1.75005 z m 3.007245,-0.74974 c 0.179702,-0.19336 0.503984,-0.28274 0.930324,-0.21969 0.852724,0.12646 1.655547,0.47272 1.783439,0.76988 0.127874,0.29718 -0.319308,0.77743 -0.992894,1.06727 -0.673684,0.28988 -1.474814,-0.0572 -1.781784,-0.77058 -0.153465,-0.35664 -0.119086,-0.65345 0.06089,-0.84694 z m 5.018824,-2.14735 c 0.448128,-0.16817 0.969152,0.18678 1.308078,0.97441 0.451899,1.05017 0.269635,2.14635 -0.403949,2.43619 -0.673586,0.28985 -1.446404,0.009 -1.719154,-0.62528 -0.272767,-0.63386 -0.09312,-1.73105 0.401334,-2.4372 0.123648,-0.17665 0.264581,-0.29161 0.413751,-0.34798 z m 4.714694,-1.95018 c 0.614695,-0.35258 1.011801,-0.14243 1.077037,0.62522 0.177496,2.09336 -2.171092,4.29862 -2.863811,2.68881 -0.283006,-0.65768 0.21425,-1.90553 1.104832,-2.77392 0.248959,-0.24291 0.477035,-0.42252 0.682021,-0.53993 z m 26.976697,-5.85888 c -0.3352,0.24919 -0.544268,1.06144 -0.499273,2.11575 0.08635,2.03157 0.287303,2.1115 0.98025,0.39038 0.479504,-1.19095 0.430377,-2.34086 -0.10895,-2.55568 -0.135056,-0.0538 -0.260491,-0.0335 -0.372073,0.0494 z m -16.468164,11.04341 c -0.432961,0.1657 -0.884816,0.45195 -1.250888,0.81889 -0.808665,0.81131 -0.393069,0.97564 1.05908,0.4203 1.313708,-0.50239 1.913221,-1.10225 1.331117,-1.33399 -0.291021,-0.11585 -0.706344,-0.0709 -1.139292,0.0948 z m -19.070181,9.65619 c -0.432963,0.1657 -0.882231,0.4529 -1.248308,0.81983 l -5.52e-4,-0.002 c -0.808755,0.81137 -0.394045,0.97817 1.057996,0.42289 1.313705,-0.50237 1.912475,-1.10397 1.330337,-1.33579 -0.29102,-0.11585 -0.706342,-0.0709 -1.139291,0.0948 z m -1.888375,5.86465 c 0.637558,-0.2496 2.255426,-0.43702 5.181187,-0.68798 3.734599,-0.32036 7.983222,-0.20616 9.441399,0.25361 2.838287,0.89478 5.070235,0.50383 3.47233,-0.60752 -0.531988,-0.36979 4.070675,-2.62838 10.22762,-5.01979 6.156936,-2.39141 11.054287,-3.99376 10.882451,-3.56225 -0.171829,0.43149 -5.137887,3.07667 -11.033701,5.87909 -8.683901,4.12724 -11.659056,4.99228 -15.665935,4.56173 -2.720712,-0.29285 -4.802337,-0.20028 -4.627802,0.20533 0.174534,0.40561 -0.687709,0.44322 -1.914578,0.0818 -1.226847,-0.36104 -2.392881,-0.25152 -2.590679,0.24514 -0.197795,0.49665 -1.398643,0.37302 -2.670085,-0.27564 -0.996072,-0.50816 -1.339327,-0.8229 -0.702207,-1.07351 z"
       inkscape:export-filename="path8860-8.svg"
       inkscape:export-xdpi="96"
       inkscape:export-ydpi="96" /><path
       id="path1207"
       style="fill:#D2D9DE;fill-opacity:1;stroke-width:1.33333"
       d="m 114.92314,348.27192 c 0.68785,0.39309 -0.21262,0.32968 -2.43337,-0.0371 -2.98156,-0.49245 -6.39316,-1.20595 -7.58201,-1.58709 -1.6122,-0.51683 -2.00119,-0.14822 -1.53115,1.44829 0.6731,2.28577 13.56386,8.14942 18.51292,8.42127 2.27612,0.12505 2.10405,-0.32815 -1.02268,-2.68326 l -3.76089,-2.83244 4.17599,1.23559 c 10.24513,3.029 33.98871,27.15606 37.20247,37.8029 1.13394,3.75654 0.95288,6.18572 -0.69231,9.33201 -1.2235,2.33932 -2.48255,6.91857 -2.79879,10.17549 -1.16336,11.98357 -13.74594,21.25587 -42.60633,31.40183 C 43.956385,465.00636 23.376355,469.83934 2.3005655,466.7986 -6.073714,465.59039 -34.947435,453.72023 -40.438025,449.22853 c -8.94704,-7.31922 -8.3674,-20.1266 1.39125,-30.72135 6.41229,-6.96166 23.323301,-18.49884 31.452941,-21.45762 11.1415695,-4.0549 29.413869,-7.77697 42.979659,-8.7537 12.97532,-0.93429 20.54221,-2.2574 15.09719,-2.64017 -9.50477,-0.66824 -66.642269,-14.59788 -75.624249,-18.43822 -5.7955,-2.47742 -6.33572,-3.56194 -3.32368,-6.67998 4.11338,-4.25815 17.9032,-8.21159 35.7647695,-10.25508 11.1429295,-1.27488 23.7519895,-3.94561 32.7789295,-6.94293 13.03353,-4.32785 16.39731,-4.80918 30.159911,-4.31067 17.95261,0.65031 23.767947,1.66359 37.591704,6.54402 4.12936,1.45802 6.405,2.30599 7.09274,2.69905 z m 21.77857,16.02676 c -1.39631,-0.60084 -2.41798,-0.3816 -2.28859,0.49086 0.12849,0.86665 0.82364,1.48817 1.54462,1.38123 0.72107,-0.10691 1.29193,0.61852 1.26921,1.61142 -0.0251,1.08927 0.36129,0.97138 0.9761,-0.2963 0.65569,-1.35172 0.12075,-2.48898 -1.50126,-3.18693 z m -16.2236,-6.06262 c -3.77812,-1.62358 -14.96195,-4.72886 -24.668637,-6.65176 -1.83915,-0.36436 -5.07206,-1.95914 -7.184187,-3.54432 -3.56907,-2.67888 -3.31218,-2.67905 3.634557,-0.0116 4.11086,1.57843 6.23343,2.03681 4.71817,1.01817 -1.51535,-1.01868 -6.54417,-2.99378 -11.175647,-4.38799 -6.79397,-2.04519 -7.91078,-2.09256 -5.77877,-0.24342 2.33969,2.0291 2.15858,2.06671 -1.58482,0.31311 -4.34377,-2.03497 -15.45118,-3.85177 -18.190001,-2.97515 -0.846,0.2709 0.721851,1.18103 3.483471,2.02416 4.99244,1.52435 4.41368,1.51659 -5.788041,-0.0731 -7.55761,-1.17754 -4.84363,2.25614 4.156311,5.25858 7.37814,2.46136 6.03605,2.44389 -5.518581,-0.0719 -4.98005,-1.08432 -7.08865,-0.97808 -7.14214,0.36059 -0.0762,1.90756 -4.03104,2.64044 -6.0928,1.12895 -0.72599,-0.53211 -0.86856,-0.19396 -0.41218,0.98571 0.38112,0.98687 5.8448,4.22842 12.14118,7.20403 l 11.448581,5.40907 -13.479031,-5.49813 c -14.99355,-6.11694 -16.93873,-5.29933 -3.99225,1.67774 l 8.4467,4.55324 -9.30818,-4.19673 c -5.12012,-2.30862 -9.23564,-3.71785 -9.14629,-3.12984 0.0895,0.58826 -1.07347,1.24941 -2.58236,1.47006 -2.75898,0.40354 21.01441,10.19838 46.519531,19.16512 5.89415,2.07233 10.241297,3.96511 9.661227,4.20632 -0.97727,0.40626 -28.658177,-9.07909 -50.478958,-17.29677 -5.15265,-1.94033 -13.63104,-5.00669 -18.8407,-6.81456 -7.22927,-2.50876 -8.19989,-3.04694 -4.10306,-2.26952 2.95236,0.5603 7.17162,1.75854 9.37758,2.66168 3.16431,1.29577 4.23415,1.12494 5.06575,-0.80761 0.57971,-1.3472 0.50209,-2.6863 -0.17158,-2.97619 -0.67359,-0.28985 -1.60865,0.36849 -2.07969,1.46313 -0.65543,1.52316 -1.58742,1.48672 -3.96869,-0.15557 -1.73578,-1.1971 -6.50768,-2.41272 -10.79209,-2.74942 -4.22423,-0.3321 -6.8932395,-0.15459 -5.93197,0.39443 0.96113,0.54936 0.17965,0.8457 -1.7364295,0.66039 -3.03745,-0.29399 -2.86468,-0.0473 1.3538595,1.91361 8.16559,3.79558 7.63326,5.75696 -0.6401395,2.3569 -4.24481,-1.74428 -10.28701004,-3.27652 -13.4255195,-3.40421 -5.67384,-0.23073 -5.63875,-0.20579 6.1168395,4.33954 8.6025395,3.3261 10.6871995,4.45191 7.6561295,4.13224 -2.2910495,-0.24166 -6.2535395,-1.27917 -8.8067295,-2.30334 -2.5513495,-1.02341 -4.7964995,-1.49013 -4.9932195,-1.04083 -0.19399,0.45085 0.59351,1.27894 1.74945,1.83931 2.18538946,1.05972 38.366949,10.21288 57.924959,14.65361 6.982471,1.58537 18.110101,5.50634 29.377971,10.35378 13.397947,5.76417 18.067744,7.33494 17.871714,6.01271 -0.16476,-1.11078 0.12941,-1.22645 0.77522,-0.30425 1.61854,2.31153 13.28889,5.05626 11.8671,2.79098 -0.75992,-1.21097 0.14765,-0.9523 2.61833,0.74404 2.70864,1.85956 3.7073,2.09026 3.51845,0.8166 -0.18184,-1.22618 0.5318,-1.17009 2.29624,0.17797 3.71195,2.83512 22.61365,0.82874 24.06987,-2.55539 0.34364,-0.79857 -6.07143,-1.46734 -13.8933,-1.44733 -7.11971,0.018 -18.69718,-2.38094 -14.65905,-3.0377 1.28764,-0.20942 3.30781,0.026 4.49108,0.52281 1.18326,0.49687 2.38195,0.36943 2.66272,-0.28304 0.28075,-0.65249 1.20045,-0.51282 2.04402,0.30973 0.84359,0.82252 1.77812,0.92766 2.07646,0.23437 0.29838,-0.69342 2.89364,-1.03223 5.76706,-0.75246 7.19848,0.70083 9.25112,-0.27517 4.92614,-2.34117 -2.51718,-1.20248 -2.76385,-1.56002 -0.84834,-1.23042 6.59779,1.13466 5.34093,-0.92672 -2.18538,-3.58335 l -8.10553,-2.86067 6.78321,1.10094 6.78322,1.10092 -5.2186,-3.30878 c -2.87063,-1.81964 -6.09203,-3.44117 -7.15873,-3.60351 -1.06669,-0.16234 -1.42159,-0.34755 -0.78994,-0.41232 0.63181,-0.0647 1.0543,-0.74746 0.94021,-1.51759 -0.11432,-0.77008 0.45961,-0.75059 1.2755,0.0449 0.81591,0.79551 2.10036,1.01448 2.85474,0.48635 0.84217,-0.58968 0.0578,-1.56473 -2.03211,-2.52657 -2.84882,-1.31145 -2.94973,-1.55155 -0.61813,-1.4737 2.60854,0.087 2.62411,-0.0337 0.23687,-1.89464 -1.40197,-1.09292 -4.36032,-2.48476 -6.57459,-3.09285 -3.44952,-0.94742 -3.53001,-1.05383 -0.5652,-0.74714 5.62891,0.5823 2.09698,-2.22687 -4.31035,-3.42824 -3.24118,-0.60759 -7.20696,-1.9309 -8.81531,-2.94064 -2.28398,-1.43426 -1.96799,-1.47613 1.44824,-0.1933 2.4054,0.90339 5.38919,1.48116 6.63017,1.28383 0.71555,-0.11383 0.27875,-0.49094 -0.98046,-1.03217 z m 20.23839,13.59711 c -0.71335,-0.30696 -1.19295,0.13842 -1.06653,0.99118 0.12643,0.85275 0.47264,1.65565 0.76982,1.78351 0.29716,0.12785 0.77746,-0.31938 1.06732,-0.99298 0.28985,-0.67363 -0.0572,-1.47474 -0.77061,-1.78171 z M 97.558753,354.85669 c 1.76022,0.74514 4.214557,2.20773 7.300297,4.36612 4.26389,2.98211 4.11912,2.98007 -3.2521,-0.0322 -4.415207,-1.80443 -7.490537,-3.67683 -7.188937,-4.37774 0.31139,-0.72363 1.37988,-0.69982 3.14074,0.0438 z M 81.581576,349.5061 c 9.154277,4.10457 10.652077,5.03447 6.20684,3.84883 -5.44134,-1.45137 -17.22212,-7.0928 -17.95255,-8.59696 -0.1759,-0.36376 5.1092,1.77262 11.7457,4.74816 z m 45.414824,20.9564 c 0.43306,0.16573 0.8849,0.45198 1.25089,0.81888 0.80874,0.8114 0.39485,0.97639 -1.05724,0.4211 -1.31407,-0.50253 -1.91313,-1.10221 -1.33112,-1.334 0.29102,-0.11584 0.7046,-0.0716 1.13746,0.094 z m -4.8978,-2.10757 c 0.43296,0.1657 0.88308,0.45119 1.24905,0.8181 0.80885,0.81143 0.39485,0.97639 -1.05723,0.4211 -1.31398,-0.5025 -1.91313,-1.10222 -1.33112,-1.33399 0.29102,-0.11585 0.70634,-0.0709 1.13929,0.0948 z m 24.38909,10.50356 c -0.555,-0.23884 -1.1457,-0.39265 -1.63997,-0.40373 -0.98806,-0.0228 -0.41933,0.55097 1.26476,1.27565 1.68411,0.72469 2.49176,0.74344 1.79599,0.0414 -0.34802,-0.35095 -0.86576,-0.67457 -1.42076,-0.91339 z M 80.627156,353.4141 c 0.43296,0.1657 0.88307,0.45119 1.24904,0.81809 0.80874,0.8114 0.39404,0.97817 -1.05798,0.4229 -1.31408,-0.50252 -1.91248,-1.10397 -1.33035,-1.33575 0.29102,-0.11586 0.70634,-0.0709 1.13928,0.0948 z m -15.87918,-6.82861 c 0.66911,0.27925 1.3502,0.65666 1.87928,1.06831 1.05794,0.8235 0.25994,0.80601 -1.77132,-0.0393 -2.03134,-0.84525 -2.89647,-1.51669 -1.92311,-1.4952 0.48695,0.0104 1.14555,0.18805 1.8151,0.46634 z m 59.442934,27.02686 c 0.43296,0.1657 0.88306,0.4512 1.24914,0.81814 0.80875,0.81136 0.39473,0.97635 -1.05725,0.4211 -1.31408,-0.50254 -1.91322,-1.10225 -1.33111,-1.334 0.29092,-0.11592 0.70625,-0.0709 1.1392,0.0948 z M 56.828875,344.62584 c 0.43296,0.1657 0.88482,0.45194 1.2508,0.81885 0.80884,0.81139 0.39305,0.97565 -1.05898,0.42038 -1.31408,-0.50254 -1.91321,-1.10225 -1.33112,-1.33401 0.29102,-0.11585 0.70634,-0.0709 1.1393,0.0948 z m 59.388605,26.99497 c 0.99895,0.42986 1.9665,0.93264 2.66159,1.40452 1.39,0.94417 0.0472,0.64967 -2.98421,-0.65476 -3.03136,-1.30442 -4.1684,-2.0772 -2.52718,-1.71684 0.82055,0.18028 1.85086,0.53724 2.8498,0.96708 z M 51.993955,345.46043 c -1.65421,-0.79412 -4.06525,-1.26444 -5.35666,-1.04624 -2.66407,0.45014 -1.58586,0.91411 4.28786,1.84511 3.76075,0.59606 3.84344,0.53294 1.0688,-0.79887 z m 75.513765,33.93379 c 0.43296,0.1657 0.88482,0.45193 1.2508,0.81884 0.80883,0.81143 0.39484,0.97639 -1.05725,0.4211 -1.31407,-0.50254 -1.91312,-1.10221 -1.33111,-1.334 0.29102,-0.11584 0.70459,-0.0716 1.13754,0.0941 z m 57.00225,25.79586 c 0.0737,-0.029 0.43859,0.62751 0.86963,1.40334 -0.16668,0.12822 -0.33356,0.25599 -0.50399,0.38062 -0.27236,-1.04381 -0.44666,-1.75174 -0.36572,-1.784 z M 120.7519,377.94777 c 0.555,0.23884 1.07291,0.56205 1.42077,0.91337 0.69585,0.70185 -0.11183,0.68334 -1.79599,-0.0414 -1.684,-0.72464 -2.25292,-1.29821 -1.26476,-1.27569 0.49413,0.0114 1.08498,0.16488 1.63997,0.40373 z m 17.28941,8.73469 -5.62917,-0.41296 c -6.7736,-0.49741 -9.94852,-1.44516 -7.65424,-2.28373 0.89999,-0.32895 4.25738,0.14399 7.46013,1.04988 z m -26.2844,-11.16394 c 0.43306,0.16573 0.88491,0.45198 1.25088,0.81888 0.80876,0.81136 0.39484,0.97636 -1.05721,0.42109 -1.31408,-0.50252 -1.91313,-1.10222 -1.33111,-1.334 0.29101,-0.11585 0.70458,-0.0716 1.13746,0.0941 z M 59.695505,354.54701 c 1.664891,0.71643 3.300991,1.49981 4.507071,2.17563 2.41237,1.35118 0.25238,0.67843 -4.799731,-1.49554 -5.0521,-2.17398 -7.02566,-3.27996 -4.38594,-2.45715 1.3198,0.41158 3.01369,1.06064 4.6786,1.77706 z m 14.791821,6.38564 c 0.43296,0.1657 0.88482,0.45194 1.25089,0.81888 0.80873,0.8114 0.39472,0.97633 -1.05722,0.42109 -1.31409,-0.50254 -1.91322,-1.10226 -1.33112,-1.33399 0.29092,-0.11593 0.7045,-0.0717 1.13746,0.094 z m 45.342454,19.66229 c 1.32487,0.79065 2.88841,2.90307 2.48216,3.84718 -0.26924,0.62571 -1.3731,0.0265 -2.45507,-1.33088 -1.08141,-1.35644 -1.61639,-2.60443 -1.1898,-2.77431 0.30638,-0.12205 0.72108,-0.006 1.16272,0.25797 z m -3.97816,1.51162 c 0.7263,0.26654 1.2514,0.62035 1.4001,0.99582 0.29722,0.75101 -1.26388,0.70473 -3.46797,-0.10383 -3.76189,-1.37972 -3.79392,-1.46343 -0.53933,-1.36539 0.95335,0.0288 1.88084,0.20701 2.6072,0.4734 z m -12.79278,-3.08092 c 0.88956,0.37843 1.79114,0.85011 2.48984,1.32447 1.39751,0.94821 0.33154,0.78535 -2.36891,-0.36026 -2.70022,-1.14548 -3.841777,-1.92142 -2.53891,-1.72402 0.65128,0.0989 1.52813,0.38232 2.41797,0.75983 z m 75.96486,35.89482 c -0.26722,0.82598 -0.50927,1.66556 -0.86637,2.43813 -0.12362,-0.41857 -0.39954,-0.84952 -0.87793,-1.22617 -1.63284,-1.28525 -1.45733,-1.46089 1.20997,-1.20585 0.19373,0.0183 0.35366,-0.006 0.53429,-0.006 z m -64.77039,-25.44307 c 0.63391,0.27277 1.25593,1.19223 1.38237,2.04495 0.12652,0.8528 -0.62897,1.18161 -1.67907,0.72973 -1.0502,-0.4519 -1.67145,-1.37314 -1.38159,-2.04676 0.28984,-0.67358 1.04448,-1.00066 1.67829,-0.72792 z m 32.75043,14.22244 c -0.1582,-0.031 -0.31655,-0.0198 -0.46836,0.0408 -0.44094,0.17561 -0.26169,1.37799 0.39823,2.67186 0.74831,1.46693 1.4124,1.86156 1.76186,1.04944 0.55731,-1.29512 -0.58398,-3.54436 -1.6917,-3.76214 z m 6.67179,4.7399 c -0.0735,-0.18426 -0.31794,-0.0865 -0.72373,0.318 -0.73446,0.73177 -1.14544,1.80806 -0.91373,2.39009 0.2317,0.58204 0.83329,-0.0163 1.33582,-1.33034 0.27942,-0.72522 0.37494,-1.19355 0.3015,-1.37779 z M 108.3048,390.00918 c 0.55499,0.23885 1.0729,0.56207 1.42068,0.91335 0.69594,0.70188 -0.11174,0.68338 -1.79591,-0.0413 -1.68411,-0.72469 -2.25476,-1.299 -1.2666,-1.27648 0.49412,0.0114 1.08692,0.1657 1.64183,0.40446 z m 33.2348,16.12564 c -0.44656,-0.30081 -0.90844,-0.17165 -1.15152,0.39319 -0.32403,0.75303 -1.05591,0.70213 -1.62683,-0.11317 -0.64314,-0.91846 -0.93682,-0.80142 -0.77241,0.30767 0.31351,2.11407 0.18852,2.04275 2.86441,1.61523 1.47425,-0.23551 1.81227,-0.76909 1.11884,-1.75964 -0.13676,-0.19546 -0.28343,-0.34292 -0.43232,-0.4432 z m 5.36993,3.93093 c -0.0431,-0.0213 -0.15443,0.0486 -0.33728,0.22065 -0.73175,0.68801 -1.69979,0.72271 -2.15139,0.0779 -0.45138,-0.6448 -1.16258,-0.13861 -1.58115,1.12481 -0.41858,1.26337 -1.37789,3.3387 -2.13114,4.61127 -1.19313,2.01453 -1.32724,1.86372 -1.03385,-1.16994 0.32314,-3.34235 0.28513,-3.37418 -0.96947,-0.78091 -1.42528,2.94586 -2.84232,2.93004 -4.0271,-0.0446 -0.42626,-1.07029 -1.26504,-1.5503 -1.91421,-1.09567 -0.63522,0.44477 -0.81597,2.73119 -0.40237,5.08087 l 0.75157,4.27188 5.11033,-3.29314 c 2.80976,-1.81079 6.13675,-4.80893 7.39397,-6.66296 0.9428,-1.3905 1.42075,-2.27507 1.29177,-2.34012 z m 3.67546,3.75252 c -0.69224,-0.29788 -2.35894,0.99157 -3.70368,2.86506 -2.63347,3.66898 -2.8189,6.30041 -0.21975,3.12462 0.86461,-1.05674 2.38505,-2.71367 3.37758,-3.68367 1.02989,-1.00645 1.2638,-1.99708 0.54583,-2.30602 z M 40.208345,366.50937 c 0.66911,0.27926 1.34845,0.65592 1.87759,1.06717 1.05809,0.82316 0.26186,0.80678 -1.76949,-0.0385 -2.03122,-0.84519 -2.89664,-1.51677 -1.92309,-1.49519 0.48694,0.0104 1.14555,0.18805 1.81508,0.46633 z m -20.16648,-7.23194 c 0.43296,0.1657 0.88482,0.45194 1.25089,0.81887 0.80876,0.81137 0.39298,0.97561 -1.05908,0.42031 -1.3137,-0.50237 -1.91312,-1.1022 -1.33111,-1.33399 0.29102,-0.11585 0.70634,-0.0709 1.13929,0.0948 z m 12.29141,5.29346 c 0.66911,0.27926 1.35019,0.65666 1.87942,1.06794 1.05792,0.82308 0.25995,0.80602 -1.77132,-0.0393 -2.03131,-0.84524 -2.89581,-1.51847 -1.92234,-1.49697 0.48695,0.0104 1.14481,0.18979 1.81437,0.468 z m -6.32164,-2.5096 c 1.40584,0.48361 2.01421,1.25844 1.35081,1.72311 l -3.1e-4,0.002 c -1.45944,1.02182 -4.90349,-0.28593 -4.32068,-1.64031 0.22818,-0.53029 1.56467,-0.5679 2.97067,-0.0847 z m 112.253455,48.45679 c -0.0733,-0.18423 -0.31789,-0.0865 -0.72373,0.3179 v 0 c -0.73446,0.73176 -1.1472,1.80734 -0.91549,2.38936 0.2317,0.58203 0.83329,-0.0163 1.33582,-1.33033 0.27943,-0.72526 0.37495,-1.19359 0.3015,-1.37779 z M 32.355135,367.4849 c 0.55499,0.23884 1.07465,0.56281 1.42242,0.91411 0.69595,0.70187 -0.11421,0.68439 -1.79841,-0.0403 -1.6841,-0.72468 -2.25227,-1.29999 -1.26399,-1.27746 0.49402,0.0114 1.08498,0.16487 1.63997,0.40373 z m 93.325115,40.52652 c -0.27188,-0.009 -0.51929,0.16405 -0.67269,0.52067 -0.30697,0.71338 -1.5247,0.89012 -2.70797,0.3933 -1.18335,-0.4969 -5.84633,-1.28988 -10.36089,-1.76016 -5.83416,-0.60778 -9.33876,-1.67541 -12.118397,-3.69435 -2.15109,-1.56217 -4.58141,-2.74264 -5.39965,-2.62143 -0.8186,0.1213 -0.86172,-0.21697 -0.0975,-0.75212 2.06277,-1.44431 -2.57073,-4.86785 -5.443277,-4.02203 -1.35906,0.40017 -4.08448,-0.0231 -6.0575,-0.93961 -1.97291,-0.91645 -3.83593,-1.09152 -4.13783,-0.38993 -0.30667,0.71266 -1.63639,0.44442 -3.01474,-0.60837 -1.35693,-1.03642 -3.53213,-1.67379 -4.83378,-1.4166 -1.82182,0.36016 -1.65668,0.562 0.72144,0.87816 1.73244,0.23032 2.85623,0.95216 2.55884,1.64328 -0.29162,0.67772 -3.18111,0.53319 -6.42176,-0.32026 -3.7817,-0.99596 -7.072491,-0.90841 -9.190031,0.24274 -1.81445,0.9864 -3.83263,1.3179 -4.48446,0.73665 -0.65182,-0.58128 -3.38477,-0.28809 -6.07285,0.65274 -2.68827,0.94077 -4.09454,1.66167 -3.12602,1.60186 0.96853,-0.0598 1.88162,0.70841 2.02969,1.70692 0.15852,1.06938 -0.1186,1.26103 -0.67494,0.46648 -1.32428,-1.89129 -8.51147,0.37756 -9.73371,3.07273 -1.38781,3.06069 -6.5809,6.36856 -8.62049,5.49092 -1.00941,-0.43437 -1.70966,0.15747 -1.76304,1.4931 -0.0521,1.29583 -0.46477,1.67758 -0.99539,0.91971 -0.49916,-0.71291 -2.64271,0.38151 -4.76338,2.43246 -4.66605,4.51235 -19.2690395,13.21254 -19.82669954,11.81258 -0.21939,-0.55067 1.00105004,-1.64172 2.71226004,-2.42415 2.01134,-0.91974 2.74003,-1.85442 2.06021,-2.6431 -0.61398,-0.71022 -0.47198,-0.82035 0.33843,-0.26254 1.5024,1.0341 10.1106395,-3.90415 11.1935195,-6.42067 0.36395,-0.84579 1.67483,-1.99117 2.91174,-2.54669 1.23701,-0.55552 -0.15957,-0.72539 -3.1031,-0.37848 -2.94354,0.34694 -5.4828,1.2956 -5.64285,2.10928 -0.16951,0.86246 -0.9949795,0.79302 -1.9798995,-0.16731 -1.11328,-1.08554 -1.60086,-1.04436 -1.42782,0.12129 0.16098,1.08669 -1.08119,1.54972 -3.22239,1.20318 -2.66258,-0.43094 -3.33400004,-0.0547 -2.84929,1.59123 0.44208,1.49601 0.13819,2.22803 -0.98955004,2.39578 -0.89412,0.13258 -1.38582,-0.31734 -1.0923,-0.99946 0.29348,-0.68201 -1.52477946,-1.01245 -4.04048946,-0.73506 -2.51562,0.27746 -4.60867,1.27173 -4.65283,2.20999 -0.0438,0.93835 -0.64862,1.15363 -1.34271,0.47685 -1.79606,-1.75123 -8.72855,1.03563 -8.82888,3.54928 -0.0462,1.15554 1.23864,3.98925 2.8546,6.29741 2.28094,3.25705 4.96742,5.05224 12.00764,8.01833 9.2723695,3.9065 26.009929,6.62327 26.975819,4.37862 0.27927,-0.64901 0.87707,-0.89976 1.3285,-0.55738 1.81375,1.37643 11.99026,0.40465 26.54871,-2.53486 17.124541,-3.45768 23.809541,-6.22674 22.063101,-9.13862 -0.7452,-1.24241 -0.45345,-1.25001 0.93731,-0.024 1.41365,1.24616 3.73031,1.12853 7.73258,-0.39359 3.14328,-1.19542 5.62795,-2.76003 5.52154,-3.47765 -0.10642,-0.71762 0.4439,-1.03159 1.21357,-0.7004 2.366127,1.01816 8.392957,-2.74343 7.200767,-4.4944 -0.66892,-0.98248 -0.2749,-1.19478 1.12157,-0.61028 1.18335,0.4969 3.72821,0.27521 5.655097,-0.4923 3.43253,-1.3672 3.45542,-1.41758 1.1262,-2.41986 -1.30749,-0.56263 -2.4679,-1.62896 -2.57776,-2.37016 -0.10994,-0.74132 1.41813,-0.20784 3.39611,1.18487 2.53028,1.78175 4.93518,2.3516 8.11123,1.92326 2.48267,-0.33473 4.8053,-0.19074 5.16179,0.31816 0.35657,0.50893 1.24385,-0.77584 1.97278,-2.8551 0.77834,-2.2199 1.92465,-3.52426 2.7769,-3.15752 2.22898,0.95916 5.99885,-1.32101 4.8637,-2.94214 -0.25923,-0.37036 -0.55595,-0.56223 -0.82799,-0.57107 z m 43.01333,20.46948 c 0.0547,0.0323 0.0807,0.0842 0.13454,0.11763 -0.23576,0.0652 -0.46275,0.14455 -0.64514,0.29862 -0.37921,0.31984 -0.20918,1.04723 -0.58828,1.36711 -0.44176,0.37261 -1.07565,0.41285 -1.61688,0.62465 -0.20646,-0.24478 -0.40865,-0.46304 -0.58106,-0.53723 -0.82856,-0.35653 -0.8822,-1.28607 -0.1203,-2.0675 0.73439,-0.75333 2.21776,-0.49117 3.41728,0.19687 z m -57.67674,-24.25323 c -0.43296,-0.1657 -0.84817,-0.21071 -1.13918,-0.0948 l -3.1e-4,0.002 c -0.58206,0.23171 0.017,0.83149 1.3311,1.33399 1.45198,0.55523 1.86601,0.39026 1.05726,-0.4211 -0.36592,-0.36731 -0.8153,-0.65449 -1.24841,-0.81986 z m -12.248157,-5.2705 c -0.43285,-0.16567 -0.84818,-0.21071 -1.13919,-0.0948 l -3.1e-4,0.002 c -0.58205,0.2317 0.017,0.83148 1.33112,1.33398 1.451977,0.55523 1.867737,0.391 1.058977,-0.42038 -0.365827,-0.36725 -0.816937,-0.65519 -1.250137,-0.82061 z M 59.577245,382.09272 c -0.43295,-0.1657 -0.84827,-0.21074 -1.13928,-0.0948 l -3.2e-4,0.002 c -0.58199,0.23169 0.017,0.83149 1.33112,1.334 1.452071,0.55528 1.866001,0.39025 1.057241,-0.4211 -0.365921,-0.3673 -0.815211,-0.65445 -1.248301,-0.81983 z m -40.5237,-17.42543 c 0.55499,0.23884 1.073,0.56209 1.42077,0.91337 0.69585,0.70185 -0.11179,0.68331 -1.79598,-0.0414 -1.68401,-0.72465 -2.25476,-1.299 -1.26652,-1.2764 0.49404,0.0114 1.08682,0.16566 1.64174,0.40442 z m 110.614505,48.26827 c -0.15291,-0.0864 -0.31459,-0.0502 -0.47463,0.12948 -0.64105,0.71889 -0.90015,2.21583 -0.57658,3.32616 0.40618,1.39351 -0.69164,3.04005 -3.54354,5.31964 -2.27235,1.81624 -3.79936,2.4671 -3.3958,1.44325 0.40356,-1.02386 -1.1923,-0.49662 -3.54852,1.17557 -2.3558,1.67092 -4.1633,3.22077 -4.01612,3.44292 0.51211,0.77312 11.75301,-4.36064 12.29236,-5.61405 0.29878,-0.69435 1.01034,-0.59622 1.58119,0.21904 0.64313,0.91846 0.9369,0.80145 0.77239,-0.30767 -0.14605,-0.98452 0.27508,-1.55712 0.93682,-1.27237 0.66173,0.28478 1.08262,-1.63247 0.93409,-4.26097 -0.11126,-1.97133 -0.50253,-3.34178 -0.96152,-3.60105 z m 4.2249,2.93002 c 0.25827,0.0108 0.54282,0.19247 0.78988,0.54605 0.49454,0.70618 0.66222,1.83608 0.37232,2.50971 -0.28988,0.67372 -0.93157,0.6454 -1.4261,-0.0608 -0.49444,-0.70615 -0.66294,-1.83434 -0.37306,-2.50795 0.14491,-0.33676 0.37841,-0.4979 0.637,-0.48709 z M 49.948185,380.85541 c -0.43297,-0.1657 -0.84829,-0.21074 -1.1393,-0.0948 -0.58209,0.23171 0.017,0.83148 1.33112,1.33398 1.45198,0.55523 1.86784,0.39105 1.05908,-0.42031 -0.36592,-0.36729 -0.81794,-0.65314 -1.25088,-0.81887 z m 66.652795,29.95287 c 0.67359,0.28985 1.32875,1.22565 1.45517,2.07842 0.12643,0.85276 -0.32095,1.31199 -0.99478,1.02204 -0.67359,-0.28985 -1.32943,-1.22381 -1.45594,-2.07662 -0.12644,-0.85276 0.32213,-1.31362 0.99555,-1.02384 z M 40.524335,378.46924 c -1.59884,-0.74928 -2.19076,-0.60839 -2.04506,0.37449 0.19649,1.3252 -0.87159,1.09321 -3.92104,-0.84948 -2.3044,-1.46824 -4.09881,-2.06536 -3.98957,-1.32751 0.10937,0.73734 -0.85606,1.11535 -2.1435,0.84034 v 0 c -1.28652,-0.27462 -1.93036,0.0624 -1.42853,0.75038 0.50208,0.68841 2.47857,1.41134 4.39049,1.6066 1.91197,0.19488 6.29805,1.14182 9.74898,2.10494 7.11483,1.98568 7.55043,1.18839 1.33529,-2.45112 -0.76654,-0.44877 -1.41252,-0.79792 -1.94546,-1.04781 z m 100.290685,44.21278 c -1.23888,-0.28334 -3.70958,0.34052 -6.41944,1.82404 -1.90109,1.04075 -2.2174,1.70294 -1.38352,2.89387 0.62781,0.89664 0.98459,0.89303 0.85069,-0.0104 -0.1269,-0.85596 1.44036,-1.70103 3.48395,-1.87525 2.04357,-0.17421 3.91367,-0.77385 4.15454,-1.33368 0.35809,-0.83218 0.0573,-1.32873 -0.68618,-1.49874 z m -149.407014,-62.9219 -5.21614,-1.37283 c -2.86853,-0.7551 -6.36029,-0.93342 -7.76039,-0.39661 -3.30641,1.26788 -1.58845,1.73425 6.4515,1.7534 z m 114.371874,49.60659 c 2.36206,1.00412 5.48272,2.85976 6.93463,4.12374 l 3e-4,-0.002 c 2.13502,1.85886 2.16792,2.10826 0.16894,1.29744 -1.35912,-0.55196 -4.48012,-2.40702 -6.93473,-4.12378 l -4.46345,-3.12201 z M 21.033875,373.15482 c -0.3159,-0.15239 -0.61772,-0.24106 -0.88422,-0.25262 -1.06785,-0.0428 -2.81329,-0.45362 -3.88095,-0.91304 -1.06718,-0.45923 -1.74235,-0.33226 -1.49738,0.28272 0.24488,0.61493 2.73459,2.2954 5.53099,3.73448 4.69735,2.41754 4.95884,2.4021 3.43703,-0.20504 -0.6794,-1.16408 -1.75843,-2.18855 -2.70555,-2.64621 z m -7.42149,0.78255 c -0.55499,-0.23884 -1.14579,-0.39267 -1.64007,-0.40376 -0.98805,-0.0228 -0.41932,0.55096 1.26487,1.27569 1.68401,0.72464 2.49175,0.74343 1.79589,0.0414 -0.34793,-0.35091 -0.86568,-0.67453 -1.42068,-0.91335 z m 73.064011,32.88175 c 0.43305,0.16573 0.8849,0.45199 1.25088,0.8189 0.80874,0.8114 0.39222,0.9774 -1.05976,0.42218 -1.31406,-0.50253 -1.91247,-1.10398 -1.33032,-1.33579 0.2909,-0.11592 0.70633,-0.0709 1.13919,0.0948 z M 2.2100655,370.48119 c -0.66911,-0.27926 -1.32830004,-0.45557 -1.81509004,-0.46633 -0.9735,-0.0214 -0.10877,0.65177 1.92234004,1.49697 2.03132,0.84525 2.82932,0.86242 1.77132,0.0393 -0.52909,-0.41158 -1.20913,-0.79145 -1.87853,-1.07002 z M 128.90099,427.0366 c -0.44598,-0.11804 -0.96748,-0.14599 -1.54065,-0.0612 v 0 c -1.53776,0.22852 -1.95738,1.01143 -1.69797,3.16466 0.32592,2.70506 0.39829,2.74308 1.33468,0.66361 0.54558,-1.20966 1.39517,-1.62383 1.88962,-0.91768 0.49452,0.70622 1.13618,0.73455 1.42611,0.0608 0.59701,-1.38742 -0.0704,-2.55562 -1.41011,-2.90952 z M 87.968426,410.27979 c 0.77701,0.33436 1.521257,0.74638 2.044277,1.15412 1.04638,0.81522 -0.0269,0.6518 -2.384787,-0.36281 -2.3575,-1.01445 -3.21259,-1.68071 -1.90124,-1.48151 0.65579,0.0995 1.46483,0.35586 2.24175,0.69017 z m -100.32713,-43.16953 c -0.43296,-0.1657 -0.84828,-0.21074 -1.13929,-0.0948 -0.5821,0.23172 0.0174,0.83164 1.33111,1.334 1.45206,0.55528 1.866,0.39026 1.05724,-0.4211 -0.36591,-0.3673 -0.81595,-0.65271 -1.24905,-0.81809 z m 54.002879,24.0991 c -0.27304,-0.26891 -2.18971,-0.22697 -5.04957,0.15751 -3.81316,0.51266 -7.03361,1.5646 -7.15482,2.33683 -0.14589,0.92902 -0.86791,0.58956 -2.13722,-1.00239 -2.23879,-2.8083 -1.47937,-2.86642 -20.4753295,1.59951 -16.0109595,3.76409 -27.5603195,9.73106 -39.9231205,20.63014 -6.8491,6.03805 -12.60943,15.81585 -11.89389,20.18889 0.16162,0.98755 1.9,-1.85765 3.86228,-6.3222 3.09374,-7.04028 4.793,-9.13123 12.812461,-15.75156 5.08562,-4.19836 12.21186,-9.07412 15.83544,-10.83393 9.6433,-4.68317 37.429969,-11.34473 38.291989,-9.1804 0.46635,1.17065 0.17669,1.5301 -0.87252,1.07894 -2.45181,-1.05438 -26.576969,5.24149 -36.075419,9.41551 -10.28091,4.51769 -24.072201,16.48886 -28.845181,25.03774 -3.16562,5.6699 -3.26253,6.52938 -1.28886,11.48437 2.05502,5.16089 2.50812,5.5095 12.395591,9.59712 5.64373,2.3335 12.50249,4.34272 15.24401,4.46526 2.74153,0.12251 6.13411,0.58877 7.53888,1.03485 1.40478,0.44605 0.52035,-0.53325 -1.96638,-2.1751 l -4.52212,-2.98566 6.56938,2.62072 c 6.01328946,2.39913 17.944759,2.71273 18.930819,0.49786 0.182,-0.42296 -3.4777195,-1.53764 -8.1450695,-2.48213 -10.4238895,-2.11014 -18.5518995,-6.33056 -26.0596695,-13.52926 -5.39874,-5.17651 -5.63218,-5.74718 -4.1471,-10.17694 1.6824,-5.01861 5.35659,-8.36061 13.23369,-12.03646 2.65626,-1.23953 4.52815,-2.38268 4.15961,-2.54125 -0.36854,-0.15855 0.37269,-0.75225 1.6453,-1.31838 1.27292,-0.56586 2.61942,-0.60039 2.99302,-0.0771 0.37359,0.52327 0.9141,0.40566 1.2019,-0.26318 0.28743,-0.66796 1.81401946,-1.0871 3.3920495,-0.93028 1.57783,0.15672 4.03172,-0.76913 5.45325,-2.05905 1.4214,-1.2899 2.99234,-1.76353 3.4908895,-1.05152 0.49867,0.71203 0.79381,0.5362 0.65659,-0.38939 -0.13732,-0.92563 0.47045,-1.78853 1.35099,-1.91914 0.88071,-0.13052 1.51302,-0.8382 1.40413,-1.5731 -0.1089,-0.73486 0.52812,-1.44488 1.41614,-1.57642 0.88785,-0.13171 1.33988,0.18198 1.00404,0.69579 -1.99455,3.05521 1.91267,3.18285 4.29418,0.14044 1.76747,-2.25833 4.90442,-3.07068 6.36314,-1.64841 1.1954,1.16566 1.37097,0.98659 0.83157,-0.84565 -0.54394,-1.84723 0.18961,-2.44461 3.59426,-2.92704 l 4.27753,-0.60669 -3.76985,1.22069 c -3.14213,1.01657 -3.50682,1.47481 -2.19651,2.7524 0.86886,0.84727 1.4727,0.87114 1.35118,0.052 -0.12086,-0.81511 1.19019,-1.69954 2.9137,-1.96329 3.11118,-0.47623 3.11856,-0.49766 1.06644,-3.18975 -1.89131,-2.48111 -1.8679,-2.59825 0.2615,-1.37376 1.28003,0.73596 2.7488,0.86687 3.26431,0.29047 0.51557,-0.5765 1.92042,-1.56433 3.12175,-2.19478 0.30033,-0.15754 0.39166,-0.28276 0.3006,-0.37248 z m 54.435738,23.83443 c 1.26771,0.54551 2.40879,1.69043 2.53522,2.54318 0.13452,0.90706 -1.35496,0.86705 -3.589,-0.0943 -2.23405,-0.96134 -3.28706,-2.01539 -2.536,-2.54137 0.70625,-0.49445 2.32206,-0.45304 3.58978,0.0925 z M -19.010144,365.69803 c -0.43297,-0.1657 -0.84646,-0.20991 -1.13746,-0.094 -0.58209,0.23171 0.0166,0.83345 1.33034,1.33581 1.45206,0.55526 1.86598,0.39028 1.05724,-0.4211 -0.36591,-0.36731 -0.81704,-0.65525 -1.25014,-0.82062 z m 143.608414,63.03142 c -0.54931,-0.55689 -2.3461,-0.23338 -3.47798,0.92738 -0.89956,0.92469 -1.54648,1.88566 -1.43637,2.13753 0.25844,0.59108 4.60156,-1.33996 4.97719,-2.21285 0.1646,-0.38245 0.12021,-0.66648 -0.0628,-0.85206 z M 84.465766,411.67484 c 0.77693,0.33431 1.52117,0.74635 2.04429,1.15411 1.04628,0.81519 -0.027,0.65178 -2.38479,-0.3628 -2.35751,-1.01446 -3.21442,-1.6815 -1.90298,-1.48226 0.65568,0.0994 1.46655,0.35665 2.24348,0.69096 z M 54.336435,399.05018 c 3.89342,1.41533 3.68814,2.20888 -0.54486,2.10659 -1.77779,-0.043 -3.38421,-0.1014 -3.57095,-0.13117 -0.18684,-0.0297 -0.0417,-0.74442 0.32123,-1.58618 0.36278,-0.84181 2.06946,-1.01637 3.79483,-0.38913 z m 63.199905,31.62241 c -0.12198,-0.10188 -0.28557,-0.14341 -0.48945,-0.11261 -0.81551,0.12093 -1.52124,1.16087 -1.56729,2.31301 -0.11795,2.94975 0.6909,2.94526 1.96344,-0.012 0.44763,-1.04023 0.45967,-1.88285 0.0932,-2.18821 z M 80.052556,415.59124 c 0.66911,0.27926 1.34848,0.65559 1.87749,1.06712 1.05796,0.82349 0.26186,0.80677 -1.76948,-0.0385 -2.03122,-0.84522 -2.89572,-1.51846 -1.92225,-1.49694 0.48679,0.0107 1.14482,0.18978 1.81437,0.46799 z m 30.961934,17.79052 c -0.21667,-0.0233 -0.59081,0.12715 -1.0693,0.45416 -0.95733,0.65418 -2.19049,0.88803 -2.74179,0.52121 -0.55105,-0.36715 -1.98703,0.10377 -3.19035,1.04469 -2.76065,2.15888 -5.035437,2.67559 -5.958997,1.35662 -0.39439,-0.56347 -0.93981,-0.50401 -1.21299,0.13083 -0.27312,0.63482 -1.80294,0.95684 -3.39908,0.71466 -2.05675,-0.31204 -2.93114,0.26526 -2.99988,1.9857 -0.0815,2.03831 -0.2897,2.05155 -1.29655,0.0778 -0.820377,-1.60834 -1.384397,-1.91675 -1.789197,-0.97606 -0.32534,0.75609 -0.96735,1.10957 -1.42655,0.78525 -2.37752,-1.67932 -6.04703,-0.3681 -6.50023,2.32296 -0.26725,1.58674 -0.50497,2.06067 -0.52903,1.05236 -0.0669,-2.76237 -2.61782,-3.32502 -7.76843,-1.71198 -3.47156,1.08701 -4.71055,2.19936 -4.93231,4.43078 -0.16278,1.6387 0.29168,2.89291 1.01021,2.78637 0.71852,-0.10655 1.29451,0.6216 1.2791,1.61776 -0.0154,0.99633 0.49668,-0.24947 1.13771,-2.76787 1.05871,-4.15742 1.23704,-4.30225 1.9404,-1.57408 0.70334,2.72837 1.00109,2.89052 3.22998,1.75362 1.35005,-0.6887 3.27222,-0.90104 4.27226,-0.47071 1.13985,0.49048 1.85104,-0.0428 1.90652,-1.43136 0.0539,-1.34694 0.45982,-1.68368 1.03737,-0.85914 0.52209,0.74565 1.74636,0.3336 2.72006,-0.9154 0.9737,-1.24906 2.0727,-1.83904 2.44194,-1.31147 0.36915,0.52751 3.540147,-0.18511 7.046667,-1.58179 3.50659,-1.39663 6.175137,-2.07145 5.929687,-1.50107 -0.245417,0.57042 2.0042,-0.10367 4.99903,-1.49759 2.99486,-1.39391 5.69018,-3.12927 5.98983,-3.85448 0.15501,-0.36031 0.0906,-0.55823 -0.12621,-0.58162 z M 24.813335,400.88771 c -0.17971,-0.19335 -0.50483,-0.28103 -0.93108,-0.21792 -0.85281,0.12641 -1.65565,0.47264 -1.78353,0.76982 -0.12788,0.29718 0.31931,0.77743 0.99299,1.06732 0.67359,0.28984 1.47657,-0.0565 1.78352,-0.76983 0.15349,-0.35668 0.11813,-0.65602 -0.0619,-0.84949 z M 8.5661855,399.15893 c 0.0362,0.0904 -0.54898,0.42853 -1.7286,1.07203 -2.47794,1.35161 -3.7614,1.56629 -3.32765,0.55827 0.10951,-0.25448 1.48727,-0.80314 3.06398,-1.22034 1.29906,-0.34372 1.9562,-0.5004 1.99227,-0.40996 z m 3.8459795,2.86697 -5.0329895,1.57647 c -5.1611,1.61622 -5.81624,1.71149 -5.42174,0.79472 0.12519,-0.29092 2.52773,-0.94387 5.34036,-1.4506 z m 11.89464,6.04752 c -0.16866,-0.17425 -0.5847,-0.29275 -1.22038,-0.3165 -1.21804,-0.0487 -2.30882,0.12777 -2.4228,0.39267 -0.42684,0.99194 2.14767,1.43807 3.3677,0.58376 0.36397,-0.25484 0.44384,-0.48549 0.27337,-0.66059 z m -21.3462995,-7.6971 -4.4183295,2.08978 c -4.12969,1.95387 -5.45665,2.30931 -5.04333,1.34879 0.0944,-0.21942 2.26135,-1.08254 4.81653,-1.91844 z m 71.4219405,33.23401 c -0.1918,-0.48166 -1.5886,0.40346 -3.10499,1.96816 -1.51723,1.56444 -2.60135,3.24008 -2.4095,3.72175 0.19191,0.4817 1.58943,-0.40507 3.10575,-1.9699 1.51722,-1.56444 2.60057,-3.23834 2.40874,-3.72001 z m 0.70857,9.44154 c 0.12782,0.0387 0.24881,0.12767 0.35173,0.27478 0.4121,0.58838 0.52613,1.58877 0.25343,2.2226 -0.27276,0.63388 -0.95588,0.95589 -1.51721,0.71433 -0.56134,-0.24155 -0.67556,-1.24183 -0.25351,-2.22263 0.31658,-0.7357 0.77991,-1.10104 1.16552,-0.98897 z m -14.846411,-4.45999 c -0.69959,-0.14138 -2.00757,-0.0192 -4.13357,0.32626 -2.96796,0.48238 -5.71636,1.55604 -6.10642,2.3861 -0.86937,1.84577 -0.0968,2.29906 1.73306,1.01773 0.74967,-0.52501 2.9033,-0.88748 4.78667,-0.80647 1.88341,0.0811 3.77605,-0.6668 4.204691,-1.66291 0.30702,-0.71348 0.21508,-1.11945 -0.484321,-1.2609 z M 7.7532355,416.22776 c 1.09006,0.46906 1.40241,1.25736 0.69625,1.75186 -0.70616,0.49447 -1.49284,0.80772 -1.75003,0.69704 -0.2573,-0.11073 -0.57244,-0.89807 -0.69887,-1.75083 -0.12643,-0.85276 0.66268,-1.1671 1.75265,-0.69807 z m 57.5379505,25.63302 -4.35316,2.1263 c -2.394641,1.16891 -4.089761,1.50943 -3.766641,0.75849 0.32311,-0.75086 -0.15025,-1.25455 -1.05296,-1.12072 -0.92833,0.13771 -2.05373,2.05403 -2.59022,4.41368 l -0.86245,3.78787 c 0.6356,-0.25793 1.32878,-0.7364 2.09034,-1.52231 1.45324,-1.49973 3.04836,-2.14872 3.54377,-1.44126 0.50111,0.71572 1.44951,0.037 2.13698,-1.53203 0.969721,-2.21557 1.312741,-2.32866 1.598801,-0.52828 0.51526,3.24414 2.56535,2.00713 2.9411,-1.77498 z m -81.0006,-29.31638 c 0.37475,0.0662 0.72422,0.27468 0.95894,0.60809 0.46845,0.66891 0.30373,1.60068 -0.36518,2.06907 -0.66896,0.46852 -1.59811,0.30277 -2.06655,-0.36618 -0.46854,-0.66895 -0.30459,-1.59895 0.36441,-2.06729 0.33442,-0.23423 0.73376,-0.3099 1.10845,-0.24382 z m 67.274579,31.88313 c -0.1977,-0.0435 -0.42699,0.0261 -0.68706,0.20837 -0.85693,0.59995 -1.4403,1.95867 -1.29851,3.01759 0.20221,1.49356 0.001,1.43494 -0.89252,-0.25804 -0.89642,-1.69855 -1.91736,-1.96974 -4.59039,-1.21622 -2.98453,0.84134 -3.48186,1.5504 -3.76217,5.36802 -0.34273,4.66701 0.9481,4.78665 6.22835,0.57723 1.51892,-1.21091 3.1462,-1.43626 4.04485,-0.56005 0.52774,0.51469 1.19767,0.59267 1.96353,0.30908 l -0.0647,-3.99546 c -0.0358,-2.17022 -0.3498,-3.31976 -0.94325,-3.45073 z m -6.71523,-1.6989 c -0.0178,-0.0953 -0.8189,-0.066 -2.41785,0.006 -1.83169,0.0823 -3.44006,0.40457 -3.57479,0.71768 -0.40329,0.9372 0.34827,0.94061 3.70861,0.0139 1.53502,-0.42337 2.30143,-0.64214 2.28402,-0.73734 z m 0.0969,4.11349 c 0.18645,0.0391 0.31612,0.55439 0.48705,1.56613 0.21823,1.29141 0.21404,2.79935 -0.01,3.34885 -0.22441,0.54941 -0.81338,0.41979 -1.30786,-0.28627 -0.49443,-0.70618 -0.48945,-2.21168 0.0111,-3.34625 0.39322,-0.8885 0.63356,-1.32305 0.81965,-1.28244 z m -6.78535,1.53263 c -0.46651,-0.0971 -1.20445,0.2319 -2.44743,0.93918 -1.59397,0.90689 -3.33155,2.60619 -3.85964,3.77601 -1.28833,2.84976 0.0871,3.27087 2.12844,0.65217 0.97278,-1.24791 2.218,-1.53182 3.07009,-0.701 1.64919,1.60808 2.46231,0.32211 1.92764,-3.04671 -0.1586,-0.9991 -0.35247,-1.52257 -0.81907,-1.61971 z m -59.591179,-20.93081 c -0.0734,-0.18421 -0.31788,-0.0865 -0.72369,0.31799 -0.734,0.73198 -1.14545,1.80807 -0.91364,2.39013 0.23179,0.5821 0.83292,-0.0164 1.33581,-1.33033 0.27942,-0.72523 0.37491,-1.19356 0.30153,-1.37775 z m 51.947689,23.25722 c -1.9165,-0.82468 -9.1993,3.07705 -10.41246,5.57882 -0.98692,2.03523 -1.37206,2.27348 -1.13308,0.70105 0.47865,-3.15121 -0.72507,-3.51879 -4.02762,-1.2292 -1.49032,1.03313 -2.89444,1.41459 -3.12033,0.84736 -0.54598,-1.37068 -4.7187395,-0.0904 -5.4483095,1.67199 -0.31674,0.7639 0.31389,0.79255 1.40169,0.0631 1.31856,-0.88416 1.76287,-0.81463 1.33769,0.21189 -0.35222,0.84635 -0.20658,1.67293 0.32149,1.83722 2.4218495,0.75334 4.6106595,0.24489 5.2398995,-1.21741 0.37844,-0.87946 1.58001,-1.12541 2.66948,-0.54592 1.08947,0.57947 4.06757,-0.26799 6.61735,-1.88347 3.86786,-2.45071 4.45335,-2.51222 3.53484,-0.37767 -0.60548,1.40709 -0.79085,3.00126 -0.41094,3.54412 0.38085,0.54283 1.41443,-1.25978 2.2978,-4.00588 0.88339,-2.74608 1.39359,-5.08386 1.13253,-5.1962 z m -48.800699,-20.45081 c -0.0734,-0.18421 -0.31788,-0.0865 -0.72363,0.31798 -0.73409,0.73193 -1.14554,1.80804 -0.91373,2.39008 0.23179,0.58211 0.83292,-0.0164 1.33581,-1.33032 0.27942,-0.72522 0.37492,-1.19357 0.30153,-1.37775 z m 2.04982,2.51502 c -0.66795,-0.29612 -1.26581,-0.0232 -1.61842,0.79624 -0.85241,1.9809 0.86885,3.25476 2.68164,1.98533 0.63223,-0.44261 0.46309,-1.47565 -0.37746,-2.2951 -0.23219,-0.22623 -0.46315,-0.38775 -0.68578,-0.48642 z m 19.4838595,9.10493 c -0.67368,-0.28987 -1.462,0.0226 -1.75187,0.69626 -0.28986,0.67359 0.0244,1.46275 0.69809,1.75264 0.67358,0.28985 1.46096,-0.0253 1.75081,-0.69885 0.28986,-0.67363 -0.0234,-1.46019 -0.69703,-1.75005 z m -3.00724004,-0.74974 c -0.1797,-0.19336 -0.50399,-0.28274 -0.93033,-0.21969 -0.85271946,0.12646 -1.65553946,0.47272 -1.78342946,0.76988 -0.12788,0.29718 0.3193,0.77743 0.99289,1.06727 0.67367946,0.28988 1.47480946,-0.0572 1.78177946,-0.77058 0.15347,-0.35664 0.11909,-0.65345 -0.0609,-0.84694 z M -4.775094,438.97321 c -0.44812,-0.16817 -0.96915,0.18678 -1.30807,0.97441 -0.4519,1.05017 -0.26964,2.14635 0.40395,2.43619 0.67358,0.28985 1.4464,0.009 1.71915,-0.62528 0.27277,-0.63386 0.0931,-1.73105 -0.40133,-2.4372 -0.12365,-0.17665 -0.26459,-0.29161 -0.41376,-0.34798 z m -4.71469,-1.95018 c -0.61469,-0.35258 -1.0118,-0.14243 -1.07704,0.62522 -0.17749,2.09336 2.1711,4.29862 2.86381,2.68881 0.28301,-0.65768 -0.21425,-1.90553 -1.10483,-2.77392 -0.24896,-0.24291 -0.47703,-0.42252 -0.68202,-0.53993 z m -26.976701,-5.85888 c 0.3352,0.24919 0.54427,1.06144 0.49928,2.11575 -0.0864,2.03157 -0.28731,2.1115 -0.98025,0.39038 -0.47951,-1.19095 -0.43038,-2.34086 0.10895,-2.55568 0.13505,-0.0538 0.26049,-0.0335 0.37207,0.0494 z m 16.468171,11.04341 c 0.43296,0.1657 0.88481,0.45195 1.25089,0.81889 0.80866,0.81131 0.39306,0.97564 -1.05908,0.4203 -1.31371,-0.50239 -1.91323,-1.10225 -1.33112,-1.33399 0.29102,-0.11585 0.70634,-0.0709 1.13929,0.0948 z m 19.07017946,9.65619 c 0.43296,0.1657 0.88223,0.4529 1.24831,0.81983 l 5.5e-4,-0.002 c 0.80875004,0.81137 0.39404,0.97817 -1.058,0.42289 C -2.050974,452.6021 -2.649744,452.0005 -2.067604,451.76868 c 0.29102,-0.11585 0.70634,-0.0709 1.13928946,0.0948 z m 1.88837,5.86465 c -0.63755,-0.2496 -2.25541946,-0.43702 -5.18117946,-0.68798 -3.7346,-0.32036 -7.98323,-0.20616 -9.4414,0.25361 -2.83829,0.89478 -5.07024,0.50383 -3.47233,-0.60752 0.53199,-0.36979 -4.07068,-2.62838 -10.22762,-5.01979 -6.156941,-2.39141 -11.054291,-3.99376 -10.882451,-3.56225 0.17183,0.43149 5.13788,3.07667 11.033701,5.87909 8.6839,4.12724 11.65905,4.99228 15.66593,4.56173 2.72071,-0.29285 4.80234,-0.20028 4.6278,0.20533 -0.17453,0.40561 0.68771,0.44322 1.91458,0.0818 1.22685,-0.36104 2.39288,-0.25152 2.59068,0.24514 0.1978,0.49665 1.39864,0.37302 2.67008946,-0.27564 0.99607004,-0.50816 1.33932004,-0.8229 0.7022,-1.07351 z" /><path
       id="path1209"
       style="fill:#D2D9DE;fill-opacity:1;stroke-width:1.33333"
       d="m 108.27693,214.59962 c -1.3383,-0.82719 -29.829599,10.75249 -48.863299,19.85938 -7.3334,3.50861 -21.2832,10.17127 -31,14.80664 -9.7168,4.63536 -17.6663,8.73407 -17.6663,9.10938 0,0.3753 5.7921,-2.00535 12.8712,-5.291 7.079,-3.2857 13.1153,-5.73188 13.4101,-5.43557 0.2963,0.29632 -2.9461,3.55423 -7.2049,7.24025 -4.2588,3.68606 -13.6807,11.8523 -20.9373998,18.1465 -7.2564001,6.29412 -13.6827001,11.44335 -14.2814001,11.44335 -1.6864,0 -6.6448001,-5.64933 -7.9963001,-9.11134 -1.2253,-3.1386 -0.6236,-5.55466 1.3829,-5.55466 1.9994,0 21.7837002,-9.41772 21.1389002,-10.0625 -0.3496,-0.34961 -8.97860015,3.14982 -19.1758002,7.77535 l -18.5412,8.41017 0.3711,8.60353 c 0.7106,16.51215 2.857,24.94696 7.3047,28.68945 5.9739,5.02669 16.1273001,9.81698 26.2617001,12.39061 l 0.011,0.002 c 4.9349999,1.25314 13.6297999,2.45204 19.3243999,2.66407 9.0278,0.33638 10.1234,0.13607 8.5466,-1.56253 -1.1456,-1.23383 -2.1229,-1.45024 -2.6638,-0.58787 -2.1985,3.50536 -28.1392999,-5.62896 -26.9181999,-9.47852 0.5844,-1.84256 0.4785,-1.87699 -0.695,-0.21695 -1.1668,1.65007 -2.02700005,1.33266 -5.4221,-2.00001 -2.2194,-2.17875 -4.0343,-4.81073 -4.0721,-5.84961 -0.019,-1.04085 -0.4093,-1.51646 -0.8632,-1.0625 -0.9211,0.92092 -4.5079001,-2.23586 -4.5079001,-3.96677 0,-0.60934 -1.1992,-1.85552 -2.6661,-2.77149 -1.4664,-0.91593 -2.6679,-2.36409 -2.6679,-3.21679 0,-0.8527 -0.7986,-2.49657 -1.7756,-3.65432 -2.3706,-2.80924 -7.9216,-16.1856 -7.07,-17.03708 0.37,-0.37002 2.1539,-0.76226 3.9647,-0.87111 1.8104,-0.10885 3.0527,-0.58545 2.7617,-1.05861 -0.2922,-0.47312 0.3144,-1.18484 1.3497,-1.58203 1.0393,-0.39882 2.2628,0.28535 2.7322,1.52734 1.4948,3.95445 6.6557001,10.89869 8.1074001,10.90624 0.7718,0.004 2.4821,3.00915 3.8007,6.67582 1.3183,3.6666 2.97869995,6.66796 3.68769995,6.66796 0.70980005,0 0.90940005,1.35001 0.4453,3 -0.5008,1.77581 -0.3878,2.34769 0.27550005,1.40428 1.4029,-1.99449 10.9114999,-0.10318 12.5604999,2.49804 0.8436,1.33183 1.1388,1.35481 1.1388,0.0956 0.011,-0.91664 0.6202,-1.66601 1.3534,-1.66601 0.7332,0 1.3338,0.62082 1.3338,1.37888 0,2.99203 7.5375,8.64892 12.0469,9.04101 2.5406,0.22073 6.2706,0.5833 8.2873,0.80667 2.0168,0.22337 3.6658,-0.14665 3.6658,-0.82228 0,-0.6757 0.5087,-0.91385 1.1308,-0.52928 0.6225,0.38456 2.2738,-0.36284 3.6681,-1.66213 3.3951,-3.16274 4.6873,-3.44693 6.0313,-1.32616 0.9264,1.46162 1.1505,1.46555 1.1505,0.0189 0.011,-0.96903 -0.8806,-2.66366 -1.9804,-3.76365 -1.4264,-1.42624 -2.0198,-4.93531 -2.0198,-12.23634 -0.011,-6.42379 -0.4581,-9.54841 -1.1951,-8.38476 -2.4854,3.92458 -3.3373,-25.66254 -1.1955,-41.52148 0.3825,-2.8326 0.2555,-2.82622 5.2675,-0.23433 2.2319,1.15423 4.3461,1.80884 4.7014,1.45508 0.3538,-0.35376 -0.6032,-1.03846 -2.1252,-1.52149 -5.6701,-1.79966 -2.3993,-3.02505 10.2327,-3.83399 32.9571,-2.11056 30.6777,-2.2289 32.1581,1.64844 2.766999,7.24831 3.065199,9.48756 1.2658,9.49025 -1.0205,0.002 -1.8811,1.77362 -2.055,4.23046 -0.4463,6.34318 -2.132,7.24528 -8.324,4.45312 -2.9579,-1.33372 -5.3771,-2.93469 -5.3771,-3.55665 0,-0.62196 -0.9147,-1.13084 -2.033,-1.13084 -1.1184,0 -6.2805,-2.13823 -11.4709,-4.75196 -14.2621,-7.18239 -12.1576,-4.83874 3.0606,3.40819 8.9114,4.82914 13.7946,8.30562 14.5841,10.38281 0.6531,1.7175 1.6789,2.81844 2.2791,2.44729 1.2748,-0.79208 1.2446,7.95307 -0.039,9.23629 -0.48,0.47959 -0.5817,1.63435 -0.2226,2.56641 0.7098,1.8494 -7.5946,11.37891 -9.916,11.37891 -0.7888,0 -2.4782,-1.7676 -3.7542,-3.92772 -1.276,-2.16011 -2.9012,-3.56704 -3.6133,-3.12695 -0.7226,0.44625 -0.8689,0.10847 -0.3299,-0.76369 1.1179,-1.80885 -4.0638,-10.84959 -6.2189,-10.84959 -0.7967,0 -1.0779,-0.36926 -0.627,-0.82031 0.4513,-0.45109 -2.798,-6.19997 -7.2204,-12.77734 -4.4228,-6.57736 -8.3388,-11.66199 -8.7054,-11.29689 -0.7763,0.77601 5.5298,12.48918 8.5569,15.89454 1.1327,1.28334 1.6505,2.33397 1.1327,2.33397 -0.5174,0 0.6614,2.09934 2.6192,4.66602 1.9578,2.56664 3.0947,4.66798 2.5274,4.66798 -0.5673,0 -0.098,1.0487 1.0427,2.33204 2.5898,2.91375 6.4351,11.91024 6.9827,16.33399 0.5216,4.21613 -0.6051,6.16773 -2.1993,3.80859 -0.9842,-1.47542 -1.1841,-1.43966 -1.0216,0.19124 0.3186,3.18134 -1.5946,7.98611 -3.2459,8.15429 -3.5871,0.36511 -4.3317,0.62363 -7.1777,2.5039 -1.6497,1.09025 -3.0002,2.85419 -3.0002,3.91798 0,1.3929 0.5492,1.20967 1.959,-0.65432 1.497,-1.97915 1.9706,-2.11729 2.0198,-0.58786 0.056,1.77777 0.2078,1.77777 1.3749,0 1.1672,-1.77778 1.4601,-1.77778 2.6268,0 1.1142,1.69935 1.2964,1.63733 1.3342,-0.41212 0.011,-1.32658 0.5563,-2.0815 1.2128,-1.67577 0.6565,0.40573 1.589,-0.29216 2.072,-1.55078 0.6799,-1.77233 1.1199,-1.89604 1.9514,-0.55079 0.726,1.17464 1.3636,0.30047 1.9687,-2.70312 0.7227,-3.58745 1.163,-4.05709 2.295,-2.44142 1.0756,1.53562 1.2227,1.17101 0.627,-1.57032 -0.8625,-3.96839 1.3784,-7.02315 6.2343,-8.49804 4.5192,-1.3725 11.6584,-7.13635 11.6584,-9.41212 0,-1.18469 0.6342,-1.61737 1.5447,-1.05468 1.1387,0.70375 1.3262,-1.13556 0.7147,-6.98827 -0.731,-6.9911 -0.4766,-8.33272 2.1214,-11.20898 6.221899,-6.88785 7.080999,-10.12396 4.564199,-17.21095 -2.635099,-7.41951 -2.776499,-8.52234 -0.9453,-7.3906 0.7336,0.45305 1.3342,0.33373 1.3342,-0.2657 0,-1.18919 -11.080099,-1.067 -22.668099,0.24983 -4.0335,0.45838 -11.8322,1.11953 -17.3322,1.46876 l -9.9999,0.63477 9.332,-4.91603 c 5.1334,-2.70327 15.6292,-7.56027 23.3224,-10.79297 l 13.9862,-5.87694 2.437799,3.00779 2.4355,3.00978 -0.8088,-3.25976 c -0.5983,-2.41202 -0.094,-3.70137 1.9396,-4.95704 2.3271,-1.43664 2.8781,-1.3584 3.5936,0.50585 1.4861,3.87296 -1.4729,44.9362 -3.2814,45.53907 -0.8938,0.29783 -1.6248,2.08993 -1.6248,3.98242 0,4.03706 -3.993799,13.66994 -5.667799,13.66994 -0.6349,0 -0.782,0.60567 -0.3243,1.3457 0.4574,0.74007 -1.0083,4.07037 -3.256,7.40039 -2.2473,3.33007 -4.1269,6.77443 -4.1798,7.6543 -0.052,0.87992 -0.6645,0.40022 -1.361,-1.06643 -1.18,-2.48356 -1.2265,-2.46085 -0.6955,0.336 0.3134,1.65169 -0.1579,3.45169 -1.0469,3.99999 -0.8889,0.54826 -3.3539,3.31083 -5.4765,6.13867 -3.3782,4.50081 -3.9802,4.83247 -4.8321,2.666 -0.852,-2.16918 -0.9831,-2.09624 -1.0662,0.58205 -0.051,1.68068 -1.2953,4.34366 -2.7618,5.91795 -2.5542,2.73982 -2.6706,2.75161 -2.7991,0.27742 -0.1017,-1.98286 -0.3492,-1.80911 -1.0605,0.74808 -0.5851,2.10259 -1.8891,3.33396 -3.5332,3.33396 -1.4335,0 -3.2674,0.84215 -4.0743,1.87305 -0.8564,1.09459 -2.6611,1.56242 -4.334,1.12502 -1.5764,-0.41235 -2.8648,-0.29103 -2.8648,0.26948 0,0.56046 -2.5497,1.67818 -5.6663,2.48436 l -5.6678,1.46679 5.3341,-0.68553 c 15.2526,-1.95738 20.9423,-4.62308 30.8084,-14.43945 14.609,-14.53478 24.508799,-32.39513 29.021499,-52.35742 2.3229,-10.27623 3.0913,-43.67747 1.0333,-44.94924 z m -3.4885,30.97074 c -0.2257,-0.2366 -0.3954,0.59217 -0.4237,2.24216 v 0 c -0.026,2.19999 0.2468,3.26207 0.6134,2.35937 0.3666,-0.9027 0.3852,-2.70266 0.049,-3.99999 -0.085,-0.32428 -0.1651,-0.52274 -0.2404,-0.60154 z m -63.398199,1.40039 -2.3225,4.41989 c -1.2767,2.43148 -2.7704,4.6207 -3.3203,4.86523 -0.55,0.24454 -1.0001,1.47674 -1.0001,2.73831 0,2.23022 -1.9952,6.80598 -11.4043,26.1504 -2.4972,5.13328 -5.1387,10.98331 -5.8689,12.99999 -1.2321,3.40146 -2.7016,4.13215 -6.0605,3.01171 -0.7332,-0.24453 -3.0534998,-0.82647 -5.1563999,-1.29297 -2.1033,-0.46651 -3.5187,-1.15518 -3.1408,-1.53124 0.3761,-0.37606 -0.7532,-2.23574 -2.50960005,-4.13087 -3.21409995,-3.46798 -4.21599995,-7.78647 -1.99819995,-8.61132 0.65729995,-0.24453 8.9601001,-7.78201 18.4512999,-16.74999 9.4911,-8.96803 18.8481,-17.55784 20.793,-19.0879 z m 2.623,0.84177 -0.2226,11.33205 c -0.223,11.29545 1.1954,28.89498 2.4998,31.00584 0.3779,0.61115 -0.1142,2.09998 -1.0938,3.3086 -0.9812,1.20869 -1.1294,1.80726 -0.3319,1.33009 0.9373,-0.56073 1.5258,1.04262 1.6619,4.53124 0.116,2.9687 0.6055,6.03541 1.0881,6.81642 0.5348,0.86509 0.2404,1.02746 -0.7521,0.41404 -1.0367,-0.64074 -1.8951,0.0113 -2.3611,1.79297 -0.4029,1.54046 -0.816,2.80078 -0.918,2.80078 -0.1028,0 -1.9828,0.50846 -4.1779,1.12891 -4.6228,1.30658 -7.7322,0.61039 -6.4608,-1.44726 0.5783,-0.93577 0.2389,-1.02606 -0.9902,-0.25965 -3.5558,2.21654 -6.2332,1.83485 -9.7073,-1.38478 -2.939,-2.72387 -3.2841,-3.76192 -2.1971,-6.62109 0.7094,-1.86531 0.9041,-4.39638 0.4335,-5.62303 -0.5113,-1.33232 -0.3171,-1.89653 0.4823,-1.40236 0.7404,0.45748 2.6823,-2.57427 4.3438,-6.78122 6.2646,-15.86412 11.5208,-27.83683 15.049,-34.27541 z m 3.5134,7.33399 c -0.1927,-0.23358 -0.328,1.75702 -0.328,5.33204 0,4.76667 0.2422,6.71535 0.537,4.33202 0.2948,-2.38333 0.2948,-6.28267 0,-8.666 -0.074,-0.59585 -0.1447,-0.92021 -0.209,-0.99806 z m -73.4059,31.33984 c 0.156,0.051 0.3409,0.25209 0.5582,0.59573 0.6731,1.06499 0.9313,2.41496 0.5684,3 -0.3613,0.58499 0.011,1.0625 0.8323,1.0625 0.8201,0 1.1527,0.55 0.7381,1.22067 -0.4146,0.67072 -0.229,1.41997 0.412,1.66602 0.6406,0.24605 1.5617,1.72588 2.047,3.28906 0.6066,1.9525 0.2222,3.09637 -1.2265,3.65234 -1.1607,0.44512 -1.7711,0.26344 -1.3595,-0.40233 0.4116,-0.6658 -0.1587,-2.11593 -1.2654,-3.22265 -1.107,-1.10676 -1.9903,-4.30507 -1.9903,-7.10744 0.011,-2.71332 0.2162,-3.90671 0.6857,-3.7539 z m 112.9334,4.75585 c -0.5182,-0.0151 -1.2922,0.38691 -1.9707,1.07033 -1.3069,1.31682 -1.1542,1.46967 0.7461,0.74608 1.3157,-0.50071 2.0549,-1.2457 1.6445,-1.65623 -0.1024,-0.1028 -0.2472,-0.15496 -0.4199,-0.16025 z m -92.9941999,0.51761 c -0.2411,-0.09 -0.4119,0.67578 -0.4119,2.05077 0,1.83338 0.3031,2.58463 0.6735,1.66798 0.3704,-0.91668 0.3704,-2.41731 0,-3.33399 -0.093,-0.22904 -0.1811,-0.3549 -0.2616,-0.38476 z m -2.666,2.66797 c -0.2412,-0.0899 -0.412,0.67578 -0.412,2.05077 0,1.83334 0.3012,2.5827 0.6716,1.66602 0.3704,-0.91665 0.3704,-2.41735 0,-3.334 -0.092,-0.22904 -0.1791,-0.35301 -0.2596,-0.38279 z m 90.6658999,0 c -0.2411,-0.0899 -0.4101,0.67578 -0.4101,2.05077 0,1.83334 0.3016,2.5827 0.672,1.66602 0.3704,-0.91665 0.3704,-2.41735 0,-3.334 -0.093,-0.22904 -0.1814,-0.35301 -0.2619,-0.38279 z m 11.7249,2.29686 c -0.3814,0.17159 -0.6494,1.15166 -1.1388,3.08983 -0.001,0.004 -8e-4,0.0113 0,0.0189 0.198,-0.14589 0.3912,-0.29556 0.4981,-0.50781 0.1626,-0.32391 -0.257,-0.82995 0,-1.08594 0.2559,-0.25587 0.8289,0.25588 1.0859,0 0.2559,0.25588 0.7249,0 1.0877,0 0.034,0 0.075,0.0113 0.1115,0.0151 -0.8054,-1.091 -1.2918,-1.68537 -1.6425,-1.52735 z m 0.4433,0.42772 c 0.2188,0 0.088,0.3001 0,0.59573 -0.088,-0.29556 -0.2188,-0.59573 0,-0.59573 z m -17.5019,1.27541 c -0.2415,-0.09 -0.4104,0.67578 -0.4104,2.05077 0,1.83337 0.3016,2.58266 0.672,1.66601 0.3704,-0.91668 0.3704,-2.41727 0,-3.33396 -0.093,-0.22903 -0.1814,-0.353 -0.2616,-0.38282 z M 8.4781312,308.98244 c -0.1402,0.14022 -0.2355,0.60816 -0.2676,1.38478 -0.058,1.40568 0.2559,2.19303 0.6992,1.75 0.4422,-0.44304 0.4906,-1.59413 0.1054,-2.55663 -0.2131,-0.53182 -0.3972,-0.71834 -0.537,-0.57815 z m -2.4416001,0.11149 c -0.2411,-0.0899 -0.412,0.67578 -0.412,2.05077 0,1.83334 0.3013,2.58267 0.6716,1.66602 0.3704001,-0.91669 0.3704001,-2.41534 0,-3.33203 -0.092,-0.22904 -0.1791,-0.3549 -0.2596,-0.38476 z m 59.7501999,2.5547 c -0.1403,0.14022 -0.2355,0.60813 -0.2676,1.38474 -0.058,1.40572 0.2562,2.19304 0.6992,1.75 0.4422,-0.44307 0.4906,-1.59216 0.1054,-2.55466 -0.2127,-0.53182 -0.3972,-0.72026 -0.537,-0.58008 z m -36,5.33397 c -0.1403,0.14022 -0.2355,0.60813 -0.2676,1.38478 -0.058,1.40568 0.2562,2.19304 0.6992,1.75 0.4422,-0.44308 0.4906,-1.59417 0.1054,-2.55666 -0.2127,-0.53182 -0.3972,-0.7183 -0.537,-0.57812 z m 9.0387,8.83007 c -0.6901,0 -1.6248,0.59872 -2.078,1.33206 -0.4531,0.7333 0.1108,1.33398 1.2541,1.33398 1.1429,0 2.078,-0.60068 2.078,-1.33398 0,-0.73334 -0.5639,-1.33206 -1.2541,-1.33206 z" /></g></svg>
