<?xml version="1.0" encoding="UTF-8" standalone="no"?>
<!-- Created with Inkscape (http://www.inkscape.org/) -->

<svg
   width="56.960098mm"
   height="41.11377mm"
   viewBox="0 0 56.960098 41.11377"
   version="1.1"
   id="svg5"
   xml:space="preserve"
   xmlns:inkscape="http://www.inkscape.org/namespaces/inkscape"
   xmlns:sodipodi="http://sodipodi.sourceforge.net/DTD/sodipodi-0.dtd"
   xmlns="http://www.w3.org/2000/svg"
   xmlns:svg="http://www.w3.org/2000/svg"><sodipodi:namedview
     id="namedview7"
     pagecolor="#ffffff"
     bordercolor="#666666"
     borderopacity="1.0"
     inkscape:showpageshadow="2"
     inkscape:pageopacity="0.0"
     inkscape:pagecheckerboard="0"
     inkscape:deskcolor="#d1d1d1"
     inkscape:document-units="mm"
     showgrid="false"
     inkscape:zoom="0.6480467"
     inkscape:cx="2735.914"
     inkscape:cy="195.97353"
     inkscape:window-width="1440"
     inkscape:window-height="900"
     inkscape:window-x="0"
     inkscape:window-y="0"
     inkscape:window-maximized="0"
     inkscape:current-layer="layer1" /><defs
     id="defs2" /><g
     inkscape:label="Livello 1"
     inkscape:groupmode="layer"
     id="layer1"
     transform="translate(-189.91555,572.38768)"><path
       id="path8860"
       style="fill:#D2D9DE;stroke-width:0.352778"
       d="m 213.13841,-572.38005 c -0.20827,0.0236 0.0173,0.10236 0.59531,0.24546 0.77611,0.19213 1.67987,0.37551 2.00867,0.40721 0.44589,0.043 0.50188,0.17327 0.22066,0.51212 -0.40262,0.48513 -4.1488,0.56209 -5.38004,0.11058 -0.56626,-0.20765 -0.47704,-0.2998 0.52917,-0.54518 l 1.21026,-0.29507 -1.14412,-0.13643 c -2.80674,-0.33529 -11.10056,3.04535 -12.99507,5.29683 -0.66844,0.7944 -0.8785,1.40371 -0.8077,2.34043 0.0527,0.6965 -0.1202,1.9411 -0.38396,2.76572 -0.97051,3.03412 1.11782,6.60354 7.07089,12.08764 14.11528,13.00329 18.61156,16.33017 24.05176,17.79529 2.16163,0.58215 10.4204,0.71691 12.22458,0.19947 2.93992,-0.84315 4.13844,-4.01644 2.87476,-7.61193 -0.83037,-2.36255 -3.73381,-6.93509 -5.40019,-8.50439 -2.28374,-2.15069 -6.33533,-4.96623 -9.53017,-6.62234 -3.0558,-1.58404 -4.75646,-2.69696 -3.39307,-2.22054 2.3799,0.83161 17.72322,3.4217 20.3078,3.4277 1.66761,0.004 1.91231,-0.20309 1.50637,-1.27589 -0.55439,-1.46507 -3.49237,-3.86806 -7.61969,-6.23269 -2.57482,-1.47518 -5.35998,-3.44294 -7.24038,-5.11545 -2.71504,-2.41489 -3.48221,-2.88366 -6.87917,-4.20181 -4.43116,-1.71946 -5.95049,-2.08137 -9.82059,-2.34095 -1.15606,-0.0775 -1.79781,-0.1094 -2.00608,-0.0858 z m -6.96908,1.61747 c 0.40219,0 0.62757,0.16013 0.50488,0.35864 -0.12187,0.19719 -0.35583,0.27554 -0.51987,0.17415 -0.16405,-0.10139 -0.37867,0.0152 -0.47697,0.2589 -0.10782,0.26736 -0.18939,0.1983 -0.20619,-0.17415 -0.0179,-0.39709 0.23094,-0.61754 0.69815,-0.61754 z m 4.57698,0.22324 c 1.08802,4.7e-4 4.13085,0.41545 6.69106,0.96325 0.48507,0.10379 1.43757,0.0543 2.11667,-0.11007 1.14758,-0.27781 1.08516,-0.30472 -0.88212,-0.38292 -1.16417,-0.0463 -1.72796,-0.15688 -1.25315,-0.24598 0.47482,-0.0891 1.90357,-0.0432 3.175,0.10232 1.86506,0.21346 2.14144,0.31875 1.42989,0.54519 -0.78083,0.24846 -0.74073,0.27654 0.35243,0.24184 1.26853,-0.0403 4.15805,0.67978 4.73201,1.17926 0.17728,0.15429 -0.29897,0.21154 -1.05833,0.12764 -1.37275,-0.15164 -1.23128,-0.093 1.41438,0.58756 1.95991,0.5042 0.94123,1.05488 -1.56011,0.84336 -2.05057,-0.17341 -1.72256,-0.0373 1.34876,0.55966 1.32374,0.25729 1.82508,0.50363 1.69808,0.83457 -0.18096,0.47158 0.70356,1.0633 1.36271,0.91157 0.23209,-0.0534 0.23138,0.0437 -0.003,0.28267 -0.19583,0.19998 -1.86271,0.41641 -3.70417,0.48111 l -3.34812,0.1173 3.85093,0.0734 c 4.28369,0.0814 4.67093,0.48354 0.79479,0.82527 l -2.52905,0.22324 2.70113,-0.0465 c 1.48584,-0.0256 2.63343,0.0623 2.55023,0.19586 -0.0833,0.1336 0.13023,0.41592 0.47387,0.62735 0.62833,0.38661 -6.17384,0.28087 -13.3103,-0.20723 -1.64923,-0.11277 -2.90369,-0.10738 -2.78794,0.0119 0.19502,0.20094 7.91451,0.79055 14.07718,1.07539 1.45521,0.0673 3.83647,0.20874 5.29166,0.31419 2.01937,0.14633 2.31154,0.11704 1.23455,-0.12247 -0.77611,-0.17259 -1.92687,-0.32263 -2.55746,-0.33383 -0.90456,-0.016 -1.1467,-0.1694 -1.1467,-0.72606 0,-0.38805 0.15892,-0.70538 0.35295,-0.70538 0.19403,0 0.35243,0.25779 0.35243,0.57309 0,0.43873 0.23032,0.52734 0.98082,0.37724 0.54705,-0.10941 1.83392,0.0942 2.91042,0.46044 1.06136,0.36106 1.69147,0.68333 1.40043,0.71623 -0.29104,0.033 -0.13212,0.18675 0.35295,0.3421 0.76895,0.24621 0.70118,0.28809 -0.52917,0.32349 -2.38149,0.0685 -2.45724,0.60086 -0.0909,0.63976 1.21405,0.02 2.84279,0.27951 3.6189,0.57671 1.4031,0.5373 1.39196,0.53969 -1.94045,0.41496 -2.43857,-0.0913 -3.06296,-0.0357 -2.29288,0.2036 0.58208,0.18087 1.65364,0.34312 2.38125,0.36122 0.7271,0.0181 1.32158,0.13947 1.3224,0.26924 0,0.12986 -0.27799,0.24876 -0.61754,0.26406 -0.64195,0.029 -10.39267,-1.53035 -15.61041,-2.49649 -1.86281,-0.34493 -4.97729,-0.55573 -8.22276,-0.55603 -3.85903,-3.6e-4 -5.15823,-0.10688 -4.9723,-0.40773 0.15619,-0.25273 0.0968,-0.31161 -0.15658,-0.15503 -0.63512,0.39252 -3.75849,-0.16091 -3.17604,-0.56276 0.31134,-0.21484 0.0637,-0.24689 -0.71416,-0.093 -0.85278,0.16867 -1.11962,0.1203 -0.94052,-0.1695 0.17243,-0.27899 -0.007,-0.33999 -0.5767,-0.19689 -1.19864,0.30084 -5.58261,-2.16355 -5.58261,-3.13831 0,-0.23002 1.62903,0.27834 3.52795,1.10122 1.72846,0.74897 4.79312,1.37672 3.88038,0.79479 -0.29104,-0.18556 -0.80663,-0.33962 -1.14618,-0.34262 -0.33955,-0.003 -0.61753,-0.15932 -0.61753,-0.34726 0,-0.18794 -0.23812,-0.25018 -0.52917,-0.13849 -0.29104,0.11168 -0.52917,0.0395 -0.52917,-0.1602 0,-0.19973 -0.5953,-0.55349 -1.32291,-0.786 -1.82281,-0.5825 -2.21959,-1.03437 -0.9524,-1.08417 0.73753,-0.029 0.83488,-0.0901 0.33486,-0.21032 -1.72218,-0.41424 -1.20114,-0.78379 0.90589,-0.64234 l 2.26911,0.15244 -1.76371,-0.44183 -1.76372,-0.44183 1.61437,-0.25839 c 0.88795,-0.14203 1.84046,-0.19922 2.11667,-0.12712 0.27624,0.0721 0.38187,0.0642 0.23513,-0.0176 -0.1468,-0.0818 -0.17807,-0.29192 -0.0698,-0.46716 0.1083,-0.1752 -0.0332,-0.23049 -0.31471,-0.12247 -0.28149,0.10801 -0.61656,0.0269 -0.74465,-0.18035 -0.14301,-0.23139 0.14958,-0.38633 0.75809,-0.40153 0.82952,-0.0208 0.87916,-0.0686 0.30437,-0.29352 -0.64309,-0.25166 -0.63425,-0.28262 0.14056,-0.48524 0.45502,-0.119 1.31958,-0.14788 1.92133,-0.0641 0.93743,0.1305 0.96812,0.11305 0.21549,-0.12247 -1.42893,-0.44716 -0.27674,-0.76052 1.40612,-0.38241 0.85126,0.1913 1.95349,0.28443 2.44998,0.20723 0.7051,-0.10972 0.63266,-0.15294 -0.33176,-0.19844 -0.67909,-0.032 -1.46467,-0.20362 -1.74563,-0.38137 -0.16202,-0.1025 -0.0164,-0.14847 0.34623,-0.14832 z m -6.3407,1.18805 c 0.20547,0 0.27547,0.1584 0.15555,0.35243 -0.11991,0.19403 -0.28802,0.35295 -0.37362,0.35295 -0.0856,0 -0.15555,-0.15892 -0.15555,-0.35295 0,-0.19403 0.16814,-0.35243 0.37362,-0.35243 z m 12.26437,0.38757 c -0.50573,-0.003 -1.2552,0.0958 -2.23087,0.29766 -1.34816,0.27884 -1.31274,0.29348 0.79375,0.33228 1.26177,0.0232 2.20503,-0.11024 2.20503,-0.31213 0,-0.20843 -0.26218,-0.31439 -0.76791,-0.31781 z m 4.44262,0.37052 c -2.65408,0.0402 -3.11537,0.10956 -1.91099,0.28629 1.47422,0.21633 4.92739,0.0773 5.26221,-0.21188 0.0808,-0.07 -1.42711,-0.10351 -3.35122,-0.0744 z m -13.22916,0.34365 c -0.12256,-0.005 -0.26232,0.0173 -0.38965,0.0682 -0.28141,0.11262 -0.19805,0.19601 0.21291,0.21291 0.37193,0.0153 0.58024,-0.0678 0.46302,-0.185 -0.0586,-0.0586 -0.16373,-0.0911 -0.28628,-0.0961 z m 1.41076,0 c -0.12255,-0.005 -0.26179,0.0173 -0.38912,0.0682 -0.28142,0.11262 -0.19806,0.19601 0.21291,0.21291 0.37191,0.0153 0.58024,-0.0678 0.46302,-0.185 -0.0586,-0.0586 -0.16425,-0.0911 -0.28681,-0.0961 z m -7.02593,0.002 c 0.15986,0 0.31953,0.0244 0.4408,0.0734 0.24253,0.0978 0.0443,0.17776 -0.4408,0.17776 -0.48508,0 -0.68333,-0.0799 -0.4408,-0.17776 0.12127,-0.0489 0.28095,-0.0734 0.4408,-0.0734 z m 18.6676,0.70384 c -0.12256,-0.005 -0.2618,0.0173 -0.38913,0.0682 -0.28141,0.11262 -0.19806,0.19652 0.21291,0.21342 0.37192,0.0153 0.58025,-0.0683 0.46302,-0.18551 -0.0586,-0.0586 -0.16425,-0.0911 -0.2868,-0.0961 z m 4.57336,10e-4 c -0.19182,-0.002 -0.39682,0.0184 -0.56844,0.0631 -0.34324,0.0895 -0.14748,0.1687 0.4346,0.1757 0.58208,0.007 0.86257,-0.0657 0.62374,-0.16227 -0.11943,-0.0484 -0.29807,-0.0741 -0.4899,-0.0765 z m -17.27336,0.35192 c -0.12256,-0.005 -0.2618,0.0173 -0.38913,0.0682 -0.28141,0.11261 -0.19806,0.19601 0.21291,0.21291 0.37192,0.0153 0.58025,-0.0678 0.46302,-0.185 -0.0586,-0.0586 -0.16425,-0.0911 -0.2868,-0.0961 z m 19.40295,0 c -0.12256,-0.005 -0.26231,0.0173 -0.38964,0.0682 -0.28142,0.11261 -0.19755,0.19601 0.21342,0.21291 0.37192,0.0153 0.58025,-0.0678 0.46302,-0.185 -0.0586,-0.0586 -0.16425,-0.0911 -0.2868,-0.0961 z m -17.25683,0.34985 c -0.28773,0 -0.57546,0.021 -0.79375,0.063 -0.43656,0.0841 -0.0794,0.15296 0.79375,0.15296 0.87315,0 1.23032,-0.0689 0.79375,-0.15296 -0.21828,-0.042 -0.50602,-0.063 -0.79375,-0.063 z m 18.34462,0.35863 c 0.48507,-0.02 1.12024,0.11784 1.41128,0.30593 0.60039,0.38801 0.28981,0.38801 -1.23507,0 -0.97635,-0.24844 -0.98984,-0.27243 -0.17621,-0.30593 z m -21.90151,0.34985 c -0.12255,-0.005 -0.26231,0.0173 -0.38964,0.0682 -0.28142,0.11262 -0.19806,0.19601 0.21291,0.21291 0.37192,0.0153 0.58025,-0.0678 0.46302,-0.185 -0.0586,-0.0586 -0.16373,-0.0911 -0.28629,-0.0961 z m -16.55144,0.30799 c -0.0148,-0.0148 -0.17222,0.10664 -0.35812,0.25012 0.0271,0.0486 0.0543,0.0971 0.0827,0.14521 0.17536,-0.22519 0.29175,-0.37902 0.27544,-0.39533 z m 18.34461,0.047 c -0.15985,0 -0.31953,0.0244 -0.4408,0.0734 -0.24253,0.0978 -0.0443,0.17777 0.4408,0.17777 0.48507,0 0.68333,-0.0799 0.4408,-0.17777 -0.12127,-0.0489 -0.28094,-0.0734 -0.4408,-0.0734 z m -5.11545,0.31471 1.41129,0.48834 c 1.69825,0.5875 2.569,0.6892 2.09909,0.24546 -0.18433,-0.17406 -1.04976,-0.41025 -1.92288,-0.52503 z m 7.55562,0.0356 c -0.12256,-0.005 -0.26232,0.0173 -0.38965,0.0682 -0.28141,0.11261 -0.19805,0.196 0.21291,0.2129 0.37193,0.0153 0.58024,-0.0678 0.46302,-0.185 -0.0586,-0.0586 -0.16373,-0.0911 -0.28628,-0.0961 z m 14.84612,0.34779 c -0.47956,0 -0.95912,0.0193 -1.32292,0.0574 -0.7276,0.0761 -0.13229,0.13849 1.32292,0.13849 1.45521,0 2.05052,-0.0624 1.32291,-0.13849 -0.3638,-0.038 -0.84336,-0.0574 -1.32291,-0.0574 z m -4.26279,0.005 c -0.12256,-0.005 -0.26231,0.0173 -0.38964,0.0682 -0.28142,0.11262 -0.19806,0.196 0.2129,0.2129 0.37192,0.0153 0.58025,-0.0678 0.46303,-0.185 -0.0586,-0.0586 -0.16374,-0.0911 -0.28629,-0.0961 z m -13.07621,0.0367 c -0.40468,0.0536 -1.00562,0.40348 -1.00562,0.67542 0,0.18023 0.33094,0.15004 0.73587,-0.0667 0.40467,-0.21657 0.6652,-0.46393 0.5793,-0.54983 -0.0617,-0.0617 -0.17465,-0.0768 -0.30955,-0.0589 z m 0.80874,0.78342 c -0.2044,-0.0112 -0.36902,0.0199 -0.44442,0.0956 -0.15079,0.15143 0.23346,0.30345 0.8537,0.33745 1.05857,0.0581 1.0751,0.0411 0.27388,-0.27544 -0.23472,-0.0927 -0.47876,-0.14639 -0.68316,-0.15761 z m 3.43132,0.58911 c -0.25577,-0.001 -0.52421,0.0193 -0.74363,0.0615 -0.43882,0.0843 -0.16271,0.15619 0.6134,0.16019 0.77606,0.004 1.13466,-0.0652 0.79737,-0.15348 -0.16864,-0.0441 -0.41138,-0.0669 -0.66714,-0.0682 z m -22.21622,0.77928 c -0.0214,0.22869 -0.0504,0.45805 -0.0444,0.68316 0.0738,-0.0888 0.18594,-0.16468 0.34158,-0.20619 0.53128,-0.1416 0.50698,-0.20264 -0.16795,-0.41961 -0.049,-0.0158 -0.0853,-0.0385 -0.12919,-0.0574 z m 18.40249,0.59015 c -0.18257,0 -0.42992,0.15841 -0.54983,0.35243 -0.11992,0.19403 0.0293,0.35295 0.33176,0.35295 0.3025,0 0.54984,-0.15892 0.54984,-0.35295 0,-0.19402 -0.14919,-0.35243 -0.33177,-0.35243 z m -9.44696,0.0315 c 0.0417,0.009 0.079,0.0283 0.10955,0.0589 0.0888,0.0888 -0.0805,0.36227 -0.3762,0.60771 -0.33528,0.27826 -0.53796,0.30472 -0.53796,0.0708 0,-0.37305 0.5126,-0.80034 0.80461,-0.73742 z m -2.11719,0.45423 c 0.0371,-0.0371 0.0863,0.0123 0.14263,0.15297 0.10196,0.25466 0.0893,0.55922 -0.0279,0.67644 -0.11718,0.11723 -0.20081,-0.0911 -0.18551,-0.46302 0.008,-0.20548 0.0337,-0.32929 0.0708,-0.36639 z m 12.95425,0.26562 c -0.15985,0 -0.31953,0.0244 -0.4408,0.0734 -0.24253,0.0978 -0.0443,0.17777 0.4408,0.17777 0.48508,0 0.68385,-0.0799 0.44132,-0.17777 -0.12127,-0.0489 -0.28147,-0.0734 -0.44132,-0.0734 z m -9.76374,0.44339 c 0.14001,-0.0264 0.23874,0.0533 0.23874,0.216 0,0.2169 0.1832,0.28107 0.40721,0.14263 0.25237,-0.15596 0.3115,-0.0968 0.15555,0.15555 -0.29728,0.48101 -0.25945,0.47675 -0.86507,0.093 -0.33366,-0.21142 -0.36002,-0.37645 -0.0879,-0.54467 0.0537,-0.0332 0.10475,-0.0537 0.15142,-0.0625 z m -1.71618,0.39377 c 0.0127,-7.7e-4 0.0324,0.028 0.0589,0.0889 0.10589,0.24374 0.33753,0.35341 0.5147,0.24392 0.17715,-0.1095 0.29705,0.0879 0.26665,0.43873 -0.0304,0.35082 -0.0144,0.95553 0.0357,1.34359 0.0793,0.61438 0.12767,0.59176 0.37362,-0.17622 0.27101,-0.84611 0.28359,-0.84987 0.31729,-0.0884 0.0383,0.86501 0.38435,1.00936 0.9834,0.41031 0.21553,-0.21554 0.46958,-0.24448 0.57981,-0.0661 0.10787,0.17453 -0.0873,0.74912 -0.43356,1.27692 l -0.62942,0.95963 -0.89762,-1.3348 c -0.4935,-0.73394 -0.98853,-1.81054 -1.10019,-2.39262 -0.0837,-0.43654 -0.10736,-0.70151 -0.0692,-0.70383 z m -1.28571,0.52762 c 0.19937,0 0.46959,0.48769 0.60048,1.08365 0.25634,1.16711 0.0261,1.82604 -0.27337,0.78238 -0.0996,-0.34725 -0.29584,-0.90895 -0.43563,-1.2485 -0.14504,-0.35231 -0.0983,-0.61753 0.10852,-0.61753 z m 31.77326,0.0455 c -0.19183,-0.002 -0.39631,0.0184 -0.56793,0.063 -0.34324,0.0894 -0.14801,0.1687 0.43408,0.1757 0.58206,0.007 0.86261,-0.0657 0.62374,-0.16227 -0.11942,-0.0484 -0.29807,-0.0741 -0.48989,-0.0765 z m 5.65753,0.3514 c -0.12255,-0.005 -0.2623,0.0173 -0.38964,0.0682 -0.28141,0.11261 -0.19755,0.19601 0.21343,0.21291 0.37182,0.0153 0.58024,-0.0678 0.46302,-0.185 -0.0586,-0.0586 -0.16425,-0.0911 -0.28681,-0.0961 z m -3.54087,10e-4 c -0.19182,-0.002 -0.39681,0.0184 -0.56844,0.063 -0.34321,0.0894 -0.14748,0.1687 0.4346,0.1757 0.58207,0.007 0.86259,-0.0662 0.62374,-0.16278 -0.11942,-0.0484 -0.29807,-0.0736 -0.4899,-0.076 z m 1.79886,0.0512 c -0.39225,-0.0295 -0.62114,0.0952 -0.5085,0.27751 v 5.1e-4 c 0.24782,0.40097 1.22163,0.44332 1.22163,0.0532 0,-0.15274 -0.32088,-0.30165 -0.71313,-0.33125 z m -32.34945,0.0372 c 0.0371,-0.0371 0.0863,0.0122 0.14263,0.15296 h -5.2e-4 c 0.10196,0.25466 0.0898,0.55923 -0.0274,0.67645 -0.11718,0.11722 -0.20081,-0.0911 -0.18551,-0.46302 0.008,-0.20549 0.0337,-0.3293 0.0708,-0.36639 z m 30.24053,0.61753 c -0.15985,0 -0.32004,0.0244 -0.44131,0.0734 -0.24253,0.0978 -0.0438,0.17828 0.44131,0.17828 0.48508,0 0.68333,-0.0804 0.4408,-0.17828 -0.12127,-0.0489 -0.28094,-0.0734 -0.4408,-0.0734 z m -26.9198,0.0894 c 0.067,0.0263 0.10904,0.0942 0.10904,0.19689 0,0.20548 0.27747,0.37579 0.61701,0.37879 0.33955,0.003 1.55577,0.29793 2.70216,0.65577 1.48146,0.46243 2.44488,0.56947 3.33158,0.36949 0.68616,-0.1547 1.40026,-0.18743 1.58647,-0.0724 0.18625,0.11509 0.23212,0.0374 0.10232,-0.1726 -0.35028,-0.56675 1.13389,-0.91422 1.74356,-0.40824 0.28845,0.23939 0.99509,0.42154 1.57045,0.40514 0.57536,-0.0164 1.04645,0.13589 1.04645,0.33797 0,0.20528 0.35123,0.27914 0.79633,0.16743 0.43817,-0.10998 1.03349,-0.0374 1.32292,0.16123 0.40511,0.27806 0.34387,0.30985 -0.26717,0.13798 -0.44514,-0.12521 -0.79375,-0.0673 -0.79375,0.13177 0,0.19521 0.71738,0.46227 1.59422,0.59376 1.02325,0.15345 1.81387,0.51887 2.20813,1.0201 0.33784,0.42949 0.79364,0.72112 1.01286,0.64802 0.21922,-0.0731 0.85275,0.28397 1.40767,0.79375 0.55495,0.50978 0.82134,0.83206 0.59221,0.71623 -0.22913,-0.11583 -0.5314,-0.0246 -0.6718,0.20258 -0.15038,0.24332 -0.10306,0.31888 0.11524,0.18396 0.51964,-0.32116 2.02912,0.9819 2.04432,1.76475 0.0173,0.889 0.93335,2.23604 1.52084,2.23604 0.29075,0 0.39905,0.21707 0.27234,0.54726 -0.12285,0.32039 -0.0625,0.45632 0.14572,0.32762 0.19587,-0.12106 0.60238,0.3691 0.90331,1.08934 0.66212,1.58465 3.3013,5.22632 3.58324,4.9444 0.11091,-0.11089 -0.0716,-0.50369 -0.40566,-0.87281 -0.39264,-0.43388 -0.47199,-0.73725 -0.22428,-0.85783 0.22349,-0.1084 0.2005,-0.15002 -0.0548,-0.0992 -0.47329,0.0942 -2.04897,-2.00624 -2.04897,-2.7311 0,-0.24362 -0.19879,-0.65908 -0.44132,-0.92345 -0.24254,-0.26438 0.11465,-0.15961 0.79375,0.23254 0.6791,0.39216 1.19703,0.88828 1.15083,1.10277 -0.049,0.22734 0.15888,0.29679 0.49868,0.1664 0.38411,-0.1474 0.49829,-0.0864 0.33435,0.1788 -0.15278,0.24727 0.10068,0.48971 0.65732,0.62942 0.69219,0.17372 0.81599,0.33539 0.52607,0.68471 -0.26389,0.31735 -0.2666,0.52704 -0.01,0.68575 0.20345,0.12573 0.37,0.0678 0.37,-0.12867 0,-0.19645 0.47645,-0.0866 1.05885,0.24391 0.58237,0.33052 0.98709,0.79106 0.89969,1.02371 -0.0875,0.23263 0.037,0.34821 0.27647,0.25631 0.61965,-0.23778 2.01305,1.16454 1.77457,1.78594 -0.10962,0.28567 -0.71825,0.84 -1.35237,1.23197 -0.89499,0.55304 -1.73564,0.70838 -3.75688,0.69298 -2.66207,-0.0203 -7.01404,-1.11045 -7.01404,-1.757 0,-0.18694 -0.11907,-0.3104 -0.26459,-0.2744 -0.58477,0.14484 -2.9564,-1.15561 -6.18722,-3.39256 -3.80031,-2.63125 -5.13542,-4.00336 -4.40644,-4.52841 0.31104,-0.22402 0.24092,-0.25638 -0.22531,-0.10386 -0.47389,0.15502 -1.02462,-0.11585 -1.83813,-0.90434 -0.63891,-0.61926 -1.07915,-1.25937 -0.97824,-1.42265 0.10092,-0.16328 10e-4,-0.29714 -0.22169,-0.29714 -0.68154,0 -1.75289,-1.5445 -1.28003,-1.84537 0.26533,-0.16882 0.19177,-0.26162 -0.20877,-0.26562 -0.33955,-0.003 -0.93486,-0.32301 -1.32292,-0.71106 -0.69123,-0.69126 -0.69152,-0.7059 -0.0207,-0.7059 0.37661,0 0.77014,-0.1378 0.87437,-0.30645 0.10424,-0.16867 -0.32294,-0.19882 -0.9493,-0.0672 -0.80129,0.16841 -1.44537,0.0554 -2.17247,-0.38086 -0.56837,-0.34099 -1.14791,-0.5489 -1.28778,-0.4625 -0.13989,0.0864 -0.22117,-0.31864 -0.18087,-0.90021 0.043,-0.62092 -0.0992,-1.05781 -0.34468,-1.05781 -0.64203,0 -1.31978,-0.94842 -0.87437,-1.2237 0.10173,-0.0629 0.19393,-0.0785 0.26097,-0.0522 z m -12.59458,0.47646 c -0.0167,0.002 -0.0284,0.012 -0.045,0.0145 0.0504,0.0406 0.0973,0.0836 0.12558,0.14004 0.0587,0.11739 -0.0587,0.27639 0,0.39378 0.0684,0.13676 0.21824,0.21282 0.32762,0.32091 0.0758,-0.0379 0.14776,-0.0698 0.19741,-0.0698 0.23867,0 0.34892,-0.2203 0.24546,-0.4899 -0.0997,-0.25989 -0.48763,-0.35131 -0.85111,-0.30954 z m 16.55403,0.13746 c 0.12255,0.005 0.22819,0.0375 0.2868,0.0961 v 5.2e-4 c 0.11723,0.11718 -0.0911,0.2003 -0.46302,0.185 -0.41097,-0.0169 -0.49432,-0.1003 -0.21291,-0.21291 0.12733,-0.051 0.26657,-0.0738 0.38913,-0.0687 z m 3.52795,0 c 0.12255,0.005 0.22819,0.0375 0.2868,0.0961 v 5.2e-4 c 0.11723,0.11718 -0.0911,0.2003 -0.46302,0.185 -0.41097,-0.0169 -0.49484,-0.1003 -0.21342,-0.21291 0.12733,-0.051 0.26708,-0.0738 0.38964,-0.0687 z m 11.28871,0 c 0.12256,0.005 0.2282,0.0375 0.28681,0.0961 v 5.2e-4 c 0.11722,0.11718 -0.0911,0.2003 -0.46302,0.185 -0.41097,-0.0169 -0.49433,-0.1003 -0.21291,-0.21291 0.12733,-0.051 0.26657,-0.0738 0.38912,-0.0687 z m 11.67113,0.003 c -0.15986,0 -0.31954,0.0244 -0.4408,0.0734 -0.24253,0.0978 -0.0443,0.17776 0.4408,0.17776 0.48507,0 0.68385,-0.0799 0.44131,-0.17776 -0.12126,-0.0489 -0.28146,-0.0734 -0.44131,-0.0734 z m -31.93139,0.16279 c 0.0462,-0.005 0.0817,0.0207 0.10181,0.0811 0.0806,0.24176 -0.013,0.63267 -0.20774,0.86868 -0.24443,0.2962 -0.14982,0.81118 0.30489,1.66346 0.36231,0.67906 0.66537,0.99694 0.67437,0.7059 0.009,-0.29104 0.3417,0.004 0.73949,0.65681 0.39778,0.65247 0.67499,1.21817 0.61599,1.25677 -0.20532,0.13434 -2.40037,-2.28894 -2.40037,-2.64997 0,-0.2 -0.1832,-0.25057 -0.40721,-0.11213 -0.25236,0.15596 -0.31151,0.0968 -0.15555,-0.15555 0.13848,-0.224 0.096,-0.40721 -0.0946,-0.40721 -0.19061,0 -0.0924,-0.50997 0.21859,-1.13326 0.2332,-0.46747 0.47163,-0.75962 0.6103,-0.77463 z m -1.33325,0.27026 c -0.0639,-0.0244 -0.15206,-0.01 -0.24908,0.0501 -0.19403,0.11991 -0.35295,0.37699 -0.35295,0.57102 0,0.19405 0.15892,0.25428 0.35295,0.13436 0.19403,-0.11991 0.35295,-0.37648 0.35295,-0.57051 0,-0.097 -0.0399,-0.16058 -0.10387,-0.185 z m 24.06313,0.27027 c 0.12255,0.005 0.2282,0.0375 0.28681,0.0961 0.11723,0.11719 -0.0911,0.2003 -0.46302,0.185 -0.41096,-0.0169 -0.49486,-0.1003 -0.21343,-0.21291 0.12733,-0.051 0.26709,-0.0732 0.38964,-0.0682 z m -19.33163,0.30903 c -0.19403,0 -0.45111,0.15892 -0.57103,0.35295 -0.11991,0.19403 -0.0592,0.35243 0.13488,0.35243 0.19402,0 0.4511,-0.1584 0.57102,-0.35243 0.11992,-0.19403 0.0591,-0.35295 -0.13487,-0.35295 z m 21.87153,0.0966 c 0.46694,-0.0149 0.59605,0.0813 0.45785,0.30489 -0.18634,0.30152 0.0975,0.35684 1.0418,0.20361 0.71362,-0.11584 1.21217,-0.0733 1.10846,0.0946 -0.1037,0.16776 0.0914,0.3606 0.43305,0.4284 h 5.1e-4 c 0.34139,0.0678 0.46263,0.21705 0.26872,0.33177 -0.19403,0.1148 -0.75,0.0838 -1.23507,-0.0687 -0.48507,-0.15259 -1.65009,-0.38115 -2.5895,-0.50798 -1.93685,-0.2615 -1.95933,-0.50081 -0.0682,-0.73536 0.23323,-0.0289 0.42675,-0.0462 0.5824,-0.0512 z m -28.99823,0.25683 c 0.33075,0.0607 0.86598,0.47071 1.36942,1.11466 0.3532,0.45176 0.36081,0.64578 0.0336,0.84801 -0.24636,0.15226 -0.33269,0.11407 -0.20567,-0.0915 0.12037,-0.19476 -0.17216,-0.56405 -0.6506,-0.82011 -0.47845,-0.25606 -0.87024,-0.59737 -0.87024,-0.75861 0,-0.2397 0.12505,-0.32892 0.3235,-0.29249 z m 42.89195,0.3328 1.41129,0.21187 c 0.77611,0.11648 1.6434,0.43831 1.92753,0.7152 0.67098,0.65393 0.20469,0.58761 -1.75132,-0.24856 z m -32.98455,0.0951 c -0.67909,-0.003 -1.63159,0.12164 -2.11666,0.27699 v -5.2e-4 c -0.71329,0.22849 -0.74737,0.28566 -0.17674,0.29766 0.38805,0.008 1.34056,-0.11646 2.11667,-0.27699 l 1.41128,-0.29197 z m 24.38353,0.062 c 0.0927,-0.004 0.17533,0.006 0.24133,0.031 0.26398,0.10128 0.73117,0.18397 1.03869,0.18397 0.3074,0 0.45821,0.10147 0.33435,0.22531 -0.12382,0.12384 -0.90466,0.27188 -1.73478,0.32918 -1.39446,0.0963 -1.45641,0.0652 -0.8139,-0.40928 0.28686,-0.21186 0.65625,-0.348 0.93431,-0.36018 z m 1.72186,0.96634 c 0.15985,0 0.31953,0.0244 0.4408,0.0734 0.24254,0.0978 0.0443,0.17776 -0.4408,0.17776 -0.48507,0 -0.68334,-0.0799 -0.4408,-0.17776 0.12126,-0.0489 0.28094,-0.0734 0.4408,-0.0734 z m -21.19612,0.35037 c -0.12256,-0.005 -0.26232,0.0173 -0.38965,0.0682 -0.28141,0.11262 -0.19754,0.19653 0.21343,0.21343 0.37192,0.0153 0.58024,-0.0683 0.46302,-0.18552 -0.0586,-0.0586 -0.16425,-0.0911 -0.2868,-0.0961 z m 24.32874,0.002 c 0.19182,0.002 0.37048,0.0282 0.4899,0.0765 0.23886,0.0966 -0.0417,0.16978 -0.62374,0.16278 -0.58208,-0.007 -0.77782,-0.0863 -0.4346,-0.1757 0.17163,-0.0447 0.37662,-0.0659 0.56844,-0.0636 z m -36.70525,0.49558 c 0.12072,0.018 0.2504,0.0657 0.38085,0.14624 h 5.2e-4 c 0.34983,0.21636 0.36994,0.45052 0.0817,0.94671 -0.36211,0.62334 -0.38367,0.62501 -0.39377,0.0217 -0.006,-0.35105 -0.16926,-0.54056 -0.36329,-0.42065 -0.19403,0.11992 -0.35295,0.0597 -0.35295,-0.13436 0,-0.39963 0.28439,-0.61375 0.64699,-0.55965 z m 11.70058,0.20825 c -0.2238,0 -0.44777,0.0223 -0.61754,0.0667 -0.33955,0.0887 -0.0616,0.16123 0.61754,0.16123 0.67906,0 0.95656,-0.0725 0.61701,-0.16123 -0.16977,-0.0444 -0.39322,-0.0667 -0.61701,-0.0667 z m 28.89797,5.2e-4 c 0.12256,0.005 0.22819,0.0375 0.28681,0.0961 0.11723,0.11719 -0.0912,0.2003 -0.46302,0.185 -0.41099,-0.0169 -0.49432,-0.1003 -0.21291,-0.21291 0.12734,-0.051 0.26657,-0.0733 0.38912,-0.0682 z m -15.64503,0.20929 c 0.0945,-0.0368 0.55593,0.17384 1.21077,0.56637 0.87313,0.52338 1.54579,1.11584 1.49449,1.3162 -0.0617,0.24104 0.14927,0.23405 0.62425,-0.0201 0.83782,-0.44838 0.65932,-0.54193 4.80901,2.53008 3.4976,2.58926 5.68049,5.2473 7.54527,9.1891 1.03311,2.18376 1.41051,5.16255 0.77928,6.15053 -0.14256,0.22311 -0.2675,-0.65018 -0.2775,-1.94045 -0.0156,-2.0346 -0.20992,-2.72049 -1.46658,-5.16816 -0.79693,-1.55222 -2.01896,-3.48248 -2.71559,-4.28914 -1.85389,-2.14669 -7.91041,-6.67166 -8.34626,-6.2358 -0.23578,0.23574 -0.20297,0.35339 0.0992,0.35347 0.70615,1.6e-4 5.91104,4.05333 7.78299,6.06113 2.02618,2.17316 4.12602,6.52491 4.39198,9.10177 0.17639,1.70906 0.11007,1.92808 -0.8878,2.92592 -1.03918,1.03937 -1.18578,1.07671 -4.01629,1.03611 -1.61566,-0.0231 -3.49274,-0.25208 -4.17184,-0.50901 -0.6791,-0.25694 -1.55239,-0.49842 -1.94045,-0.53692 -0.38806,-0.0385 -0.0707,-0.18402 0.70538,-0.32298 l 1.41129,-0.2527 -1.87069,-0.0501 c -1.71234,-0.0458 -4.64495,-1.21739 -4.65295,-1.85881 -0.001,-0.12183 1.00603,-0.01 2.23914,0.24857 2.75408,0.5773 5.17084,0.40162 7.74837,-0.56276 1.85346,-0.69348 1.96988,-0.80776 2.07222,-2.03967 0.11596,-1.39566 -0.4275,-2.59214 -1.9575,-4.3093 -0.51594,-0.57905 -0.85132,-1.05264 -0.74517,-1.05264 0.10615,0 -0.0118,-0.2218 -0.262,-0.49248 -0.25019,-0.27065 -0.57382,-0.41986 -0.71934,-0.33176 -0.14552,0.0881 -0.26458,0.003 -0.26458,-0.18966 0,-0.1924 -0.32718,-0.45392 -0.72709,-0.58084 -0.39987,-0.12692 -0.89943,-0.60857 -1.11001,-1.07073 -0.21057,-0.46215 -0.54284,-0.74155 -0.73846,-0.62064 -0.19566,0.1209 -0.24899,0.0473 -0.11885,-0.1633 0.13017,-0.2106 0.0727,-0.48388 -0.12764,-0.60771 -0.20038,-0.12383 -0.28007,-0.36195 -0.17674,-0.52917 0.10332,-0.16721 0.0227,-0.40639 -0.17931,-0.53123 -0.202,-0.12486 -0.34468,-0.0959 -0.31678,0.0641 0.16524,0.95112 -0.79773,0.57352 -1.05833,-0.41496 -0.19339,-0.7337 -0.87084,-1.2592 -1.37408,-1.06609 -0.41245,0.15828 -0.4364,0.0964 -0.11369,-0.29249 0.32539,-0.39206 0.2096,-0.61396 -0.5674,-1.08727 l -0.97617,-0.5948 0.78858,0.69092 c 0.65731,0.57568 0.69804,0.72518 0.24598,0.89865 -0.29978,0.11505 -0.44903,0.0577 -0.33383,-0.12867 0.11462,-0.18546 -0.11153,-0.53752 -0.50281,-0.78187 -0.70633,-0.44111 -0.70589,-0.44709 0.0744,-0.88676 0.71914,-0.4052 0.72568,-0.43612 0.0801,-0.36122 -0.38806,0.045 -0.75872,-0.0768 -0.82372,-0.27079 -0.065,-0.19403 -0.30313,-0.58103 -0.52917,-0.85989 -0.0565,-0.0697 -0.0656,-0.10968 -0.0341,-0.12196 z m -15.72256,0.0997 c -0.36515,0 -0.76221,0.15892 -0.88212,0.35295 -0.12755,0.20638 0.23864,0.35243 0.88212,0.35243 0.64349,0 1.00966,-0.14605 0.88212,-0.35243 -0.11992,-0.19403 -0.51696,-0.35295 -0.88212,-0.35295 z m 33.13183,0.0434 c 0.12255,0.005 0.22767,0.0375 0.28629,0.0961 0.11723,0.11719 -0.0912,0.20082 -0.46303,0.18552 -0.41098,-0.0169 -0.49431,-0.10029 -0.2129,-0.21291 0.12733,-0.051 0.26708,-0.0738 0.38964,-0.0687 z m -41.49411,0.30024 c 0.19174,-0.0779 0.5946,0.18864 0.74828,0.58912 0.12193,0.31881 0.17867,0.62002 0.12557,0.66972 -0.12462,0.11663 -0.97824,-0.8069 -0.97824,-1.05833 0,-0.11016 0.0405,-0.17455 0.10439,-0.20051 z m 11.53728,0.0522 c -0.22379,0 -0.44776,0.0223 -0.61753,0.0667 -0.33955,0.0887 -0.0616,0.16123 0.61753,0.16123 0.67906,0 0.95708,-0.0725 0.61753,-0.16123 -0.16977,-0.0444 -0.39374,-0.0667 -0.61753,-0.0667 z m 8.64288,0.0827 c -1.09428,-0.0632 -1.12736,0.15113 -0.0879,0.56896 0.43657,0.17548 0.8331,0.32928 0.8816,0.34158 0.0485,0.0123 0.088,-0.17656 0.0878,-0.4191 -1.4e-4,-0.24253 -0.39666,-0.46344 -0.8816,-0.49144 z m -18.66707,1.0759 c 0.0403,-0.012 0.0844,-0.005 0.13074,0.0238 0.18554,0.11468 0.24831,0.44123 0.13901,0.72606 -0.27983,0.72923 -0.47594,0.64355 -0.47594,-0.20826 0,-0.29963 0.0852,-0.50568 0.20619,-0.54157 z m 10.6872,0.25477 c -0.19182,-0.002 -0.3963,0.0183 -0.56792,0.063 -0.34324,0.0895 -0.148,0.1687 0.43408,0.1757 0.58207,0.007 0.86257,-0.0662 0.62373,-0.16278 -0.11942,-0.0483 -0.29807,-0.0736 -0.48989,-0.076 z m -9.38547,1.08572 c 0.0551,0.017 0.13027,0.0927 0.21239,0.22221 0.16424,0.25911 0.4395,0.44491 0.61184,0.41341 0.17233,-0.0316 0.47208,0.23303 0.66611,0.58756 0.44516,0.8134 0.94398,1.17688 1.30638,0.95291 0.15479,-0.0957 0.28112,-0.0242 0.28112,0.15865 0,0.18285 0.33811,0.4211 0.75138,0.52917 0.53249,0.13926 0.68462,0.37101 0.52141,0.79633 -0.19337,0.50391 -0.14416,0.5289 0.30696,0.15451 0.36759,-0.30509 0.53692,-0.32106 0.53692,-0.0501 0,0.21778 0.11906,0.37083 0.26458,0.34003 0.75346,-0.15949 1.50817,0.54295 1.33687,1.24437 -0.10099,0.41359 -0.0928,0.55363 0.0186,0.31109 0.30513,-0.66436 0.98395,-0.53433 2.06705,0.39636 0.73003,0.62724 0.91484,1.02716 0.73536,1.59267 -0.13181,0.41529 -0.37343,0.67258 -0.53692,0.57154 -0.16349,-0.10104 -0.37961,0.0157 -0.48007,0.25941 -0.10046,0.24375 -0.0946,-0.11258 0.0129,-0.79168 0.17747,-1.12113 0.14928,-1.17498 -0.30696,-0.58549 -0.45629,0.58954 -0.54561,0.59781 -0.96842,0.0884 -0.25608,-0.30857 -0.70103,-0.5612 -0.98908,-0.5612 -0.32832,0 -0.44541,-0.20398 -0.31368,-0.54726 0.12777,-0.33299 0.0643,-0.45729 -0.16226,-0.31729 -0.20487,0.12662 -0.45932,-0.10156 -0.56534,-0.50695 -0.10601,-0.4054 -0.3114,-0.66372 -0.45631,-0.57412 -0.14491,0.0896 -0.84104,-0.41522 -1.54719,-1.12138 -0.70616,-0.70616 -1.28416,-1.14924 -1.28416,-0.98495 0,0.1643 -0.47624,-0.2348 -1.05833,-0.88677 -0.58208,-0.65198 -1.05565,-1.35562 -1.05265,-1.56321 0.001,-0.10378 0.0364,-0.14514 0.0915,-0.12816 z m 24.34838,1.11776 c 0.0639,-0.0282 0.15207,-0.0155 0.24908,0.0444 0.19403,0.11991 0.35295,0.28802 0.35295,0.37362 0,0.0856 -0.15892,0.15555 -0.35295,0.15555 -0.19402,0 -0.35295,-0.16815 -0.35295,-0.37362 0,-0.10274 0.0399,-0.17179 0.10387,-0.19999 z m 4.12946,1.27899 c -0.0182,0.0182 0.0886,0.16156 0.308,0.44132 0.46086,0.58764 0.75034,0.77404 0.75034,0.48369 0,-0.0733 -0.27747,-0.35073 -0.61702,-0.61702 -0.27977,-0.2194 -0.42311,-0.3262 -0.44132,-0.30799 z m -1.23455,0.29456 1.05834,0.9095 c 1.08532,0.93255 1.23455,1.02423 1.23455,0.76016 0,-0.0838 -0.5156,-0.49375 -1.14619,-0.91105 z m -3.5233,0.22582 c 0.0592,-0.0247 0.17273,-0.01 0.3297,0.0507 0.30112,0.11555 0.54777,0.27251 0.54777,0.34881 0,0.28572 -0.67236,0.1249 -0.87953,-0.21032 -0.0618,-0.1 -0.0571,-0.16441 0.002,-0.18914 z m 5.99292,0.36174 0.85525,0.96997 c 0.79935,0.90675 1.08468,1.13191 1.08468,0.85524 0,-0.0632 -0.43638,-0.49959 -0.96996,-0.96997 z m -20.83387,0.60771 c 0.097,-0.097 0.34391,0.26418 0.5488,0.80306 0.20513,0.53889 0.29337,1.05951 0.19637,1.15651 -0.097,0.097 -0.34391,-0.26467 -0.5488,-0.80356 -0.20513,-0.53889 -0.29337,-1.05901 -0.19637,-1.15601 z m -1.15962,2.22054 c -0.0351,-0.004 -0.0738,0.005 -0.1142,0.03 -0.16169,0.0999 -0.29404,0.3311 -0.29404,0.51367 0,0.18258 0.13235,0.33228 0.29404,0.33228 0.16169,0 0.29404,-0.23116 0.29404,-0.51367 0,-0.21191 -0.0744,-0.34916 -0.17984,-0.36225 z m 4.07469,0.46871 c 0.18481,0.0388 0.48993,0.20528 0.97048,0.51159 0.67089,0.42763 1.22655,0.976 1.23455,1.21853 0.0183,0.53951 -0.21691,0.56888 -0.52762,0.0661 -0.12731,-0.206 -0.61278,-0.51935 -1.079,-0.6966 -0.46622,-0.17726 -0.84801,-0.55696 -0.84801,-0.84388 0,-0.20551 0.0648,-0.29456 0.2496,-0.25579 z m 15.09623,0.0543 c -0.31398,0 -0.47234,0.15892 -0.35243,0.35295 0.11991,0.19403 0.27833,0.35243 0.35243,0.35243 0.0741,0 0.23304,-0.1584 0.35295,-0.35243 0.11991,-0.19403 -0.039,-0.35295 -0.35295,-0.35295 z m -16.66461,0.21239 0.83561,0.97203 c 0.45974,0.53452 0.83612,0.79456 0.83612,0.57826 0,-0.21628 0.16771,-0.28919 0.3731,-0.16226 0.21123,0.13056 0.28432,0.71399 0.16795,1.34358 l -0.18655,1.01079 c -0.12749,-0.12916 -0.24591,-0.31794 -0.34882,-0.58859 -0.19635,-0.51647 -0.51616,-0.84102 -0.71055,-0.72089 -0.19665,0.12154 -0.35615,-0.1426 -0.35915,-0.59583 -0.004,-0.63988 -0.0755,-0.70324 -0.33331,-0.29559 -0.46451,0.73456 -0.83338,0.21952 -0.52917,-0.73897 z m 22.7521,1.34617 c -0.098,-0.0231 -0.20473,-0.009 -0.29663,0.0475 -0.18382,0.11358 -0.24123,0.35726 -0.12764,0.54105 0.11359,0.18383 0.35674,0.24072 0.54054,0.12713 0.18383,-0.11358 0.24124,-0.35675 0.12764,-0.54054 -0.0568,-0.0919 -0.14592,-0.15206 -0.24391,-0.17518 z m -19.68459,0.71313 c 0.0526,0.0101 0.10103,0.051 0.14521,0.12248 0.14551,0.23543 0.1452,0.62666 -5.1e-4,0.86919 -0.20535,0.34184 -0.15041,0.3486 0.24391,0.0305 0.39549,-0.31906 0.67198,-0.2782 1.24282,0.18449 0.63737,0.51661 0.68408,0.74094 0.35295,1.69808 -0.40479,1.1701 -0.73102,1.06418 -1.57407,-0.51108 -0.24252,-0.45315 -0.61445,-0.6781 -0.92449,-0.55913 -0.18209,0.0699 -0.35307,0.0188 -0.50953,-0.13023 l 0.43357,-0.96428 c 0.23567,-0.5237 0.43221,-0.77024 0.59014,-0.74001 z m 1.80971,0.28939 c 0.0142,-0.0213 0.20593,0.0696 0.58704,0.25425 0.43657,0.21156 0.79375,0.45809 0.79375,0.54828 0,0.26995 -0.18302,0.19218 -0.90278,-0.38447 -0.32879,-0.26342 -0.49217,-0.39675 -0.47801,-0.41806 z m -0.45372,0.9896 c -0.0494,-0.01 -0.1348,0.10168 -0.28215,0.3297 -0.18809,0.29104 -0.34479,0.65796 -0.34779,0.81494 -0.003,0.157 0.15376,0.18709 0.34779,0.0672 0.19402,-0.11992 0.35026,-0.48633 0.34726,-0.81442 -0.002,-0.25706 -0.0157,-0.38781 -0.0651,-0.3974 z m 1.4888,1.08211 c 0.12354,0.0252 0.26848,0.18232 0.49661,0.48421 0.29254,0.38711 0.53712,0.98182 0.54312,1.32136 0.015,0.82733 -0.36324,0.78583 -0.5855,-0.0641 -0.10591,-0.40502 -0.37885,-0.60425 -0.67282,-0.49144 -0.569,0.21835 -0.63212,-0.17923 -0.14986,-0.94206 0.14302,-0.22623 0.2449,-0.33318 0.36845,-0.30799 z m 16.67185,1.14515 c 0.0371,-0.0371 0.0863,0.0122 0.14263,0.15296 0.10185,0.25466 0.0893,0.55922 -0.0279,0.67644 -0.11721,0.11723 -0.20072,-0.0911 -0.18552,-0.46302 0.008,-0.20548 0.0337,-0.32929 0.0708,-0.36638 z m -15.05748,0.21962 c 0.55203,0 1.91397,1.70991 1.94717,2.44481 0.027,0.59785 0.0957,0.69603 0.20205,0.28888 0.21323,-0.81592 0.54422,-0.77937 1.10743,0.12247 0.25414,0.40695 0.55551,0.6465 0.66973,0.53227 0.27604,-0.27603 1.15628,0.47152 1.14928,0.97616 -0.003,0.21878 -0.15919,0.15979 -0.34727,-0.13125 -0.22799,-0.35278 -0.34326,-0.38235 -0.34726,-0.0884 -0.003,0.24253 -0.12475,0.42819 -0.27027,0.41289 -0.66739,-0.0702 -1.14618,-0.42267 -1.14618,-0.84387 0,-0.25332 -0.26632,-0.43876 -0.5917,-0.41186 -0.32539,0.0269 -0.96055,-0.49052 -1.41128,-1.1498 -0.68374,-1.00012 -0.81959,-1.0763 -0.81959,-0.46147 0,0.4053 -0.12169,0.81213 -0.27078,0.90433 -0.14934,0.0921 -0.21203,-0.45409 -0.13953,-1.21388 0.0725,-0.75979 0.193,-1.38131 0.2682,-1.38131 z m 13.99915,0.13333 c 0.0371,-0.0371 0.0863,0.0122 0.14262,0.15296 0.10185,0.25466 0.0893,0.55922 -0.0279,0.67644 -0.11722,0.11723 -0.20072,-0.0911 -0.18552,-0.46302 0.008,-0.20548 0.0337,-0.32929 0.0708,-0.36638 z m -0.7612,0.39687 c 0.19329,-0.002 0.31006,0.12674 0.31006,0.36277 0,0.57058 -0.55155,0.70016 -0.85938,0.20206 -0.10735,-0.17369 0.0418,-0.40707 0.33176,-0.51832 0.0801,-0.0307 0.15313,-0.0458 0.21756,-0.0465 z m -5.68751,0.17519 c 0.19403,0 0.35295,0.1584 0.35295,0.35243 0,0.19402 -0.15892,0.35295 -0.35295,0.35295 -0.19403,0 -0.35243,-0.15893 -0.35243,-0.35295 0,-0.19403 0.1584,-0.35243 0.35243,-0.35243 z m 0.80926,0.13229 c 0.0639,-0.0282 0.15206,-0.016 0.24908,0.0439 0.19403,0.11991 0.35295,0.28802 0.35295,0.37362 0,0.0856 -0.15892,0.15555 -0.35295,0.15555 -0.19403,0 -0.35244,-0.16814 -0.35244,-0.37362 0,-0.10273 0.0394,-0.17127 0.10336,-0.19947 z m 1.44435,0.003 c 0.1265,0.006 0.21601,0.14675 0.21601,0.37362 0,0.30249 -0.15893,0.54984 -0.35295,0.54984 -0.19403,0 -0.35243,-0.14919 -0.35243,-0.33176 0,-0.18258 0.1584,-0.43045 0.35243,-0.55036 0.0485,-0.03 0.0948,-0.0432 0.13694,-0.0413 z m 1.34979,0.0191 c 0.18626,-0.0214 0.2608,0.0712 0.19637,0.26459 -0.17579,0.52733 -0.9772,0.81767 -0.9772,0.35398 0,-0.18944 0.25135,-0.44071 0.55862,-0.55862 0.0859,-0.033 0.16012,-0.0528 0.22221,-0.0599 z m 7.16907,1.39733 c -0.10752,0.0255 -0.24327,0.20105 -0.34261,0.46199 -0.19146,0.50278 -0.151,0.54322 0.1974,0.1974 0.24109,-0.2393 0.34943,-0.52391 0.24081,-0.63252 -0.0272,-0.0272 -0.0598,-0.0354 -0.0956,-0.0269 z m -5.1573,0.9617 c -0.12256,-0.005 -0.26231,0.0173 -0.38965,0.0682 -0.2814,0.11261 -0.19756,0.19601 0.21343,0.21291 0.37182,0.0153 0.58025,-0.0678 0.46302,-0.185 -0.0586,-0.0586 -0.16425,-0.0911 -0.2868,-0.0961 z m -5.64462,0.35243 c -0.12256,-0.005 -0.26179,0.0178 -0.38913,0.0687 v -5.1e-4 c -0.2814,0.11261 -0.19807,0.19652 0.21291,0.21342 0.37182,0.0153 0.58025,-0.0683 0.46302,-0.18552 -0.0586,-0.0586 -0.16425,-0.0911 -0.2868,-0.0961 z m -1.07229,1.22784 c 0.18107,0.006 0.59387,0.12966 1.33119,0.37465 0.94114,0.31271 1.96176,0.78479 2.26808,1.04903 0.59623,0.51429 1.17956,0.6527 0.90743,0.21549 -0.0906,-0.14551 1.26421,-0.21308 3.01067,-0.15038 1.74646,0.0627 3.10429,0.18544 3.01739,0.27234 -0.0869,0.0869 -1.57047,0.21042 -3.29644,0.27492 -2.54215,0.0949 -3.35569,-0.006 -4.28449,-0.52969 -0.63059,-0.35571 -1.14619,-0.55091 -1.14619,-0.43408 0,0.11683 -0.21349,0.0358 -0.47387,-0.18035 -0.26039,-0.21606 -0.55525,-0.31138 -0.65526,-0.21136 -0.10001,0.10002 -0.37894,-0.0556 -0.62011,-0.34623 -0.18895,-0.22767 -0.23946,-0.34006 -0.0584,-0.33434 z" /></g></svg>
