<?xml version="1.0" encoding="UTF-8" standalone="no"?>
<!-- Created with Inkscape (http://www.inkscape.org/) -->

<svg
   width="36.048004mm"
   height="45.155914mm"
   viewBox="0 0 36.048004 45.155914"
   version="1.1"
   id="svg5"
   xml:space="preserve"
   xmlns:inkscape="http://www.inkscape.org/namespaces/inkscape"
   xmlns:sodipodi="http://sodipodi.sourceforge.net/DTD/sodipodi-0.dtd"
   xmlns="http://www.w3.org/2000/svg"
   xmlns:svg="http://www.w3.org/2000/svg"><sodipodi:namedview
     id="namedview7"
     pagecolor="#ffffff"
     bordercolor="#666666"
     borderopacity="1.0"
     inkscape:showpageshadow="2"
     inkscape:pageopacity="0.0"
     inkscape:pagecheckerboard="0"
     inkscape:deskcolor="#d1d1d1"
     inkscape:document-units="mm"
     showgrid="false"
     inkscape:zoom="0.6480467"
     inkscape:cx="2735.914"
     inkscape:cy="195.97353"
     inkscape:window-width="1440"
     inkscape:window-height="900"
     inkscape:window-x="0"
     inkscape:window-y="0"
     inkscape:window-maximized="0"
     inkscape:current-layer="layer1" /><defs
     id="defs2" /><g
     inkscape:label="Livello 1"
     inkscape:groupmode="layer"
     id="layer1"
     transform="translate(-304.35386,382.18651)"><path
       id="path8971"
       style="fill:#D2D9DE;stroke-width:0.352778"
       d="m 323.9501,-382.18646 c -0.23081,0 -1.15291,0.79409 -2.04948,1.76423 -1.72237,1.86371 -2.11667,2.09354 -2.11667,1.23455 0,-0.29104 -0.15892,-0.52917 -0.35295,-0.52917 -0.19403,0 -0.35295,0.24289 -0.35295,0.54002 0,0.29714 -0.21997,0.62526 -0.48938,0.72864 -0.3215,0.12338 -0.57219,1.06481 -0.72915,2.73988 -0.13153,1.40365 -0.38347,2.78227 -0.55966,3.0639 -0.20078,0.32092 -0.23694,-0.19994 -0.0971,-1.39526 0.16028,-1.37049 0.11104,-1.83818 -0.17415,-1.66192 -0.22497,0.13893 -0.32251,0.73656 -0.22531,1.37821 0.12341,0.81485 0.0882,0.94128 -0.1266,0.45062 -0.22617,-0.51655 -0.36748,-0.57085 -0.58136,-0.22479 -0.15535,0.25135 -0.12803,0.55831 0.061,0.68213 0.18901,0.12383 0.45351,0.67272 0.58756,1.22008 0.51704,2.11131 1.5289,0.41577 1.5937,-2.67064 0.0193,-0.92163 0.19407,-1.67587 0.38809,-1.67587 0.19403,0 0.3578,-0.43639 0.3638,-0.96996 0.0102,-0.87938 0.0549,-0.91267 0.47749,-0.35605 0.4431,0.58358 0.49158,0.58358 0.9772,0 0.28105,-0.33774 0.94135,-1.28895 1.46761,-2.11357 0.52626,-0.82462 1.11356,-1.49913 1.30483,-1.49913 0.4842,0 0.45933,0.0859 -0.52968,1.81591 -1.0984,1.92137 -1.16662,2.92583 -0.18087,2.66805 0.38806,-0.10146 0.70538,-0.0791 0.70538,0.0501 0,0.12919 -0.31732,0.43306 -0.70538,0.67541 -0.86616,0.54096 -0.91746,1.1405 -0.0977,1.1405 0.40104,0 0.011,0.52678 -1.1467,1.54926 -0.96483,0.85214 -1.8811,1.47306 -2.03605,1.37976 -0.15498,-0.0933 -0.1165,-0.36873 0.0853,-0.61185 0.20172,-0.24311 0.24926,-0.55948 0.10542,-0.70332 -0.14383,-0.14384 -0.0478,-0.20888 0.21342,-0.14418 0.26118,0.0647 0.62143,-0.26166 0.80047,-0.72502 0.26724,-0.69162 0.2391,-0.77099 -0.15503,-0.4439 -0.26404,0.21909 -0.57122,0.30677 -0.68316,0.19482 -0.59684,-0.59683 -1.12021,1.89039 -1.29863,6.17224 l -0.19689,4.72736 -1.16169,-0.97927 c -0.63877,-0.53845 -1.07927,-1.06116 -0.97875,-1.16169 0.10052,-0.10052 0.41091,0.007 0.68937,0.23771 0.95073,0.78907 0.90495,-0.21305 -0.0486,-1.06246 -0.52169,-0.46476 -0.75114,-0.58561 -0.50953,-0.26872 0.35761,0.46903 0.34176,0.61366 -0.0858,0.77773 -0.31349,0.12029 -0.81496,-0.16685 -1.24385,-0.7121 -0.82144,-1.04429 -0.96947,-1.81842 -0.23048,-1.2051 0.87386,0.72523 0.95977,-0.56298 0.18655,-2.79724 -0.39907,-1.15315 -0.62385,-2.41648 -0.49971,-2.80758 0.13005,-0.40977 0.0661,-0.71107 -0.15089,-0.71107 -0.54771,0 -0.46105,1.93766 0.15244,3.40599 0.70061,1.6768 0.66768,1.97792 -0.1602,1.4609 -0.37924,-0.2368 -0.79771,-0.32264 -0.92966,-0.19069 -0.5,0.50001 0.67913,2.33777 3.08147,4.80281 2.38684,2.44912 2.47967,2.60733 2.24793,3.84266 -0.16286,0.86809 -0.865,1.96179 -2.15233,3.35225 -1.05081,1.135 -1.91031,2.25312 -1.90996,2.4846 3.5e-4,0.23147 0.86603,-0.53186 1.92391,-1.69602 1.05789,-1.16417 1.93094,-1.95249 1.93994,-1.75183 0.0186,0.41942 -3.83131,4.31162 -4.00079,4.04471 -0.16428,-0.25872 -3.05496,2.42035 -2.95073,2.73472 0.0486,0.1467 -0.62601,1.17652 -1.49913,2.28823 -0.87313,1.11171 -2.1927,3.17487 -2.93264,4.58473 -0.73993,1.40987 -1.23569,2.16663 -1.10122,1.68156 0.47797,-1.72413 1.92536,-4.20649 3.68556,-6.32158 1.78077,-2.13982 2.01123,-2.83631 0.45475,-1.37408 l -0.82113,0.77153 0.38447,-1.10381 c 0.21161,-0.60702 0.60878,-1.28943 0.88263,-1.5167 0.27389,-0.22728 0.41243,-0.5521 0.30748,-0.72192 -0.10496,-0.16986 0.0212,-0.22724 0.2806,-0.12764 0.63694,0.24442 2.1216,-1.17462 1.78852,-1.70946 -0.14392,-0.23097 -0.21266,-0.79795 -0.15296,-1.25987 0.0947,-0.73266 -0.002,-0.81196 -0.75809,-0.62218 -0.84926,0.21315 -0.86086,0.18726 -0.57465,-1.27693 0.16066,-0.8219 0.4463,-2.01059 0.63459,-2.64118 0.20098,-0.67299 0.2096,-1.14618 0.0212,-1.14618 -0.46034,0 -1.63939,2.43825 -2.13941,4.42402 -0.36611,1.45393 -0.4683,1.58729 -0.71158,0.92965 -0.36065,-0.97495 -0.60108,-0.96901 -1.00097,0.0258 -0.3067,0.76298 -0.32009,0.75632 -0.34159,-0.17621 -0.0123,-0.53358 -0.18115,-0.96997 -0.37517,-0.96997 -0.57884,0 -0.40126,2.21741 0.35295,4.40955 0.98065,2.8503 0.90073,3.63641 -0.67024,6.58771 -1.46696,2.7559 -2.29383,5.31957 -2.68304,8.31732 -0.13398,1.03224 -0.10081,1.85209 0.0749,1.85209 0.64378,0 1.16169,-0.88058 1.16169,-1.97404 0,-1.99385 1.36592,-5.62758 3.1197,-8.30027 1.95985,-2.98673 4.97529,-5.95364 6.05131,-5.95364 1.33856,0 3.33662,1.31841 4.49172,2.96364 0.6266,0.89246 1.3649,1.62264 1.64073,1.62264 0.27582,0 0.79516,0.71362 1.15393,1.58595 0.69691,1.6945 1.28128,1.89292 1.48001,0.50281 0.0672,-0.46988 0.34516,-0.9812 0.61754,-1.13636 0.80213,-0.45694 0.57227,-1.54546 -0.6103,-2.89233 -0.60791,-0.69236 -1.01788,-1.34634 -0.91106,-1.45315 0.10681,-0.10682 0.84726,-0.28155 1.64538,-0.3886 0.79812,-0.10705 1.38026,-0.26615 1.29346,-0.35295 -0.0868,-0.0868 -0.23379,-0.10501 -0.32659,-0.0403 -0.0928,0.0647 -0.54015,-0.19951 -0.99374,-0.58756 -0.60878,-0.52084 -0.69966,-0.5441 -0.34675,-0.0884 0.28776,0.37159 0.32915,0.61754 0.10335,0.61754 -0.20634,0 -0.47998,-0.16902 -0.60771,-0.37569 -0.22619,-0.36599 -1.57303,0.54721 -1.57303,1.0666 0,0.12604 0.55545,0.83576 1.23455,1.57716 1.11216,1.2142 1.75587,3.03444 0.88211,2.49443 -0.19403,-0.11992 -0.35295,-0.44698 -0.35295,-0.72657 0,-0.27959 -0.17668,-0.5085 -0.39274,-0.5085 -0.26701,0 -0.31499,0.52058 -0.14934,1.62522 0.32128,2.14241 -0.27337,1.77283 -1.05989,-0.65887 -0.32874,-1.01636 -0.82096,-2.08403 -1.09347,-2.37247 -0.42912,-0.45421 -0.46419,-0.35988 -0.26252,0.70539 l 0.23307,1.2299 -1.36995,-1.76372 c -0.75333,-0.97014 -1.37049,-1.92265 -1.37149,-2.11667 -9.9e-4,-0.19403 -0.22639,-0.35295 -0.50126,-0.35295 -0.27487,0 -0.56619,-0.19827 -0.64699,-0.4408 -0.10316,-0.30948 0.32932,-0.4408 1.45004,-0.4408 1.25028,0 1.71614,0.17006 2.14612,0.78393 0.30204,0.43133 0.54881,0.62162 0.54881,0.42323 0,-0.1984 -0.17851,-0.5392 -0.39688,-0.75757 -0.29419,-0.29421 -0.0886,-0.39001 0.79375,-0.37001 0.65493,0.0149 1.48994,-0.10142 1.85519,-0.25838 0.40954,-0.176 0.95008,-0.107 1.41076,0.17984 0.68216,0.42475 0.70439,0.41356 0.2558,-0.12919 -0.27019,-0.32691 -0.36723,-0.70977 -0.21601,-0.8506 0.15123,-0.14083 0.34542,-0.0575 0.43202,0.185 0.0866,0.24254 0.32289,0.4408 0.52451,0.4408 0.23708,0 0.22486,-0.17012 -0.0341,-0.48214 -0.30284,-0.36494 -0.28144,-0.58141 0.0884,-0.88832 0.53227,-0.44174 1.6366,-0.1802 1.6366,0.38758 0,0.19398 -0.24139,0.26017 -0.53692,0.14676 -0.43838,-0.16822 -0.46893,-0.0777 -0.16433,0.49144 0.26374,0.4928 0.75838,0.70584 1.68413,0.72554 1.36694,0.029 1.30405,0.0992 -0.45372,0.51056 -0.93626,0.2191 -0.9766,0.27821 -0.35243,0.51005 0.83693,0.31087 2.29288,-0.26603 2.29288,-0.90847 0,-0.27974 -0.57102,-0.49359 -1.49706,-0.56069 l -1.49707,-0.10852 1.84898,-1.18288 c 1.01688,-0.65045 2.32066,-1.77849 2.8975,-2.50682 1.13898,-1.43807 1.93927,-3.18947 1.45728,-3.18947 -0.40004,0 -1.13401,0.89947 -0.91364,1.11983 0.0953,0.0953 -0.0645,0.17363 -0.35554,0.17363 -0.29104,0 -0.53023,-0.17221 -0.53123,-0.38241 -9.6e-4,-0.21018 -0.35815,0.0183 -0.79375,0.50747 -0.43561,0.4891 -0.67262,0.73514 -0.5271,0.54673 0.14552,-0.1884 0.26458,-0.4704 0.26458,-0.62683 0,-0.47786 -2.97106,1.83467 -3.41116,2.65513 -0.22682,0.42284 -0.584,0.78857 -0.79375,0.81287 -0.20975,0.0243 -0.54951,0.0641 -0.75499,0.0884 -0.20553,0.0242 -0.28216,0.19197 -0.17053,0.37259 0.11163,0.18062 0.0168,0.44303 -0.21033,0.58343 -0.25792,0.15942 -0.31844,0.10244 -0.16123,-0.15193 0.15065,-0.24376 0.0228,-0.40721 -0.31884,-0.40721 -0.34159,0 -0.47002,0.16345 -0.31936,0.40721 0.14878,0.24069 0.0979,0.31192 -0.12506,0.17415 -0.20744,-0.1282 -0.44114,-0.0412 -0.51934,0.19327 -0.15097,0.4529 -2.03502,0.70502 -2.03502,0.27233 0,-0.46129 0.86989,-0.95858 1.49913,-0.85679 0.33955,0.0549 0.61753,-0.0191 0.61753,-0.16485 0,-0.14571 0.40777,-0.45052 0.90589,-0.67748 0.49812,-0.22696 2.0206,-1.24501 3.38377,-2.26188 1.36318,-1.01685 2.58295,-1.81967 2.71043,-1.78387 0.12749,0.0358 0.43719,-0.28157 0.68782,-0.70538 0.4479,-0.75739 0.45189,-0.75526 0.24133,0.11162 -0.16544,0.68112 -0.13006,0.7611 0.15606,0.35243 0.97117,-1.38714 -0.092,-1.94726 -1.23972,-0.65319 -0.36962,0.41675 -1.8165,1.60867 -3.21531,2.64894 -3.62548,2.69618 -5.13592,3.15638 -3.90829,1.19062 0.63678,-1.01965 0.0422,-1.30235 -0.89245,-0.42426 -0.95875,0.90069 -1.29914,0.96273 -1.29914,0.23668 0,-0.8044 -0.83694,-0.63358 -1.77199,0.36173 -0.4604,0.49008 -1.27997,1.11189 -1.82108,1.38183 -0.88881,0.4434 -0.82846,0.30025 0.62426,-1.48311 1.71652,-2.10722 2.61217,-3.68673 3.30315,-5.82291 0.23642,-0.73088 0.95168,-1.88165 1.58905,-2.55746 1.56908,-1.6637 3.46271,-1.72895 4.95577,-0.17053 1.79632,1.87495 2.32455,1.24447 1.40302,-1.67535 -0.19586,-0.62058 -0.11279,-0.79375 0.38034,-0.79375 0.3469,0 0.92194,0.26329 1.27796,0.58549 0.84521,0.76491 1.10758,0.45936 0.64647,-0.75344 -0.32836,-0.86366 -0.30013,-0.94122 0.25476,-0.70073 0.34316,0.14873 1.16143,0.34538 1.8185,0.43718 1.30398,0.18212 1.29358,-0.078 -0.0641,-1.58699 -0.95794,-1.06469 -0.29966,-1.86241 1.53737,-1.86241 1.34459,0 2.07341,-0.45855 1.39475,-0.87799 -0.6484,-0.40073 -0.37583,-0.79414 0.6997,-1.00924 1.12525,-0.22505 1.42648,-1.07083 0.50694,-1.42368 -0.76002,-0.29165 -0.35742,-0.80419 1.29346,-1.64641 1.89605,-0.96729 1.45515,-1.5408 -0.96583,-1.25626 -1.73428,0.20383 -1.89291,0.16349 -1.89291,-0.48576 0,-0.82383 -0.7829,-0.93648 -1.39371,-0.2005 -0.23197,0.27957 -0.64161,0.42358 -0.91054,0.32039 -0.29791,-0.11432 -0.76127,0.273 -1.18597,0.99116 -1.20236,2.03318 -2.66581,3.87728 -2.78743,3.51244 -0.0642,-0.19259 0.15519,-0.76489 0.48731,-1.27175 0.47351,-0.72267 0.51106,-1.01302 0.17467,-1.34462 -0.33415,-0.32939 -0.54793,-0.26694 -0.96739,0.28267 -0.49379,0.64699 -0.51774,0.51887 -0.28938,-1.54203 0.20138,-1.8174 0.15707,-2.21731 -0.23152,-2.09083 -0.2643,0.086 -0.73549,0.68745 -1.04696,1.33687 -0.51572,1.07526 -0.59936,1.1222 -0.93586,0.5209 -0.30186,-0.53939 -0.41228,-0.27604 -0.60306,1.43919 -0.36832,3.31139 -0.90729,5.77092 -1.32085,6.0265 -0.25446,0.15727 -0.30526,-0.0738 -0.15297,-0.69918 0.12515,-0.51391 0.3258,-1.33372 0.44597,-1.82159 0.16465,-0.66839 0.0976,-0.84045 -0.27182,-0.69867 -0.39861,0.15297 -0.46497,-0.30765 -0.35605,-2.46445 0.0903,-1.78787 0.006,-2.65255 -0.25735,-2.65255 -0.21524,0 -0.3917,0.15892 -0.3917,0.35295 0,0.19403 -0.15841,0.35244 -0.35244,0.35244 -0.19403,0 -0.35295,-0.38731 -0.35295,-0.86093 0,-0.47362 0.15892,-0.95909 0.35295,-1.07901 0.49249,-0.30439 0.44182,-1.23506 -0.0672,-1.23506 z m 5.22398,2.24275 c 0.11101,-0.007 0.0687,0.3639 -0.0672,1.2852 -0.12875,0.87313 -0.3725,1.64008 -0.54209,1.70428 -0.16961,0.0642 -0.12912,0.45114 0.0899,0.86042 l 0.39791,0.74414 0.65732,-0.81132 c 0.36149,-0.44642 0.65732,-0.63566 0.65732,-0.42013 0,0.36489 -0.53763,0.94858 -1.93269,2.09806 -0.4518,0.37226 -0.48369,0.57839 -0.15142,0.97875 0.2318,0.27892 0.3384,0.58971 0.23772,0.6904 -0.1007,0.1007 -0.27682,-0.0618 -0.39171,-0.36122 -0.11489,-0.29941 -0.45218,-0.54467 -0.74931,-0.54467 -0.29713,0 -0.54054,-0.1584 -0.54054,-0.35243 0,-0.19402 0.14149,-0.35295 0.3142,-0.35295 0.17273,0 0.23606,-0.58001 0.14056,-1.28881 -0.12746,-0.94578 -0.0236,-1.37293 0.39119,-1.60507 0.31088,-0.17397 0.56534,-0.59556 0.56534,-0.93689 0,-0.34133 0.24529,-0.92872 0.54518,-1.30535 0.18986,-0.23845 0.31167,-0.37834 0.37828,-0.38241 z m 6.49831,0.60668 c 0.15108,0.0372 0.19346,0.28033 0.0791,0.71779 -0.1779,0.68031 -0.0911,0.72417 1.00304,0.50798 l 1.19786,-0.23668 -1.05833,0.70538 c -0.58208,0.38795 -1.19916,0.7016 -1.3715,0.6966 -0.17232,-0.005 -0.46085,0.20288 -0.64078,0.46199 -0.21969,0.31644 -0.24879,0.19594 -0.0894,-0.3669 0.1614,-0.56994 0.11218,-0.76053 -0.15348,-0.59635 -0.21482,0.13276 -0.39068,0.0541 -0.39068,-0.17518 0,-0.31822 -0.11995,-0.31739 -0.50798,0.005 -0.27953,0.23197 -0.41145,0.67471 -0.293,0.9834 0.15115,0.39387 0.081,0.47807 -0.23513,0.28267 -0.33509,-0.20711 -0.39667,-0.0641 -0.23978,0.55914 0.11561,0.46086 0.11966,0.63992 0.008,0.39739 -0.27642,-0.60183 -0.87391,-0.56243 -0.64182,0.0424 h 5.2e-4 c 0.10207,0.266 -0.0616,0.57857 -0.36381,0.69453 -0.74506,0.28591 -0.71167,0.15645 0.53124,-2.04587 0.6477,-1.14766 1.26146,-1.84603 1.53117,-1.74253 0.24756,0.095 0.65392,-0.0722 0.90279,-0.37207 0.32086,-0.38662 0.58065,-0.55552 0.73174,-0.51832 z m -20.21789,0.38809 c -0.0521,-0.0253 -0.14794,0.16835 -0.33538,0.55708 -0.30364,0.62967 -0.24433,1.05424 0.28525,2.0376 0.36793,0.68321 0.72062,1.08797 0.78342,0.89968 0.0628,-0.1883 -0.0549,-0.65832 -0.26149,-1.04438 -0.2066,-0.38606 -0.38635,-1.14865 -0.39945,-1.69498 -0.0117,-0.48545 -0.0203,-0.7297 -0.0724,-0.755 z m 7.5153,0.29043 c 0.18794,0 0.3421,0.23812 0.3421,0.52916 0,0.29104 -0.0628,0.52917 -0.13901,0.52917 -0.0763,0 -0.22989,-0.23813 -0.34158,-0.52917 -0.11168,-0.29104 -0.0494,-0.52916 0.13849,-0.52916 z m 16.06982,0.005 c 0.81031,0.004 0.91644,0.082 0.49971,0.36484 -0.29104,0.19755 -0.84649,0.53879 -1.23455,0.75809 -0.60907,0.34419 -0.64571,0.32574 -0.26768,-0.13281 0.24089,-0.29215 0.33333,-0.63559 0.20567,-0.76326 -0.12768,-0.12763 0.23094,-0.22986 0.79685,-0.22686 z m -14.42186,0.10129 c 0.063,0.0122 0.10124,0.059 0.0997,0.13746 -0.003,0.15697 -0.15918,0.52337 -0.34727,0.81442 -0.29468,0.456 -0.34278,0.44691 -0.34778,-0.0672 -0.003,-0.3281 0.15375,-0.69503 0.34778,-0.81494 0.097,-0.0599 0.18457,-0.082 0.24753,-0.0698 z m 12.6814,1.31155 c 0.10522,0.0301 0.0112,0.2385 -0.3669,0.65629 -0.57215,0.63221 -0.55436,0.67533 0.38602,0.92242 l 0.9865,0.25942 -1.36374,0.48421 c -0.75001,0.26642 -1.49033,0.40585 -1.64537,0.31005 -0.15505,-0.0958 -0.34565,0.0175 -0.42375,0.25167 -0.10646,0.31935 -0.21335,0.3099 -0.42788,-0.0372 -0.19178,-0.31031 0.1567,-0.85661 1.05781,-1.65829 0.89275,-0.79391 1.62195,-1.2387 1.79731,-1.18856 z m -3.32176,0.23771 c 0.13844,-0.008 0.27027,0.20249 0.27027,0.63717 0,0.26813 -0.1418,0.57549 -0.31523,0.68264 -0.17338,0.10718 -0.29248,-0.18596 -0.26458,-0.65112 0.0261,-0.43608 0.1711,-0.66117 0.30954,-0.66869 z m -9.82317,0.25735 c 0.1265,0.0325 0.216,0.23573 0.216,0.53537 0,0.39949 -0.15892,0.72657 -0.35295,0.72657 -0.19403,0 -0.35295,-0.22891 -0.35295,-0.5085 0,-0.27959 0.15892,-0.60613 0.35295,-0.72605 0.0485,-0.03 0.0948,-0.0382 0.13695,-0.0274 z m 9.44025,1.98851 c 0.0376,-0.0117 0.16095,0.13129 0.39894,0.42013 0.27976,0.33955 0.8391,0.61701 1.24282,0.61701 0.40372,0 0.83197,0.15892 0.95188,0.35295 0.12538,0.20286 -0.20323,0.3546 -0.77308,0.3576 -2.61633,0.0127 -3.33413,1.08527 -1.81126,2.7063 0.91383,0.97272 0.44667,1.01542 -1.71359,0.15658 -1.73393,-0.68935 -1.85602,-0.79123 -2.03037,-1.69654 -0.17471,-0.90723 3.02605,-2.74261 3.66954,-2.10426 0.30734,0.30488 0.35194,0.23044 0.18139,-0.30179 -0.10578,-0.33011 -0.15387,-0.49625 -0.11627,-0.50798 z m -4.60541,0.33176 c 0.17586,0 0.31988,0.31733 0.31988,0.70538 0,0.38806 -0.061,0.7059 -0.13539,0.7059 -0.0744,0 -0.21788,-0.31784 -0.31936,-0.7059 -0.10148,-0.38805 -0.041,-0.70538 0.13487,-0.70538 z m -3.95376,0.54674 c 0.0265,0.008 0.0403,0.0266 0.0403,0.0568 0,0.13449 -0.50744,0.76836 -1.12758,1.40818 -0.97529,1.00624 -1.03465,1.16409 -0.4408,1.17409 0.49282,0.008 0.29094,0.25449 -0.71572,0.87282 -2.30821,1.41777 -3.37985,3.34889 -2.12545,3.83025 0.29104,0.11168 0.52916,0.4349 0.52916,0.71882 0,0.28392 -0.47625,0.85573 -1.05833,1.27021 -0.58209,0.41452 -1.05833,0.59318 -1.05833,0.39739 0,-0.19579 0.13235,-0.4377 0.29455,-0.53795 0.37925,-0.23439 0.29422,-1.25189 -0.18035,-2.15284 -0.44476,-0.84437 -0.22041,-1.69156 0.35657,-1.34565 0.25144,0.15075 0.23338,0.0273 -0.047,-0.31885 -0.31332,-0.38682 -0.33965,-0.63906 -0.0827,-0.79788 0.20661,-0.12769 0.26917,-0.40435 0.13901,-0.61495 -0.13015,-0.21056 -0.0784,-0.28526 0.11472,-0.16588 0.19315,0.11937 0.68442,-0.23345 1.09141,-0.78394 0.67871,-0.91799 3.87379,-3.13521 4.27054,-3.01066 z m -10.21126,0.15916 c -0.20547,0 -0.27547,0.1584 -0.15555,0.35243 0.11992,0.19403 0.28802,0.35295 0.37362,0.35295 0.0856,0 0.15555,-0.15892 0.15555,-0.35295 0,-0.19403 -0.16814,-0.35243 -0.37362,-0.35243 z m 12.36823,0.44958 c 0.38806,-0.0292 0.70539,0.14869 0.70539,0.39533 0,0.24665 -0.23813,0.44803 -0.52917,0.44803 -1.06609,0 -1.22577,-0.76426 -0.17622,-0.84336 z m 4.81211,0.0873 c -0.13428,-0.0187 -0.29284,-10e-4 -0.44338,0.0563 -0.42759,0.16409 -0.44794,0.27138 -0.0935,0.49041 0.53508,0.33071 1.1127,0.0625 0.83457,-0.38757 -0.0532,-0.0861 -0.16337,-0.1405 -0.29766,-0.15916 z m -10.55956,0.27078 c 0.0785,0.0134 0.10284,0.12485 0.10284,0.34003 0,0.29104 -0.23813,0.72687 -0.52917,0.96842 -0.43037,0.35717 -0.52917,0.34045 -0.52917,-0.0899 0,-0.29104 0.23813,-0.72686 0.52917,-0.96841 0.21519,-0.17859 0.34783,-0.26347 0.42633,-0.25012 z m 8.99222,0.31626 c -0.0316,0.0214 -0.0152,0.0897 0.0543,0.20206 0.1282,0.20744 0.0339,0.45774 -0.20981,0.55604 -0.31718,0.12791 -0.32398,0.18628 -0.0233,0.20618 0.60708,0.0402 0.89856,-0.58401 0.41289,-0.88418 -0.12307,-0.0761 -0.20251,-0.10149 -0.23409,-0.0801 z m -2.01487,0.80564 c 0.0542,-0.0313 0.17728,-0.01 0.36897,0.0636 0.46477,0.17835 0.48543,0.28307 0.10646,0.5395 -0.35055,0.23719 -0.30277,0.29219 0.18758,0.21549 0.38716,-0.0605 0.95857,0.29474 1.38751,0.86196 0.90209,1.19292 0.73672,1.40035 -0.65112,0.81649 -1.1766,-0.49499 -2.81548,-2.495 -1.69085,-2.06344 0.39303,0.15083 0.50468,0.0902 0.33589,-0.18293 -0.0839,-0.13578 -0.0986,-0.21938 -0.0444,-0.25063 z m -8.28528,0.18655 c 0.0182,0.0182 -0.0886,0.16155 -0.30799,0.44132 -0.2663,0.33955 -0.54423,0.61701 -0.61753,0.61701 -0.29035,0 -0.10344,-0.28949 0.4842,-0.75034 0.27977,-0.2194 0.42311,-0.3262 0.44132,-0.30799 z m 6.8523,0.48472 c 0.12475,-0.0311 0.14317,0.0303 0.0465,0.18707 -0.21559,0.34971 -0.17714,0.41631 0.13023,0.22635 0.60835,-0.37599 1.53056,1.0365 2.00453,3.07061 0.21479,0.92163 0.29394,1.6755 0.17621,1.67535 -0.11774,-1.6e-4 -0.83808,-0.5556 -1.60093,-1.23455 -1.45009,-1.29056 -1.82471,-1.51112 -1.40147,-0.82631 0.18122,0.29327 -0.1105,0.3489 -1.03766,0.19844 -0.70926,-0.1151 -1.28933,-0.066 -1.28933,0.10904 0,0.175 -0.3357,0.49732 -0.74569,0.71675 -0.73864,0.3953 -0.73978,0.38971 -0.13074,-0.6413 0.50537,-0.8555 0.81046,-1.02036 1.71566,-0.92656 1.02701,0.10644 1.04994,0.0851 0.34313,-0.31626 -0.83552,-0.47447 -0.71418,-0.67893 1.10639,-1.86966 0.32774,-0.21434 0.55841,-0.3379 0.68317,-0.36897 z m -10.54665,0.59273 c -0.0944,-0.0205 -0.0939,0.16489 0.061,0.56844 0.16893,0.44024 0.0997,0.51119 -0.27595,0.28474 -0.42658,-0.25715 -0.42918,-0.21403 -0.0196,0.29094 0.63352,0.78113 1.21543,0.40596 0.74208,-0.47852 -0.22385,-0.41859 -0.41304,-0.64508 -0.50747,-0.6656 z m 9.8888,0.31626 c -0.12976,0.0173 -0.18673,0.0987 -0.16743,0.24288 0.0166,0.12383 -0.17949,0.35452 -0.43615,0.51315 -0.32248,0.1993 -0.23038,0.27079 0.29818,0.23099 0.42067,-0.0317 0.68721,-0.18318 0.59221,-0.33693 -0.095,-0.15375 0.0349,-0.29217 0.28887,-0.30747 0.34374,-0.0207 0.35117,-0.0728 0.0295,-0.20309 -0.27268,-0.11042 -0.47537,-0.15684 -0.60514,-0.13953 z m -3.12332,0.84905 c 0.0639,0.0244 0.10387,0.088 0.10387,0.185 0,0.19403 -0.15892,0.4511 -0.35295,0.57102 -0.19403,0.11991 -0.35295,0.0592 -0.35295,-0.13487 0,-0.19403 0.15892,-0.45059 0.35295,-0.57051 0.097,-0.06 0.18514,-0.0751 0.24908,-0.0506 z m -7.3055,0.58084 c -0.0108,0.025 0.0943,0.16665 0.30851,0.43977 0.57706,0.73581 0.63472,0.74671 0.96273,0.17673 0.13959,-0.24255 0.12363,-0.32367 -0.0351,-0.17983 -0.15878,0.14383 -0.54118,0.0646 -0.85007,-0.17622 -0.24848,-0.19373 -0.37522,-0.28547 -0.38603,-0.26045 z m 6.19549,0.3514 c 0.0856,0 0.15555,0.15892 0.15555,0.35295 0,0.19402 -0.16814,0.35295 -0.37362,0.35295 -0.20546,0 -0.27547,-0.15893 -0.15555,-0.35295 0.11991,-0.19403 0.28802,-0.35295 0.37362,-0.35295 z m -2.92437,0.74517 c -0.0298,0.0297 0.008,0.16513 0.10387,0.41652 0.13248,0.34789 0.3296,0.54373 0.43822,0.43511 0.10861,-0.10861 2.8e-4,-0.39322 -0.24081,-0.63252 -0.17421,-0.17291 -0.27153,-0.24886 -0.30128,-0.21911 z m 2.92437,0.66611 c 0.0856,0 0.15555,0.15892 0.15555,0.35295 0,0.19402 -0.16814,0.35244 -0.37362,0.35244 -0.20546,0 -0.27547,-0.15842 -0.15555,-0.35244 0.11991,-0.19403 0.28802,-0.35295 0.37362,-0.35295 z m -0.98754,2.30477 c 0.0535,-0.004 0.0829,0.013 0.0827,0.0527 -0.004,0.59069 -1.62843,2.95063 -1.86707,2.71198 -0.54711,-0.5471 -0.19137,-1.53418 0.81028,-2.24741 0.43656,-0.31086 0.81352,-0.50597 0.9741,-0.51728 z m -1.38751,3.8592 c 0.0349,-0.008 0.0537,0.007 0.0527,0.0501 -0.0103,0.4114 -1.38506,2.16448 -1.39526,1.77922 -0.004,-0.16342 0.30958,-0.70091 0.69763,-1.19424 0.29105,-0.36998 0.54021,-0.61039 0.64492,-0.6351 z m -8.55813,0.36432 c 0.0991,-0.0739 0.0889,0.15565 -0.0269,0.70383 -0.123,0.58209 -0.38907,1.21675 -0.59118,1.41077 -0.42772,0.41063 -0.0563,-1.08189 0.48266,-1.93994 0.0574,-0.0914 0.10237,-0.15004 0.13539,-0.17466 z m 20.66127,1.30173 c 0.29824,-0.0454 0.1999,0.16824 -0.21652,0.62838 -0.34704,0.38348 -0.76775,0.61299 -0.93431,0.51005 -0.16656,-0.10294 -0.58186,-0.0245 -0.92295,0.17415 -0.57302,0.33372 -0.56614,0.36376 0.0858,0.39946 0.45601,0.0249 0.53365,0.107 0.22014,0.23151 -0.26679,0.10595 -0.78238,0.48989 -1.14618,0.85369 -0.75001,0.75001 -0.97453,0.79066 -1.7198,0.30903 -0.45222,-0.29228 -0.43975,-0.34279 0.0879,-0.34779 0.33954,-0.003 0.57767,-0.20243 0.52917,-0.44338 -0.0485,-0.24094 0.78492,-0.86673 1.85208,-1.39061 1.17125,-0.57498 1.86649,-0.87912 2.16473,-0.92449 z m -8.59999,0.85472 c 0.0551,-0.006 0.0853,0.0131 0.0853,0.06 0,0.18752 -0.24074,0.54096 -0.53536,0.78548 -0.29462,0.24452 -0.77595,0.95043 -1.06919,1.56838 -0.43315,0.91279 -0.72846,1.11447 -1.57458,1.07487 -0.57282,-0.0268 -1.1418,-0.14909 -1.26452,-0.27182 -0.12273,-0.12273 -0.60171,0.0249 -1.06454,0.32815 -0.46283,0.3033 -0.84181,0.44809 -0.84181,0.32194 0,-0.12616 -0.35719,-0.0523 -0.79375,0.16433 -0.55096,0.27335 -0.47001,0.12852 0.26459,-0.47335 0.58208,-0.47691 1.13806,-0.85723 1.23506,-0.84543 0.097,0.0118 0.64033,-0.40851 1.20768,-0.93431 0.70509,-0.65345 1.14632,-0.84168 1.39372,-0.59428 0.52615,0.52615 0.75288,0.46224 1.9575,-0.55139 0.44773,-0.37677 0.83458,-0.61565 0.99994,-0.63252 z m -12.84831,0.62219 c 0.0953,0.002 0.10585,0.14075 0.0155,0.3762 -0.23452,0.61116 -0.48731,0.72293 -0.48731,0.21549 0,-0.18258 0.15701,-0.42871 0.34882,-0.54725 0.05,-0.0309 0.0912,-0.0452 0.12299,-0.0444 z m 18.15909,0.43873 c -0.0602,-10e-4 -0.12714,0.0109 -0.19843,0.0382 -0.41144,0.15789 -0.4167,0.24494 -0.0295,0.49041 0.2588,0.16406 0.48403,0.30086 0.50023,0.30386 0.0162,0.003 0.0289,-0.21787 0.0289,-0.49041 0,-0.21202 -0.12056,-0.33833 -0.30128,-0.3421 z m -8.63513,0.15658 c -0.0442,0.0269 -0.0144,0.18807 0.10181,0.49093 0.14296,0.37268 -0.006,0.47536 -0.54002,0.37258 -0.75956,-0.14628 -1.01229,0.31232 -0.38551,0.6997 0.19403,0.11991 0.3578,0.0101 0.3638,-0.24391 0.007,-0.28496 0.14811,-0.22541 0.37001,0.15555 0.19776,0.33955 0.42616,0.61753 0.50746,0.61753 0.0813,0 0.0435,-0.27798 -0.0837,-0.61753 -0.20975,-0.55969 -0.16964,-0.5681 0.42582,-0.0884 0.63809,0.51404 0.63863,0.50163 0.0253,-0.4408 -0.43135,-0.66321 -0.71123,-0.99056 -0.78497,-0.94568 z m -7.76903,0.11679 c 0.33465,0.006 0.36046,0.31164 -0.22324,0.73846 -0.60011,0.43881 -0.6027,0.49078 -0.0382,0.80666 0.72827,0.40756 0.37064,1.13585 -0.55759,1.13585 -0.36696,0 -0.81175,0.25868 -0.98857,0.57464 -0.2198,0.39276 -0.3992,0.44838 -0.56741,0.17622 -0.13531,-0.21895 -0.0518,-0.39791 0.18603,-0.39791 0.23777,0 0.3264,-0.10665 0.19637,-0.23668 -0.13004,-0.13003 0.006,-0.60628 0.3018,-1.05833 0.29621,-0.45205 0.42009,-0.82165 0.27543,-0.82165 -0.14466,0 0.10038,-0.25451 0.54415,-0.56534 0.35854,-0.25114 0.67048,-0.35541 0.87127,-0.35192 z m -3.53777,0.68678 c 0.0728,-0.0308 0.19104,0.0329 0.3731,0.18397 0.26038,0.21609 0.59805,0.2751 0.74983,0.13126 0.15175,-0.14383 0.15699,0.13556 0.0119,0.62063 -0.1451,0.48507 -0.45333,1.35635 -0.68523,1.93632 l -0.42168,1.05471 -0.41702,-1.19527 c -0.5095,-1.46159 -0.53516,-2.26344 -0.0636,-1.97198 0.19403,0.11991 0.35244,-0.0489 0.35244,-0.37517 0,-0.22812 0.0274,-0.35366 0.10025,-0.38447 z m 9.92911,2.70009 c -0.097,0 -0.006,0.31733 0.20154,0.70539 0.20768,0.38805 0.45697,0.70538 0.55397,0.70538 0.097,0 0.006,-0.31733 -0.20154,-0.70538 -0.20768,-0.38806 -0.45697,-0.70539 -0.55397,-0.70539 z m 10.99106,0.83768 c -0.12098,0.0148 -0.20619,0.17149 -0.20619,0.41393 0,0.41549 -0.18104,0.51768 -0.61753,0.34881 -0.33955,-0.13136 -1.09378,-0.30879 -1.67587,-0.39429 -0.8463,-0.1243 -0.77545,-0.056 0.35295,0.34055 0.77611,0.27278 1.59259,0.51238 1.81436,0.53278 0.52431,0.0481 0.90226,-0.93601 0.46354,-1.20716 -0.0464,-0.0287 -0.0909,-0.0395 -0.13126,-0.0346 z m -20.1259,0.3607 c 0.0358,-0.009 0.0684,-2.8e-4 0.0956,0.0269 0.10862,0.10862 2.9e-4,0.39321 -0.24081,0.63252 -0.34841,0.34581 -0.38886,0.30538 -0.19741,-0.1974 0.0993,-0.26092 0.2351,-0.43643 0.34262,-0.46199 z m 12.86381,2.32906 c -0.19403,0 -0.35243,0.15892 -0.35243,0.35295 0,0.19403 0.1584,0.35295 0.35243,0.35295 0.19403,0 0.35295,-0.15892 0.35295,-0.35295 0,-0.19403 -0.15892,-0.35295 -0.35295,-0.35295 z" /></g></svg>
