<?xml version="1.0" encoding="UTF-8" standalone="no"?>
<!-- Created with Inkscape (http://www.inkscape.org/) -->

<svg
   width="83.124542mm"
   height="38.651672mm"
   viewBox="0 0 83.124542 38.651672"
   version="1.1"
   id="svg5"
   xml:space="preserve"
   xmlns:inkscape="http://www.inkscape.org/namespaces/inkscape"
   xmlns:sodipodi="http://sodipodi.sourceforge.net/DTD/sodipodi-0.dtd"
   xmlns="http://www.w3.org/2000/svg"
   xmlns:svg="http://www.w3.org/2000/svg"><sodipodi:namedview
     id="namedview7"
     pagecolor="#D2D9DE"
     bordercolor="#666666"
     borderopacity="1.0"
     inkscape:showpageshadow="2"
     inkscape:pageopacity="0.0"
     inkscape:pagecheckerboard="0"
     inkscape:deskcolor="#d1d1d1"
     inkscape:document-units="mm"
     showgrid="false"
     inkscape:zoom="0.6480467"
     inkscape:cx="2735.914"
     inkscape:cy="195.97353"
     inkscape:window-width="1440"
     inkscape:window-height="900"
     inkscape:window-x="0"
     inkscape:window-y="0"
     inkscape:window-maximized="0"
     inkscape:current-layer="layer1" /><defs
     id="defs2" /><g
     inkscape:label="Livello 1"
     inkscape:groupmode="layer"
     id="layer1"
     transform="translate(-223.66886,432.52391)"><path
       id="path8906"
       style="fill:#D2D9DE;stroke-width:0.352778"
       d="m 299.30853,-410.74076 c -1.51573,-1.60969 -2.82604,-2.78997 -2.95874,-2.66468 -0.131,0.1237 -0.59069,0.21517 -1.0217,0.2028 -0.43102,-0.0124 -0.67088,0.0964 -0.53335,0.24204 0.13752,0.14565 0.71495,0.2618 1.28337,0.25801 0.94387,-0.006 1.19853,0.19173 2.93867,2.28136 1.04795,1.25844 2.15439,2.35122 2.45884,2.4288 0.33158,0.0845 -0.53745,-1.01799 -2.16709,-2.74833 z m -4.02736,-4.20147 c -0.9802,-1.1018 -1.43635,-1.31031 -3.80961,-1.73976 -3.5466,-0.64176 -6.00739,-1.5614 -10.40038,-3.88762 -1.9918,-1.05471 -3.88494,-1.99685 -4.20671,-2.09331 -1.00962,-0.30267 -0.4204,0.0792 2.59079,1.67807 3.16988,1.68319 3.55145,1.95395 2.93491,2.08094 -0.2234,0.046 -0.27891,0.21795 -0.12357,0.38248 0.16084,0.17034 0.39621,0.0614 0.54719,-0.25298 0.20392,-0.42463 0.34671,-0.40285 0.61841,0.0934 0.19429,0.35485 0.56841,0.60492 0.83101,0.55647 0.74235,-0.13739 3.22087,0.96012 3.34656,1.4819 0.0619,0.25683 0.12603,0.29709 0.14258,0.0892 0.0165,-0.20781 1.11424,-0.15283 2.43952,0.12231 1.32528,0.27513 2.61059,0.46167 2.85626,0.41465 0.24568,-0.047 1.09899,0.45728 1.89652,1.12042 l 1.45029,1.20557 z m 8.01222,8.99317 c -0.13024,-0.14085 -0.28573,-0.27597 -0.43606,-0.37007 -0.30064,-0.18819 -0.22427,0.008 0.17026,0.43625 0.39451,0.42803 0.6403,0.58245 0.54654,0.3425 -0.0469,-0.11999 -0.15075,-0.2676 -0.2807,-0.40872 z m 2.37643,3.04533 -1.31987,-1.31662 0.93806,1.29761 c 0.80845,1.11889 0.85764,1.39059 0.35767,1.96855 -0.32395,0.3745 -0.53001,0.4622 -0.46704,0.19862 0.0753,-0.31516 -0.5292,-0.48649 -1.82068,-0.51543 -1.06337,-0.0238 -1.83524,0.0608 -1.7151,0.18801 0.12013,0.12724 0.48769,0.23919 0.81683,0.24863 0.46544,0.0134 0.50358,0.1066 0.17144,0.4202 -0.23487,0.22177 -0.76873,0.2894 -1.18615,0.14982 -0.41742,-0.13958 -0.87676,-0.14229 -1.0212,-0.006 -0.14445,0.13639 -0.0825,0.29578 0.13787,0.35453 0.2204,0.0588 0.28529,0.21606 0.14424,0.34923 -0.14108,0.1332 -0.4371,0.19414 -0.6575,0.13539 -0.22039,-0.0588 -0.70786,0.18365 -1.08362,0.53843 l -0.6831,0.64497 0.92621,-0.13607 c 1.95153,-0.28635 7.29508,-2.19159 7.53229,-2.68557 0.18407,-0.38329 -0.094,-0.86002 -1.07034,-1.83439 z m -1.52662,-1.52511 c 0.004,-0.13867 -1.28399,-0.52408 -2.86259,-0.85642 -1.5786,-0.33235 -2.59507,-0.46425 -2.25878,-0.29296 0.33628,0.1713 0.71117,0.41751 0.83348,0.54705 0.12231,0.12954 0.61712,0.24867 1.09932,0.26478 0.48219,0.0161 1.39527,0.15526 2.0291,0.30939 0.63384,0.15412 1.15549,0.16684 1.15947,0.0282 z m -4.55627,-4.48386 c -0.20767,-0.21994 -0.49303,-0.29068 -0.63411,-0.15748 -0.14108,0.13321 -0.15384,0.35042 -0.0285,0.48318 0.12534,0.13275 0.41033,0.20386 0.63373,0.15784 0.22341,-0.046 0.23652,-0.26361 0.0289,-0.48354 z m -1.52385,-0.18376 c -0.21173,-0.2793 -0.65386,-0.53937 -1.31506,-0.77179 -0.7342,-0.25808 -1.96451,-0.71145 -2.73396,-1.00773 -0.76945,-0.29626 -1.55714,-0.50792 -1.75032,-0.47028 -0.19321,0.0377 -0.007,0.26182 0.41379,0.49841 0.4207,0.23661 0.90132,0.37412 1.06816,0.30557 0.16685,-0.0686 0.45466,0.0352 0.63932,0.23074 0.18465,0.19557 0.95448,0.54867 1.71095,0.78463 0.75649,0.23595 1.56473,0.62584 1.79597,0.86638 0.3464,0.36104 0.40012,0.33433 0.30555,-0.15062 -0.0189,-0.0971 -0.0638,-0.19224 -0.13437,-0.28534 z m -3.72434,-3.81951 c -0.33756,-0.37062 -5.82292,-1.69027 -6.47174,-1.55663 -0.4383,0.0903 0.34274,0.33154 3.95282,1.22075 1.56903,0.38647 2.70253,0.53763 2.51892,0.33588 z m 9.92919,12.2662 c 0.0566,0.11314 -0.0698,0.25022 -0.42345,0.32308 -0.23826,0.0491 -0.54909,-0.0336 -0.69074,-0.1836 -0.1606,-0.17009 0.005,-0.28961 0.44009,-0.31748 0.37806,-0.0242 0.61745,0.0649 0.6741,0.178 z m -3.13339,-0.93548 c -0.10418,-0.10742 -0.52924,-0.31929 -1.27899,-0.64025 -0.66723,-0.28566 -1.00761,-0.30803 -0.77572,-0.0508 0.22729,0.25238 0.24032,0.62169 0.0287,0.8215 -0.21162,0.19981 -0.45397,0.26487 -0.53861,0.14465 -0.31,-0.4402 -1.62218,-1.01555 -1.84225,-0.80776 -0.12461,0.11765 -0.28973,0.10982 -0.36688,-0.0175 -0.0771,-0.1273 -0.59179,-0.43502 -1.14394,-0.6839 -0.55216,-0.24888 -1.28038,-0.65272 -1.61814,-0.89784 -0.33775,-0.24513 -0.63153,-0.42927 -0.65284,-0.40916 -0.0213,0.0201 -0.2427,-0.0984 -0.49217,-0.26307 -0.24946,-0.16473 -1.30731,-0.72986 -2.35032,-1.25554 -1.04302,-0.52567 -2.26005,-1.28672 -2.70482,-1.69122 -0.44478,-0.4045 -0.9065,-0.643 -1.0259,-0.53027 -0.11939,0.11273 -0.25488,0.0211 -0.30123,-0.20382 -0.0463,-0.22499 -0.32028,-0.31227 -0.60858,-0.19368 -0.28834,0.11862 -0.61614,-0.007 -0.72821,-0.27971 -0.11205,-0.27239 -0.33797,-0.36815 -0.50237,-0.21293 -0.16448,0.1553 -0.33719,0.0998 -0.38321,-0.12359 -0.046,-0.2234 -0.30086,-0.21798 -0.5666,0.0119 -0.26571,0.22985 -0.40137,0.23758 -0.30173,0.0177 0.14969,-0.33038 -4.05684,-0.71601 -4.38903,-0.40236 l -3.8e-4,3.5e-4 c -0.2039,0.19252 0.0918,0.25329 1.84939,0.381 0.99071,0.072 2.09653,0.29466 2.45733,0.49496 0.36079,0.20028 1.04042,0.40535 1.51021,0.45534 0.4698,0.05 1.02588,0.21068 1.23592,0.35754 1.79748,1.25725 7.57539,4.49782 8.71388,4.88725 0.89224,0.30521 1.1505,0.62916 0.89346,1.1194 -0.11909,0.22714 -0.0481,0.19983 0.15785,-0.0609 0.25204,-0.31911 0.65015,-0.28628 1.21736,0.10002 0.46346,0.31564 1.13835,0.55457 1.49963,0.53144 0.36127,-0.0231 0.86138,0.17462 1.11147,0.4395 0.31121,0.3296 0.63617,0.30886 1.02841,-0.067 0.45315,-0.43336 0.44674,-0.52441 -0.0293,-0.43147 -0.33147,0.0647 -0.59773,-0.0622 -0.5914,-0.28237 0.006,-0.2202 0.38688,-0.33132 0.8453,-0.24661 0.53255,0.0984 0.7482,0.0963 0.64369,-0.0108 z m -5.01852,-5.29187 c -0.21174,-0.20036 -0.74987,-0.56583 -1.19583,-0.81188 l -0.81078,-0.44696 0.58379,0.66127 c 0.32109,0.36396 0.85928,0.72938 1.19584,0.81188 0.54412,0.13315 0.56914,0.10954 0.22695,-0.21428 z m -4.62379,-4.89274 c -0.0805,-0.0926 -0.19267,-0.17885 -0.31709,-0.23649 -0.27508,-0.12731 -0.2785,-0.009 -0.009,0.30097 0.24421,0.28093 0.44765,0.37535 0.45239,0.20966 0.002,-0.0828 -0.0462,-0.18159 -0.12666,-0.27413 z m -2.38089,-1.00565 c -0.0912,-0.10243 -0.30882,-0.17869 -0.5635,-0.18506 -0.49074,-0.0122 -0.49275,0.0453 -0.008,0.27941 0.33516,0.162 0.61331,0.16872 0.61771,0.0152 10e-4,-0.0384 -0.0154,-0.0753 -0.0458,-0.10954 z m 9.12215,9.71558 c -0.18555,-0.19653 -0.62195,-0.51859 -1.17646,-0.82448 -0.6518,-0.35965 -0.7176,-0.34488 -0.33402,0.073 0.26204,0.28628 0.79426,0.65733 1.18192,0.825 0.44902,0.19422 0.51411,0.12297 0.32856,-0.0735 z m -11.09544,-11.60002 c -0.0227,-0.06 -0.11239,-0.13214 -0.26392,-0.20495 -0.29075,-0.13962 -0.57385,-0.21081 -0.62933,-0.15843 -0.20775,0.19615 0.37079,0.57461 0.75675,0.49511 0.11514,-0.0237 0.15911,-0.0717 0.13652,-0.13165 z m 8.41845,9.76665 c -0.10974,-0.11622 -0.23711,-0.21558 -0.35599,-0.27011 -0.23761,-0.10921 -0.16005,0.0902 0.17299,0.44291 0.33301,0.35269 0.52758,0.44165 0.43225,0.1981 -0.0477,-0.12174 -0.13951,-0.25467 -0.24925,-0.3709 z m -6.11671,-6.23289 c -0.0454,-0.0838 -0.15872,-0.18863 -0.32895,-0.29493 -0.34043,-0.21263 -0.66347,-0.34512 -0.71756,-0.29404 -0.2024,0.1911 0.61447,0.82884 0.96824,0.75599 0.10133,-0.0209 0.12367,-0.0832 0.0783,-0.16701 z m -7.77019,-8.03906 c -0.19071,-0.24728 -0.9485,-0.7468 -1.77764,-1.08483 l -1.20756,-0.49234 1.0136,0.74157 c 0.55731,0.40777 1.2752,0.82138 1.5956,0.91913 0.4009,0.1223 0.49044,0.0648 0.376,-0.0835 z m 3.35266,3.59833 c -0.13321,-0.14108 -0.68,-0.38944 -1.21463,-0.55177 -0.53463,-0.16233 -0.86322,-0.17959 -0.73001,-0.0385 0.1332,0.14108 0.67999,0.38944 1.21463,0.55177 0.53463,0.16233 0.86321,0.17959 0.73001,0.0385 z m 9.06673,9.63356 c -0.10974,-0.11623 -0.23746,-0.21595 -0.35634,-0.27049 -0.23762,-0.1092 -0.15933,0.0902 0.17371,0.44293 0.33301,0.35269 0.52722,0.442 0.43188,0.19846 -0.0476,-0.12181 -0.1395,-0.25466 -0.24925,-0.3709 z m -7.15536,-7.51583 c 0.005,-0.16099 -4.89734,-1.92736 -5.39358,-1.94352 -0.11386,-0.004 -0.1199,0.0853 -0.0137,0.19774 0.28574,0.30263 5.40132,1.95422 5.4073,1.74578 z m 5.6879,6.47501 c -0.10974,-0.11622 -0.23711,-0.21558 -0.35599,-0.27011 -0.23762,-0.10921 -0.16004,0.0902 0.17299,0.4429 0.33302,0.3527 0.52795,0.44204 0.43261,0.19849 -0.0477,-0.12175 -0.13987,-0.25505 -0.24961,-0.37128 z m -4.84878,-5.05484 c -0.23639,-0.30689 -0.73576,-0.38969 -0.84052,0.003 -0.0521,0.19555 0.14023,0.46857 0.42784,0.60668 0.34153,0.16401 0.52773,0.0817 0.53689,-0.23755 0.004,-0.14277 -0.0454,-0.27012 -0.12421,-0.37241 z m 11.23984,12.60578 -1.11814,-0.0672 c -0.61505,-0.0369 -1.29031,-0.24953 -1.50059,-0.47224 -0.21027,-0.2227 -0.64078,-0.29848 -0.95658,-0.16857 -0.31578,0.12991 -0.57021,0.10008 -0.56543,-0.0667 0.005,-0.16675 -0.3103,-0.41022 -0.70024,-0.54066 -0.50749,-0.16971 -0.62239,-0.31852 -0.40428,-0.52445 0.16763,-0.15827 -0.17959,-0.26756 -0.77131,-0.24258 -0.69781,0.0295 -0.95031,-0.0745 -0.71964,-0.29774 0.28946,-0.27881 0.23946,-0.32252 -0.26356,-0.22947 -0.34074,0.0631 -0.50704,0.002 -0.37008,-0.13527 0.13695,-0.13756 0.0227,-0.20616 -0.25372,-0.15277 -0.27642,0.0534 -0.76936,-0.1116 -1.09566,-0.3663 -0.32638,-0.25464 -0.90265,-0.50065 -1.28021,-0.54671 -0.46936,-0.0572 -0.65059,-0.21828 -0.57322,-0.50849 0.076,-0.28505 -0.1764,-0.484 -0.76819,-0.60586 -0.63107,-0.12995 -0.93638,-0.38367 -1.07503,-0.89394 -0.14142,-0.52052 -0.28328,-0.62964 -0.52684,-0.40517 -0.23451,0.21592 -0.28862,0.12558 -0.18314,-0.30467 0.12923,-0.52728 0.0895,-0.55523 -0.288,-0.20568 -0.29805,0.27591 -0.56109,0.21177 -0.82334,-0.20056 -0.21209,-0.33345 -0.46957,-0.52676 -0.57256,-0.42952 -0.10296,0.0972 -0.44179,-0.0548 -0.75249,-0.33782 -0.3107,-0.28304 -0.80439,-0.46816 -1.09766,-0.41132 -0.29326,0.0568 -0.42301,-0.0111 -0.28811,-0.15084 0.1349,-0.13975 -0.0693,-0.17999 -0.454,-0.0902 -0.86674,0.20238 -3.04893,-0.73361 -3.33559,-1.43042 -0.28295,-0.68779 -0.17214,-0.75554 1.52415,-0.93447 1.9244,-0.203 5.95155,0.46212 8.74035,1.44373 1.23525,0.4348 2.16617,0.69499 2.06854,0.57847 -0.39642,-0.4752 -2.82487,-1.35809 -4.77227,-1.73485 -1.13997,-0.22054 -2.17316,-0.50787 -2.29639,-0.63839 -0.12323,-0.13051 -0.74384,-0.19026 -1.37909,-0.1328 -0.63525,0.0574 -1.19249,-0.0762 -1.23802,-0.29729 -0.0455,-0.22109 -0.67199,-0.33117 -1.39197,-0.2443 -1.30054,0.15689 -1.30757,0.15226 -1.1275,-0.72218 0.13421,-0.65174 0.30206,-0.84794 0.64826,-0.75563 0.25713,0.0685 0.5907,-0.13159 0.74095,-0.44446 0.17224,-0.35868 0.39544,-0.4409 0.60409,-0.22283 0.18221,0.19007 0.93398,0.29289 1.67064,0.22781 0.73667,-0.0651 1.46602,0.0102 1.62045,0.16789 0.15442,0.15772 0.79149,0.35026 1.41521,0.42848 0.90388,0.11334 0.75235,0.01 -0.74575,-0.50906 -1.03377,-0.35818 -2.69479,-0.69846 -3.69164,-0.75594 -0.99686,-0.0575 -2.07646,-0.29445 -2.39903,-0.52655 -0.3225,-0.23217 -0.77817,-0.47324 -1.01257,-0.53574 -0.23441,-0.0625 -0.24367,-0.40581 -0.0205,-0.76313 0.22319,-0.35731 0.22621,-0.83668 0.006,-1.06505 -0.34756,-0.36082 -0.38481,-0.334 -0.28514,0.20458 0.0932,0.50364 0.0144,0.5152 -0.41994,0.0611 -0.29403,-0.30704 -0.70919,-0.52233 -0.92284,-0.47832 -0.40138,0.0827 -0.74552,-0.45871 -1.20734,-1.90047 -0.21217,-0.66238 -0.45623,-0.84936 -1.18288,-0.90654 -0.87487,-0.0688 -0.90373,-0.10743 -0.65115,-0.86277 0.14537,-0.43473 0.0692,-0.9808 -0.16914,-1.21339 -0.36037,-0.35166 -0.3889,-0.30118 -0.16942,0.29855 l 0.26408,0.72078 -0.52222,-0.47705 c -1.85096,-1.69214 -2.10189,-2.01266 -1.76061,-2.25157 0.42664,-0.29871 1.47435,-0.24264 4.16534,0.2234 2.46265,0.42649 1.37925,-0.16905 -1.66515,-0.91527 -1.26252,-0.30947 -3.0879,-0.4362 -4.05619,-0.28167 -0.9683,0.15452 -2.49694,0.0314 -3.39734,-0.27337 -3.77695,-1.27832 -11.26224,0.16269 -14.76936,2.843 -1.84752,1.41196 -4.94219,5.27512 -4.86179,6.06944 0.0274,0.27025 1.10636,2.11408 2.39742,4.09727 2.12029,3.257 2.9298,4.91288 5.19267,10.62267 0.88053,2.22181 1.13439,2.51244 2.47553,2.82811 2.10184,0.49472 7.48946,1.08988 8.17609,0.90332 0.38167,-0.10369 1.5724,-0.18648 2.64644,-0.18394 5.63368,0.0133 6.47284,-0.0558 6.71181,-0.55342 0.14322,-0.29827 0.28618,-0.34942 0.33353,-0.11947 0.0456,0.22127 0.46491,0.24376 0.93146,0.0501 0.46656,-0.19362 1.80563,-0.22923 2.97573,-0.0791 1.17008,0.15016 3.2441,0.19139 4.60925,0.0914 1.36513,-0.1 3.14536,-0.0697 3.95633,0.0675 0.81096,0.13722 2.36364,0.0927 3.45005,-0.0991 1.08642,-0.19182 2.05598,-0.26358 2.15443,-0.15932 0.0985,0.10428 0.78016,0.19065 1.51521,0.19193 3.1137,0.005 4.71818,-0.22042 5.27034,-0.74177 z m -20.25947,-21.38407 -1.11809,-0.39985 c -0.61511,-0.21978 -1.52411,-0.45293 -2.02019,-0.51824 -0.88172,-0.11605 -0.88488,-0.10785 -0.12889,0.36406 0.42535,0.26552 1.3347,0.49904 2.02054,0.51861 z m 0.80015,2.62538 c -0.63828,-0.55146 -2.55601,-1.22768 -2.65578,-0.85342 -0.10472,0.39278 0.81187,0.91215 1.11114,0.62959 0.11069,-0.10451 0.58526,0.0476 1.0548,0.33808 0.46954,0.2905 0.77375,0.34076 0.676,0.11152 -0.0299,-0.0702 -0.095,-0.14702 -0.18619,-0.22575 z m 1.28457,2.40679 c -0.30866,-0.28962 -0.96213,-0.51229 -1.17549,-0.31084 -0.29233,0.27601 -0.019,0.5521 0.73714,0.74533 0.32718,0.0836 0.5985,0.0226 0.60305,-0.13586 0.003,-0.0983 -0.0618,-0.2021 -0.16468,-0.29866 z m -6.83132,-5.96754 c -0.0192,-0.0904 -0.13732,-0.13962 -0.35968,-0.16642 -0.69291,-0.0845 -0.98801,0.0924 -0.41065,0.24629 0.22039,0.0588 0.27823,0.22272 0.12883,0.36377 -0.1494,0.14107 -0.22357,0.30668 -0.1652,0.3685 0.0584,0.0618 0.31458,-0.11712 0.56997,-0.39746 0.17552,-0.19267 0.2559,-0.32426 0.23673,-0.41468 z m 2.26385,2.52336 c -0.12534,-0.13274 -0.34295,-0.13248 -0.48403,7.2e-4 -0.14107,0.1332 -0.0868,0.42216 0.12085,0.64211 0.20765,0.21992 0.42565,0.21931 0.48439,-0.001 0.0588,-0.22039 0.004,-0.50898 -0.12121,-0.64174 z m 2.67852,2.83686 c -0.13321,-0.14108 -0.35749,-0.14788 -0.49856,-0.0147 -0.14108,0.1332 -0.14753,0.35786 -0.0143,0.49894 0.13321,0.14108 0.35751,0.14715 0.49859,0.0139 0.14107,-0.1332 0.14751,-0.35713 0.0143,-0.49821 z m 15.24929,16.67989 c 0.12482,0.13656 0.13844,0.32841 -0.0346,0.49177 -0.1494,0.14106 -0.30939,0.0736 -0.35541,-0.14984 -0.046,-0.22341 -0.21026,-0.2862 -0.36558,-0.13954 -0.1553,0.14663 -0.74837,0.26945 -1.31764,0.27326 -0.56926,0.004 -0.94135,-0.0813 -0.82693,-0.18934 0.11441,-0.10803 -0.0904,-0.23251 -0.45485,-0.27698 -0.36444,-0.0445 -0.70185,-0.27197 -0.74988,-0.50517 -0.048,-0.23318 -0.30473,-0.23563 -0.57047,-0.006 -0.26654,0.23048 -0.39676,0.22833 -0.29012,-0.005 0.13595,-0.29714 -0.10863,-0.44162 -0.82496,-0.48758 -0.773,-0.0496 -0.98735,-0.18803 -0.88978,-0.57279 0.10107,-0.3987 0.0556,-0.44006 -0.21197,-0.19288 -0.18727,0.17269 -0.51067,0.0928 -0.71869,-0.17783 -0.20795,-0.27064 -0.4876,-0.55196 -0.62138,-0.62577 -0.13379,-0.0738 -0.38097,-0.22274 -0.54945,-0.33053 -0.16847,-0.10778 -0.38956,-0.22655 -0.49141,-0.26378 -0.10186,-0.0372 -0.43242,-0.27119 -0.7341,-0.52006 -0.30167,-0.24886 -0.655,-0.5364 -0.78552,-0.63924 -0.13052,-0.10284 -0.61541,-0.0675 -1.07737,0.0791 -0.46199,0.14663 -0.70319,0.12263 -0.53584,-0.0534 0.16736,-0.17604 0.18233,-0.44972 0.0328,-0.60808 -0.20004,-0.21186 -0.29205,-0.12372 -0.34776,0.33247 -0.0933,0.76483 0.45877,1.25542 2.24289,1.99235 0.75855,0.31332 1.37636,0.67355 1.37272,0.8005 -0.004,0.12687 0.44633,0.38808 0.99958,0.58068 0.55323,0.19263 0.93276,0.48724 0.84393,0.65445 -0.0888,0.1672 0.23238,0.34546 0.71352,0.39664 1.1523,0.12261 1.85354,0.68172 1.19508,0.9526 -0.27759,0.11418 -0.5015,0.0872 -0.49726,-0.06 0.004,-0.14722 -0.37796,-0.21121 -0.84914,-0.14208 -0.47119,0.0691 -0.88769,-0.0258 -0.92577,-0.21045 -0.0381,-0.18468 -0.31415,-0.2347 -0.61349,-0.11156 -0.29939,0.12318 -0.57874,0.0554 -0.62115,-0.15054 -0.0424,-0.2059 -0.25442,-0.29189 -0.4712,-0.19118 -0.50368,0.23402 -1.43322,-0.48184 -1.07045,-0.82436 0.15018,-0.14179 -0.19102,-0.238 -0.75787,-0.21403 -0.9481,0.0401 -1.00239,-9.5e-4 -0.68054,-0.51378 0.3088,-0.49204 0.28615,-0.50461 -0.19469,-0.10686 -0.45419,0.37575 -0.51996,0.34859 -0.39492,-0.16157 0.12439,-0.5076 0.0612,-0.53017 -0.37046,-0.13494 -0.43171,0.39524 -0.49485,0.37193 -0.37044,-0.13565 0.13036,-0.53192 0.0951,-0.56046 -0.27257,-0.22023 -0.47599,0.44117 -1.82879,-0.2168 -1.36711,-0.66509 l 7.4e-4,3e-5 c 0.16382,-0.15881 0.0194,-0.23361 -0.32706,-0.16951 -0.50472,0.0934 -0.51745,0.0165 -0.0671,-0.41427 0.81274,-0.77838 1.64183,-1.04306 1.74213,-0.55609 0.053,0.25728 0.13912,0.23242 0.21785,-0.0628 0.0718,-0.26915 0.005,-0.49299 -0.14766,-0.49738 -0.15301,-0.004 -0.29579,-0.2837 -0.31738,-0.62141 -0.0281,-0.4345 -0.12109,-0.53741 -0.31879,-0.35074 -0.53616,0.50624 -1.61137,-0.13337 -1.72377,-1.02553 -0.0925,-0.73407 -0.0152,-0.83736 0.60589,-0.80802 1.03378,0.0488 3.5553,0.89907 3.97028,1.33859 0.19576,0.20732 0.49035,0.24987 0.65494,0.0945 0.1646,-0.15542 0.29562,-0.14586 0.29073,0.0211 -0.005,0.16706 0.74684,0.65844 1.67034,1.09162 0.92351,0.43318 1.59991,0.86246 1.50321,0.95376 -0.0967,0.0913 0.0756,0.17289 0.38337,0.18172 0.30772,0.009 0.63947,0.21009 0.73693,0.44703 0.0975,0.23693 0.96372,0.81147 1.92493,1.27695 0.96122,0.46549 1.63528,0.95273 1.49768,1.08265 -0.1376,0.12993 0.10442,0.24649 0.53797,0.2589 0.43357,0.0124 0.82,0.17796 0.85912,0.36792 0.0391,0.18996 0.25677,0.30706 0.48383,0.26028 0.27113,-0.0558 0.50706,0.0259 0.63177,0.16254 z m -19.05245,-19.42145 c -0.10773,-0.12721 -0.22068,-0.0681 -0.33926,0.17889 -0.27477,0.57218 -0.21506,0.694 0.28867,0.59025 0.19999,-0.0412 0.27036,-0.30231 0.15628,-0.57967 -0.0346,-0.0841 -0.0699,-0.14698 -0.10571,-0.18945 z m 5.16827,6.35371 c -0.01,0.008 -0.0181,0.0394 -0.0243,0.0954 -0.0248,0.22413 -0.42041,0.41579 -0.87967,0.42548 l -3.6e-4,-3.8e-4 c -0.76293,0.0163 -0.79616,0.0481 -0.38797,0.37044 0.81423,0.64292 1.48311,0.44623 1.39506,-0.41032 -0.0336,-0.32699 -0.0742,-0.5061 -0.10282,-0.48074 z m -10.25251,-8.89846 c 0.35101,0.38633 0.29525,0.42355 -0.44545,0.29901 -1.07596,-0.18089 -0.78424,0.15564 0.39916,0.46034 0.49179,0.12669 1.00982,0.50599 1.15107,0.84275 0.21112,0.50328 -0.24401,0.56619 -2.55658,0.35212 -1.54735,-0.14325 -2.93114,-0.14922 -3.07543,-0.013 -0.14429,0.13623 -1.16729,0.31137 -2.27288,0.38914 -1.10559,0.0778 -1.9205,0.23619 -1.81121,0.35194 0.10929,0.11575 -0.0705,0.2027 -0.39962,0.19324 -0.82357,-0.0236 -1.0976,0.3048 -0.49519,0.59409 0.27389,0.13152 0.81913,0.0803 1.21145,-0.11401 0.39231,-0.19428 1.62087,-0.42173 2.73023,-0.50541 1.10941,-0.0837 1.76915,-0.24182 1.46574,-0.35127 -0.30339,-0.10943 -0.0905,-0.11566 0.47307,-0.0138 0.56358,0.10182 1.71981,0.21753 2.56979,0.25728 2.36923,0.11081 4.3384,0.87006 4.51332,1.73985 0.0789,0.39331 0.54635,1.03275 1.03869,1.42149 0.58085,0.45865 0.88763,0.9774 0.8733,1.47744 -0.0199,0.69508 -0.11311,0.75181 -0.94954,0.57957 -0.51004,-0.10504 -0.93222,-0.0241 -0.93807,0.17998 -0.006,0.20406 0.17733,0.34557 0.40699,0.31436 0.59872,-0.0814 2.08308,0.42302 2.47879,0.84213 0.1853,0.19625 0.29963,0.66417 0.25383,1.03961 -0.0629,0.51601 -0.15377,0.60794 -0.37234,0.37645 -0.15902,-0.16843 -0.58239,-0.31465 -0.94075,-0.32494 -0.53632,-0.0154 -0.67784,0.12316 -0.80006,0.78456 -0.12672,0.6856 -0.26194,0.80226 -0.92065,0.79458 -0.42457,-0.005 -1.38687,0.0333 -2.13876,0.0848 -1.07317,0.0736 -1.26782,-7.4e-4 -0.90475,-0.34401 0.25438,-0.2405 1.15772,-0.43971 2.00757,-0.44282 0.84986,-0.003 1.63232,-0.0871 1.73882,-0.18623 0.39009,-0.3642 -0.2959,-0.66886 -1.04604,-0.46504 -0.42473,0.1154 -0.93187,0.0405 -1.127,-0.16615 -0.19511,-0.20665 -0.47703,-0.26031 -0.62643,-0.11925 -0.14944,0.14111 -0.0626,0.33174 0.19328,0.42375 0.25583,0.092 0.10565,0.12064 -0.3345,0.0642 -1.00357,-0.12921 -5.59168,0.70166 -7.54119,1.36565 -0.80767,0.27509 -1.86221,0.89248 -2.3435,1.37193 -0.90989,0.90655 -0.73736,0.83883 1.21312,-0.47805 0.69804,-0.47129 1.11248,-0.5914 1.03472,-0.29967 -0.0713,0.26768 0.10553,0.5994 0.39265,0.73727 0.37806,0.18155 0.79997,-0.0498 1.52909,-0.83892 0.55376,-0.59932 0.7991,-0.78586 0.54562,-0.41422 -0.25348,0.37163 -0.32607,0.71178 -0.16134,0.75573 0.16483,0.0439 -0.0893,0.35238 -0.56472,0.68529 -0.47539,0.33292 -1.017,0.56426 -1.20357,0.51452 -0.18656,-0.0497 -0.519,0.28125 -0.73868,0.73514 -0.26924,0.55624 -0.54527,0.78609 -0.84678,0.70572 -0.29052,-0.0774 -0.26051,-0.15749 0.0848,-0.2286 0.32468,-0.0669 0.37363,-0.15164 0.12651,-0.21751 -0.24054,-0.0641 -1.65462,1.09425 -3.48641,2.85544 -1.69506,1.62974 -3.25398,2.99851 -3.46398,3.04179 -0.46605,0.096 0.1837,-1.59345 0.85726,-2.22941 0.60928,-0.57527 0.47744,-1.33704 -0.23483,-1.35748 -0.38572,-0.0111 -0.47094,0.14955 -0.29991,0.56531 0.13137,0.31932 0.0831,0.61283 -0.10718,0.65201 -0.19021,0.0392 -0.43303,-0.14138 -0.53975,-0.4008 -0.13151,-0.3194 0.14543,-0.7243 0.85667,-1.25376 0.7844,-0.58393 0.88995,-0.75735 0.41555,-0.68445 -0.34957,0.0537 -0.53437,-0.0267 -0.41053,-0.17813 0.12385,-0.15145 0.51947,-0.62635 0.87912,-1.05534 0.35966,-0.42898 0.6572,-0.90151 0.66147,-1.05027 0.004,-0.14876 0.28423,-0.28844 0.62194,-0.31006 0.345,-0.0221 0.51198,-0.14725 0.38111,-0.28585 -0.12813,-0.1357 -0.0599,-0.67133 0.15153,-1.19065 0.3236,-0.79498 0.53793,-0.95245 1.35664,-0.99523 0.84052,-0.0439 0.87049,-0.0666 0.22087,-0.16879 -0.41331,-0.065 -0.78167,-0.2633 -0.81827,-0.44059 -0.0366,-0.17728 -0.36909,-0.0695 -0.73911,0.24015 -0.37002,0.30963 -1.17729,0.56439 -1.79395,0.56593 -0.73913,0.002 -1.09019,0.15516 -1.02953,0.4497 0.0506,0.24571 0.15759,0.32535 0.23732,0.17676 0.23745,-0.44266 0.56819,-0.25254 0.95479,0.54907 0.22713,0.47095 0.18195,0.78985 -0.11975,0.84794 -0.26599,0.0512 -0.58981,0.19003 -0.7195,0.30835 -0.12969,0.11833 -0.45418,0.0423 -0.72152,-0.16876 -0.39495,-0.31182 -0.34949,-0.4207 0.24262,-0.58159 0.56344,-0.15313 0.62326,-0.24847 0.26431,-0.42084 -0.72106,-0.34626 -0.44895,-1.61967 0.35724,-1.67131 0.53783,-0.0345 0.52917,-0.12034 -0.0526,-0.49685 -0.66779,-0.43214 -0.62299,-0.45739 0.88359,-0.49811 0.87288,-0.0236 1.24212,-0.0996 0.82078,-0.16872 -0.58338,-0.0958 -0.69078,-0.19709 -0.44992,-0.42451 0.17398,-0.16427 -0.16316,-0.2621 -0.749,-0.21744 -0.72029,0.0549 -1.1305,0.2782 -1.26818,0.68996 -0.12706,0.37995 -0.42999,0.60327 -0.80593,0.59392 -0.47047,-0.0117 -0.48197,0.0434 -0.0518,0.25148 0.71034,0.34361 0.26588,1.30913 -0.72673,1.57883 -0.7855,0.21341 -1.38918,-0.12471 -0.95484,-0.53481 0.14108,-0.13321 0.35337,-0.13911 0.47232,-0.0131 0.11896,0.12599 0.4747,0.12284 0.79017,-0.007 0.4796,-0.1973 0.45999,-0.25005 -0.11948,-0.32073 -0.51183,-0.0624 -0.61382,-0.15885 -0.39005,-0.37014 0.1667,-0.15739 0.13226,-0.33182 -0.0766,-0.3875 -0.20886,-0.0557 -0.11126,-0.27192 0.21706,-0.48069 0.45128,-0.28702 0.46006,-0.44951 0.0355,-0.66539 -0.30885,-0.15702 -0.39248,-0.28925 -0.18565,-0.29378 0.20679,-0.005 0.48958,-0.34796 0.62837,-0.76316 0.15759,-0.47122 0.28382,-0.60123 0.33636,-0.34605 0.0506,0.24578 0.24149,0.1573 0.47868,-0.22241 0.45345,-0.72597 -0.18047,-1.24682 -0.68784,-0.56516 -0.18475,0.24829 -0.5209,0.40187 -0.74714,0.34155 -0.22623,-0.0603 -0.66737,0.12595 -0.9806,0.41345 -0.51622,0.47365 -0.55045,0.45784 -0.36504,-0.1706 0.11253,-0.38138 0.0352,-0.73866 -0.17169,-0.7938 -0.20685,-0.0552 -0.24654,-0.22208 -0.0888,-0.37103 0.15772,-0.14892 0.1157,-0.31622 -0.0931,-0.37189 -0.22705,-0.0605 0.0932,-0.45081 0.79627,-0.97073 0.77872,-0.57586 1.03352,-0.90762 0.75528,-0.98177 -0.23107,-0.0616 -0.29751,-0.22726 -0.14808,-0.36835 0.14941,-0.14107 0.36252,-0.16029 0.47353,-0.0427 0.111,0.11757 0.36958,0.0547 0.575,-0.13923 0.20538,-0.19391 0.22336,-0.3922 0.0397,-0.44118 -0.45862,-0.12226 -0.30286,-0.22782 1.14042,-0.77259 0.68758,-0.25957 1.25287,-0.57661 1.25654,-0.70454 0.004,-0.12794 0.42078,-0.20037 0.92655,-0.16057 0.50576,0.0398 1.01915,-0.13454 1.1407,-0.38764 0.12154,-0.25312 1.0747,-0.59303 2.11852,-0.75511 1.04382,-0.1621 1.99218,-0.38397 2.10735,-0.49369 0.11524,-0.10966 -0.91898,-0.007 -2.29822,0.22757 -1.37922,0.23497 -2.59556,0.60812 -2.70333,0.82898 -0.10778,0.22086 -0.34336,0.32281 -0.52339,0.22624 -0.17995,-0.0965 -0.59592,-0.002 -0.92468,0.20997 -0.32875,0.21193 -0.64851,0.38891 -0.71062,0.39377 -0.0621,0.005 -0.21707,0.0722 -0.34426,0.14951 -0.12716,0.0773 -0.62003,0.23938 -1.09532,0.36043 -0.4753,0.12106 -0.94094,0.32161 -1.03489,0.44552 -0.41567,0.54821 -0.90598,0.7689 -0.97401,0.43849 -0.0408,-0.1981 -0.37864,-0.34072 -0.75052,-0.31692 -0.77917,0.0499 -1.06065,-0.63976 -0.37603,-0.9214 0.597,-0.24561 0.24408,-1.10392 -0.46234,-1.12421 -0.76546,-0.022 0.0222,-1.58982 0.92627,-1.84396 0.36902,-0.10376 0.59519,-0.26837 0.50327,-0.36572 -0.0919,-0.0974 0.20249,-0.19047 0.65408,-0.20678 0.45158,-0.0163 1.19061,-0.2161 1.6424,-0.44416 0.45181,-0.22804 1.63134,-0.55181 2.62087,-0.71912 0.98952,-0.16728 1.88455,-0.38423 1.98859,-0.48247 0.43408,-0.40985 4.98961,0.0463 6.27213,0.62787 l 1.38823,0.62949 -2.15191,-0.03 c -3.12861,-0.0433 -2.92464,0.23577 0.3148,0.43055 1.5278,0.0919 2.85709,0.35821 2.95389,0.59182 0.0968,0.23362 0.35114,0.3885 0.56478,0.34449 0.21364,-0.044 0.56895,0.11887 0.78983,0.36155 z m 1.36522,5.11094 c 0.13688,-0.12923 -1.86384,-0.3148 -4.44578,-0.41203 -3.51727,-0.13245 -4.85978,-0.0204 -5.35398,0.44619 -0.36279,0.34253 -0.76156,0.51445 -0.88649,0.38214 -0.12492,-0.13231 -0.42993,-0.0504 -0.67819,0.18122 -0.24826,0.23166 -0.87256,0.66907 -1.38776,0.9713 -0.51519,0.30222 -0.8372,0.5395 -0.71518,0.52744 0.12202,-0.0121 0.83741,-0.057 1.58939,-0.0999 0.75194,-0.0429 1.02155,-0.13367 0.59909,-0.20177 -1.1578,-0.18665 -0.45098,-0.59301 0.89131,-0.51251 0.64516,0.0387 1.27824,-0.14924 1.40696,-0.41729 0.12871,-0.26804 0.61845,-0.49549 1.08779,-0.50541 0.46959,-0.01 0.86666,-0.19542 0.88331,-0.41185 0.0167,-0.21645 0.14783,-0.125 0.2914,0.20317 0.14359,0.32822 0.32303,0.498 0.39897,0.37666 0.32274,-0.51583 1.68008,-0.88774 1.76342,-0.48309 0.054,0.26202 0.14031,0.2529 0.21378,-0.0227 0.0678,-0.25448 0.2237,-0.35698 0.3461,-0.22734 0.30495,0.32298 3.68718,0.49719 3.99586,0.20574 z m 5.59703,6.53381 c 0.0497,0.0333 0.0774,0.0666 0.0765,0.0998 -0.003,0.0916 -0.24769,0.26688 -0.54455,0.38901 l -3.6e-4,-3.8e-4 c -0.57917,0.23827 -1.87819,-0.38719 -1.51549,-0.72965 0.21048,-0.19874 1.63589,0.008 1.98391,0.24118 z m -11.25813,-11.5864 c -0.0666,-0.0705 -0.46884,-0.0336 -0.89358,0.0818 -0.42441,0.11574 -0.7175,0.26757 -0.65091,0.33809 0.0666,0.0705 0.46849,0.0339 0.89322,-0.0815 0.42442,-0.11574 0.71786,-0.26793 0.65127,-0.33846 z m 7.13013,7.79551 c -0.0586,-0.0261 -0.10909,0.0151 -0.13927,0.12875 -0.0581,0.21787 -0.003,0.50501 0.12244,0.63775 0.34838,0.36897 0.45508,0.11378 0.20602,-0.4916 -0.064,-0.15547 -0.13052,-0.24879 -0.18911,-0.27487 z m -0.97287,-0.008 c -0.1481,-0.1197 -0.44881,-0.17804 -0.77404,-0.13481 -0.43366,0.0577 -1.42356,-0.0125 -2.19984,-0.15601 -0.7763,-0.14352 -1.72743,-0.0842 -2.1138,0.13234 -0.38638,0.21653 -0.9361,0.28183 -1.22147,0.14479 -0.31203,-0.14984 -0.66605,-0.0132 -0.88827,0.34261 -0.25869,0.41418 -0.42939,0.44572 -0.56894,0.1065 -0.24822,-0.60334 -0.65049,-0.26093 -0.70748,0.60184 -0.0288,0.43619 -0.0802,0.49553 -0.15841,0.18299 -0.11003,-0.43985 -0.78051,-0.47308 -1.46053,-0.0723 -0.17143,0.10107 -0.64393,0.3524 -1.05018,0.55804 -0.52895,0.26774 -0.63838,0.48007 -0.38486,0.74857 0.19471,0.20622 0.82123,0.34949 1.39241,0.31854 1.03746,-0.0562 1.03764,-0.0561 0.0863,-0.16534 -1.42882,-0.16409 -1.53399,-0.54264 -0.15175,-0.54611 0.66555,-0.002 1.13004,-0.0881 1.03235,-0.19153 -0.0977,-0.10345 0.0533,-0.2323 0.33541,-0.28684 0.28207,-0.0545 0.61477,-0.16514 0.73925,-0.24527 0.12449,-0.0801 0.31143,-0.17095 0.41523,-0.2023 0.21347,-0.0644 0.70558,-0.33226 1.06098,-0.57747 0.13109,-0.0905 0.71316,-0.16772 1.29352,-0.17159 0.58034,-0.004 0.9803,-0.0871 0.88813,-0.1847 -0.23779,-0.25184 1.8619,-0.0152 3.15114,0.35512 1.13581,0.32625 1.5075,0.21328 1.37738,-0.4185 -0.0108,-0.052 -0.0432,-0.0987 -0.0925,-0.13864 z m 4.03221,5.25514 c 0.0524,0.002 0.05,0.0708 -0.0136,0.20834 -0.11518,0.24896 -0.34494,0.4485 -0.51063,0.44375 -0.16569,-0.005 -0.0713,-0.20818 0.20966,-0.45239 0.1549,-0.13525 0.26219,-0.20121 0.31463,-0.19969 z m 8.21051,9.54793 c -0.0104,0.0528 -0.18088,0.076 -0.51797,0.101 -0.41808,0.031 -0.78727,-0.0733 -0.81989,-0.23153 -0.0698,-0.33904 -1.76344,-0.3072 -2.13125,0.0401 -0.13949,0.13171 -0.36075,0.0679 -0.49199,-0.14171 -0.13124,-0.20964 -0.41786,-0.18472 -0.63657,0.0552 -0.28034,0.3076 -0.51541,0.2503 -0.79792,-0.19399 -0.2204,-0.3466 -0.85341,-0.73831 -1.40654,-0.8702 -0.8599,-0.20497 -0.92972,-0.27106 -0.48079,-0.45575 0.28878,-0.11881 0.53275,-0.47689 0.54194,-0.79599 0.0127,-0.44118 0.15719,-0.54254 0.60363,-0.42353 0.37949,0.10116 0.54383,0.32815 0.46448,0.64173 -0.0806,0.31852 0.0606,0.32635 0.41096,0.0228 l 0.53386,-0.46281 -0.30501,0.70518 c -0.30191,0.6979 -0.29964,0.69967 0.23772,0.22614 0.48236,-0.42518 1.97661,0.008 3.37058,0.97593 0.1628,0.11314 0.60434,0.35124 0.98133,0.52898 0.30398,0.14333 0.45386,0.22571 0.44346,0.2785 z m -9.16078,-9.61868 c 0.0516,0.11612 -0.0967,0.24447 -0.49777,0.35349 -0.41239,0.11204 -0.87216,0.45899 -1.02193,0.77087 -0.22835,0.47554 -0.0127,0.56493 1.33738,0.55456 0.27379,-0.002 0.43586,0.0198 0.65313,0.0294 l -0.43268,0.67008 c -0.24397,0.37751 -0.52977,0.5951 -0.63495,0.4837 -0.1052,-0.11142 -0.52799,0.0119 -0.93931,0.27426 -0.41131,0.26237 -0.63862,0.5067 -0.50546,0.54257 0.13316,0.0359 -0.13526,0.47757 -0.59624,0.98159 -0.46098,0.50401 -0.88089,1.07696 -0.93328,1.27349 -0.16288,0.61098 0.0101,0.52543 0.69752,-0.34517 0.38939,-0.49308 1.08577,-0.91555 1.68607,-1.02268 1.32151,-0.23592 1.45601,-0.38452 1.57218,-1.74171 l 0.0956,-1.11586 c 1.50679,0.0679 1.74609,0.41742 0.79874,1.31189 -0.48544,0.45835 -0.84486,1.01556 -0.79885,1.23897 0.046,0.2234 0.27321,0.22745 0.50495,0.009 0.2317,-0.21877 0.50999,-0.20886 0.61862,0.0221 0.25621,0.54503 -0.91847,1.94692 -1.61479,1.92693 -0.29572,-0.008 -0.89729,0.30884 -1.33698,0.70515 -0.68382,0.6165 -0.7555,0.61872 -0.49469,0.0158 0.26566,-0.61417 0.19971,-0.61765 -0.51064,-0.0267 -0.44823,0.37315 -0.95086,0.8469 -1.11664,1.05295 -0.16577,0.20602 -0.33547,0.20795 -0.3774,0.005 -0.0909,-0.44137 -1.09521,0.55085 -1.28332,1.26781 -0.0759,0.28929 -0.24662,0.38088 -0.40246,0.21583 -0.14903,-0.15783 -0.30903,-0.14421 -0.35546,0.03 -0.096,0.36034 -2.35304,1.14978 -3.25804,1.13949 -0.92362,-0.0105 1.37305,-2.45539 2.51552,-2.67788 1.16786,-0.22743 2.83023,-2.0525 2.34134,-2.57028 -0.50433,-0.53415 -1.54723,0.22039 -1.35587,0.98098 0.087,0.34559 0.0183,0.75728 -0.15311,0.91499 -0.19045,0.1757 -0.25198,0.0531 -0.15763,-0.31599 0.11658,-0.45592 0.014,-0.60752 -0.42124,-0.62001 -0.6414,-0.0184 -1.02206,0.81187 -0.44301,0.96625 0.20261,0.054 0.12493,0.19815 -0.17223,0.32039 -0.29715,0.12224 -0.56992,0.0772 -0.6065,-0.10039 -0.0366,-0.17755 -0.62438,0.12564 -1.30611,0.67388 -0.68174,0.54824 -1.17868,1.15896 -1.10421,1.35743 0.0745,0.19843 -0.0777,0.15364 -0.33819,-0.1 -0.41265,-0.40165 -0.48704,-0.36318 -0.57448,0.29934 -0.0877,0.66468 -0.13192,0.68518 -0.35125,0.16392 -0.13805,-0.3281 -0.42586,-0.56027 -0.63953,-0.51624 -0.21365,0.044 -0.27289,0.20251 -0.13184,0.3519 0.14107,0.14941 0.064,0.45337 -0.1711,0.67539 -0.23516,0.22204 -0.42301,0.25742 -0.4179,0.079 0.0105,-0.36534 -2.29623,-0.42745 -2.67272,-0.072 -0.13381,0.12634 -0.37455,0.0911 -0.5344,-0.0782 -0.22604,-0.23941 -0.15769,-0.30394 0.30774,-0.29056 0.32913,0.009 1.02794,-0.38778 1.55228,-0.88286 0.52434,-0.49507 1.10993,-0.81621 1.3014,-0.7135 0.24354,0.13077 0.48325,-0.0922 0.79712,-0.74025 0.28456,-0.58792 0.53532,-0.83536 0.68511,-0.67671 0.12991,0.13759 0.41613,0.0804 0.63607,-0.12724 0.25162,-0.23757 0.21616,-0.4294 -0.0956,-0.51671 -0.37781,-0.10581 -0.34376,-0.15344 0.14437,-0.20164 0.35194,-0.0348 1.23099,-0.47823 1.9533,-0.98503 0.7223,-0.5068 1.72438,-1.17977 2.22677,-1.49555 0.50241,-0.31576 1.17217,-0.82042 1.48822,-1.12158 0.31606,-0.30117 0.67232,-0.44413 0.79143,-0.31798 0.11911,0.12615 0.37989,0.0748 0.57975,-0.11387 0.19986,-0.1887 0.51901,-0.2595 0.70895,-0.15767 0.2354,0.12623 0.47145,-0.0871 0.74193,-0.66998 0.21829,-0.47037 0.23901,-0.71976 0.0459,-0.55433 -0.1931,0.16541 -0.3889,0.11807 -0.43491,-0.10534 -0.0473,-0.22987 -0.36499,-0.1408 -0.7319,0.20563 -0.4709,0.44462 -0.70753,0.46887 -0.86415,0.0881 -0.17133,-0.41644 -0.4818,-0.29293 -1.51019,0.60076 -0.7122,0.61841 -1.71123,1.56786 -2.22085,2.10928 -0.54452,0.5789 -0.95927,0.82349 -1.0066,0.59365 -0.10302,-0.50014 -3.16151,1.78833 -7.58935,5.67894 -0.10922,0.0962 -0.25567,0.0573 -0.32469,-0.0865 -0.069,-0.14375 -0.84769,-0.27474 -1.73024,-0.29094 -1.71754,-0.0315 -2.56267,-0.36958 -1.00616,-0.40249 0.64714,-0.0137 1.0895,-0.266 1.44606,-0.82449 0.33396,-0.5231 0.54401,-0.65628 0.60059,-0.38157 0.13094,0.63576 0.49006,0.14436 0.72372,-0.99037 0.11412,-0.55415 0.2497,-0.80248 0.30135,-0.55175 0.1155,0.5608 1.15227,-0.12946 4.54631,-3.02607 1.3887,-1.18522 2.69828,-2.11084 2.90968,-2.05719 0.2114,0.0537 1.07668,-0.39805 1.92277,-1.00382 1.68089,-1.20343 1.8682,-1.11438 0.86628,0.41089 -0.64082,0.97559 -0.63052,0.97428 0.42031,-0.0479 0.6878,-0.66894 1.38707,-1.04336 1.93354,-1.03531 0.47084,0.007 1.39299,0.003 2.04885,-0.009 0.94936,-0.0172 1.58994,0.14299 1.67593,0.33655 z m 3.89314,4.19174 c 0.21643,0.22922 0.12731,0.60756 -0.22025,0.93572 -0.32086,0.30294 -0.76142,0.503 -0.9793,0.44492 -0.22713,-0.0605 -0.16485,-0.20052 0.14615,-0.32847 0.29827,-0.12271 0.42118,-0.35106 0.27374,-0.50721 -0.14746,-0.15617 -0.11366,-0.42928 0.0745,-0.60688 0.18811,-0.17761 0.5054,-0.14971 0.70521,0.0619 z m -18.81559,-18.30043 -1.1526,0.0634 c -0.63401,0.0351 -1.50708,0.15097 -1.94045,0.25721 -0.66242,0.16238 -0.68567,0.20585 -0.14488,0.27185 0.35381,0.0432 1.22723,-0.0723 1.94081,-0.25684 z m 4.14791,6.19137 c -7.4e-4,0.0257 -0.17757,0.0465 -0.5316,0.079 -0.42971,0.0395 -0.82264,0.0282 -0.87296,-0.0251 -0.19933,-0.21112 0.13948,-0.27394 0.878,-0.16306 0.3516,0.0528 0.5273,0.0833 0.52656,0.10907 z m 5.81971,6.34061 c 0.19117,0.0756 0.0227,0.21072 -0.56519,0.5478 -1.18726,0.68077 -1.26009,0.67442 -0.7949,-0.0704 0.21501,-0.34422 0.68198,-0.58326 1.05109,-0.53826 0.14141,0.0172 0.24525,0.0356 0.30897,0.0608 z m 5.89884,7.99009 c 0.0617,-0.0141 -0.0127,0.11487 -0.20807,0.38407 -0.40459,0.55748 -0.38572,0.68282 0.0932,0.6128 0.4071,-0.0596 0.0484,0.32372 -1.10838,1.18363 -0.94074,0.69938 -1.92213,1.45232 -2.18069,1.67307 -0.62935,0.53742 -0.69908,0.39183 -0.25181,-0.52413 0.32706,-0.6698 0.20515,-0.65896 -1.00891,0.0876 l -1.38133,0.84938 0.72741,-0.94053 c 0.82123,-1.06154 3.8263,-2.96676 3.81047,-2.41589 -0.006,0.1972 0.39917,0.002 0.89931,-0.43405 0.34923,-0.30444 0.54705,-0.46192 0.60877,-0.47605 z m -3.53762,-3.52317 c -0.0537,-0.0404 -0.19299,0.0877 -0.46762,0.34703 -0.30912,0.29186 -0.44135,0.65789 -0.29389,0.81406 0.14744,0.15616 0.0323,0.38109 -0.25597,0.49968 -0.28829,0.11861 -0.41868,0.32737 -0.28969,0.46399 0.34996,0.37064 1.09699,-0.49646 1.25928,-1.46191 0.0695,-0.41372 0.10156,-0.62244 0.0479,-0.66283 z m -4.07487,-4.13885 c 0.0277,0.0697 -0.058,0.17906 -0.24629,0.35412 -0.25451,0.23618 -0.70872,0.47701 -1.00969,0.53543 -0.42449,0.0824 -0.46653,-0.0228 -0.18719,-0.46999 0.19803,-0.31709 0.65269,-0.55823 1.01006,-0.53579 0.26468,0.0166 0.40545,0.0466 0.43314,0.11626 z m -12.05049,-11.99958 c -0.1395,-0.14774 -2.28228,0.43141 -2.55756,0.69133 -0.26783,0.25287 0.0588,0.20803 1.44457,-0.1998 0.67868,-0.19974 1.17958,-0.421 1.11299,-0.49153 z m 5.87501,6.2223 c 0.0666,0.0705 -0.3068,0.1373 -0.83006,0.14836 -0.52325,0.0111 -1.00615,-0.0374 -1.07274,-0.10794 -0.0666,-0.0705 0.30718,-0.13763 0.83043,-0.1487 0.52326,-0.011 1.00577,0.0378 1.07237,0.10828 z m -2.3827,-2.26686 c -0.005,-0.0165 -0.10163,-0.0355 -0.29041,-0.0584 -0.29664,-0.036 -0.78209,0.13261 -1.07927,0.37442 -0.29718,0.24181 -0.37883,0.4827 -0.18097,0.53546 0.19786,0.0528 0.45378,-0.0994 0.56865,-0.33863 0.11487,-0.23925 0.43907,-0.45088 0.72013,-0.47027 0.17894,-0.0123 0.26646,-0.0262 0.26187,-0.0426 z m 5.41959,8.47385 c -0.001,0.0289 -0.0243,0.0803 -0.0713,0.15553 -0.1882,0.30064 -0.53874,0.62309 -0.77872,0.71682 -0.23998,0.0937 -0.0855,-0.15204 0.3425,-0.54654 0.32086,-0.29607 0.51169,-0.41257 0.50761,-0.32576 z m -7.42276,-7.05085 c -0.0924,-0.0606 -0.31319,-0.0389 -0.57113,0.068 -0.497,0.20598 -0.49865,0.26315 -0.008,0.27907 0.33951,0.011 0.62083,-0.10561 0.62523,-0.25915 0.001,-0.0385 -0.0153,-0.0678 -0.0461,-0.088 z m 0.82791,2.7278 c -0.0842,-0.0891 -0.77698,-0.0711 -1.53906,0.0403 -0.76211,0.11142 -1.07274,0.24666 -0.69076,0.30039 0.38201,0.0537 0.69787,0.27293 0.70216,0.48698 0.004,0.21406 0.13235,0.14455 0.28444,-0.15414 0.15229,-0.29887 0.52883,-0.53645 0.83655,-0.52761 0.30768,0.009 0.49084,-0.0567 0.40667,-0.14588 z m -2.1238,-1.73522 c -0.14106,-0.1494 -0.37205,-0.16256 -0.51313,-0.0294 -0.14108,0.13321 -0.2082,0.29285 -0.14946,0.35506 0.0588,0.0622 0.28935,0.0757 0.51275,0.0297 0.22341,-0.046 0.29089,-0.20603 0.14984,-0.35541 z m -4.43926,-4.62419 c -0.0115,0.0659 -0.18621,0.16344 -0.52966,0.32952 -0.61582,0.29699 -0.67068,0.4137 -0.25066,0.5309 0.45039,0.12576 0.41374,0.15978 -0.22306,0.20786 -0.41874,0.0316 -0.79233,-0.092 -0.82998,-0.2746 -0.0376,-0.18262 -0.25862,-0.29342 -0.49121,-0.24551 -0.2326,0.0479 -0.31638,0.16684 -0.18632,0.26409 0.13016,0.0971 0.38094,0.35713 0.55751,0.57735 0.24951,0.31161 0.18759,0.39653 -0.27782,0.3832 -0.32915,-0.009 -0.71808,0.0989 -0.86416,0.24095 -0.14607,0.14205 0.0134,0.20702 0.35412,0.14397 0.53927,-0.0998 0.56585,-0.0636 0.20648,0.28263 l -3.8e-4,3.6e-4 c -0.27004,0.26047 -0.61881,0.17938 -1.00845,-0.2333 -0.80517,-0.85276 -0.76565,-0.99559 0.64475,-2.32728 1.1967,-1.12991 2.08428,-1.3837 1.85692,-0.53084 -0.0778,0.29199 0.10961,0.45403 0.59394,0.5131 0.30824,0.0376 0.45975,0.0716 0.44825,0.13752 z m 17.9581,19.13704 c -0.0525,-0.002 -0.15938,0.0648 -0.31463,0.1997 -0.28093,0.24421 -0.37535,0.44765 -0.20966,0.45239 0.16569,0.005 0.39542,-0.19483 0.51063,-0.44375 0.0637,-0.13754 0.0661,-0.20683 0.0137,-0.20834 z M 252.82632,-418.096 c 0.0459,0.0634 0.0649,0.14795 0.0618,0.2551 -0.0123,0.42849 -0.39799,0.54262 -1.54664,0.45751 -1.77361,-0.1314 -1.72084,-0.33113 0.19518,-0.73793 0.77002,-0.1635 1.15206,-0.16489 1.28969,0.0253 z m 7.16314,9.06566 c -0.0766,-0.0557 -0.17166,-0.0806 -0.26657,-0.061 -0.18981,0.0391 -0.18662,0.23892 0.007,0.44435 0.40837,0.43252 0.52503,0.39423 0.41556,-0.13721 -0.0214,-0.10397 -0.0797,-0.19045 -0.15633,-0.24613 z m -7.95976,-7.91692 c 0.0367,0.10919 -0.13417,0.3021 -0.48084,0.52799 -0.42363,0.27594 -0.73746,0.66027 -0.69751,0.85403 0.0399,0.19374 -0.16733,0.54657 -0.46009,0.78407 -0.29275,0.23749 -0.52897,0.33126 -0.52544,0.20827 0.004,-0.12298 -0.26858,-0.2575 -0.60447,-0.29846 -0.41703,-0.0509 -0.5244,-0.15588 -0.33813,-0.33175 0.15003,-0.14165 0.42102,-0.21813 0.60219,-0.16988 0.18116,0.0482 0.70529,-0.32754 1.1649,-0.83549 0.45962,-0.50796 1.01435,-0.87631 1.23238,-0.8182 0.0595,0.0159 0.0948,0.0431 0.10706,0.0794 z m 13.5086,14.81747 c -0.0524,-10e-4 -0.15977,0.0652 -0.31501,0.20006 l 3.5e-4,3.7e-4 c -0.28093,0.24421 -0.37536,0.44766 -0.20965,0.4524 0.16569,0.005 0.3958,-0.19519 0.511,-0.44411 0.0637,-0.13754 0.0657,-0.20721 0.0133,-0.20872 z m -5.32394,-5.10797 c -0.0587,-0.0753 -0.28396,0.10102 -0.76436,0.54687 -0.50495,0.46851 -1.18177,0.84414 -1.50448,0.83488 -0.44992,-0.0129 -0.43857,0.0898 0.048,0.44005 0.68557,0.49343 0.2682,1.26724 -0.4946,0.91687 -0.33844,-0.15542 -0.36969,-0.12296 -0.14244,0.14948 0.40948,0.49093 1.33317,0.0326 1.42329,-0.70634 0.0416,-0.34049 0.32169,-0.72065 0.62267,-0.84447 0.30098,-0.12382 0.64132,-0.54405 0.75646,-0.93386 0.0657,-0.22252 0.0906,-0.35824 0.0555,-0.40344 z m -1.72647,-0.49847 c -0.025,-0.0101 -0.0539,0.14308 -0.1015,0.45404 -0.0592,0.38721 -0.25547,0.69965 -0.43595,0.69447 -0.18043,-0.005 -0.2617,0.0608 -0.18078,0.14649 0.37551,0.39772 0.86023,-0.0703 0.79595,-0.76858 -0.0316,-0.34284 -0.0527,-0.51635 -0.0777,-0.52644 z m -6.55711,-6.26198 c 0.24017,0.18605 0.0988,0.70368 -0.40331,0.94581 -0.33585,0.16197 -0.56519,0.5155 -0.50949,0.78595 0.0675,0.32779 0.18308,0.32092 0.34714,-0.0207 0.13538,-0.2819 0.51221,-0.55638 0.83747,-0.61021 0.45888,-0.0759 0.46188,-0.007 0.0135,0.30637 -0.34182,0.23899 -0.43971,0.55448 -0.24042,0.77283 0.18579,0.2026 0.25594,0.52088 0.15628,0.70672 -0.26628,0.49638 -1.34842,-0.61765 -1.4487,-1.49136 -0.0656,-0.57152 0.0529,-0.74677 0.49521,-0.73408 0.44228,0.0127 0.50811,-0.0603 0.27599,-0.30611 -0.16769,-0.17761 -0.11918,-0.36138 0.10786,-0.40815 0.16576,-0.0341 0.28836,-0.009 0.36842,0.053 z m -3.62518,-3.82927 c 0.10001,0.0795 0.099,0.20288 -0.0193,0.31455 -0.1577,0.1489 -0.10621,0.31886 0.11418,0.37762 0.2204,0.0587 0.28565,0.21571 0.145,0.34851 -0.14064,0.13279 -0.45632,-0.006 -0.70142,-0.30856 -0.47863,-0.59009 -0.32194,-0.96862 0.32879,-0.79515 0.0551,0.0147 0.0994,0.0365 0.1327,0.0631 z m 6.07748,9.11492 c 0.29192,0.32782 -0.15786,0.87021 -0.73703,0.71583 -0.21075,-0.0562 -0.49104,0.122 -0.62258,0.39594 -0.13152,0.27391 -0.0573,0.54654 0.16466,0.6057 0.48074,0.12816 0.2979,1.05026 -0.3263,1.65063 l 3.5e-4,3.8e-4 c -0.25741,0.24717 -0.62247,0.23632 -0.86528,-0.0252 -0.33634,-0.36205 -0.30719,-0.42396 0.14485,-0.30875 0.32201,0.0821 0.68161,-0.0995 0.83683,-0.42269 0.14972,-0.31179 0.0881,-0.61609 -0.13741,-0.67621 -0.22553,-0.0601 -0.47277,0.0974 -0.54925,0.35015 -0.0765,0.25272 -0.14283,0.27586 -0.14699,0.0513 -0.004,-0.22451 0.1028,-0.57424 0.2369,-0.77732 0.13409,-0.20308 0.47831,-0.72377 0.76542,-1.15695 0.37238,-0.56186 0.6773,-0.71281 1.06355,-0.52731 0.0738,0.0354 0.13055,0.0777 0.17228,0.12448 z m -6.16205,-6.09273 c 0.15952,0.19517 0.30633,0.48422 0.30028,0.69514 -0.004,0.14507 -0.17547,0.0859 -0.38115,-0.13193 -0.20566,-0.21782 -0.33823,-0.53066 -0.29442,-0.69498 0.0439,-0.16464 0.2158,-0.0634 0.37529,0.13177 z m 3.03338,3.9737 c 0.1019,0.18308 0.0616,0.44623 -0.12386,0.69832 -0.27316,0.37111 -0.38762,0.39803 -0.31946,0.0749 0.0698,-0.33113 -0.0973,-0.55533 -0.4897,-0.65557 -0.40287,-0.10296 -0.49878,-0.0471 -0.297,0.17246 0.16433,0.17841 0.20263,0.41491 0.0851,0.52592 -0.11757,0.111 -0.37728,0.0287 -0.57709,-0.1829 -0.19981,-0.21162 -0.18233,-0.5593 0.039,-0.7724 0.31776,-0.30553 0.28708,-0.3643 -0.14478,-0.28049 -0.42362,0.0822 -0.46481,-0.0256 -0.18297,-0.47683 0.26953,-0.43151 0.49998,-0.44609 0.88773,-0.0564 0.28804,0.28949 0.72598,0.64932 0.97354,0.80001 0.0655,0.0398 0.11553,0.0921 0.14979,0.15281 z m -2.48822,-2.57661 c 0.0524,0.0555 -0.0153,0.33064 -0.15026,0.61166 -0.13494,0.28101 -0.35084,0.3992 -0.47983,0.26258 -0.12903,-0.13665 -0.0617,-0.41222 0.1499,-0.61202 0.21161,-0.19981 0.42787,-0.31763 0.48019,-0.26222 z m 6.66955,7.26027 c 0.064,0.0707 -0.0297,0.17359 -0.26289,0.26954 -0.60539,0.24906 -0.86021,0.14199 -0.49124,-0.20638 0.13275,-0.12534 0.41951,-0.18016 0.63738,-0.12208 0.0568,0.0151 0.0955,0.0353 0.11672,0.0589 z m -0.43649,1.01907 c 0.15407,0.11759 0.25938,0.32467 0.25347,0.53039 -0.01,0.33243 -0.18037,0.45465 -0.51209,0.36619 -0.34168,-0.0911 -0.33076,-0.1669 0.0344,-0.24211 0.35229,-0.0726 0.37534,-0.15156 0.0681,-0.23346 -0.34131,-0.091 -0.53241,0.0817 -0.72355,0.65332 -0.19392,0.57992 -0.41012,0.76587 -0.85314,0.73511 -0.44969,-0.0312 -0.47432,-0.0704 -0.10172,-0.16265 0.27036,-0.0669 0.37642,-0.24416 0.23538,-0.39353 -0.33768,-0.35765 0.87062,-1.48724 1.43131,-1.33767 0.0599,0.0159 0.1166,0.0453 0.16794,0.0845 z m -3.74485,-3.88188 c 0.0523,0.0656 0.0606,0.25725 0.0506,0.60535 -0.019,0.66276 0.0805,0.80039 0.51902,0.71531 0.41255,-0.0801 0.43627,-0.003 0.0979,0.32195 l -3.8e-4,3.6e-4 c -0.24483,0.23529 -0.51315,0.32857 -0.5967,0.20732 -0.59495,-0.86363 -0.71249,-1.38907 -0.38066,-1.70237 0.16304,-0.15395 0.25831,-0.21377 0.31021,-0.14792 z m 7.50152,8.43347 c -0.0525,-0.002 -0.15939,0.0648 -0.31464,0.1997 -0.28092,0.2442 -0.37535,0.44764 -0.20965,0.45239 0.1657,0.005 0.39543,-0.19482 0.51063,-0.44375 0.0637,-0.13754 0.0661,-0.20683 0.0137,-0.20834 z m -3.16944,-2.01017 c 0.12903,0.13665 -0.001,0.34538 -0.28968,0.46398 -0.28829,0.1186 -0.56688,0.1704 -0.61926,0.11492 -0.0524,-0.0555 0.0781,-0.26418 0.28968,-0.46398 0.21163,-0.19982 0.49024,-0.25157 0.61926,-0.11492 z m -0.51989,1.50506 c 0.14106,0.1494 0.0739,0.30904 -0.14947,0.35506 -0.2234,0.046 -0.29089,0.20602 -0.14985,0.3554 0.14107,0.1494 0.14094,0.38077 -1.3e-4,0.51397 -0.29188,0.27558 -0.66471,-0.0215 -0.65045,-0.51802 0.015,-0.52257 0.66624,-1.00683 0.9499,-0.70641 z"
       inkscape:export-filename="skipper_elements_salmon.svg"
       inkscape:export-xdpi="96"
       inkscape:export-ydpi="96" /><path
       id="path8980"
       style="fill:#D2D9DE;stroke-width:0.206799"
       d="m 239.99658,-432.52368 c -0.25254,-0.0327 -3.7289,3.23859 -5.96206,5.61032 -0.86042,0.91377 -2.49788,2.65041 -3.63881,3.85932 -1.14094,1.2089 -2.05441,2.23958 -2.02998,2.29058 0.0244,0.051 0.72942,-0.61763 1.56659,-1.48595 0.83716,-0.86832 1.57414,-1.56041 1.6372,-1.53771 0.0633,0.0226 -0.20608,0.65858 -0.59846,1.41327 -0.39238,0.7547 -1.25973,2.42591 -1.92744,3.71369 -0.66767,1.28775 -1.28663,2.37045 -1.37551,2.40612 -0.25038,0.10048 -1.35424,-0.37189 -1.78025,-0.76187 -0.3862,-0.35355 -0.45412,-0.71776 -0.15621,-0.83731 0.29684,-0.11912 2.62122,-2.57781 2.48352,-2.62703 -0.0747,-0.0267 -1.12803,0.96304 -2.34093,2.19923 l -2.20539,2.24769 0.61508,1.14716 c 1.18023,2.20178 2.04791,3.22025 2.95185,3.46388 1.21411,0.32723 3.03335,0.37332 4.7055,0.11928 l 0.002,-4e-4 c 0.81424,-0.12372 2.18318,-0.47882 3.04245,-0.78929 1.36224,-0.49216 1.51188,-0.58467 1.16721,-0.72157 -0.25039,-0.0994 -0.40958,-0.0706 -0.43375,0.0788 -0.0983,0.60739 -4.54419,0.91153 -4.61344,0.31559 -0.0331,-0.28522 -0.0511,-0.2836 -0.11731,0.012 -0.0658,0.29377 -0.21421,0.30188 -0.9352,0.0512 -0.47131,-0.16388 -0.91207,-0.41345 -0.9853,-0.55239 -0.0706,-0.14033 -0.15948,-0.18171 -0.19732,-0.093 -0.0768,0.18004 -0.81481,-0.0353 -0.92746,-0.27053 -0.0396,-0.0828 -0.29883,-0.18073 -0.57622,-0.21781 -0.27734,-0.0371 -0.54998,-0.16234 -0.60549,-0.27823 -0.0555,-0.11589 -0.28106,-0.29172 -0.50147,-0.39085 -0.53479,-0.24056 -2.22957,-1.72777 -2.15857,-1.89423 0.0308,-0.0723 0.27018,-0.23192 0.53194,-0.3546 0.2617,-0.12266 0.41513,-0.26145 0.34112,-0.30842 -0.0742,-0.0469 -0.0304,-0.17976 0.0974,-0.29542 0.12836,-0.11613 0.35453,-0.096 0.50507,0.0448 0.47931,0.44837 1.69753,1.08465 1.91356,0.99918 0.11483,-0.0455 0.56436,0.26109 0.99879,0.68084 0.43438,0.41978 0.87624,0.72876 0.98151,0.68651 0.10538,-0.0423 0.22288,0.1293 0.26136,0.38119 0.0412,0.27119 0.0952,0.34218 0.13231,0.17444 0.0785,-0.35466 1.6133,-0.66414 2.02744,-0.40886 0.21193,0.13074 0.25725,0.11628 0.17529,-0.0548 -0.058,-0.12525 -0.0164,-0.26337 0.0925,-0.30706 0.10886,-0.0437 0.23844,0.005 0.28778,0.10793 0.19474,0.40664 1.68202,0.72636 2.37703,0.51098 0.39157,-0.12137 0.96896,-0.29433 1.28292,-0.38413 0.31396,-0.0898 0.53471,-0.23834 0.49073,-0.33017 -0.044,-0.0918 0.0161,-0.15451 0.13345,-0.1393 0.11744,0.0152 0.31396,-0.18479 0.4364,-0.44444 0.29822,-0.63212 0.47157,-0.74774 0.80915,-0.53959 0.23267,0.14345 0.26621,0.13064 0.17205,-0.066 -0.0614,-0.13237 -0.30412,-0.30954 -0.53901,-0.3935 -0.30461,-0.10885 -0.6211,-0.5504 -1.09631,-1.54266 -0.41979,-0.87236 -0.68949,-1.2704 -0.72317,-1.06835 -0.11357,0.68146 -2.1658,-3.28887 -2.88002,-5.57181 -0.12758,-0.40776 -0.14602,-0.39933 0.76681,-0.34569 0.40648,0.0239 0.76299,-0.0131 0.79271,-0.0824 0.0295,-0.0691 -0.15715,-0.10519 -0.41456,-0.0802 -0.95896,0.0932 -0.5531,-0.26817 1.26969,-1.13073 4.75573,-2.25044 4.4096,-2.13071 4.88176,-1.69196 0.88259,0.82023 1.07261,1.1068 0.80563,1.21437 -0.15141,0.061 -0.16385,0.35312 -0.0297,0.69738 0.34659,0.88868 0.15504,1.11171 -0.94601,1.10116 -0.52597,-0.005 -0.98935,-0.0785 -1.02983,-0.163 -0.0405,-0.0845 -0.20941,-0.0992 -0.37545,-0.0326 -0.16604,0.0666 -1.07162,0.0836 -2.01236,0.0376 -2.58495,-0.12639 -2.11996,0.0667 0.67625,0.28084 1.63738,0.12537 2.58865,0.30691 2.84107,0.54217 0.20875,0.19451 0.4327,0.28302 0.49765,0.19682 0.13772,-0.18361 0.70243,1.00672 0.59539,1.25759 -0.0401,0.0938 0.02,0.25678 0.13399,0.36205 0.22575,0.20906 -0.38693,1.99896 -0.73158,2.13727 -0.11712,0.047 -0.483,-0.0926 -0.81303,-0.31012 -0.33004,-0.21755 -0.66291,-0.31193 -0.73998,-0.2097 -0.0783,0.10371 -0.12194,0.0665 -0.0987,-0.0841 0.0483,-0.31245 -1.30952,-1.23241 -1.62948,-1.10401 -0.11829,0.0474 -0.18407,0.014 -0.14649,-0.0741 0.0376,-0.0882 -0.81895,-0.67591 -1.90364,-1.30633 -1.08475,-0.6304 -1.9971,-1.08812 -2.02776,-1.01665 -0.0648,0.15172 1.63389,1.36789 2.30495,1.65035 0.25171,0.10693 0.39696,0.21887 0.32009,0.24971 -0.0768,0.0308 0.23484,0.24591 0.69257,0.47809 0.45773,0.23218 0.76329,0.45003 0.67906,0.48383 -0.0842,0.0338 0.0537,0.14836 0.30661,0.25481 0.57414,0.2417 1.73061,1.23528 2.09985,1.80387 0.35185,0.54193 0.31159,0.87429 -0.0786,0.64865 -0.24215,-0.14188 -0.26951,-0.12511 -0.13923,0.0869 0.25437,0.41338 0.28305,1.18037 0.0488,1.30161 -0.50882,0.26335 -0.60254,0.34284 -0.9027,0.76795 -0.17397,0.24647 -0.25966,0.56665 -0.19042,0.71123 0.0907,0.1893 0.16027,0.13168 0.24826,-0.20564 0.0934,-0.35818 0.15476,-0.40517 0.2616,-0.20023 0.12402,0.23827 0.14658,0.22922 0.20415,-0.0819 0.0576,-0.31114 0.10106,-0.3286 0.38999,-0.1565 0.27603,0.16457 0.29905,0.14528 0.17126,-0.1355 -0.0847,-0.18097 -0.0529,-0.31604 0.071,-0.30001 0.12388,0.016 0.21689,-0.13437 0.20668,-0.33421 -0.0144,-0.28138 0.0429,-0.32441 0.25387,-0.19112 0.18425,0.11638 0.22202,-0.0404 0.11636,-0.48467 -0.12621,-0.53061 -0.0914,-0.62067 0.18182,-0.46854 0.25965,0.14461 0.25774,0.0863 -0.009,-0.25077 -0.38635,-0.48795 -0.25248,-1.03663 0.37248,-1.52639 0.58162,-0.45579 1.26641,-1.66449 1.11828,-1.97377 -0.0771,-0.16101 -0.0111,-0.25761 0.1607,-0.23538 0.21487,0.0278 0.12299,-0.23335 -0.34874,-0.99234 -0.56356,-0.90658 -0.61312,-1.10407 -0.4146,-1.64977 0.47544,-1.3068 0.39236,-1.7978 -0.44258,-2.61101 -0.87414,-0.85137 -0.96691,-0.99282 -0.62137,-0.94812 0.1384,0.0179 0.2198,-0.0342 0.18078,-0.1156 -0.0774,-0.16162 -1.71448,0.51514 -3.34923,1.38453 -0.56902,0.30262 -1.68385,0.85712 -2.47769,1.23227 l -1.44335,0.68207 1.06554,-1.22413 c 0.5862,-0.67324 1.82836,-1.95868 2.76015,-2.85639 l 1.69398,-1.63201 0.55771,0.26352 0.5575,0.26395 -0.33225,-0.39484 c -0.24582,-0.29216 -0.25489,-0.49743 -0.0347,-0.78926 0.25198,-0.3339 0.33889,-0.35609 0.56645,-0.14535 0.47272,0.43781 2.70611,6.19488 2.47684,6.38456 -0.11332,0.0937 -0.10521,0.38085 0.0179,0.63805 0.26277,0.54866 0.29679,2.09579 0.0483,2.19552 -0.0943,0.0379 -0.0767,0.12891 0.0395,0.20221 0.11606,0.0733 0.11522,0.61328 -0.002,1.19977 -0.11691,0.58647 -0.17178,1.16657 -0.12237,1.2893 0.0496,0.12267 -0.0726,0.094 -0.27147,-0.0638 -0.33684,-0.26723 -0.34226,-0.26138 -0.0814,0.0871 0.15402,0.20581 0.2012,0.47852 0.10491,0.60601 -0.0963,0.12747 -0.28247,0.64979 -0.41355,1.16058 -0.20859,0.81296 -0.2764,0.89391 -0.54389,0.65023 -0.26767,-0.24405 -0.28239,-0.22633 -0.12041,0.14262 0.10176,0.23148 0.0904,0.66751 -0.0248,0.96883 -0.20089,0.52454 -0.21741,0.53308 -0.39753,0.20448 -0.14415,-0.26342 -0.1696,-0.22506 -0.10876,0.16486 0.05,0.32061 -0.0635,0.56565 -0.30756,0.66361 -0.21284,0.0854 -0.43029,0.30912 -0.483,0.49731 -0.0559,0.19979 -0.2934,0.3709 -0.57023,0.41112 -0.26089,0.0378 -0.44429,0.13113 -0.40781,0.20731 0.0365,0.0762 -0.26931,0.37999 -0.67956,0.67524 l -0.74602,0.53704 0.74732,-0.41098 c 2.13715,-1.17477 2.80838,-1.87606 3.63426,-3.79799 1.22295,-2.84579 1.53026,-5.86296 0.90097,-8.84484 -0.32398,-1.53501 -2.3839,-6.12024 -2.77221,-6.17047 z m 1.49788,4.41698 c -0.0489,-0.0187 -0.0202,0.10403 0.083,0.32997 l 2.7e-4,-1.1e-4 c 0.13927,0.30057 0.24897,0.42863 0.24465,0.2841 -0.004,-0.14452 -0.11873,-0.39026 -0.25311,-0.54653 -0.0337,-0.039 -0.0586,-0.0612 -0.0748,-0.0674 z m -9.3215,3.96761 -0.0572,0.73907 c -0.0313,0.40653 -0.11057,0.79304 -0.1763,0.85905 -0.0657,0.066 -0.0524,0.26028 0.0298,0.43173 0.14516,0.3031 0.14675,1.04386 0.009,4.23349 -0.0366,0.84643 -0.048,1.79887 -0.0252,2.11646 0.0385,0.53569 -0.13215,0.72255 -0.70377,0.77039 -0.12477,0.0104 -0.50714,0.0696 -0.84972,0.1315 -0.34264,0.0619 -0.59761,0.0527 -0.56597,-0.021 0.0314,-0.0735 -0.25736,-0.25896 -0.64147,-0.41188 -0.70291,-0.27983 -1.13275,-0.80704 -0.85716,-1.05129 0.0817,-0.0724 0.82379,-1.59147 1.64922,-3.37577 0.82543,-1.78429 1.65556,-3.5092 1.84474,-3.83303 z m 0.44422,-0.0419 0.70453,1.55336 c 0.70208,1.54842 2.05819,3.8558 2.38923,4.06497 0.0959,0.0605 0.11973,0.29221 0.0529,0.51483 -0.067,0.22273 -0.05,0.3129 0.0373,0.20054 0.10267,-0.13205 0.29439,0.0508 0.54166,0.51681 0.21045,0.39655 0.48272,0.78418 0.60522,0.86156 0.1357,0.0857 0.10256,0.12532 -0.0847,0.10109 -0.19563,-0.0253 -0.28062,0.11445 -0.23385,0.38435 0.0404,0.23336 0.0611,0.42926 0.046,0.43534 -0.0153,0.006 -0.26129,0.18724 -0.54681,0.40235 -0.60129,0.453 -1.10826,0.54364 -1.05342,0.18824 0.0249,-0.16163 -0.0313,-0.15368 -0.16391,0.0237 -0.38365,0.5131 -0.80602,0.62075 -1.53137,0.39017 -0.61364,-0.19509 -0.73243,-0.31561 -0.75714,-0.76895 -0.0161,-0.29578 -0.15193,-0.65136 -0.30163,-0.79004 -0.16264,-0.1506 -0.17052,-0.23886 -0.0197,-0.21932 0.13971,0.0181 0.23069,-0.50968 0.20355,-1.18042 -0.10247,-2.52928 -0.10136,-4.46962 0.004,-5.55488 z m 0.99899,0.78741 c -0.0438,-0.0202 0.0657,0.25834 0.29835,0.7442 0.31024,0.64783 0.47305,0.89823 0.36169,0.55675 -0.11135,-0.34147 -0.36516,-0.87141 -0.56405,-1.17776 -0.0498,-0.0766 -0.0814,-0.11644 -0.096,-0.12319 z m -8.85865,8.63285 c 0.0265,-0.002 0.067,0.014 0.12165,0.0477 0.16926,0.10463 0.29545,0.27272 0.27966,0.37385 -0.0156,0.10103 0.0708,0.14372 0.19272,0.0948 0.12177,-0.0489 0.20694,0.006 0.18904,0.12191 -0.0179,0.11586 0.0584,0.20663 0.1696,0.20188 0.11113,-0.004 0.3442,0.14151 0.51799,0.32505 0.21715,0.22921 0.23453,0.40757 0.0556,0.56945 -0.14335,0.12964 -0.2458,0.14132 -0.22802,0.0263 0.0178,-0.11501 -0.1613,-0.27811 -0.39763,-0.36259 -0.2364,-0.0845 -0.5757,-0.46651 -0.7581,-0.84737 -0.17493,-0.36943 -0.22218,-0.54382 -0.14254,-0.55102 z m 17.07661,-6.08227 c -0.0779,0.0288 -0.16667,0.12958 -0.22291,0.26288 -0.10834,0.25683 -0.0757,0.26851 0.15933,0.057 0.16274,-0.14644 0.22401,-0.29174 0.13635,-0.32307 -0.0219,-0.008 -0.0468,-0.006 -0.0728,0.003 z m -13.77302,5.61098 c -0.0417,0.002 -0.0172,0.11639 0.0723,0.30326 0.11933,0.24917 0.21323,0.33321 0.20856,0.18656 -0.005,-0.14665 -0.10234,-0.3506 -0.217,-0.45311 -0.0287,-0.0256 -0.05,-0.0375 -0.0639,-0.0367 z m -0.22218,0.52144 c -0.0417,0.002 -0.0171,0.11639 0.0723,0.30326 0.11933,0.24916 0.21282,0.33306 0.20815,0.18641 -0.005,-0.14665 -0.10235,-0.3506 -0.21701,-0.45312 -0.0286,-0.0256 -0.0496,-0.0373 -0.0635,-0.0366 z m 13.46105,-5.40191 c -0.0417,0.002 -0.0169,0.11627 0.0726,0.30314 0.11932,0.24916 0.21288,0.33304 0.2082,0.18639 -0.005,-0.14665 -0.10235,-0.3506 -0.217,-0.45312 -0.0287,-0.0256 -0.0499,-0.0372 -0.0638,-0.0364 z m 1.89027,-0.38642 c -0.0455,0.046 -0.0215,0.19521 0.032,0.48778 8e-5,5.6e-4 6.2e-4,0.002 0.001,0.003 0.0199,-0.0316 0.0388,-0.0635 0.0409,-0.0987 0.003,-0.0537 -0.0922,-0.0975 -0.0707,-0.14759 0.0213,-0.05 0.13971,-0.0146 0.16121,-0.0647 0.0547,0.0195 0.10763,-0.0432 0.1615,-0.0648 0.005,-0.002 0.0118,-0.003 0.0175,-0.004 -0.19059,-0.10028 -0.30149,-0.15208 -0.34329,-0.10971 z m 0.0937,0.0317 c 0.0325,-0.013 0.0326,0.0356 0.0388,0.081 -0.0323,-0.0349 -0.0713,-0.0679 -0.0388,-0.081 z m -2.51546,1.2161 c -0.0417,0.002 -0.017,0.1163 0.0725,0.30317 0.11932,0.24917 0.21288,0.33303 0.2082,0.18639 -0.005,-0.14665 -0.10234,-0.35059 -0.217,-0.45311 -0.0287,-0.0256 -0.0499,-0.0372 -0.0637,-0.0365 z m -9.44572,5.5007 c -0.0117,0.0274 0.005,0.0967 0.0504,0.20415 0.0829,0.19449 0.18074,0.2828 0.21772,0.19617 0.0368,-0.0866 -0.0309,-0.24588 -0.15075,-0.35374 -0.0663,-0.0596 -0.10573,-0.074 -0.11737,-0.0466 z m -0.35524,0.16063 c -0.0417,0.002 -0.0172,0.11639 0.0723,0.30326 0.11933,0.24916 0.21282,0.33305 0.20816,0.1864 -0.005,-0.14665 -0.10222,-0.35033 -0.21688,-0.45284 -0.0287,-0.0256 -0.0497,-0.0376 -0.0636,-0.0369 z m 9.0373,-3.21274 c -0.0117,0.0274 0.005,0.0967 0.0504,0.20414 0.0829,0.19449 0.18078,0.28277 0.21771,0.19617 0.0368,-0.0866 -0.0308,-0.24561 -0.15062,-0.35348 -0.0662,-0.0596 -0.10585,-0.0742 -0.11749,-0.0468 z m -4.99769,2.86981 c -0.0117,0.0274 0.005,0.0967 0.0504,0.20415 0.0829,0.19449 0.18079,0.28278 0.21772,0.19617 0.0368,-0.0866 -0.0309,-0.24588 -0.15076,-0.35374 -0.0662,-0.0596 -0.10572,-0.074 -0.11736,-0.0466 z m 1.91669,0.66154 c -0.10246,0.0411 -0.20226,0.17818 -0.22181,0.30484 -0.0196,0.12666 0.10326,0.1747 0.27301,0.10658 0.16969,-0.0681 0.26942,-0.20544 0.22169,-0.3051 -0.0477,-0.0997 -0.17042,-0.14744 -0.27289,-0.10632 z"
       inkscape:export-filename="skipper_elements_lemon.svg"
       inkscape:export-xdpi="96"
       inkscape:export-ydpi="96" /><path
       id="path10658"
       style="fill:#D2D9DE;stroke-width:0.168323"
       d="m 234.43915,-404.36199 c -0.006,0.10997 0.3485,0.56984 0.78752,1.02209 0.84337,0.86883 0.94265,1.06263 0.5334,1.04039 -0.13862,-0.008 -0.25622,0.062 -0.26125,0.15448 -0.005,0.0925 0.1066,0.17444 0.24819,0.18206 0.14161,0.008 0.29223,0.12094 0.33448,0.25204 0.0504,0.15637 0.49248,0.30021 1.2865,0.41829 0.66533,0.099 1.31564,0.2547 1.44526,0.34593 0.14773,0.10391 -0.10141,0.1077 -0.66726,0.0102 -0.6488,-0.11182 -0.8729,-0.10046 -0.79631,0.04 0.0604,0.11078 0.34259,0.17272 0.6508,0.14301 0.39142,-0.0377 0.45075,-0.0177 0.21142,0.072 -0.25196,0.0944 -0.28148,0.16029 -0.12217,0.27113 0.11569,0.0806 0.26267,0.0754 0.32657,-0.0114 0.0639,-0.0868 0.33223,-0.19865 0.59649,-0.24836 1.01927,-0.19171 0.23764,-0.71766 -1.23115,-0.8284 -0.4386,-0.033 -0.79342,-0.13582 -0.78841,-0.22826 0.005,-0.0925 -0.19862,-0.18179 -0.45269,-0.19846 -0.4187,-0.0276 -0.4334,-0.0498 -0.15727,-0.2367 0.2895,-0.196 0.29076,-0.2191 0.0253,-0.46557 -0.15364,-0.14262 -0.58974,-0.48184 -0.969,-0.75391 -0.37925,-0.27207 -0.68543,-0.56933 -0.68047,-0.66046 0.0125,-0.2307 0.0529,-0.21659 0.85145,0.29936 0.88698,0.57302 1.36377,0.63153 1.26647,0.1552 -0.0383,-0.18751 -0.0194,-0.33811 0.0421,-0.33476 0.0615,0.003 0.19811,0.16238 0.30353,0.35353 0.23532,0.42667 0.51964,0.46662 0.54084,0.0761 0.0104,-0.19105 0.25126,0.008 0.70845,0.58642 0.38103,0.48173 0.65314,0.93434 0.60468,1.00574 -0.0484,0.0715 -0.17869,0.046 -0.28928,-0.0565 -0.1106,-0.10242 -0.25999,-0.13347 -0.33237,-0.0684 -0.0722,0.0648 -0.10073,0.0174 -0.0632,-0.10537 0.0376,-0.12279 -0.10858,-0.30286 -0.32471,-0.40015 -0.32258,-0.14522 -0.36112,-0.13387 -0.2155,0.0624 0.0976,0.13146 0.13139,0.28009 0.0751,0.33052 -0.29979,0.26892 0.87167,0.58263 2.90707,0.77843 l 2.24717,0.21612 -0.49661,0.52814 c -0.27306,0.2904 -0.53349,0.48674 -0.57879,0.43625 -0.0453,-0.0505 0.0139,-0.19561 0.13108,-0.3223 0.40054,-0.43254 -0.0781,-0.43666 -0.50744,-0.004 -0.23494,0.23653 -0.29845,0.34271 -0.1412,0.23582 0.2327,-0.15825 0.30121,-0.14695 0.36831,0.061 0.0492,0.15248 -0.10059,0.38395 -0.37146,0.57419 -0.51879,0.36433 -0.89145,0.41483 -0.58011,0.0786 0.36813,-0.39757 -0.24339,-0.47184 -1.32788,-0.16127 -0.55972,0.16029 -1.16743,0.23469 -1.35056,0.16544 -0.19183,-0.0726 -0.33706,-0.0499 -0.34267,0.0535 -0.0142,0.26095 0.91123,0.2698 1.62667,0.0155 0.81702,-0.29042 0.95962,-0.26694 0.69188,0.11411 -0.12261,0.17457 -0.17439,0.3717 -0.11489,0.43801 0.22529,0.25115 1.13137,-0.26307 2.36797,-1.34384 1.2286,-1.07381 1.30637,-1.11394 1.88894,-0.97156 0.40936,0.10008 0.91235,0.46272 1.54142,1.11218 0.51356,0.53002 1.02403,0.96844 1.13433,0.97426 0.11033,0.006 -0.23098,-0.42637 -0.75825,-0.9605 -0.52728,-0.53415 -0.88027,-0.97049 -0.78444,-0.96959 0.20033,0.002 1.95506,1.93694 1.82351,2.01078 -0.12753,0.0716 1.07408,1.51811 1.22656,1.47659 0.0712,-0.0194 0.54437,0.32864 1.0514,0.77345 0.50706,0.44476 1.45588,1.12683 2.10844,1.51584 0.65254,0.38906 1.00028,0.64479 0.77266,0.56817 -0.80906,-0.27234 -1.9543,-1.02614 -2.91645,-1.9195 -0.97341,-0.90379 -1.29928,-1.03161 -0.64288,-0.25223 l 0.34633,0.41117 -0.51597,-0.2117 c -0.28371,-0.11653 -0.59857,-0.32339 -0.69978,-0.45972 -0.10122,-0.13633 -0.25239,-0.21072 -0.33602,-0.16511 -0.0836,0.0456 -0.10773,-0.016 -0.0535,-0.13702 0.13294,-0.29713 -0.50474,-1.0412 -0.76817,-0.89635 -0.11381,0.0626 -0.38567,0.0807 -0.6042,0.0403 -0.34662,-0.0641 -0.3869,-0.0201 -0.31605,0.34508 0.0796,0.41013 0.067,0.41498 -0.62324,0.24074 -0.3874,-0.0979 -0.94637,-0.26466 -1.24192,-0.37069 -0.31544,-0.11317 -0.54066,-0.12951 -0.54554,-0.0398 -0.0119,0.21933 1.11925,0.84415 2.05239,1.13378 0.68323,0.21205 0.7441,0.26422 0.42451,0.36307 -0.47384,0.1466 -0.47723,0.26131 -0.0136,0.47757 0.35557,0.16591 0.35206,0.17209 -0.0928,0.15816 -0.25453,-0.008 -0.46681,0.0612 -0.47184,0.15365 -0.015,0.27578 1.04607,0.24855 2.10999,-0.0541 1.38336,-0.39347 1.75583,-0.33504 3.12128,0.48979 1.27504,0.77022 2.47506,1.23051 3.89322,1.49351 0.48833,0.0905 0.87979,0.096 0.88434,0.0122 0.0167,-0.30672 -0.38948,-0.57625 -0.91044,-0.60455 -0.94994,-0.0516 -2.64582,-0.79639 -3.87381,-1.7011 -1.37226,-1.01103 -2.70778,-2.52447 -2.67993,-3.03712 0.0346,-0.63773 0.71445,-1.55557 1.5282,-2.06332 0.44142,-0.27543 0.80841,-0.60829 0.81555,-0.7397 0.007,-0.1314 0.36056,-0.36039 0.78545,-0.50875 0.82535,-0.28818 0.93501,-0.56146 0.27785,-0.69211 -0.22211,-0.0442 -0.45854,-0.18987 -0.5254,-0.32365 -0.19695,-0.39399 -0.72152,-0.31264 -1.39381,0.21592 -0.34559,0.27171 -0.66777,0.45012 -0.7159,0.39646 -0.0482,-0.0537 -0.11221,-0.41095 -0.14257,-0.79397 -0.0303,-0.38302 -0.0911,-0.66449 -0.13468,-0.62538 -0.0436,0.0391 -0.0558,0.10882 -0.0277,0.15453 0.0285,0.0459 -0.10902,0.25218 -0.30566,0.45824 -0.2639,0.27657 -0.27734,0.31926 -0.0511,0.16292 0.18449,-0.12749 0.30274,-0.14085 0.2969,-0.0333 -0.005,0.0983 -0.0929,0.2243 -0.19475,0.27978 -0.18023,0.0983 0.22,0.76362 0.46745,0.77706 0.06,0.003 0.41256,-0.24302 0.78336,-0.54738 0.60728,-0.49845 1.49115,-0.75803 1.21126,-0.35572 -0.0622,0.0893 -0.22209,0.15659 -0.3553,0.14936 -0.13322,-0.007 -0.24683,0.071 -0.25242,0.17395 -0.007,0.1272 0.23988,0.16352 0.77044,0.11321 1.02904,-0.0976 0.83757,0.17611 -0.34136,0.4879 -0.49274,0.13033 -1.01415,0.33721 -1.15861,0.45958 -0.22751,0.1927 -0.18345,0.21187 0.32927,0.14334 l 0.59199,-0.0792 -0.87574,0.60705 c -0.48171,0.33381 -0.95148,0.60321 -1.04395,0.59865 -0.0925,-0.005 -0.17401,0.0987 -0.18112,0.22969 -0.007,0.13098 -0.10914,0.26461 -0.22678,0.29684 -0.15011,0.0411 -0.20148,-0.16834 -0.17248,-0.70226 0.0323,-0.59567 0.12542,-0.81323 0.42908,-1.00217 0.21332,-0.13274 0.31036,-0.24539 0.21583,-0.25052 -0.0945,-0.005 -0.26151,0.0711 -0.3712,0.16948 -0.14778,0.13256 -0.1881,0.0321 -0.15575,-0.38773 0.024,-0.31166 -0.01,-0.71248 -0.0751,-0.89058 -0.0733,-0.19966 -0.0264,-0.45541 0.12219,-0.66747 0.21999,-0.31403 0.21528,-0.32488 -0.055,-0.12519 -0.16274,0.12027 -0.34765,0.1566 -0.41084,0.0809 -0.0632,-0.0757 -0.0185,-0.16606 0.0992,-0.20108 0.11779,-0.035 0.21836,-0.14242 0.22354,-0.2385 0.006,-0.11295 -0.0752,-0.11156 -0.23058,0.004 -0.18172,0.13484 -0.28429,0.11903 -0.42095,-0.0651 -0.19668,-0.26503 -0.0435,-0.7844 0.22701,-0.76971 0.0925,0.005 0.11768,0.12179 0.056,0.25961 -0.0915,0.20452 -0.0491,0.22141 0.22987,0.091 0.24162,-0.1129 0.35591,-0.34305 0.38977,-0.78334 0.0492,-0.6505 0.081,-0.61873 0.23151,0.22938 0.0802,0.45174 0.10728,0.47249 0.23388,0.18111 0.16976,-0.3907 -0.0674,-1.09929 -0.37349,-1.11592 -0.13328,-0.007 -0.24994,0.25929 -0.30585,0.69876 l -0.0904,0.71044 -0.51572,-0.91152 c -0.28358,-0.50131 -0.78729,-1.15166 -1.11937,-1.44533 -0.65567,-0.57987 -1.46938,-1.00647 -1.48186,-0.77683 -0.0103,0.19062 0.3992,0.56355 0.50989,0.46427 0.0479,-0.0429 0.081,0.0353 0.0735,0.17388 -0.008,0.13864 -0.0957,0.2482 -0.1959,0.24322 -0.1002,-0.005 -5.5e-4,0.17111 0.22124,0.3913 0.22172,0.22023 0.33284,0.33948 0.24684,0.26528 -0.086,-0.0741 -0.21732,-0.13814 -0.29205,-0.1418 -0.22764,-0.0124 0.79723,1.46299 1.17674,1.69389 0.19555,0.11908 0.36058,0.29864 0.36673,0.3992 0.006,0.10056 0.0163,0.26347 0.0226,0.362 0.006,0.0985 0.0842,0.13937 0.17317,0.0908 0.0889,-0.0486 0.21149,0.003 0.27253,0.11526 0.0693,0.12704 0.0406,0.15436 -0.0766,0.0729 -0.11225,-0.0781 -0.19344,-0.0214 -0.20225,0.14137 -0.009,0.16278 0.0657,0.22816 0.18571,0.16273 0.11855,-0.0646 0.15115,-0.0386 0.0797,0.0641 -0.0665,0.0955 -0.031,0.20911 0.0787,0.25244 0.21187,0.0836 0.28323,0.98778 0.0771,0.97659 -0.21979,-0.0119 -0.43419,-0.43925 -0.36941,-0.7364 0.0349,-0.16037 0.007,-0.29471 -0.0626,-0.29848 -0.0694,-0.004 -0.20408,-0.20595 -0.29933,-0.44913 -0.0952,-0.24319 -0.54088,-0.9949 -0.99008,-1.67068 -0.44919,-0.67577 -0.80012,-1.27769 -0.77976,-1.33749 0.0202,-0.0599 -0.12284,-0.21558 -0.31827,-0.34595 -0.34927,-0.23297 -0.34817,-0.23477 0.0589,-0.11234 0.32023,0.0964 0.35926,0.0816 0.17195,-0.0652 -0.63575,-0.4986 -0.93013,-0.007 -0.34325,0.57377 0.18898,0.18689 0.71942,0.90706 1.17885,1.60041 1.19073,1.79708 1.37091,2.52861 0.46612,1.89286 -0.46933,-0.32975 -0.61939,-0.0538 -0.2252,0.41423 0.40431,0.48008 0.42507,0.64386 0.0791,0.62508 -0.38325,-0.0208 -0.32351,0.38235 0.12649,0.85359 0.22159,0.23203 0.49662,0.63859 0.61123,0.90338 0.18826,0.43493 0.12161,0.40248 -0.69044,-0.33582 -0.95954,-0.87233 -1.68889,-1.33992 -2.68876,-1.72441 -0.3421,-0.13155 -0.87185,-0.50209 -1.17734,-0.82325 -0.75204,-0.79061 -0.73413,-1.6945 0.047,-2.36551 0.93978,-0.80731 0.65306,-1.07529 -0.76188,-0.71179 -0.30073,0.0772 -0.38109,0.0332 -0.36831,-0.2018 0.009,-0.16528 0.14926,-0.43244 0.31199,-0.59372 0.38629,-0.3829 0.24755,-0.51578 -0.34225,-0.3275 -0.41997,0.1341 -0.45619,0.11864 -0.32725,-0.13952 0.0797,-0.15966 0.19459,-0.54443 0.25535,-0.85508 0.12051,-0.61655 -0.004,-0.61833 -0.75776,-0.0105 -0.53204,0.42885 -0.89507,0.0946 -0.84752,-0.78065 0.0348,-0.6406 -0.16482,-0.99971 -0.38223,-0.68723 -0.2077,0.29856 -0.38808,0.15852 -0.46273,-0.35947 -0.0781,-0.54192 -0.47326,-0.70733 -0.66516,-0.27836 -0.15858,0.35457 -0.39239,0.14947 -0.75095,-0.65886 -0.41178,-0.92837 -0.69642,-0.73315 -0.62351,0.42765 0.0522,0.83154 0.0289,0.90608 -0.28041,0.88928 -0.39249,-0.0213 -0.46642,0.34876 -0.13158,0.65882 0.1272,0.11774 0.18519,0.31665 0.12908,0.4421 -0.0623,0.13892 0.11037,0.36976 0.44154,0.59068 0.93756,0.62546 1.77828,1.37042 1.60132,1.41892 -0.0933,0.0256 -0.3604,-0.0937 -0.59331,-0.26507 -0.33204,-0.24432 -0.46939,-0.26973 -0.6361,-0.11801 -0.16555,0.15069 -0.14137,0.25414 0.10964,0.46822 0.29549,0.25196 0.23381,0.26008 -0.74216,0.098 -0.86066,-0.14298 -1.05234,-0.13221 -1.00213,0.0562 0.0341,0.12813 0.30849,0.3682 0.60984,0.5334 0.49892,0.27355 0.51915,0.31456 0.22395,0.45935 -0.2648,0.12986 -0.14214,0.1893 0.67008,0.32454 1.56813,0.26117 2.72599,0.5816 2.83705,0.78524 0.0683,0.12534 -0.0431,0.14351 -0.33706,0.0548 -0.24163,-0.0729 -0.62701,-0.18973 -0.85633,-0.25962 -0.31419,-0.0957 -0.3979,-0.0682 -0.33991,0.11143 0.0626,0.19386 -0.15864,0.21354 -1.18336,0.10586 -0.84946,-0.0893 -1.2636,-0.0715 -1.27043,0.054 -0.006,0.10257 0.0656,0.19074 0.15803,0.19575 0.0925,0.005 0.16368,0.0849 0.15879,0.17704 -0.005,0.0925 -0.19366,0.15814 -0.41931,0.14589 -0.22562,-0.0123 -0.45283,-0.10055 -0.50495,-0.19606 -0.13227,-0.24252 -0.57698,-0.24248 -0.59016,5e-5 z m 1.20371,-2.43084 c -4.2e-4,-0.0531 0.17514,-0.0233 0.61057,0.0653 0.41266,0.0839 0.77176,0.21992 0.79795,0.30237 0.0263,0.0825 0.21164,0.0731 0.41226,-0.0206 l 0.36483,-0.17032 -0.36953,-0.33417 c -0.20331,-0.18382 -0.28584,-0.32961 -0.18316,-0.32404 0.17386,0.009 0.43803,0.28067 0.94958,0.97509 0.16567,0.22489 0.26304,0.24542 0.46239,0.0975 0.13891,-0.10321 0.28972,-0.14597 0.33508,-0.0954 0.0454,0.0506 -0.0366,0.13028 -0.18223,0.17729 -0.14562,0.047 -0.2712,0.20134 -0.27892,0.34288 -0.008,0.14155 -0.0895,0.25342 -0.18184,0.24843 -0.0925,-0.005 -0.16459,-0.0763 -0.16002,-0.15884 0.005,-0.0823 -0.27025,-0.12744 -0.6104,-0.10031 -0.4539,0.0362 -0.65473,-0.0243 -0.75459,-0.22791 -0.0748,-0.15262 -0.26912,-0.28476 -0.43177,-0.29354 -0.16262,-0.009 -0.43615,-0.14082 -0.60779,-0.29354 -0.10868,-0.0966 -0.17219,-0.15826 -0.17242,-0.19008 z m 0.45719,-3.08032 c 0.0216,-0.071 0.13853,-0.0849 0.34402,-0.0191 0.31953,0.10235 0.34266,0.0622 0.26795,-0.46475 l -0.0818,-0.57683 0.30869,0.52248 c 0.16976,0.28735 0.30323,0.58947 0.29639,0.67145 -0.007,0.082 0.0847,0.22481 0.20352,0.31725 0.14511,0.11278 0.087,0.12353 -0.17712,0.0331 -0.26733,-0.0917 -0.35944,-0.0731 -0.28808,0.0577 0.0577,0.10585 0.0157,0.18755 -0.0938,0.18148 -0.15158,-0.008 -0.15432,0.0489 -0.0108,0.24214 0.1033,0.13918 0.31083,0.21346 0.46093,0.1651 0.19156,-0.0618 0.22986,-0.0262 0.12858,0.11934 -0.10733,0.15429 -0.0408,0.18733 0.26004,0.129 0.22256,-0.0432 0.30797,-0.0404 0.18952,0.006 -0.29387,0.11613 -0.29061,0.40179 0.004,0.30688 l 1e-5,-2.5e-4 c 0.1294,-0.0418 0.27405,0.0443 0.32149,0.19128 0.11694,0.36237 0.0561,0.34311 -0.96098,-0.30604 -0.53001,-0.3383 -0.84686,-0.64878 -0.79057,-0.77459 0.0516,-0.11553 -0.0175,-0.31342 -0.1539,-0.43975 -0.17588,-0.16292 -0.24965,-0.29102 -0.22802,-0.36203 z m -0.33826,9.64254 c -0.0131,0.0243 0.0764,0.0748 0.25671,0.17426 0.29217,0.1609 0.49595,0.14368 0.97816,-0.0832 0.33503,-0.15762 0.53699,-0.31518 0.44891,-0.34997 -0.0882,-0.0345 -0.31507,0.009 -0.50434,0.0976 -0.18929,0.0884 -0.55726,0.15434 -0.81789,0.14645 -0.23158,-0.007 -0.34818,-0.009 -0.36158,0.0149 z m 0.33284,-3.57304 c 0.005,-0.0895 0.12228,-0.15684 0.26096,-0.14929 0.13863,0.008 0.25047,0.0436 0.2485,0.0799 -0.002,0.0364 -0.11938,0.10338 -0.26095,0.14905 -0.14155,0.0457 -0.25339,0.01 -0.24855,-0.0796 z m 0.41821,-7.65607 c 0.0229,-0.38596 0.0628,-0.43451 0.18675,-0.22865 0.0866,0.14374 0.2348,0.41725 0.32924,0.60781 0.14823,0.29908 0.13849,0.31607 -0.0704,0.12398 -0.13295,-0.12232 -0.29419,-0.17525 -0.35834,-0.11768 -0.0641,0.0575 -0.10353,-0.11599 -0.0875,-0.38552 z m -0.32492,6.87368 c 0.007,-0.0299 0.0304,-0.0469 0.0681,-0.0439 0.0748,0.005 0.24523,0.0894 0.37937,0.18587 0.20963,0.15218 0.20404,0.1749 -0.041,0.16398 -0.15641,-0.007 -0.32714,-0.0913 -0.37966,-0.18602 -0.0261,-0.0478 -0.0343,-0.09 -0.0268,-0.11974 z m 0.953,-6.00791 c 0.017,-0.0493 0.11393,8.2e-4 0.30319,0.19178 0.2864,0.28895 0.3074,0.28158 0.44946,-0.16005 l 0.14914,-0.46327 0.1954,0.66225 c 0.10753,0.36423 0.15481,0.72054 0.10515,0.79193 -0.0497,0.0714 -6.7e-4,0.16511 0.10894,0.20839 0.14937,0.059 0.14211,0.1097 -0.0288,0.2029 -0.15284,0.0833 -0.40405,-0.0968 -0.76269,-0.54689 -0.35515,-0.44587 -0.54819,-0.8048 -0.51977,-0.88705 z m 0.0273,1.58874 c -2.5e-4,-0.0661 0.10346,-0.12353 0.31057,-0.11227 0.12775,0.007 0.27051,0.0824 0.31706,0.16787 0.0466,0.0854 -0.0961,0.13454 -0.31707,0.1092 -0.20707,-0.0238 -0.31058,-0.0986 -0.31065,-0.16463 z m -0.13157,4.68675 c 0.0188,-0.0594 0.11787,-0.0968 0.26065,-0.0891 0.19033,0.0104 0.34208,0.0945 0.33705,0.18692 -0.005,0.0925 -0.11818,0.16224 -0.25139,0.155 -0.13323,-0.007 -0.28469,-0.0914 -0.3368,-0.18691 -0.013,-0.0239 -0.0157,-0.0461 -0.01,-0.0659 z m 1.19167,-4.44619 c -0.005,-0.0182 0.0667,-0.0733 0.21048,-0.1792 0.16902,-0.12449 0.31568,-0.38381 0.32609,-0.57618 0.0105,-0.19232 0.0973,-0.39224 0.19281,-0.44437 0.0999,-0.0545 0.16367,0.10602 0.15036,0.37759 -0.0616,1.24683 0.4308,1.61657 1.24251,0.93296 0.48708,-0.4102 0.49534,-0.18652 0.0303,0.82047 -0.37333,0.80826 -0.42482,0.86389 -0.86082,0.92344 -0.43676,0.0598 -1.22837,-1.51268 -0.9076,-1.80274 0.15325,-0.13852 0.11892,-0.16171 -0.13906,-0.0943 -0.16001,0.0419 -0.24041,0.0605 -0.24503,0.0422 z m 0.0389,2.20275 c 0.005,-0.0837 0.15947,-0.14418 0.34433,-0.13415 0.18491,0.01 0.33474,0.0473 0.33284,0.0827 -0.002,0.0355 -0.15711,0.0956 -0.34459,0.13388 -0.1875,0.0383 -0.33713,10e-4 -0.33257,-0.0825 z m 0.15817,1.89785 c 0.004,-0.0126 0.0138,-0.0185 0.0281,-0.0177 0.064,0.003 0.35295,0.26159 0.64173,0.57366 0.45416,0.49069 0.52783,0.52306 0.54797,0.24039 0.0166,-0.23458 0.12871,-0.13206 0.39731,0.36358 0.61575,1.1364 1.50807,1.69692 1.76986,1.11175 0.0607,-0.13579 0.22092,-0.24084 0.35617,-0.23351 0.13527,0.007 0.39537,0.24906 0.57778,0.53708 0.18243,0.28806 0.25522,0.51958 0.16194,0.51451 -0.0933,-0.005 -0.2051,-0.0744 -0.24865,-0.15429 -0.10186,-0.18675 -0.58883,-0.17256 -1.03035,0.0302 -0.4138,0.19005 -0.81163,0.0612 -0.63189,-0.20471 0.0783,-0.11589 0.019,-0.11049 -0.15312,0.0141 -0.1924,0.13928 -0.31327,0.1453 -0.38228,0.0188 -0.0555,-0.10182 -0.18566,-0.13874 -0.28935,-0.0822 -0.1037,0.0565 -0.13794,0.03 -0.0761,-0.059 0.0619,-0.0889 -0.0935,-0.33212 -0.34526,-0.54027 -0.41979,-0.34712 -1.39347,-1.92673 -1.32386,-2.11253 z m -0.1884,4.86911 c -0.005,0.0979 0.0684,0.13532 0.16388,0.0832 0.0956,-0.0521 0.17565,-0.12807 0.17786,-0.16885 0.002,-0.0408 -0.0716,-0.0783 -0.16413,-0.0832 -0.0925,-0.005 -0.17225,0.071 -0.17754,0.1689 z m 0.53424,-5.88101 c -0.004,-0.18563 0.089,-0.33224 0.20658,-0.32585 0.11749,0.006 0.20727,0.12511 0.19977,0.26372 -0.0276,0.50792 -0.39588,0.5642 -0.40637,0.0621 z m 0.1661,-2.29039 c -0.0124,0.0636 -0.008,0.13951 0.0153,0.2127 0.0671,0.20797 0.11771,0.22044 0.23124,0.0572 0.1714,-0.24638 0.0586,-0.52851 -0.16306,-0.40765 -0.0423,0.0231 -0.0712,0.0742 -0.0836,0.13767 z m -0.14422,5.03794 c 0.009,-0.037 0.0622,-0.0457 0.16466,-0.0402 0.13864,0.008 0.34015,0.13225 0.44771,0.27716 0.15903,0.21428 0.1485,0.26092 -0.0565,0.24979 -0.13863,-0.008 -0.34013,-0.13225 -0.4477,-0.27716 -0.0795,-0.10712 -0.11651,-0.17254 -0.10813,-0.20959 z m 0.38336,-4.27602 c 0.009,0.0159 0.0424,0.01 0.0977,-0.0206 0.10217,-0.0557 0.21895,-0.004 0.25951,0.11429 0.0527,0.15442 0.0804,0.15918 0.0977,0.0165 0.0349,-0.28818 -0.25501,-0.44322 -0.4106,-0.21956 -0.0397,0.0566 -0.0531,0.0941 -0.0441,0.10953 z m 0.33169,0.98079 c -0.0135,-0.0267 -1.3e-4,-0.0847 0.0398,-0.17413 0.097,-0.21683 0.14742,-0.22396 0.25979,-0.0368 0.10394,0.17316 0.13135,0.15187 0.10749,-0.0838 -0.0188,-0.18602 0.16526,-0.44904 0.44657,-0.63875 0.5917,-0.39892 0.68624,-0.31476 0.37216,0.33135 -0.26636,0.54772 -1.26156,1.27683 -1.02684,0.75218 0.0824,-0.18317 0.056,-0.23813 -0.0785,-0.16477 -0.0668,0.0365 -0.10708,0.0413 -0.12055,0.0146 z m -0.12551,3.95223 c 0.01,-0.008 0.0746,0.0466 0.20227,0.1582 0.15485,0.13574 0.27988,0.27527 0.27798,0.31019 -0.007,0.13837 -0.1406,0.0418 -0.34498,-0.25006 -0.0973,-0.13895 -0.14446,-0.21002 -0.13532,-0.21823 z m 0.40826,-3.25213 c -0.0116,-0.0602 0.0181,-0.0675 0.0903,-0.0174 0.16104,0.11175 0.1936,0.0955 0.11124,-0.0562 -0.16339,-0.29956 0.53343,-0.70239 1.51481,-0.87557 0.44466,-0.0785 0.80587,-0.0967 0.80276,-0.0406 -0.003,0.056 -0.28636,0.38492 -0.62961,0.73079 -0.65239,0.65748 -0.76716,0.83025 -0.42994,0.64633 0.14438,-0.0788 0.16338,0.0616 0.0677,0.4995 -0.0732,0.33495 -0.0648,0.61258 0.0186,0.61711 0.0834,0.004 0.22826,0.17279 0.32218,0.37382 0.16923,0.36215 0.16654,0.36255 -0.30891,0.0457 -0.39449,-0.26296 -0.46517,-0.41253 -0.39705,-0.84137 0.0773,-0.48655 0.0677,-0.49802 -0.14178,-0.1717 -0.2477,0.38579 -0.34195,0.3227 -0.86215,-0.5755 -0.0936,-0.1617 -0.14653,-0.27479 -0.15811,-0.33503 z m 0.009,5.04013 c -0.0123,0.0444 0.0763,0.0486 0.2724,-0.0144 0.21412,-0.0691 0.24613,-0.0343 0.12854,0.13881 -0.1336,0.19657 -0.11306,0.19894 0.13811,0.0168 0.38856,-0.28162 0.2249,-0.56855 -0.20877,-0.36593 -0.20522,0.0958 -0.31803,0.18008 -0.33025,0.22455 z m 0.40655,-4.70319 c 0.005,0.0623 0.0422,0.0915 0.11141,0.086 0.0594,-0.005 0.16427,0.0947 0.2332,0.22109 0.0866,0.15879 0.12304,0.11676 0.11775,-0.13609 -0.004,-0.20122 -0.0695,-0.33215 -0.1452,-0.29087 -0.0757,0.0413 -0.1383,-0.0242 -0.13903,-0.14555 -9.6e-4,-0.16432 -0.0256,-0.16921 -0.096,-0.0193 -0.0597,0.12706 -0.0871,0.22241 -0.0821,0.28472 z m 0.32371,1.51003 c 0.0129,-0.03 0.0447,-0.0472 0.0908,-0.0447 0.0925,0.005 0.21083,0.0874 0.26294,0.1829 0.0522,0.0955 0.0191,0.16969 -0.0731,0.16481 -0.0925,-0.005 -0.21058,-0.0874 -0.26269,-0.18289 -0.0261,-0.0478 -0.031,-0.0901 -0.0176,-0.12001 z m 0.0877,3.49562 c 0.0115,0.006 0.0818,-0.0406 0.2175,-0.1356 0.36549,-0.25589 0.37218,-0.28309 0.1091,-0.45411 -0.11191,-0.0728 -0.151,-0.0673 -0.0865,0.0121 0.0644,0.0794 0.0168,0.2595 -0.10599,0.40041 -0.0988,0.11336 -0.14575,0.17137 -0.13412,0.17717 z m 0.32772,-2.94264 c 0.002,-0.0408 0.0797,-0.07 0.17218,-0.065 0.0925,0.005 0.16375,0.0894 0.15852,0.18709 -0.005,0.0979 -0.0829,0.12713 -0.17219,0.065 -0.0893,-0.0622 -0.16068,-0.1464 -0.15851,-0.18709 z m 0.27936,1.41254 c 0.0131,0.0156 0.0788,4.8e-4 0.20113,-0.0387 0.16917,-0.0541 0.26758,-0.14297 0.21865,-0.19753 -0.0489,-0.0546 -0.18733,-0.0103 -0.3076,0.0984 -0.0869,0.0785 -0.12556,0.12293 -0.11215,0.13787 z m 0.39302,-1.37603 c 0.002,-0.0408 0.0797,-0.07 0.17219,-0.065 0.0925,0.005 0.16354,0.0893 0.15823,0.18717 -0.005,0.0979 -0.0826,0.12712 -0.17195,0.065 -0.0893,-0.0622 -0.16068,-0.14641 -0.15847,-0.18718 z m 1.07253,0.53012 c -5.3e-4,-0.0256 0.008,-0.0391 0.0271,-0.0381 0.28133,0.0172 1.36365,0.85219 1.24376,0.95972 -0.27481,0.2465 -0.73588,0.0515 -1.04975,-0.44426 -0.1368,-0.21603 -0.21999,-0.40068 -0.22123,-0.47748 z m 1.80275,0.76092 c -0.003,-0.0168 0.005,-0.0253 0.0253,-0.0239 0.19573,0.0156 0.9954,0.7159 0.81158,0.71079 -0.078,-0.002 -0.32603,-0.16542 -0.55091,-0.3633 -0.1687,-0.14832 -0.27684,-0.27317 -0.2859,-0.32369 z m -0.0479,4.08681 c -0.0327,-0.0491 0.0765,-0.0384 0.33464,0.031 0.27411,0.0737 0.56964,0.21683 0.65688,0.3181 0.18457,0.2144 -0.51691,-0.001 -0.91177,-0.28016 -0.0418,-0.0301 -0.0688,-0.0527 -0.0797,-0.069 z m 1.15482,-9.81004 c -0.0139,-0.14328 0.0853,-0.0909 0.2938,0.11938 0.17371,0.17527 0.27218,0.38164 0.21883,0.45833 -0.0533,0.0767 -0.0267,0.27658 0.0591,0.44422 0.14418,0.28165 0.15866,0.27915 0.19254,-0.0305 0.0237,-0.21663 0.0648,-0.25149 0.116,-0.0989 0.0436,0.12986 0.21316,0.38542 0.37707,0.56817 0.33792,0.37673 0.35148,0.48475 0.10273,0.82737 -0.15096,0.20788 -0.17464,0.20066 -0.16341,-0.0509 0.007,-0.16187 -0.0815,-0.28046 -0.19756,-0.26359 -0.11607,0.0169 -0.39262,-0.3964 -0.61461,-0.91838 -0.24363,-0.5729 -0.37054,-0.91201 -0.38444,-1.05527 z m 0.18469,4.11943 c -0.001,-0.0264 0.008,-0.0403 0.0309,-0.039 0.0894,0.005 0.25131,0.12909 0.36036,0.27542 0.10888,0.14669 0.43275,0.39428 0.71957,0.54998 0.42369,0.22997 0.51212,0.3759 0.47136,0.77799 -0.0276,0.27222 -0.10057,0.54013 -0.16223,0.59543 -0.0616,0.0553 -0.004,0.28731 0.1288,0.51567 0.13252,0.22836 0.1917,0.41266 0.1316,0.4094 -0.0601,-0.003 -0.0342,0.1688 0.0577,0.38243 0.11598,0.26957 0.0491,0.22725 -0.21865,-0.13837 -0.21215,-0.28965 -0.37897,-0.56438 -0.37084,-0.61029 0.008,-0.0459 -0.17805,-0.31565 -0.41388,-0.59955 -0.29308,-0.35284 -0.37134,-0.56793 -0.24708,-0.67939 0.2643,-0.23707 0.23975,-0.34673 -0.21204,-0.94689 -0.16793,-0.22307 -0.27172,-0.41356 -0.27547,-0.49278 z m -0.036,6.13748 c 0.003,-0.0453 0.0698,-0.0468 0.17962,0.002 0.28511,0.12755 0.33183,0.25083 0.09,0.23774 -0.087,-0.005 -0.20018,-0.0859 -0.2517,-0.18036 -0.0135,-0.0246 -0.0191,-0.0446 -0.018,-0.0597 z m 0.67891,-8.64026 c -0.002,0.0287 0.002,0.0608 0.0131,0.0955 0.0646,0.20013 0.10591,0.20487 0.23291,0.0267 0.0848,-0.11905 0.15582,-0.22284 0.15766,-0.23048 0.002,-0.008 -0.10305,-0.0194 -0.23289,-0.0265 -0.10096,-0.005 -0.16431,0.0487 -0.1708,0.13468 z m -0.14884,4.11812 c 0.0116,0.0218 0.0892,0.0117 0.23653,-0.0358 0.18125,-0.0585 0.22635,0.0151 0.16354,0.26693 -0.0893,0.3581 0.1226,0.49037 0.32338,0.20176 0.0622,-0.0893 0.0141,-0.17019 -0.10679,-0.17964 -0.13557,-0.0107 -0.10358,-0.0764 0.0836,-0.1723 0.16688,-0.0854 0.30524,-0.18707 0.30734,-0.22579 0.002,-0.0388 -0.13134,-0.0279 -0.29637,0.0239 -0.27209,0.0855 -0.27506,0.0661 -0.0311,-0.20515 0.26142,-0.29071 0.25555,-0.29128 -0.20936,-0.0234 -0.32714,0.18835 -0.49034,0.31323 -0.47087,0.34952 z m -0.1454,3.70445 c 0.0115,-0.15929 0.15787,-0.16364 0.34605,0.12549 0.19354,0.29727 0.21824,0.29984 0.38334,0.0391 0.21303,-0.33642 0.55074,-0.14719 0.52671,0.29508 -0.01,0.17483 0.10224,0.39344 0.24819,0.48586 0.18144,0.11487 0.20332,0.20175 0.0693,0.27489 -0.10786,0.0588 -0.19094,0.0144 -0.18479,-0.0989 0.006,-0.11325 -0.0424,-0.15826 -0.10767,-0.0997 -0.0653,0.0586 -0.2887,-0.0185 -0.49639,-0.17123 -0.20768,-0.15288 -0.38062,-0.22134 -0.38431,-0.15253 -0.004,0.069 -0.11871,-0.0543 -0.25527,-0.27388 -0.11037,-0.17732 -0.15198,-0.32863 -0.14512,-0.4242 z m 0.23567,1.70329 c -0.0128,-0.0355 0.0207,-0.0902 0.0974,-0.17295 0.10965,-0.1185 0.14597,-0.27812 0.0819,-0.35386 -0.0646,-0.076 0.0686,-0.0713 0.296,0.0104 0.22734,0.0817 0.63447,0.25112 0.90479,0.37658 l 0.4916,0.22818 -0.58026,0.16775 c -0.70954,0.20493 -1.09222,0.1964 -0.94117,-0.0207 0.0621,-0.0894 -0.0142,-0.16919 -0.1696,-0.17768 -0.1087,-0.006 -0.16779,-0.0222 -0.1806,-0.0577 z m 1.54334,-4.6607 c -0.002,0.0462 0.15104,0.0111 0.34129,-0.0778 0.19026,-0.0889 0.34789,-0.19946 0.3504,-0.24568 0.002,-0.0462 -0.15105,-0.011 -0.34128,0.0778 -0.19027,0.0889 -0.34789,0.19946 -0.35041,0.24567 z m 0.6835,-5.21483 c 0.004,0.0581 0.0763,0.10272 0.19188,0.10894 0.19795,0.0107 0.24197,0.0996 0.1502,0.30324 -0.071,0.15853 -0.17541,0.51312 -0.23121,0.78824 -0.0811,0.39998 -0.0468,0.368 0.17138,-0.15935 0.15003,-0.36272 0.28532,-0.74551 0.30079,-0.85064 0.0365,-0.24853 -0.4226,-0.45409 -0.56315,-0.25208 -0.0152,0.0212 -0.0212,0.0423 -0.0199,0.0616 z m -0.34892,9.59799 c -0.003,-0.0174 0.002,-0.0325 0.0149,-0.045 0.0546,-0.0489 0.18731,0.0101 0.29509,0.13113 0.15575,0.17494 0.13544,0.19317 -0.0992,0.0889 -0.12193,-0.0537 -0.20181,-0.12337 -0.21121,-0.17527 z m 1.44251,-6.06849 c -0.005,0.0925 0.0666,0.17202 0.15903,0.17705 0.0925,0.005 0.17225,-0.0663 0.17726,-0.15878 0.005,-0.0925 -0.0666,-0.17227 -0.15904,-0.17728 -0.0925,-0.005 -0.17228,0.0666 -0.17728,0.15904 z"
       inkscape:export-filename="skipper_elements_parcel.svg"
       inkscape:export-xdpi="96"
       inkscape:export-ydpi="96" /></g></svg>
