<?xml version="1.0" encoding="UTF-8" standalone="no"?>
<!-- Created with Inkscape (http://www.inkscape.org/) -->

<svg
   width="115.89352mm"
   height="58.038971mm"
   viewBox="0 0 115.89352 58.038971"
   version="1.1"
   id="svg5"
   xml:space="preserve"
   xmlns:inkscape="http://www.inkscape.org/namespaces/inkscape"
   xmlns:sodipodi="http://sodipodi.sourceforge.net/DTD/sodipodi-0.dtd"
   xmlns="http://www.w3.org/2000/svg"
   xmlns:svg="http://www.w3.org/2000/svg"><sodipodi:namedview
     id="namedview7"
     pagecolor="#ffffff"
     bordercolor="#666666"
     borderopacity="1.0"
     inkscape:showpageshadow="2"
     inkscape:pageopacity="0.0"
     inkscape:pagecheckerboard="0"
     inkscape:deskcolor="#d1d1d1"
     inkscape:document-units="mm"
     showgrid="false"
     inkscape:zoom="0.6480467"
     inkscape:cx="2735.914"
     inkscape:cy="195.97353"
     inkscape:window-width="1440"
     inkscape:window-height="900"
     inkscape:window-x="0"
     inkscape:window-y="0"
     inkscape:window-maximized="0"
     inkscape:current-layer="layer1" /><defs
     id="defs2" /><g
     inkscape:label="Livello 1"
     inkscape:groupmode="layer"
     id="layer1"
     transform="translate(-247.59604,507.72673)"><path
       id="path8898"
       style="fill:#D2D9DE;stroke-width:0.352778"
       d="m 307.98333,-507.72641 c -0.38805,0.006 -0.0707,0.21964 0.70538,0.47543 1.85062,0.6098 2.82428,0.60219 1.23507,-0.01 -0.6791,-0.26152 -1.5524,-0.47161 -1.94045,-0.46561 z m 43.00822,0.23255 c -12.26614,-0.1537 -26.03074,1.01577 -32.15462,2.73161 -1.82614,0.51166 -1.86936,0.50521 -4.00441,-0.57257 -1.18711,-0.59924 -2.24828,-0.99959 -2.358,-0.88987 -0.10972,0.10969 -0.0315,0.19947 0.17415,0.19947 0.20561,0 0.46692,0.24148 0.58033,0.53692 0.15901,0.41438 0.0664,0.46637 -0.40359,0.22634 -0.33519,-0.17119 -1.16472,-0.40854 -1.84382,-0.52761 l -1.23507,-0.21653 0.97049,0.53072 c 0.53358,0.29197 0.96997,0.61448 0.96997,0.71675 0,0.10222 -0.14545,0.0963 -0.32298,-0.0134 -0.17753,-0.10972 -1.01098,-0.26509 -1.85209,-0.34519 -0.84112,-0.0801 -2.6233,-0.42179 -3.96099,-0.75913 -2.18237,-0.55033 -2.36593,-0.66191 -1.78491,-1.08676 0.35612,-0.26042 0.49834,-0.46798 0.31574,-0.46198 -0.18261,0.006 -0.63422,0.23981 -1.00355,0.51934 -0.52302,0.39585 -0.56236,0.54253 -0.17674,0.66456 0.27232,0.0862 1.64635,0.49245 3.05305,0.90227 1.4067,0.40982 2.55747,0.89934 2.55747,1.08779 0,0.18844 0.27798,0.33993 0.61753,0.33693 0.53274,-0.005 0.54448,-0.0569 0.0879,-0.37982 -0.47037,-0.33266 -0.47037,-0.35644 0,-0.21497 0.29104,0.0875 0.48982,0.33776 0.44132,0.55604 -0.0485,0.21828 0.14053,0.39687 0.42012,0.39687 0.27959,0 0.60355,0.15391 0.71986,0.3421 0.1163,0.18819 -0.46979,0.0953 -1.30225,-0.20671 -1.62296,-0.58874 -2.30304,-0.7712 -3.03392,-0.8139 -0.25396,-0.0148 -0.37751,-0.16266 -0.27492,-0.32866 0.1026,-0.16604 -0.22939,-0.22268 -0.73742,-0.12558 -0.63146,0.12071 -0.8454,0.0501 -0.67645,-0.22324 0.15902,-0.25729 0.0515,-0.32451 -0.30127,-0.18913 -0.75153,0.28838 -2.38861,-0.15944 -2.12752,-0.58188 0.37617,-0.60866 -0.055,-0.36368 -0.74569,0.42375 -0.36962,0.42141 -0.45648,0.63984 -0.19327,0.48524 0.49267,-0.28936 2.3768,0.16508 4.75733,1.14773 1.16794,0.48211 1.25964,0.5952 0.66146,0.81649 -0.38186,0.14124 -1.37585,0.10391 -2.20865,-0.0832 -0.83279,-0.18714 -1.72533,-0.25888 -1.98386,-0.15968 -0.25853,0.0992 -0.47025,0.0449 -0.47025,-0.12041 0,-0.16532 -0.39705,-0.37652 -0.88212,-0.46922 -0.48507,-0.0927 -0.8816,-0.043 -0.8816,0.11059 0,0.15363 0.35718,0.34843 0.79375,0.43253 0.62169,0.11972 0.56333,0.16342 -0.2682,0.20102 -0.68684,0.0311 -1.23381,0.32779 -1.54926,0.84129 -0.48535,0.79007 -0.48388,0.79071 0.2651,0.12454 0.63092,-0.56115 0.93832,-0.60936 1.90221,-0.30024 1.04122,0.33388 1.06597,0.3723 0.26716,0.4098 -0.6796,0.0319 -0.76392,0.11602 -0.36896,0.36587 0.2819,0.17832 0.99628,0.24694 1.5875,0.15244 l 1.07487,-0.17208 -1.18701,0.54777 c -1.35589,0.62577 -2.24847,0.72319 -1.45883,0.15916 0.41028,-0.29306 0.33085,-0.32519 -0.35295,-0.14262 -2.37477,0.63406 -2.58249,0.64707 -2.2779,0.14159 0.22863,-0.37947 0.14681,-0.3713 -0.35811,0.0367 -0.60224,0.48662 -0.47276,0.54562 1.60817,0.73071 2.25882,0.20091 3.51029,0.55402 3.48299,0.98288 -0.008,0.12476 -0.84139,0.61102 -1.85208,1.08056 -4.00687,1.86144 -13.04009,7.78672 -17.88108,11.729 -1.11904,0.91128 -1.47589,1 -4.05712,1.002 -2.93097,0.003 -7.24816,0.56107 -7.64088,0.98805 -0.12348,0.13427 -0.0948,0.56124 0.0636,0.9493 0.27593,0.67619 0.28885,0.67355 0.31265,-0.0718 0.0191,-0.59875 0.28887,-0.81873 1.1715,-0.95498 3.01585,-0.46556 3.61997,-0.44055 4.66018,0.19379 l 1.07229,0.65422 -0.96997,10e-4 c -0.53357,7.3e-4 -0.97048,0.15694 -0.97048,0.34727 0,0.19033 -0.39653,0.44566 -0.8816,0.56741 -0.48507,0.12174 -0.88212,0.36288 -0.88212,0.53588 0,0.17299 -0.63516,0.31471 -1.41128,0.31471 -0.77611,0 -1.41077,-0.15892 -1.41077,-0.35295 0,-0.19402 -0.15893,-0.35243 -0.35295,-0.35243 -0.19403,0 -0.35295,0.22691 -0.35295,0.50488 0,0.53509 0.40867,0.70444 2.59209,1.07383 1.24671,0.21092 1.31337,0.2783 0.81804,0.82476 -0.29659,0.32721 -1.45652,1.15024 -2.57762,1.82934 -1.94428,1.17777 -2.18537,1.23385 -5.22759,1.20975 -4.78788,-0.0379 -7.5628,-0.27743 -7.3427,-0.63355 0.1127,-0.18231 -0.46566,-0.23024 -1.35289,-0.11214 -0.85225,0.11344 -2.66068,-0.006 -4.01888,-0.26562 -1.9808,-0.37852 -2.22495,-0.48867 -1.23455,-0.55707 0.79403,-0.0549 0.29022,-0.19869 -1.41128,-0.40308 -1.45521,-0.1748 -3.2013,-0.21022 -3.88038,-0.0785 -1.18414,0.22959 -1.19876,0.25035 -0.35295,0.50487 l 0.88211,0.2651 -0.88211,0.0424 c -0.83649,0.0399 -0.80467,0.10699 0.61908,1.30069 0.82561,0.69222 1.4117,1.40316 1.30224,1.58027 -0.10946,0.17711 -0.0554,0.32246 0.12041,0.32246 0.1758,0 0.68584,0.31732 1.13327,0.70538 0.44742,0.38805 1.03667,0.70539 1.30948,0.70539 0.28883,0 0.38936,0.17252 0.24081,0.41289 -0.17884,0.28937 -0.0533,0.33299 0.42013,0.14625 0.37138,-0.1465 1.23087,-0.32971 1.90996,-0.40721 l 1.23507,-0.14108 -1.23507,0.41393 c -1.54121,0.51655 -1.79594,0.88263 -1.32809,1.90944 0.29154,0.63987 0.50346,0.74062 0.99994,0.47491 0.34646,-0.18545 0.90589,-0.23109 1.24282,-0.1018 0.38428,0.14746 0.52732,0.0971 0.38396,-0.13488 -0.2341,-0.37878 1.32761,-0.82941 2.71456,-0.78341 0.49348,0.0164 0.26746,0.19857 -0.66146,0.5333 -0.77611,0.27967 -1.6494,0.61087 -1.94045,0.73639 -0.29104,0.12551 -0.64823,0.20339 -0.79375,0.17259 -0.14552,-0.0308 -0.28421,0.1026 -0.30851,0.29663 -0.15089,1.20717 -0.0793,1.54623 0.3576,1.69188 0.31851,0.10617 0.39592,0.0107 0.22066,-0.27285 -0.19653,-0.31801 -0.0427,-0.37902 0.56793,-0.22531 0.46086,0.11592 0.62157,0.11355 0.35708,-0.005 -0.406,-0.18223 -0.406,-0.26557 0,-0.53641 0.31796,-0.21207 0.12254,-0.2559 -0.57722,-0.12867 -0.87601,0.15927 -0.82353,0.10105 0.30437,-0.33745 0.84958,-0.3303 1.56846,-0.41457 1.90944,-0.22376 0.45181,0.25285 0.39886,0.35316 -0.30437,0.57671 -0.80538,0.25603 -0.81329,0.28466 -0.14573,0.52504 0.5855,0.21082 0.45044,0.33131 -0.79375,0.709 -0.83921,0.25476 -1.49913,0.67415 -1.49913,0.95239 0,0.55311 0.84676,0.38462 2.62878,-0.52296 0.57265,-0.29165 1.76327,-0.57664 2.64583,-0.63304 l 1.60456,-0.10232 -1.23507,0.63252 c -0.67909,0.34795 -1.6316,0.73196 -2.11667,0.85318 -0.48507,0.12123 -0.24694,-0.0851 0.52917,-0.45837 1.79396,-0.8627 0.8313,-0.92897 -1.05834,-0.0729 -1.2622,0.57184 -1.33148,0.66518 -0.65784,0.88366 0.45777,0.14847 1.47869,-0.0419 2.60346,-0.48524 2.28255,-0.8997 2.73056,-0.67094 0.64389,0.32866 -1.2265,0.58754 -1.3379,0.7078 -0.56069,0.60513 1.22505,-0.16183 1.24103,0.0412 0.0393,0.49816 -0.51198,0.19465 -0.82817,0.45651 -0.7028,0.58188 0.12537,0.12538 -0.35625,0.55738 -1.07022,0.96015 -0.71396,0.40278 -1.36353,0.93051 -1.44333,1.17305 -0.17421,0.52969 0.76183,0.57845 1.67949,0.0873 0.47299,-0.25314 0.73317,-0.22789 0.91519,0.0884 0.14031,0.24302 0.13677,0.33577 -0.008,0.20619 -0.14451,-0.12958 -0.56679,0.0249 -0.93845,0.34313 -0.72878,0.62401 -0.92899,2.1854 -0.28008,2.1854 0.26875,0 0.25118,0.17486 -0.0553,0.54415 -0.34204,0.41214 -0.35273,0.64308 -0.0434,0.9524 0.49824,0.49828 0.54282,1.09767 0.0594,0.79892 -0.19994,-0.12359 -0.25896,0.0183 -0.13849,0.33228 0.11555,0.30112 0.39162,0.54994 0.6134,0.55294 0.22597,0.003 0.17806,0.14755 -0.10904,0.32917 -0.28178,0.1782 -0.59962,0.27034 -0.7059,0.20464 -0.29359,-0.18156 -0.16847,1.89601 0.13229,2.19677 0.14429,0.14441 0.20991,0.10359 0.14521,-0.0904 -0.0647,-0.19403 -0.0232,-0.35243 0.0925,-0.35243 0.11569,0 0.51275,-0.2321 0.88212,-0.51573 0.38544,-0.29598 0.28657,-0.0705 -0.23203,0.52917 -1.03797,1.20027 -1.87971,2.98483 -1.40766,2.98483 0.17579,0 0.64896,-0.41791 1.0511,-0.92914 0.40214,-0.51126 0.73122,-0.77704 0.73122,-0.59067 0,0.18637 -0.39218,0.70696 -0.87127,1.15704 -0.47909,0.45008 -0.79389,0.94312 -0.6997,1.09554 0.0942,0.15242 0.01,0.37681 -0.18758,0.49868 -0.19719,0.12187 -0.35812,0.39052 -0.35812,0.59686 l -5.1e-4,-5.2e-4 c 0,0.41379 0.1165,0.33124 3.52433,-2.50269 3.30941,-2.75207 4.66346,-4.38742 4.13049,-4.98781 -0.34968,-0.39397 -0.3239,-0.4026 0.14832,-0.0481 0.48065,0.36089 0.71676,0.23923 1.48414,-0.76687 0.50188,-0.658 0.80066,-1.32071 0.66353,-1.47278 -0.13713,-0.1521 -0.0751,-0.1772 0.13797,-0.0558 0.21389,0.12182 1.20187,-0.79556 2.20504,-2.04742 1.8052,-2.2527 2.19041,-2.91903 1.40973,-2.43655 -0.25437,0.15721 -0.31136,0.0967 -0.15193,-0.16123 0.1404,-0.22719 0.38312,-0.33401 0.53899,-0.23771 0.15587,0.0963 0.79455,-0.31376 1.41955,-0.91105 1.66742,-1.59348 4.46352,-2.73564 7.62796,-3.11558 5.28397,-0.63443 5.7882,-0.65768 6.0203,-0.28215 0.13569,0.2196 0.0631,0.26984 -0.17621,0.12196 -0.24133,-0.14916 -0.40721,-0.0277 -0.40721,0.29817 0,0.31479 0.30154,0.54984 0.70538,0.54984 0.38806,0 0.70538,0.18549 0.70538,0.41186 0,0.22635 -0.10311,0.30825 -0.22944,0.1819 -0.12634,-0.12633 -0.44423,0.0453 -0.70642,0.38189 -0.44002,0.56474 -0.45815,0.55769 -0.23358,-0.0935 0.2238,-0.64899 0.19018,-0.66347 -0.41961,-0.17673 -0.53169,0.42446 -0.6029,0.43018 -0.3607,0.0284 0.23643,-0.3922 0.15506,-0.43967 -0.37362,-0.21911 -0.37138,0.15494 -1.07194,0.34102 -1.55701,0.41342 -0.59318,0.0886 -0.38064,-0.10826 0.64905,-0.60152 0.84203,-0.40337 1.44642,-0.81804 1.34307,-0.92139 -0.10335,-0.10335 -0.79249,0.10737 -1.53117,0.46819 -1.63192,0.79713 -1.76855,1.67116 -0.28474,1.82159 1.56254,0.1584 4.07799,1.1288 5.35678,2.06706 0.61764,0.45317 1.27252,0.82424 1.45573,0.82424 0.45791,0 1.29004,-1.04856 1.29604,-1.63401 0.007,-0.63712 2.9268,-4.01192 3.46491,-4.00492 0.25494,0.003 0.21213,0.14037 -0.108,0.34726 -0.47604,0.30765 -0.2561,0.50434 0.44079,0.3943 0.14552,-0.023 0.26459,0.0248 0.26459,0.10593 0,0.63792 -0.7303,1.50372 -2.6572,3.14865 l -2.23966,1.91151 0.82941,0.7798 c 0.45629,0.42865 1.1216,0.72497 1.47846,0.65887 0.35686,-0.0661 1.52183,-1.41737 2.58899,-3.00292 3.27884,-4.87161 2.40597,-4.47743 9.29039,-4.19509 3.26627,0.13396 6.12378,0.31267 6.35,0.39687 0.22622,0.0842 1.97976,-0.83883 3.89692,-2.05103 2.68981,-1.70076 3.69109,-2.55653 4.38474,-3.74913 0.87182,-1.49894 0.87573,-1.53328 0.13023,-1.1343 -0.42276,0.22626 -0.77112,0.60404 -0.77412,0.83975 -0.003,0.26768 -0.1308,0.23025 -0.33951,-0.10026 -0.18377,-0.29105 -0.6536,-0.54715 -1.04386,-0.56895 -0.39027,-0.0218 -0.62481,0.0973 -0.52142,0.26458 0.1034,0.16729 0.0247,0.30437 -0.17467,0.30437 -0.20008,0 -0.25666,0.27573 -0.12609,0.61599 0.22482,0.58596 0.19033,0.58628 -0.69814,0.004 -0.5799,-0.37996 -1.01798,-0.47785 -1.15394,-0.25786 -0.12054,0.19505 -0.36663,0.26355 -0.54725,0.15192 -0.18062,-0.11163 -0.32866,-0.0349 -0.32866,0.17054 0,0.20548 0.11906,0.37362 0.26458,0.37362 0.14553,0 0.26458,0.38866 0.26458,0.86403 0,0.52284 -0.12769,0.73687 -0.32298,0.54157 -0.19531,-0.1953 -0.50892,-0.0839 -0.79375,0.28215 -0.44406,0.57061 -0.49824,0.56987 -0.95498,-0.0181 -0.2893,-0.3724 -0.71723,-0.53451 -1.06246,-0.40204 -0.44362,0.17022 -0.5283,0.0693 -0.36432,-0.4346 0.17639,-0.54207 0.14772,-0.56448 -0.16433,-0.12764 -0.20789,0.29104 -0.28783,0.84649 -0.17777,1.23455 0.13328,0.46994 -0.22304,0.24272 -1.0666,-0.68109 -0.8519,-0.93296 -1.26659,-1.19671 -1.26659,-0.80512 0,0.3202 -0.19826,0.534 -0.4408,0.4749 -0.24249,-0.0591 -0.32088,-0.0405 -0.17415,0.0413 0.14669,0.0818 0.16286,0.33318 0.0362,0.55914 -0.14805,0.2641 -0.0604,0.25346 0.24495,-0.03 0.57995,-0.53833 1.39216,-0.57742 1.39216,-0.0672 0,0.20547 -0.1584,0.27546 -0.35243,0.15555 -0.5268,-0.32559 -0.42607,0.26734 0.19637,1.156 0.33898,0.48396 0.39849,0.78393 0.15554,0.78393 -0.21646,0 -0.29561,0.15892 -0.17569,0.35295 0.39026,0.63148 -0.0505,0.37184 -0.73898,-0.43511 -0.54712,-0.64123 -0.55736,-0.69876 -0.0548,-0.30955 0.66126,0.5121 0.7414,0.4207 0.40307,-0.46095 -0.11777,-0.30691 -0.40362,-0.55811 -0.6351,-0.55811 -0.23147,0 -0.60938,-0.18926 -0.84026,-0.42013 -0.23086,-0.23087 -0.64854,-0.45302 -0.92811,-0.49402 -0.68749,-0.1009 -0.34123,0.81304 0.81442,2.1487 0.5036,0.58206 0.68705,0.86008 0.40721,0.61754 -0.58729,-0.509 -1.2087,-0.59256 -0.91881,-0.12351 0.2979,0.48201 -1.86051,0.23457 -2.36213,-0.27078 -0.35005,-0.35266 -0.29644,-0.3961 0.26717,-0.21549 0.67202,0.21534 0.67529,0.20151 0.0672,-0.29766 -0.35115,-0.28825 -0.48803,-0.6172 -0.30437,-0.73071 0.42823,-0.26466 1.24691,0.70523 0.97151,1.15084 -0.25342,0.41004 0.72199,0.30629 1.10795,-0.11782 0.15117,-0.16611 0.0519,-0.1726 -0.22066,-0.0145 -0.32847,0.19055 -0.41324,0.15354 -0.25063,-0.10956 0.23157,-0.37469 -0.65445,-2.53421 -1.03973,-2.53421 -0.0989,0 -0.0153,0.30734 0.18552,0.68265 0.48803,0.91199 0.46307,1.32038 -0.0496,0.8077 -0.27757,-0.27756 -0.554,-0.29993 -0.83509,-0.0667 -0.286,0.23737 -0.5559,0.18504 -0.84543,-0.16382 -0.23396,-0.28187 -0.67833,-0.4156 -0.98702,-0.29714 -0.35602,0.1366 -0.47315,0.0737 -0.32091,-0.1726 0.132,-0.21359 0.054,-0.50349 -0.17312,-0.64388 -0.25792,-0.15943 -0.31844,-0.10245 -0.16123,0.15192 0.13844,0.22401 0.0883,0.40721 -0.1111,0.40721 -0.19941,0 -0.27524,0.27799 -0.16847,0.61754 0.17019,0.5413 0.13653,0.55232 -0.27647,0.0884 -0.63704,-0.71564 -1.37619,-0.83009 -1.12448,-0.17415 0.11037,0.28804 0.36736,0.41992 0.57103,0.29404 0.22159,-0.13695 0.26495,-0.0586 0.108,0.19534 -0.19661,0.31808 -0.38315,0.32432 -0.74465,0.0243 -0.26527,-0.22016 -0.64149,-0.30219 -0.83613,-0.1819 -0.45557,0.28155 -1.74953,-0.51863 -1.64021,-1.01441 0.0459,-0.20794 0.014,-0.25037 -0.0708,-0.0946 -0.0848,0.15581 -0.38373,-0.003 -0.66455,-0.35295 -0.34779,-0.43318 -0.31923,-0.24247 0.0899,0.59841 0.54869,1.12767 0.55013,1.19304 0.0171,0.75086 -0.39287,-0.32592 -0.58343,-0.35198 -0.58343,-0.0796 0,0.22259 0.38114,0.54985 0.84749,0.72709 0.46623,0.17726 0.96852,0.51757 1.11621,0.75654 0.19546,0.31626 0.0848,0.35868 -0.40669,0.15606 -0.37137,-0.1531 -0.86481,-0.28607 -1.09657,-0.29507 -0.23176,-0.009 -0.39065,-0.10902 -0.35295,-0.22221 0.0377,-0.11318 -0.0897,-0.25901 -0.28371,-0.32401 -0.19403,-0.065 -0.55122,-0.28292 -0.79375,-0.48421 -0.24253,-0.20127 -0.44131,-0.24282 -0.44131,-0.092 0,0.15084 -0.31733,-0.0131 -0.70539,-0.36432 -0.38805,-0.35118 -0.70538,-0.8424 -0.70538,-1.09192 0,-0.24952 -0.14395,-0.54291 -0.31988,-0.65164 -0.50061,-0.3094 -0.0153,1.14268 0.53434,1.59887 0.27007,0.22414 0.49092,0.57467 0.49092,0.77876 0,0.20409 -0.39217,0.003 -0.87126,-0.44752 -0.47909,-0.45008 -0.77321,-0.99335 -0.65371,-1.20768 0.11968,-0.2147 0.008,-0.19541 -0.2496,0.0429 -0.38462,0.35651 -0.34759,0.5736 0.21033,1.23455 l 0.67696,0.80201 -0.87902,-0.76274 c -0.71578,-0.62073 -0.95748,-0.67658 -1.29914,-0.30179 -0.42099,0.46181 -0.26591,0.88832 0.32297,0.88832 0.17317,0 0.19533,-0.19826 0.0496,-0.4408 -0.17182,-0.28601 -0.0501,-0.26678 0.34675,0.0553 0.4516,0.36652 0.50785,0.59768 0.21446,0.88212 -0.29031,0.28146 -0.72954,0.005 -1.62936,-1.02578 -1.11844,-1.28105 -1.27292,-1.35546 -1.67587,-0.80615 -0.35066,0.47805 -0.53927,0.5149 -0.89813,0.17622 -0.36976,-0.34884 -0.36978,-0.26422 5.1e-4,0.45268 0.26804,0.51897 0.51564,0.69999 0.60204,0.4408 0.21603,-0.64814 0.90711,-0.53607 1.58646,0.25735 0.57712,0.67404 0.5621,0.69362 -0.44648,0.57619 -0.574,-0.0668 -1.28376,-0.3208 -1.57717,-0.56431 -0.42878,-0.35574 -0.5333,-0.35444 -0.5333,0.008 0,0.311 -0.20778,0.26297 -0.67024,-0.15555 -0.55646,-0.50357 -0.66082,-0.51649 -0.61702,-0.0754 0.029,0.29212 -0.10464,0.53881 -0.29662,0.54881 -0.19198,0.01 -0.36606,-0.17925 -0.38706,-0.42013 -0.0877,-1.00541 -0.17253,-1.11803 -0.47904,-0.63356 -0.18684,0.29537 -0.19344,0.75278 -0.015,1.08624 0.28906,0.54011 -0.0329,0.62588 -1.39785,0.37311 -0.0873,-0.0162 0.0317,-0.21985 0.26458,-0.45269 0.52334,-0.52337 0.54664,-0.98754 0.0496,-0.98754 -0.20547,0 -0.27545,0.15892 -0.15554,0.35295 0.3455,0.55905 -0.22878,0.41067 -1.02423,-0.26458 -0.69429,-0.58891 -0.70554,-0.58873 -0.24236,0.009 0.26686,0.34423 0.36996,0.74108 0.22944,0.8816 -0.14053,0.14053 -0.48116,-0.0537 -0.75706,-0.43099 -0.38607,-0.52798 -0.59774,-0.58978 -0.91881,-0.26871 -0.32108,0.32108 -0.58487,0.27818 -1.14515,-0.18604 -0.4004,-0.33175 -0.52933,-0.37696 -0.2868,-0.10077 0.69533,0.79181 0.51339,1.24168 -0.22996,0.56896 -0.48131,-0.43558 -0.74175,-0.49142 -0.92346,-0.1974 -0.13924,0.22528 0.0347,0.6723 0.38654,0.99322 0.60009,0.54728 0.61059,0.54468 0.16795,-0.0424 -0.57826,-0.76691 -0.29046,-1.18486 0.31419,-0.4563 0.61589,0.7421 0.15233,1.35442 -0.68575,0.90589 -0.65814,-0.35222 -1.39183,0.13674 -0.91725,0.61133 0.11642,0.11644 0.21187,0.0172 0.21187,-0.22066 0,-0.23779 0.17594,-0.32392 0.39068,-0.1912 0.27217,0.16821 0.24529,0.33325 -0.0884,0.54467 -0.68629,0.43485 -1.00769,0.38388 -1.00769,-0.1602 0,-0.26097 -0.35138,-0.77708 -0.78032,-1.1467 l -0.77979,-0.67179 0.62063,0.9834 c 0.6125,0.97097 0.61141,0.97819 -0.1018,0.53278 -0.39745,-0.24821 -0.72296,-0.54137 -0.72296,-0.65164 0,-0.11027 -0.21399,-0.49307 -0.47542,-0.85059 -0.37112,-0.50754 -0.53732,-0.54938 -0.75964,-0.18965 -0.18821,0.30451 -0.14673,0.37567 0.12247,0.20929 0.224,-0.13844 0.40721,-0.0835 0.40721,0.12195 0,0.62778 -0.16213,0.90731 -0.46715,0.80564 -0.1599,-0.0533 -0.18892,0.0683 -0.0641,0.27027 0.12484,0.20202 0.39969,0.2609 0.6103,0.13074 0.23615,-0.14595 0.28069,-0.0712 0.11627,0.19482 -0.14661,0.23721 -0.51143,0.33741 -0.81029,0.22272 -0.45071,-0.17295 -0.46699,-0.11696 -0.0971,0.32867 0.49637,0.59808 0.0331,0.73442 -0.62994,0.18551 -0.23351,-0.19334 -0.19814,-0.0921 0.0786,0.2248 0.50973,0.58376 1.83616,0.41478 1.46451,-0.18656 -0.22551,-0.36488 0.68012,-0.80456 0.99943,-0.48524 0.43639,0.4364 0.20146,1.22346 -0.30696,1.02836 -0.28483,-0.10932 -0.60038,-0.0657 -0.70074,0.0966 -0.30381,0.49159 -1.89198,0.65337 -2.343,0.23874 -0.30939,-0.28444 -0.36188,-0.2802 -0.19638,0.0155 0.29374,0.52483 -0.72957,0.92294 -1.04799,0.40772 -0.14666,-0.23726 -0.0813,-0.29246 0.16536,-0.14004 0.59439,0.36735 0.49757,0.0188 -0.14211,-0.51211 -0.30199,-0.25063 -0.52121,-0.30962 -0.48731,-0.13126 0.17811,0.93643 -0.11238,0.86807 -0.91105,-0.21446 -1.21286,-1.64394 -1.81292,-1.93253 -2.26446,-1.08882 -0.39668,0.74119 0.0373,0.83601 1.03714,0.22686 0.44843,-0.27322 0.4585,-0.23573 0.0682,0.24598 -0.38556,0.47587 -0.36439,0.62221 0.12868,0.89814 0.5236,0.29302 0.50614,0.35121 -0.15658,0.52451 -0.40998,0.10722 -0.84951,0.0265 -0.97669,-0.17932 -0.13597,-0.21995 -0.0633,-0.27047 0.17622,-0.12247 0.22401,0.13845 0.40721,0.0653 0.40721,-0.16278 0,-0.23854 -0.29442,-0.3378 -0.69298,-0.23358 -0.41757,0.1092 -1.06021,-0.13448 -1.61695,-0.61288 -0.7454,-0.6405 -0.92398,-1.10457 -0.92398,-2.4014 0,-1.54412 0.61702,-3.34657 1.01079,-2.95279 0.10416,0.10415 0.95659,-0.10222 1.89394,-0.45837 0.93735,-0.3562 1.8,-0.55179 1.9172,-0.4346 0.1172,0.1172 0.11481,-0.0436 -0.006,-0.3576 -0.1205,-0.31401 -0.0457,-0.6782 0.1664,-0.80926 0.21207,-0.13107 0.36267,-0.10723 0.33487,0.0527 -0.0278,0.15994 -0.0279,0.60826 -5.2e-4,0.99632 0.0388,0.54936 0.17846,0.44405 0.63148,-0.47542 0.32002,-0.64949 0.83228,-1.27297 1.13844,-1.38544 0.30616,-0.11247 0.66466,-0.36677 0.79685,-0.56483 0.13218,-0.19807 0.35638,0.10226 0.49816,0.66715 0.22544,0.89823 0.28823,0.94014 0.50074,0.33434 0.13363,-0.38098 0.45815,-0.69246 0.72089,-0.69246 0.26274,0 0.58802,-0.39705 0.72295,-0.88212 l 0.24547,-0.88212 0.077,0.88212 c 0.0729,0.83601 0.091,0.827 0.34624,-0.17622 0.1481,-0.58207 0.29284,-0.8202 0.32194,-0.52916 0.0429,0.42875 0.14475,0.40833 0.53588,-0.10749 0.2655,-0.35015 0.81204,-0.66165 1.2144,-0.69195 0.40236,-0.0303 0.81396,-0.26983 0.91467,-0.53226 0.1007,-0.26242 0.32992,-0.38645 0.50953,-0.27544 0.17961,0.111 0.4361,-0.29679 0.56999,-0.9064 0.17377,-0.79116 0.32809,-0.97169 0.53899,-0.63046 0.23475,0.37984 0.34579,0.34754 0.54002,-0.15864 0.19228,-0.50106 0.308,-0.53702 0.5426,-0.16692 0.24015,0.3788 0.3063,0.36758 0.339,-0.0584 0.0223,-0.29105 0.17939,-0.13212 0.34933,0.35295 0.28436,0.81171 0.30086,0.79209 0.20516,-0.24598 -0.0572,-0.62034 0.0261,-1.0475 0.185,-0.9493 0.15892,0.0982 0.30471,-0.0292 0.32401,-0.28319 0.0193,-0.25398 0.16247,-0.0649 0.31781,0.42013 l 0.28215,0.8816 0.0351,-0.99528 c 0.0367,-1.03801 1.06661,-2.49474 1.12241,-1.5875 0.0158,0.25639 0.23376,5.4e-4 0.48473,-0.56844 l 0.4563,-1.03457 0.28991,0.85835 c 0.15938,0.47198 0.25177,1.09646 0.20567,1.38751 -0.0745,0.47037 -0.0441,0.47037 0.27233,0 0.33351,-0.49577 0.22931,-2.10918 -0.19172,-2.96933 -0.10297,-0.21036 0.0625,-0.0743 0.36794,0.30231 0.54976,0.67786 0.55608,0.67786 0.59738,0 0.0263,-0.43073 0.14171,-0.29206 0.31109,0.37362 l 0.26924,1.05833 0.077,-1.05833 c 0.0761,-1.04752 0.0796,-1.04914 0.35916,-0.17622 l 0.28267,0.88212 0.0703,-0.88212 0.0703,-0.88211 0.28474,0.88211 c 0.24211,0.75597 0.28771,0.77855 0.31781,0.15865 0.0193,-0.39775 -0.15576,-0.91335 -0.3886,-1.14618 -0.32926,-0.32924 -0.32926,-0.42323 0,-0.42323 0.23284,0 0.42591,-0.27799 0.42891,-0.61754 0.005,-0.5276 0.055,-0.54059 0.34727,-0.0884 0.29468,0.45601 0.34226,0.44692 0.34726,-0.0672 0.003,-0.32809 0.14148,-0.68083 0.30748,-0.78342 0.16596,-0.1026 0.23044,0.18693 0.14314,0.64338 -0.0872,0.45645 0.0151,0.93745 0.22738,1.06866 0.2469,0.1526 0.40338,-0.18192 0.43408,-0.92862 0.0396,-0.962 0.0758,-1.01206 0.20619,-0.28526 0.19164,1.06827 0.80408,1.81091 0.80408,0.97514 0,-0.31722 -0.16331,-1.00605 -0.36277,-1.53066 -0.19947,-0.52461 -0.28226,-1.03393 -0.18396,-1.13223 0.0983,-0.0983 0.33086,0.20138 0.51676,0.66611 0.19588,0.4897 0.35769,0.62242 0.38499,0.31574 0.0327,-0.36714 0.14002,-0.31278 0.35037,0.17674 l 0.30334,0.70538 0.03,-0.70538 c 0.0255,-0.59655 0.0882,-0.62415 0.40462,-0.17674 0.28163,0.39822 0.41829,0.42022 0.55294,0.0884 0.0984,-0.24254 0.39253,-0.4408 0.65319,-0.4408 0.58002,0 1.55756,-1.86733 1.42731,-2.72645 -0.0521,-0.34387 -0.0264,-0.42474 0.0574,-0.17983 0.0838,0.24488 0.32141,0.34086 0.52761,0.21342 0.25595,-0.15818 0.29357,0.20459 0.11834,1.14257 -0.32689,1.74971 0.0361,1.43033 0.46767,-0.41135 0.30603,-1.30587 0.32943,-1.32591 0.38603,-0.33176 0.0524,0.92053 0.0996,0.96663 0.36328,0.35295 l 0.30334,-0.70538 0.03,0.70538 c 0.0245,0.57341 0.0917,0.60854 0.3576,0.1881 0.21186,-0.33498 0.17893,-0.70061 -0.0935,-1.03766 -0.32241,-0.39944 -0.32279,-0.46225 -10e-4,-0.26923 0.23646,0.14185 0.57777,-0.0208 0.7829,-0.37311 0.2906,-0.49916 0.37461,-0.51838 0.41651,-0.0956 0.0289,0.29104 0.17332,0.0529 0.32143,-0.52917 l 0.26923,-1.05833 0.0739,1.23455 0.0734,1.23507 0.33434,-1.1591 c 0.18386,-0.6375 0.47378,-1.07356 0.64389,-0.96842 0.17012,0.10514 0.38953,-0.008 0.48783,-0.25167 0.10159,-0.25197 0.1909,-0.15853 0.2067,0.21705 0.0231,0.54648 0.11878,0.58501 0.55656,0.22169 0.29104,-0.24155 0.52917,-0.62282 0.52917,-0.84698 0,-0.22417 0.30721,-0.67022 0.68264,-0.99167 0.65128,-0.55765 0.6948,-0.53288 0.94206,0.53899 0.25632,1.11117 0.26177,1.11366 0.51677,0.24132 l 0.25786,-0.88211 0.0512,0.88211 c 0.0503,0.86915 0.0583,0.86677 0.53589,-0.17621 0.26653,-0.58206 0.49961,-0.82021 0.51831,-0.52917 0.0303,0.47037 0.0722,0.47037 0.37621,0 0.30392,-0.47037 0.34557,-0.47037 0.37517,0 0.0183,0.29104 0.20452,0.0567 0.41392,-0.52038 0.34415,-0.94852 0.40665,-0.98259 0.65268,-0.35295 0.25788,0.66005 0.27364,0.65597 0.29714,-0.0765 0.0136,-0.42511 0.16059,-0.85653 0.32659,-0.95912 0.16589,-0.1026 0.24499,0.24487 0.17519,0.77257 l -0.12713,0.95963 0.5147,-1.05834 c 0.46687,-0.95986 0.51632,-0.98334 0.53072,-0.25218 0.0134,0.67647 0.12177,0.74974 0.67489,0.45372 0.36254,-0.19401 0.77288,-0.23946 0.91157,-0.10077 0.13858,0.13869 0.19906,0.0213 0.13436,-0.26096 -0.0647,-0.28222 0.0868,-0.52017 0.33641,-0.52917 0.24961,-0.009 0.60461,-0.25415 0.78859,-0.54519 0.26465,-0.41866 0.341,-0.34533 0.3669,0.35244 0.0246,0.66293 0.18069,0.46283 0.62839,-0.80719 l 0.59582,-1.68982 0.44804,1.16065 c 0.39488,1.02208 0.49152,1.08591 0.80977,0.53589 0.19878,-0.34346 0.27397,-0.97863 0.16691,-1.41128 -0.10704,-0.43265 -0.0975,-0.57042 0.0212,-0.30593 0.18223,0.406 0.26739,0.406 0.54725,0 0.21856,-0.31701 0.25224,-0.06 0.0992,0.75396 -0.22371,1.18999 -0.21069,1.20916 0.3576,0.52917 0.32429,-0.38806 0.48924,-0.50713 0.36639,-0.26459 -0.13156,0.25972 0.003,0.4408 0.32659,0.4408 0.3025,0 0.54984,-0.12831 0.54984,-0.28525 0,-0.15695 0.23021,-0.59334 0.5116,-0.96997 0.48804,-0.65322 0.50333,-0.6444 0.32866,0.19689 -0.15397,0.74155 -0.12178,0.78633 0.20309,0.27957 0.45234,-0.7056 1.56078,-0.43278 1.27434,0.31368 -0.1067,0.27843 -0.0371,0.40567 0.15606,0.28628 0.19181,-0.11854 0.36091,-0.48374 0.37621,-0.81183 0.0199,-0.42698 0.0822,-0.45996 0.21911,-0.11576 0.16146,0.406 0.23999,0.406 0.50177,0 0.25801,-0.40012 0.36828,-0.39173 0.65733,0.0486 0.19106,0.29105 0.34943,0.35176 0.35243,0.13539 0.003,-0.21637 0.33412,-0.81114 0.73587,-1.32188 0.58705,-0.74631 0.86077,-0.85931 1.39268,-0.57465 0.50633,0.27097 0.73978,0.21507 0.99374,-0.23874 0.60351,-1.07842 1.34784,-0.85477 1.21388,0.36484 l -0.12144,1.10587 0.47697,-1.05368 c 0.45425,-1.00271 0.49705,-1.01986 0.88367,-0.35295 0.3699,0.63801 0.40703,0.64372 0.41703,0.0625 0.006,-0.35105 0.15948,-0.54612 0.34158,-0.43357 0.1821,0.11254 0.49499,-0.0765 0.69505,-0.42013 0.25829,-0.44366 0.36614,-0.47995 0.37414,-0.12505 0.006,0.27485 0.12032,0.39024 0.25424,0.25631 0.13393,-0.13394 0.44477,0.19668 0.69092,0.73484 0.44369,0.97001 0.4463,0.97067 0.26252,0.0672 -0.13556,-0.66644 -0.0391,-0.91106 0.35915,-0.91106 0.3996,0 0.49393,0.2423 0.35398,0.91106 -0.13465,0.6433 0.0201,0.49637 0.52658,-0.49971 0.39468,-0.77606 0.68256,-1.09344 0.63976,-0.70539 -0.0436,0.39515 0.11051,0.66867 0.35036,0.62167 0.24005,-0.0471 0.34361,0.13698 0.23513,0.41961 -0.10625,0.27693 -0.0186,0.79071 0.1943,1.14205 0.31796,0.52465 0.3451,0.45606 0.154,-0.38395 -0.16355,-0.71883 -0.11332,-0.94951 0.16795,-0.77567 0.25751,0.15915 0.32483,0.0526 0.18965,-0.29972 -0.11585,-0.30189 -0.0253,-0.54777 0.20154,-0.54777 0.2262,0 0.31094,-0.19827 0.1881,-0.4408 -0.12287,-0.24253 0.002,-0.16549 0.27854,0.17105 0.27612,0.33657 0.60541,0.50823 0.73174,0.38189 0.32491,-0.32493 0.28496,0.22823 -0.11731,1.63091 -0.19056,0.66497 -0.28047,1.27509 -0.19947,1.35599 0.0809,0.0809 0.33279,-0.54332 0.55965,-1.38752 0.44136,-1.64248 1.0353,-2.2903 1.47123,-1.60455 0.1818,0.28595 0.26989,0.22265 0.27389,-0.19534 0.003,-0.33955 0.17478,-0.61701 0.38189,-0.61701 0.21601,0 0.28141,0.30064 0.15296,0.70538 -0.12844,0.40475 -0.0636,0.70538 0.15244,0.70538 0.20712,0 0.37789,-0.27746 0.38189,-0.61701 0.005,-0.5276 0.055,-0.54059 0.34727,-0.0884 0.29468,0.456 0.34226,0.44691 0.34726,-0.0672 0.01,-1.05616 0.53219,-0.9583 0.60979,0.11421 0.0412,0.57014 -0.0629,0.95121 -0.23151,0.84697 -0.16879,-0.10425 -0.23025,0.16779 -0.13695,0.60462 0.16542,0.77431 0.15543,0.77716 -0.38602,0.10955 -0.30543,-0.3766 -0.555,-0.50491 -0.555,-0.28525 0,0.21966 0.1609,0.49928 0.35811,0.62115 0.19714,0.12187 0.27437,0.35833 0.17105,0.52555 -0.10333,0.16721 -0.0267,0.40368 0.17053,0.52555 0.19721,0.12188 0.35864,0.0838 0.35864,-0.0842 0,-0.16807 0.41599,-0.80782 0.92449,-1.42161 0.72323,-0.87297 1.05863,-1.04415 1.54099,-0.786 0.33912,0.18151 0.67824,0.29595 0.75344,0.25425 0.0752,-0.0417 -0.1818,0.20412 -0.57102,0.54622 -0.70797,0.62059 -0.7081,0.62173 -0.004,0.41237 0.69586,-0.20695 0.69606,-0.20201 0.0207,0.3483 -0.37667,0.30688 -0.50611,0.55759 -0.28784,0.55759 0.43007,0 0.25343,1.66312 -0.24236,2.28255 -0.77435,0.96754 -0.76859,2.66903 0.0145,4.23695 0.43662,0.87426 0.87089,1.51303 0.96479,1.41903 0.094,-0.094 0.38785,0.009 0.65268,0.22841 0.38499,0.3195 0.4326,0.27206 0.23719,-0.23719 -0.176,-0.45856 -0.12034,-0.56011 0.19896,-0.36277 0.24376,0.15074 0.36795,0.56148 0.27595,0.91312 -0.10911,0.41727 -0.0106,0.57939 0.28319,0.46664 0.26075,-0.1002 0.37398,-0.49653 0.26871,-0.94361 -0.18024,-0.76561 -0.1772,-0.7663 0.41807,-0.0656 0.32962,0.38806 0.49907,0.50711 0.3762,0.26458 -0.38689,-0.7638 0.17125,-0.47982 1.04025,0.52917 l 0.8356,0.97048 0.2434,-0.9679 c 0.13391,-0.53222 0.39294,-0.87517 0.57568,-0.76222 0.20092,0.12415 0.17921,0.38986 -0.0548,0.67179 -0.28239,0.34016 -0.27634,0.53481 0.0222,0.71934 0.47177,0.29155 1.10188,-0.51972 0.8785,-1.1312 -0.15543,-0.4256 0.82125,-0.98227 1.14877,-0.65474 0.10156,0.10159 -5.2e-4,0.18448 -0.22686,0.18448 -0.22638,0 -0.41135,0.17589 -0.41135,0.39068 0,0.21748 0.25726,0.29192 0.58033,0.16795 0.32498,-0.1247 0.86436,0.0347 1.22628,0.36225 0.78225,0.70794 0.48685,1.42432 -0.31833,0.77204 -0.4239,-0.34347 -0.49936,-0.34761 -0.30075,-0.0171 0.3847,0.64038 -0.33223,0.5406 -1.0139,-0.14108 -0.54075,-0.54074 -0.57372,-0.53433 -0.46612,0.0884 0.1276,0.73858 -1.05411,1.10183 -2.1146,0.65009 -0.57171,-0.24353 -0.97267,-0.30506 -2.90628,-0.44442 -0.49699,-0.0358 -1.23413,-0.37294 -1.63814,-0.74931 -0.404,-0.37636 -0.80857,-0.60994 -0.89917,-0.51934 -0.26099,0.261 -1.87073,-2.03384 -2.29495,-3.27164 -0.28059,-0.81871 -0.27797,-1.47535 0.0109,-2.41639 0.33398,-1.0882 0.30846,-1.34166 -0.16226,-1.60507 -0.30741,-0.17204 -0.66325,-0.87054 -0.79117,-1.55236 -0.12791,-0.68183 -0.38025,-1.23972 -0.56069,-1.23972 -0.19817,0 -0.19173,0.3585 0.016,0.90486 0.18919,0.4977 0.34533,1.41034 0.34933,2.0283 0.004,0.82732 0.0912,0.98764 0.33177,0.6072 0.21274,-0.33639 0.28498,0.35109 0.20618,1.97042 -0.10855,2.22979 -0.0179,2.65261 0.87592,4.08864 0.73815,1.18595 0.89365,1.70463 0.59996,1.99833 -0.22832,0.22833 -0.24902,0.39687 -0.0486,0.39687 0.19156,0 0.37222,0.31695 0.40152,0.70435 0.0375,0.49784 -0.22493,0.76574 -0.89503,0.91364 -0.52147,0.1151 -1.42451,0.35007 -2.0066,0.52245 -0.58208,0.17239 -2.86252,0.77973 -5.06791,1.34979 -2.20534,0.57005 -4.18341,1.21047 -4.39559,1.42265 -0.27919,0.27919 -0.21073,0.6822 0.24804,1.45883 0.34863,0.59022 0.54269,1.31089 0.43099,1.60196 -0.11515,0.30008 -0.0519,0.43613 0.14624,0.31368 0.19217,-0.11876 0.50412,0.19055 0.69298,0.6873 0.18886,0.49674 0.43605,0.90278 0.54932,0.90278 0.11325,0 0.0863,-0.19827 -0.0594,-0.4408 -0.21132,-0.35168 -0.15518,-0.3524 0.27647,-0.003 0.29763,0.24086 0.62969,0.34957 0.73794,0.24133 0.10823,-0.10824 0.29643,-0.0361 0.41806,0.16072 0.13113,0.21245 -0.08,0.29989 -0.51831,0.21549 -0.47043,-0.0906 -0.68199,0.0125 -0.58239,0.28318 0.0861,0.23395 0.3159,0.3922 0.51108,0.3514 0.19518,-0.0408 0.65175,0.27652 1.0144,0.70539 0.65221,0.77127 0.65157,0.77304 -0.0465,0.18707 -0.51498,-0.43226 -0.87316,-0.49861 -1.32551,-0.24547 -0.64916,0.3633 -1.45496,0.10722 -1.16065,-0.36897 0.094,-0.15204 -0.0709,-0.57754 -0.36638,-0.94568 -0.50281,-0.62633 -0.51076,-0.61505 -0.12403,0.17777 0.36529,0.74886 0.34087,0.81959 -0.20722,0.60927 -0.52552,-0.20166 -0.55131,-0.15529 -0.16898,0.3054 0.24813,0.29898 0.46912,0.89813 0.49092,1.33119 0.0226,0.44707 0.26851,0.78755 0.56896,0.78755 0.33001,0 0.4844,-0.25853 0.4098,-0.68678 -0.10349,-0.59435 -0.0433,-0.62322 0.44855,-0.21498 0.51476,0.42721 0.49298,0.52324 -0.23306,1.01906 -0.4408,0.30103 -0.8951,0.6831 -1.00924,0.84905 -0.11414,0.16595 -0.4143,0.0525 -0.66715,-0.25218 -0.39587,-0.47698 -0.36681,-0.51905 0.20774,-0.30334 0.59284,0.22256 0.61215,0.18294 0.1757,-0.35347 -0.27019,-0.33209 -0.5728,-0.5217 -0.67282,-0.42168 -0.10002,0.10002 -0.39488,0.005 -0.65526,-0.21136 -0.59754,-0.49587 -0.62423,0.0986 -0.0326,0.72451 0.36368,0.38477 0.30427,0.3961 -0.33951,0.0651 -0.4441,-0.22833 -0.70032,-0.61167 -0.59376,-0.88935 0.10301,-0.26846 0.0405,-0.57917 -0.13953,-0.6904 -0.61645,-0.38098 -0.13038,1.59937 0.51573,2.10116 0.61516,0.47775 0.61219,0.49038 -0.0605,0.27027 -0.38806,-0.12698 -1.0104,-0.48473 -1.38286,-0.79478 -0.61352,-0.51057 -0.65792,-0.51123 -0.47439,-0.005 0.12155,0.33515 0.0105,0.55862 -0.2775,0.55862 -0.26396,0 -0.41477,-0.10577 -0.33487,-0.23513 0.0799,-0.12935 -0.0854,-0.23512 -0.36793,-0.23512 -0.28251,0 -0.51367,0.15893 -0.51367,0.35295 0,0.19403 -0.11105,0.24189 -0.24649,0.10645 -0.13544,-0.13543 -0.43311,0.10359 -0.66198,0.53123 -0.4156,0.77656 -0.41709,0.77603 -0.97462,-0.25373 -0.30702,-0.56708 -0.56457,-0.90138 -0.57257,-0.7431 -0.008,0.15828 0.14097,0.57709 0.33021,0.93069 0.28367,0.53005 0.19078,0.67215 -0.52917,0.80977 -0.48028,0.0918 -0.87333,0.0302 -0.87333,-0.13695 0,-0.16711 -0.1904,-0.30385 -0.42323,-0.30385 -0.49956,0 0.23069,0.85194 0.79375,0.92604 0.18433,0.0243 0.49379,0.0641 0.68782,0.0884 0.19402,0.0243 0.35295,0.2198 0.35295,0.43459 0,0.21476 -0.22992,0.3022 -0.51108,0.19431 -0.35893,-0.13775 -0.44635,-0.0265 -0.29301,0.3731 0.15717,0.4096 0.0872,0.48793 -0.24908,0.28009 -0.3106,-0.19198 -0.38258,-0.15255 -0.21549,0.11782 0.28725,0.46477 -0.61326,1.93646 -0.9679,1.58182 -0.12812,-0.12812 -0.23306,0.0409 -0.23306,0.37568 0,0.36263 -0.16104,0.50898 -0.39843,0.36226 -0.2435,-0.15045 -0.33092,-0.0554 -0.22479,0.24391 0.21669,0.61119 -0.71299,2.51818 -1.10846,2.27376 -0.15984,-0.0988 -0.57196,0.13125 -0.91571,0.51108 -0.54063,0.59741 -0.55896,0.7749 -0.13539,1.31465 0.4398,0.56041 0.42967,0.57692 -0.0992,0.1633 -0.49655,-0.38832 -0.6529,-0.36032 -0.99683,0.17673 -0.37825,0.59066 -0.39268,0.58555 -0.20361,-0.0687 0.20087,-0.69513 0.1961,-0.69531 -0.32608,-0.0207 -0.29152,0.37663 -0.5302,0.49617 -0.5302,0.26562 0,-0.23056 0.58819,-1.0946 1.30742,-1.91978 2.04652,-2.348 2.48025,-3.04746 0.92965,-1.50017 -1.93344,1.9293 -2.90105,2.678 -3.6437,2.82102 -0.34615,0.0667 0.59087,-1.09605 2.08204,-2.58434 1.49117,-1.48829 1.83392,-1.9122 0.76171,-0.94206 -1.07221,0.97014 -2.0822,1.96565 -2.2443,2.21227 -0.1621,0.24661 -0.42485,0.36753 -0.58395,0.26923 -0.15911,-0.0983 -0.86369,0.21136 -1.56579,0.68781 -0.7021,0.47647 -1.27641,0.72011 -1.27641,0.54157 0,-0.17853 0.27799,-0.48642 0.61753,-0.68419 0.33952,-0.19777 0.46831,-0.36452 0.28629,-0.37052 -0.4355,-0.0141 -2.66247,1.50685 -2.66547,1.82056 -0.001,0.13407 0.15634,0.34206 0.35037,0.46198 0.19403,0.11992 0.35401,0.56553 0.35501,0.99064 10e-4,0.42511 0.2619,1.24933 0.5793,1.83141 0.31738,0.58208 0.87818,1.6594 1.24643,2.39366 0.36826,0.73427 0.81322,1.24629 0.98857,1.13791 0.8321,-0.51426 4.60906,-5.97661 4.43901,-6.41976 -0.10551,-0.27497 -0.0491,-0.41127 0.12557,-0.30334 0.17464,0.10794 0.79187,-0.57472 1.37149,-1.51671 1.01109,-1.64321 1.18024,-1.75191 4.16667,-2.68304 4.70265,-1.4662 8.58098,-3.59162 14.42135,-7.90339 2.91041,-2.14867 6.86342,-5.06306 8.78447,-6.47661 1.92105,-1.41354 4.3023,-3.41462 5.29167,-4.44675 0.98937,-1.03213 2.7115,-2.50644 3.82716,-3.27629 1.11565,-0.76985 2.0283,-1.52297 2.0283,-1.67328 0,-0.15031 -0.5156,-0.64326 -1.14619,-1.09554 -0.63056,-0.45227 -0.94843,-0.60887 -0.7059,-0.3483 0.55685,0.59844 0.58325,1.5205 0.0336,1.1808 -0.25237,-0.15596 -0.31151,-0.0968 -0.15554,0.15555 0.33513,0.54228 -0.226,0.51981 -0.8568,-0.0341 -0.27619,-0.24253 -0.22845,-0.11084 0.10594,0.29249 0.7299,0.88019 0.8057,1.45738 0.11627,0.88522 -0.38001,-0.3154 -0.62277,-0.27693 -1.06815,0.16847 -0.44115,0.44114 -0.69025,0.4817 -1.06144,0.17363 -0.41021,-0.34042 -0.40266,-0.56668 0.0476,-1.46916 0.34022,-0.68201 0.71635,-0.99688 1.04231,-0.87178 0.32513,0.12476 0.41839,0.0476 0.25735,-0.21291 -0.17022,-0.27539 -0.055,-0.33276 0.35295,-0.17622 0.35952,0.13799 0.51767,0.0909 0.38964,-0.11627 -0.34085,-0.55151 -1.04403,-0.41492 -2.69544,0.524 -2.12298,1.20702 -4.19793,1.48014 -5.37642,0.70797 -0.50687,-0.3321 -0.92139,-0.48673 -0.92139,-0.34365 0,0.14309 -0.23663,0.0641 -0.52555,-0.1757 -0.28886,-0.23978 -0.43809,-0.57674 -0.33176,-0.74879 0.10632,-0.17204 -0.0363,-0.31265 -0.31678,-0.31265 -0.9743,0 -0.88399,-2.11728 0.22066,-5.18418 0.58269,-1.61775 1.12781,-2.87256 1.21181,-2.78846 0.0841,0.0841 0.46338,-0.15744 0.84233,-0.5364 0.4034,-0.40338 0.86607,-0.5763 1.11672,-0.41703 0.70521,0.44815 1.09637,0.33 1.87121,-0.56689 0.56653,-0.65571 0.80328,-0.74558 1.02422,-0.38809 0.19089,0.30887 0.15107,0.38057 -0.11937,0.21343 -0.28113,-0.17375 -0.40772,0.17175 -0.40772,1.11621 0,0.99702 0.22564,1.56446 0.83044,2.09031 0.80768,0.70227 0.85239,0.70417 1.67535,0.0775 0.7768,-0.59152 0.7857,-0.62848 0.1049,-0.45423 -0.71571,0.18317 -1.90479,-0.61692 -1.90479,-1.28158 0,-0.6558 1.50544,-1.37993 2.15077,-1.03456 0.77963,0.41726 0.73598,2.67769 -0.0636,3.283 -0.79293,0.60033 -1.73633,2.07307 -1.72083,2.68615 0.008,0.29638 0.238,0.0229 0.51211,-0.60772 0.27407,-0.63059 0.67749,-1.1467 0.89607,-1.1467 0.56138,0 3.16526,-2.77953 3.54862,-3.78788 0.20066,-0.52783 0.48388,-0.74777 0.7612,-0.59118 0.35271,0.19953 0.35285,0.15429 0,-0.22583 -0.52638,-0.5671 -0.58784,-1.17201 -0.0879,-0.86299 0.19403,0.11992 0.35243,0.0512 0.35243,-0.15296 0,-0.2042 0.40033,-0.0237 0.88935,0.40152 l 0.88884,0.77308 -1.71928,1.78232 c -1.81345,1.87937 -2.88096,3.30772 -2.88096,3.85558 0,0.18093 0.28012,0.0754 0.6227,-0.23461 1.34814,-1.22006 7.14843,-3.53614 7.13083,-2.84737 -0.004,0.16656 -0.86812,1.22056 -1.91978,2.34197 -1.05166,1.12141 -2.01515,2.36318 -2.14095,2.75952 -0.14848,0.46793 -0.42089,0.64691 -0.77618,0.51057 -0.4543,-0.17433 -0.47146,-0.11841 -0.10129,0.32763 0.32911,0.39676 0.33677,0.53691 0.0289,0.53691 -0.22938,0 -0.32672,0.14552 -0.21704,0.32298 0.10967,0.17745 0.0222,0.38152 -0.1943,0.45372 -0.2643,0.0881 -0.23467,0.26359 0.091,0.53382 0.39049,0.32407 0.9464,-0.27862 2.85305,-3.09387 1.30225,-1.92285 2.46799,-3.89583 2.59054,-4.38423 0.21318,-0.8494 0.1544,-0.8878 -1.3503,-0.8878 -0.86519,0 -2.08123,0.1768 -2.70216,0.39326 -1.82915,0.63764 -1.6291,0.14212 0.64957,-1.61127 2.2969,-1.76743 2.6174,-2.49812 1.31413,-2.99362 -0.45317,-0.1723 -5.09661,-0.36661 -10.31875,-0.43201 z m -9.77666,1.29191 c 0.0802,0.0283 0.1575,0.15402 0.24494,0.38189 0.13042,0.33975 0.094,0.76072 -0.0806,0.93534 -0.41764,0.4181 -0.78482,-0.53715 -0.42788,-1.11466 0.1,-0.16178 0.18338,-0.23084 0.26355,-0.20257 z m 20.18481,0.21962 c 0.12256,0.005 0.22819,0.0375 0.28681,0.0961 0.11723,0.11719 -0.0912,0.20082 -0.46302,0.18552 -0.41099,-0.0169 -0.49484,-0.1008 -0.21343,-0.21342 0.12734,-0.051 0.26709,-0.0733 0.38964,-0.0682 z m -7.63312,0.11369 c 0.16725,-0.0229 0.34395,0.0559 0.44131,0.21342 0.32402,0.52426 0.0664,0.70955 -0.49971,0.35967 -0.30332,-0.18745 -0.33932,-0.36924 -0.10232,-0.51573 0.0503,-0.0311 0.10497,-0.0497 0.16072,-0.0574 z m 1.603,0.24443 c 0.0339,-0.006 0.0187,0.0959 -0.0362,0.30386 -0.0768,0.29104 0.0947,0.70186 0.38137,0.91312 0.3545,0.26124 0.42044,0.56504 0.20567,0.94878 -0.26808,0.47904 -0.38082,0.42683 -0.74517,-0.3452 -0.30088,-0.63757 -0.3203,-1.07957 -0.0656,-1.47795 0.14278,-0.22332 0.22599,-0.33669 0.25993,-0.34261 z m 3.08612,0.0646 c -0.19294,-0.0428 -0.13492,0.0703 0.14469,0.40721 0.50804,0.61215 0.7121,0.67586 0.7121,0.2222 0,-0.17327 -0.2608,-0.4147 -0.57929,-0.53691 -0.12105,-0.0464 -0.21319,-0.0782 -0.2775,-0.0925 z m -25.87594,0.41857 c 0.15757,0.002 0.31911,0.13448 0.40256,0.35192 0.23377,0.60918 0.21187,0.61992 -0.43047,0.21291 -0.29431,-0.18648 -0.34241,-0.38709 -0.12506,-0.52142 0.0486,-0.03 0.10044,-0.0441 0.15297,-0.0434 z m -3.3569,0.29973 c 0.0639,0.0244 0.10335,0.088 0.10335,0.185 0,0.19403 -0.15841,0.4506 -0.35243,0.57051 -0.19403,0.11992 -0.35295,0.0597 -0.35295,-0.13436 0,-0.19402 0.15892,-0.45112 0.35295,-0.57103 0.097,-0.06 0.18513,-0.0745 0.24908,-0.0501 z m 1.98644,0.36122 c 0.0953,0.002 0.10585,0.14075 0.0155,0.3762 -0.23452,0.61116 -0.48731,0.72294 -0.48731,0.21549 0,-0.18257 0.15701,-0.42871 0.34882,-0.54725 0.05,-0.0309 0.0912,-0.0453 0.12299,-0.0444 z m 21.53098,0.60616 c -0.11448,0.0425 -0.13074,0.19677 -0.13074,0.49351 0,0.29104 0.22889,0.52917 0.5085,0.52917 0.74634,0 0.9884,-0.59709 0.34261,-0.84491 -0.39314,-0.15086 -0.60588,-0.22025 -0.72037,-0.17777 z m -14.14642,0.70952 c -0.0297,0.0297 0.008,0.16512 0.10387,0.41651 0.13247,0.34789 0.3296,0.54373 0.43822,0.43512 0.10862,-0.10862 2.7e-4,-0.39322 -0.24082,-0.63252 -0.1742,-0.17291 -0.27152,-0.24886 -0.30127,-0.21911 z m -10.58023,0.094 c -0.0371,0.0371 -0.0623,0.1609 -0.0708,0.36639 h 5.2e-4 c -0.0153,0.37191 0.0678,0.58024 0.185,0.46302 0.1172,-0.11723 0.12981,-0.42179 0.0279,-0.67645 -0.0563,-0.14071 -0.10553,-0.19005 -0.14262,-0.15296 z m -3.45664,0.0305 c 0.11143,-0.0867 0.0976,0.13862 -0.032,0.7183 -0.29015,1.29714 -0.49172,1.57849 -0.48472,0.67593 0.003,-0.37189 0.16632,-0.91406 0.36328,-1.2051 0.0654,-0.0966 0.11634,-0.16024 0.15348,-0.18913 z m 1.55649,0.97565 c -0.0521,-0.0459 -0.17364,0.053 -0.3147,0.2713 -0.18809,0.29104 -0.3421,0.6881 -0.3421,0.88212 0,0.19403 0.15401,0.11483 0.3421,-0.17622 0.18808,-0.29104 0.34158,-0.68809 0.34158,-0.88212 0,-0.0485 -0.01,-0.0798 -0.0269,-0.0951 z m 6.23735,0.0326 c -0.0332,-0.0189 -0.0631,-0.0181 -0.0868,0.006 -0.095,0.095 0.007,0.50818 0.22635,0.91829 0.40135,0.7499 1.07421,0.69417 1.06401,-0.0884 -0.004,-0.27536 -0.11183,-0.25234 -0.31419,0.0672 -0.24131,0.38102 -0.36289,0.31761 -0.55604,-0.29094 -0.10195,-0.32123 -0.23371,-0.55515 -0.33331,-0.61184 z m -2.57297,0.37258 c -0.0371,0.0371 -0.0623,0.16039 -0.0708,0.36587 -0.0153,0.37192 0.0678,0.58024 0.18501,0.46302 0.1172,-0.11723 0.12981,-0.42127 0.0279,-0.67593 -0.0563,-0.1407 -0.10502,-0.19005 -0.14211,-0.15296 z m 6.70243,0.35244 c -0.0371,0.0371 -0.0623,0.1609 -0.0708,0.36638 -0.0153,0.37192 0.0683,0.58024 0.18552,0.46302 0.1173,-0.11723 0.12981,-0.42127 0.0279,-0.67593 -0.0563,-0.1407 -0.10553,-0.19057 -0.14263,-0.15347 z m -1.4428,0.13229 c -0.0194,0.0175 -0.032,0.0653 -0.0362,0.14624 -0.0167,0.32368 0.0687,0.84693 0.18966,1.1622 0.36643,0.95483 0.48394,0.40343 0.15141,-0.71003 -0.12821,-0.42925 -0.24669,-0.65092 -0.30489,-0.59841 z m 4.20026,0.0941 c -0.0264,0.002 0.0198,0.15589 0.11627,0.46302 0.11165,0.35542 0.21528,0.83167 0.23048,1.05833 0.0201,0.29741 0.0763,0.29317 0.20154,-0.0155 0.0954,-0.23523 -0.009,-0.71147 -0.231,-1.05833 -0.19219,-0.29972 -0.29087,-0.44957 -0.31729,-0.44752 z m -22.54385,0.0393 c 0.0606,0.0177 0.1722,0.1535 0.32815,0.42168 0.20624,0.3541 0.30009,0.71794 0.20929,0.80874 -0.0908,0.0908 -0.26401,-0.093 -0.38499,-0.40825 -0.21277,-0.55445 -0.25348,-0.85174 -0.15245,-0.82217 z m 15.27297,0.0899 c -0.0305,-0.0156 -0.0591,-0.0133 -0.0832,0.0109 -0.0964,0.0963 -0.0813,0.42044 0.0336,0.71985 0.3052,0.79529 0.54953,0.66546 0.3297,-0.17518 -0.0776,-0.29681 -0.18861,-0.50872 -0.28009,-0.55552 z m -19.12234,1.05575 c 0.0371,-0.0371 0.0858,0.0128 0.14211,0.15348 0.10195,0.25466 0.0893,0.5587 -0.0279,0.67593 -0.11719,0.11722 -0.2003,-0.0911 -0.185,-0.46302 0.008,-0.20549 0.0337,-0.3293 0.0708,-0.36639 z m 3.12125,0.0439 c -0.0273,0.001 -0.0426,0.0307 -0.0429,0.092 -0.001,0.24516 0.19011,0.75408 0.4253,1.13068 0.64046,1.02555 0.72139,0.61876 0.11007,-0.55346 -0.21999,-0.42184 -0.41048,-0.67327 -0.49248,-0.66921 z m -7.13858,0.60927 c 0.0174,0.0153 0.0274,0.0471 0.0274,0.0956 0,0.19403 -0.15401,0.59055 -0.3421,0.8816 -0.18809,0.29104 -0.3421,0.37075 -0.3421,0.17673 0,-0.19403 0.15401,-0.59107 0.3421,-0.88211 0.14107,-0.21828 0.26262,-0.31771 0.31471,-0.27182 z m 10.01438,0.40566 c -0.0371,0.0371 -0.0624,0.16038 -0.0708,0.36587 -0.0153,0.37192 0.0683,0.58025 0.18552,0.46302 0.1172,-0.11722 0.12981,-0.42127 0.0279,-0.67593 -0.0563,-0.14071 -0.10553,-0.19005 -0.14262,-0.15296 z m -9.50485,0.35347 c 0.0953,0.002 0.10637,0.14075 0.016,0.3762 -0.23452,0.61116 -0.48731,0.72293 -0.48731,0.21549 0,-0.18258 0.1565,-0.42871 0.3483,-0.54725 0.05,-0.0309 0.0912,-0.0452 0.12299,-0.0444 z m -4.18734,2.85099 c -0.0638,-0.0238 -0.10904,0.1788 -0.10904,0.5426 0,0.48507 0.0799,0.68333 0.17777,0.4408 0.0979,-0.24254 0.0979,-0.63958 0,-0.88212 -0.0245,-0.0606 -0.0475,-0.0934 -0.0687,-0.10128 z m 9.87743,0 c -0.0638,-0.0238 -0.10852,0.1788 -0.10852,0.5426 0,0.48507 0.0799,0.68333 0.17777,0.4408 0.0979,-0.24254 0.0979,-0.63958 0,-0.88212 -0.0245,-0.0606 -0.048,-0.0934 -0.0693,-0.10128 z m -9.15654,0.12557 c -0.0604,-0.0626 -0.10586,0.15668 -0.11111,0.59324 -0.007,0.58207 0.0657,0.8631 0.16227,0.62426 0.0967,-0.23884 0.10283,-0.7151 0.0134,-1.05834 -0.0224,-0.0858 -0.0445,-0.13831 -0.0646,-0.15916 z m 48.32986,1.23765 c -0.0307,-0.008 -0.0585,-9e-4 -0.0816,0.0222 -0.0925,0.0925 -0.0638,0.33773 0.0641,0.54467 0.34793,0.56284 0.55119,0.45317 0.31264,-0.16847 -0.0862,-0.22458 -0.20294,-0.37579 -0.29507,-0.39842 z m -5.36763,1.78077 c 0.0639,-0.0282 0.15259,-0.016 0.2496,0.0439 0.19403,0.11992 0.35243,0.28802 0.35243,0.37362 0,0.0856 -0.1584,0.15555 -0.35243,0.15555 -0.19402,0 -0.35295,-0.16814 -0.35295,-0.37362 0,-0.10273 0.0394,-0.17127 0.10335,-0.19947 z m -52.84225,0.48472 c 0.19121,-0.0149 0.38543,0.18733 0.45372,0.61754 0.0841,0.52966 0.03,0.58579 -0.21704,0.22479 -0.27779,-0.406 -0.36237,-0.406 -0.54209,0 -0.1349,0.30412 -0.18254,0.24719 -0.13074,-0.15503 0.0567,-0.43999 0.24493,-0.67234 0.43615,-0.6873 z m 1.3317,0.57516 c -0.0371,0.0371 -0.0624,0.16039 -0.0708,0.36587 h 5.2e-4 c -0.0153,0.37192 0.0678,0.58025 0.185,0.46302 0.1172,-0.11722 0.12982,-0.42127 0.0279,-0.67592 -0.0563,-0.14072 -0.10554,-0.19006 -0.14263,-0.15297 z m 54.49383,1.28261 c 0.63059,-0.003 1.1467,0.14097 1.1467,0.31988 0,0.44675 -2.84764,2.84995 -3.37705,2.84995 -0.23538,0 -0.52187,0.24448 -0.63666,0.54364 -0.11479,0.29915 -0.72706,0.76957 -1.36064,1.0449 -0.63356,0.27533 -1.01143,0.50618 -0.83974,0.51418 0.17166,0.008 -0.0665,0.30436 -0.52917,0.65939 -1.08161,0.82983 -2.07635,1.19122 -2.07635,0.75448 0,-0.18794 0.15892,-0.34159 0.35295,-0.34159 0.50449,0 0.43642,-0.62428 -0.0884,-0.8108 -0.24254,-0.0862 -0.004,-0.10172 0.52917,-0.0346 0.88755,0.11164 1.15001,-0.15197 1.00975,-1.01441 -0.0243,-0.14963 0.314,-0.21233 0.75189,-0.13953 0.43791,0.0728 0.59756,0.0643 0.35502,-0.0186 -0.74679,-0.25542 -0.48961,-0.77863 0.5054,-1.02836 1.16763,-0.29306 3.33425,-1.72795 3.04529,-2.01693 -0.11646,-0.11646 0.0623,-0.31739 0.39739,-0.44597 0.48288,-0.1853 0.51144,-0.29533 0.13849,-0.53175 -0.3127,-0.19824 -0.086,-0.29986 0.67593,-0.30386 z m -43.9105,0.48111 c -0.0371,0.0371 -0.0623,0.1609 -0.0708,0.36639 h 5.1e-4 c -0.0153,0.37191 0.0678,0.58025 0.18501,0.46302 0.1172,-0.11722 0.1298,-0.42179 0.0279,-0.67645 -0.0563,-0.14071 -0.10553,-0.19005 -0.14263,-0.15296 z m -2.70629,0.21911 c -0.0763,0 -0.23041,0.23812 -0.3421,0.52916 -0.11168,0.29104 -0.0489,0.52917 0.13901,0.52917 0.18794,0 0.34158,-0.23813 0.34158,-0.52917 0,-0.29104 -0.0623,-0.52916 -0.13849,-0.52916 z m 39.53247,0.44907 c 0.33339,-0.0309 0.61755,0.0225 0.91106,0.15554 0.76104,0.34487 0.73774,0.38319 -0.57258,0.93586 -1.58115,0.6669 -2.12121,0.72846 -1.79782,0.20516 0.12609,-0.20399 -0.31463,-0.14355 -0.97979,0.13436 -0.66513,0.27791 -2.50127,0.78444 -4.07985,1.12551 -1.57857,0.34108 -2.78983,0.74986 -2.69183,0.90847 0.098,0.1587 0.41125,0.19922 0.69608,0.0899 0.28441,-0.10914 0.51709,-0.11875 0.5178,-0.0222 -9.2e-4,0.37515 -1.04755,0.55437 -1.25729,0.21497 -0.13631,-0.22054 -0.95529,-0.26694 -2.12803,-0.12041 -2.10689,0.26323 -2.72728,-0.32717 -0.75964,-0.72295 6.41783,-1.29092 9.82813,-2.08692 10.93628,-2.5523 0.48958,-0.2056 0.87222,-0.32101 1.20561,-0.35191 z m 4.5222,0.0708 c 0.0592,0.0247 0.0639,0.0897 0.002,0.18965 -0.11854,0.19181 -0.36469,0.34882 -0.54725,0.34882 -0.50743,0 -0.39566,-0.25279 0.21549,-0.48731 0.15698,-0.0602 0.2705,-0.0759 0.32969,-0.0512 z m -6.29574,1.78129 c 0.13429,0.0186 0.24446,0.0731 0.29766,0.15916 0.27813,0.45006 -0.29948,0.71829 -0.83457,0.38758 -0.35444,-0.21903 -0.33407,-0.32632 0.0935,-0.49041 0.15055,-0.0578 0.3091,-0.075 0.44338,-0.0563 z m 5.03639,0.56482 c -0.12256,-0.005 -0.26231,0.0173 -0.38964,0.0682 -0.28141,0.11261 -0.19807,0.196 0.21291,0.2129 0.37183,0.0153 0.58024,-0.0683 0.46302,-0.18552 -0.0586,-0.0586 -0.16374,-0.0906 -0.28629,-0.0956 z m -45.11766,0.30903 c -0.22169,0 -0.31327,0.14552 -0.20361,0.32298 0.10967,0.17744 0.0358,0.40329 -0.16433,0.50229 -0.20004,0.0993 -0.17169,0.14273 0.0636,0.0966 0.55943,-0.10958 0.82765,-0.92191 0.30437,-0.92191 z m 39.89369,0.37155 c 0.0511,-0.0121 0.0905,-0.008 0.11369,0.0155 0.0928,0.0928 -0.18153,0.37874 -0.60927,0.63562 -0.74306,0.44623 -0.7503,0.43901 -0.16846,-0.16846 0.25119,-0.26226 0.51076,-0.44631 0.66404,-0.48266 z m -9.16895,1.03973 c 0.19406,0 0.25479,0.1584 0.13488,0.35243 -0.11991,0.19403 -0.37699,0.35295 -0.57103,0.35295 -0.19405,0 -0.25478,-0.15892 -0.13487,-0.35295 0.11991,-0.19403 0.37699,-0.35243 0.57102,-0.35243 z m 9.20047,0.41806 c 0.0326,-0.0209 0.11577,0.008 0.24546,0.0879 0.30915,0.19104 0.31995,0.388 0.0398,0.72554 -0.28231,0.3402 -0.26371,0.51225 0.0708,0.64647 0.31275,0.1255 0.32405,0.19174 0.0357,0.21084 -0.57644,0.0382 -0.90904,-0.5776 -0.46147,-0.85421 0.20034,-0.12383 0.25781,-0.39763 0.12764,-0.60823 -0.0723,-0.11703 -0.0905,-0.18732 -0.0579,-0.20826 z m -66.77422,0.33073 c -0.12255,-0.005 -0.26231,0.0178 -0.38964,0.0687 v -5.1e-4 c -0.28143,0.11262 -0.19806,0.19652 0.21291,0.21342 0.37192,0.0153 0.58025,-0.0683 0.46302,-0.18552 -0.0586,-0.0586 -0.16373,-0.0911 -0.28629,-0.0961 z m 24.13703,0.4439 c -0.0318,-8e-4 -0.073,0.0136 -0.12299,0.0444 -0.19181,0.11854 -0.34881,0.36468 -0.34881,0.54726 0,0.50745 0.25278,0.39567 0.4873,-0.21549 0.0904,-0.23547 0.0799,-0.37381 -0.0155,-0.37621 z m 34.98546,0.0289 c 0.63921,-0.0332 1.23197,0.03 1.23197,0.21859 0,0.17792 -0.14585,0.3235 -0.32401,0.3235 -0.17815,0 -0.60123,0.10618 -0.94,0.23616 -0.44369,0.17026 -0.53803,0.11062 -0.33744,-0.21394 0.21014,-0.34002 0.0728,-0.38747 -0.55966,-0.19275 -0.46083,0.14191 -0.7232,0.13735 -0.58343,-0.0103 0.18766,-0.19832 0.87336,-0.328 1.51257,-0.36122 z m -36.03501,0.0584 c -0.0596,0.0294 -0.20949,0.19079 -0.44907,0.48369 -0.39677,0.48507 -0.72247,1.04103 -0.72347,1.23506 -0.003,0.3775 0.48588,-0.2606 1.08056,-1.41128 0.1211,-0.23431 0.15155,-0.33693 0.092,-0.30747 z m 32.50448,0.30747 0.8816,0.70177 c 0.48507,0.38598 0.94798,0.74315 1.02888,0.79375 0.0808,0.0505 -0.0135,0.092 -0.20981,0.092 -0.19631,0 -0.65926,-0.35719 -1.02888,-0.79375 z m 9.41596,0.2434 c 0.0277,-0.0261 0.1077,-6.5e-4 0.23668,0.0791 0.22716,0.1404 0.31101,0.42031 0.18655,0.62167 -0.15039,0.24336 0.17286,0.28037 0.96428,0.11059 l 1.19063,-0.2558 -0.894,0.71262 c -0.62113,0.49505 -1.20207,0.65357 -1.90428,0.51934 -0.71348,-0.13639 -0.93633,-0.0727 -0.75758,0.21653 0.13925,0.22532 0.40126,0.31833 0.58188,0.2067 0.18063,-0.11163 0.32815,-0.0475 0.32815,0.14211 0,0.18966 -0.5156,0.65407 -1.14619,1.0325 h -5.1e-4 c -1.44109,0.86483 -3.67015,1.35097 -3.02411,0.65939 0.23608,-0.25276 0.83478,-0.40204 1.33015,-0.33124 0.84518,0.12075 0.83504,0.098 -0.15813,-0.37414 l -1.05781,-0.50333 1.49913,0.18242 c 0.96591,0.11745 1.49913,0.0444 1.49913,-0.20567 0,-0.21345 -0.19826,-0.33971 -0.4408,-0.28061 -0.2425,0.0591 -0.32087,0.0405 -0.17415,-0.0413 0.1468,-0.0818 0.18009,-0.28918 0.0739,-0.46095 -0.10615,-0.17177 0.20906,-0.41352 0.70073,-0.53692 0.49166,-0.1234 0.80628,-0.36617 0.69918,-0.5395 -0.10714,-0.17333 -0.0174,-0.31523 0.19948,-0.31523 0.21689,0 0.28105,-0.1832 0.14262,-0.40721 -0.0786,-0.12718 -0.10267,-0.20486 -0.0749,-0.23099 z m -66.43212,0.68368 c -0.19182,-0.002 -0.39682,0.0183 -0.56844,0.063 -0.34324,0.0894 -0.14748,0.1687 0.4346,0.1757 0.58207,0.007 0.86257,-0.0662 0.62373,-0.16278 -0.11942,-0.0483 -0.29807,-0.0736 -0.48989,-0.076 z m 22.8446,0.0708 c -0.0823,0.007 -0.20076,0.0708 -0.3452,0.19069 -0.26038,0.21614 -0.58605,0.28003 -0.72398,0.14211 -0.13788,-0.13792 -0.14439,0.0263 -0.0145,0.36483 h -5.2e-4 c 0.18384,0.47909 0.34475,0.52549 0.7245,0.21033 0.26839,-0.22274 0.48783,-0.56355 0.48783,-0.75758 0,-0.10764 -0.0459,-0.15735 -0.12816,-0.15038 z m -3.92844,1.64796 c -0.29104,0 -0.52917,0.23285 -0.52917,0.5178 0,0.31574 0.20683,0.43893 0.52917,0.31523 0.29104,-0.11168 0.52917,-0.34505 0.52917,-0.51832 0,-0.17327 -0.23813,-0.31471 -0.52917,-0.31471 z m -1.06867,0.38241 c -0.12062,0.0355 -0.29587,0.2593 -0.5147,0.66818 -0.3046,0.56912 -0.27456,0.65914 0.16382,0.49092 0.29554,-0.1134 0.53743,-0.42734 0.53743,-0.69763 0,-0.34454 -0.0659,-0.49694 -0.18655,-0.46147 z m -1.26246,0.0517 c -0.0521,-0.0459 -0.17364,0.053 -0.3147,0.2713 -0.18808,0.29104 -0.3421,0.68809 -0.3421,0.88211 0,0.19403 0.15402,0.11484 0.3421,-0.17621 0.18808,-0.29104 0.34158,-0.68809 0.34158,-0.88212 0,-0.0485 -0.01,-0.0798 -0.0269,-0.0951 z m -1.27537,1.34772 c -0.16862,0 -0.45813,0.11162 -0.80357,0.33486 -0.45601,0.29468 -0.44639,0.34227 0.0677,0.34727 0.3281,0.003 0.6945,-0.15324 0.81442,-0.34727 0.13797,-0.22324 0.0901,-0.33486 -0.0786,-0.33486 z m 39.86165,0.0212 c -0.0298,0.0298 0.008,0.16564 0.10335,0.41703 0.13248,0.34789 0.32961,0.54374 0.43822,0.43512 0.10862,-0.10862 2.8e-4,-0.39322 -0.24081,-0.63252 -0.17421,-0.17291 -0.27101,-0.24938 -0.30076,-0.21963 z m -79.50006,0.35709 c 0.12256,0.005 0.2282,0.0375 0.28681,0.0961 0.11722,0.11719 -0.0911,0.20082 -0.46302,0.18552 -0.41097,-0.0169 -0.49485,-0.10082 -0.21343,-0.21343 0.12733,-0.051 0.26709,-0.0732 0.38964,-0.0682 z m 5.67408,0.002 c -0.15986,0 -0.32005,0.0244 -0.44132,0.0734 -0.24253,0.0978 -0.0437,0.17828 0.44132,0.17828 0.48506,0 0.68332,-0.0804 0.4408,-0.17828 -0.12127,-0.0489 -0.28095,-0.0734 -0.4408,-0.0734 z m 1.73426,0.35088 c -0.12256,-0.005 -0.26231,0.0173 -0.38964,0.0682 -0.28142,0.11261 -0.19755,0.19601 0.21342,0.21291 0.37192,0.0153 0.58024,-0.0678 0.46302,-0.185 -0.0586,-0.0586 -0.16425,-0.0911 -0.2868,-0.0961 z m 79.0515,0.339 c 0.34893,0.0128 0.28899,0.12306 -0.17621,0.32297 -0.96984,0.41675 -1.527,0.41675 -0.88212,0 0.29104,-0.18808 0.76729,-0.33357 1.05833,-0.32297 z m -84.31371,0.0155 c 0.15985,0 0.31953,0.0249 0.4408,0.0739 0.24253,0.0978 0.0443,0.17776 -0.4408,0.17776 -0.48507,0 -0.68334,-0.0799 -0.4408,-0.17776 0.12126,-0.0489 0.28094,-0.0739 0.4408,-0.0739 z m 2.15439,0.65991 c 0.8199,0 1.4249,0.057 1.3441,0.12609 -0.40404,0.34556 -2.43988,0.51277 -2.62361,0.21549 -0.12313,-0.19922 0.40918,-0.34158 1.27951,-0.34158 z m 79.64785,0.75086 c 0.19182,0.002 0.37047,0.0282 0.48989,0.0765 0.23887,0.0966 -0.0422,0.16926 -0.62425,0.16226 -0.58209,-0.007 -0.7773,-0.0863 -0.43408,-0.1757 0.17162,-0.0447 0.37661,-0.0654 0.56844,-0.063 z m -8.2088,0.0775 c 0.0422,0.006 0.0884,0.0238 0.13694,0.0537 0.19403,0.11991 0.35295,0.33362 0.35295,0.47491 0,0.14129 -0.31733,0.28086 -0.70538,0.31006 -0.38806,0.0292 -0.7059,-0.10527 -0.7059,-0.29869 0,-0.19345 0.15892,-0.25324 0.35295,-0.13333 0.19402,0.11992 0.35295,0.0402 0.35295,-0.17673 0,-0.16266 0.089,-0.24805 0.21549,-0.22996 z m 1.03146,0.45992 c -0.0215,-0.0508 0.16299,0.0505 0.54467,0.28112 0.50056,0.30247 0.99009,0.46977 1.08779,0.37207 0.0977,-0.0977 0.17776,0.0609 0.17776,0.35192 0,0.29104 -0.0133,0.5281 -0.0294,0.5271 -0.0162,-9.6e-4 -0.50571,-0.40636 -1.08779,-0.90124 -0.44384,-0.37734 -0.67147,-0.58019 -0.69298,-0.63097 z m -58.91372,0.26355 c 0.0358,-0.009 0.0685,-8e-4 0.0956,0.0264 0.10862,0.10861 2.9e-4,0.39322 -0.24081,0.63252 -0.34841,0.34581 -0.38885,0.30537 -0.1974,-0.19741 0.0993,-0.26092 0.2351,-0.43591 0.34261,-0.46147 z m 64.70768,0.25787 c 0.0333,0.0353 -0.084,0.19775 -0.3266,0.51418 -0.28465,0.37132 -0.52268,0.70172 -0.52968,0.73432 -0.007,0.0326 -0.40871,-0.17704 -0.89348,-0.46561 -0.48477,-0.28858 -0.59236,-0.43475 -0.23875,-0.32504 0.3536,0.10972 0.98877,0.0153 1.41128,-0.20981 0.36006,-0.19182 0.54394,-0.28336 0.57723,-0.24804 z m -7.12773,0.30695 c 0.19403,0 0.55065,0.23813 0.7922,0.52917 0.24499,0.29519 0.28309,0.52917 0.0863,0.52917 -0.19402,0 -0.55015,-0.23812 -0.79168,-0.52917 -0.24499,-0.29518 -0.28361,-0.52917 -0.0868,-0.52917 z m 1.6862,0.47698 c 0.12588,0.024 0.32597,0.17456 0.51005,0.39636 0.27826,0.33527 0.30472,0.53795 0.0708,0.53795 -0.42635,0 -0.92316,-0.66951 -0.67851,-0.91416 0.0222,-0.0222 0.0557,-0.0282 0.0977,-0.0202 z m -64.40124,0.0915 c 0.55326,-0.0174 1.06557,0.0461 1.06557,0.20516 0,0.15664 -0.58203,0.28474 -1.29346,0.28474 -0.71143,0 -1.19902,-0.0944 -1.08365,-0.20981 0.16424,-0.16422 0.75829,-0.26263 1.31154,-0.28009 z m -10.2526,0.18087 c 0.12255,0.005 0.22768,0.0375 0.28629,0.0961 0.11723,0.11718 -0.0911,0.2003 -0.46302,0.185 -0.41097,-0.0169 -0.49434,-0.10029 -0.21291,-0.2129 0.12733,-0.051 0.26709,-0.0733 0.38964,-0.0682 z m 63.39768,0.0956 c 0.0749,-0.0301 0.14217,0.0857 0.2372,0.33332 0.12362,0.32218 0.0764,0.58601 -0.10542,0.58601 -0.18188,0 -0.23933,0.23812 -0.12765,0.52916 0.22052,0.57466 -0.0603,0.72833 -0.38137,0.20878 -0.10884,-0.17611 -0.0661,-0.67807 0.0956,-1.11518 0.12429,-0.33599 0.20678,-0.51193 0.28164,-0.54209 z m -56.57742,0.21911 c 0.92162,-0.003 1.67586,0.13395 1.67586,0.30438 0,0.44218 -2.78296,1.09758 -3.02152,0.71158 -0.10734,-0.17368 0.0127,-0.31843 0.26665,-0.32143 0.33554,-0.004 0.31682,-0.0988 -0.0677,-0.34726 -0.38272,-0.24734 -0.0653,-0.34327 1.1467,-0.34727 z m 71.14346,0.0382 c 0.12255,0.005 0.22819,0.0375 0.2868,0.0961 0.11723,0.11718 -0.0911,0.2003 -0.46302,0.185 -0.41097,-0.0169 -0.49484,-0.10029 -0.21342,-0.2129 0.12733,-0.051 0.26708,-0.0733 0.38964,-0.0682 z m -16.72353,0.0243 c -0.11744,-0.0665 -0.1009,0.0799 0.0413,0.46095 0.23395,0.62682 0.19652,0.65132 -0.33228,0.22118 -0.70263,-0.57154 -0.76609,-0.30924 -0.1602,0.66094 0.42821,0.68566 0.43907,0.68467 0.71624,-0.0646 0.16914,-0.45724 0.12817,-0.91299 -0.10284,-1.14205 -0.0692,-0.0686 -0.12311,-0.11428 -0.16226,-0.13643 z m 10.40298,0.28474 c 0.0182,-0.0182 0.16104,0.0886 0.4408,0.30799 0.33955,0.26629 0.61754,0.54372 0.61754,0.61702 0,0.29035 -0.29001,0.10343 -0.75086,-0.48421 -0.21941,-0.27977 -0.32569,-0.4226 -0.30748,-0.4408 z m 4.82968,0.005 c 0.23109,-0.003 0.5183,0.15375 0.63821,0.34778 0.27068,0.43798 0.14856,0.43798 -0.52917,0 -0.31796,-0.20548 -0.36149,-0.34478 -0.10904,-0.34778 z m -28.99203,0.11007 c -0.0307,-0.008 -0.0585,-9.1e-4 -0.0817,0.0222 -0.0925,0.0925 -0.0638,0.33774 0.0641,0.54467 0.34783,0.56285 0.55119,0.45316 0.31264,-0.16847 -0.0862,-0.22459 -0.20295,-0.3758 -0.29507,-0.39842 z m 26.66349,0.26975 c 0.0361,-0.0283 0.13654,0.0425 0.31213,0.20464 0.24623,0.22733 0.65036,0.33591 0.89813,0.24081 0.24778,-0.0951 0.55508,-0.003 0.68317,0.20412 0.13552,0.21927 -0.0618,0.37672 -0.47233,0.37672 -0.38806,0 -0.79947,0.15189 -0.91415,0.33745 -0.11468,0.18553 -0.46779,0.23778 -0.78445,0.11627 -0.40709,-0.15621 -0.49402,-0.0891 -0.29714,0.22944 0.20863,0.33757 0.0796,0.38724 -0.51521,0.19844 -0.54082,-0.17166 -0.71738,-0.12706 -0.55294,0.13901 0.31009,0.50169 -0.003,0.4951 -0.96997,-0.0202 -0.72074,-0.384 -0.73629,-0.3684 -0.24133,0.24236 0.47951,0.59171 0.47158,0.63134 -0.0879,0.42168 -0.33955,-0.12725 -0.61753,-0.0681 -0.61753,0.13126 0,0.19942 -0.17651,0.25321 -0.39223,0.11989 -0.21572,-0.13332 -0.51337,-0.0463 -0.66145,0.19327 -0.18583,0.30064 -0.34223,0.31816 -0.50437,0.0558 -0.13487,-0.21823 0.13705,-0.47366 0.63821,-0.59945 0.53831,-0.1351 0.80276,-0.40118 0.6904,-0.69401 -0.13458,-0.35069 0.10257,-0.4386 0.90588,-0.33693 0.5982,0.0757 1.08728,-0.009 1.08728,-0.18759 0,-0.17869 0.23811,-0.23312 0.52916,-0.12144 0.29128,0.11178 0.52917,0.0104 0.52917,-0.22531 0,-0.2351 0.22992,-0.33992 0.51108,-0.23203 0.36236,0.13905 0.45037,0.0213 0.30127,-0.40359 -0.0825,-0.23509 -0.11099,-0.36241 -0.0749,-0.39067 z m -30.29789,0.0393 c -0.0243,0.0247 0.0166,0.20168 0.11007,0.54364 0.16909,0.61879 0.0963,0.74538 -0.33383,0.58032 -0.30258,-0.11612 -0.44637,-0.39275 -0.31936,-0.61495 0.12697,-0.22218 0.10089,-0.28646 -0.0579,-0.14262 -0.15878,0.14383 -0.50566,0.0818 -0.77049,-0.13798 -0.38055,-0.31583 -0.43452,-0.27833 -0.2589,0.17932 0.12221,0.31848 0.37338,0.57877 0.5581,0.57877 0.18468,0 0.22217,0.18372 0.0837,0.40773 -0.15024,0.24313 -0.0973,0.31178 0.13126,0.17053 0.2106,-0.13016 0.49526,-0.0552 0.63252,0.16692 0.17342,0.28061 0.34815,0.22864 0.57154,-0.17053 0.20271,-0.3623 0.17801,-0.80232 -0.0662,-1.19166 -0.16725,-0.26672 -0.25634,-0.39422 -0.2806,-0.36949 z m 24.49825,0.28112 c -0.0815,0 -0.42099,0.41658 -0.75448,0.92553 -0.33348,0.50896 -0.43223,0.81745 -0.21911,0.68574 0.40724,-0.25169 1.22878,-1.61127 0.97359,-1.61127 z m -22.0338,0.0264 c -0.0281,0.0281 0.0704,0.2273 0.27233,0.62115 0.23241,0.45318 0.51944,0.72751 0.63769,0.60926 0.11825,-0.11825 -0.072,-0.48931 -0.42271,-0.82424 -0.30476,-0.29108 -0.45925,-0.43423 -0.48731,-0.40617 z m 6.04821,0.108 c -0.0318,-8e-4 -0.073,0.0135 -0.12299,0.0444 -0.1918,0.11854 -0.3483,0.36519 -0.3483,0.54777 0,0.50745 0.25278,0.39567 0.48731,-0.21549 0.0903,-0.23547 0.0793,-0.37432 -0.016,-0.37672 z m 2.53008,0.68678 c 0.0921,0.0226 0.20889,0.17387 0.29507,0.39842 0.23854,0.62163 0.0352,0.73132 -0.31264,0.16847 -0.1279,-0.20693 -0.15658,-0.45217 -0.0641,-0.54467 0.0231,-0.0231 0.0509,-0.0298 0.0816,-0.0222 z m 5.12681,0.0863 c 0.18032,0.0434 0.33849,0.20916 0.33849,0.4656 0,0.15024 -0.22304,0.27337 -0.49558,0.27337 -0.27251,0 -0.41454,-0.2106 -0.31574,-0.46819 0.0901,-0.23477 0.29252,-0.31416 0.47283,-0.27078 z m -2.37039,0.22324 c 0.0727,0.009 0.17728,0.0776 0.30385,0.20412 0.22919,0.2296 0.33537,0.49973 0.23513,0.59997 -0.23544,0.23544 -0.65267,-0.1818 -0.65267,-0.65268 0,-0.11053 0.041,-0.16063 0.11369,-0.15141 z m -6.69985,0.03 c 0.083,0.004 0.21572,0.087 0.41289,0.25063 0.29104,0.24154 0.52917,0.59766 0.52917,0.79169 0,0.19678 -0.23399,0.15868 -0.52917,-0.0863 -0.29549,-0.2452 -0.52916,-0.28338 -0.52916,-0.0863 0,0.19412 0.33639,0.57643 0.74775,0.84956 v 5.2e-4 l 0.74776,0.49661 h -0.76481 c -0.4206,0 -0.82594,-0.0616 -0.90124,-0.13695 -0.0753,-0.0753 -0.90146,-0.17874 -1.83554,-0.22944 -2.1186,-0.11509 -2.16124,-0.12916 -1.55133,-0.51521 0.2875,-0.18222 0.84198,-0.18618 1.30586,-0.01 0.66476,0.25275 0.76798,0.20587 0.58705,-0.26562 -0.14005,-0.36497 -0.0789,-0.48494 0.16898,-0.33176 0.2136,0.132 0.48958,0.0763 0.6134,-0.12403 0.12383,-0.20032 0.37283,-0.27337 0.55345,-0.16174 0.18062,0.11163 0.32867,0.0158 0.32867,-0.21343 0,-0.15528 0.0333,-0.23192 0.11627,-0.22841 z m -41.77368,0.29404 c 0.12255,0.005 0.22819,0.0375 0.2868,0.0961 0.11722,0.11718 -0.0911,0.20082 -0.46302,0.18552 -0.41097,-0.0169 -0.49484,-0.10081 -0.21342,-0.21342 0.12733,-0.051 0.26709,-0.0733 0.38964,-0.0682 z m 15.60111,0.34623 c -0.0153,0.0502 0.0735,0.23439 0.25787,0.58033 0.50799,0.95334 0.60667,0.97354 0.90847,0.18707 0.12802,-0.33364 0.11983,-0.49346 -0.0181,-0.35553 -0.13793,0.13792 -0.48971,0.0533 -0.78186,-0.18759 -0.23151,-0.19085 -0.35112,-0.27446 -0.36639,-0.22428 z m 4.75837,0.12765 c 0.15119,-0.004 0.28135,0.1208 0.48989,0.37207 0.25293,0.30475 0.6723,0.47238 0.93225,0.37258 0.25996,-0.0998 0.47284,-0.0277 0.47284,0.1602 0,0.48929 -1.18353,0.42205 -1.74512,-0.0992 -0.28708,-0.26646 -0.38569,-0.28131 -0.24908,-0.0372 v 5.2e-4 c 0.12437,0.2222 -0.006,0.49263 -0.28939,0.60151 -0.80071,0.30726 -0.94808,-0.31608 -0.22841,-0.96738 0.29324,-0.26537 0.46583,-0.39883 0.61702,-0.40307 z m 13.53664,0.1881 c 0.0182,-0.0182 0.16104,0.0886 0.4408,0.30799 0.33955,0.26629 0.61754,0.54423 0.61754,0.61753 0,0.29035 -0.29001,0.10343 -0.75086,-0.48421 -0.21941,-0.27976 -0.32569,-0.4231 -0.30748,-0.44131 z m 6.92413,0.0114 c -0.21877,0.006 -0.0898,0.24429 0.2868,0.52916 0.87972,0.6654 1.10802,0.66058 0.55036,-0.0114 -0.24154,-0.29104 -0.61838,-0.52379 -0.83716,-0.51779 z m 17.61856,0.34158 c -0.097,0 -0.34629,0.31733 -0.55397,0.70538 -0.20722,0.38806 -0.29802,0.70538 -0.20102,0.70538 0.097,0 0.34629,-0.31732 0.55397,-0.70538 0.20722,-0.38805 0.29802,-0.70538 0.20102,-0.70538 z m -25.35711,0.005 c 0.23108,-0.003 0.51829,0.15375 0.63821,0.34778 0.27068,0.43798 0.14856,0.43798 -0.52917,0 -0.31795,-0.20548 -0.36149,-0.34478 -0.10904,-0.34778 z m -34.84542,0.0382 c 0.12256,0.005 0.22768,0.0375 0.28629,0.0961 0.11722,0.11719 -0.0911,0.20082 -0.46302,0.18552 -0.41097,-0.0169 -0.49433,-0.1008 -0.21291,-0.21342 0.12733,-0.051 0.26709,-0.0733 0.38964,-0.0682 z m -0.15141,0.8294 c 0.0592,0.0247 0.0634,0.0897 0.002,0.18965 -0.11854,0.19181 -0.36468,0.34882 -0.54725,0.34882 -0.50745,0 -0.39567,-0.25279 0.21549,-0.48731 0.15698,-0.0602 0.27102,-0.0759 0.33021,-0.0512 z m 29.1083,0.18552 c 0.0182,0.0182 -0.0881,0.16104 -0.30747,0.4408 -0.46086,0.58764 -0.75086,0.77455 -0.75086,0.48421 0,-0.0733 0.27798,-0.35073 0.61753,-0.61702 0.27976,-0.2194 0.42259,-0.3262 0.4408,-0.30799 z m 2.40244,0.0186 c 0.076,0.0463 -0.0259,0.19168 -0.25373,0.46819 -0.27782,0.33715 -0.7408,0.51061 -1.048,0.39274 -0.30232,-0.11608 -0.43713,-0.0987 -0.29921,0.0393 0.13793,0.13791 0.074,0.46412 -0.14211,0.7245 -0.45193,0.54455 -0.88729,0.60774 -1.1591,0.16795 -0.27716,-0.44846 0.8697,-1.3642 2.08721,-1.66605 0.48472,-0.12017 0.73895,-0.17286 0.81494,-0.12661 z m 1.02009,0.21343 c 0.0679,-0.0131 0.10542,0.009 0.10542,0.0698 0,0.24457 0.15046,0.35239 0.33435,0.23875 0.18751,-0.11601 0.26675,0.14544 0.18035,0.59634 -0.16087,0.83993 -1.14109,1.77567 -1.57768,1.50585 -0.13951,-0.0862 -0.55282,0.19692 -0.91829,0.62891 -0.66294,0.78351 -0.66289,0.78371 0.0703,0.16639 0.59703,-0.50269 0.73484,-0.52232 0.73484,-0.10387 0,0.28334 -0.12134,0.44052 -0.26975,0.34882 -0.14841,-0.0917 -0.51889,0.18874 -0.82321,0.62322 -0.49513,0.70685 -0.72835,0.63229 -0.58601,-0.18707 0.0278,-0.16 -0.0983,-0.1994 -0.27957,-0.0873 -0.18133,0.11203 -0.58896,0.10455 -0.90589,-0.0171 -0.52935,-0.20316 -0.52714,-0.27497 0.0233,-0.88315 0.32949,-0.36408 0.76621,-0.66197 0.97048,-0.66197 0.20429,0 0.97315,-0.5879 1.70894,-1.30638 0.55184,-0.53885 1.02868,-0.89185 1.23248,-0.93121 z m 4.51497,0.23823 c 0.27394,0 0.41668,0.13235 0.31678,0.29404 -0.0999,0.16169 -0.24268,0.29403 -0.31678,0.29403 -0.0741,0 -0.21636,-0.13234 -0.31626,-0.29403 -0.0999,-0.16169 0.0423,-0.29404 0.31626,-0.29404 z m 17.33589,0.26716 c -0.0575,-0.0484 -0.29497,0.0163 -0.72657,0.1819 -0.30691,0.11777 -0.55758,0.3559 -0.55758,0.52917 0,0.462 0.33251,0.3858 0.93224,-0.21394 0.28717,-0.28717 0.40939,-0.44876 0.35191,-0.49713 z m -21.81055,0.18707 c -0.24563,0.0372 -0.56457,0.23629 -0.85783,0.58291 -0.66274,0.78338 -0.6625,0.78395 0.0698,0.16743 0.4038,-0.33998 0.84019,-0.51165 0.96997,-0.38188 0.12978,0.12979 0.23616,0.13909 0.23616,0.0212 0,-0.30219 -0.17243,-0.42685 -0.41806,-0.38964 z m -3.06855,0.13384 c -0.19403,0 -0.45059,0.15892 -0.5705,0.35295 -0.11992,0.19402 -0.0592,0.35244 0.13487,0.35244 0.19403,0 0.45059,-0.15842 0.57051,-0.35244 0.11991,-0.19403 0.0591,-0.35295 -0.13488,-0.35295 z m 22.4715,0.11938 c -0.046,-0.0154 -0.33247,0.12334 -0.90537,0.40101 -0.63059,0.30562 -1.14618,0.68407 -1.14618,0.84077 0,0.15671 0.23811,0.28526 0.52916,0.28526 0.29107,0 0.45622,-0.0729 0.36742,-0.16175 -0.0888,-0.0888 0.18923,-0.46669 0.61753,-0.84026 0.38914,-0.3394 0.58344,-0.50958 0.53744,-0.52503 z m 7.1205,0.23357 c 0.19402,0 0.35295,0.15842 0.35295,0.35244 0,0.19403 -0.15893,0.35295 -0.35295,0.35295 -0.19403,0 -0.35295,-0.15892 -0.35295,-0.35295 0,-0.19402 0.15892,-0.35244 0.35295,-0.35244 z m -62.05513,1.08986 c -0.0303,0.0365 0.0506,0.14509 0.23099,0.33951 0.59648,0.64285 0.55485,1.03973 -0.10904,1.03973 -0.30246,0 -0.45218,0.15893 -0.33227,0.35295 0.29809,0.48235 0.58392,0.44726 1.96112,-0.23977 0.6531,-0.32581 0.98951,-0.65838 0.74775,-0.73898 -0.24176,-0.0806 -0.70183,0.0668 -1.02267,0.32763 -0.50658,0.4119 -0.55283,0.39348 -0.35192,-0.14263 0.1273,-0.33955 0.16967,-0.61753 0.0946,-0.61753 -0.0751,0 -0.42696,-0.10284 -0.78238,-0.22841 -0.26436,-0.0934 -0.40583,-0.12898 -0.43615,-0.0925 z m 38.84207,0.38654 c 0.0322,-0.0203 0.10996,0.004 0.22789,0.077 0.224,0.13844 0.40722,0.41602 0.40722,0.6165 0,0.53993 -1.28316,2.07374 -1.52911,1.82779 -0.11642,-0.11642 0.0984,-0.6059 0.47749,-1.08779 0.3791,-0.48189 0.58737,-1.04109 0.46302,-1.2423 -0.0655,-0.10595 -0.0787,-0.17094 -0.0465,-0.1912 z m -36.22983,1.37046 c -0.19403,0 -0.75,0.22707 -1.23506,0.50436 -0.48506,0.27729 -0.7232,0.50385 -0.52917,0.50385 0.19402,0 0.75,-0.22656 1.23507,-0.50385 0.48506,-0.27729 0.72318,-0.50436 0.52916,-0.50436 z m 4.82968,0.83509 c 0.15804,0.0272 -2.26756,2.21208 -3.28817,2.94194 -0.34658,0.24784 -0.56171,0.64489 -0.47801,0.88212 0.0837,0.23722 -0.24052,0.71644 -0.72037,1.06505 -0.47985,0.34861 -0.87229,0.48689 -0.87229,0.30747 0,-0.17942 0.35719,-0.58023 0.79375,-0.8909 0.45663,-0.325 0.54312,-0.48141 0.2036,-0.36845 -0.42609,0.14175 -0.56238,0.0174 -0.48938,-0.44804 0.0556,-0.35456 0.33544,-0.60429 0.62167,-0.55449 0.52491,0.0914 1.59091,-0.84872 1.70274,-1.50171 0.0332,-0.19406 0.22277,-0.3062 0.42168,-0.2496 0.19891,0.0566 0.61957,-0.11794 0.93483,-0.38757 0.31527,-0.26962 0.81172,-0.6168 1.10277,-0.77153 0.0347,-0.0184 0.0566,-0.0261 0.0672,-0.0243 z m 50.0264,0.19844 c 0.021,0.009 -0.13306,0.19145 -0.44131,0.55759 -0.33998,0.4038 -0.51166,0.8407 -0.38189,0.97048 0.12979,0.12978 0.1396,0.23564 0.0217,0.23564 -0.60439,0 -0.49999,-0.68885 0.19327,-1.27537 0.39169,-0.33137 0.58727,-0.49708 0.60823,-0.48834 z m -46.28037,0.70538 c 0.097,0 -0.1108,0.31785 -0.46199,0.7059 -0.35118,0.38806 -0.71794,0.70538 -0.81494,0.70538 -0.097,0 0.1108,-0.31732 0.46199,-0.70538 0.35118,-0.38805 0.71794,-0.7059 0.81494,-0.7059 z m -1.75029,1.41128 c 0.097,0 -0.19645,0.39705 -0.65215,0.88212 -0.4557,0.48507 -0.90759,0.8816 -1.00459,0.8816 -0.097,0 0.19646,-0.39653 0.65216,-0.8816 0.45569,-0.48507 0.90759,-0.88212 1.00458,-0.88212 z m -2.34145,3.55379 c 0.0457,10e-4 0.084,0.0152 0.1111,0.0424 0.10862,0.10862 -0.0872,0.30573 -0.43512,0.43821 -0.50277,0.19145 -0.54322,0.15101 -0.1974,-0.1974 0.17948,-0.18083 0.38432,-0.28723 0.52142,-0.28319 z m -2.00195,0.11421 c 0.0358,-0.009 0.0684,-2.9e-4 0.0956,0.0269 0.10861,0.10862 2.8e-4,0.39321 -0.24081,0.63252 -0.34841,0.34581 -0.38936,0.30537 -0.19792,-0.19741 0.0994,-0.26091 0.23562,-0.43643 0.34313,-0.46198 z m -2.46135,1.97662 c 0.0856,0 0.15555,0.1584 0.15555,0.35243 0,0.19403 -0.16814,0.35295 -0.37362,0.35295 -0.20547,0 -0.27547,-0.15892 -0.15555,-0.35295 0.11991,-0.19403 0.28802,-0.35243 0.37362,-0.35243 z m 2.4319,0.46561 c 0.0662,0.005 0.0928,0.14622 0.0594,0.37362 -0.0445,0.3032 -0.17983,0.64957 -0.30024,0.76997 -0.12042,0.1204 -0.18247,-0.0291 -0.13797,-0.33227 0.0445,-0.3032 0.17931,-0.64957 0.29972,-0.76998 0.0301,-0.0301 0.057,-0.0432 0.0791,-0.0413 z" /></g></svg>
