<?xml version="1.0" encoding="UTF-8" standalone="no"?>
<!-- Created with Inkscape (http://www.inkscape.org/) -->

<svg
   width="103.71637mm"
   height="71.294647mm"
   viewBox="0 0 103.71637 71.294647"
   version="1.1"
   id="svg5"
   xml:space="preserve"
   xmlns:inkscape="http://www.inkscape.org/namespaces/inkscape"
   xmlns:sodipodi="http://sodipodi.sourceforge.net/DTD/sodipodi-0.dtd"
   xmlns="http://www.w3.org/2000/svg"
   xmlns:svg="http://www.w3.org/2000/svg"><sodipodi:namedview
     id="namedview7"
     pagecolor="#ffffff"
     bordercolor="#666666"
     borderopacity="1.0"
     inkscape:showpageshadow="2"
     inkscape:pageopacity="0.0"
     inkscape:pagecheckerboard="0"
     inkscape:deskcolor="#d1d1d1"
     inkscape:document-units="mm"
     showgrid="false"
     inkscape:zoom="0.6480467"
     inkscape:cx="2735.914"
     inkscape:cy="195.97353"
     inkscape:window-width="1440"
     inkscape:window-height="900"
     inkscape:window-x="0"
     inkscape:window-y="0"
     inkscape:window-maximized="0"
     inkscape:current-layer="layer1" /><defs
     id="defs2" /><g
     inkscape:label="Livello 1"
     inkscape:groupmode="layer"
     id="layer1"
     transform="translate(-335.85285,349.80098)"><path
       id="path8860"
       style="fill:#D2D9DE;stroke-width:0.352778"
       d="m 354.38915,-309.8985 c -0.18127,0.10524 0.0569,0.0868 0.64377,-0.0142 0.78795,-0.13565 1.68929,-0.33056 2.00315,-0.43354 0.42564,-0.13965 0.52922,-0.0428 0.40772,0.38043 -0.17396,0.60596 -3.57403,2.18056 -4.88295,2.26138 -0.60199,0.0372 -0.55727,-0.083 0.26575,-0.71177 l 0.98995,-0.75616 -1.10263,0.33442 c -2.70519,0.81984 -8.9438,7.24603 -9.77492,10.06871 -0.29324,0.99594 -0.24099,1.63832 0.19995,2.4678 0.32792,0.61673 0.66928,1.82603 0.7588,2.68716 0.32936,3.16849 3.67511,5.59909 11.32917,8.23156 18.14845,6.24181 23.60216,7.48348 29.17286,6.64105 2.21348,-0.33473 9.83144,-3.52725 11.27606,-4.72553 2.35401,-1.9526 2.1776,-5.34009 -0.42336,-8.12567 -1.70907,-1.83036 -6.20411,-4.85241 -8.36035,-5.62061 -2.95509,-1.05279 -7.79622,-2.00469 -11.38717,-2.23871 -3.43468,-0.22384 -5.43908,-0.56029 -3.99913,-0.67136 2.51354,-0.19391 17.60577,-3.98217 19.97528,-5.01439 1.5289,-0.66589 1.66986,-0.95381 0.86734,-1.77335 -1.09597,-1.11921 -4.75155,-2.14039 -9.481,-2.64891 -2.95045,-0.31726 -6.29133,-1.00119 -8.68503,-1.77798 -3.45617,-1.12159 -4.347,-1.2429 -7.98738,-1.08624 -4.74868,0.20435 -6.28547,0.48291 -9.93416,1.79904 -1.0899,0.39318 -1.69046,0.62163 -1.87173,0.72687 z m -5.73326,4.27949 c 0.36835,-0.16148 0.63906,-0.10531 0.60639,0.12575 -0.0324,0.22953 -0.21525,0.39523 -0.4062,0.36823 -0.19095,-0.027 -0.3407,0.16596 -0.33289,0.42862 0.009,0.28815 -0.0938,0.25766 -0.25876,-0.0767 -0.17583,-0.35649 -0.0364,-0.6583 0.39146,-0.84589 z m 4.28149,-1.63322 c 0.99666,-0.43641 3.95008,-1.27806 6.51481,-1.80429 0.48592,-0.0997 1.33841,-0.52746 1.89437,-0.95066 0.93948,-0.7152 0.8715,-0.71478 -0.96164,0.003 -1.0848,0.42502 -1.64555,0.55011 -1.24647,0.27787 0.39909,-0.27225 1.72605,-0.80386 2.94893,-1.18107 1.79383,-0.55333 2.08923,-0.56787 1.52847,-0.0748 -0.61537,0.54106 -0.56737,0.55068 0.41988,0.08 1.14561,-0.54623 4.08111,-1.0469 4.80732,-0.81989 0.22431,0.0701 -0.18888,0.31378 -0.91803,0.54182 -1.31813,0.41229 -1.16506,0.4091 1.53128,-0.0298 1.99743,-0.32513 1.28557,0.58821 -1.09023,1.39879 -1.94765,0.6645 -1.59259,0.65746 1.45998,-0.029 1.31566,-0.29585 1.87372,-0.27153 1.89028,0.0826 0.0236,0.50455 1.07128,0.69134 1.61405,0.28773 0.19112,-0.14209 0.22945,-0.0529 0.11074,0.26009 -0.0991,0.26178 -1.53878,1.12926 -3.19932,1.92787 l -3.0193,1.45171 3.55637,-1.47894 c 3.95593,-1.64537 4.47205,-1.43254 1.05926,0.43672 l -2.22661,1.21988 2.45518,-1.1271 c 1.35053,-0.62002 2.43686,-1.00028 2.41428,-0.84455 -0.0226,0.1558 0.28627,0.32863 0.68588,0.3843 0.73069,0.1018 -5.54158,2.73606 -12.27353,5.15435 -1.55574,0.55889 -2.70248,1.0675 -2.54858,1.13027 0.25929,0.10573 7.56597,-2.45368 13.32446,-4.66715 1.35978,-0.52263 3.59747,-1.34918 4.97255,-1.83687 1.90821,-0.67677 2.16403,-0.8209 1.0815,-0.60784 -0.7801,0.15354 -1.89428,0.47816 -2.4763,0.72109 -0.83487,0.34853 -1.11823,0.30526 -1.34173,-0.20456 -0.15581,-0.3554 -0.13767,-0.70984 0.04,-0.78774 0.1777,-0.0779 0.42628,0.0946 0.55287,0.38337 0.17615,0.40181 0.42267,0.39049 1.04975,-0.0483 0.4571,-0.31985 1.71744,-0.65005 2.8504,-0.74685 1.11702,-0.0955 1.82351,-0.0533 1.57017,0.0937 -0.25331,0.14707 -0.046,0.22408 0.4606,0.1716 0.8031,-0.0832 0.75785,-0.0177 -0.35476,0.50874 -2.1536,1.01891 -2.00923,1.53689 0.17352,0.62246 1.11993,-0.46913 2.71582,-0.8854 3.54595,-0.92482 1.50077,-0.0713 1.49153,-0.0646 -1.61057,1.15914 -2.27003,0.89548 -2.81956,1.1971 -2.0182,1.10707 0.60572,-0.0681 1.65226,-0.34969 2.32592,-0.62525 0.67318,-0.27536 1.26637,-0.40289 1.31923,-0.28437 0.0521,0.11894 -0.15472,0.33945 -0.45956,0.48979 -0.57629,0.28431 -10.13264,2.77112 -15.29926,3.98122 -1.84456,0.43202 -4.78161,1.48944 -7.75412,2.79223 -3.53446,1.54909 -4.76711,1.97317 -4.71762,1.62298 0.0416,-0.29417 -0.0365,-0.32426 -0.20565,-0.0791 -0.42408,0.6145 -3.50685,1.36168 -3.13475,0.75979 0.19888,-0.32177 -0.0408,-0.25169 -0.69141,0.20156 -0.7133,0.49688 -0.97711,0.55971 -0.92943,0.22239 0.0459,-0.32475 -0.14292,-0.30857 -0.60723,0.0512 -0.977,0.75679 -5.98155,0.25994 -6.37292,-0.6328 -0.0924,-0.21066 1.60371,-0.39914 3.67324,-0.40793 1.88374,-0.008 4.94258,-0.66358 3.87299,-0.83007 -0.34106,-0.0531 -0.87512,0.0128 -1.1873,0.1464 -0.31219,0.13359 -0.62954,0.10203 -0.705,-0.0701 -0.0755,-0.17212 -0.31853,-0.13352 -0.54025,0.0856 -0.22171,0.21914 -0.46878,0.24864 -0.54896,0.0658 -0.0802,-0.18293 -0.76744,-0.26791 -1.52718,-0.18871 -1.90331,0.19838 -2.44813,-0.0562 -1.30756,-0.61056 0.66383,-0.32268 0.72849,-0.41763 0.22224,-0.32707 -1.74359,0.31208 -1.41477,-0.23557 0.57176,-0.95201 l 2.13939,-0.77144 -1.79271,0.30348 -1.79271,0.30349 1.37479,-0.88482 c 0.75621,-0.4866 1.60561,-0.92141 1.88753,-0.96628 0.28194,-0.0449 0.37551,-0.0945 0.20828,-0.11052 -0.16729,-0.016 -0.2803,-0.19587 -0.2515,-0.39983 0.0288,-0.20394 -0.12295,-0.19777 -0.3374,0.0142 -0.21444,0.21194 -0.55388,0.27219 -0.7544,0.13381 -0.22388,-0.1545 -0.0181,-0.41388 0.53308,-0.67212 0.75137,-0.35211 0.77764,-0.41582 0.16091,-0.39103 -0.69002,0.0277 -0.69435,-0.004 -0.0661,-0.50085 0.36895,-0.29168 1.14917,-0.66525 1.73393,-0.83013 0.91094,-0.25686 0.93205,-0.28516 0.14818,-0.19868 -1.48823,0.16418 -0.5588,-0.58542 1.13427,-0.9148 0.85644,-0.16658 1.90332,-0.52384 2.32703,-0.79388 0.60172,-0.38359 0.51802,-0.39409 -0.38352,-0.0485 -0.63479,0.24335 -1.42318,0.40158 -1.75187,0.35159 -0.18954,-0.0288 -0.0746,-0.12939 0.25755,-0.27485 z m -5.33016,3.6339 c 0.18818,-0.0825 0.31588,0.0345 0.28396,0.26032 -0.0319,0.22585 -0.12208,0.4389 -0.20047,0.47327 -0.0784,0.0344 -0.20627,-0.0831 -0.28418,-0.2608 -0.0779,-0.1777 0.0125,-0.39029 0.20069,-0.47279 z m 11.38802,-4.56924 c -0.46438,0.20031 -1.11112,0.59171 -1.92365,1.16832 -1.12277,0.79667 -1.08445,0.79586 0.86037,-0.0144 1.16492,-0.48536 1.97523,-0.9863 1.89417,-1.1712 -0.0837,-0.19089 -0.36634,-0.18267 -0.83089,0.0172 z m 4.21757,-1.44439 c -2.41462,1.10245 -2.80925,1.35118 -1.63525,1.02948 1.43703,-0.39378 4.54382,-1.90758 4.73436,-2.30686 0.0459,-0.0966 -1.34859,0.47819 -3.09911,1.27739 z m -11.97805,5.62631 c -0.11425,0.0446 -0.2333,0.12116 -0.32948,0.2189 -0.21251,0.21613 -0.10268,0.25904 0.28048,0.10951 0.34678,-0.13532 0.5042,-0.29506 0.34978,-0.35533 -0.0772,-0.0301 -0.18653,-0.0177 -0.30077,0.0269 z m 1.29206,-0.56643 c -0.11425,0.0446 -0.23282,0.12095 -0.329,0.21869 -0.21252,0.21614 -0.10269,0.25904 0.28048,0.10951 0.34676,-0.13531 0.5042,-0.29506 0.34978,-0.35533 -0.0772,-0.0301 -0.187,-0.0175 -0.30126,0.0271 z m -6.43395,2.82277 c 0.14641,-0.0642 0.30244,-0.10594 0.43318,-0.10976 0.26139,-0.008 0.11195,0.14502 -0.33233,0.33979 -0.44427,0.19476 -0.65792,0.20118 -0.47509,0.0142 0.0914,-0.0935 0.22784,-0.18003 0.37424,-0.24421 z m 17.37945,-6.85051 c -0.11425,0.0446 -0.23282,0.12096 -0.329,0.2187 -0.21252,0.21613 -0.10249,0.25951 0.28068,0.10998 0.34677,-0.13531 0.504,-0.29552 0.34958,-0.3558 -0.0772,-0.0301 -0.18701,-0.0175 -0.30125,0.0271 z m 4.18895,-1.8353 c -0.17649,0.0752 -0.35609,0.17608 -0.49532,0.28593 -0.27842,0.21978 -0.0673,0.21372 0.46858,-0.0136 0.53591,-0.2273 0.76361,-0.4065 0.5061,-0.39905 -0.12881,0.004 -0.30274,0.0518 -0.47939,0.12663 z m -15.67863,7.25764 c -0.11426,0.0446 -0.23283,0.12095 -0.32901,0.21869 -0.21252,0.21613 -0.10269,0.25904 0.28048,0.10952 0.34677,-0.13532 0.5042,-0.29507 0.34978,-0.35534 -0.0772,-0.0301 -0.187,-0.0175 -0.30125,0.0271 z m 17.77032,-7.79038 c -0.11425,0.0446 -0.23329,0.12117 -0.32947,0.21891 -0.21252,0.21612 -0.10223,0.25883 0.28095,0.1093 0.34677,-0.13531 0.5042,-0.29506 0.34978,-0.35533 -0.0772,-0.0301 -0.18701,-0.0175 -0.30125,0.0271 z m -15.66432,7.24911 c -0.26352,0.11553 -0.51861,0.25028 -0.70167,0.37639 -0.36606,0.25231 -0.0113,0.17197 0.78838,-0.1786 0.79968,-0.35057 1.09913,-0.55708 0.66555,-0.45878 -0.21678,0.0492 -0.48874,0.14547 -0.75226,0.26099 z m 16.94504,-7.03699 c 0.43623,-0.21308 1.0733,-0.34186 1.41537,-0.28645 0.70566,0.1143 0.42121,0.239 -1.13115,0.49589 -0.99395,0.16447 -1.01594,0.14792 -0.28422,-0.20944 z m -19.91818,9.11397 c -0.11425,0.0446 -0.2333,0.12116 -0.32948,0.2189 -0.21252,0.21613 -0.10269,0.25904 0.28048,0.10951 0.34677,-0.13531 0.50421,-0.29507 0.34979,-0.35534 -0.0772,-0.0301 -0.18653,-0.0177 -0.30079,0.0269 z m -15.0351,6.92755 c -0.0195,-0.008 -0.11491,0.16681 -0.22756,0.37286 0.0443,0.0336 0.0887,0.0671 0.13404,0.0998 0.0702,-0.27665 0.11503,-0.46427 0.0935,-0.47266 z m 16.81991,-7.3224 c -0.1464,0.0642 -0.28284,0.15064 -0.37424,0.24421 -0.18285,0.18694 0.0308,0.1806 0.47509,-0.0142 0.44425,-0.19476 0.59375,-0.34754 0.33233,-0.3398 -0.1307,0.004 -0.28677,0.0456 -0.43318,0.10976 z m -4.55866,2.34211 1.48861,-0.11939 c 1.79124,-0.14379 2.62956,-0.40026 2.02102,-0.61799 -0.2387,-0.0854 -1.12615,0.0457 -1.97188,0.29119 z m 6.93416,-3.00102 c -0.11425,0.0446 -0.2333,0.12117 -0.32948,0.21891 -0.21252,0.21612 -0.10269,0.25903 0.28048,0.1095 0.34677,-0.13532 0.50419,-0.29506 0.34978,-0.35533 -0.0772,-0.0301 -0.18653,-0.0177 -0.30078,0.0269 z m 13.73657,-5.64225 c -0.43921,0.19254 -0.87067,0.40276 -1.18856,0.58373 -0.63583,0.36183 -0.0656,0.17995 1.26721,-0.40433 1.33276,-0.58427 1.85293,-0.88044 1.15599,-0.65799 -0.34845,0.11127 -0.79545,0.28605 -1.23464,0.47859 z m -3.9021,1.71611 c -0.11426,0.0446 -0.2333,0.12116 -0.32948,0.2189 -0.21252,0.21613 -0.1027,0.25903 0.28047,0.1095 0.34677,-0.13531 0.5042,-0.29506 0.34979,-0.35534 -0.0772,-0.0301 -0.18654,-0.0177 -0.30078,0.0269 z m -11.96121,5.28376 c -0.34911,0.21157 -0.759,0.7733 -0.64982,1.02235 0.0724,0.16507 0.36334,0.005 0.64717,-0.35654 0.28367,-0.36082 0.42296,-0.69197 0.3098,-0.73616 -0.0813,-0.0317 -0.19079,-2.1e-4 -0.30715,0.0703 z m 1.05524,0.39279 c -0.1917,0.0718 -0.32998,0.16639 -0.36864,0.26599 -0.0773,0.19924 0.33565,0.18419 0.91735,-0.0337 0.99283,-0.37181 1.00114,-0.39402 0.14025,-0.36223 -0.25219,0.009 -0.49725,0.0582 -0.68896,0.12994 z m 3.37913,-0.83815 c -0.23465,0.10178 -0.47235,0.22815 -0.65637,0.3549 -0.36805,0.25339 -0.0863,0.20837 0.62611,-0.0996 0.71236,-0.30793 1.013,-0.51529 0.66865,-0.46072 -0.17216,0.0273 -0.40363,0.1039 -0.63839,0.2054 z m -20.034,9.63362 c 0.0722,0.21804 0.13784,0.43971 0.23363,0.64351 0.0319,-0.11096 0.10417,-0.22548 0.23005,-0.32599 0.42972,-0.343 0.38296,-0.38914 -0.32229,-0.31687 -0.0512,0.005 -0.0936,-10e-4 -0.14137,-7e-4 z m 17.091,-6.84819 c -0.16721,0.0733 -0.33014,0.3177 -0.36206,0.54354 -0.0319,0.22585 0.16854,0.31149 0.44555,0.19005 0.27705,-0.12146 0.43977,-0.36631 0.36187,-0.54402 -0.0779,-0.17769 -0.27814,-0.26287 -0.44536,-0.18957 z m -8.63942,3.82185 c 0.0418,-0.008 0.0837,-0.006 0.12398,0.01 0.11698,0.0457 0.0717,0.36411 -0.10054,0.70762 -0.19535,0.38946 -0.37035,0.49507 -0.46427,0.28084 -0.14978,-0.34166 0.14813,-0.93881 0.44083,-0.99843 z m -1.75667,1.26607 c 0.0191,-0.0489 0.084,-0.0234 0.19205,0.0828 0.19563,0.1923 0.30632,0.47631 0.24604,0.63073 -0.0602,0.15441 -0.22049,-0.003 -0.3558,-0.34958 -0.0752,-0.1914 -0.10135,-0.31511 -0.0823,-0.36399 z m 11.97089,-4.95792 c -0.1464,0.0642 -0.28284,0.15064 -0.37424,0.24421 -0.18285,0.18695 0.0308,0.1806 0.47509,-0.0142 0.44426,-0.19476 0.59423,-0.34775 0.33281,-0.34001 -0.13074,0.004 -0.28726,0.0458 -0.43366,0.10997 z m -8.76416,4.32627 c 0.11758,-0.0805 0.24005,-0.047 0.30537,0.10197 0.0871,0.19865 0.28064,0.18386 0.43021,-0.0329 0.16852,-0.24416 0.24643,-0.21372 0.20492,0.08 -0.0791,0.55989 -0.0462,0.5408 -0.75494,0.4325 -0.39047,-0.0597 -0.48087,-0.20022 -0.29919,-0.46354 0.0358,-0.052 0.0744,-0.0912 0.11358,-0.11804 z m -1.41368,1.04969 c 0.0113,-0.006 0.0409,0.0125 0.0896,0.0578 0.19484,0.18072 0.45102,0.18815 0.56932,0.0167 0.11828,-0.17141 0.30735,-0.0388 0.42037,0.29476 0.11301,0.3335 0.37046,0.88091 0.57215,1.2162 0.31931,0.53084 0.35452,0.49071 0.27143,-0.3114 -0.0915,-0.88373 -0.0815,-0.89223 0.2551,-0.20836 0.38238,0.77685 0.75727,0.77011 1.0654,-0.019 0.11085,-0.28394 0.33191,-0.41245 0.50448,-0.29334 0.16887,0.11654 0.22082,0.72114 0.11561,1.34355 l -0.19116,1.1316 -1.35802,-0.86208 c -0.74666,-0.47405 -1.63229,-1.2613 -1.96827,-1.74957 -0.25202,-0.36616 -0.37998,-0.59938 -0.34606,-0.61678 z m -0.96568,0.99944 c 0.18259,-0.08 0.62588,0.25811 0.98504,0.75138 0.70337,0.96598 0.75707,1.66191 0.0638,0.8263 -0.23064,-0.27804 -0.63589,-0.71368 -0.90025,-0.96854 -0.27429,-0.26443 -0.33797,-0.5261 -0.14855,-0.60914 z m 29.11803,-12.71543 c -0.17649,0.0752 -0.35562,0.17588 -0.49485,0.28572 -0.27846,0.21969 -0.0678,0.21394 0.4681,-0.0134 0.53589,-0.22728 0.76365,-0.40651 0.5061,-0.39905 -0.1288,0.004 -0.30274,0.0518 -0.47938,0.12663 z m 5.32258,-1.94969 c -0.11425,0.0446 -0.23329,0.12116 -0.32948,0.2189 -0.21251,0.21612 -0.10223,0.25883 0.28096,0.1093 0.34668,-0.13527 0.50419,-0.29506 0.34978,-0.35534 -0.0772,-0.0301 -0.18701,-0.0175 -0.30126,0.0272 z m -3.24253,1.42259 c -0.17649,0.0752 -0.35608,0.17608 -0.49532,0.28593 -0.27844,0.21968 -0.0673,0.21372 0.46858,-0.0136 0.5359,-0.22729 0.76343,-0.40696 0.5059,-0.39952 -0.12881,0.004 -0.30254,0.0523 -0.4792,0.12709 z m 1.66805,-0.67536 c -0.37109,0.13047 -0.53065,0.33658 -0.35429,0.45832 l 2e-4,4.7e-4 c 0.38796,0.26773 1.29684,-0.0845 1.1402,-0.44177 -0.0613,-0.13988 -0.41499,-0.14743 -0.78612,-0.0171 z m -29.61253,13.02252 c 0.0191,-0.0489 0.0839,-0.0235 0.19204,0.0828 l -4.8e-4,2.1e-4 c 0.19563,0.19229 0.30678,0.47612 0.24651,0.63053 -0.0603,0.15441 -0.22049,-0.003 -0.35581,-0.34957 -0.0752,-0.19142 -0.10135,-0.31513 -0.0823,-0.36399 z m 27.94394,-11.57614 c -0.1464,0.0642 -0.28331,0.15084 -0.37471,0.24441 -0.18285,0.18695 0.0315,0.18087 0.47576,-0.0139 0.44426,-0.19476 0.59355,-0.34799 0.33213,-0.34026 -0.13074,0.004 -0.28677,0.0456 -0.43318,0.10976 z m -24.61879,10.8903 c 0.0719,-0.003 0.13764,0.0424 0.17891,0.13654 0.0825,0.18819 0.40501,0.23276 0.71718,0.0992 0.31219,-0.13359 1.54448,-0.35179 2.73809,-0.48434 1.54247,-0.1713 2.4678,-0.46008 3.1996,-0.99925 0.56631,-0.41718 1.20719,-0.73387 1.42391,-0.70328 0.21679,0.0306 0.22761,-0.0589 0.0244,-0.19916 -0.54836,-0.37842 0.67142,-1.29256 1.43294,-1.07393 0.3603,0.10343 1.08061,-0.0135 1.60098,-0.2595 0.52036,-0.24603 1.01296,-0.2957 1.09409,-0.11062 0.0824,0.18801 0.43376,0.11463 0.79655,-0.16639 0.35714,-0.27665 0.93151,-0.4492 1.27634,-0.38349 0.48267,0.092 0.43934,0.14571 -0.18929,0.23364 -0.45796,0.0641 -0.75398,0.25705 -0.67405,0.43937 0.0784,0.17879 0.84262,0.13535 1.69847,-0.0963 0.99876,-0.2703 1.86958,-0.25307 2.43191,0.0477 0.48185,0.25771 1.01639,0.34179 1.18782,0.18682 0.17142,-0.15496 0.89501,-0.0823 1.60791,0.16178 0.71294,0.24407 1.08631,0.43228 0.82995,0.41819 -0.25635,-0.0141 -0.49656,0.19083 -0.53393,0.45526 -0.04,0.28323 0.0336,0.33343 0.1794,0.12222 0.34697,-0.50278 2.25262,0.0846 2.58086,0.79545 0.37278,0.80725 1.7526,1.67315 2.29065,1.43727 0.26629,-0.11674 0.45263,0.0386 0.46916,0.39187 0.0161,0.34275 0.12597,0.44301 0.26499,0.24154 0.13079,-0.18951 0.69989,0.0962 1.26468,0.635 1.24265,1.18547 5.12191,3.46107 5.26694,3.08968 0.0571,-0.14609 -0.26781,-0.43256 -0.72197,-0.6365 -0.5338,-0.23972 -0.72828,-0.48571 -0.54983,-0.6956 0.16116,-0.18901 0.1234,-0.2179 -0.09,-0.0688 -0.39564,0.2763 -2.68207,-1.01476 -2.97311,-1.67863 -0.0978,-0.22312 -0.44669,-0.5238 -0.77495,-0.66855 -0.32829,-0.14476 0.0409,-0.19222 0.82032,-0.10572 0.77942,0.0865 1.45296,0.33292 1.49677,0.54791 0.0464,0.22789 0.26467,0.20803 0.52353,-0.0478 0.2926,-0.28922 0.42167,-0.2792 0.378,0.0295 -0.0406,0.28781 0.28883,0.40808 0.85473,0.31254 0.70369,-0.11881 0.88199,-0.0204 0.75672,0.41588 -0.11427,0.3966 -0.0326,0.58973 0.26617,0.63206 0.23681,0.0335 0.36609,-0.0865 0.28721,-0.2664 -0.0789,-0.17992 0.40159,-0.27061 1.06768,-0.20174 0.66608,0.0689 1.22165,0.32817 1.23501,0.57634 0.0133,0.24819 0.1737,0.30406 0.35612,0.12374 0.47204,-0.46656 2.31123,0.2583 2.34232,0.92317 0.0143,0.30564 -0.32055,1.0577 -0.74394,1.67129 -0.59764,0.86585 -1.30518,1.34564 -3.16253,2.14307 -2.44619,1.05034 -6.86971,1.79916 -7.1293,1.20701 -0.0751,-0.17121 -0.23368,-0.23647 -0.3525,-0.14508 -0.47741,0.36744 -3.17162,0.12864 -7.02874,-0.6229 -4.537,-0.88401 -6.31068,-1.60461 -5.85384,-2.37817 0.19492,-0.33005 0.11771,-0.33154 -0.24806,-0.005 -0.37177,0.33225 -0.98492,0.30529 -2.04656,-0.0902 -0.83378,-0.31063 -1.49399,-0.72012 -1.46713,-0.91017 0.0269,-0.19006 -0.11838,-0.27254 -0.32234,-0.18313 -0.62419,0.27364 -2.22552,-0.71075 -1.91324,-1.17616 0.17522,-0.26114 0.0706,-0.3166 -0.29786,-0.15945 -0.31218,0.13359 -0.98588,0.0795 -1.49709,-0.12007 -0.91062,-0.35556 -0.91676,-0.36885 -0.30239,-0.63819 0.34493,-0.15121 0.65002,-0.43542 0.67776,-0.63173 0.0278,-0.19633 -0.37559,-0.0524 -0.8964,0.3196 -0.66625,0.47597 -1.30151,0.63107 -2.14259,0.52345 -0.65746,-0.0841 -1.27171,-0.0418 -1.36512,0.0935 -0.0934,0.1353 -0.3305,-0.20302 -0.52709,-0.75184 -0.20992,-0.58594 -0.51557,-0.92897 -0.74039,-0.83041 -0.58801,0.25778 -1.58953,-0.33872 -1.29212,-0.76967 0.0679,-0.0985 0.14609,-0.14976 0.21805,-0.15259 z m -11.34354,5.49315 c -0.0145,0.009 -0.0212,0.0224 -0.0354,0.0313 0.0625,0.0169 0.12268,0.0375 0.17124,0.0778 0.10089,0.0839 0.0572,0.2767 0.1581,0.36065 0.11756,0.0978 0.28533,0.10728 0.4289,0.16236 0.0542,-0.0651 0.10731,-0.12325 0.15278,-0.14318 0.21859,-0.0958 0.23111,-0.34186 0.0281,-0.54724 -0.19566,-0.19799 -0.58765,-0.12596 -0.90378,0.0582 z m 15.21632,-6.52063 c 0.11424,-0.0446 0.22404,-0.0573 0.30125,-0.0271 l 2.1e-4,4.7e-4 c 0.15441,0.0602 -0.003,0.22003 -0.34978,0.35534 -0.38318,0.14953 -0.493,0.10661 -0.28048,-0.10951 0.0961,-0.0978 0.21451,-0.17462 0.3288,-0.21916 z m 3.2311,-1.41648 c 0.11424,-0.0446 0.22404,-0.0573 0.30125,-0.0271 l 2.1e-4,4.7e-4 c 0.15441,0.0603 -0.003,0.22003 -0.34979,0.35534 -0.38317,0.14953 -0.49347,0.10682 -0.28094,-0.1093 0.0961,-0.0978 0.21497,-0.17483 0.32927,-0.21937 z m 10.33884,-4.53247 c 0.11425,-0.0446 0.22405,-0.0573 0.30126,-0.0271 l 2.1e-4,4.7e-4 c 0.15441,0.0603 -0.003,0.22003 -0.34978,0.35534 -0.38318,0.14953 -0.49301,0.10662 -0.28048,-0.10951 0.0961,-0.0978 0.21451,-0.17462 0.32879,-0.21915 z m 10.69029,-4.68327 c -0.14641,0.0642 -0.28286,0.15065 -0.37424,0.24421 -0.18285,0.18695 0.0308,0.18059 0.47508,-0.0142 0.44426,-0.19476 0.59423,-0.34774 0.33281,-0.33999 -0.13069,0.004 -0.28725,0.0458 -0.43365,0.10996 z m -29.17923,12.96969 c 0.0403,-0.0231 0.0831,-0.0138 0.12581,0.0334 0.17088,0.18906 0.24211,0.58466 0.15852,0.879 -0.10494,0.36941 0.18848,0.80308 0.94712,1.40107 0.60447,0.47646 1.00966,0.64591 0.90105,0.37574 -0.10861,-0.27016 0.31455,-0.13353 0.94098,0.30464 0.62628,0.43786 1.10729,0.84466 1.06876,0.9037 -0.13411,0.20547 -3.11742,-1.13258 -3.26238,-1.46324 -0.0803,-0.18317 -0.26839,-0.15593 -0.41796,0.0608 -0.16851,0.24416 -0.24644,0.21372 -0.20492,-0.08 0.0369,-0.26075 -0.0756,-0.41149 -0.25013,-0.33496 -0.17458,0.0765 -0.28939,-0.42997 -0.25482,-1.12567 0.0259,-0.52177 0.12696,-0.88507 0.24793,-0.95449 z m -1.11255,0.78283 c -0.0683,0.003 -0.14328,0.0519 -0.20801,0.14589 -0.12956,0.18772 -0.17189,0.48698 -0.094,0.66468 0.0779,0.17773 0.24764,0.16908 0.37719,-0.0187 0.12956,-0.18773 0.1721,-0.48652 0.0942,-0.66422 -0.0389,-0.0888 -0.10101,-0.13105 -0.1694,-0.12773 z m 22.1469,-9.41393 c 0.11425,-0.0446 0.22405,-0.0573 0.30126,-0.0271 0.15442,0.0603 -0.003,0.22002 -0.34978,0.35534 -0.38317,0.14952 -0.49349,0.10683 -0.28096,-0.1093 0.0961,-0.0978 0.21523,-0.17428 0.32948,-0.21891 z m -17.58093,8.04477 c -0.17771,0.0779 -0.34935,0.32667 -0.38127,0.55252 -0.0319,0.22585 0.0874,0.3465 0.26503,0.26862 0.17769,-0.0779 0.34954,-0.32619 0.38147,-0.55204 0.0319,-0.22586 -0.0876,-0.34698 -0.26523,-0.2691 z m 20.06998,-8.69305 c 0.42166,-0.20112 0.57854,-0.16486 0.54174,0.0954 -0.0496,0.35096 0.23257,0.28766 1.03589,-0.23181 0.60706,-0.39262 1.08074,-0.55383 1.05317,-0.35841 -0.0276,0.19528 0.22858,0.29352 0.56862,0.21848 l 4.6e-4,-2.1e-4 c 0.33989,-0.075 0.51085,0.013 0.37932,0.19596 -0.13161,0.18305 -0.65325,0.37788 -1.15873,0.43297 -0.50552,0.055 -1.66428,0.31344 -2.57557,0.57446 -1.87887,0.53816 -1.99554,0.32801 -0.35771,-0.6461 0.202,-0.12011 0.37229,-0.21366 0.51284,-0.28073 z m -26.45512,11.87814 c 0.32729,-0.0772 0.98211,0.0834 1.70174,0.47104 0.50486,0.27194 0.58973,0.44658 0.37125,0.76317 -0.1645,0.23836 -0.2589,0.23804 -0.2251,-10e-4 0.032,-0.2267 -0.38415,-0.44746 -0.92514,-0.48988 -0.541,-0.0424 -1.03686,-0.1977 -1.1016,-0.34538 -0.0962,-0.21953 -0.0175,-0.35145 0.17884,-0.39776 z m 39.41652,-16.91651 1.3776,-0.3726 c 0.75758,-0.20493 1.68111,-0.2584 2.0525,-0.11889 0.87708,0.3295 0.4234,0.45598 -1.70375,0.47552 z m -30.17095,13.33054 c -0.62316,0.26991 -1.44547,0.76649 -1.82735,1.10353 l -2.1e-4,-4.8e-4 c -0.56153,0.49566 -0.56979,0.5617 -0.0423,0.34358 0.35861,-0.14848 1.181,-0.6449 1.82735,-1.10354 l 1.1753,-0.83403 z m 22.35672,-9.73331 c 0.0833,-0.0409 0.16299,-0.0649 0.23347,-0.0685 0.28243,-0.0132 0.74351,-0.12508 1.02516,-0.24855 0.28153,-0.12342 0.46039,-0.091 0.39668,0.0721 -0.0637,0.16314 -0.71938,0.61223 -1.45665,0.99801 -1.23846,0.64807 -1.30768,0.64446 -0.90974,-0.0481 0.17766,-0.30921 0.46131,-0.58221 0.71108,-0.705 z m 1.96497,0.19369 c 0.1464,-0.0642 0.30244,-0.10595 0.43318,-0.10976 0.2614,-0.008 0.11194,0.14502 -0.33234,0.33979 -0.44426,0.19475 -0.65792,0.20118 -0.47508,0.0142 0.0914,-0.0935 0.22783,-0.18003 0.37424,-0.24421 z m -19.27194,8.83123 c -0.11426,0.0446 -0.23331,0.12116 -0.32949,0.2189 -0.21251,0.21614 -0.10201,0.25931 0.28117,0.10978 0.34677,-0.13531 0.50399,-0.29552 0.34957,-0.35581 -0.0772,-0.0301 -0.187,-0.0175 -0.30125,0.0271 z m 22.28245,-9.76627 c 0.17648,-0.0752 0.35063,-0.12292 0.47939,-0.12663 0.25755,-0.007 0.03,0.17223 -0.5059,0.39951 -0.53591,0.2273 -0.74702,0.23326 -0.46858,0.0136 0.13925,-0.10985 0.31848,-0.21157 0.49508,-0.28648 z m -33.41779,15.1912 c 0.11779,-0.032 0.25571,-0.0404 0.40752,-0.019 l 4.8e-4,-2e-4 c 0.40726,0.0577 0.5197,0.26408 0.45493,0.83424 -0.0814,0.71628 -0.10044,0.72647 -0.35192,0.17798 -0.14645,-0.3191 -0.37206,-0.42712 -0.50162,-0.23939 -0.12955,0.18773 -0.29928,0.19638 -0.37719,0.0187 -0.16046,-0.366 0.014,-0.67629 0.36784,-0.77233 z m 10.79967,-4.50711 c -0.20496,0.0899 -0.40114,0.20021 -0.53879,0.30904 -0.27537,0.21756 0.008,0.17239 0.63031,-0.10028 0.62192,-0.27265 0.84696,-0.45047 0.50036,-0.3954 -0.17331,0.0275 -0.38692,0.0968 -0.59188,0.18664 z m 26.46662,-11.60218 c 0.11426,-0.0446 0.22405,-0.0573 0.30126,-0.0272 0.15442,0.0603 -0.003,0.22007 -0.34978,0.35534 -0.38319,0.14954 -0.49299,0.10661 -0.28048,-0.10951 0.0962,-0.0978 0.21475,-0.17407 0.329,-0.21869 z m -14.24458,6.47323 c 0.0718,-0.0716 0.57895,-0.064 1.33629,0.0326 1.00981,0.12878 1.86374,0.40131 1.8972,0.60541 0.0403,0.24553 0.23069,0.15442 0.56362,-0.26914 0.58729,-0.74704 0.38625,-0.76105 5.4202,0.38635 4.2429,0.96709 7.30933,2.52503 10.59986,5.38644 1.82297,1.58522 3.36461,4.16183 3.18317,5.32012 -0.041,0.26158 -0.50604,-0.48807 -1.03325,-1.66575 -0.83119,-1.85714 -1.28455,-2.4073 -3.41822,-4.14446 -1.35309,-1.10164 -3.24731,-2.37883 -4.2092,-2.83792 -2.5598,-1.22171 -9.9235,-2.93422 -10.14768,-2.36004 -0.12129,0.31057 -0.044,0.40515 0.23277,0.2839 0.6468,-0.28338 7.0411,1.33896 9.56168,2.42622 2.72822,1.17679 6.39862,4.31927 7.67683,6.57252 0.84774,1.49444 0.87494,1.72166 0.36167,3.03618 -0.53443,1.36915 -0.6537,1.46221 -3.26235,2.56149 -1.48902,0.62745 -3.30006,1.17148 -4.02517,1.20883 -0.72513,0.0373 -1.62189,0.16681 -1.99276,0.28736 -0.37086,0.12055 -0.13863,-0.14015 0.51635,-0.57902 l 1.19108,-0.79807 -1.7334,0.7052 c -1.58664,0.64557 -4.74289,0.75002 -5.00775,0.16578 -0.0498,-0.11118 0.91736,-0.41308 2.15053,-0.67137 2.75413,-0.57705 4.897,-1.70829 6.87045,-3.62641 1.41907,-1.3793 1.47981,-1.53071 1.07892,-2.70006 -0.45416,-1.32478 -1.43229,-2.20238 -3.52299,-3.16075 -0.70502,-0.32318 -1.20233,-0.62226 -1.10511,-0.66488 0.0972,-0.0426 -0.0999,-0.1984 -0.43769,-0.34585 -0.33781,-0.14742 -0.69411,-0.15414 -0.79202,-0.015 -0.0979,0.13912 -0.24111,0.10898 -0.31846,-0.0675 -0.0772,-0.17621 -0.4819,-0.28436 -0.89912,-0.24003 -0.41719,0.0443 -1.0681,-0.19624 -1.44652,-0.53497 -0.3784,-0.33871 -0.7949,-0.4612 -0.92551,-0.27192 -0.13066,0.18929 -0.20905,0.14329 -0.17442,-0.10184 0.0347,-0.24514 -0.12769,-0.47235 -0.36089,-0.50533 -0.23324,-0.033 -0.40183,-0.21904 -0.37434,-0.41368 0.0275,-0.19462 -0.14237,-0.38131 -0.37751,-0.41453 -0.23514,-0.0333 -0.35418,0.0505 -0.26439,0.18589 0.53322,0.80475 -0.50033,0.84555 -1.13589,0.0449 -0.4717,-0.59432 -1.30314,-0.8036 -1.6865,-0.42469 -0.31419,0.31057 -0.36097,0.26351 -0.22156,-0.22223 0.1406,-0.48971 -0.0545,-0.64645 -0.9562,-0.76797 l -1.13284,-0.15281 0.99963,0.31616 c 0.83314,0.26333 0.93047,0.3839 0.58609,0.72427 -0.22836,0.22574 -0.38808,0.23314 -0.3574,0.0162 0.0305,-0.21588 -0.31796,-0.44752 -0.77442,-0.51421 -0.82401,-0.12039 -0.82601,-0.12605 -0.2879,-0.84201 0.49594,-0.65985 0.48951,-0.69079 -0.0717,-0.36299 -0.33734,0.19702 -0.72572,0.23429 -0.86314,0.0827 -0.13743,-0.1516 -0.51091,-0.41043 -0.82989,-0.57507 -0.0797,-0.0412 -0.10412,-0.0741 -0.0802,-0.098 z m -14.35958,6.40399 c -0.33443,0.1466 -0.63427,0.45157 -0.66619,0.67742 -0.0339,0.24023 0.36006,0.22696 0.9494,-0.0314 0.58934,-0.25836 0.86606,-0.53914 0.66639,-0.67695 -0.18773,-0.12955 -0.61517,-0.11569 -0.9496,0.0309 z m 30.36144,-13.26284 c 0.11425,-0.0446 0.22357,-0.0571 0.30079,-0.0269 0.15441,0.0603 -0.003,0.22054 -0.34959,0.35582 -0.38318,0.14953 -0.49298,0.10662 -0.28047,-0.10951 0.0961,-0.0978 0.21498,-0.17483 0.32927,-0.21937 z m -37.88213,16.93505 c 0.14433,-0.14833 0.62031,-0.066 0.92186,0.23912 0.23967,0.24302 0.41257,0.49611 0.3839,0.56295 -0.0673,0.15685 -1.21991,-0.34624 -1.32086,-0.57652 -0.0442,-0.10089 -0.033,-0.17612 0.0151,-0.22555 z m 10.58746,-4.58446 c -0.20496,0.0899 -0.40113,0.2002 -0.53879,0.30903 -0.27536,0.21757 0.008,0.1724 0.63031,-0.10028 0.62192,-0.27264 0.84744,-0.45067 0.50083,-0.3956 -0.17331,0.0275 -0.38739,0.097 -0.59235,0.18685 z m 7.94885,-3.39441 c -1.02758,0.38147 -0.97182,0.59105 0.14794,0.55638 0.47029,-0.0146 0.8952,-0.0329 0.94456,-0.0411 0.0494,-0.008 0.01,-0.19704 -0.0878,-0.41913 -0.0975,-0.22207 -0.54935,-0.26518 -1.00473,-0.0961 z m -16.66439,8.48028 c 0.0321,-0.0272 0.0753,-0.0385 0.1293,-0.0307 0.21597,0.0305 0.40457,0.3044 0.41883,0.60915 0.0365,0.78022 -0.17751,0.78049 -0.51952,3.5e-4 -0.1203,-0.27441 -0.125,-0.49733 -0.0286,-0.57878 z m 9.89024,-4.05763 c -0.17648,0.0752 -0.35561,0.17588 -0.49484,0.28573 -0.27842,0.21978 -0.0678,0.21392 0.4681,-0.0134 0.5359,-0.2273 0.76341,-0.40696 0.50589,-0.39952 -0.12876,0.004 -0.30254,0.0523 -0.47918,0.12709 z m -8.15983,4.76268 c 0.0573,-0.007 0.15649,0.0325 0.28374,0.11823 0.25445,0.17137 0.58115,0.23102 0.72634,0.13297 0.14519,-0.098 0.52592,0.0239 0.84597,0.27068 0.73429,0.56622 1.33708,0.69884 1.57906,0.34821 0.10334,-0.1498 0.24775,-0.13504 0.32116,0.0324 0.0734,0.16746 0.47874,0.24991 0.90062,0.18296 0.5436,-0.0863 0.77598,0.0649 0.79727,0.51998 0.0252,0.53914 0.0803,0.54227 0.34317,0.0183 0.21416,-0.42701 0.36283,-0.50962 0.47162,-0.26146 0.0874,0.19945 0.25794,0.29182 0.37885,0.20519 0.62602,-0.44859 1.59926,-0.10827 1.724,0.6029 0.0736,0.41934 0.13729,0.54431 0.14194,0.27745 0.0127,-0.73097 0.68662,-0.88443 2.05226,-0.46692 0.92044,0.28135 1.25027,0.57342 1.31295,1.16341 0.046,0.43327 -0.072,0.76592 -0.26227,0.73902 -0.1903,-0.0269 -0.34136,0.1668 -0.33552,0.43033 0.006,0.26358 -0.13184,-0.0651 -0.30605,-0.73024 -0.2876,-1.09805 -0.33504,-1.13605 -0.51621,-0.41298 -0.18119,0.72314 -0.25967,0.76657 -0.85144,0.46979 -0.35842,-0.17979 -0.86737,-0.23252 -1.13118,-0.11686 -0.30069,0.13182 -0.48983,-0.008 -0.50701,-0.37527 -0.0167,-0.35627 -0.12472,-0.44463 -0.276,-0.22544 -0.13679,0.19822 -0.46145,0.0914 -0.72131,-0.23731 -0.25986,-0.32873 -0.55169,-0.48285 -0.64843,-0.3426 -0.0967,0.14024 -0.93699,-0.0426 -1.86725,-0.40582 -0.93026,-0.36322 -1.63753,-0.53695 -1.57156,-0.38648 0.066,0.15047 -0.53045,-0.0238 -1.32533,-0.38723 -0.79487,-0.36341 -1.51111,-0.81771 -1.59171,-1.00903 -0.0408,-0.0954 -0.0249,-0.14755 0.0323,-0.15412 z m 22.74842,-8.75228 c 0.0472,-0.0515 0.13305,-0.0752 0.24595,-0.0593 0.22585,0.0319 0.43889,0.12207 0.47326,0.20047 0.0344,0.0784 -0.0831,0.20627 -0.26079,0.28417 -0.1777,0.0779 -0.39077,-0.0123 -0.47327,-0.20047 -0.0412,-0.0941 -0.0324,-0.17335 0.0148,-0.22486 z m 4.29552,-0.48662 c -0.009,0.024 0.14601,0.11239 0.45927,0.28052 0.65803,0.35316 0.99799,0.40764 0.88141,0.14173 -0.0294,-0.0671 -0.39494,-0.20982 -0.81284,-0.31737 -0.34432,-0.0886 -0.51847,-0.12887 -0.52784,-0.10488 z m -1.01241,0.76545 1.33446,0.40804 c 1.36842,0.41832 1.54191,0.44237 1.43588,0.20052 -0.0337,-0.0768 -0.67046,-0.24519 -1.41554,-0.37419 z m -3.13617,1.62144 c 0.0443,-0.0464 0.15418,-0.0785 0.32232,-0.0859 0.32217,-0.0151 0.61109,0.0296 0.64173,0.0995 0.11471,0.26168 -0.56564,0.38435 -0.88997,0.16052 -0.0968,-0.0668 -0.11831,-0.12765 -0.0741,-0.17403 z m 5.6339,-2.07488 1.17274,0.54496 c 1.09615,0.50951 1.44787,0.60117 1.33679,0.34778 -0.0254,-0.0579 -0.60025,-0.28235 -1.27779,-0.49891 z m -18.83685,8.92146 c 0.0499,-0.12778 0.42104,0.10387 0.82506,0.51515 0.40423,0.41118 0.69408,0.85257 0.64419,0.98035 -0.0499,0.12779 -0.42124,-0.10432 -0.82526,-0.5156 -0.40423,-0.41118 -0.69388,-0.85211 -0.64399,-0.9799 z m -0.17049,2.49929 c -0.0337,0.0104 -0.0656,0.0342 -0.0925,0.0733 -0.10798,0.15642 -0.13636,0.4213 -0.0631,0.58851 0.0733,0.16722 0.25463,0.25118 0.40271,0.18626 0.14809,-0.0649 0.17649,-0.32977 0.0631,-0.58851 -0.0851,-0.19407 -0.20833,-0.2899 -0.31015,-0.25956 z m 3.92003,-1.20673 c 0.18483,-0.0387 0.53112,-0.009 1.09422,0.0789 0.78614,0.12228 1.51522,0.40141 1.61992,0.62032 0.23338,0.48677 0.0297,0.60811 -0.45669,0.27238 -0.1993,-0.13755 -0.76974,-0.22961 -1.26789,-0.20476 -0.49817,0.0248 -1.00028,-0.16962 -1.11548,-0.43239 -0.0825,-0.18822 -0.0589,-0.2958 0.1259,-0.33449 z m 13.84779,-6.01147 c -0.28756,0.12606 -0.36879,0.33519 -0.18107,0.46475 0.18773,0.12956 0.39641,0.21103 0.46428,0.18127 0.0679,-0.0297 0.14983,-0.23863 0.18175,-0.46448 0.0319,-0.22585 -0.17743,-0.3076 -0.46496,-0.18154 z m -15.17713,6.88543 1.15558,0.55474 c 0.63566,0.30496 1.08478,0.392 0.99794,0.1939 -0.0868,-0.19808 0.0375,-0.3322 0.27655,-0.29841 0.24588,0.0348 0.54707,0.53976 0.69328,1.16309 l 0.23498,1.00064 c -0.16862,-0.0671 -0.35287,-0.19245 -0.55579,-0.39901 -0.3872,-0.39417 -0.8104,-0.56301 -0.9402,-0.37494 -0.13131,0.19027 -0.38344,0.0124 -0.56816,-0.4015 -0.26058,-0.58443 -0.3515,-0.61375 -0.42395,-0.13689 -0.13049,0.85926 -0.67512,0.53566 -0.78134,-0.46432 z m 21.37817,-7.90217 c -0.099,0.0182 -0.19112,0.074 -0.2526,0.1626 -0.12275,0.17783 -0.0775,0.42406 0.10033,0.54677 0.17784,0.12276 0.42337,0.0772 0.5461,-0.10059 0.12276,-0.17783 0.0777,-0.42359 -0.10013,-0.54631 -0.0889,-0.0614 -0.19469,-0.0807 -0.29372,-0.0625 z m -17.74195,8.55658 c 0.0522,-0.0119 0.11301,0.006 0.18217,0.0539 0.22779,0.1572 0.38459,0.51563 0.34851,0.79626 -0.0508,0.39552 0.002,0.37965 0.23564,-0.07 0.23411,-0.45101 0.50374,-0.5246 1.21232,-0.33003 0.79116,0.21723 0.92401,0.40393 1.00503,1.41349 0.0991,1.23416 -0.24223,1.26814 -1.64682,0.16392 -0.40405,-0.31765 -0.83501,-0.37434 -1.07119,-0.1409 -0.13871,0.13713 -0.31582,0.15898 -0.51895,0.0853 l 0.01,-1.05723 c 0.006,-0.57425 0.0866,-0.87896 0.24336,-0.91468 z m 1.77363,-0.46157 c 0.004,-0.0252 0.21654,-0.0189 0.63972,-0.003 0.48478,0.0185 0.91089,0.10085 0.9471,0.18345 0.10839,0.24723 -0.0905,0.24949 -0.98118,0.0103 -0.40689,-0.10924 -0.61006,-0.16576 -0.60564,-0.19096 z m -0.0182,1.0885 c -0.0492,0.0107 -0.0826,0.14725 -0.12603,0.41524 -0.0554,0.34207 -0.0516,0.74104 0.009,0.88601 0.0603,0.145 0.21594,0.10962 0.3455,-0.0781 0.12955,-0.18773 0.12553,-0.58604 -0.009,-0.88532 -0.10504,-0.23463 -0.17009,-0.34887 -0.21918,-0.33782 z m 1.798,0.3933 c 0.12327,-0.0265 0.3191,0.0592 0.64924,0.24408 0.42335,0.23708 0.88613,0.68355 1.02795,0.99211 0.34592,0.75169 -0.0172,0.86555 -0.56197,0.17637 -0.25961,-0.32841 -0.58958,-0.40129 -0.81352,-0.17995 -0.43346,0.42844 -0.65089,0.0897 -0.51549,-0.80262 0.0401,-0.26462 0.0905,-0.40347 0.21379,-0.43001 z m 15.72882,-5.64503 c 0.0191,-0.0489 0.0839,-0.0235 0.19204,0.0828 0.19553,0.19234 0.30632,0.47632 0.24604,0.63073 -0.0603,0.15443 -0.22041,-0.003 -0.35581,-0.34957 -0.0752,-0.19141 -0.10135,-0.31512 -0.0823,-0.36398 z m -13.70232,6.24679 c 0.50558,-0.22164 2.43946,0.79756 2.76493,1.4573 0.26477,0.5367 0.36701,0.59908 0.30103,0.18345 -0.1323,-0.83288 0.18551,-0.9323 1.06342,-0.33248 0.39615,0.27067 0.76834,0.36906 0.82709,0.21859 0.14199,-0.36364 1.2483,-0.0324 1.44451,0.43258 0.0851,0.20157 -0.0816,0.21026 -0.37075,0.0192 -0.35045,-0.23155 -0.46789,-0.21236 -0.35353,0.0585 0.0946,0.22332 0.0577,0.44225 -0.0817,0.48666 -0.63942,0.20367 -1.21944,0.0731 -1.38856,-0.31267 -0.10171,-0.232 -0.42007,-0.29491 -0.70727,-0.13963 -0.28721,0.15528 -1.07668,-0.0636 -1.75419,-0.48642 -1.02776,-0.64144 -1.18276,-0.65667 -0.9359,-0.0936 0.16273,0.3712 0.21462,0.79265 0.11509,0.93696 -0.0998,0.14431 -0.37651,-0.33076 -0.61517,-1.05572 -0.23866,-0.72497 -0.37784,-1.34258 -0.30897,-1.37277 z m 12.87475,-5.49861 c 0.0191,-0.0489 0.084,-0.0234 0.19203,0.0828 0.19553,0.19234 0.30632,0.47632 0.24604,0.63073 -0.0603,0.15443 -0.2204,-0.003 -0.35581,-0.34957 -0.0752,-0.19141 -0.10135,-0.31512 -0.0823,-0.36398 z m -0.53781,0.6691 c 0.17623,-0.0794 0.33486,-0.008 0.42963,0.20775 0.22909,0.52257 -0.22402,0.8627 -0.70594,0.53011 -0.16806,-0.11598 -0.12516,-0.3896 0.0957,-0.60791 0.061,-0.0603 0.12186,-0.10343 0.18059,-0.12994 z m -5.1386,2.44401 c 0.1777,-0.0779 0.38685,0.003 0.46475,0.18106 0.0779,0.1777 -0.004,0.38706 -0.18154,0.46497 -0.1777,0.0779 -0.38659,-0.004 -0.46449,-0.18175 -0.0779,-0.17771 0.004,-0.38638 0.18128,-0.46428 z m 0.79428,-0.20376 c 0.0472,-0.0515 0.13284,-0.0757 0.24575,-0.0598 0.22585,0.0319 0.43889,0.12207 0.47326,0.20047 0.0344,0.0784 -0.0831,0.20627 -0.2608,0.28417 -0.1777,0.0779 -0.39029,-0.0125 -0.47279,-0.20068 -0.0412,-0.0941 -0.0327,-0.17267 0.0146,-0.22418 z m 1.32402,-0.57717 c 0.11827,-0.0453 0.25676,0.0477 0.34785,0.25545 0.12145,0.27704 0.0752,0.56739 -0.10249,0.64529 -0.17771,0.0779 -0.38268,0.005 -0.45598,-0.16234 -0.0733,-0.16722 -0.0278,-0.45783 0.1018,-0.64556 0.0324,-0.0469 0.0695,-0.0776 0.10884,-0.0928 z m 1.24389,-0.52445 c 0.16199,-0.0944 0.26744,-0.0395 0.28608,0.16348 0.0507,0.55354 -0.56668,1.14122 -0.75285,0.71655 -0.0761,-0.1735 0.0532,-0.50455 0.28732,-0.73591 0.0654,-0.0647 0.12545,-0.11265 0.17947,-0.14408 z m 7.12687,-1.59866 c -0.0882,0.0666 -0.14207,0.2818 -0.12829,0.56067 0.0265,0.53735 0.0798,0.55814 0.26005,0.10154 0.12472,-0.31597 0.10968,-0.62013 -0.0334,-0.67599 -0.0358,-0.014 -0.069,-0.008 -0.0984,0.0138 z m -4.33722,2.95146 c -0.11425,0.0446 -0.23329,0.12116 -0.32948,0.2189 -0.21251,0.21612 -0.10224,0.25884 0.28096,0.10931 0.34667,-0.13528 0.5042,-0.29507 0.34978,-0.35534 -0.0772,-0.0301 -0.18701,-0.0175 -0.30126,0.0271 z m -5.02816,2.58911 c -0.11426,0.0446 -0.23262,0.12141 -0.32881,0.21916 l -2e-4,-4.7e-4 c -0.21251,0.21612 -0.1025,0.25951 0.28068,0.10998 0.34668,-0.13528 0.50401,-0.29553 0.34958,-0.35581 -0.0772,-0.0301 -0.18701,-0.0175 -0.30126,0.0271 z m -0.48908,1.55506 c 0.16824,-0.0672 0.59596,-0.11969 1.3696,-0.19136 0.9875,-0.0915 2.11179,-0.0689 2.49843,0.0501 0.75255,0.23163 1.34237,0.12418 0.91759,-0.16698 -0.1414,-0.0969 1.07229,-0.70273 2.69697,-1.34652 1.62468,-0.64379 2.91754,-1.07655 2.87284,-0.96207 -0.0447,0.11448 -1.35384,0.82326 -2.90868,1.57532 -2.29015,1.1076 -3.07575,1.34183 -4.13666,1.23512 -0.72035,-0.0726 -1.27094,-0.0444 -1.22403,0.0626 0.0469,0.107 -0.18115,0.1185 -0.50641,0.0251 -0.32523,-0.0933 -0.63355,-0.0622 -0.68498,0.0695 -0.0514,0.13176 -0.36938,0.10122 -0.70695,-0.0681 -0.26446,-0.13265 -0.35585,-0.21531 -0.18772,-0.28276 z"
       inkscape:export-filename="skipper_elements_clam.svg"
       inkscape:export-xdpi="96"
       inkscape:export-ydpi="96" /><path
       id="path8971"
       style="fill:#D2D9DE;stroke-width:0.352778"
       d="m 401.41699,-346.35057 c -0.21139,0.0927 -0.73707,1.19017 -1.16868,2.43866 -0.82916,2.39843 -1.09801,2.76723 -1.44289,1.98052 -0.11686,-0.26655 -0.35802,-0.42083 -0.53572,-0.34293 -0.1777,0.0779 -0.22573,0.36416 -0.10643,0.63629 0.1193,0.27214 0.0496,0.66097 -0.15565,0.86382 -0.24491,0.24208 -0.0965,1.20495 0.43228,2.80209 0.44311,1.33836 0.76589,2.70213 0.7176,3.03081 -0.055,0.37453 -0.29728,-0.088 -0.64914,-1.23888 -0.40346,-1.31952 -0.63634,-1.72809 -0.82676,-1.45216 -0.15026,0.21757 3.6e-4,0.80408 0.34701,1.35271 0.44019,0.69674 0.4587,0.82667 0.065,0.46353 -0.41453,-0.38227 -0.56575,-0.37527 -0.62269,0.0275 -0.0414,0.29257 0.1069,0.56273 0.32974,0.60024 0.22283,0.0375 0.68545,0.43403 1.02799,0.88151 1.32124,1.72606 1.56719,-0.23307 0.38733,-3.0858 -0.35236,-0.85183 -0.49513,-1.61278 -0.31744,-1.69068 0.17771,-0.0779 0.15249,-0.54333 -0.0562,-1.03441 -0.34373,-0.80948 -0.31616,-0.85792 0.29436,-0.51781 0.64012,0.35657 0.68452,0.33711 0.89497,-0.39235 0.1218,-0.42216 0.34462,-1.55845 0.49552,-2.52498 0.15089,-0.96653 0.41795,-1.82009 0.59313,-1.89688 0.44345,-0.19441 0.45517,-0.10575 0.24398,1.87578 -0.23454,2.20071 0.10628,3.14805 0.90558,2.51617 0.31467,-0.24873 0.61427,-0.35565 0.66615,-0.23732 0.0519,0.11832 -0.11675,0.52402 -0.37485,0.90179 -0.57608,0.84321 -0.38235,1.4129 0.36844,1.08376 0.36729,-0.16102 0.22157,0.47804 -0.42818,1.87931 -0.54151,1.16782 -1.13138,2.10438 -1.31075,2.08114 -0.1794,-0.0232 -0.25475,-0.29093 -0.16754,-0.59461 0.0871,-0.30365 0.004,-0.61249 -0.18584,-0.68647 -0.18948,-0.074 -0.12764,-0.17211 0.13758,-0.21774 0.26518,-0.0456 0.46408,-0.48915 0.44201,-0.98541 -0.0329,-0.74072 -0.0906,-0.80211 -0.32021,-0.3443 -0.15386,0.30667 -0.39999,0.51031 -0.54746,0.45272 -0.78625,-0.30698 -0.26695,2.1811 1.28883,6.1743 l 1.71773,4.40863 -1.45712,-0.43044 c -0.80122,-0.23668 -1.41452,-0.53854 -1.36282,-0.67097 0.0517,-0.13242 0.37914,-0.15857 0.7268,-0.0591 1.18755,0.34095 0.74327,-0.55846 -0.47109,-0.95355 -0.6644,-0.21619 -0.92306,-0.23475 -0.57455,-0.0415 0.51584,0.28598 0.55939,0.42481 0.23368,0.74674 -0.23881,0.23604 -0.81338,0.1744 -1.4251,-0.15277 -1.17161,-0.62661 -1.618,-1.27617 -0.69494,-1.01116 1.09152,0.31335 0.65298,-0.90096 -0.95225,-2.63677 -0.82848,-0.8959 -1.54158,-1.96268 -1.58492,-2.37071 -0.0454,-0.42751 -0.22496,-0.67778 -0.42369,-0.59066 -0.50162,0.21991 0.35572,1.95974 1.50713,3.0582 1.31491,1.25441 1.40565,1.54341 0.43984,1.4023 -0.4424,-0.0646 -0.86013,0.0248 -0.928,0.19861 -0.25717,0.65869 1.56061,1.86839 4.75054,3.16147 3.16934,1.28471 3.31788,1.39234 3.60163,2.61677 0.19938,0.86044 -0.005,2.14402 -0.62529,3.93435 -0.50668,1.4614 -0.84493,2.83054 -0.75167,3.0424 0.0933,0.21185 0.57962,-0.83482 1.08107,-2.32577 0.50146,-1.49096 0.98453,-2.56349 1.07334,-2.38332 0.18543,0.37666 -1.7778,5.48711 -2.04018,5.31071 -0.25434,-0.17099 -1.82613,3.44327 -1.60445,3.68934 0.10341,0.11485 -0.10096,1.32887 -0.45425,2.6976 -0.35331,1.36873 -0.73348,3.78811 -0.84509,5.37643 -0.1116,1.58832 -0.26181,2.48046 -0.33341,1.98221 -0.25449,-1.77096 0.0744,-4.62558 0.83731,-7.26943 0.77178,-2.67476 0.7032,-3.40517 -0.13522,-1.44105 l -0.44226,1.0363 -0.0911,-1.1653 c -0.0499,-0.6409 0.0399,-1.42536 0.1994,-1.74346 0.15959,-0.31812 0.15606,-0.67123 -0.008,-0.78463 -0.16433,-0.11342 -0.0718,-0.21663 0.20574,-0.22956 0.68148,-0.0319 1.47147,-1.92762 0.95167,-2.28372 -0.22454,-0.15375 -0.51515,-0.64542 -0.64593,-1.09245 -0.20744,-0.70903 -0.32784,-0.74283 -0.94411,-0.26545 -0.69222,0.5362 -0.71324,0.51714 -1.03899,-0.93876 -0.18286,-0.81725 -0.39852,-2.0206 -0.47925,-2.67373 -0.0861,-0.69706 -0.26824,-1.1339 -0.44078,-1.05825 -0.42161,0.18483 -0.52248,2.89131 -0.18313,4.91075 0.24845,1.47859 0.2084,1.64176 -0.27845,1.13713 -0.72175,-0.74811 -0.93957,-0.64614 -0.90639,0.42552 0.0254,0.82193 0.0105,0.8212 -0.38359,-0.0242 -0.2255,-0.48374 -0.55536,-0.81562 -0.73305,-0.73772 -0.53014,0.23241 0.5228,2.19194 2.0937,3.8968 2.04255,2.21674 2.28498,2.96879 2.03115,6.30251 -0.23702,3.113 0.035,5.79295 0.88216,8.69473 0.29175,0.99918 0.6513,1.73672 0.81222,1.66618 0.58961,-0.25848 0.71039,-1.27291 0.27136,-2.27437 -0.80054,-1.82608 -1.00851,-5.70248 -0.4754,-8.85443 0.59576,-3.52231 2.16624,-7.45029 3.15172,-7.88231 1.22593,-0.53744 3.58522,-0.13219 5.30369,0.91082 0.93221,0.56579 1.90155,0.9381 2.15417,0.82735 0.25262,-0.11074 1.01478,0.33431 1.69361,0.98919 1.31861,1.27211 1.93348,1.21921 1.55735,-0.13372 -0.12711,-0.45733 -0.0778,-1.03723 0.10933,-1.28869 0.55117,-0.74055 -0.0964,-1.64519 -1.72023,-2.40393 -0.83475,-0.39002 -1.4728,-0.82437 -1.41785,-0.96508 0.0549,-0.14072 0.66293,-0.59804 1.35091,-1.01653 0.68798,-0.41849 1.15726,-0.79793 1.04291,-0.84258 -0.11435,-0.0446 -0.25628,-0.002 -0.31529,0.0942 -0.059,0.0965 -0.5748,0.0342 -1.14603,-0.13913 -0.76668,-0.23259 -0.85925,-0.2174 -0.35307,0.0583 0.41275,0.22478 0.5494,0.43342 0.3426,0.52408 -0.18898,0.0828 -0.50745,0.0379 -0.70741,-0.10008 -0.35411,-0.24438 -1.22097,1.13275 -1.01243,1.60843 0.0506,0.11544 0.84427,0.54242 1.76391,0.94878 1.50608,0.6655 2.82646,2.07412 1.80941,1.93037 -0.22585,-0.0319 -0.50272,-0.26766 -0.61497,-0.52372 -0.11226,-0.25607 -0.36598,-0.39478 -0.56386,-0.30803 -0.24455,0.1072 -0.0795,0.60325 0.51576,1.54843 1.15443,1.83315 0.46143,1.73342 -1.23525,-0.17788 -0.70915,-0.79885 -1.58863,-1.57906 -1.95402,-1.73381 -0.57538,-0.2437 -0.56963,-0.14323 0.0428,0.75144 l 0.70727,1.03283 -1.96282,-1.06527 c -1.07946,-0.58605 -2.02713,-1.21062 -2.10595,-1.38791 -0.0788,-0.17731 -0.34905,-0.23236 -0.60079,-0.12199 -0.25174,0.11036 -0.59815,0.0457 -0.76953,-0.14394 -0.21874,-0.24202 0.12462,-0.53594 1.15104,-0.98591 1.14508,-0.50199 1.64002,-0.53329 2.28029,-0.14371 0.44981,0.27377 0.75222,0.34896 0.67256,0.16727 -0.0797,-0.18171 -0.37998,-0.42216 -0.66765,-0.53448 -0.38756,-0.15133 -0.23773,-0.32162 0.5784,-0.65757 0.60581,-0.24931 1.32385,-0.6911 1.59535,-0.98151 0.30442,-0.32562 0.82718,-0.47945 1.36426,-0.40171 0.7953,0.11512 0.81117,0.0959 0.18241,-0.22103 -0.37871,-0.19092 -0.62131,-0.5026 -0.53936,-0.6923 0.082,-0.1897 0.29327,-0.19135 0.46995,-0.004 0.17669,0.18736 0.4727,0.27407 0.65736,0.19311 0.21713,-0.0952 0.13763,-0.24608 -0.22481,-0.42788 -0.42389,-0.21264 -0.4912,-0.41948 -0.27571,-0.84906 0.31013,-0.61828 1.42654,-0.82214 1.65451,-0.30214 0.0779,0.17766 -0.11662,0.3352 -0.43282,0.34999 -0.46903,0.022 -0.46067,0.11712 0.0468,0.51607 0.43941,0.34544 0.97796,0.34195 1.83373,-0.0117 1.26356,-0.52227 1.23415,-0.43273 -0.21055,0.64977 -0.76951,0.57658 -0.78273,0.64691 -0.11799,0.60864 0.89132,-0.0513 1.99314,-1.16425 1.73519,-1.75263 -0.11231,-0.2562 -0.72115,-0.22279 -1.59621,0.0876 l -1.41467,0.50169 1.21847,-1.82572 c 0.67016,-1.004 1.41132,-2.5606 1.64719,-3.45925 0.46575,-1.77437 0.49551,-3.69972 0.0541,-3.5062 -0.36638,0.16062 -0.67745,1.2791 -0.38715,1.39244 0.12554,0.049 0.0106,0.18491 -0.25591,0.30177 -0.26655,0.11685 -0.55476,0.0552 -0.64007,-0.13694 -0.0853,-0.19211 -0.32067,0.16055 -0.52321,0.78346 -0.20258,0.62284 -0.32086,0.94334 -0.26323,0.71236 0.0576,-0.23098 0.0534,-0.53705 -0.009,-0.68032 -0.19186,-0.43765 -1.98444,2.87319 -2.05809,3.80132 -0.038,0.47833 -0.21825,0.95669 -0.40059,1.06316 -0.18235,0.10648 -0.47754,0.27934 -0.65597,0.3841 -0.17852,0.10468 -0.18134,0.2891 -0.007,0.40971 0.17476,0.1206 0.19327,0.399 0.0416,0.61878 -0.17221,0.24956 -0.25051,0.22168 -0.20866,-0.0744 0.0401,-0.28373 -0.14262,-0.3821 -0.45551,-0.24493 -0.31285,0.13715 -0.36485,0.33841 -0.12899,0.50117 0.2329,0.1607 0.2149,0.24637 -0.0446,0.20971 -0.24146,-0.0341 -0.42056,0.13939 -0.39804,0.38553 0.0436,0.4754 -1.58072,1.46276 -1.75444,1.06648 -0.18521,-0.42248 0.41182,-1.22719 1.02898,-1.3866 0.33302,-0.0861 0.5579,-0.26544 0.49938,-0.39892 -0.0585,-0.13345 0.19257,-0.57634 0.55765,-0.9842 0.36509,-0.40786 1.35071,-1.95153 2.1909,-3.43016 0.84021,-1.47861 1.63501,-2.70362 1.76613,-2.72202 0.13114,-0.0184 0.28736,-0.43341 0.34674,-0.92219 0.10611,-0.87349 0.11062,-0.87314 0.26584,0.005 0.12195,0.69023 0.18646,0.74928 0.28443,0.26011 0.33251,-1.66035 -0.8661,-1.74647 -1.39767,-0.10047 -0.17119,0.53009 -1.01777,2.20264 -1.8812,3.71701 -2.2379,3.92496 -3.43647,4.95289 -3.1014,2.65963 0.17381,-1.18952 -0.48425,-1.20971 -0.9877,-0.0302 -0.51644,1.20984 -0.80328,1.40333 -1.0948,0.73837 -0.32297,-0.73671 -1.0209,-0.24423 -1.47765,1.04276 -0.22489,0.63369 -0.72584,1.53224 -1.11304,1.99673 -0.63599,0.76295 -0.6382,0.60761 -0.0237,-1.60896 0.72603,-2.61911 0.91214,-4.42532 0.68729,-6.65919 -0.0769,-0.7643 0.11611,-2.10542 0.42851,-2.98028 0.76907,-2.1537 2.47717,-2.97376 4.47031,-2.14594 2.39797,0.99596 2.62861,0.20644 0.6123,-2.0977 -0.42854,-0.48972 -0.42199,-0.68168 0.0297,-0.87967 0.31771,-0.13928 0.95007,-0.12903 1.4055,0.0231 1.08121,0.36119 1.19882,-0.024 0.28957,-0.94961 -0.6475,-0.65915 -0.65278,-0.74151 -0.048,-0.74405 0.37401,-0.002 1.20238,-0.15 1.84102,-0.32974 1.26738,-0.35676 1.15342,-0.59082 -0.69589,-1.42772 -1.30481,-0.59049 -1.02221,-1.58539 0.66025,-2.32296 1.23145,-0.53986 1.71483,-1.25245 0.92487,-1.36412 -0.75474,-0.10667 -0.66306,-0.57642 0.23561,-1.20525 0.94021,-0.6579 0.87651,-1.55346 -0.10733,-1.50742 -0.81317,0.038 -0.65023,-0.59302 0.52359,-2.02721 1.34813,-1.64717 0.71407,-1.9954 -1.38896,-0.76277 -1.50651,0.883 -1.66799,0.90975 -1.92867,0.31512 -0.33077,-0.75451 -1.09303,-0.54334 -1.35694,0.37596 -0.1002,0.34918 -0.41756,0.64554 -0.70529,0.65901 -0.31874,0.0149 -0.5876,0.55569 -0.68822,1.38394 -0.28486,2.34485 -0.88476,4.62137 -1.14263,4.33606 -0.13612,-0.15061 -0.16497,-0.76284 -0.0643,-1.3604 0.14352,-0.85198 0.0613,-1.13298 -0.37989,-1.30161 -0.43829,-0.16751 -0.60901,-0.0245 -0.7725,0.64729 -0.19247,0.79081 -0.26585,0.68309 -0.88416,-1.29609 -0.54526,-1.74533 -0.74641,-2.0938 -1.05152,-1.82194 -0.20753,0.18488 -0.39759,0.92491 -0.42211,1.64474 -0.0406,1.19185 -0.0984,1.26842 -0.64797,0.85282 -0.49303,-0.37281 -0.48842,-0.0873 0.0255,1.56022 0.99221,3.18065 1.4861,5.64962 1.20995,6.04974 -0.1699,0.24621 -0.3092,0.055 -0.42082,-0.57893 -0.0917,-0.52091 -0.23711,-1.3523 -0.32293,-1.84737 -0.11757,-0.67826 -0.24806,-0.80892 -0.52947,-0.53075 -0.30365,0.30014 -0.54937,-0.0951 -1.31558,-2.11413 -0.63513,-1.67369 -1.05951,-2.43176 -1.3007,-2.32603 -0.19713,0.0864 -0.29494,0.30282 -0.21703,0.48053 0.0779,0.1777 -0.004,0.38638 -0.18128,0.46429 -0.17771,0.0779 -0.47876,-0.21301 -0.66892,-0.64678 -0.19016,-0.43377 -0.23953,-0.9422 -0.10998,-1.12993 0.32884,-0.47652 -0.0912,-1.30853 -0.55742,-1.10416 z m 5.68489,-0.0434 c 0.0989,-0.051 0.20903,0.30569 0.45447,1.20404 0.23265,0.85135 0.31734,1.65164 0.1878,1.77853 -0.12956,0.12689 0.0629,0.46502 0.4278,0.75192 l 0.6632,0.52177 0.27627,-1.00697 c 0.15183,-0.554 0.34679,-0.84609 0.43332,-0.6487 0.14651,0.33419 -0.11153,1.08462 -0.92768,2.69751 -0.26432,0.52233 -0.21077,0.72392 0.25429,0.95719 0.32428,0.16238 0.5467,0.40422 0.49492,0.53686 -0.0518,0.13266 -0.27835,0.0545 -0.50379,-0.17355 -0.22543,-0.22809 -0.63282,-0.31729 -0.90494,-0.19799 -0.27213,0.1193 -0.55866,0.072 -0.63656,-0.10575 -0.0779,-0.17769 -0.0121,-0.38006 0.14605,-0.4494 0.15819,-0.0693 -0.0167,-0.62599 -0.38873,-1.2368 -0.49647,-0.81503 -0.57286,-1.24794 -0.28617,-1.62708 0.21487,-0.28415 0.27865,-0.77244 0.1416,-1.08505 -0.13704,-0.31261 -0.14823,-0.94906 -0.0248,-1.4144 0.0781,-0.29462 0.13354,-0.47164 0.19291,-0.50212 z m 6.19511,-2.05347 c 0.15331,-0.0266 0.28974,0.17907 0.36064,0.62563 0.11022,0.6945 0.20732,0.69982 1.1226,0.0625 l 1.00204,-0.69771 -0.68607,1.07096 c -0.37733,0.58901 -0.81656,1.12403 -0.97641,1.18864 -0.15982,0.0646 -0.34061,0.37085 -0.40137,0.6804 -0.0741,0.37802 -0.14918,0.27934 -0.22919,-0.30014 -0.081,-0.58678 -0.20261,-0.74157 -0.38,-0.48454 -0.14344,0.20784 -0.33609,0.2064 -0.42814,-0.004 -0.12777,-0.29145 -0.23729,-0.24253 -0.46323,0.20853 -0.16287,0.32468 -0.10593,0.78314 0.12649,1.0183 0.29657,0.30004 0.26613,0.40532 -0.10185,0.35329 -0.39005,-0.0551 -0.38903,0.10056 0.005,0.60836 0.29092,0.37567 0.36652,0.53803 0.16688,0.36074 -0.4948,-0.4402 -1.02619,-0.16422 -0.57079,0.29653 l 4.8e-4,-2.1e-4 c 0.20028,0.20264 0.17588,0.55462 -0.0543,0.78216 -0.56758,0.561 -0.58898,0.42903 -0.33489,-2.08702 0.13241,-1.31115 0.41413,-2.19718 0.7027,-2.21068 0.26487,-0.0124 0.56991,-0.32868 0.67744,-0.70324 0.13863,-0.48291 0.30875,-0.74191 0.46206,-0.7685 z m -18.36088,8.47301 c -0.0579,-0.002 -0.0679,0.21358 -0.0835,0.64486 -0.0253,0.6986 0.19952,1.06363 1.07936,1.75162 0.61128,0.478 1.09681,0.70709 1.07872,0.50943 -0.0181,-0.19767 -0.31459,-0.58088 -0.65881,-0.85151 -0.34422,-0.27063 -0.81503,-0.89688 -1.04638,-1.39198 -0.20562,-0.4399 -0.31157,-0.66015 -0.36944,-0.6624 z m 6.99955,-2.75144 c 0.17213,-0.0755 0.40892,0.0807 0.52578,0.34728 0.11685,0.26655 0.15495,0.50986 0.0851,0.54046 -0.0699,0.0306 -0.30616,-0.12579 -0.5253,-0.3475 -0.21914,-0.22171 -0.25771,-0.4648 -0.0856,-0.54024 z m 14.71967,-6.44752 c 0.74373,-0.32168 0.87225,-0.29286 0.60415,0.1335 -0.18724,0.29778 -0.55894,0.83333 -0.8263,1.18998 -0.41962,0.55978 -0.46059,0.55759 -0.29848,-0.0142 0.10332,-0.36428 0.0501,-0.71594 -0.11809,-0.78161 -0.16818,-0.0656 0.11922,-0.30324 0.63872,-0.52771 z m -13.16769,5.88321 c 0.0626,-0.0141 0.11641,0.0134 0.1465,0.0859 0.0603,0.14497 0.0643,0.54324 0.009,0.88532 -0.0868,0.53595 -0.1345,0.54694 -0.3455,0.0781 -0.13448,-0.29929 -0.13824,-0.69828 -0.009,-0.886 0.0648,-0.0938 0.13611,-0.14921 0.19867,-0.16331 z m 12.14094,-3.89045 c 0.10845,-0.0147 0.10601,0.21393 -0.0725,0.74838 -0.27017,0.80873 -0.23656,0.84108 0.7239,0.68982 l 1.00765,-0.1585 -1.05458,0.99102 c -0.57993,0.54513 -1.20198,0.97007 -1.38244,0.94458 -0.18046,-0.0255 -0.30954,0.15481 -0.28704,0.40063 0.0307,0.33523 -0.071,0.36949 -0.40682,0.13773 -0.30023,-0.2072 -0.20041,-0.84745 0.303,-1.94347 0.49887,-1.08555 0.98813,-1.78569 1.16886,-1.81018 z m -2.94682,1.55141 c 0.12358,-0.0629 0.32883,0.0769 0.50336,0.47504 0.10765,0.24557 0.10119,0.584 -0.0146,0.75177 -0.11576,0.16777 -0.34254,-0.0529 -0.50375,-0.4901 -0.15118,-0.40987 -0.10876,-0.67424 0.015,-0.73671 z m -8.89329,4.17974 c 0.12891,-0.021 0.29247,0.12917 0.41278,0.4036 0.1604,0.36588 0.14617,0.72924 -0.0315,0.80714 -0.17771,0.0779 -0.41516,-0.0679 -0.52742,-0.324 -0.11226,-0.25606 -0.0978,-0.61893 0.0317,-0.80667 0.0324,-0.0469 0.0715,-0.073 0.11443,-0.0801 z m 9.44432,-1.96911 c 0.0297,-0.0258 0.20012,0.0556 0.53405,0.2246 0.39255,0.19866 1.01623,0.22819 1.38598,0.0661 0.36975,-0.1621 0.82577,-0.18849 1.0135,-0.0589 0.19628,0.13545 -0.0438,0.40636 -0.56446,0.6379 -2.39108,1.0621 -2.61784,2.33262 -0.57226,3.20581 1.22749,0.52397 0.81678,0.75064 -1.50654,0.83142 -1.86481,0.0648 -2.01753,0.0206 -2.54069,-0.73858 -0.52427,-0.76075 1.67026,-3.72681 2.5159,-3.40054 0.40389,0.15583 0.41485,0.0697 0.045,-0.34923 -0.22942,-0.25986 -0.34017,-0.39271 -0.31044,-0.41855 z m -4.0847,2.15294 c 0.16106,-0.0706 0.42038,0.16219 0.57618,0.51759 0.15581,0.35541 0.22755,0.671 0.15942,0.70087 -0.0681,0.0299 -0.32716,-0.20362 -0.57591,-0.51828 -0.24874,-0.31466 -0.32076,-0.62957 -0.15969,-0.70018 z m -3.40156,2.08819 c 0.0275,-0.003 0.0476,0.008 0.0597,0.0358 0.054,0.12317 -0.15625,0.90744 -0.46732,1.74242 -0.48921,1.31315 -0.4802,1.48155 0.0677,1.25228 0.45456,-0.19054 0.36863,0.11626 -0.30506,1.08674 -1.54475,2.22523 -1.75086,4.42413 -0.40875,4.36134 0.3114,-0.0146 0.65925,0.18585 0.77325,0.44588 0.11399,0.26003 -0.0926,0.97494 -0.45928,1.58825 -0.36668,0.61335 -0.73112,0.96819 -0.80973,0.78888 -0.0786,-0.17932 -0.0545,-0.45401 0.0538,-0.61095 0.25323,-0.36694 -0.23318,-1.26468 -1.02955,-1.89928 -0.74636,-0.59475 -0.88104,-1.46073 -0.21372,-1.37559 0.29081,0.0371 0.2247,-0.0687 -0.17107,-0.27315 -0.44226,-0.22847 -0.56765,-0.44892 -0.39609,-0.69754 0.13796,-0.1999 0.0842,-0.4784 -0.11959,-0.61902 -0.20374,-0.14059 -0.18634,-0.22978 0.0385,-0.19798 0.22483,0.0318 0.5331,-0.48861 0.68482,-1.15619 0.25303,-1.11325 2.28904,-4.42674 2.70241,-4.47197 z m -9.28815,4.24563 c -0.18818,0.0825 -0.18869,0.25567 -9.6e-4,0.38523 0.18773,0.12956 0.4055,0.20761 0.48389,0.17324 0.0784,-0.0344 0.0787,-0.208 7.5e-4,-0.3857 -0.0779,-0.17771 -0.29549,-0.25527 -0.48368,-0.17277 z m 11.50804,-4.55415 c 0.34368,-0.18255 0.70574,-0.14704 0.80476,0.0788 0.099,0.2259 -0.0382,0.50594 -0.30476,0.6228 -0.97638,0.42804 -1.42948,-0.20781 -0.5,-0.70165 z m 4.44226,-1.85213 c -0.13049,0.0368 -0.26861,0.11666 -0.38347,0.22958 -0.32573,0.32197 -0.30129,0.4284 0.11127,0.48669 0.62283,0.0881 1.04416,-0.38951 0.60873,-0.69004 -0.0833,-0.0575 -0.20603,-0.0631 -0.33652,-0.0263 z m -9.56233,4.48771 c 0.0773,-0.0192 0.14431,0.0731 0.23071,0.27013 0.11685,0.26655 0.0737,0.76132 -0.0958,1.0994 -0.25075,0.49991 -0.34795,0.52426 -0.52074,0.13012 -0.11685,-0.26655 -0.0738,-0.76131 0.0958,-1.09939 0.12538,-0.24996 0.21278,-0.38095 0.29004,-0.40024 z m 8.36257,-3.32077 c -0.0203,0.0323 0.0221,0.0883 0.13085,0.16326 0.20071,0.13851 0.21484,0.40561 0.0311,0.59349 -0.23913,0.2445 -0.22193,0.30069 0.0614,0.19819 0.57214,-0.20693 0.58847,-0.89565 0.0232,-0.97556 -0.14327,-0.0203 -0.22622,-0.0116 -0.24655,0.0206 z m -1.52187,1.54683 c 0.0371,-0.0504 0.15835,-0.0803 0.36346,-0.0899 0.49727,-0.0233 0.55824,0.0643 0.31411,0.45136 -0.22582,0.35798 -0.15997,0.38917 0.25832,0.12204 0.33029,-0.21085 0.99625,-0.11493 1.61684,0.23234 1.30515,0.73035 1.23698,0.98673 -0.26851,1.00922 -1.27633,0.0191 -3.58033,-1.15464 -2.37705,-1.21093 0.42051,-0.0197 0.49843,-0.12003 0.23418,-0.3024 -0.13136,-0.0907 -0.17839,-0.16134 -0.1413,-0.21172 z m -7.51323,3.49743 c 0.024,0.009 -0.0163,0.18353 -0.10488,0.52785 -0.10757,0.4179 -0.25071,0.7836 -0.31784,0.81303 -0.26592,0.11658 -0.21097,-0.2236 0.14219,-0.88161 0.16814,-0.31327 0.25654,-0.46863 0.28053,-0.45927 z m 6.47034,-2.30729 c 0.10177,-0.0786 0.14329,-0.0297 0.1177,0.15266 -0.057,0.40684 0.005,0.4524 0.21015,0.15501 0.4062,-0.58861 1.81794,0.33476 3.06873,2.00741 0.56675,0.75785 0.94193,1.4165 0.83404,1.46364 -0.10789,0.0471 -0.99063,-0.17236 -1.9619,-0.48789 -1.84624,-0.59976 -2.27789,-0.65135 -1.61531,-0.19409 0.28372,0.19583 0.0389,0.36391 -0.87067,0.59837 -0.6958,0.17935 -1.20735,0.45722 -1.13707,0.61753 0.0703,0.16028 -0.10777,0.59026 -0.39516,0.95584 -0.51778,0.65861 -0.52107,0.65395 -0.37723,-0.53484 0.11936,-0.98643 0.33259,-1.25991 1.19928,-1.53744 0.98333,-0.31487 0.99577,-0.34362 0.18728,-0.42742 -0.95572,-0.0991 -0.92668,-0.33506 0.26262,-2.15656 0.2141,-0.3279 0.37576,-0.53368 0.47754,-0.61222 z m -9.42124,4.77738 c -0.0947,0.0191 -0.0198,0.18872 0.2841,0.49612 0.33148,0.33537 0.29656,0.42814 -0.1384,0.37157 -0.49394,-0.0642 -0.47901,-0.0237 0.0989,0.27433 0.89384,0.46105 1.27615,-0.1162 0.48751,-0.7362 -0.37308,-0.29349 -0.63729,-0.42496 -0.73201,-0.40584 z m 9.18371,-3.68075 c -0.1119,0.0679 -0.13139,0.16537 -0.0558,0.28967 0.0649,0.10674 -0.0221,0.39675 -0.19342,0.64509 -0.21533,0.312 -0.10227,0.3405 0.36583,0.0918 0.37255,-0.19793 0.55584,-0.44368 0.4071,-0.54635 -0.14874,-0.10267 -0.0853,-0.2816 0.14111,-0.39759 0.30651,-0.15697 0.2924,-0.20767 -0.0545,-0.19784 -0.29407,0.008 -0.49834,0.0472 -0.61024,0.11518 z m -2.51962,2.03164 c 0.0683,-0.003 0.13047,0.0389 0.16941,0.12773 0.0779,0.1777 0.0356,0.47695 -0.094,0.66468 -0.12956,0.18772 -0.29949,0.19593 -0.37741,0.0182 -0.0779,-0.1777 -0.0354,-0.47648 0.0942,-0.66422 0.0648,-0.0939 0.13941,-0.14311 0.20781,-0.14635 z m -6.45758,3.46515 c 1.5e-4,0.0272 0.15328,0.11477 0.45912,0.2789 0.82394,0.44221 0.88112,0.42904 0.95268,-0.22468 0.0305,-0.27819 -0.0167,-0.34607 -0.10435,-0.1506 -0.0877,0.19547 -0.4697,0.27645 -0.84929,0.17991 -0.30536,-0.0777 -0.45827,-0.1108 -0.45812,-0.0835 z m 5.81527,-2.16568 c 0.0784,-0.0344 0.20627,0.0831 0.28417,0.2608 0.0779,0.17769 -0.0123,0.39076 -0.20047,0.47326 -0.18817,0.0825 -0.3161,-0.035 -0.28417,-0.2608 0.0319,-0.22585 0.12207,-0.43889 0.20047,-0.47326 z m -2.37911,1.85662 c -0.0154,0.0392 0.0736,0.14802 0.26236,0.33976 0.26101,0.26543 0.52018,0.36565 0.57605,0.22256 0.0559,-0.14308 -0.15763,-0.36025 -0.47451,-0.48262 -0.22898,-0.0884 -0.3486,-0.1189 -0.3639,-0.0797 z m 2.94575,-0.56409 c 0.0784,-0.0344 0.20627,0.0831 0.28417,0.2608 0.0779,0.17769 -0.0125,0.39029 -0.20068,0.47279 -0.18817,0.0825 -0.31589,-0.0345 -0.28397,-0.26033 0.0319,-0.22585 0.12208,-0.43889 0.20048,-0.47326 z m 0.0209,2.50734 c 0.0474,-0.0251 0.0811,-0.0214 0.0969,0.0151 0.2335,0.5426 -0.30672,3.35618 -0.6211,3.23343 -0.72074,-0.2814 -0.79125,-1.32826 -0.16024,-2.38364 0.27501,-0.45999 0.54191,-0.79003 0.68444,-0.86486 z m 0.27872,4.09157 c 0.0288,-0.0213 0.052,-0.0152 0.0684,0.0247 0.15575,0.38092 -0.39947,2.53847 -0.56349,2.18972 -0.0693,-0.14807 0.002,-0.76623 0.15944,-1.37386 0.11801,-0.4557 0.24968,-0.77592 0.33565,-0.8406 z m -7.69175,3.76979 c 0.0611,-0.10747 0.14392,0.10686 0.25796,0.65541 0.12106,0.5825 0.1322,1.27058 0.025,1.52942 -0.22686,0.54781 -0.48594,-0.96825 -0.33684,-1.97049 0.0159,-0.10676 0.0335,-0.17852 0.0539,-0.21433 z m 19.44542,-7.10339 c 0.25492,-0.16133 0.25063,0.0738 0.054,0.66244 -0.16387,0.49055 -0.45703,0.86966 -0.65091,0.84226 -0.19387,-0.0274 -0.54273,0.21118 -0.77536,0.53006 -0.39082,0.53571 -0.37246,0.56046 0.23896,0.3314 0.42764,-0.16028 0.53171,-0.11626 0.29457,0.12365 -0.2018,0.20415 -0.51986,0.7628 -0.70698,1.24205 -0.38577,0.98804 -0.57507,1.11541 -1.45101,0.97354 -0.53152,-0.0861 -0.54038,-0.13739 -0.0591,-0.35382 0.30977,-0.13908 0.44779,-0.41734 0.30663,-0.61854 -0.14116,-0.20119 0.37088,-1.10895 1.1379,-2.01722 0.84184,-0.99686 1.35647,-1.55455 1.6114,-1.71585 z m -7.53318,4.23573 c 0.048,-0.0276 0.0834,-0.0222 0.10221,0.0207 0.0753,0.17174 -0.003,0.5921 -0.17494,0.93433 -0.17165,0.34224 -0.32906,1.18201 -0.34951,1.8657 -0.0302,1.0099 -0.2197,1.31317 -1.01053,1.61663 -0.53538,0.20544 -1.10558,0.32189 -1.26726,0.25876 -0.16167,-0.0631 -0.54108,0.26439 -0.84321,0.72796 -0.30211,0.4636 -0.59107,0.74837 -0.64172,0.63284 -0.0507,-0.11555 -0.34813,0.0955 -0.66098,0.46919 -0.39485,0.47157 -0.37886,0.30642 0.0523,-0.53975 0.34162,-0.67049 0.69812,-1.24204 0.79169,-1.27018 0.0936,-0.0281 0.42243,-0.63123 0.73093,-1.34058 0.3834,-0.88156 0.71193,-1.23111 1.03785,-1.10386 0.69313,0.27063 0.87512,0.12106 1.5714,-1.29094 0.25878,-0.52483 0.51717,-0.89893 0.66184,-0.98078 z m -11.51741,5.72849 c 0.0881,-0.0364 0.15346,0.0864 0.16525,0.33833 0.0306,0.65389 -0.15605,0.85775 -0.35979,0.39301 -0.0733,-0.16722 -0.0283,-0.45568 0.0998,-0.64125 0.0334,-0.0484 0.0654,-0.078 0.0948,-0.0901 z m 16.80729,-6.88914 c -0.0555,0.0233 -0.11207,0.061 -0.1664,0.11466 -0.31343,0.3098 -0.28329,0.39164 0.16988,0.46099 0.3029,0.0463 0.5641,0.0812 0.58014,0.0774 0.0161,-0.004 -0.061,-0.21115 -0.17043,-0.46075 -0.0851,-0.19418 -0.24626,-0.26146 -0.41328,-0.19235 z m -7.84568,3.61045 c -0.0297,0.0424 0.0623,0.17803 0.29035,0.40875 0.28057,0.28392 0.18537,0.43777 -0.34499,0.55805 -0.75438,0.17099 -0.80171,0.69248 -0.0721,0.7956 0.22584,0.0319 0.33174,-0.1344 0.23525,-0.36945 -0.108,-0.26379 0.0451,-0.26591 0.40133,-0.006 0.31745,0.23158 0.63825,0.39447 0.71271,0.36182 0.0745,-0.0326 -0.0718,-0.27205 -0.3246,-0.53196 -0.41682,-0.42838 -0.38346,-0.45219 0.35449,-0.25193 0.79079,0.21459 0.7863,0.20301 -0.15381,-0.41387 -0.66133,-0.43421 -1.0491,-0.62165 -1.09861,-0.55094 z m -7.06843,3.22626 c 0.3089,-0.12886 0.45525,0.1407 0.092,0.76596 -0.37343,0.64283 -0.35494,0.69147 0.28889,0.75412 0.83063,0.0809 0.7955,0.89146 -0.0546,1.26415 -0.33609,0.14734 -0.63959,0.56284 -0.67467,0.92321 -0.0436,0.44796 -0.18558,0.57093 -0.44891,0.38921 -0.21184,-0.1462 -0.20721,-0.34363 0.0106,-0.43912 0.21776,-0.0955 0.25611,-0.22873 0.0848,-0.29561 -0.17131,-0.0669 -0.23793,-0.55768 -0.14852,-1.09046 0.0898,-0.53294 0.0548,-0.92118 -0.0776,-0.8631 -0.13249,0.0581 -0.0103,-0.27339 0.27138,-0.73624 0.22753,-0.37397 0.47136,-0.59471 0.65666,-0.67213 z m -2.96435,2.04943 c 0.0543,-0.0574 0.18818,-0.0466 0.41557,0.0187 0.32524,0.0934 0.65819,0.0118 0.73944,-0.18085 0.0812,-0.19266 0.19821,0.0611 0.26009,0.56363 0.0619,0.50251 0.12939,1.42424 0.14987,2.04852 l 0.0373,1.13527 -0.86184,-0.92726 c -1.05346,-1.13405 -1.39891,-1.85812 -0.85001,-1.78052 0.22585,0.0319 0.30315,-0.18629 0.17216,-0.48511 -0.0916,-0.20892 -0.11691,-0.3349 -0.0626,-0.39237 z m 10.17775,-1.51369 c -0.0888,0.0389 0.12191,0.29304 0.4678,0.56512 0.34601,0.27201 0.70173,0.46255 0.79057,0.4236 0.0888,-0.0389 -0.12192,-0.29303 -0.4678,-0.5651 -0.34601,-0.27203 -0.70173,-0.46256 -0.79057,-0.42362 z m 10.40257,-3.64576 c -0.10486,0.0621 -0.11999,0.23984 -0.0226,0.46188 0.16682,0.38053 0.0421,0.54681 -0.42552,0.5674 -0.36372,0.016 -1.12572,0.15635 -1.69316,0.31176 -0.825,0.22595 -0.73269,0.26006 0.45998,0.17018 0.82033,-0.0618 1.66431,-0.17016 1.87561,-0.24052 0.4995,-0.16646 0.45053,-1.21951 -0.0601,-1.2917 -0.054,-0.008 -0.0991,3.2e-4 -0.1341,0.021 z m -18.28763,8.41099 c 0.0292,-0.0226 0.0625,-0.0277 0.0984,-0.0138 0.14309,0.0559 0.15814,0.36001 0.0334,0.67598 -0.18025,0.4566 -0.23353,0.43582 -0.26005,-0.10153 -0.0138,-0.27883 0.0401,-0.4941 0.1283,-0.56068 z m 12.71654,-3.0318 c -0.1777,0.0779 -0.25896,0.28705 -0.18106,0.46476 0.0779,0.1777 0.28678,0.25965 0.46449,0.18175 0.1777,-0.0779 0.25944,-0.28726 0.18154,-0.46497 -0.0779,-0.1777 -0.28726,-0.25944 -0.46497,-0.18154 z"
       inkscape:export-filename="skipper_elements_parcel.svg"
       inkscape:export-xdpi="96"
       inkscape:export-ydpi="96" /><path
       id="path8980"
       style="fill:#D2D9DE;stroke-width:0.352778"
       d="m 433.79568,-319.50674 c -0.41218,-0.0583 -6.08606,5.77438 -9.73088,10.00315 -1.40431,1.62924 -4.07687,4.72566 -5.93902,6.88113 -1.86216,2.15547 -3.35307,3.99316 -3.3132,4.0841 0.0399,0.091 1.19052,-1.10124 2.55688,-2.64944 1.36636,-1.54821 2.56921,-2.78221 2.67213,-2.74173 0.10328,0.0403 -0.33634,1.17424 -0.97676,2.51985 -0.64041,1.34563 -2.05604,4.32538 -3.14584,6.62148 -1.08972,2.29605 -2.09995,4.22649 -2.24502,4.29009 -0.40865,0.17915 -2.2103,-0.66307 -2.90559,-1.3584 -0.63034,-0.63038 -0.74119,-1.27976 -0.25497,-1.49292 0.48449,-0.2124 4.27818,-4.59622 4.05344,-4.68397 -0.12186,-0.0476 -1.8411,1.71708 -3.82071,3.9212 l -3.59949,4.00762 1.0039,2.04538 c 1.92629,3.92575 3.34245,5.74167 4.8178,6.17606 1.98159,0.58345 4.95083,0.66563 7.68001,0.21268 l 0.003,-7.2e-4 c 1.32895,-0.22059 3.56324,-0.85373 4.96569,-1.4073 2.22335,-0.87752 2.46758,-1.04246 1.90504,-1.28655 -0.40867,-0.17729 -0.6685,-0.1259 -0.70795,0.14053 -0.16037,1.08297 -7.41671,1.62526 -7.52974,0.56271 -0.0541,-0.50856 -0.0834,-0.50566 -0.19147,0.0213 -0.10744,0.52379 -0.34961,0.53825 -1.52636,0.0913 -0.76924,-0.29219 -1.48863,-0.73717 -1.60815,-0.9849 -0.11515,-0.25021 -0.26029,-0.32399 -0.32205,-0.16576 -0.12537,0.321 -1.32987,-0.0629 -1.51374,-0.48236 -0.0647,-0.14765 -0.48772,-0.32223 -0.94047,-0.38836 -0.45265,-0.0662 -0.89764,-0.28945 -0.98823,-0.49608 -0.0906,-0.20662 -0.45873,-0.52013 -0.81847,-0.69688 -0.87285,-0.42892 -3.63896,-3.08059 -3.52307,-3.37739 0.0503,-0.12897 0.44097,-0.41352 0.86819,-0.63226 0.42713,-0.2187 0.67755,-0.46616 0.55676,-0.5499 -0.12105,-0.0836 -0.0497,-0.32052 0.15899,-0.52674 0.2095,-0.20705 0.57864,-0.17123 0.82433,0.0799 0.7823,0.79945 2.7706,1.93392 3.12319,1.78154 0.18742,-0.0811 0.92111,0.46551 1.63016,1.21393 0.70896,0.74845 1.43014,1.29936 1.60195,1.22404 0.172,-0.0754 0.36377,0.23053 0.42658,0.67966 0.0673,0.48352 0.15544,0.61009 0.21595,0.31102 0.12809,-0.63235 2.63312,-1.18415 3.30904,-0.72899 0.3459,0.23311 0.41987,0.20732 0.2861,-0.0978 -0.0946,-0.22332 -0.0267,-0.46959 0.15099,-0.54748 0.17768,-0.0779 0.38916,0.009 0.46969,0.19244 0.31784,0.72503 2.74528,1.29509 3.87964,0.91106 0.63908,-0.2164 1.58146,-0.52479 2.09389,-0.6849 0.51243,-0.16012 0.87271,-0.42496 0.80094,-0.58868 -0.0718,-0.16373 0.0262,-0.27549 0.2178,-0.24838 0.19169,0.0271 0.51243,-0.32947 0.71227,-0.79243 0.48673,-1.12707 0.76967,-1.33321 1.32064,-0.96208 0.37975,0.25577 0.43448,0.23292 0.2808,-0.11764 -0.1002,-0.23602 -0.49636,-0.55191 -0.87973,-0.70162 -0.49716,-0.19408 -1.01372,-0.98136 -1.78932,-2.75055 -0.68516,-1.55541 -1.12534,-2.26511 -1.18032,-1.90485 -0.18535,1.21504 -3.53487,-5.86403 -4.70057,-9.9345 -0.20823,-0.72703 -0.23832,-0.712 1.25154,-0.61636 0.66343,0.0426 1.2453,-0.0234 1.29381,-0.14684 0.0481,-0.1233 -0.25649,-0.18756 -0.67662,-0.14292 -1.56515,0.16624 -0.90274,-0.47816 2.0723,-2.01609 7.76198,-4.01251 7.19705,-3.79904 7.96769,-3.01675 1.4405,1.46247 1.75064,1.97341 1.31488,2.16522 -0.24712,0.10877 -0.26741,0.62961 -0.0485,1.24342 0.56568,1.5845 0.25304,1.98217 -1.54402,1.96336 -0.85844,-0.009 -1.61475,-0.13992 -1.68082,-0.29063 -0.0661,-0.15071 -0.34177,-0.17686 -0.61277,-0.0581 -0.271,0.11881 -1.74903,0.14905 -3.28444,0.0671 -4.21898,-0.22536 -3.46006,0.119 1.10372,0.50074 2.67242,0.22353 4.22502,0.54721 4.637,0.96668 0.34071,0.34681 0.70623,0.50462 0.81224,0.35092 0.22478,-0.32736 1.14646,1.79498 0.97175,2.24228 -0.0654,0.16721 0.0327,0.45783 0.21869,0.64554 0.36846,0.37275 -0.63152,3.56413 -1.19404,3.81073 -0.19114,0.0838 -0.78831,-0.16506 -1.32697,-0.55295 -0.53867,-0.38789 -1.08195,-0.55617 -1.20774,-0.37389 -0.12771,0.18491 -0.19903,0.1186 -0.16108,-0.15 0.0788,-0.55709 -2.1373,-2.19738 -2.65952,-1.96844 -0.19307,0.0846 -0.30043,0.025 -0.23909,-0.13217 0.0614,-0.15725 -1.33664,-1.20515 -3.107,-2.32918 -1.77046,-1.12399 -3.25953,-1.9401 -3.30958,-1.81268 -0.10568,0.27051 2.66673,2.43894 3.762,2.94256 0.41081,0.19065 0.64789,0.39024 0.52242,0.44524 -0.12538,0.055 0.38329,0.43845 1.13037,0.85243 0.74707,0.41397 1.24579,0.8024 1.10832,0.86266 -0.13747,0.0603 0.0877,0.26452 0.50042,0.45433 0.93708,0.43095 2.82458,2.20249 3.42723,3.21628 0.57427,0.96625 0.50857,1.55885 -0.12835,1.15653 -0.39522,-0.25297 -0.43987,-0.22306 -0.22724,0.15487 0.41517,0.73706 0.46198,2.1046 0.0797,2.32077 -0.83046,0.46954 -0.98342,0.61128 -1.47332,1.36924 -0.28395,0.43945 -0.4238,1.01034 -0.31079,1.26812 0.14797,0.33753 0.26158,0.23479 0.40518,-0.36665 0.15252,-0.63863 0.2526,-0.72241 0.42698,-0.35702 0.20241,0.42485 0.23923,0.40871 0.33319,-0.14607 0.094,-0.55477 0.16494,-0.58589 0.63652,-0.27904 0.45052,0.29342 0.48808,0.25904 0.27952,-0.2416 -0.13818,-0.32266 -0.0863,-0.56349 0.11588,-0.53491 0.20218,0.0286 0.35399,-0.23959 0.33733,-0.59589 -0.0235,-0.50171 0.07,-0.57842 0.41435,-0.34077 0.30072,0.20751 0.36236,-0.072 0.18991,-0.86416 -0.20599,-0.94608 -0.14918,-1.10666 0.29675,-0.8354 0.42379,0.25784 0.42068,0.15387 -0.0149,-0.44713 -0.63057,-0.87 -0.41207,-1.84829 0.60794,-2.72153 0.94929,-0.81267 2.06695,-2.96777 1.82519,-3.51923 -0.12585,-0.28708 -0.0181,-0.4593 0.26227,-0.41967 0.35071,0.0496 0.20075,-0.41606 -0.56918,-1.76933 -0.9198,-1.61643 -1.00069,-1.96856 -0.67668,-2.94153 0.77598,-2.33002 0.64038,-3.20546 -0.72235,-4.65542 -1.42672,-1.51797 -1.57813,-1.77019 -1.01417,-1.69048 0.2259,0.0319 0.35875,-0.0609 0.29507,-0.20611 -0.12633,-0.28817 -2.79827,0.91849 -5.4664,2.4686 -0.92871,0.53956 -2.74826,1.52823 -4.04391,2.19713 l -2.35574,1.21612 1.7391,-2.18261 c 0.95675,-1.20038 2.98412,-3.49231 4.50493,-5.09292 l 2.76481,-2.90987 0.91025,0.46987 0.90991,0.47061 -0.54228,-0.70399 c -0.40121,-0.52092 -0.416,-0.88692 -0.0566,-1.40724 0.41127,-0.59534 0.55312,-0.63492 0.92453,-0.25917 0.77154,0.78062 4.41673,11.04542 4.04253,11.38363 -0.18496,0.16713 -0.17171,0.67904 0.0293,1.13763 0.42887,0.97826 0.48439,3.73678 0.0788,3.9146 -0.15386,0.0675 -0.12515,0.22984 0.0644,0.36054 0.18943,0.13076 0.18805,1.09346 -0.003,2.13917 -0.19081,1.04568 -0.28037,2.07998 -0.19972,2.29881 0.0809,0.21873 -0.11849,0.16757 -0.44309,-0.11383 -0.54976,-0.47647 -0.55861,-0.46603 -0.13282,0.15529 0.25138,0.36696 0.32839,0.8532 0.17123,1.0805 -0.15717,0.22729 -0.46102,1.15858 -0.67496,2.06931 -0.34046,1.4495 -0.45113,1.59383 -0.88771,1.15935 -0.43687,-0.43514 -0.4609,-0.40353 -0.19653,0.2543 0.16609,0.41273 0.14757,1.19016 -0.0405,1.72742 -0.32789,0.93525 -0.35484,0.95048 -0.64882,0.36458 -0.23528,-0.46968 -0.27681,-0.40128 -0.17752,0.29394 0.0816,0.57165 -0.10357,1.00856 -0.50197,1.18321 -0.34738,0.15229 -0.7023,0.55117 -0.78832,0.8867 -0.0913,0.35623 -0.47887,0.66131 -0.9307,0.73302 -0.42581,0.0675 -0.72513,0.23382 -0.66559,0.36964 0.0595,0.13582 -0.43956,0.67752 -1.10914,1.20395 l -1.2176,0.95753 1.21973,-0.73276 c 3.4881,-2.09462 4.58365,-3.345 5.93159,-6.7718 1.99601,-5.07401 2.49759,-10.4536 1.4705,-15.77027 -0.52877,-2.73691 -3.89084,-10.91234 -4.52462,-11.00189 z m 2.44473,7.87543 c -0.0798,-0.0334 -0.0329,0.1855 0.13552,0.58834 l 4.5e-4,-2e-4 c 0.2273,0.53591 0.40634,0.76424 0.39929,0.50655 -0.007,-0.25768 -0.19378,-0.69582 -0.41311,-0.97445 -0.055,-0.0696 -0.0956,-0.10913 -0.12215,-0.12024 z m -15.21392,7.07422 -0.0933,1.31776 c -0.0511,0.72483 -0.18046,1.41399 -0.28774,1.53167 -0.10728,0.11767 -0.0855,0.46408 0.0486,0.76978 0.23692,0.54043 0.23953,1.86119 0.0145,7.54828 -0.0598,1.50917 -0.0784,3.20737 -0.0411,3.77362 0.0628,0.95513 -0.21569,1.2883 -1.14864,1.37361 -0.20365,0.0186 -0.82772,0.12411 -1.38686,0.23446 -0.55923,0.11039 -0.97538,0.0939 -0.92374,-0.0374 0.0512,-0.13108 -0.42004,-0.46174 -1.04696,-0.73439 -1.14725,-0.49893 -1.8488,-1.43895 -1.399,-1.87443 0.13329,-0.12907 1.34453,-2.83758 2.69174,-6.01897 1.34722,-3.18139 2.7021,-6.25689 3.01086,-6.83427 z m 0.72503,-0.0747 1.14988,2.76963 c 1.14589,2.76081 3.35924,6.87486 3.89954,7.2478 0.15651,0.10795 0.19542,0.521 0.0864,0.91794 -0.10936,0.39712 -0.0817,0.5579 0.0609,0.35756 0.16757,-0.23545 0.48049,0.0906 0.88406,0.92147 0.34349,0.70705 0.78787,1.39818 0.9878,1.53616 0.22149,0.15282 0.16739,0.22344 -0.13827,0.18024 -0.31929,-0.0451 -0.45801,0.20406 -0.38167,0.68529 0.066,0.41608 0.0998,0.76537 0.0751,0.77621 -0.0249,0.0109 -0.42645,0.33384 -0.89246,0.71738 -0.98139,0.80769 -1.80882,0.96931 -1.71932,0.33563 0.0407,-0.28818 -0.0511,-0.27401 -0.26753,0.0423 -0.62617,0.91485 -1.31552,1.10678 -2.4994,0.69566 -1.00153,-0.34784 -1.19542,-0.56272 -1.23575,-1.37103 -0.0263,-0.52737 -0.24796,-1.16137 -0.4923,-1.40863 -0.26545,-0.26852 -0.27831,-0.42588 -0.0321,-0.39105 0.22802,0.0322 0.37652,-0.90875 0.33222,-2.10468 -0.16724,-4.50969 -0.16543,-7.9693 0.006,-9.9043 z m 1.63048,1.40394 c -0.0715,-0.0361 0.10716,0.46061 0.48694,1.32691 0.50636,1.15506 0.77208,1.60153 0.59033,0.99268 -0.18174,-0.60884 -0.59598,-1.55373 -0.9206,-2.09995 -0.0812,-0.13651 -0.13283,-0.2076 -0.15667,-0.21964 z m -14.4585,15.3923 c 0.0433,-0.004 0.10939,0.0249 0.19856,0.0851 0.27625,0.18656 0.48221,0.48626 0.45644,0.66657 -0.0254,0.18014 0.11562,0.25626 0.31454,0.16906 0.19874,-0.0871 0.33776,0.0108 0.30854,0.21738 -0.0292,0.20657 0.0953,0.36842 0.27681,0.35994 0.18138,-0.008 0.56178,0.25232 0.84543,0.57956 0.35441,0.40869 0.38279,0.7267 0.0908,1.01532 -0.23397,0.23116 -0.40119,0.25198 -0.37217,0.0469 0.029,-0.20506 -0.26325,-0.49587 -0.64898,-0.64649 -0.38583,-0.15059 -0.93962,-0.83178 -1.23732,-1.51085 -0.2855,-0.6587 -0.36263,-0.96964 -0.23265,-0.98248 z m 27.87131,-10.84463 c -0.12717,0.0514 -0.27203,0.23103 -0.36383,0.46871 -0.17682,0.45793 -0.12358,0.47875 0.26005,0.10153 0.26562,-0.2611 0.36562,-0.52016 0.22254,-0.57603 -0.0357,-0.014 -0.0764,-0.0113 -0.11877,0.006 z m -22.47941,10.00432 c -0.068,0.004 -0.028,0.20752 0.11803,0.54071 0.19476,0.44427 0.34802,0.59411 0.3404,0.33264 -0.008,-0.26148 -0.16704,-0.62511 -0.35418,-0.8079 -0.0468,-0.0457 -0.0816,-0.0668 -0.10425,-0.0654 z m -0.36262,0.92973 c -0.068,0.004 -0.028,0.20752 0.11803,0.54071 0.19476,0.44425 0.34736,0.59384 0.33973,0.33236 -0.008,-0.26147 -0.16705,-0.62512 -0.35418,-0.8079 -0.0467,-0.0457 -0.0809,-0.0665 -0.10358,-0.0652 z m 21.97022,-9.63157 c -0.068,0.004 -0.0276,0.20732 0.11849,0.5405 0.19475,0.44426 0.34745,0.59381 0.33982,0.33233 -0.008,-0.26147 -0.16705,-0.62512 -0.35418,-0.8079 -0.0468,-0.0457 -0.0815,-0.0663 -0.10413,-0.0649 z m 3.08517,-0.68897 c -0.0742,0.0821 -0.035,0.34805 0.0523,0.8697 1.3e-4,0.001 10e-4,0.003 0.002,0.005 0.0325,-0.0564 0.0634,-0.11318 0.0668,-0.17597 0.005,-0.0958 -0.15044,-0.17381 -0.11536,-0.26315 0.0348,-0.0892 0.22803,-0.026 0.26313,-0.11535 0.0892,0.0348 0.17566,-0.077 0.26358,-0.11555 0.008,-0.004 0.0192,-0.005 0.0286,-0.008 -0.31107,-0.17881 -0.49208,-0.27117 -0.56029,-0.19562 z m 0.15287,0.0565 c 0.053,-0.0232 0.0532,0.0634 0.0633,0.14435 -0.0527,-0.0623 -0.11631,-0.12111 -0.0633,-0.14435 z m -4.10557,2.1683 c -0.0681,0.004 -0.0277,0.20736 0.11839,0.54055 0.19476,0.44426 0.34745,0.59379 0.33982,0.33232 -0.008,-0.26148 -0.16703,-0.6251 -0.35417,-0.80789 -0.0468,-0.0457 -0.0815,-0.0663 -0.10404,-0.065 z m -15.41667,9.8077 c -0.0191,0.0489 0.008,0.17238 0.0823,0.36399 0.13532,0.34677 0.29498,0.50423 0.35534,0.34978 0.0601,-0.15433 -0.0505,-0.43841 -0.24604,-0.63073 -0.10815,-0.10622 -0.17257,-0.13186 -0.19156,-0.083 z m -0.5798,0.28639 c -0.068,0.004 -0.028,0.20752 0.11803,0.54071 0.19475,0.44425 0.34735,0.59383 0.33973,0.33236 -0.008,-0.26148 -0.16683,-0.62464 -0.35397,-0.80742 -0.0468,-0.0457 -0.0811,-0.067 -0.10379,-0.0657 z m 14.75008,-5.72829 c -0.0191,0.0489 0.008,0.17238 0.0823,0.36398 0.13532,0.34678 0.29507,0.50419 0.35534,0.34978 0.0601,-0.15434 -0.0503,-0.43793 -0.24583,-0.63025 -0.10806,-0.10626 -0.17277,-0.13233 -0.19177,-0.0835 z m -8.1569,5.11686 c -0.0191,0.0489 0.008,0.17238 0.0823,0.36399 0.13532,0.34677 0.29507,0.50419 0.35534,0.34978 0.0601,-0.15434 -0.0505,-0.43841 -0.24605,-0.63073 -0.10805,-0.10627 -0.17256,-0.13186 -0.19155,-0.083 z m 3.1283,1.17951 c -0.16724,0.0733 -0.33012,0.31769 -0.36203,0.54353 -0.0319,0.22584 0.16854,0.31149 0.44559,0.19004 0.27696,-0.12142 0.43973,-0.36631 0.36183,-0.544 -0.0779,-0.17771 -0.27815,-0.26288 -0.44539,-0.18957 z"
       inkscape:export-filename="skipper_elements_lemon.svg"
       inkscape:export-xdpi="96"
       inkscape:export-ydpi="96" /></g></svg>
