<?xml version="1.0" standalone="no"?>
<!DOCTYPE svg PUBLIC "-//W3C//DTD SVG 20010904//EN"
 "http://www.w3.org/TR/2001/REC-SVG-20010904/DTD/svg10.dtd">
<svg version="1.0" xmlns="http://www.w3.org/2000/svg"
 width="1083.000000pt" height="1083.000000pt" viewBox="0 0 1083.000000 1083.000000"
 preserveAspectRatio="xMidYMid meet">
<metadata>
Created by potrace 1.14, written by Peter Selinger 2001-2017
</metadata>
<g transform="translate(0.000000,1083.000000) scale(0.100000,-0.100000)"
fill="#000000" stroke="none">
<path d="M5040 10768 c-13 -35 -28 -69 -33 -75 -5 -7 -6 -13 -3 -13 4 0 0 -12
-8 -27 -9 -16 -44 -100 -80 -188 -71 -178 -133 -330 -146 -360 -9 -23 -23 -57
-24 -65 -1 -3 -7 -14 -13 -25 -6 -11 -11 -22 -11 -25 -1 -8 -20 -57 -42 -104
-11 -25 -20 -49 -20 -53 -1 -4 -9 -26 -20 -48 -11 -22 -19 -43 -20 -46 0 -4
-8 -24 -17 -45 -9 -22 -17 -41 -18 -44 -8 -26 -55 -130 -59 -130 -3 0 -14 16
-26 35 -12 20 -27 41 -34 48 -7 6 -15 19 -19 27 -4 8 -43 67 -88 130 -72 103
-100 143 -149 215 -90 133 -157 229 -165 239 -5 6 -39 54 -74 106 -36 52 -68
97 -73 98 -4 2 -8 7 -8 12 0 14 -53 90 -62 90 -5 0 -7 4 -4 9 4 5 2 11 -2 13
-5 1 -21 21 -35 43 -14 22 -49 72 -77 110 -27 39 -55 80 -60 93 -9 21 -17 24
-60 24 -61 0 -72 -2 -67 -16 3 -8 3 -17 0 -20 -4 -4 -8 -28 -9 -54 -1 -26 -5
-81 -8 -122 -4 -41 -9 -103 -11 -137 -9 -123 -15 -189 -19 -233 -8 -72 -20
-233 -31 -385 -2 -38 -7 -90 -10 -115 -3 -25 -8 -79 -10 -120 -2 -41 -6 -100
-9 -130 -3 -30 -8 -84 -11 -120 -2 -36 -7 -90 -9 -120 -3 -30 -7 -84 -10 -120
-3 -36 -8 -97 -12 -136 -3 -39 -7 -90 -9 -115 -2 -24 -6 -80 -9 -124 -3 -44
-8 -98 -11 -120 -2 -22 -7 -80 -10 -130 -7 -104 -13 -154 -21 -166 -3 -5 0 -9
6 -9 6 0 9 -4 6 -8 -5 -9 -16 -104 -21 -187 -2 -27 -4 -50 -5 -50 -1 0 -3 -31
-5 -70 -5 -81 -11 -152 -20 -250 -4 -38 -9 -95 -10 -125 -2 -30 -4 -55 -5 -55
-1 0 -3 -25 -5 -55 -4 -69 -14 -191 -19 -250 -3 -25 -7 -81 -11 -125 -3 -44
-8 -105 -11 -135 -2 -30 -6 -82 -9 -115 -3 -33 -7 -80 -9 -105 -2 -25 -7 -88
-11 -140 -3 -52 -8 -111 -10 -130 -4 -38 -14 -158 -21 -255 -10 -143 -14 -167
-38 -223 -14 -33 -46 -111 -71 -174 -25 -62 -50 -122 -55 -133 -30 -66 -50
-119 -50 -131 0 -8 -4 -14 -10 -14 -5 0 -9 -3 -8 -7 3 -7 -71 -197 -107 -278
-17 -37 -38 -88 -39 -95 -6 -24 -42 -106 -49 -111 -5 -3 -8 -9 -7 -13 2 -7
-28 -86 -61 -161 -9 -22 -40 -98 -68 -170 -29 -71 -58 -144 -66 -162 -8 -17
-15 -34 -15 -37 0 -3 -9 -28 -21 -54 -24 -54 -19 -42 -94 -227 -31 -77 -63
-154 -71 -172 -8 -17 -14 -34 -14 -38 0 -3 -10 -27 -21 -53 -12 -25 -22 -52
-23 -59 -1 -7 -8 -19 -14 -25 -7 -7 -12 -17 -12 -23 0 -12 -39 -113 -66 -172
-8 -18 -21 -50 -29 -70 -7 -21 -52 -132 -100 -248 -47 -115 -87 -214 -88 -220
-1 -5 -4 -12 -7 -15 -3 -3 -26 -57 -50 -120 -24 -63 -48 -118 -53 -121 -5 -3
-8 -9 -7 -13 2 -7 -49 -140 -87 -224 -12 -29 -23 -55 -23 -58 0 -3 -6 -20 -14
-37 -20 -44 -143 -346 -178 -437 -16 -41 -33 -83 -39 -92 -5 -10 -9 -25 -9
-33 0 -8 -4 -15 -8 -15 -4 0 -9 -10 -9 -22 -1 -13 -7 -24 -13 -26 -5 -2 -10
-10 -10 -17 0 -12 -17 -55 -82 -210 -29 -71 -32 -77 -83 -205 -25 -63 -50
-124 -55 -135 -21 -47 -52 -121 -54 -130 -2 -5 -8 -21 -14 -35 -23 -56 -35
-85 -37 -90 -1 -3 -7 -18 -14 -35 -16 -38 -7 -87 20 -103 11 -7 37 -15 56 -18
20 -2 50 -7 67 -10 17 -3 51 -7 76 -10 25 -2 63 -7 85 -10 22 -4 54 -8 70 -9
17 -2 50 -6 75 -10 46 -7 98 -13 160 -20 19 -2 35 -4 35 -5 0 -1 16 -3 35 -5
34 -3 100 -12 150 -20 14 -2 48 -6 75 -10 28 -3 66 -8 85 -11 19 -3 51 -7 70
-9 35 -3 97 -11 155 -20 34 -5 127 -17 165 -21 14 -1 25 -3 25 -4 0 -1 18 -4
40 -6 45 -4 107 -12 115 -15 3 0 13 -1 22 0 18 2 19 -26 3 -209 -9 -103 -19
-234 -30 -370 -3 -47 -8 -102 -10 -124 -9 -79 44 -121 119 -96 18 6 42 13 52
15 10 2 44 11 74 20 30 9 62 17 70 19 8 2 35 10 60 17 25 7 50 13 55 14 20 5
171 46 235 65 100 30 252 71 279 77 14 2 29 6 33 9 5 3 24 8 41 11 18 3 39 8
47 13 8 4 40 13 70 21 30 7 57 14 60 14 3 1 12 4 20 8 12 5 206 58 260 72 8 2
74 20 145 40 72 19 137 37 145 39 8 2 41 12 74 21 32 9 66 19 75 20 9 2 17 4
19 5 1 2 5 3 10 4 4 2 27 8 52 15 39 11 139 9 210 -4 31 -6 241 -34 300 -40
30 -4 85 -11 155 -21 20 -3 70 -10 147 -20 24 -3 57 -7 73 -9 17 -2 48 -6 70
-9 22 -4 60 -8 85 -11 25 -2 45 -4 45 -5 0 -2 42 -7 105 -15 46 -5 100 -12
155 -19 31 -5 92 -13 155 -21 19 -2 51 -7 70 -10 19 -2 58 -7 85 -10 28 -3 97
-12 155 -20 108 -15 151 -21 230 -31 56 -6 95 -12 251 -34 42 -6 80 -10 85 -9
5 1 11 0 14 -1 3 -1 21 -4 40 -6 19 -2 48 -6 65 -8 16 -3 50 -7 75 -11 25 -3
61 -8 80 -11 19 -3 51 -7 70 -10 38 -4 81 -9 150 -18 41 -6 98 -13 175 -22 60
-8 150 -22 160 -25 6 -2 29 0 53 4 33 6 45 13 53 34 10 28 -2 117 -21 153 -6
11 -9 20 -6 20 3 0 0 15 -5 33 -6 17 -12 39 -14 47 -2 8 -19 76 -39 150 -20
74 -39 146 -42 160 -3 14 -9 39 -14 55 -5 17 -21 75 -35 130 -14 55 -28 108
-30 117 -5 18 -13 50 -20 78 -2 8 -4 15 -5 15 -1 0 -3 7 -5 15 -1 8 -10 42
-19 75 -9 33 -19 69 -21 80 -2 11 -7 30 -10 41 -7 24 2 33 43 40 15 3 46 11
69 19 23 8 86 26 140 39 54 14 170 46 258 71 88 25 168 48 179 50 10 2 44 12
75 21 31 9 61 17 66 18 6 2 30 9 55 16 25 7 52 14 60 16 13 2 153 39 188 50 7
2 14 4 17 5 61 19 174 51 185 53 8 1 22 5 30 9 8 3 26 9 40 11 14 3 50 12 80
21 30 9 62 17 70 20 17 4 167 45 275 75 39 11 77 22 86 24 73 19 93 28 110 47
10 12 19 32 19 45 0 19 -123 214 -168 267 -8 9 -20 26 -26 37 -23 40 -160 235
-168 238 -4 2 -8 8 -8 13 0 6 -5 15 -10 22 -10 12 -67 93 -235 337 -43 63 -82
117 -87 118 -4 2 -8 9 -8 15 0 7 -21 39 -45 72 -24 33 -48 65 -52 71 -5 5 -12
17 -18 26 -22 35 -90 133 -95 138 -5 5 -40 55 -144 210 -28 41 -56 81 -63 88
-7 7 -13 17 -13 21 0 4 -8 16 -17 27 -10 11 -22 28 -28 37 -29 48 -250 362
-257 365 -4 2 -8 10 -8 18 0 8 -4 14 -10 14 -5 0 -10 7 -10 15 0 8 -4 15 -9
15 -5 0 -13 9 -16 20 -3 11 -12 26 -19 32 -6 7 -46 63 -86 123 -41 61 -77 112
-80 115 -4 3 -21 29 -40 57 -18 29 -37 53 -42 53 -4 0 -8 5 -8 11 0 6 -15 32
-33 58 -19 25 -60 84 -92 131 -32 47 -75 108 -94 135 -19 28 -59 86 -89 130
-30 44 -57 82 -61 85 -3 3 -12 17 -19 31 -8 14 -25 39 -38 54 -13 15 -24 34
-24 42 0 7 -4 13 -9 13 -5 0 -33 37 -62 82 -30 44 -60 87 -67 95 -7 7 -10 13
-5 13 4 0 3 4 -3 8 -6 4 -54 70 -107 147 -53 77 -100 145 -104 150 -5 6 -33
46 -62 90 -85 125 -96 140 -103 143 -5 2 -8 9 -8 16 0 7 -9 21 -20 31 -11 10
-20 24 -20 31 0 7 -4 14 -8 16 -5 2 -33 39 -62 83 -29 44 -56 82 -59 85 -3 3
-26 34 -50 70 -47 70 -115 169 -223 323 -37 54 -68 102 -68 107 0 4 -4 10 -8
12 -5 2 -25 28 -46 58 -20 30 -43 64 -51 75 -224 318 -229 327 -238 382 -3 17
-10 40 -16 52 -7 11 -10 21 -7 21 3 0 0 15 -6 33 -5 17 -13 48 -18 67 -4 19
-20 80 -35 135 -15 55 -28 107 -30 116 -2 9 -9 34 -15 55 -6 22 -15 55 -20 74
-5 19 -27 105 -50 190 -23 85 -48 183 -56 218 -8 35 -19 72 -24 83 -6 10 -9
19 -6 19 3 0 -2 21 -10 48 -8 26 -17 58 -20 70 -3 13 -12 49 -20 80 -8 32 -17
64 -19 72 -2 8 -11 42 -20 74 -8 33 -17 67 -19 75 -2 9 -5 23 -9 31 -5 15 -24
87 -32 125 -2 11 -14 54 -25 95 -12 41 -23 82 -25 90 -2 8 -15 60 -30 115 -14
55 -30 116 -35 135 -4 19 -22 87 -39 150 -18 63 -34 126 -37 140 -8 35 -10 43
-16 60 -6 15 -40 145 -44 165 -1 6 -14 55 -29 110 -14 55 -28 108 -31 118 -2
9 -6 25 -8 35 -3 9 -12 44 -21 77 -9 33 -47 182 -86 330 -39 149 -74 280 -79
293 -8 19 -17 22 -62 22 l-53 0 -25 -62z"/>
</g>
</svg>
